<svg fill="#E8418B" xmlns="http://www.w3.org/2000/svg" xmlns:xlink="http://www.w3.org/1999/xlink" version="1.1" x="0px" y="0px" viewBox="0 0 64 55" style="enable-background:new 0 0 64 55;" xml:space="preserve"><g><path d="M61,0H3C1.346,0,0,1.346,0,3v40c0,1.654,1.346,3,3,3h28v-2H3c-0.551,0-1-0.449-1-1V3.886l21.879,14.821L11.293,31.293   l1.414,1.414l12.858-12.858l5.874,3.979C31.608,23.943,31.804,24,32,24s0.392-0.057,0.561-0.172l5.874-3.979l3.856,3.856   l1.414-1.414l-3.584-3.584L62,3.886V28h2V3C64,1.346,62.654,0,61,0z M32,21.792L2.833,2.034C2.89,2.024,2.941,2,3,2h58   c0.059,0,0.11,0.024,0.167,0.034L32,21.792z"></path><path d="M49,25c-8.271,0-15,6.729-15,15s6.729,15,15,15s15-6.729,15-15S57.271,25,49,25z M49,53c-7.168,0-13-5.832-13-13   s5.832-13,13-13s13,5.832,13,13S56.168,53,49,53z"></path><path d="M49,47c-3.309,0-6-2.691-6-6h-2c0,4.411,3.589,8,8,8s8-3.589,8-8h-2C55,44.309,52.309,47,49,47z"></path><path d="M44,38c1.654,0,3-1.346,3-3s-1.346-3-3-3s-3,1.346-3,3S42.346,38,44,38z M44,34c0.551,0,1,0.449,1,1s-0.449,1-1,1   s-1-0.449-1-1S43.449,34,44,34z"></path><path d="M54,32c-1.654,0-3,1.346-3,3s1.346,3,3,3s3-1.346,3-3S55.654,32,54,32z M54,36c-0.551,0-1-0.449-1-1s0.449-1,1-1   s1,0.449,1,1S54.551,36,54,36z"></path></g></svg>