<svg id="Layer_1" data-name="Layer 1" xmlns="http://www.w3.org/2000/svg" viewBox="0 0 240 204"><defs><style>.cls-1{fill:#fff;}.cls-2{fill:#231f20;}.cls-3{fill:#2d2b2e;}.cls-4{fill:#6b8dbf;}.cls-5{fill:#ebc3b8;}.cls-6{fill:#007367;}.cls-7{fill:#354da0;}.cls-12,.cls-8{fill:#e4b226;}.cls-9{fill:#ed2724;}.cls-10{fill:#00bff2;}.cls-11{fill:none;stroke-width:0.5px;}.cls-11,.cls-12{stroke:#231f20;stroke-miterlimit:10;}</style></defs><title>mob</title><path class="cls-1" d="M108.8,49.33c-.11-.33.18-1.19-.79-.74m-.38,1.47c1,.55.56,1.43.54,2.22-.09.63.31,1.18.29,1.8v.54h0a8.27,8.27,0,0,1-.11,1,7.06,7.06,0,0,0,0,.92h0c0,1.16,1.19,1.84,1.13,3.19-.07,1.69.68,2.67,3.12,3a32.16,32.16,0,0,1-.83-6.26c-.43.53-.08,1.18-.36,1.73-.15-.67-.83-1.26-.19-2,.14-.17,0-.29-.3-.29-.71,0-1-.39-1-1.09a10.12,10.12,0,0,0,.12-2.2.23.23,0,0,1,.13-.3h0c.17,0,.34,0,.42.17s0,.45.39.35c-.15-1,.63-1.32,1.49-1.74a2.46,2.46,0,0,0-.25,1.41c.06,2,.14,3.94.12,5.9s.67,3.85,1,5.76.42,3.59.68,5.37A17.27,17.27,0,0,0,116.58,77c.21.32.45.58.11,1.07l-1.25-1.9a6.13,6.13,0,0,0-.19,2c.08,1.72-.14,3.46.58,5.1a17.25,17.25,0,0,0,6.3,7.41c.73.5,1.71.81,2,1.8.49-.2.86.16,1.14.39,2.06,1.67,4.35,3,6.44,4.64.63.49,1,.54,1.64,0A7.88,7.88,0,0,1,136,96.06a14.45,14.45,0,0,0,5.3-2.79c.15-.13.33-.36.5-.2s0,.41-.19.56a16.44,16.44,0,0,1-5.54,3.09c-.48.15-.94.38-1.41.57-.18.07-.42.06-.36.37s.18.24.35.31a5,5,0,0,1,2.18,1.55,73.66,73.66,0,0,0,6.22,7.33c.57.55.71.57,1.23,0a46.72,46.72,0,0,1,4.09-4.69,1.22,1.22,0,0,0,.47-.86c.06-2.64.57-5.26.39-7.93-.12-1.73.06-3.46.11-5.19a21.82,21.82,0,0,0-.6-6.34c-.44,1.39-.28,2.91-1.17,4.17s-1.53,2.42-2.4,3.56c-2.16,2.88-2.19,2.87-2.91,2.8a39,39,0,0,0,2.43-3.1c1.49-2.17,3.19-4.26,3.13-7.13,0-.53.08-1.07.11-1.61a62.86,62.86,0,0,0,.07-6.44c-.27.51-.42.79-.58,1.07a68.74,68.74,0,0,1-4.3,7c-.77,1-2,1.58-2.51,2.79l-3.22,2.45c-2.48,1.88-5.28,1.72-8.09,1.11-.53-.12-1.31-.15-1.64-.83-.15-.08-.44-.1-.19-.35s.36-.13.4.16c.57.07,1.15.12,1.72.2a11.81,11.81,0,0,0,4.95-.24,12.79,12.79,0,0,0,5.53-3.89,40.36,40.36,0,0,0,6-7.29c1.2-2.1,2.57-4.13,2.69-6.66a22.55,22.55,0,0,1,.35-2.83c.23-1.35.27-2.73.39-4.1-.59.93-.77,2-1.31,2.7a1.58,1.58,0,0,0-.06-1.52c0-.11,0-.2-.18-.21h0a9,9,0,0,1,.59-1.35,12.89,12.89,0,0,0,1.92-8,14.17,14.17,0,0,0-.3-2.42c-.23-1-.35-1.93-.52-2.9a19.66,19.66,0,0,0,2.08-2s.93-10,.78-11.54.2-4.95-3.4-6.95-7.84-4-13.71-3.81-14,.91-16.53,3.28a15.25,15.25,0,0,0-3.51,5l-.61.46c-2.29,5.19-2.85,7.66-2.8,10a3.57,3.57,0,0,1-.3-.38c-.16-.22-.06-.85-.6-.54a.8.8,0,0,0-.4,1,2.83,2.83,0,0,1-.33,2.79,4,4,0,0,1-.07.91c-.07.3.27.54.41.8a2.74,2.74,0,0,1,1.1,1.71,1,1,0,0,1-.75,1.16.33.33,0,0,1-.58-.27c.81-2.32,1-2.82.61-3.74-.15-.4-2,.17-1.9-.28-.76.27-1,.71-.55,1.47m1.21,11.22a.18.18,0,0,1-.15.07.56.56,0,0,1-.17-.09c0-.19.13-.23.21-.17s.22.07.13.19Zm.14-8.5v-.14H110ZM140.67,85c.19-.1.38-.37.58-.16s-.1.4-.21.48c-1,.69-.72,2.06-1.54,2.84-.46.43-.88.92-1.31,1.38h0c-.31-.34,0-.54.22-.72A1.55,1.55,0,0,0,139,88c-.51-.06-.7.55-1.22.46A26.18,26.18,0,0,0,140.67,85Zm-2.5,4.55c-.53.22-.79.76-1.3,1,.33-.49.47-1.19,1.3-1Zm.25,2.37a43.49,43.49,0,0,1-3,3.37.52.52,0,0,1-.7.13c1.44-1.06,2.45-2.54,3.7-3.53Zm-3.68,3.5v.07h0Zm-9-31.8a.46.46,0,0,1,.33-.37A1.65,1.65,0,0,0,125.79,63.62Zm.12,3c.52.36.38-.27.57-.4.6-.41,2.22.36,2.87,1.49a5.87,5.87,0,0,0-2.65-.48A1.83,1.83,0,0,1,124.9,66a1.26,1.26,0,0,1,.58-1.63c-.09.41-.08.84-.13,1.24a1,1,0,0,0,.56,1Zm8.38.09c.31.08.55.23.59.46s-.33.4-.5.37a2.56,2.56,0,0,0-2.3,1c-.1.1-.31.06-.47.09.69-1,1.09-2.38,2.68-2Zm-22.72-19.5a6,6,0,0,1-.49-.64c-.45-.85-.33-1,.63-1a.73.73,0,0,0,.42-.21c.05.87,0,1.77,0,2.52Zm2,17c-.06,0-.14-.11-.17-.19a.22.22,0,0,1,.09-.3h0c.16,0,.19.11.21.23s0,.27-.12.27Zm1.33-13.54a.87.87,0,0,0-.47-.37c-.49-.19-.47-.45-.09-.71a11.54,11.54,0,0,1,2.89-1.66,3.26,3.26,0,0,1,2,.15c1.52.45,3.09.1,4.62.51a8.13,8.13,0,0,0,1.93.59c.84,0,1.14.44,1.67,1l.25-.87h.15l.09.8c.38,0,.22-.38.48-.45.38.55-.53,1-.07,1.61l.26-.19-.08.08c-.38.47-.69,1-1.27.15a1.05,1.05,0,0,0-1.38-.22,1.4,1.4,0,0,1-1.61-.06,2.53,2.53,0,0,0-1.27-.24,17.78,17.78,0,0,1-2.5-.48c-1.52-.27-3.22-.5-4.63.48C115.34,51.13,115.16,51.31,114.9,50.67Zm.87,18.7,1.08,3.32A4.13,4.13,0,0,1,115.77,69.37ZM117,53.56l-.45-.22h0c.88-.25,1.15-1.25,2-1.59a5.22,5.22,0,0,1,3.2-.1,6.84,6.84,0,0,0-2.38.31,4.39,4.39,0,0,0-2.11,1.48c-.1.1,0,.24.21.22.94-.21,1.36-1.22,2.33-1.45a4.56,4.56,0,0,1,3.8.31,1,1,0,0,0,.84,0,1.63,1.63,0,0,0-1.19-.68c.91,0,2.06.23,2.23.94s1,1.08,1.22,1.89a8.64,8.64,0,0,0-3.08.29l-.14-.2c-1,0-2.09.28-2.93-.58-.74-.39-.21-1-.22-1.71-.72.53-1.53.61-2,1.29l.61.55-1.6-.18L117,53.9C117,53.79,117.1,53.68,117,53.56Zm1.6,14.26c-.19.52-.38,1.05-.58,1.62C117.69,68.53,117.88,68.05,118.6,67.82ZM125.21,87a50.34,50.34,0,0,1-7-7,6.37,6.37,0,0,1-.64-.9c-.13-.21-.45-.5-.24-.67s.57,0,.82.3A74.36,74.36,0,0,0,125.41,86c.51.45,1.19.75,1.52,1.52A2,2,0,0,1,125.21,87Zm0-13.78a5,5,0,0,0-1.31-.88h0a2.4,2.4,0,0,0-1.26-1c-1.11-.37-2-1.38-3.31-1.15.34-.56.39-.64.94-.34,1.44.79,3.15.85,4.56,1.72-.12.32-.6-.13-.66.24s.3.4.49.58a14.32,14.32,0,0,0,3.87,2.35,11,11,0,0,1-3.32-1.56ZM130,77.5c.64-.06,1.29,0,1.93-.06s1.3-.15,2-.23c-.77.81-4.19.71-5.67-.06C128.9,77,129.38,77.57,130,77.5Zm-.58,2.81c1.68-.25,3.18-.87,4.82.06-1.61.2-3.11-.14-4.8-.06Zm8.3-7.31c-2.28,1.63-4.55,2.67-7.51,2.1-.31-.06-.6-.14-.9-.21h0c1.41-.25,2.85,0,4.26-.18s2.82-.61,3.45-2.15c-.08,0-.12,0-.14-.08h-.79l-1.47.08a7.75,7.75,0,0,1-4,0l-1-.13h0l-1.09-.09a.78.78,0,0,1-.54-.13c-.77-.14-1.62.08-2.41-.51,1-.34,1.8.12,2.64.2,4,.38,8,.73,11.75-1.14a1.48,1.48,0,0,1,1.68.12C139.85,70.87,138.88,72.15,137.72,73Zm-1-7.78a1.63,1.63,0,0,1-.88,1.73c.9-1.17.63-2.42-.34-3.58-.1-.11-.35-.13-.13-.33s.24-.21.43-.07a2.87,2.87,0,0,1,.95,2.23Zm-.1-9.9c.79.12,1.63.13,2.12.9Zm-1.26,11.83v.08l-.17,0V67.2Zm7.29,4.2c.15-.77.16-1.56.3-2.33a1.93,1.93,0,0,1-.27,2.31Zm2-17.63c-.81-.11-1.23.77-2,.74A.45.45,0,0,1,143,54c1.2-.27.71-.73.15-1.2-.77-.36-1.16-.19-1.1.74,0,.47,0,1-.72,1s-1.58.39-2.22-.36c0,.48-.37.4-.66.41h-1.31c-.21,0-.59.16-.57-.15s-.33-.76.14-1A10.27,10.27,0,0,1,138.87,52c.24-.06.27-.14.1-.32a1.61,1.61,0,0,0-1.21.25l-.29.1c-.1.14-.18.31-.41.22a1.46,1.46,0,0,1-1.31,1c-.76.83-2.09,1.13-2.22,2.53a1.9,1.9,0,0,1,.68-2c.44-.33.37-1.14,1-1.38,1.57-.63,3.11-1.53,4.92-1a5.75,5.75,0,0,1,3.16,1.18c.64,0,.88.68,1.46.8.11,0,.08.34-.11.32Zm-.82-1.53c.52-.24.69.25,1,.45-.53.23-.61-.46-1-.47Zm1.15.72c-.15,0-.33-.08-.13-.26.14,0,.32-.09.35.15a.29.29,0,0,1-.2.09Zm1,18.52-.3-.09.91-3.16c.31,1.19-.34,2.16-.65,3.23Zm.82-21.54c.08.44.28.88-.09,1.15s-.6-.25-.91-.37a4.72,4.72,0,0,0-1.64-.45c-1.46,0-3.08-.38-4.36.11-1.7.66-3.56.06-5.13,1-.17.1-.35.13-.46-.17s-.35-.65,0-.89a2.83,2.83,0,0,0,.7-.8c.25-.34.37-.69,1-.42.28.12,1.24-.56,1.5-.52,1,.16,1.78-.37,2.71-.21,1.15.2,2.27-.27,3.42-.38,1.7-.16,2.8.89,4,1.71.15.1.32.34.09.51s-.45-.25-.87-.29Z"/><path class="cls-1" d="M46.68,48.64h-6c-.62.54-.52,1.28-.53,2,0,3.57-.06,7.14-.08,10.7a1.4,1.4,0,0,0,0,.86v4.61c0,1,.85,1.3,1.28,1.94a7.92,7.92,0,0,0,.89.94c-.54.15-.83.82-1.58.26-.22-.17-1,.48-.86,1.11a5.14,5.14,0,0,0,.57,1.79.93.93,0,0,0,1.23.46l.11-.06a4.64,4.64,0,0,0,1.82-1.12h0c.33,0,.63-.11.66.44A2.21,2.21,0,0,1,42,74.82a2,2,0,0,1-.64-.08,1.64,1.64,0,0,1-1.11-.63c-.71,2.22,1.2,2.29,2.2,3.12-.49.42-1.15.71-1.43,1.46.5-.08.56-.51.82-.72s.65-.54,1-.37a1,1,0,0,1,.32,1.2A1.9,1.9,0,0,1,40.94,80c-.83-.29-.79.07-.78.67.05,2.18.05,4.36.06,6.53,0,1.38.13,1.51,1.49,1.52q9.69,0,19.39.06c2.21,0,2.21,0,2.22-2.17v-5A1.17,1.17,0,0,1,63.9,83v6.12a14.87,14.87,0,0,1-.45,3.11,2.68,2.68,0,0,1-2.4,2c-.83.14-1.68.16-2.52.23a.53.53,0,0,0-.61,0H51.77a.38.38,0,0,0-.45,0h-.4a1.4,1.4,0,0,0-.86,0H45.59a4.2,4.2,0,0,0-1.5,0c-.8,0-1.6-.08-2.4,0a2.26,2.26,0,0,1-1.95-.69A8.71,8.71,0,0,1,39,89.38V80.82a1.86,1.86,0,0,1,.22-1.2,4,4,0,0,1-3.43-2c-.31,1.14-.56,1.48-.94,1.5.09.36.42.41.8.4.22,0,.54-.07.59.24a.61.61,0,0,1-.44.62c-.45.18-.92.32-1.61.55a2.42,2.42,0,0,0,2.49-.49c.24-.23.39-.71.87-.3s0,.56-.2.79c-.41.63-.33.87.4.9.09,0,.17-.14.24,0a7.45,7.45,0,0,1,0,3.45,2,2,0,0,1-1.62,2,.86.86,0,0,0-.56.67c0,.07-.13.16-.11.2a.21.21,0,0,0,.29,0c.74-.42,1.68-.4,2.35-1.29v3a5.68,5.68,0,0,0,1,3.71,2.59,2.59,0,0,0,2.8,1.73c2.48-.07,5-.13,7.42-.28.67,0,.68.16.62.68a12.22,12.22,0,0,0,1,6.31,1,1,0,0,0,.23.31,1.91,1.91,0,0,0,.32.16,4,4,0,0,0-.24-1.68,5.92,5.92,0,0,1,.08-4.4c0-.07.09-.13.09-.19,0-1.65,1.08-1.21,2-1.06a18.66,18.66,0,0,0,4-.2,6.91,6.91,0,0,0,2.9,0,7.15,7.15,0,0,0,1.76-.47c.22-.15.45-.47.67-.19s-.1.48-.23.72A31.31,31.31,0,0,0,61,98.49a33.67,33.67,0,0,1-2.12,4.56,2.18,2.18,0,0,1-.42.54c-.3.32-1,.72.08.94.22,0,.12.29.13.44a19.92,19.92,0,0,1-.74,6,11,11,0,0,0-.46,2.6c-.15,4.28-1,8.49-1.18,12.75-.19,3.94-.49,7.88.42,11.85C57.86,143.39,59,148.62,58.9,154c0,1.46.34,3-.16,4.4a12.18,12.18,0,0,1-2.67,4.6,37.71,37.71,0,0,1-8.73,6.27,3.2,3.2,0,0,0-1.59,1.87c-.1.34-.31.58-.61.15-1.63-2.3-3.94-3.94-5.79-6a11.79,11.79,0,0,1-2.69-5.77c-.87-4.4-.25-8.81.2-13.2a70.26,70.26,0,0,1,1-8.18c1-4.53,1.41-9.16,2.28-13.72a70.64,70.64,0,0,0,.73-9.3c.13-2.43-.72-4.78-.24-7.18.08-.39.13-.78.19-1.22.72.35,1,1.21,2.15,1-2.08-.77-1.79-2.7-2.47-4.09-.58-1.2-1.49-2.14-2.14-3.28A30.75,30.75,0,0,1,36,94.2c-.43-1.36-.69-2.75-1-4.13a7.42,7.42,0,0,0-.77-2.19c-.23-.37-.14-.88-.23-1.27s1.13-1.31-.38-1.2a1.89,1.89,0,0,1-.1-.41c-.67-2.62-.6-5.32-.92-8,0-.3.22-.62.22-.86,0-.73,1.49-.35.94-1.44a19.92,19.92,0,0,1-.59-2A4,4,0,0,1,33,69.8a7.16,7.16,0,0,1,3.19-2.43l1-.08.12.12c.07.13-.14.52.21.39a8.53,8.53,0,0,1,1.78-.55c.39-.06,0-.27-.16-.39-.17-4.79,0-9.58,0-14.37V45.66a2.7,2.7,0,0,1,2.45-2.93H42q9.33.06,18.66.06c2,0,3.21,1.12,3.17,3.05-.2,8.3-.16,16.59,0,24.88a7.92,7.92,0,0,1-.32,3.52c-.4-.34-.24-.76-.24-1.12q0-11.67.06-23.35c0-.87-.34-1.15-1.15-1.1H46.68Zm-.59,59.58.38-.12.27-.1a7.82,7.82,0,0,1-1.53,0c-.61-.13-.45.25-.48.54-.42.18-.84-.11-1.51,0a3.88,3.88,0,0,0,3.38.34ZM39,75.18c.43-1.25-.18-1.86-1.08-2.34-.23-.12-.43-.3-.66-.44s-.69-.51-1-.29.37.47.28.85c-.55.35-1.22.19-1.84.37.63,0,1.09.5,1.69.63-.57,0-.83.65-1.4.66C36.32,74.8,37.73,74.06,39,75.18ZM50.68,107c-1.64-.14-3.31,2.24-3.13,4.21A5,5,0,0,1,50.68,107Zm6.7-2.68c-1.67.05-4.93,1-5.37,1.58,1.74-.5,3.52-.6,5.37-1.55Zm-5.21-1.09a8.26,8.26,0,0,0,3.46.27,10.87,10.87,0,0,0-3.46-.24ZM39.62,78.3a1.26,1.26,0,0,1,0-1.52c.18-.3.35-.39.63-.34a.24.24,0,0,1,.22.26.36.36,0,0,1,0,.11.47.47,0,0,1-.61.24l-.08,0c-.61-.37-.71,0-.72.49A.79.79,0,0,0,39.62,78.3Zm-3.27-3.38c-1.44.47-1.46.51-1.15,1.61ZM38,85c.17-.08.27-.2.22-.38s-.12-.18-.18-.18-.22.19-.25.35S37.88,85,38,85Z"/><path class="cls-1" d="M67.8,73.69c0,.92,0,1.84.07,2.75,0,.7-.33,1.07-.93,1s-.26-.63-.35-1a5.31,5.31,0,0,0-.11-.8c-.07.65-.36,1.36.12,1.93s.93,0,1.42-.14a5.19,5.19,0,0,0,.6,1.79A1.82,1.82,0,0,1,68.51,81c-1.72,2.8-2.56,6-3.73,9a4.73,4.73,0,0,1-.57,1.12c.44-2.35,0-4.73.42-7.07a2.88,2.88,0,0,0-.45-2.26,7.64,7.64,0,0,1-1-4.18,6.49,6.49,0,0,1,1-4.16,2.9,2.9,0,0,1,3.68-1.18A.69.69,0,0,1,68,73a1.27,1.27,0,0,0-.13.19l-.11.21c-.26.1-.58.16-.44.61l.55-.36Z"/><path class="cls-1" d="M35.39,64.67c0-.2.12-.45,0-.59-1.23-2,0-4.32-.61-6.43-.17-.63.33-1.13.87-1.47s1.13,0,1.56.29A2.69,2.69,0,0,1,38.68,59c-.07,1.38-.17,2.77-.26,4.15v.3c-1.2.94-.46,2-.14,3a2.07,2.07,0,0,1-2,.47A8.59,8.59,0,0,0,35.39,64.67Z"/><path class="cls-2" d="M36.21,66.86a2.07,2.07,0,0,0,2-.47.71.71,0,0,0,.87.48h0c.14.12.55.33.16.39a8.53,8.53,0,0,0-1.78.55c-.35.13-.14-.26-.21-.39s.13-.15,0-.22-.08.07-.13.1l-1,.08A.55.55,0,0,0,36.21,66.86Z"/><path class="cls-2" d="M107.87,51.87c.17.17.41.08.58.26a18.74,18.74,0,0,0,0,2.12c-.23.08-.12-.2-.3-.26l-.3-.71"/><path class="cls-3" d="M67.84,73.71l-.55.36c-.14-.45.18-.51.44-.61A1.89,1.89,0,0,1,67.84,73.71Z"/><path class="cls-3" d="M67.84,73.25a1.27,1.27,0,0,1,.13-.19C68.07,73.23,67.84,73.16,67.84,73.25Z"/><path class="cls-1" d="M125,154.81c-.13-.35-.25-.7-.38-1-1.31-3.16-2.65-6.3-3.92-9.48-.7-1.74-1.26-3.55-1.94-5.3-1-2.7-2.14-5.38-3.25-8.05-1.33-3.18-2.2-6.54-3.64-9.64-1.3-2.79-.5-5.46-.41-8.17.09-2.43.24-4.89.56-7.31.41-3.17.14-6.35.48-9.77a31.72,31.72,0,0,1,3.14,5.33,25.68,25.68,0,0,0,3.88,5.8c.39.49.84.62,1.22-.13a7.07,7.07,0,0,1,2.66-2.52c1.42-.92,3.23-1.23,4.13-2.73.36.08.33.26.3.36a3.93,3.93,0,0,0,1.09,3.65,4.65,4.65,0,0,1,1.09,4.81,31.76,31.76,0,0,0-.91,8c-.07,4.35.15,8.71.09,13.06-.09,6-.15,12-.11,18.05a2.88,2.88,0,0,0,.18,1.3v.48a2.09,2.09,0,0,0-.09,1.66,4,4,0,0,0-.08,1.46,1.69,1.69,0,0,0-.29,1.36c.27,1.57-.28,3.11,0,4.79a4.07,4.07,0,0,1-1.63-1.39,1.06,1.06,0,0,0-.6-.72c.19-.67-.33-1.07-.58-1.56a1.17,1.17,0,0,0-.49-.89C125.48,155.67,125.6,155.1,125,154.81Zm2.09-37.13c-1.06-1-2.47-1.25-3.68-1.93-2.19-1.24-4.44-2.33-7.09-1.76a.38.38,0,0,1-.44-.29.33.33,0,0,1,0-.14c0-.3.26-.35.53-.31a4,4,0,0,1,1.71.6c1.37.88,3.09,1,4.51,1.88a15.23,15.23,0,0,0,4.47,2Z"/><path class="cls-1" d="M140.15,146.32l-.39-1.25v-1.9c-.59-3.85-.52-7.77-1.4-11.59a65.75,65.75,0,0,1-1.08-9.69c-.28-3.55-.83-7.06-1.17-10.6a13.6,13.6,0,0,0-.89-3.48,1.54,1.54,0,0,1,.06-1.19,16.9,16.9,0,0,0,1.58-6.24,8.12,8.12,0,0,1,1.47,2.07c1.47,2.16,3.6,3.72,5.18,5.78.32.44.73.48,1.09-.25,1-2,2.78-3.43,4.21-5.16.14,2.73.56,5.37.53,8.05s.66,5,1,7.57c.27,2.15.55,4.31.82,6.46.08.67.1,1.36.24,2,.68,3.21-.23,6.32-.62,9.45-.13,1-.18,2-.25,3a33,33,0,0,1-1,6.08,48.63,48.63,0,0,1-2,6.56,63,63,0,0,1-3.35,6.48,7.45,7.45,0,0,1-1.68,2.21c-.3.25-.66.51-1,.38s-.07-.54-.12-.83c-.66-3.73-.52-7.52-.66-11.28l-.39-1.54v-.62C140.42,146.64,140.47,146.44,140.15,146.32Zm2-22.59c.88,1.71,1.48,3.61,3.1,4.81a19.36,19.36,0,0,0-3.14-4.81Zm4.91,5.43a10.71,10.71,0,0,0-2.23-5.07,34.37,34.37,0,0,0,2.17,5.07ZM139.53,123a6.9,6.9,0,0,0,3,4C141.51,125.69,140.51,124.39,139.53,123Z"/><path class="cls-1" d="M187.26,191.69c.41.38.82,0,1.1-.13a13.44,13.44,0,0,1,4.78-1.26c2.09-.22,4.2-.28,6.3-.42a5.47,5.47,0,0,1,2,.34,2,2,0,0,1,1.41,2.45c-.32,1.87-.46,3.78-.93,5.61-.59,2.33-.93,4.71-1.58,7-.11.38-.32.45-.66.45-4,0-8-.15-12,0-1.51,0-2-.26-2.41-1.8-.4-1.69-.82-3.39-1.22-5.09-.34-1.46-1.06-2.46-2.67-2.56-.23,0-.4,0-.43-.3a.86.86,0,0,1,.4-1,22.62,22.62,0,0,1,4.42-2.16,2.67,2.67,0,0,0,1.64-.92c.08-.13.09-.24-.1-.28Zm0,11.6a1.6,1.6,0,0,0-.49,1.56,4.66,4.66,0,0,0,.51-1.54c.33-.18.37-.52.44-.86-.35.19-.37.55-.45.84Zm-2-3.49,1.43-2.45a3.88,3.88,0,0,0-1.45,2.45Zm.83,3.6c.7-.49.61-1.14.79-1.68a3.23,3.23,0,0,0-.81,1.68Z"/><path class="cls-1" d="M187.28,191.67c-1.57.65-3.38.48-4.85,1.56-1,.75-1.68.39-1.78-.87-.24-3-.08-6.05-.11-9.07,0-.75-.34-1.48,0-2.25.18-.41.43-.79.85-.74,2.09.29,3.85-.86,5.78-1.27,4.7-1,9.34-1.46,13.88.78,1.65.81,3.45,1.31,5.16,2,1.16.49,1.2.77.45,1.75l-.92,1.19c-1,1.3-.46,2.71-.24,4.09.24,1.55.79,3.09.1,4.68-.49-.14-.46-.56-.54-.91a5.37,5.37,0,0,0-5.72-4.38,23.79,23.79,0,0,0-7.21,1,16.75,16.75,0,0,0-4.87,2.4ZM185,182.24a.83.83,0,0,1-.22.2c-.21.09-.62,0-.51.42s.39.19.6.2a6.29,6.29,0,0,0,1.62-.06,34.64,34.64,0,0,1,5.91-.85c.34,0,.76.09,1-.49a32.94,32.94,0,0,0-5.78.51c-.09,0-.22,0-.27-.1s0-.15.13-.18c.3-.12.61-.22.91-.33l.55-.2h0a10.32,10.32,0,0,0,1.88-.69c.28-.07.74,0,.66-.44s-.51-.22-.78-.19a42.86,42.86,0,0,0-8,1.79c-.18.06-.43,0-.38.34s.32.3.55.26c.49-.09,1-.21,1.48-.33Zm1.73,6.74-.49-.71c.32-.44.08-.73-.3-.86-.55-.19-1.13-.47-1.68.07a2.77,2.77,0,0,0-.51,2.54,2.9,2.9,0,0,0,2.42,1,1.68,1.68,0,0,0,1.18-1.27c.06-.52-.35-.65-.67-.75Z"/><path class="cls-1" d="M124.19,92.42c.44,1,1.48,1.23,2.21,1.85,1.53,1.28,3.39,2.13,4.94,3.56a5,5,0,0,0-3.11,2.37c-.62,1-1.83,1.34-2.72,2-1.84,1.43-4.22,2.16-5.52,4.44a26.2,26.2,0,0,1-3.6-5.54,22.42,22.42,0,0,0-3.47-5.4,1.81,1.81,0,0,1-.43-1.28A101.23,101.23,0,0,1,113.65,84c.19-1.47.55-2.91.85-4.45.71.51.32,1.19.39,1.71A13.17,13.17,0,0,0,119,88.59c1.41,1.45,3.15,2.49,4.69,3.79a.45.45,0,0,0,.56.06Z"/><path class="cls-1" d="M154.24,53.09a10.38,10.38,0,0,1,0,3.85c-.13.69-.57,1.2-.74,1.85a16.5,16.5,0,0,0-.59,1.93c-.21,1.5-1.54,1.77-2.56,2.38-.08-.1-.16-.15-.15-.19a32.73,32.73,0,0,0,.72-8.08c0-.24.15-.35.21-.53h0a16.65,16.65,0,0,1,.26,5.22c.26-.06.35,0,.37-.08A18.19,18.19,0,0,0,153,54.8a1.08,1.08,0,0,0-.17-.68,2.79,2.79,0,0,1,.26-3.25l.71,1.86c.08.21.09.49.44.37Z"/><path class="cls-1" d="M52.48,176.37a16.8,16.8,0,0,0-4.57,2.31c-.33.22-.58.68-1,.48s-.2-.72-.23-1.1a18.27,18.27,0,0,0-.28-3.22c-.68-2.53.39-4,2.61-5a20.94,20.94,0,0,0,6.91-5.18,17.5,17.5,0,0,0,4.18-6.52c.21-.6.12-1.28.57-1.91a6.65,6.65,0,0,1,.46,1.92,60.48,60.48,0,0,0,.86,9.69,1.45,1.45,0,0,1-.36,1.11,21.7,21.7,0,0,1-6.29,5.55,12.29,12.29,0,0,0-2.83,1.84Zm3.16-9.69c.33-.47,1-.69,1.12-1.33a6.14,6.14,0,0,0-1.21,1c-.13.13-.28.33.09.38-.24-.17-.24-.17-.67.15Zm-6.24,7.18c0-.23.28-.46-.2-.6a1.37,1.37,0,0,0-1.57.25c-1.08,1.18-.61,2.54,1,3,.68.19,1.07,0,1-.75.78-1.28.76-1.45-.23-1.9ZM61,161.66c-.1.2-.15.39,0,.56C61,162,61.12,161.84,61,161.66Z"/><path class="cls-1" d="M42.22,178c-2.12-3.46-4.85-6.47-4.36-10.94a9.74,9.74,0,0,0,1.66,2.27c.13.12.23.41.47.18s0-.32-.07-.45a31,31,0,0,1-3.62-6.2,10.63,10.63,0,0,1-1.55-5.79,4.59,4.59,0,0,1,.57-1.73c.22,1.46.42,2.73.6,4A12.55,12.55,0,0,0,39.18,166c1.21,1.37,2.54,2.61,3.83,3.9,1,.95.93,1.18.05,2.26a1.67,1.67,0,0,0-.33,1.12C42.68,174.79,42.91,176.33,42.22,178Z"/><path class="cls-1" d="M43.24,173.6c-.18-.35-.29-.66.18-.92.7-.38,1.36-.88,2.23-.55.07,0,.09.24.09.36a38,38,0,0,0,.29,5c.11.93-.43.84-1,.59a8.58,8.58,0,0,1-1.35-.86c-.66-.45-.83-.95-.1-1.49a5,5,0,0,1,.72-.81c.87-.62.23-.9-.24-1.26C43.8,173.4,43.52,173.6,43.24,173.6Z"/><path class="cls-1" d="M151.74,52.05c.23-.91.38-1.84.69-2.72a8.24,8.24,0,0,0,.59-2.55c0-.34.23-.78.5-.8.45,0,.68.48,1,.78a.53.53,0,0,1,.14.75l0,0A42.47,42.47,0,0,0,151.74,52.05Z"/><path class="cls-1" d="M43.41,72.15,42,72.82a1.1,1.1,0,0,1-1.49-.43,1,1,0,0,1-.11-.28,1.46,1.46,0,0,1,.23-1.82c.68-.61,1.16-.38,1.7.1l1,.94c.28.26.19.56.06.85Z"/><path class="cls-4" d="M136.58,151.87c-.33.42-.64.86-1,1.28a.72.72,0,0,1-1,.14l-.14-.14c-.38-.37-.11-.66.25-.89.6-.39.72-.85.21-1.42-.32-.36-.54-.75,0-1.11s.81,0,1.09.37.36.49.54.74C136,151.22,135.86,151.58,136.58,151.87Z"/><path class="cls-4" d="M129.13,154.58a4,4,0,0,1,.08-1.46c.34.36.68.72,1,1.1a1.07,1.07,0,0,0,1.31.44c.53-.26.74-.15,1,.31s-.15.63-.45.83a2.82,2.82,0,0,0-.33.36c-.17.25-.4-.07-.59.06A2.57,2.57,0,0,1,129.13,154.58Z"/><path class="cls-5" d="M132.79,173.14a12.46,12.46,0,0,1,.91,5.05v3.36a1.89,1.89,0,0,1-.39,1.07,61.78,61.78,0,0,0-.21-7.2,2,2,0,0,0-.27-1.08Z"/><path class="cls-4" d="M139.76,143.17v1.9c-.78-.83-1.58-1.65-2.32-2.52-.28-.33-1.09-.69-.27-1.24s.85.25,1.12.66c-.27.05-.54.11-.56.45a.42.42,0,0,0,.36.42c.36.11.55-.11.67-.41C139.09,142.68,139.18,143.26,139.76,143.17Z"/><path class="cls-6" d="M178.76,161.31c-.21,2.23.11,4.49-.45,6.69A15,15,0,0,1,178.76,161.31Z"/><path class="cls-4" d="M131.68,150.46c.22.34.43.69.66,1a.37.37,0,0,1,0,.52.28.28,0,0,1-.11.08c-.21.14-.38.42-.71.28a2,2,0,0,1-.6-2.76,2.5,2.5,0,0,1,.18-.24h0a.8.8,0,0,0,.39,1.06A.7.7,0,0,0,131.68,150.46Z"/><path class="cls-7" d="M58.41,173.26A14.29,14.29,0,0,1,53,176.58c-.2.08-.38-.09-.54-.21H53c1.71-1.23,3.73-1.9,5.47-3.06Z"/><path class="cls-1" d="M154.23,53.1c.15-1.47-.47-2.94.15-4.4.28,1.47.81,2.94-.14,4.39Z"/><path class="cls-4" d="M43.24,173.6c.28,0,.56-.2.86,0,.47.36,1.11.64.24,1.26a5,5,0,0,0-.72.81c-.5-.83-.47-.93.36-1.32a.49.49,0,0,0,.24-.27c0-.17-.14-.18-.26-.23S43.41,173.87,43.24,173.6Z"/><path class="cls-7" d="M189.31,176.36c0,.21.7-.11.33.32-.61.73-1.07,1.78-2.34,1.54l-.05-.05c.19-.65,1.08-.56,1.26-1.2h0a.73.73,0,0,0,.83-.62h0Z"/><path class="cls-4" d="M131.1,149.38c.11-.37.47-.46.72-.68.41-.37.6,0,.79.27.4.56-.07.66-.44.81a.72.72,0,0,0-1-.36Z"/><path class="cls-4" d="M60.51,95a6.85,6.85,0,0,1-2.78.12Z"/><path class="cls-8" d="M129.3,151.46V151a.81.81,0,0,1,1,.3c.1.12,0,.24-.15.33C129.75,151.9,129.53,151.63,129.3,151.46Z"/><path class="cls-8" d="M131.1,156.22c.19-.13.42.19.59-.06a.17.17,0,0,1,0,.1c-.07.34.43.67,0,1a.3.3,0,0,1-.36,0C130.85,157,131.17,156.58,131.1,156.22Z"/><path class="cls-8" d="M133.06,104a.45.45,0,0,1-.41.49h0a.44.44,0,0,1-.46-.42h0c0-.26.17-.35.36-.4A.5.5,0,0,1,133.06,104Z"/><path class="cls-8" d="M134.76,132a.42.42,0,0,1-.43-.35.4.4,0,0,1,.33-.47h.06a.43.43,0,0,1,.45.41v0C135.16,131.84,135,131.91,134.76,132Z"/><path class="cls-8" d="M134.88,120.66a.42.42,0,0,1-.33.43.41.41,0,0,1-.43-.33c-.06-.23.14-.36.33-.41S134.81,120.45,134.88,120.66Z"/><path class="cls-8" d="M133.69,158.66a.35.35,0,0,1-.39.37.64.64,0,0,1-.41-.39c0-.23.18-.33.39-.34a.38.38,0,0,1,.41.35Z"/><path class="cls-8" d="M132.85,114.81c.2.06.39.18.34.41a.37.37,0,0,1-.39.33h0a.39.39,0,0,1-.3-.36.36.36,0,0,1,.35-.37Z"/><path class="cls-8" d="M135.14,128a.45.45,0,0,1-.42.48h0a.43.43,0,0,1-.42-.37.41.41,0,0,1,.33-.45C134.89,127.56,135.05,127.73,135.14,128Z"/><path class="cls-8" d="M133.67,162.12a.38.38,0,0,1-.37.43.38.38,0,0,1-.4-.36.58.58,0,0,1,.37-.39C133.47,161.75,133.58,162,133.67,162.12Z"/><path class="cls-8" d="M133.21,111.6c-.11.25-.18.44-.44.41a.38.38,0,0,1-.34-.42h0a.34.34,0,0,1,.35-.33h.06A.43.43,0,0,1,133.21,111.6Z"/><path class="cls-8" d="M136.11,100.41c-.09.21-.24.35-.47.25s-.31-.21-.25-.38.19-.39.43-.32a.36.36,0,0,1,.29.43Z"/><path class="cls-8" d="M134.75,135.51c-.19-.06-.4-.14-.39-.38a.38.38,0,0,1,.37-.39h0a.38.38,0,0,1,.4.38h0C135.17,135.37,134.92,135.41,134.75,135.51Z"/><path class="cls-8" d="M136.87,144.51c-.07-.18-.21-.1-.33-.1a.38.38,0,0,1-.43-.32.24.24,0,0,1,0-.12.34.34,0,0,1,.32-.34l.11,0a.35.35,0,0,1,.29.4.33.33,0,0,1-.07.16c-.06.12-.1.25.09.31Z"/><path class="cls-8" d="M131.25,102.44c-.13.21-.25.44-.53.34s-.46-.23-.33-.51.22-.46.51-.35A.47.47,0,0,1,131.25,102.44Z"/><path class="cls-8" d="M131.76,135.17c-.07.19-.21.37-.42.33s-.4-.14-.36-.4a.41.41,0,0,1,.42-.36C131.66,134.75,131.7,135,131.76,135.17Z"/><path class="cls-8" d="M136.25,137.1a.42.42,0,0,1-.36-.42.37.37,0,0,1,.41-.34.34.34,0,0,1,.34.34v0C136.61,136.93,136.5,137.11,136.25,137.1Z"/><path class="cls-8" d="M133.14,118.66a.36.36,0,0,1-.3.4h0a.33.33,0,0,1-.37-.27.37.37,0,0,1,.27-.45h0C133,118.28,133.05,118.48,133.14,118.66Z"/><path class="cls-8" d="M136.58,151.87c-.72-.29-.57-.65-.08-1C137,151.14,137.15,151.47,136.58,151.87Z"/><path class="cls-8" d="M134.16,101.91a.39.39,0,0,1,.42.36.41.41,0,0,1-.31.49h-.05c-.31,0-.39-.24-.4-.45a.36.36,0,0,1,.31-.41Z"/><path class="cls-8" d="M133,136.32c.21.06.41.14.39.39a.38.38,0,0,1-.37.39h0c-.25,0-.34-.22-.36-.39A.35.35,0,0,1,133,136.32Z"/><path class="cls-8" d="M131,131.55a.42.42,0,0,1,.43-.34.37.37,0,0,1,.33.39.06.06,0,0,0,0,0,.3.3,0,0,1-.35.3C131.21,131.91,131,131.82,131,131.55Z"/><path class="cls-8" d="M138.46,161a.34.34,0,0,1-.4-.26.17.17,0,0,1,0-.07.32.32,0,0,1,.26-.38h.08a.37.37,0,0,1,.42.29v0a.37.37,0,0,1-.33.41Z"/><path class="cls-8" d="M136.62,158.29c.25,0,.42.1.42.37a.38.38,0,0,1-.38.38h0c-.22,0-.29-.17-.31-.32A.37.37,0,0,1,136.62,158.29Z"/><path class="cls-5" d="M131.14,149.42c.43-.13.81-.11,1,.36l-.49.68a.79.79,0,0,1-.52-1Z"/><path class="cls-8" d="M133.18,151a.36.36,0,0,1,.33.39h0c0,.16-.1.41-.35.38a.4.4,0,0,1-.38-.39C132.77,151.11,132.94,151,133.18,151Z"/><path class="cls-8" d="M136.6,162.56a.35.35,0,0,1-.3-.41h0a.31.31,0,0,1,.39-.33c.27.07.36.17.34.41S136.81,162.52,136.6,162.56Z"/><path class="cls-8" d="M136.69,129.62a.36.36,0,0,1-.38.34h0a.35.35,0,0,1-.38-.37.4.4,0,0,1,.4-.38C136.56,129.2,136.65,129.39,136.69,129.62Z"/><path class="cls-8" d="M136.89,140.4a.39.39,0,0,1-.38.43c-.25,0-.35-.16-.37-.39s.15-.29.31-.31A.38.38,0,0,1,136.89,140.4Z"/><path class="cls-5" d="M138.6,149.39c.21.41.14.78-.33.82s-.59-.46-.6-.89Z"/><path class="cls-8" d="M135.22,156.87c0,.17,0,.38-.3.42s-.36-.15-.39-.34a.32.32,0,0,1,.21-.41l.09,0C135.06,156.5,135.22,156.59,135.22,156.87Z"/><path class="cls-8" d="M133.5,154.93a.42.42,0,0,1-.43.34c-.35,0-.32-.25-.31-.48a.29.29,0,0,1,.29-.31.25.25,0,0,1,.12,0A.4.4,0,0,1,133.5,154.93Z"/><path class="cls-8" d="M134.52,117.53a.34.34,0,0,1-.34-.32.22.22,0,0,1,0-.08.33.33,0,0,1,.36-.3h.06a.29.29,0,0,1,.29.33A.35.35,0,0,1,134.52,117.53Z"/><path class="cls-8" d="M138.23,153c.21.05.39.12.34.39a.31.31,0,0,1-.31.3.32.32,0,0,1-.38-.26.22.22,0,0,1,0-.08C137.84,153.07,138.05,153.05,138.23,153Z"/><path class="cls-8" d="M133.47,144c-.1.22-.14.41-.37.37a.37.37,0,0,1-.33-.4v0a.33.33,0,0,1,.32-.34h.1C133.45,143.68,133.4,143.93,133.47,144Z"/><path class="cls-8" d="M134.67,109.69a.28.28,0,0,1-.32.31.34.34,0,0,1-.36-.32v-.07c0-.22.14-.29.33-.31S134.65,109.47,134.67,109.69Z"/><path class="cls-8" d="M135.45,160.53c0,.28-.1.48-.36.49a.38.38,0,0,1-.43-.3v0c-.06-.29.18-.33.35-.39S135.32,160.47,135.45,160.53Z"/><path class="cls-8" d="M131.1,105.73c.14.12.41.14.34.4a.4.4,0,0,1-.41.36.37.37,0,0,1-.34-.4h0C130.71,105.87,130.88,105.76,131.1,105.73Z"/><path class="cls-8" d="M132.1,100.3c.05-.2.11-.39.39-.35s.3.24.29.45a.31.31,0,0,1-.32.3h0C132.16,100.71,132.13,100.51,132.1,100.3Z"/><path class="cls-8" d="M131.22,120.31a.34.34,0,0,1,.33.35.17.17,0,0,1,0,.07.36.36,0,0,1-.36.4.41.41,0,0,1-.36-.47.35.35,0,0,1,.35-.35Z"/><path class="cls-8" d="M136.69,133.18c0,.22-.15.33-.37.32s-.39-.06-.41-.33.2-.33.39-.34S136.7,132.86,136.69,133.18Z"/><path class="cls-8" d="M134.73,139c-.23,0-.4-.08-.4-.35a.29.29,0,0,1,.26-.32h0c.21,0,.42,0,.46.29S134.93,139,134.73,139Z"/><path class="cls-2" d="M200.82,142.61c.26-.26.27-.84.84-.61.2.08.4.22.26.43C201.66,142.86,201.21,142.57,200.82,142.61Z"/><path class="cls-8" d="M131.93,153.19c0,.39-.14.51-.39.5s-.32-.17-.33-.39.16-.27.33-.27S131.93,153.07,131.93,153.19Z"/><path class="cls-8" d="M140,151.33c0,.19-.06.35-.25.38s-.29-.21-.29-.38,0-.34.27-.31S140.06,151.14,140,151.33Z"/><path class="cls-5" d="M138.76,142.43c-.12.3-.31.52-.67.41a.42.42,0,0,1-.36-.42c0-.34.29-.4.56-.45Z"/><path class="cls-8" d="M129.84,158.27c.5.08.52.27.48.48a.27.27,0,0,1-.26.28H130c-.26,0-.26-.25-.25-.45S129.86,158.28,129.84,158.27Z"/><path class="cls-8" d="M136.25,126.39a.37.37,0,0,1-.39-.4.41.41,0,0,1,.39-.39.38.38,0,0,1,.36.4.36.36,0,0,1-.31.39Z"/><path class="cls-7" d="M59.29,172.7a1.73,1.73,0,0,1,1.05-1,2.52,2.52,0,0,1-1.07,1Z"/><path class="cls-2" d="M151.24,53.16c.48,0,.52.33.53.7,0,.52-.48.23-.66.43h0c.24-.35-.08-.68,0-1Z"/><path class="cls-7" d="M59.27,172.68c-.17.37-.39.65-.86.58h0C58.7,173.07,58.8,172.6,59.27,172.68Z"/><path class="cls-4" d="M44.07,94.36a4.2,4.2,0,0,1,1.5,0A3.17,3.17,0,0,1,44.07,94.36Z"/><path class="cls-4" d="M132.5,196.36c.44.4.33.86.12,1.33Z"/><path class="cls-4" d="M40,62.17a1.4,1.4,0,0,1,0-.86Z"/><path class="cls-4" d="M57.94,94.45a.5.5,0,0,1,.61,0Z"/><path class="cls-5" d="M149.75,62.56c-.2-.22-.1-.42,0-.63A.45.45,0,0,1,149.75,62.56Z"/><path class="cls-4" d="M50.08,94.41a1.4,1.4,0,0,1,.86,0A1.27,1.27,0,0,1,50.08,94.41Z"/><path class="cls-4" d="M51.34,94.43a.38.38,0,0,1,.45,0A.45.45,0,0,1,51.34,94.43Z"/><polygon class="cls-4" points="108.36 56.52 108.4 56.53 108.37 56.55 108.36 56.52"/><path class="cls-7" d="M105.21,170.23c-.07.26-.27.27-.49.25Z"/><path class="cls-8" d="M151.1,53.28c-.14-.07-.2-.21-.08-.3s.19.06.22.18Z"/><path class="cls-9" d="M200.54,126.43a.3.3,0,0,1,.22.33C200.58,126.72,200.54,126.58,200.54,126.43Z"/><polygon class="cls-4" points="46.68 48.64 46.72 48.64 46.7 48.68 46.68 48.64"/><polygon class="cls-4" points="60.34 48.63 60.37 48.6 60.4 48.63 60.37 48.67 60.34 48.63"/><polygon class="cls-4" points="40.58 48.65 40.61 48.62 40.64 48.65 40.61 48.69 40.58 48.65"/><path class="cls-3" d="M127.41,50.2l.25-.87h.15l.09.8c.38,0,.22-.38.48-.45.38.55-.53,1-.07,1.61l.84-.6-.06-.08a8.08,8.08,0,0,0-.6.57c-.38.47-.69,1-1.27.15a1.05,1.05,0,0,0-1.38-.22,1.4,1.4,0,0,1-1.61-.06,2.48,2.48,0,0,0-1.23-.26,17.78,17.78,0,0,1-2.5-.48c-1.52-.27-3.22-.5-4.63.48-.49.34-.67.52-.93-.12a.87.87,0,0,0-.47-.37c-.49-.19-.47-.45-.09-.71a11.54,11.54,0,0,1,2.89-1.66,3.26,3.26,0,0,1,2,.15c1.52.45,3.09.1,4.62.51a8.13,8.13,0,0,0,1.93.59C126.58,49.15,126.88,49.62,127.41,50.2Z"/><path class="cls-3" d="M146.76,49.87c.08.44.28.88-.09,1.15s-.6-.25-.91-.37a4.72,4.72,0,0,0-1.64-.45c-1.46-.05-3.08-.38-4.36.11-1.7.66-3.56.06-5.13,1-.17.1-.35.13-.46-.17s-.35-.65,0-.89a2.83,2.83,0,0,0,.7-.8c.25-.34.37-.69,1-.42.28.12,1.24-.56,1.5-.52,1,.16,1.78-.37,2.71-.21,1.15.2,2.27-.27,3.42-.38,1.7-.16,2.8.89,4,1.71.15.1.32.34.09.51S147.18,49.91,146.76,49.87Z"/><path class="cls-3" d="M129.64,72.5l-1.09-.09c-.14-.22-.34-.17-.54-.13-.77-.14-1.62.08-2.41-.51,1-.34,1.8.12,2.64.2,4,.38,8,.73,11.75-1.14a1.48,1.48,0,0,1,1.68.12c-1.82-.08-2.79,1.2-4,2-2.28,1.63-4.55,2.67-7.51,2.1a13.07,13.07,0,0,1-5-1.9c-.46-.3-.8-.78-1.37-.9,0,.08.11,0,.07,0a2.4,2.4,0,0,0-1.26-1c-1.11-.37-2-1.38-3.31-1.15.34-.56.39-.64.94-.34,1.44.79,3.15.85,4.56,1.72-.12.32-.6-.13-.66.24s.3.4.49.58a15.74,15.74,0,0,0,4.17,2.49.86.86,0,0,0,.5,0c1.41-.25,2.85,0,4.26-.18s2.82-.61,3.45-2.15l.33-.19c-.21-.18-.35-.06-.47.11h-.79l-1.46.08a17.83,17.83,0,0,1-4,0l-1-.13Zm-5.59-.21-.06.06.07.07.06-.1Z"/><path class="cls-3" d="M120.54,54.22c-.74-.39-.21-1-.22-1.71-.72.53-1.53.61-2,1.29-.24.34-.64.3-1,.37L117,53.9h0c.19,0,.45.06.51-.25h0c.94-.21,1.36-1.22,2.33-1.45a4.56,4.56,0,0,1,3.8.31,1,1,0,0,0,.84,0,1.63,1.63,0,0,0-1.19-.68c.91,0,2.06.23,2.23.94s1,1.08,1.22,1.89a8.64,8.64,0,0,0-3.08.29l-.15-.2c.19-.06.17-.18.1-.32.53-.06,1.31.35,1.53-.33s-.61-.74-1-1h-.23a3,3,0,0,1-.29,1.34c-.18-.09-.88.27-.38-.43a.34.34,0,0,0,0-.46c-.18-.14-.31,0-.44.12-.38.31-.8.59-1.22.1-.21-.24-.15-.8-.7-.57S120.6,53.89,120.54,54.22Z"/><path class="cls-3" d="M126.94,87.5a2,2,0,0,1-1.73-.5,50.34,50.34,0,0,1-7-7,6.37,6.37,0,0,1-.64-.9c-.13-.21-.45-.5-.24-.67s.57,0,.82.3A74.36,74.36,0,0,0,125.41,86C125.92,86.43,126.6,86.73,126.94,87.5Z"/><path class="cls-3" d="M140.09,51.36a5.75,5.75,0,0,1,3.16,1.18l-.17.19c-.77-.36-1.16-.19-1.1.74,0,.47,0,1-.72,1,0-.59.61-1.1.24-1.74-.39.57-.8,1.19-1.61.83s.4-.57.14-.93c-1.26.07-1.31.15-1,1.48,0,.48-.37.4-.66.41h-1.31c-.21,0-.59.16-.57-.15s-.33-.76.14-1A10.51,10.51,0,0,1,138.87,52c.24-.06.27-.14.1-.31ZM138.23,53c-.42.37-1.36.22-1.17,1,.13.57.8.31,1.12.2C138.93,54,138.07,53.47,138.23,53Z"/><path class="cls-2" d="M140.09,51.36l-1.12.33a1.57,1.57,0,0,0-1.21.24c-.13-.06-.29-.18-.31.1h0c-.21,0-.43-.11-.43.23h0c-.58.16-1.12.35-1.33,1-.76.83-2.09,1.13-2.22,2.53a1.9,1.9,0,0,1,.68-2c.44-.33.37-1.14,1-1.38C136.74,51.71,138.28,50.81,140.09,51.36Z"/><path class="cls-3" d="M129.35,67.67a5.87,5.87,0,0,0-2.65-.48A1.81,1.81,0,0,1,124.9,66a1.3,1.3,0,0,1,.65-1.71l.14-.05c.34-.13-.23-.67.43-1-.82.71-.67,1.55-.77,2.32a1,1,0,0,0,.56,1c.52.36.38-.27.57-.4C127.08,65.77,128.7,66.54,129.35,67.67Z"/><path class="cls-3" d="M138.2,89.53c-.34-.36,0-.56.21-.74a1.55,1.55,0,0,0,.59-.87c-.51-.06-.7.55-1.22.46a25.83,25.83,0,0,0,2.91-3.44h0c.19-.08.39-.37.59-.16s-.1.4-.21.48c-1,.69-.72,2.06-1.54,2.84-.46.43-.88.92-1.31,1.38Z"/><path class="cls-10" d="M139,54.06c-.32-1.33-.27-1.41,1-1.48.26.36-.94.57-.14.93s1.22-.26,1.61-.83c.37.64-.22,1.15-.24,1.74C140.48,54.52,139.68,54.81,139,54.06Z"/><path class="cls-3" d="M134,77.21c-.77.81-4.19.71-5.67-.06.59-.2,1.07.42,1.71.35s1.29,0,1.93-.06S133.25,77.29,134,77.21Z"/><path class="cls-10" d="M120.54,54.22c.06-.33-.21-.78.26-1s.49.33.7.57c.42.49.84.21,1.22-.1.13-.1.26-.26.44-.12a.34.34,0,0,1,0,.46c-.5.7.2.34.38.43h0c.07.14.09.26-.1.32C122.46,54.78,121.38,55.08,120.54,54.22Z"/><path class="cls-3" d="M135.87,66.93c.9-1.17.63-2.42-.34-3.58-.1-.11-.35-.13-.13-.33s.24-.21.43-.07a2.86,2.86,0,0,1,.92,2.25A1.63,1.63,0,0,1,135.87,66.93Z"/><path class="cls-3" d="M131.61,68.56c.69-.94,1.09-2.31,2.68-1.89.31.08.55.23.59.46s-.33.4-.5.37a2.56,2.56,0,0,0-2.3,1C132,68.57,131.77,68.53,131.61,68.56Z"/><path class="cls-3" d="M117,53.56l-.45-.22h0c.88-.25,1.15-1.25,2-1.59a5.22,5.22,0,0,1,3.2-.1,6.84,6.84,0,0,0-2.38.31,4.39,4.39,0,0,0-2.11,1.48c-.1.1,0,.24.21.22h0c-.13-.43-.32-.17-.49,0Z"/><path class="cls-3" d="M134.72,95.41c1.43-1,2.45-2.52,3.7-3.52a43.49,43.49,0,0,1-3,3.37.52.52,0,0,1-.7.13Z"/><path class="cls-3" d="M146.55,68.16c.35,1.21-.3,2.18-.61,3.25l-.3-.09Z"/><path class="cls-1" d="M111.05,50.87A7.76,7.76,0,0,1,110.7,48a2.74,2.74,0,0,1,1.1,1.71A1,1,0,0,1,111.05,50.87Z"/><path class="cls-2" d="M110.28,47.23c-.39-.16-.57-.53-.83-.81.11-.22.23-.43.34-.64.38,0,.66,0,.57.53C110.33,46.62,110.31,46.93,110.28,47.23Z"/><path class="cls-3" d="M143.25,52.54c.64,0,.88.68,1.46.8.15,0,.12.38-.07.36-.81-.11-1.23.77-2,.74a.45.45,0,0,1,.34-.51c1.2-.27.71-.73.15-1.2Z"/><path class="cls-3" d="M138.77,56.2l-2.12-.9C137.44,55.42,138.28,55.43,138.77,56.2Z"/><path class="cls-3" d="M111.57,47.21a1.35,1.35,0,0,1,.15-.26c.31-.3.17-1.12.66-1s-.22.69,0,.94a1.56,1.56,0,0,1,.12,1.38C112.16,47.93,111.87,47.57,111.57,47.21Z"/><path class="cls-4" d="M130.7,72.63a17.83,17.83,0,0,0,4,0A7.75,7.75,0,0,1,130.7,72.63Z"/><path class="cls-3" d="M118.6,67.82l-.6,1.62C117.69,68.53,117.88,68.05,118.6,67.82Z"/><path class="cls-3" d="M143,69c.25.81.46,1.61-.3,2.33C142.83,70.56,142.84,69.77,143,69Z"/><path class="cls-3" d="M138.19,89.51c-.55.21-.81.77-1.32,1,.34-.46.47-1.18,1.32-1Z"/><path class="cls-2" d="M117.31,54.17c.35-.07.75,0,1-.37l.61.55Z"/><path class="cls-3" d="M135.75,53.21c.21-.64.75-.83,1.33-1A1.46,1.46,0,0,1,135.75,53.21Z"/><path class="cls-3" d="M144.85,52.61c-.55.3-.63-.43-1-.44.53-.25.69.26,1,.46Z"/><path class="cls-1" d="M115.11,39.44c-.3-.57.15-1,.27-1.51C116,38.55,115.4,39,115.11,39.44Z"/><path class="cls-4" d="M136.91,72.46c.12-.17.26-.29.47-.11l-.33.19A.12.12,0,0,1,136.91,72.46Z"/><path class="cls-3" d="M127.72,87.68c-.15-.08-.45-.1-.2-.35s.37-.13.41.16Z"/><path class="cls-4" d="M128,72.28c.2,0,.4-.09.54.13A.55.55,0,0,1,128,72.28Z"/><path class="cls-3" d="M148,63.64c-.35,0-.31.17-.19.35a.21.21,0,0,0,.28.06.17.17,0,0,0,.06-.06c.1-.16.08-.32-.18-.31Z"/><path class="cls-3" d="M144.82,52.63c.15,0,.34-.1.37.15a.28.28,0,0,1-.22.11c-.15,0-.35-.08-.12-.28Z"/><path class="cls-3" d="M113.56,63.71c.16,0,.19.11.21.23s0,.27-.16.27-.14-.11-.17-.19a.22.22,0,0,1,.09-.3Z"/><path class="cls-3" d="M135.22,67.18l.17-.05v.08l-.17.05A.1.1,0,0,0,135.22,67.18Z"/><path class="cls-4" d="M117,53.56h0v.29h0C117,53.79,117.1,53.68,117,53.56Z"/><path class="cls-3" d="M137.05,52.24c0-.34.22-.27.43-.23C137.38,52.16,137.29,52.36,137.05,52.24Z"/><path class="cls-3" d="M109.87,50.61l.15.06-.07.1-.06-.18Z"/><path class="cls-3" d="M109.49,59.26c.05-.2.13-.24.21-.17s.2.06.11.18a.18.18,0,0,1-.15.07Z"/><path class="cls-3" d="M137.45,52c0-.28.18-.16.31-.1Z"/><polygon class="cls-3" points="134.74 95.39 134.75 95.46 134.72 95.41 134.74 95.39"/><path class="cls-3" d="M35.91,88.08a.86.86,0,0,1,.56-.67,2,2,0,0,0,1.62-2,7.45,7.45,0,0,0,0-3.45c-.07-.19-.15,0-.24,0-.73,0-.81-.27-.4-.9.15-.23.67-.38.2-.79s-.63.07-.87.3a2.43,2.43,0,0,1-2.53.43c.69-.23,1.16-.37,1.61-.55a.61.61,0,0,0,.44-.62c0-.31-.37-.24-.59-.24-.38,0-.71,0-.8-.4.38,0,.63-.36.94-1.5a4,4,0,0,0,3.43,2,1.86,1.86,0,0,0-.22,1.2v8.56a8.67,8.67,0,0,0,.68,4.24l-.3.16a5.68,5.68,0,0,1-1-3.71v-3c-.67.89-1.61.87-2.35,1.29Z"/><path class="cls-3" d="M39,75.18c-1.23-1.12-2.64-.38-4-.56.57,0,.83-.64,1.4-.66-.6-.13-1.06-.59-1.69-.63.62-.18,1.29,0,1.84-.37.09-.38-.66-.54-.28-.85s.66.09,1,.29.43.32.66.44A1.79,1.79,0,0,1,39,75.18Z"/><path class="cls-3" d="M50.68,107a5,5,0,0,0-3.13,4.21C47.37,109.27,49,106.89,50.68,107Z"/><path class="cls-3" d="M57.38,104.35c-1.85,1-3.63,1.05-5.37,1.58C52.45,105.37,55.71,104.4,57.38,104.35Z"/><path class="cls-3" d="M52.17,103.26a10.89,10.89,0,0,1,3.46.27A8.26,8.26,0,0,1,52.17,103.26Z"/><path class="cls-3" d="M46.09,108.22a1.69,1.69,0,0,1-1.36.3c0-.29-.13-.67.48-.54a7.82,7.82,0,0,0,1.53,0l-.27.1Z"/><path class="cls-3" d="M39.62,78.3a.79.79,0,0,1-.57-.81c0-.52.11-.86.72-.49a.45.45,0,0,0,.64-.11.22.22,0,0,0,.05-.08.24.24,0,0,0-.07-.33.21.21,0,0,0-.11,0c-.28,0-.45,0-.63.34A1.26,1.26,0,0,0,39.62,78.3Z"/><path class="cls-3" d="M36.35,74.92,35.2,76.53C34.89,75.43,34.91,75.39,36.35,74.92Z"/><path class="cls-3" d="M38,85c-.13,0-.24,0-.21-.21s.06-.33.25-.35.16.11.18.18S38.18,85,38,85Z"/><path class="cls-3" d="M36.09,88.31c-.1.08-.22.11-.29,0s.07-.13.11-.2Z"/><path class="cls-5" d="M37.18,67.29s.12-.11.13-.1.07.15,0,.22Z"/><path class="cls-3" d="M98.08,198.2a4.18,4.18,0,0,1,.43-1.84c.26-.61.62-1.21,1.46-1.14a1.49,1.49,0,0,1,1.44,1.41,3.89,3.89,0,0,1-1.26,3.47,1.34,1.34,0,0,1-1.86-.43,1.3,1.3,0,0,1-.2-.57A6.76,6.76,0,0,1,98.08,198.2Zm2.19-2.2c-.21.1-.28.11-.32.16-.78,1-.35,2.22-.82,3.26,0,0,.07.19.13.2a.4.4,0,0,0,.42-.18A3.51,3.51,0,0,0,100.27,196Z"/><path class="cls-3" d="M82.5,202.59c-.86-1.76-.76-6.8.22-11C82.77,195.23,82.32,198.91,82.5,202.59Z"/><path class="cls-3" d="M103.94,178.92c.24-.28.28-.79.84-.65a36.14,36.14,0,0,1-1.39,8.12C103.1,183.87,104,181.43,103.94,178.92Z"/><path class="cls-3" d="M57.41,130.41c.61-1.64,2-2.59,3.31-3.58a12.78,12.78,0,0,1,3.4-2c0,.66-.49.69-.78.85a14.87,14.87,0,0,0-5.5,4.48.37.37,0,0,1-.42.2Z"/><path class="cls-3" d="M90.79,198.5v-2c0-.19,0-.45.24-.48s.31.22.33.42a29.11,29.11,0,0,1,0,4.38c0,.19,0,.45-.32.43s-.28-.29-.28-.47v-2.24Z"/><path class="cls-3" d="M89.26,199c-.45-.2-.57-.45-.58-.72,0-1.21-.07-2.42-.08-3.64,0-.2,0-.52.31-.54s.34.25.35.49Z"/><path class="cls-3" d="M93.6,204.1V199C94.3,200.09,94.33,203.4,93.6,204.1Z"/><path class="cls-3" d="M61.84,148.64a7.21,7.21,0,0,1,2.51,2.52,8.62,8.62,0,0,1-2.67-2.32Z"/><path class="cls-3" d="M61.68,148.84a17.82,17.82,0,0,1-2.42-2.08h0c1.19.17,1.8,1.13,2.59,1.87A1.73,1.73,0,0,0,61.68,148.84Z"/><path class="cls-3" d="M62,153.78a5.59,5.59,0,0,1,1.55,1.73A2.45,2.45,0,0,1,62,153.78Z"/><path class="cls-3" d="M104.8,176.67l-.66-.93a2.15,2.15,0,0,1,.1-1.15c.44.17.53.61.74,1A2.92,2.92,0,0,1,104.8,176.67Z"/><path class="cls-3" d="M62.36,153.05a2.71,2.71,0,0,1,1.69,1.45,5.3,5.3,0,0,1-1.87-1.3Z"/><path class="cls-3" d="M66.56,157.29l.25,2C66.1,158.51,66.09,157.92,66.56,157.29Z"/><path class="cls-3" d="M66.6,124.48,68,123l.18.16-1.34,1.52Z"/><path class="cls-3" d="M65.1,156.29a2.77,2.77,0,0,1,.59,1.88C65.14,157.78,65.14,157.78,65.1,156.29Z"/><path class="cls-3" d="M60.61,151.74a4.2,4.2,0,0,1,1.75,1.31l-.18.15a4.44,4.44,0,0,1-1.71-1.32Z"/><path class="cls-3" d="M71.53,120.61l.21.16s-.12.08-.15.07a.14.14,0,0,1-.09-.18.21.21,0,0,1,0-.06Z"/><polygon class="cls-3" points="57.42 130.41 57.39 130.45 57.41 130.41 57.42 130.41"/><path class="cls-3" d="M170.51,140.05c-.55-.12-1,.21-1.6.19-.31,0-.41.18-.37.47,0,.1.06.19.07.29.27,1.69.27,1.66,2,1.69a11.9,11.9,0,0,0,3.94-.86c1.18-.4,2.33-.88,3.51-1.3.3-.1.75-.31.92.05s-.28.6-.53.71c-3,1.26-6,2.68-9.48,2-.76-.15-1.3-.53-1.29-1.42,0-.44-.12-.87-.15-1.31,0-.27-.07-.74,0-.77,1.08-.37.69-1.35.85-2a22.22,22.22,0,0,1,1.8-4.71,11.25,11.25,0,0,0,1.21-4c.13-1.46,1.13-2.66,1.67-4,.21-.54,1-.31,1.29.09a12.42,12.42,0,0,0,2,2.16c.2.17.37.63.82.37.2-.11.39,0,.34.21-.18.65.39.75.73,1.15.3-.95.06-1.91.54-2.92a8.35,8.35,0,0,1,.26,3.48,2.52,2.52,0,0,0,1.5,2.63,1.16,1.16,0,0,1,.73,1.46,1.1,1.1,0,0,0,.06,1.07.24.24,0,0,1,0,.34h0c-.86.33-.92,1.5-1.85,1.75a25.09,25.09,0,0,1-3.92,1.58C173.88,139,172.19,139.5,170.51,140.05Zm1.06-8.41c-.33.17-.19.47-.22.73h0a3,3,0,0,0-.42.69c-.36,1.29-1.91,2.25-1.11,3.89.1.2-.15.35-.34.43a1.08,1.08,0,0,0-.59,1.42l.06.13c.2.41,1.09.21,1.27,0,.51-.57.81-.55,1.61-.44,1.15.16,2.41-.45,3.62-.76.27-.08.6-.23.25-.65a.31.31,0,0,1,.09-.44.19.19,0,0,1,.1,0c.2-.06.47-.09.54.13.24.74.65.39,1.1.25,1.49-.46,2.06-1.66,2.63-2.94.37-.84.19-1.38-.59-1.73-.18-.08-.3-.47-.58-.21a.75.75,0,0,0-.22.53c0,.42.35.17.54.22s.38.16.33.41a.38.38,0,0,1-.44.31l-.11,0a1.31,1.31,0,0,1-.81-1.18c0-.43.35-.93-.17-1.29h0a1.73,1.73,0,0,0-.2-.77,9.38,9.38,0,0,0-4.19-4c-.29-.11-.41-.06-.59.26a7.07,7.07,0,0,0-1.23,4.08,1.69,1.69,0,0,0-.37,1.06Z"/><path class="cls-3" d="M180.17,126.92v4.18A4.21,4.21,0,0,1,180.17,126.92Z"/><path class="cls-5" d="M115,161.58l.72-.1h0c0,.29.25.61-.07.85-.78.59-.4,1.07.12,1.56.73.7,1.25,1.77,2.59,1.34a.61.61,0,0,1,.67.38c.15.34-.19.46-.4.61a1.76,1.76,0,0,1-2.46-.36c-.49-.51-1-1.06-1.41-1.6s-.72-.52-1.1-.06-1.2.71-.67,1.46a10.73,10.73,0,0,0,1.62,1.68.84.84,0,0,0,1,0c.46-.26.73.06.91.38s-.21.5-.43.67a1.61,1.61,0,0,1-2.22-.13c-.45-.42-.86-.88-1.28-1.32-.13-.15-.26-.44-.4-.45-1.48,0-1.36-1.41-1.91-2.23-.21-.32-.3-.68,0-.93s.62.13.78.33c.74.9,1.22.17,1.78-.22s.51-.85,0-1.3a.72.72,0,0,1-.17-1l.09-.1c.47-.42.6.21.82.42.48.45.9.94,1.37,0Z"/><path class="cls-5" d="M120.51,158.8c0,.84.88,1.23,1.15,1.94a4.53,4.53,0,0,0-1.77,1.32c-.27.27-.91.5-.33,1s1.15.46,1.47-.16.87-1.23.79-2c.91,1.25.07,2.38-.07,3.61a27.33,27.33,0,0,0,.06,7,4.21,4.21,0,0,1,0,.71,30.24,30.24,0,0,1-.26-4.94v-2.35c0-.53-.2-.68-.76-.57-1.45.29-3.9-1.65-4.09-3.14-.11-.82.34-.47.69-.37.6,1.28.94,1.34,1.91.35.34-.35.92-.64.21-1.18a.89.89,0,0,0-1.27,0,.83.83,0,0,0-.19.26c-.17.26-.3.52-.64.57-.3-1.63.72-2.53,2.38-2.1.22.06.43.2.67.08Z"/><path class="cls-3" d="M117.68,187.94a5.24,5.24,0,0,1,2.57,1.29c1.86,1.18,4,2,5.55,3.61a12.89,12.89,0,0,1,2.68,3.16c.12.23.59.48.17.76s-.63-.1-.84-.36a22.42,22.42,0,0,1-1.42-1.83c-1.32-1.93-3.33-3-5.23-4.2A20.47,20.47,0,0,1,117.68,187.94Z"/><path class="cls-5" d="M120.72,158.19a2.87,2.87,0,0,1,1.06-2.31c.29-.21.55-.39.88,0s.16.57-.13.84a1.11,1.11,0,0,0-.21,1.56.86.86,0,0,0,.13.14c.62.77,1.21,1.55,1.82,2.32.24.3.36.56,0,.87s-.58.1-.81-.19a15.47,15.47,0,0,1-2.12-2.59c-.13-.26-.26-.57-.63-.6Z"/><path class="cls-5" d="M116.63,139.92c.91,1.58,1.93,3.11,2,5.06.05,1.28,1,2.28,1.44,3.44a12,12,0,0,1,.66,2,25.92,25.92,0,0,1-2.42-5.07A34.44,34.44,0,0,0,116.63,139.92Z"/><path class="cls-3" d="M105.8,171.57a1.3,1.3,0,0,1,1.25,1.35,13.79,13.79,0,0,1-.07,2.13c0,.22,0,.52-.31.57s-.35-.19-.47-.34-.41-.61-.62-.92A18.63,18.63,0,0,0,105.8,171.57Z"/><path class="cls-3" d="M115,161.58h0c-.26.16-.45.17-.65-.14-.77-1.18-1.57-2.33-2.35-3.5-.11-.17-.18-.44,0-.54s.39.14.52.34Z"/><path class="cls-3" d="M115.76,161.51h0c-.86-1.52-2-2.86-2.43-4.65l2.31,3.58a4.31,4.31,0,0,1,.56.83C116.33,161.68,116.07,161.67,115.76,161.51Z"/><path class="cls-3" d="M110.6,173.53a23.93,23.93,0,0,1,.43,4.3c0,.2,0,.45-.22.51a.27.27,0,0,1-.32-.19v-.1C110.56,176.54,110.22,175,110.6,173.53Z"/><path class="cls-7" d="M105.8,171.57a18.63,18.63,0,0,1-.22,2.79l-.77-1a2,2,0,0,0,0-1.45A.92.92,0,0,1,105.8,171.57Z"/><path class="cls-3" d="M108.93,174.82a10,10,0,0,1,.23,3.09c0,.14,0,.28-.21.28s-.24-.08-.24-.13A9.08,9.08,0,0,1,108.93,174.82Z"/><path class="cls-3" d="M113,176a5.2,5.2,0,0,1,.19,2.79A4,4,0,0,1,113,176Z"/><path class="cls-3" d="M115.68,157.65a7.31,7.31,0,0,1,1.19,2.28A2.83,2.83,0,0,1,115.68,157.65Z"/><path class="cls-3" d="M104.79,172a2,2,0,0,1,0,1.45C104.35,172.92,104,172.45,104.79,172Z"/><path class="cls-5" d="M120.72,158.19l-.21.61h0l.2-.61Z"/><path class="cls-3" d="M138.9,180.57a2.27,2.27,0,0,1-1.32,2,2.46,2.46,0,0,1-2.67-.69,1.83,1.83,0,0,1-.46-1.2,2.25,2.25,0,0,0-.33-1.13c-.46-.55.27-.7.48-1,.43-.64.9-1.26,1.87-.93C138.3,178.23,138.92,178.85,138.9,180.57Zm-1.23-.55c-.08-.27.23-.76-.23-1s-.87.14-1.28.36c-.57.31-.43.86-.43,1.33s-.09,1.17.74,1.17,1-.49,1.19-1.13a3.14,3.14,0,0,0,0-.75Z"/><path class="cls-3" d="M133.64,168.34a2.83,2.83,0,0,1,2.12-2.41,2.26,2.26,0,0,1,2.27,1.88,2.31,2.31,0,0,1-2.19,2.43h-.09a1.83,1.83,0,0,1-2.09-1.53A1.51,1.51,0,0,1,133.64,168.34Zm3.46-.34c0-.49.13-1.09-.69-1.07a2.12,2.12,0,0,0-1.79,1.92c0,.65.46.76,1,.77a1.46,1.46,0,0,0,1.49-1.43A1.21,1.21,0,0,0,137.1,168Z"/><path class="cls-3" d="M137.06,196a2.41,2.41,0,0,1-2.28-2.43c0-1.56.9-2.69,2-2.7a2.42,2.42,0,0,1,2.32,2.41C139.08,194.81,138.16,196,137.06,196Zm1.27-2.62c0-1-.32-1.63-.86-1.63s-2.07,2.17-1.88,2.57a2,2,0,0,0,1.23,1.24c.7.16.85-.51,1.2-.87s.22-.91.31-1.32Z"/><path class="cls-3" d="M164.18,196.94c-.72,2.27-2.19,3.83-3.08,5.85C160.78,201.6,162.9,197.49,164.18,196.94Z"/><path class="cls-3" d="M165.25,198.21a30,30,0,0,1-2,4.35c-.1.18-.31.65-.68.45s0-.51.12-.72c.52-1.3,1.51-2.35,1.94-3.7C164.71,198.33,164.94,198.42,165.25,198.21Z"/><path class="cls-3" d="M148.65,162.35a26,26,0,0,1,2.35-3.84C151.07,159.35,149.41,162.09,148.65,162.35Z"/><path class="cls-3" d="M151.57,161.15a7.2,7.2,0,0,1,2.08-2.8A5.92,5.92,0,0,1,151.57,161.15Z"/><path class="cls-3" d="M164.11,203.9a4.89,4.89,0,0,1,1.2-3A4.89,4.89,0,0,1,164.11,203.9Z"/><path class="cls-7" d="M150,158.59a8.39,8.39,0,0,1-2.47,2.92A10.81,10.81,0,0,1,150,158.59Z"/><path class="cls-5" d="M133,164.48c1.43.45,2.87,0,4.29.07C135.84,164.86,134.4,165.19,133,164.48Z"/><path class="cls-3" d="M181.14,157.39a7.49,7.49,0,0,0,1.44-2.16,4.79,4.79,0,0,1,2.34-2.21c-.75,1.73-2.27,3-2.88,5.15,1-.74,1.66-1.31,2.39-1.86.27-.2.63-.48.91-.23s0,.58-.24.86a28,28,0,0,0-2.84,4.53c-.13.29-.57.68.19.77a.25.25,0,0,1,.25.25.27.27,0,0,1,0,.12c-.38.61-.32,1.45-1,1.92-.34-.32-.12-.61,0-.89s.16-.42-.06-.54c-1-.57-.45-1.28-.17-1.92a35.1,35.1,0,0,1,2.45-3.68,9.92,9.92,0,0,0-2.15,1.94c-.31.31-.65.63-1.05.36s-.16-.7-.09-1.05.59-.83.58-1.38Zm.77.78.06-.06-.06-.06-.06.09Z"/><path class="cls-3" d="M197.2,131.51l-4.51,9.09c.15-2.46,1.46-4.47,2.53-6.6a13.21,13.21,0,0,0-2.94,2.27c-.19.23-.4.44-.62.66a.22.22,0,0,1-.32,0l0,0c-.1-.1-.19-.22-.1-.36,1.51-2.19,2.75-4.6,5-6.14-.65,1.4-1.89,2.41-2.52,3.86a23.1,23.1,0,0,0,3.3-2.87Z"/><path class="cls-3" d="M188.51,177c-.18.64-1.07.55-1.26,1.2-.79.07-1.61.17-1.05-1.12-.28.34-.55.7-.85,1a.51.51,0,0,1-.64.15c-.25-.12-.18-.31-.1-.51a13.8,13.8,0,0,1,3.86-5.55l-2.49,4c1.43-1,2.61-2.28,4.26-2.9a24.74,24.74,0,0,1-2.84,3.84C187.85,177.39,188.08,176.61,188.51,177Z"/><path class="cls-3" d="M193.75,150.77c1.46-2.3,3.63-3.89,5.41-5.59Z"/><path class="cls-3" d="M195.27,152.12c1.48-2,3.51-3.5,5.38-5.32C200.49,147.73,196.55,151.64,195.27,152.12Z"/><path class="cls-3" d="M181.16,157.37c-.36,0-.74-.07-.48-.6a20.76,20.76,0,0,1,4.16-6c-.49.79-1,1.57-1.46,2.37-.74,1.25-1.46,2.5-2.17,3.77a1.21,1.21,0,0,0-.07.5Z"/><path class="cls-4" d="M188.8,159.16a1.62,1.62,0,0,1,1.6-1.62,1.75,1.75,0,0,1,.4.05c.33.07.48.23.48.54a.47.47,0,0,1-.39.52h-.1c-.45,0-.91,0-.91.67,0,.42.11,1-.62.88C188.86,160.16,188.76,159.93,188.8,159.16Z"/><path class="cls-4" d="M192.94,160.91c-.06,1.33-.86,2-2,1.66-.25-.07-.55-.08-.56-.47s.24-.44.53-.47c.53-.06.91-.25.89-.88,0-.47.12-.82.69-.75S192.89,160.59,192.94,160.91Z"/><path class="cls-3" d="M200.24,165.44a3.89,3.89,0,0,1-1.7.84.69.69,0,0,1-.46-.13c-.14-.1,0-.25.07-.34a11.89,11.89,0,0,1,3.19-2.25c-.5.47-1.05.9-1.51,1.4s.2.24.3.36Z"/><path class="cls-3" d="M184.25,174.56c-.31.91-.62,1.83-.94,2.75l-.32-.12a8.38,8.38,0,0,1,1.11-2.8Z"/><path class="cls-3" d="M184.1,174.39a3.4,3.4,0,0,1,1.23-1.64,5.55,5.55,0,0,1-1.08,1.81Z"/><path class="cls-3" d="M189.33,176.35a.73.73,0,0,1-.82.63h0C188.48,176.38,188.86,176.31,189.33,176.35Z"/><path class="cls-3" d="M196.36,130.18c0,.06.08.13.06.15l-.16.09c-.06,0,0-.12,0-.16S196.31,130.21,196.36,130.18Z"/><path class="cls-3" d="M197,131.41l.15-.32c.16.14.09.28,0,.42Z"/><path class="cls-3" d="M157.93,134.69l-1.32-2.84A2.91,2.91,0,0,1,157.93,134.69Z"/><path class="cls-3" d="M156.45,135.74c-.94-.64-1-1.82-1.57-2.67a5.83,5.83,0,0,1,1.57,2.66Z"/><path class="cls-3" d="M153.66,86.94c.39.4,1,.6,1.34,1.3A3.42,3.42,0,0,1,153.66,86.94Z"/><path class="cls-3" d="M154.92,135.85a1.34,1.34,0,0,1,.61,1.31c-.45-.4-.73-.72-.72-1.22Z"/><path class="cls-3" d="M154.81,135.94c-.28-.05-.26-.25-.22-.45l.14-.08.19.44Z"/><polygon class="cls-3" points="156.45 135.73 156.48 135.76 156.45 135.74 156.45 135.73"/><path class="cls-3" d="M127.1,117.68a15.3,15.3,0,0,1-4.46-2c-1.42-.87-3.14-1-4.51-1.88a4,4,0,0,0-1.71-.6c-.27,0-.49,0-.53.31a.36.36,0,0,0,.3.43.33.33,0,0,0,.14,0c2.65-.57,4.9.52,7.09,1.76C124.63,116.43,126,116.72,127.1,117.68Z"/><path class="cls-3" d="M103.31,133.27a21.18,21.18,0,0,1,1.21,5.56A13.67,13.67,0,0,1,103.31,133.27Z"/><path class="cls-3" d="M105.12,136.31a12,12,0,0,1-1.05-4.2A9.46,9.46,0,0,1,105.12,136.31Z"/><path class="cls-3" d="M106.41,135.44c-.8-1.16-.5-2.51-.66-3.79A8.33,8.33,0,0,1,106.41,135.44Z"/><path class="cls-4" d="M104.18,155.56a7.67,7.67,0,0,1-.35-3.77A10.42,10.42,0,0,1,104.18,155.56Z"/><path class="cls-3" d="M142.11,123.73a19.49,19.49,0,0,1,3.1,4.81C143.59,127.34,143,125.44,142.11,123.73Z"/><path class="cls-3" d="M147,129.16c-1.06-1.56-1.46-3.39-2.23-5.07A10.71,10.71,0,0,1,147,129.16Z"/><path class="cls-3" d="M139.53,123c1,1.35,2,2.65,3,4A6.9,6.9,0,0,1,139.53,123Z"/><path class="cls-3" d="M185.24,199.8a3.88,3.88,0,0,1,1.43-2.45Z"/><path class="cls-4" d="M186.07,203.4a3.32,3.32,0,0,1,.79-1.68C186.68,202.26,186.77,202.91,186.07,203.4Z"/><path class="cls-4" d="M187.29,203.31a4.66,4.66,0,0,1-.51,1.54,1.6,1.6,0,0,1,.49-1.56Z"/><path class="cls-4" d="M187.27,203.29c.08-.31.1-.65.46-.84-.07.34-.11.68-.44.86Z"/><path class="cls-3" d="M188.94,181.36l-.55.2a2.4,2.4,0,0,0-2.41.21,2.65,2.65,0,0,1-1.56.31c-.49.12-1,.24-1.48.33-.23,0-.5.09-.55-.26s.2-.28.38-.34a42.86,42.86,0,0,1,8-1.79c.27,0,.71-.15.78.19s-.38.37-.66.44a10.32,10.32,0,0,1-1.88.69h0Z"/><path class="cls-3" d="M186.68,189c.36.12.73.25.62.75a1.68,1.68,0,0,1-1.18,1.27,2.9,2.9,0,0,1-2.42-1,2.77,2.77,0,0,1,.51-2.54c.55-.54,1.13-.26,1.68-.07.38.13.62.42.3.86-.48-.36-.95-.46-1.21.22-.2.53-.4,1.16.23,1.53s.86-.14,1.12-.55A4.42,4.42,0,0,1,186.68,189Z"/><path class="cls-3" d="M187.62,182.17a32.94,32.94,0,0,1,5.78-.51c-.29.58-.71.47-1.05.49a34.64,34.64,0,0,0-5.91.85,6.29,6.29,0,0,1-1.62.06c-.21,0-.51.14-.6-.2s.3-.33.51-.42a.83.83,0,0,0,.22-.2C185.84,182.26,186.74,182.7,187.62,182.17Z"/><path class="cls-8" d="M186.68,189c-.12.16-.24.32-.35.49-.26.41-.58.87-1.12.55s-.43-1-.23-1.53.73-.58,1.21-.22Z"/><path class="cls-2" d="M187.62,182.17c-.88.53-1.78.09-2.67.07l-.53-.16a2.65,2.65,0,0,0,1.56-.31,2.4,2.4,0,0,1,2.41-.21c-.3.11-.61.21-.91.33-.08,0-.31,0-.13.18S187.53,182.14,187.62,182.17Z"/><polygon class="cls-4" points="188.94 181.36 188.96 181.32 189 181.34 188.98 181.38 188.94 181.36"/><path class="cls-3" d="M49.65,175.73c.06.77-.33.94-1,.75-1.62-.43-2.09-1.79-1-3a1.37,1.37,0,0,1,1.57-.25c.48.14.22.37.2.6-.76-.07-1.19.26-1.14,1S49,175.82,49.65,175.73Z"/><path class="cls-8" d="M49.65,175.73c-.68.09-1.34.09-1.39-.83s.38-1.11,1.14-1C50.39,174.31,50.41,174.48,49.65,175.73Z"/><path class="cls-3" d="M55.64,166.7c-.37-.06-.22-.26-.09-.39a6.14,6.14,0,0,1,1.21-1c-.15.64-.79.86-1.12,1.33Z"/><path class="cls-3" d="M55.64,166.68l-.67.16c.43-.32.43-.32.67-.15Z"/><path class="cls-3" d="M61,161.66c.16.18.07.37,0,.56C60.81,162.05,60.86,161.86,61,161.66Z"/><path class="cls-3" d="M106.36,88.87a4.75,4.75,0,0,1-2.12,1.69A5.63,5.63,0,0,1,106.36,88.87Z"/><path class="cls-3" d="M104.57,88.17c.22.32.4-.07.61,0l.17.15a5.91,5.91,0,0,1-1.46,1.27c-.28-.8,1.06-.62.7-1.4Z"/><path class="cls-3" d="M105.18,88.13a5.39,5.39,0,0,1,1.32-1.29,2,2,0,0,1-1.15,1.44Z"/><path class="cls-3" d="M104.59,88.15H104a1.32,1.32,0,0,1,.89-.65l-.27.63Z"/><path class="cls-3" d="M105.1,87.24c.08-.13.11-.33.33-.28,0,0,.08,0,.08.06s-.15.26-.3.33A.57.57,0,0,0,105.1,87.24Z"/><path class="cls-3" d="M105.21,87.35c-.06.05-.16.16-.18.15-.18-.13,0-.19.07-.26A.57.57,0,0,1,105.21,87.35Z"/><path class="cls-3" d="M113.24,42.77l.34-1C114,42.31,113.68,42.52,113.24,42.77Z"/><path class="cls-3" d="M115.11,35.65c-.08.09-.16.25-.28.08s0-.22.15-.27Z"/><path class="cls-5" d="M124.05,72.29h.07l-.06.1-.06,0Z"/><path class="cls-1" d="M123.56,54.49a3,3,0,0,0,.29-1.34c.11,0,.19-.07.23,0,.4.3,1.21.41,1,1s-1,.27-1.53.33Z"/><path class="cls-2" d="M117,53.9v-.29c.17-.13.36-.39.49,0C117.41,54,117.15,53.85,117,53.9Z"/><path class="cls-1" d="M138.23,53c-.16.44.7.94,0,1.22-.32.11-1,.37-1.12-.2C136.87,53.25,137.81,53.4,138.23,53Z"/><path class="cls-6" d="M100.27,196a3.51,3.51,0,0,1-.59,3.44.4.4,0,0,1-.42.18c-.06,0-.15-.16-.13-.2.47-1,0-2.31.82-3.26C100,196.06,100.06,196.05,100.27,196Z"/><path class="cls-7" d="M94.75,123.15c.11.09.32.18.15.34s-.28,0-.38-.15Z"/><path class="cls-4" d="M121.82,160.88a3.51,3.51,0,0,1-.79,2,.89.89,0,0,1-1.47.16c-.47-.45.06-.75.33-1a4.53,4.53,0,0,1,1.77-1.32Z"/><path class="cls-4" d="M117.47,160.82c.34,0,.47-.31.64-.57a.9.9,0,0,1,1.2-.43,1,1,0,0,1,.26.19c.71.54.13.83-.21,1.18-1,1-1.31.93-1.91-.35Z"/><path class="cls-10" d="M137.67,180a2.81,2.81,0,0,1,0,.71c-.14.64-.45,1.12-1.19,1.13s-.75-.65-.74-1.17-.14-1,.43-1.33c.41-.22.78-.64,1.28-.36S137.59,179.75,137.67,180Z"/><path class="cls-10" d="M137.1,168a1.46,1.46,0,0,1-1.29,1.61h-.22c-.51,0-1-.12-1-.77a2.12,2.12,0,0,1,1.79-1.92C137.23,166.91,137.07,167.51,137.1,168Z"/><path class="cls-10" d="M138.33,193.37c-.09.41,0,.92-.31,1.31s-.5,1-1.2.87a2,2,0,0,1-1.23-1.24c-.19-.4,1.43-2.58,1.88-2.57S138.36,192.38,138.33,193.37Z"/><path class="cls-7" d="M181.91,158.17h-.06l.06-.09a.06.06,0,0,1,.06.06Z"/><path class="cls-3" d="M174.45,136.88c-.54.33-.89,1.36-1.78.49-.47-.47-.41-.75.27-.85.46,0,.43-.42.45-.64a15.57,15.57,0,0,0,.41-3.73c.13-.14.28,0,.42,0a8.68,8.68,0,0,1,.24,2.27c.16.27.31.55.46.83a5,5,0,0,0,1.59-2.12l.18-.22h0c.43,0,.62.09.35.59a10.91,10.91,0,0,0-1.44,2.41h0C174.92,135.88,174.81,136.51,174.45,136.88Z"/><path class="cls-3" d="M178.12,131.05l-.28.4c-.18.24-.41.26-.59.06a.49.49,0,0,1-.08-.45c.09-.21.27-.4.55-.2.13.1.22.25.42.21Z"/><path class="cls-3" d="M172.38,130.1c-.18-.34-.4-.7.16-.91a.45.45,0,0,1,.49.41v.07a.53.53,0,0,1-.63.43Z"/><path class="cls-10" d="M179.58,132.3c-.18-.08-.3-.47-.58-.21a.75.75,0,0,0-.22.53c0,.42.35.17.54.22s.38.16.33.41a.38.38,0,0,1-.44.31l-.11,0a1.31,1.31,0,0,1-.81-1.18c0-.42.34-.91-.15-1.27h0a1.73,1.73,0,0,0-.2-.77,9.38,9.38,0,0,0-4.19-4.05h0c-.29-.11-.41-.06-.59.26a7.07,7.07,0,0,0-1.23,4.08,1.69,1.69,0,0,0-.37,1.06c-.31.16-.19.46-.21.71a3.16,3.16,0,0,0-.41.68c-.36,1.29-1.91,2.25-1.11,3.89.1.2-.15.35-.34.43a1.08,1.08,0,0,0-.59,1.42l.06.13c.2.41,1.09.21,1.27,0,.51-.57.81-.55,1.61-.44,1.15.16,2.41-.45,3.62-.76.27-.08.6-.23.25-.65a.31.31,0,0,1,.09-.44.19.19,0,0,1,.1-.05c.2-.06.47-.09.54.13.24.74.65.39,1.1.25,1.49-.46,2.06-1.66,2.63-2.94A1.11,1.11,0,0,0,179.58,132.3Zm-7-3.11a.45.45,0,0,1,.49.41v.07a.53.53,0,0,1-.63.43h0c-.22-.34-.42-.7.12-.91Zm3,6.7Zm1.43-2.41a10.74,10.74,0,0,0-1.43,2.39c-.67,0-.78.65-1.14,1-.54.33-.89,1.36-1.78.49-.47-.47-.41-.75.27-.85h0c.46,0,.43-.42.45-.64a15.57,15.57,0,0,0,.41-3.73c.13-.14.28,0,.43,0a9.12,9.12,0,0,1,.23,2.27c.16.27.31.55.46.83a5,5,0,0,0,1.59-2.12l-.16-.16.32-.05a.64.64,0,0,1,.08-.14.64.64,0,0,0-.08.14h0c.39,0,.58.09.29.57Zm.82-2c-.18.24-.41.26-.59.06a.49.49,0,0,1-.08-.45c.09-.21.27-.4.55-.2.12.09.21.23.39.21Z"/><path class="cls-5" d="M176.69,132.88l-.18.22c-.06,0-.11-.11-.16-.16Z"/><path class="cls-6" d="M182.75,198.25a3.82,3.82,0,0,0-.34-.74.82.82,0,0,0-.95-.56c-.63.09.07.45-.14.68a4.64,4.64,0,0,0-.43.79,11.64,11.64,0,0,1-3.07,2.91,4,4,0,0,1-2.08,1c-.25,0-.42,0-.5-.23s.13-.32.3-.41.56-.38.86-.52a1.73,1.73,0,0,0,1.08-2,16.75,16.75,0,0,1,0-2.65,6.07,6.07,0,0,1,.64-2.58,1.94,1.94,0,0,1,.07,1.28,20.45,20.45,0,0,0,0,3.67c0,.31.17.69.4.38.58-.78,1.49-1.34,1.41-2.58-.14-2.06-.19-4.14-.22-6.21-.05-3.16-.47-6.28-.72-9.42-.23-2.74-1-5.41-1-8.18a11.13,11.13,0,0,0-.54-2.28c-1,3-.85,6-2.38,8.67a3.42,3.42,0,0,1,0-1.74c.36-2.1.77-4.19,1.06-6.31.32-2.34.41-4.73.84-7.06.4-2.17.69-4.37.87-6.55a32.51,32.51,0,0,1,1.36-8.3,11.9,11.9,0,0,0,.63-2.34,64.61,64.61,0,0,1,1.15-6.48c.73-2.84.93-5.82,2.06-8.57a3.36,3.36,0,0,0,.09-1,.86.86,0,0,0,0-.39c-1.1-.12-.39-.77-.34-1.2a20.53,20.53,0,0,0,.37-2.71,67.58,67.58,0,0,1,.7-9.85,91.31,91.31,0,0,0,.59-9.35c-.18.16-.37.31-.56.45l.18-1.78.44-6.47-.1-.26a5.26,5.26,0,0,0-.09-1.18,8,8,0,0,1,.35-2.87,5.6,5.6,0,0,1,.18,1.73c0,.21.08.32.29.34s.19-.14.24-.26c.3-.7.61-1.4.93-2.13-.33-.16-.67-.06-1-.3a13.37,13.37,0,0,0-4.92-2.26c-2.4-.68-4.82-1.29-7.2-2-1.92-.6-3.67-1.69-5.63-2.18-3.93-1-7.45-2.91-11-4.77-.22-.11-.39-.27-.69-.13.08.32.15.64.24,1A59.78,59.78,0,0,0,158.42,90a33.05,33.05,0,0,0,5.6,9c.66.83.6,1.08-.43,1.35a16,16,0,0,0-3.38,1c-.86.45-.92.6-.13,1.25,1.56,1.29,3.16,2.53,4.72,3.83.78.64,1.6.93,1.19,2.54-.9,3.53-1.59,7.13-2.18,10.73a79.8,79.8,0,0,0-1,10.23A85.94,85.94,0,0,0,163,139c.2,2.84.22,5.7.68,8.53.53,3.24,1.24,6.47,1.51,9.74s1.07,6.54,1.38,9.85c.37,3.92,1,7.82,1.38,11.74a120.74,120.74,0,0,1,.45,14.36c0,1.79.07,3.59-.1,5.39V195a.68.68,0,0,0-.24.48,12.41,12.41,0,0,0-.32,2.51c0,.6-.81,0-.6.66.66,2.07.92,4.24,1.39,6.36a.76.76,0,0,0,.8.72h14.27c.69,0,.82-.22.66-.83A67.49,67.49,0,0,1,182.75,198.25Zm-2.58-71.33v4.18A4.21,4.21,0,0,1,180.17,126.92ZM169,143.29c-.76-.15-1.3-.53-1.29-1.42,0-.44-.12-.87-.15-1.31,0-.27-.07-.74,0-.77,1.08-.37.69-1.35.85-2a22.22,22.22,0,0,1,1.8-4.71,11.25,11.25,0,0,0,1.21-4c.13-1.46,1.13-2.66,1.67-4,.21-.54,1-.31,1.29.09a12.42,12.42,0,0,0,2,2.16c.2.17.37.63.82.37.2-.11.39,0,.34.21-.18.65.39.75.73,1.15.3-.95.06-1.91.54-2.92a8.35,8.35,0,0,1,.26,3.48,2.52,2.52,0,0,0,1.5,2.63,1.16,1.16,0,0,1,.73,1.46,1.1,1.1,0,0,0,.06,1.07.24.24,0,0,1,0,.34h0c-.86.33-.92,1.5-1.85,1.75h0a25.09,25.09,0,0,1-3.92,1.58c-1.68.58-3.37,1.1-5.05,1.65-.55-.12-1,.21-1.6.19-.31,0-.41.18-.37.47,0,.1.06.19.07.29.27,1.69.27,1.66,2,1.69a11.9,11.9,0,0,0,3.94-.86c1.18-.4,2.33-.88,3.51-1.3.3-.1.75-.31.92,0s-.28.6-.53.71C175.4,142.55,172.39,144,169,143.29Z"/><path class="cls-6" d="M202.72,176.71c-.27-1.22-1.07-2.36-.67-3.72.34-1.14.18-2.35.48-3.52a10.4,10.4,0,0,0,.06-2.23c0-.69-.65-.81-1-1.15s-.43.29-.66.44c-.63.41-1.09,1.09-2.07,1.32.71-1.08,1.69-1.6,2.35-2.49a1.64,1.64,0,0,0-1,.08,3.89,3.89,0,0,1-1.7.84.69.69,0,0,1-.46-.13c-.14-.1,0-.25.07-.34a11.89,11.89,0,0,1,3.19-2.25c-.5.47-1.05.9-1.51,1.4s.2.24.3.36c.25-.17.48-.46.74-.48,1.18-.1,1.11-.89,1.11-1.74v-6.23a6.31,6.31,0,0,0-.17-2.12,6.46,6.46,0,0,1-.18-2.73c.33-2.72.63-5.45,1-8.18.09-.75-.11-.87-.83-.67a3.08,3.08,0,0,0-1.94,1c-.23.31-.48.16-.72,0s-.19-.22-.07-.4a41.2,41.2,0,0,1,2.2-3.6c.57-.68.88-1.31.14-2-.08-.09-.07-.26-.13-.39-.58-1.19-.58-1.19-1.69-.49-.57.36-1.19.91-1.8.24s-.72-.24-1,.12-.44.59-.64.89-.46.74-.86.46-.06-.65.12-.95c.93-1.56,1.86-3.12,2.81-4.67a5,5,0,0,0,.71-3.08,40.9,40.9,0,0,0-.83-4.39c-.24-1.39-.74-2.74-1-4.13a50,50,0,0,0-1.73-5.36,43.18,43.18,0,0,1-.86,6.3,22.11,22.11,0,0,1-.31-7.39,33,33,0,0,0-.41-8,47.07,47.07,0,0,0-1.48-5.35c.18-.38,1.28-.46,1-1.22a26.5,26.5,0,0,0-3.74-4.64.71.71,0,0,0-.71-.16l-.88-.78a3.43,3.43,0,0,0-.82,2,1.83,1.83,0,0,0-.28.44,15.33,15.33,0,0,0-.54,3.93c0,1.5-.5,2.73,0,4.2.11.33.22.63.34.92a17.59,17.59,0,0,1-.3,4.52,5.29,5.29,0,0,1-.43,1.17c-1-.23-.51.54-.58.84-.46,1.9,0,3.89-.5,5.77a27.06,27.06,0,0,0-.68,7.45v4.49a4.89,4.89,0,0,1-.13,1.32c-.66,2.07-.78,4.26-1.4,6.33-.72,2.38-.91,4.87-1.44,7.29a20.94,20.94,0,0,0-.66,6,27.32,27.32,0,0,1,3-4.6c1.12-1.32,1.92-2.94,3.62-3.77.14.4-.09.5-.21.64a48.65,48.65,0,0,0-5,7,13,13,0,0,0-1.87,8.79c.29,2.05-.25,4.12-.32,6.18a16.86,16.86,0,0,1-.27,2,27.4,27.4,0,0,0-.21,6.89.5.5,0,0,0,.27.51c.21.09.3-.18.43-.31a15.74,15.74,0,0,0,2.32-3.66c.41-.77.73-1.73,1.51-2.1,1.15-.55,2.11-1.46,3.39-1.75.52-.12,1.17-.84,1.46-.11.2.5-.71.67-1.22.9-1.4.63-3.05.91-3.42,2.89a7.45,7.45,0,0,1-.88,1.79c-.77,1.41-1.41,2.9-2.17,4.32a15.61,15.61,0,0,0-.62,1.9c-.11.26-1-.09-.73.59.22.51.72-.24,1.15,0,.15.07.39-.07.59-.06,2.12,0,4-.93,5.88-1.6l0-.05c-.79.07-1.61.17-1.05-1.12-.28.34-.55.7-.85,1a.51.51,0,0,1-.64.15c-.25-.12-.18-.31-.1-.51a13.8,13.8,0,0,1,3.86-5.55l-2.49,4c1.43-1,2.61-2.28,4.26-2.9a24.74,24.74,0,0,1-2.84,3.84c.45.26.68-.5,1.1-.17,0-.58.36-.65.82-.61,0-.43.4-.5.69-.58s.69-.34.93,0-.16.54-.24.82c-.14.45-.84.33-.86.93a20.57,20.57,0,0,0,3.14,0,14.24,14.24,0,0,1,7.73,1c.7.29,1.67,1.11,2.07.66S202.92,177.59,202.72,176.71Zm-22-19.94a20.76,20.76,0,0,1,4.16-6c-.49.79-1,1.57-1.46,2.37-.74,1.25-1.46,2.5-2.17,3.77a1.12,1.12,0,0,0-.07.48c-.39-.06-.75-.09-.5-.62Zm4.42.17a28,28,0,0,0-2.84,4.53c-.13.29-.57.68.19.77a.25.25,0,0,1,.25.25.27.27,0,0,1,0,.12c-.38.61-.32,1.45-1,1.92-.34-.32-.12-.61,0-.89s.16-.42-.06-.54c-1-.57-.45-1.28-.17-1.92a35.1,35.1,0,0,1,2.45-3.68,9.92,9.92,0,0,0-2.15,1.94c-.31.31-.65.63-1.05.36s-.16-.7-.09-1.05.59-.83.58-1.38a7.68,7.68,0,0,0,1.42-2.14A4.79,4.79,0,0,1,185,153c-.75,1.73-2.27,3-2.88,5.15,1-.74,1.66-1.31,2.39-1.86.27-.2.63-.48.91-.23s-.1.58-.3.86Zm-.85,17.62c-.31.91-.62,1.83-.94,2.75l-.32-.12a8.38,8.38,0,0,1,1.11-2.8,3.4,3.4,0,0,1,1.23-1.64,5.39,5.39,0,0,1-1.12,1.81Zm12.17-44.23-.16.09c.09-.18.14-.11.12-.09Zm-.06-.15a1.51,1.51,0,0,1-.11.22v-.14s0,0,.07-.08Zm-3.67,10.42c.15-2.46,1.46-4.47,2.53-6.6a13.21,13.21,0,0,0-2.94,2.27c-.19.23-.4.44-.62.66a.22.22,0,0,1-.32,0l0,0c-.1-.1-.19-.22-.1-.36,1.5-2.18,2.74-4.58,5-6.11-.77,1.48-1.9,2.46-2.49,3.83a23.1,23.1,0,0,0,3.3-2.87l.15-.32c.16.14.09.28,0,.42Zm1.06,10.17c1.46-2.3,3.63-3.89,5.41-5.59Zm6.9-4c-.16.93-4.1,4.84-5.38,5.32,1.44-2,3.47-3.47,5.34-5.29Z"/><polygon class="cls-6" points="189.33 176.35 189.31 176.35 189.31 176.36 189.33 176.35"/><path class="cls-6" d="M167.17,193.32c.8-5.24.16-10.44-.33-15.64-.23-2.5-.64-5-1-7.46s-.36-5.07-1.1-7.54a10.31,10.31,0,0,1-.48-2.46,74.35,74.35,0,0,0-1-8.27,64.78,64.78,0,0,1-1-6.94c-.21-4.85-.54-9.7-.45-14.57a66.12,66.12,0,0,1,1.13-11.83,80.85,80.85,0,0,1,2.27-10.09.86.86,0,0,0-.28-1c-1.91-1.56-3.75-3.22-5.75-4.65a22,22,0,0,1-4.33-3.6,21.21,21.21,0,0,1-1.66-2c-.77-1.17-1.46-2.4-2.18-3.61-.11-.17-.22-.4,0-.54s.37,0,.48.22a4.52,4.52,0,0,0,.33.51,31.13,31.13,0,0,0,5.73,7,1.11,1.11,0,0,0,1.51.21,11.85,11.85,0,0,1,3.1-1.22c1.11-.3,1.11-.33.35-1.26a38.51,38.51,0,0,1-4.55-7A54.51,54.51,0,0,1,155.37,85c-.5-1.43-.91-2.94-2.32-3.92a37.11,37.11,0,0,1-3.16-2.85c.16,2.33,0,4.45.24,6.5.3,3.36,0,6.72.32,10.06.24,2.69-.52,5.35-.24,8,.4,3.89.26,7.81.91,11.68.46,2.67.55,5.43,1.26,8A30.49,30.49,0,0,1,153,129c.28,4.17.66,8.33,1.08,12.48.32,3.07.63,6.15,1,9.22.39,3.46,1.25,6.85,1.39,10.35a57.35,57.35,0,0,0,1.56,9.21,41.3,41.3,0,0,0,2.31,6.57c1.1,2.86,2.36,5.65,3.54,8.48a28.61,28.61,0,0,1,2.37,7.5c.18,1.46.45,2.92.68,4.38h.23A26.31,26.31,0,0,1,167.17,193.32ZM155,88.24a3.42,3.42,0,0,1-1.34-1.3C154.05,87.34,154.66,87.54,155,88.24Zm-.19,47.7c-.28-.05-.26-.25-.22-.45l.14-.08.19.44a1.34,1.34,0,0,1,.61,1.31C155.08,136.76,154.8,136.44,154.81,135.94Zm1.64-.2c-.94-.64-1-1.82-1.57-2.67a5.83,5.83,0,0,1,1.57,2.66h0Zm1.48-1.05-1.32-2.84A2.91,2.91,0,0,1,157.93,134.69Z"/><path class="cls-6" d="M111.55,92.28c-.42-.22-1,.26-1.56.52-2.07,1.07-3.86,2.61-5.91,3.71-3,1.62-5.35,4.14-8.23,5.94a1,1,0,0,0-.25,1.63,11.63,11.63,0,0,1,1.61,4.34c.54,2.79.92,5.61,1.4,8.42.33,1.9.83,3.78,1,5.7.42,3.77.66,7.57,1,11.35a64.09,64.09,0,0,0,1.15,7.43,42.46,42.46,0,0,1,.89,4.89c.43,4.62.57,9.26,1,13.89.14,1.61.32,3.22.54,4.82a11,11,0,0,0-1.22-.84,82.79,82.79,0,0,1-.8-10.19,93.16,93.16,0,0,0-2.09-15.69,122.37,122.37,0,0,1-1.6-12.5c-.28-3.07-1.07-6-1.54-9-.3-2-.58-4-1-5.9s-.61-4.2-1.74-6.1-1-2,.67-3.32c.18-.15.4-.26.59-.39,1.46-1,3-1.74,4.4-2.85.15-.13.54-.17.35-.49a.66.66,0,0,0-.52-.24A14.42,14.42,0,0,1,97,96.77c-.62-.12-.66-.47-.33-.86a20.87,20.87,0,0,0,2-3,34.66,34.66,0,0,0,3-6c-.73-.07-1.19.42-1.76.59-2.84.87-5.61,1.92-8.36,3-2.33,1-4.73,1.73-7.11,2.58A37.72,37.72,0,0,1,77.87,95a2.33,2.33,0,0,0-2,1.85,24.79,24.79,0,0,0-.93,8.94,2.84,2.84,0,0,1-.3,2.29c-2-4.19-.74-8.12.36-12.06-.55,0-.84.44-1.16.71A5.66,5.66,0,0,0,72,99.52c-.61,1.93-.19,4.15-1.72,5.83-.61.67-.85,1.74-1.54,2.29a6.82,6.82,0,0,0-2.17,2.89,2.57,2.57,0,0,0-.33.33c-.94.86-1.88,1-1.39,2a1.4,1.4,0,0,0,0,1.1,8.6,8.6,0,0,0,3,4.21c1.12,1,2.53,1.47,3.67,2.4-1.13.08-1.93-.65-2.77-1.2-2.15-1.41-4.26-2.89-4.39-5.85a1.69,1.69,0,0,0-1.43,1.18,4.55,4.55,0,0,0,.24,3.91c.07.12.36.22.14.38-.85.61-.81,1.67-1.27,2.48-1.12,2-2.73,3.56-3.72,5.6-.37.77-.59,1.68-1.44,2.14-.08,0-.07.25-.08.38a26.52,26.52,0,0,0,.41,7.8c.09.39.24.66.74.66,3,0,5,1.95,6.8,4v.39c-.85-.8-1.69-1.49-2.39-2.29-1.12-1.29-2.63-1.56-4.16-1.8-.57-.09-.82.09-.64.73s.3,1.61.56,2.38c.56,1.72.32,3.62,1.18,5.26h0c-.46.65.09,1.3.05,2-.07,1.18.07,2.35,1.31,3A4.2,4.2,0,0,1,62.4,153a2.71,2.71,0,0,1,1.69,1.45,5.3,5.3,0,0,1-1.87-1.3,4.44,4.44,0,0,1-1.71-1.32c-.35.14-.55-.54-.84-.24s.06.66.2,1c.51,1.16,1.27,2.19,1.7,3.41.48,1.4,1.35,2.66,1.55,4.22-.82-.49-.68-1.5-1.35-2.12-.09,3,.62,5.87.75,8.77,0,1.13.56,2.22-.35,3.22-.05.06,0,.19,0,.42.61-.68,1.3-1.34,1.31-2a1.77,1.77,0,0,1,.66-1.43c.45-.44.84-.94,1.3-1.39,1.87-1.85,2.84-4.3,4.29-6.43,2.81-4.15,5.24-8.56,8.47-12.43a2.93,2.93,0,0,0,.75-3,34.17,34.17,0,0,1-1.25-5,95.9,95.9,0,0,1-1.7-10c0-.77-.4-1-1.19-.84-1.13.25-2.28.37-3.43.54,1-.81,2.25-.75,3.39-.93.77-.11,1.09-.26,1.07-1.13-.07-3-.07-6.06,0-9.09a17.93,17.93,0,0,0-.56-4.43,26.91,26.91,0,0,1-.66-4c.31.34.49.44.53.58.45,1.56,1,3.1,1.29,4.69.76,3.65.62,7.37.66,11.07a38.6,38.6,0,0,0,1.07,8.36c.47,2,.7,4,1.16,6,.58,2.47,1.49,4.87,1.58,7.45,0,.76,0,1.58.84,2.05.18.11.17.34.23.54a34.23,34.23,0,0,1,1.11,8.66,174.85,174.85,0,0,0,1.27,18.29c.59,4.64,1.41,9.24,2.18,13.85a11.28,11.28,0,0,1,.31,3.52c-.32-.14-.36-.48-.44-.75a80,80,0,0,1-2-8.8,26.07,26.07,0,0,1-.63-3.51c-.08-2-.78-3.84-.72-5.83a3.87,3.87,0,0,0-.22,1.22,83,83,0,0,1-.63,12,55.9,55.9,0,0,1-2.47,10.83c-.67,1.9-1.53,3.72-2.18,5.64-.37,1.11.15.87.71.87H92.93c.73,0,1.53.16,1.3-1.06a3.68,3.68,0,0,1,.2-1.09c0-.18.1-.33.32-.3a.31.31,0,0,1,.27.35v0a4.2,4.2,0,0,1-.41,1.43c-.31.49-.31.63.29.63h5.3c.42,0,.58-.19.72-.56a34.57,34.57,0,0,0,1.18-5,11.84,11.84,0,0,0,.65-3.38c-.25-3.61.7-7.07,1.35-10.56.1-.54.19-1.07.28-1.61.62-1.41,1.09-2.76,1.38-3.42,1-2.35.45-5.93,1.07-9s.36-2.47-.16-4.21a3.5,3.5,0,0,0-.39-.86c.3-2.39.5-4.78.74-7.17.48-4.83.94-9.66,1.07-14.52.13-5.12.82-10.22.79-15.35a14.09,14.09,0,0,1,.14-1.83c.39-3.23.74-6.47,1.07-9.72.3-3,.53-6,.79-8.93.21-2.46.63-4.9.63-7.38,0-2.82.08-5.64.11-8.47C111.62,93.25,112,92.5,111.55,92.28ZM63.34,125.73a14.87,14.87,0,0,0-5.5,4.48.37.37,0,0,1-.42.2h0c.61-1.64,2-2.59,3.31-3.58a12.78,12.78,0,0,1,3.4-2C64.15,125.54,63.63,125.57,63.34,125.73ZM62,153.78a5.59,5.59,0,0,1,1.55,1.73A2.45,2.45,0,0,1,62,153.78Zm-.32-4.94a16.76,16.76,0,0,1-2.39-2.06c1.16.18,1.77,1.13,2.55,1.86a7.21,7.21,0,0,1,2.51,2.52A8.62,8.62,0,0,1,61.68,148.84Zm4,9.33c-.55-.39-.55-.39-.59-1.88a2.77,2.77,0,0,1,.6,1.88Zm.87-.88.25,2c-.7-.78-.71-1.37-.24-2Zm.24-32.62-.2-.19L68,123l.18.16c-.48.5-.93,1-1.38,1.51Zm4.79-3.83a.14.14,0,0,1-.08-.18l0,0,.21.15s-.11.08-.14.07ZM82.5,202.59c-.86-1.76-.76-6.8.22-11C82.77,195.23,82.32,198.91,82.5,202.59ZM89.26,199c-.45-.2-.57-.45-.58-.72,0-1.21-.07-2.42-.08-3.64,0-.2,0-.52.31-.54s.34.25.35.49Zm2.15,1.74c0,.19,0,.45-.32.43s-.28-.29-.28-.47v-2.24h0v-2c0-.19,0-.45.24-.48s.31.22.33.42a27.85,27.85,0,0,1,0,4.38Zm2.19,3.32V199c.7,1.09.73,4.4,0,5.1Zm6.55-4a1.34,1.34,0,0,1-1.86-.43,1.3,1.3,0,0,1-.2-.57,7.22,7.22,0,0,1,0-.93,4.18,4.18,0,0,1,.43-1.84c.26-.61.62-1.21,1.46-1.14a1.49,1.49,0,0,1,1.44,1.41,3.9,3.9,0,0,1-1.27,3.54Zm4-44.54a7.67,7.67,0,0,1-.35-3.77,10.45,10.45,0,0,1,.38,3.81Zm-.87-22.29a21.18,21.18,0,0,1,1.21,5.56,13.82,13.82,0,0,1-1.18-5.52Zm.76-1.16a9.46,9.46,0,0,1,1,4.2,11.94,11.94,0,0,1-1-4.16Zm2.34,3.33c-.8-1.16-.5-2.51-.66-3.79a8.26,8.26,0,0,1,.69,3.83Z"/><path class="cls-6" d="M113,79a2.07,2.07,0,0,1-.72,1.07c-2.5,2-4.84,4.17-7.49,6-.19.13-.38.43-.6.29-.88-.55-1.15.17-1.4.7a96.86,96.86,0,0,1-4.51,8.63c-.13.21-.4.58,0,.63,1.31.18,2.52,1.3,3.93.41l2.55-1.62c2.2-1.37,4.26-3,6.76-3.84.36-.12.35-.31.4-.58.65-3.4.81-6.86,1.19-10.3.08-.74.69-1.32.6-2.09C113.2,78.25,113.1,78.67,113,79Zm-7.9,8.25c.08-.13.11-.33.33-.28,0,0,.08,0,.08.06s-.15.26-.3.33-.16.16-.18.15c-.17-.14,0-.2.07-.27Zm-.26.3-.26.61H104a1.3,1.3,0,0,1,.89-.62Zm-.6,3a5.63,5.63,0,0,1,2.12-1.69,4.78,4.78,0,0,1-2.12,1.7Zm1.11-2.28a5.91,5.91,0,0,1-1.46,1.27c-.27-.77,1-.64.73-1.33.2.2.37-.11.56-.09a5.39,5.39,0,0,1,1.32-1.29,2,2,0,0,1-1.15,1.45Z"/><path class="cls-10" d="M167.58,205.15a24.94,24.94,0,0,1-1-4.35c-.27-1.39-.69-2.74-.84-4.17a31.93,31.93,0,0,0-1.94-8.89c-1.63-4-3.5-7.92-5-12a53.53,53.53,0,0,1-2.56-8.93c-.48-2.57-.75-5.16-1.05-7.75-.5-4.2-1.57-8.33-2-12.55-.31-3.44-.93-6.85-.92-10.5a2.35,2.35,0,0,0-.52,1.53,33.05,33.05,0,0,1-.43,5.88,73.69,73.69,0,0,1-2,7.73c-.09.28-.12.57-.24.86-.86,2.19-2.17,4.16-3.1,6.32-.84.78-1,2-2,2.76a14.69,14.69,0,0,1-4.94,2.62,12.19,12.19,0,0,1-5.91.22c-1.45-.23-1.42-.4-1.32,1.12v.51c.22,2.53.79,5,.86,7.57a12.46,12.46,0,0,1,.91,5.05v3.36a1.89,1.89,0,0,1-.39,1.07,61.78,61.78,0,0,0-.21-7.2,2,2,0,0,0-.27-1.08c0,2.75-.06,5.51.11,8.26a33.08,33.08,0,0,1,0,6.6,18.34,18.34,0,0,0-.35,5.58v1.58c.44.4.33.86.12,1.33A43.67,43.67,0,0,1,133,205c0,.26-.27.62.22.75h33.86C167.47,205.77,167.79,205.7,167.58,205.15Zm-30.31-40.6c-1.43.31-2.87.64-4.29-.07,1.43.45,2.87,0,4.29.07Zm-3.63,3.79a2.83,2.83,0,0,1,2.12-2.41,2.26,2.26,0,0,1,2.27,1.88,2.31,2.31,0,0,1-2.19,2.43h-.09a1.83,1.83,0,0,1-2.09-1.53,1.51,1.51,0,0,1,0-.37Zm.48,11.2c-.46-.55.27-.7.48-1,.43-.64.9-1.26,1.87-.93,1.83.63,2.45,1.25,2.43,3a2.27,2.27,0,0,1-1.32,2,2.46,2.46,0,0,1-2.67-.69,1.83,1.83,0,0,1-.46-1.2,2.24,2.24,0,0,0-.33-1.18ZM137.06,196a2.41,2.41,0,0,1-2.28-2.43c0-1.56.9-2.69,2-2.7a2.42,2.42,0,0,1,2.32,2.41C139.08,194.81,138.16,196,137.06,196Zm10.46-34.48A10.81,10.81,0,0,1,150,158.6a8.36,8.36,0,0,1-2.47,2.91Zm1.13.84a26,26,0,0,1,2.35-3.84c.07.83-1.59,3.57-2.35,3.83Zm2.92-1.2a7.2,7.2,0,0,1,2.08-2.8,5.9,5.9,0,0,1-2.08,2.79Zm9.53,41.64c-.32-1.19,1.8-5.3,3.08-5.85-.72,2.26-2.18,3.82-3.08,5.84Zm1.47.22c-.44-.24,0-.51.12-.72.52-1.3,1.51-2.35,1.94-3.7.08-.26.31-.17.62-.38a30,30,0,0,1-2,4.35c-.1.17-.31.64-.68.43Zm1.54.89a4.89,4.89,0,0,1,1.2-3,4.93,4.93,0,0,1-1.2,3Z"/><path class="cls-10" d="M131.46,194c0-2.22.58-4.38.62-6.56.06-4.52-.1-9-.17-13.56a34.4,34.4,0,0,0-.22-3.66,44.37,44.37,0,0,1-.48-6.09.81.81,0,0,0-.58-.92,12.14,12.14,0,0,1-3.63-2.46c-.86-.81-.85-.88.25-1.41a1.06,1.06,0,0,0-.6-.72c-.42-.15-1,.66-1.33-.37s-.47-1.07.75-1.19a1.17,1.17,0,0,0-.49-.89c-.38,0-.76,0-.92-.44a.72.72,0,0,1,.39-.92c-.13-.35-.25-.7-.38-1-.34.21-.5.64-1.12.81-4.44-11.22-8.63-22.54-12.75-33.91-.09.66,0,1.32-.1,2-.85,5.48-.87,11-1.15,16.53-.15,2.82-.24,5.64-.43,8.45-.45,6.6-.94,13.2-1.41,19.8a1.22,1.22,0,0,1-.29,1,.86.86,0,0,0-.27,1.2.61.61,0,0,0,.07.1.7.7,0,0,1-.11.94l-.08.06c.24,2.73.28,6.15-.54,8.57a54.85,54.85,0,0,1-1.39,9,30.52,30.52,0,0,0-1,6.44c0,3.44-1.07,6.67-1.79,10-.17.74-.23,1.06.74,1h28c.7,0,1-.15,1.07-.91a18,18,0,0,0,0-2.75C131.89,199.42,131.42,196.75,131.46,194Zm-22.3-16.1c0,.14,0,.28-.21.28s-.24-.08-.24-.13a9.08,9.08,0,0,1,.22-3.24,10.11,10.11,0,0,1,.23,3.1Zm12.55-7.3a5.51,5.51,0,0,0,.1.89,4.21,4.21,0,0,1,0,.71,11.42,11.42,0,0,1-.19-1.53ZM111,177.83c0,.2,0,.45-.22.51a.27.27,0,0,1-.32-.19v-.1c.07-1.51-.27-3,.11-4.52A23.93,23.93,0,0,1,111,177.83Zm2.2.91A4,4,0,0,1,113,176a5.22,5.22,0,0,1,.23,2.74Zm3.4-38.82c.91,1.58,1.93,3.11,2,5.06.05,1.28,1,2.28,1.44,3.44a12,12,0,0,1,.66,2,25.92,25.92,0,0,1-2.42-5.07,34.34,34.34,0,0,0-1.65-5.43Zm12,56.87c-.35.23-.63-.1-.84-.36-.48-.6-1-1.19-1.42-1.83-1.32-1.93-3.33-3-5.23-4.2a20.64,20.64,0,0,1-3.48-2.46,5.24,5.24,0,0,1,2.57,1.29c1.86,1.18,4,2,5.55,3.61a13.09,13.09,0,0,1,2.73,3.16c.12.26.59.51.17.79Z"/><path class="cls-2" d="M206.5,187.21c-.34-1.53.47-2.32,1.56-3v-2.9c-1.1-.41-2.18-.9-3.31-1.21-.67-.18-.89-.47-.87-1.11a7.51,7.51,0,0,0-.66-3.65,2.12,2.12,0,0,1-.33-1.45c.36-1.77.26-3.59.66-5.35a2.64,2.64,0,0,0,0-1.31,19.56,19.56,0,0,1-.3-3.41c-.19-2.28.27-4.54.32-6.82,0-1.15-.47-2.23-.25-3.43.5-2.66.91-5.34,1.25-8,.2-1.62,0-3.21-1.62-4.17-.54-.31-.49-.63-.09-1a1.68,1.68,0,0,0,.77-1.65,11,11,0,0,0-1.78-3.82c-.38-.56-1.55-.21-1.65-.88s.58-1.27.64-2.06c.11-1.74-.11-3.46-.07-5.19-.17,0-.21-.17-.21-.32l-.11-.33a.77.77,0,0,1-.28-.52,66.3,66.3,0,0,0-2.3-7.42,24.91,24.91,0,0,1-1.45-6.72,21.92,21.92,0,0,0-1-5.68c-.45-1.31-.94-2.6-1.43-3.89-.72-1.91-1-4-2.5-5.58h-.26a1.38,1.38,0,0,0,0,2l.05,0c.44.5.68,1.18,1.13,1.67.66.71.67,1.23-.22,1.7a52.53,52.53,0,0,1,1.57,5.65,33,33,0,0,1,.41,8,22.11,22.11,0,0,0,.31,7.39,43.18,43.18,0,0,0,.86-6.3,50,50,0,0,1,1.73,5.36c.27,1.39.77,2.74,1,4.13a40.9,40.9,0,0,1,.83,4.39,5,5,0,0,1-.71,3.08c-.95,1.55-1.88,3.11-2.81,4.67-.18.3-.48.7-.12.95s.65-.14.86-.46.41-.6.64-.89.49-.68,1-.12,1.23.12,1.8-.24c1.11-.7,1.11-.7,1.69.49.06.13.05.3.13.39.74.74.43,1.37-.14,2a41.2,41.2,0,0,0-2.2,3.6c-.12.18-.13.3.07.4s.49.27.72,0a3.08,3.08,0,0,1,1.94-1c.72-.2.92-.08.83.67-.34,2.73-.64,5.46-1,8.18a6.46,6.46,0,0,0,.18,2.73,6.31,6.31,0,0,1,.17,2.12v6.23c0,.85.07,1.64-1.11,1.74-.26,0-.49.31-.74.48l.11.12a1.64,1.64,0,0,1,1-.08c-.66.89-1.64,1.41-2.35,2.49,1-.23,1.44-.91,2.07-1.32.23-.15.43-.66.66-.44s1,.46,1,1.15a10.4,10.4,0,0,1-.06,2.23c-.3,1.17-.14,2.38-.48,3.52-.4,1.36.4,2.5.67,3.72.2.88.57,2,.06,2.53s-1.37-.37-2.07-.66a14.24,14.24,0,0,0-7.73-1.05,20.57,20.57,0,0,1-3.14,0c0-.6.72-.48.86-.93.08-.28.44-.52.24-.82s-.63-.12-.93,0-.67.15-.7.59c0,.21.7-.11.33.32-.61.73-1.07,1.78-2.34,1.54-1.92.67-3.76,1.64-5.88,1.6-.2,0-.44.13-.59.06-.43-.19-.93.56-1.15.05-.31-.68.62-.33.73-.59a15.61,15.61,0,0,1,.62-1.9c.76-1.42,1.4-2.91,2.17-4.32a7.45,7.45,0,0,0,.88-1.79c.37-2,2-2.26,3.42-2.89.51-.23,1.42-.4,1.22-.9-.29-.73-.94,0-1.46.11-1.28.29-2.24,1.2-3.39,1.75-.78.37-1.1,1.33-1.51,2.1a15.74,15.74,0,0,1-2.32,3.66c-.13.13-.14.43-.43.31s-.25-.3-.27-.51a27.4,27.4,0,0,1,.21-6.89,16.86,16.86,0,0,0,.27-2c.07-2.06.61-4.13.32-6.18a13,13,0,0,1,1.87-8.79,48.65,48.65,0,0,1,5-7c.12-.14.35-.24.21-.64-1.7.83-2.5,2.45-3.62,3.77a27.32,27.32,0,0,0-3,4.6,20.94,20.94,0,0,1,.66-6c.53-2.42.72-4.91,1.44-7.29.62-2.07.74-4.26,1.4-6.33a4.89,4.89,0,0,0,.13-1.32v-4.49a27.06,27.06,0,0,1,.68-7.45c.48-1.88,0-3.87.5-5.77.07-.3-.38-1.07.58-.84a5.29,5.29,0,0,0,.43-1.17,21.22,21.22,0,0,0,.29-5.28,2.91,2.91,0,0,1-2.17,0l-.1,1.34a1.19,1.19,0,0,0,.08.2,91.12,91.12,0,0,1-.59,9.34,67.58,67.58,0,0,0-.7,9.85,20.53,20.53,0,0,1-.37,2.71c0,.43-.76,1.08.34,1.2a.86.86,0,0,1,0,.39,3.36,3.36,0,0,1-.09,1c-1.13,2.75-1.33,5.73-2.06,8.57a64.61,64.61,0,0,0-1.15,6.48,11.9,11.9,0,0,1-.63,2.34,32.51,32.51,0,0,0-1.36,8.3c-.18,2.18-.47,4.38-.87,6.55-.43,2.33-.52,4.72-.84,7.06-.29,2.12-.7,4.21-1.06,6.31a3.42,3.42,0,0,0,0,1.74c1.53-2.68,1.37-5.68,2.38-8.67a11.13,11.13,0,0,1,.54,2.28c0,2.77.75,5.44,1,8.18.25,3.14.67,6.26.72,9.42,0,2.07.08,4.15.22,6.21.08,1.24-.83,1.8-1.41,2.58-.23.31-.38-.07-.4-.38a20.45,20.45,0,0,1,0-3.67,1.94,1.94,0,0,0-.07-1.28,6.07,6.07,0,0,0-.64,2.58,16.75,16.75,0,0,0,0,2.65,1.73,1.73,0,0,1-1.08,2c-.3.14-.57.35-.86.52s-.43.13-.3.41.25.25.5.23a4,4,0,0,0,2.08-1,11.64,11.64,0,0,0,3.07-2.91,4.64,4.64,0,0,1,.43-.79c.21-.23-.49-.59.14-.68a.82.82,0,0,1,.95.56,3.82,3.82,0,0,1,.34.74,66.8,66.8,0,0,0,1.5,6.7c.12.45.08.68-.22.78h3c-1-.07-1.47-.49-1.78-1.79-.4-1.69-.82-3.39-1.22-5.09-.34-1.46-1.06-2.46-2.67-2.56-.23,0-.4,0-.43-.3a.86.86,0,0,1,.4-1,22.62,22.62,0,0,1,4.42-2.16,2.67,2.67,0,0,0,1.64-.92.24.24,0,0,0,.05-.14c.35.16.69-.13.93-.25a13.44,13.44,0,0,1,4.78-1.26c2.09-.22,4.2-.28,6.3-.42a5.47,5.47,0,0,1,2,.34,2,2,0,0,1,1.41,2.45c-.32,1.87-.46,3.78-.93,5.61-.59,2.33-.93,4.71-1.58,7a.54.54,0,0,1-.39.42h2.1c-.47-.12-.57-.5-.39-.95a19.69,19.69,0,0,0,.88-3.94,21,21,0,0,0,.77-4.08c0-.59.29-1,1-.8a1.84,1.84,0,0,0,2.07-1.06,6,6,0,0,0,.69-4.31C206.9,189.47,206.75,188.32,206.5,187.21Zm-4.58-44.78c-.26.43-.71.14-1.1.18.26-.26.27-.84.84-.61.2.08.4.22.26.43ZM178.31,168a15,15,0,0,1,.45-6.69C178.55,163.54,178.87,165.8,178.31,168Zm27.43,16.77c-1,1.3-.46,2.71-.24,4.09.24,1.55.79,3.09.1,4.68-.49-.14-.46-.56-.54-.91a5.37,5.37,0,0,0-5.72-4.38,23.79,23.79,0,0,0-7.21,1,16.91,16.91,0,0,0-4.84,2.38h0c-1.57.65-3.38.48-4.85,1.56-1,.75-1.68.39-1.78-.87-.24-3-.08-6-.11-9.07,0-.75-.34-1.48,0-2.25.18-.41.43-.79.85-.74,2.09.29,3.85-.86,5.78-1.27,4.7-1,9.34-1.46,13.88.78,1.65.81,3.45,1.31,5.16,2,1.16.49,1.2.77.45,1.75Z"/><path class="cls-2" d="M156.65,83.47c3.54,1.86,7.06,3.78,11,4.77,2,.49,3.71,1.58,5.63,2.18,2.38.74,4.8,1.35,7.2,2a13.37,13.37,0,0,1,4.92,2.26c.3.24.64.14,1,.3-.32.73-.63,1.43-.93,2.13-.05.12-.05.27-.24.26s-.29-.13-.29-.34a5.6,5.6,0,0,0-.18-1.73,8,8,0,0,0-.35,2.87,7.11,7.11,0,0,1-.12,2.94.84.84,0,0,1-.17.93c-.37.56.13,3.84.4,4.42.56,1.19.92.51,2.15.18,0-.37.2-2.54.25-2.91-.35-.54-.25-.32-.25-1v-2.48a6.15,6.15,0,0,1,.44-1.94c.13-1.12,0-2.3.93-3.27.58.51,2.55,2.4,3.12,2.91.29-.36.07-1.38.36-1.73a25.43,25.43,0,0,0-2.4-2,25.21,25.21,0,0,0-6.21-2.4c-2.44-.78-4.92-1.38-7.34-2.26-2.24-.82-4.57-1.41-6.85-2.11a28.94,28.94,0,0,1-3.73-1c-2.08-.87-4.08-1.9-6.08-2.91a17.27,17.27,0,0,1-4.47-2.88,12.8,12.8,0,0,0-4-2.84c-.23-.1-.51-.14-.53-.52-.11-2-.93-3.78-.3-5.88a37.88,37.88,0,0,0,.91-6.53,1.54,1.54,0,0,1,1-1.41,3.23,3.23,0,0,0,2.1-2.74,6.64,6.64,0,0,1,1-3,4.52,4.52,0,0,0,.74-2.5v-6.9a3.1,3.1,0,0,0-.54-2.11,1.85,1.85,0,0,1-.38-1.42c.27-1.67.52-3.35.67-5,.34-3.69,1.31-7.32.31-11.09a9.77,9.77,0,0,0-2.46-5,.9.9,0,0,1-.35-.79,13.18,13.18,0,0,0-.38-3.43A3,3,0,0,0,151.07,17v2a4.61,4.61,0,0,1-.46,2,2.13,2.13,0,0,0-.12,1,5.57,5.57,0,0,0,.75-1.71,5,5,0,0,1-.42,3.31,15.08,15.08,0,0,1-2,3.28.88.88,0,0,0-.24.64c.37.38.5-.06.63-.22a15.13,15.13,0,0,0,1.86-3.18c.23-.52.29-.84,1-.19,1.69,1.64,2,3.82,2.67,5.88a.66.66,0,0,1-.17.83c-.31.22-.17.53-.1.83a5,5,0,0,1,.16,2.61,2.43,2.43,0,0,0,0,1.31,3.09,3.09,0,0,1-.37,2.3l-.14-.86a30.58,30.58,0,0,0-.51,3.3c-.28,1.49-.33,3-.51,4.54a2.18,2.18,0,0,1-.75,1.5,4.4,4.4,0,0,0-1.18,2.75c-.64-.92-1.26-1.86-1.93-2.76-.23-.32-.37-.82-.93-.76,1.42,1.92,1.33,4.29,1.86,6.47a14.17,14.17,0,0,1,.3,2.42,12.89,12.89,0,0,1-1.92,8,11,11,0,0,0-.6,1.36h0a1.43,1.43,0,0,1,.26,1.74c.54-.71.72-1.77,1.31-2.7-.12,1.37-.16,2.75-.39,4.1a27,27,0,0,0-.36,2.83c-.11,2.53-1.48,4.56-2.68,6.66a40.36,40.36,0,0,1-6,7.29,12.79,12.79,0,0,1-5.53,3.89,11.73,11.73,0,0,1-5,.24c-.57-.08-1.14-.13-1.71-.2l-.21.19c.33.68,1.11.71,1.64.83,2.81.61,5.61.77,8.09-1.11l3.3-2.41c.51-1.22,1.74-1.8,2.51-2.8a68.74,68.74,0,0,0,4.3-7c.16-.28.3-.56.58-1.07.09,2.33,0,4.39-.07,6.44,0,.54-.12,1.08-.11,1.61.05,2.87-1.64,5-3.13,7.13-.74,1.07-1.6,2-2.43,3.1.72.07.74.08,2.91-2.8.86-1.14,1.58-2.39,2.4-3.56s.73-2.78,1.17-4.17a22.53,22.53,0,0,1,.6,6.34c-.05,1.73-.23,3.46-.11,5.19.17,2.67-.33,5.29-.39,7.93a1.22,1.22,0,0,1-.47.86,46.72,46.72,0,0,0-4.09,4.69c-.52.61-.66.59-1.24,0a73.56,73.56,0,0,1-6.21-7.33A4.94,4.94,0,0,0,134.71,98c-.17-.07-.31-.11-.35-.31s.18-.3.36-.37c.47-.19.92-.42,1.41-.57a16.44,16.44,0,0,0,5.54-3.09c.19-.15.43-.33.19-.56s-.35.07-.5.2a14.45,14.45,0,0,1-5.3,2.79,7.64,7.64,0,0,0-2.64,1.44,1.15,1.15,0,0,1-1.65,0c-2.09-1.62-4.37-3-6.43-4.64-.28-.23-.65-.59-1.14-.39-.33-1-1.32-1.3-2-1.8a17.25,17.25,0,0,1-6.3-7.41c-.72-1.64-.5-3.38-.58-5.1a6.13,6.13,0,0,1,.19-2L116.72,78c.34-.49.1-.75-.11-1.07a17.38,17.38,0,0,1-2.53-7.49c-.26-1.78-.42-3.59-.68-5.37s-1-3.75-1-5.76-.06-3.93-.12-5.9a2.39,2.39,0,0,1,.29-1.41c-.86.42-1.64.7-1.49,1.74-.4.1-.33-.18-.39-.35a.34.34,0,0,0-.42-.17.23.23,0,0,0-.19.26.09.09,0,0,0,0,.05,10.12,10.12,0,0,1-.12,2.2c0,.7.26,1.1,1,1.09.29,0,.45.12.31.29-.64.77,0,1.36.19,2,.28-.55-.07-1.2.36-1.73a32.16,32.16,0,0,0,.83,6.26c-2.44-.29-3.19-1.27-3.12-3,.06-1.35-1.08-2-1.13-3.19h0v-.92a9,9,0,0,1,.11-1h0V54c-.23.07-.46-1.09-.64-1.15a10.67,10.67,0,0,0,0,2.26c-.1,1.67.72,3.14,1,4.73a4.93,4.93,0,0,0,2.84,4,1.1,1.1,0,0,1,.72.89,38.52,38.52,0,0,1,.75,4.27,60.12,60.12,0,0,0,.81,6.82c.09.5.18,1-.3,1.41A51.75,51.75,0,0,1,109.11,81a7.69,7.69,0,0,1-2.46,1.68,18.77,18.77,0,0,1-7.22,4.17c-3.7,1.26-7.32,2.73-11,4.11-3.15,1.19-6.32,2.34-9.57,3.22a4.53,4.53,0,0,1-3.28.18c-.48-.22-1,.11-1.38.44a9.8,9.8,0,0,0-3.66,6.32,12.76,12.76,0,0,1-1.08,4.2,25.82,25.82,0,0,1-6.25,7.58,3.47,3.47,0,0,0-1.49,2.76,15.21,15.21,0,0,1-1.86,7.19,26.51,26.51,0,0,1-2.37,3.74,14,14,0,0,0,.2-2.24c.17-3.25.12-6.53.6-9.76.33-2.2.87-4.37,1.15-6.58.23-1.78.05-3.55,1-5.32a77.64,77.64,0,0,0,3.08-7.78c.79-2,1.69-4,2.35-6a37.56,37.56,0,0,1,3.07-7.42A2.2,2.2,0,0,0,69,79c-.93-1.3-.87-2.73-.89-4.18,0-.38.13-.83-.28-1.13,0,.92,0,1.84.07,2.75,0,.7-.33,1.07-.93,1s-.26-.63-.35-1a5.31,5.31,0,0,0-.11-.8c-.07.65-.36,1.36.12,1.93s.93,0,1.42-.14a5.19,5.19,0,0,0,.6,1.79A1.82,1.82,0,0,1,68.54,81c-1.72,2.8-2.56,6-3.73,9a4.73,4.73,0,0,1-.57,1.12c.44-2.35,0-4.73.42-7.07a2.88,2.88,0,0,0-.45-2.26,7.64,7.64,0,0,1-1-4.18,6.49,6.49,0,0,1,1-4.16,2.9,2.9,0,0,1,3.68-1.18c0-.41-.26-.54-.57-.71a2.67,2.67,0,0,0-2.41.24c-.65.27-.68.08-.67-.45V65.22c0-.19,0-.42.22-.51h0c-.33-.26-.19-.63-.18-1,0-1.32,0-2.65.06-4,.06-4.79.16-9.58,0-14.37a2.75,2.75,0,0,0-1.52-2.55,6.06,6.06,0,0,0-2.73-.71H41.64a3.56,3.56,0,0,0-3.14,3.29v10.7c0,.21.12.47-.18.65a4,4,0,0,0-.43-.39c-1.71-1-3-1.16-3.5,1.3a11,11,0,0,0,1,6.9c0-.2.12-.45,0-.59-1.23-2,0-4.32-.61-6.43-.17-.63.33-1.13.87-1.47s1.13,0,1.56.29A2.68,2.68,0,0,1,38.68,59c-.07,1.38-.17,2.77-.26,4.15v.3c-1.2.94-.46,2-.14,3a.71.71,0,0,0,.87.48h0c-.17-4.79,0-9.58-.05-14.37V45.72a2.71,2.71,0,0,1,2.88-3q9.33.06,18.66.06c2,0,3.21,1.12,3.17,3.05-.2,8.3-.16,16.59,0,24.88a7.92,7.92,0,0,1-.32,3.52c-.4-.34-.24-.76-.24-1.12q0-11.67.06-23.35c0-.87-.34-1.15-1.15-1.1H40.72c-.62.54-.52,1.28-.53,2,0,3.57-.06,7.14-.08,10.71v5.46c0,1,.85,1.3,1.28,1.94a7.92,7.92,0,0,0,.89.94,1.77,1.77,0,0,0-.49.26,1.87,1.87,0,0,1,.65.42l1,.94c.28.26.19.54.07.83L42,72.82a1.1,1.1,0,0,1-1.49-.43,1,1,0,0,1-.11-.28,1.46,1.46,0,0,1,.23-1.82,1.84,1.84,0,0,1,.22-.17,1.35,1.35,0,0,1-.26-.15c-.22-.17-1,.48-.86,1.11a5.14,5.14,0,0,0,.57,1.79.93.93,0,0,0,1.23.46l.11-.06a4.85,4.85,0,0,0,1.79-1.09c.32,0,.62-.11.65.44a2.21,2.21,0,0,1-2.17,2.25,2,2,0,0,1-.64-.08,1.64,1.64,0,0,1-1.11-.63c-.71,2.22,1.2,2.29,2.2,3.12-.49.42-1.15.71-1.43,1.46.5-.08.56-.51.82-.72s.65-.54,1-.37a1,1,0,0,1,.32,1.2,1.9,1.9,0,0,1-2.24,1.22c-.83-.29-.79.07-.78.67.05,2.18.05,4.36.06,6.53,0,1.38.13,1.51,1.49,1.52q9.69,0,19.39.06c2.21,0,2.21,0,2.22-2.17V81.63A1.17,1.17,0,0,1,63.9,83v6.12a14.87,14.87,0,0,1-.45,3.11,2.68,2.68,0,0,1-2.4,2c-.83.14-1.68.16-2.52.23H51.77a.45.45,0,0,1-.45,0h-.41a1.37,1.37,0,0,1-.85,0H45.59a3.17,3.17,0,0,1-1.5,0c-.8,0-1.6-.08-2.4,0a2.26,2.26,0,0,1-1.95-.69l-.3.16a2.59,2.59,0,0,0,2.8,1.73c2.48-.07,5-.13,7.42-.28.67,0,.68.16.62.68a12.22,12.22,0,0,0,1,6.31,1,1,0,0,0,.23.31,1.91,1.91,0,0,0,.32.16,4,4,0,0,0-.24-1.68,5.92,5.92,0,0,1,.08-4.4c0-.07.09-.13.09-.19,0-1.65,1.08-1.21,2-1.06a18.66,18.66,0,0,0,4-.2l2.8-.31a7.15,7.15,0,0,0,1.76-.47c.22-.15.45-.47.67-.19s-.1.48-.23.72A31.31,31.31,0,0,0,61,98.49a33.67,33.67,0,0,1-2.12,4.56,2.18,2.18,0,0,1-.42.54c-.3.32-1,.72.08.94.22,0,.12.29.13.44a19.92,19.92,0,0,1-.74,6,11,11,0,0,0-.46,2.6c-.15,4.28-1,8.49-1.18,12.75-.19,3.94-.49,7.88.42,11.85C57.86,143.39,59,148.62,58.9,154c0,1.46.34,3-.16,4.4a12.18,12.18,0,0,1-2.67,4.6,37.71,37.71,0,0,1-8.73,6.27,3.2,3.2,0,0,0-1.59,1.87c-.1.34-.31.58-.61.15-1.63-2.3-3.94-3.94-5.79-6a11.79,11.79,0,0,1-2.69-5.77c-.87-4.4-.25-8.81.2-13.2a70.26,70.26,0,0,1,1-8.18c1-4.53,1.41-9.16,2.28-13.72a70.64,70.64,0,0,0,.73-9.3c.13-2.43-.72-4.78-.24-7.18.08-.39.13-.78.19-1.22.72.35,1,1.21,2.15,1-2.08-.77-1.79-2.7-2.47-4.09-.58-1.2-1.49-2.14-2.14-3.28A30.75,30.75,0,0,1,36,94.2c-.43-1.36-.69-2.75-1-4.13a7.42,7.42,0,0,0-.77-2.19c-.23-.37-.14-.88-.23-1.27s1.13-1.31-.38-1.2a1.89,1.89,0,0,1-.1-.41c-.67-2.62-.6-5.32-.92-8,0-.3.22-.62.22-.86,0-.73,1.49-.35.94-1.44a19.92,19.92,0,0,1-.59-2A4,4,0,0,1,33,69.8c-.75,0-.54.72-.78,1.11l-.22.28c.41,1.18.21,2.51.87,3.63.19.52-.23.75-.51,1A4.78,4.78,0,0,0,32,77.31a29,29,0,0,0,1,8.84,8.59,8.59,0,0,1,.54,1.72A36.3,36.3,0,0,0,35.78,97a30.09,30.09,0,0,0,3,5.34c.72,1.21,1.56,2.59,1.24,3.86a18.2,18.2,0,0,0-.29,6.37,47.4,47.4,0,0,1-2,18.48,71.13,71.13,0,0,0-2.28,11c-.53,3.85-1.18,7.73-.85,11.65a2.23,2.23,0,0,1-.25.87,7.54,7.54,0,0,0,0,5.93,24,24,0,0,1,2.22,9,27.53,27.53,0,0,0,1,4,6.87,6.87,0,0,0,1.5,2.32,36.26,36.26,0,0,0,2.43,2.83c.29.29.87,1,1.32,0,.11-.25.1-.86.56-.67s1.41.2,1.75.87c.82,1.61,1.81,1.9,3.21.71a9.43,9.43,0,0,1,4.49-2.11,11.1,11.1,0,0,0,4.51-1.7c1.56-1.15,2.8-2.69,4.78-3.32.91-.3,1.4-1.41,1.92-2.27.72-1.21,1.32-2.47,2.67-3.18a3.48,3.48,0,0,0,1.1-1.31c1.19-1.95,2.3-4,3.52-5.9a59.08,59.08,0,0,0,4-7c1-2.13,2.69-3.81,4.12-6,.47,3.41,1.09,6.52,1.47,9.69a84.48,84.48,0,0,1,.91,12c-.19,7.07-.44,14.18-1.79,21.16a35.75,35.75,0,0,1-1,4.45c-.65,1.91-1.52,3.74-2.15,5.65a28.93,28.93,0,0,0-1.27,5.11c-.08.52-.27.76-.65.85h2.54c-.14-.09-.17-.3,0-.84.65-1.92,1.51-3.74,2.18-5.64a55.9,55.9,0,0,0,2.47-10.83,83,83,0,0,0,.63-12,3.87,3.87,0,0,1,.22-1.22c-.06,2,.64,3.87.72,5.83a26.07,26.07,0,0,0,.63,3.51,80,80,0,0,0,2,8.8c.08.27.12.61.44.75a11.28,11.28,0,0,0-.31-3.52c-.77-4.61-1.59-9.21-2.18-13.85A174.85,174.85,0,0,1,83,158.38a34.23,34.23,0,0,0-1.11-8.66c-.06-.2,0-.43-.23-.54-.82-.47-.81-1.29-.84-2.05-.09-2.58-1-5-1.58-7.45-.46-2-.69-4-1.16-6a38.6,38.6,0,0,1-1.07-8.36,54,54,0,0,0-.66-11.07c-.32-1.59-.84-3.13-1.29-4.69,0-.14-.22-.24-.53-.58a26.91,26.91,0,0,0,.66,4,17.93,17.93,0,0,1,.56,4.43v9.09c0,.87-.3,1-1.07,1.13-1.14.18-2.36.12-3.39.93,1.15-.17,2.3-.29,3.43-.54.79-.17,1.14.07,1.19.84a95.4,95.4,0,0,0,1.66,9.94,34.17,34.17,0,0,0,1.25,5,2.93,2.93,0,0,1-.75,3c-3.23,3.87-5.66,8.28-8.47,12.43-1.45,2.13-2.42,4.58-4.29,6.43-.46.45-.85,1-1.3,1.39a1.77,1.77,0,0,0-.66,1.43c0,.7-.7,1.36-1.31,2,0-.23,0-.36,0-.42.91-1,.4-2.09.35-3.22-.13-2.9-.84-5.75-.75-8.77.67.62.53,1.63,1.35,2.12-.2-1.56-1.07-2.82-1.55-4.22-.43-1.22-1.19-2.25-1.7-3.41-.14-.34-.52-.67-.2-1s.49.38.84.24l.14-.14c-1.24-.65-1.38-1.82-1.31-3,0-.67-.53-1.32,0-2h0c-.86-1.64-.62-3.54-1.18-5.26-.26-.77-.33-1.6-.56-2.38s.07-.82.64-.73a6.37,6.37,0,0,1,4.16,1.8c.7.8,1.54,1.49,2.39,2.29,0-.21.08-.35,0-.39-1.83-2.07-3.76-4-6.8-4-.5,0-.65-.27-.74-.66a26.52,26.52,0,0,1-.41-7.8c0-.13,0-.34.08-.38.85-.46,1.07-1.37,1.44-2.14,1-2,2.6-3.65,3.72-5.6.46-.81.42-1.87,1.27-2.48.22-.16-.07-.26-.14-.38a4.55,4.55,0,0,1-.24-3.91,1.69,1.69,0,0,1,1.43-1.18c.13,3,2.24,4.44,4.39,5.85.84.55,1.64,1.28,2.77,1.2-1.14-.93-2.55-1.44-3.67-2.4a8.6,8.6,0,0,1-3-4.21,1.32,1.32,0,0,1,.31-1.47c.56-.56.8-1.4,1.45-1.92a6.82,6.82,0,0,1,2.17-2.89c.69-.55.93-1.62,1.54-2.29,1.53-1.68,1.11-3.9,1.72-5.83a5.66,5.66,0,0,1,1.85-2.78c.32-.27.61-.75,1.16-.71-1,4-2.25,8-.3,12.15a2.84,2.84,0,0,0,.3-2.29,24.79,24.79,0,0,1,.93-8.94,2.33,2.33,0,0,1,2-1.85,37.72,37.72,0,0,0,6.59-1.93c2.38-.85,4.78-1.63,7.11-2.58a86.74,86.74,0,0,1,8.36-3c.57-.17,1-.66,1.76-.59a34.66,34.66,0,0,1-3,6,20.87,20.87,0,0,1-2,3c-.33.39-.29.74.33.86a14.42,14.42,0,0,0,2.67.64.66.66,0,0,1,.52.24c.19.32-.2.36-.35.49C98.53,99.23,97,100,95.5,101c-.19.13-.41.24-.59.39-1.67,1.34-1.76,1.51-.67,3.32s1.28,4,1.74,6.1.71,3.93,1,5.9c.47,3,1.26,6,1.54,9a122.37,122.37,0,0,0,1.6,12.5,93.16,93.16,0,0,1,2.09,15.69,74.41,74.41,0,0,0,1.21,12.55,11.77,11.77,0,0,0,1,3c.29.59-.21,1,0,1.45l.37-.39.49-.25a72.63,72.63,0,0,1-1.53-10.16c-.42-4.63-.56-9.27-1-13.89a42.46,42.46,0,0,0-.89-4.89,64.09,64.09,0,0,1-1.15-7.43c-.36-3.78-.6-7.58-1-11.35-.21-1.92-.71-3.8-1-5.7-.48-2.81-.86-5.63-1.4-8.42a11.7,11.7,0,0,0-1.61-4.34c-.45-.67-.42-1.22.25-1.63,2.88-1.8,5.22-4.32,8.23-5.94,2-1.1,3.84-2.64,5.91-3.71.51-.26,1.14-.74,1.56-.52s.07,1,.06,1.49c0,2.83-.12,5.65-.11,8.47,0,2.48-.42,4.92-.63,7.38-.26,3-.49,6-.79,8.93q-.48,4.88-1.07,9.72a14.09,14.09,0,0,0-.14,1.83c0,5.13-.66,10.23-.79,15.35-.13,4.86-.64,9.69-1.13,14.55-.35,3.44-.59,6.9-1.21,10.31a3.84,3.84,0,0,0,.53.28c.24.08.47.36.74.12a.7.7,0,0,0,.11-.94.87.87,0,0,1,.1-1.23l.1-.07c.33-.29.27-.67.29-1,.47-6.6,1-13.2,1.41-19.8.19-2.81.28-5.63.43-8.45.28-5.52.3-11.05,1.15-16.53.1-.63,0-1.29.1-2,4.12,11.37,8.31,22.69,12.75,33.91.62-.17.78-.6,1.12-.81-1.31-3.16-2.65-6.3-3.92-9.48-.7-1.74-1.26-3.55-1.94-5.3-1-2.7-2.14-5.38-3.25-8-1.33-3.18-2.2-6.54-3.64-9.64-1.3-2.79-.5-5.46-.41-8.17.09-2.43.24-4.89.56-7.31.41-3.17.14-6.35.48-9.77a31.72,31.72,0,0,1,3.14,5.33,25.68,25.68,0,0,0,3.88,5.8c.39.49.84.62,1.22-.13a7.07,7.07,0,0,1,2.66-2.52c1.42-.92,3.23-1.23,4.13-2.73.36.08.33.26.3.36a3.93,3.93,0,0,0,1.09,3.65,4.65,4.65,0,0,1,1.09,4.81,31.76,31.76,0,0,0-.91,8c-.07,4.35.15,8.71.09,13.06-.07,4.71-.12,9.42-.12,14.13-.07,3.47-.13,6.69-.18,9.25a2.09,2.09,0,0,0-.06.93v2.13a10.76,10.76,0,0,0,0,2.66c-.81-.33-4.16-6.79-4.59-7.29-1.09.53-1.6.33-.74,1.14,1.09,1,2.64,6.47,4,7,.45.19,3.08,2,3.06,2.52-.07,2,.88,4.07,1.09,6.1.13,1.22.2,2.43.22,3.66.07,4.52.23,9,.17,13.56,0,2.18-.58,4.34-.62,6.56,0,2.74.43,5.41.62,8.11a18,18,0,0,1,0,2.75c0,.54-.22.77-.56.86h1.7c-.49-.13-.24-.49-.22-.75a44.45,44.45,0,0,0-.33-7.29l-.12-1.33v-1.58a18.34,18.34,0,0,1,.35-5.58,33.08,33.08,0,0,0,0-6.6c-.17-2.75-.08-5.51-.11-8.26v-1.2c-.07-2.55-.64-5-.86-7.57v-.51c-.1-1.52-.13-1.35,1.32-1.12a12.19,12.19,0,0,0,5.91-.22,14.69,14.69,0,0,0,4.94-2.62c.92-.76,1.12-2,2-2.77.93-2.15,2.24-4.12,3.1-6.31.12-.29.15-.58.24-.86a73.69,73.69,0,0,0,2-7.73,33.05,33.05,0,0,0,.43-5.88,2.35,2.35,0,0,1,.52-1.53c0,3.65.61,7.06.92,10.5.39,4.22,1.46,8.35,2,12.55.3,2.59.57,5.18,1,7.75a53.53,53.53,0,0,0,2.56,8.93c1.51,4.07,3.38,8,5,12a31.93,31.93,0,0,1,1.94,8.89c.15,1.43.57,2.78.84,4.17a24.94,24.94,0,0,0,1,4.35c.14.37,0,.52-.17.58H169c-.29-.08-.42-.29-.51-.66-.47-2.12-.73-4.29-1.39-6.36-.21-.64.64-.06.6-.66a12.41,12.41,0,0,1,.32-2.51.68.68,0,0,1,.24-.48v3.67c.17-1.8.08-3.6.1-5.39a120.74,120.74,0,0,0-.45-14.36c-.41-3.92-1-7.82-1.38-11.74-.31-3.31-1.11-6.53-1.38-9.85s-1-6.5-1.51-9.74c-.46-2.83-.48-5.69-.68-8.53a85.94,85.94,0,0,1-.17-9.08,79.8,79.8,0,0,1,1-10.23c.59-3.6,1.28-7.2,2.18-10.73.41-1.61-.41-1.9-1.19-2.54-1.56-1.3-3.16-2.54-4.72-3.83-.79-.65-.73-.8.13-1.25a16,16,0,0,1,3.38-1c1-.27,1.09-.52.43-1.35a33.05,33.05,0,0,1-5.6-9,58.12,58.12,0,0,1-2.22-5.71c-.09-.32-.16-.64-.24-1C156.26,83.2,156.43,83.36,156.65,83.47Zm-4.22-34.14a8.24,8.24,0,0,0,.59-2.55c0-.34.23-.78.5-.8.45,0,.68.48,1,.78a.53.53,0,0,1,.14.75l0,0a42.3,42.3,0,0,0-2.87,4.5C152,51.14,152.12,50.21,152.43,49.33ZM151,53c.15-.1.19.06.22.18.48,0,.52.33.53.7s-.45.25-.64.42c.22-.34-.09-.66,0-1C151,53.21,150.9,53.07,151,53Zm-.11,1.85c0-.24.15-.35.2-.53a16.57,16.57,0,0,1,.26,5.21c.26-.06.35,0,.37-.08A18.35,18.35,0,0,0,153,54.8a1.08,1.08,0,0,0-.17-.68,2.79,2.79,0,0,1,.26-3.25l.71,1.86c.08.21.09.49.44.37.15-1.47-.47-2.94.15-4.4.28,1.47.81,2.94-.14,4.39a10.38,10.38,0,0,1,0,3.85c-.13.69-.57,1.2-.74,1.85a16.5,16.5,0,0,0-.59,1.93c-.21,1.5-1.54,1.77-2.56,2.38-.08-.1-.16-.15-.15-.19a32.72,32.72,0,0,0,.7-8.08ZM149.75,62a.45.45,0,0,1,0,.63c-.2-.24-.1-.44,0-.65ZM43.06,172.16a1.67,1.67,0,0,0-.33,1.12c0,1.51.18,3.05-.51,4.72-2.12-3.46-4.85-6.47-4.36-10.94a9.74,9.74,0,0,0,1.66,2.27c.13.12.23.41.47.18s0-.32-.07-.45a31,31,0,0,1-3.62-6.2,10.63,10.63,0,0,1-1.55-5.79,4.59,4.59,0,0,1,.57-1.73c.22,1.46.42,2.73.6,4A12.55,12.55,0,0,0,39.18,166c1.21,1.37,2.54,2.61,3.83,3.9C44,170.85,43.94,171.08,43.06,172.16Zm2,5.89a8.58,8.58,0,0,1-1.35-.86c-.66-.45-.83-.95-.1-1.49-.5-.83-.47-.93.36-1.32a.49.49,0,0,0,.24-.27c0-.17-.14-.18-.26-.23s-.55,0-.72-.28-.29-.66.18-.92c.7-.38,1.36-.88,2.23-.55.07,0,.09.24.09.36a38,38,0,0,0,.29,5c.12.9-.42.81-1,.56Zm8-1.47c-.2.08-.37-.08-.52-.2H53c1.68-1.21,3.66-1.88,5.38-3a14.38,14.38,0,0,1-5.38,3.2Zm5.43-3.32c.26-.19.38-.61.81-.56-.2.35-.42.61-.85.56Zm.86-.6a1.79,1.79,0,0,1,1-.93,2.53,2.53,0,0,1-1,.93Zm.75-14.48c.21-.6.12-1.28.57-1.91a6.65,6.65,0,0,1,.46,1.92,60.48,60.48,0,0,0,.86,9.69,1.45,1.45,0,0,1-.36,1.11,21.7,21.7,0,0,1-6.29,5.55,12.75,12.75,0,0,0-2.82,1.83h0A16.8,16.8,0,0,0,48,178.68c-.33.22-.58.68-1,.48s-.2-.72-.23-1.1a18.27,18.27,0,0,0-.28-3.22c-.68-2.53.39-4,2.61-5A20.94,20.94,0,0,0,56,164.66a17.45,17.45,0,0,0,4.1-6.48Zm51.84-67.54c0,.27,0,.46-.4.58-2.5.84-4.56,2.47-6.76,3.84l-2.55,1.62c-1.41.89-2.62-.23-3.93-.41-.42,0-.15-.42,0-.63A96.86,96.86,0,0,0,102.79,87c.25-.53.52-1.25,1.4-.7.22.14.41-.16.6-.29,2.65-1.79,5-4,7.49-6a2.08,2.08,0,0,0,.72-1c.1-.32.2-.74.73-.74.09.77-.52,1.35-.6,2.09C112.75,83.78,112.59,87.24,111.94,90.64Zm13.57,11.59c-1.84,1.43-4.22,2.16-5.52,4.44a26.2,26.2,0,0,1-3.6-5.54,22.42,22.42,0,0,0-3.47-5.4,1.81,1.81,0,0,1-.43-1.28A99.09,99.09,0,0,1,113.65,84c.19-1.47.55-2.91.85-4.45.71.51.32,1.19.39,1.71A13.17,13.17,0,0,0,119,88.59c1.41,1.45,3.15,2.49,4.69,3.79a.45.45,0,0,0,.55.06c.45,1,1.48,1.21,2.2,1.83,1.53,1.28,3.39,2.13,4.94,3.56a5,5,0,0,0-3.11,2.37C127.61,101.17,126.4,101.54,125.51,102.23Zm25.25,34.14c-.13,1-.18,2-.25,3a33,33,0,0,1-1,6.08,48.63,48.63,0,0,1-2,6.56,63,63,0,0,1-3.35,6.48,7.71,7.71,0,0,1-1.68,2.21c-.3.25-.66.51-1,.38,0-.19-.27-2.65-.64-6.27-.07-2-.07-3.9-.14-5.85-.19,0-1.45-12.73-2.06-16.13-.75-7.42-1.38-13.47-1.48-13.76,0-.12-.13-.56-.27-1.2-.26-2.21-.55-4.42-.76-6.63a13.6,13.6,0,0,0-.89-3.48,1.54,1.54,0,0,1,.06-1.19,16.9,16.9,0,0,0,1.58-6.24,8.12,8.12,0,0,1,1.47,2.07c1.47,2.16,3.6,3.72,5.18,5.78.32.44.73.48,1.09-.25,1-2,2.78-3.43,4.21-5.16.14,2.73.56,5.37.53,8s.66,5,1,7.57c.27,2.15.55,4.31.82,6.46.08.67.1,1.36.24,2C152.06,130.13,151.15,133.24,150.76,136.37Zm7.15-44.72a38.51,38.51,0,0,0,4.55,6.95c.76.93.76,1-.35,1.26a11.85,11.85,0,0,0-3.1,1.22,1.11,1.11,0,0,1-1.51-.21,31.13,31.13,0,0,1-5.73-7c-.11-.17-.23-.33-.33-.51s-.28-.35-.48-.22-.1.37,0,.54c.72,1.21,1.41,2.44,2.18,3.61a21.21,21.21,0,0,0,1.66,2,22,22,0,0,0,4.33,3.6c2,1.43,3.84,3.09,5.75,4.65a.86.86,0,0,1,.28,1,80.85,80.85,0,0,0-2.27,10.09,66.12,66.12,0,0,0-1.13,11.83c-.09,4.87.24,9.72.45,14.57a64.78,64.78,0,0,0,1,6.94,74.35,74.35,0,0,1,1,8.27,10.31,10.31,0,0,0,.48,2.46c.74,2.47.72,5,1.1,7.54s.79,5,1,7.46c.49,5.2,1.13,10.4.33,15.64a24.49,24.49,0,0,0,0,3.83h-.23c-.23-1.46-.5-2.92-.68-4.38a28.61,28.61,0,0,0-2.37-7.5c-1.18-2.83-2.44-5.62-3.54-8.48a41.3,41.3,0,0,1-2.31-6.57,57.35,57.35,0,0,1-1.56-9.21c-.14-3.5-1-6.89-1.39-10.35-.35-3.07-.66-6.15-1-9.22-.42-4.15-.8-8.31-1.08-12.48a30.5,30.5,0,0,0-.63-6.46c-.71-2.59-.8-5.35-1.26-8-.65-3.87-.51-7.79-.91-11.68-.28-2.69.48-5.35.24-8-.3-3.34,0-6.7-.32-10.06-.19-2-.08-4.17-.24-6.5A37.11,37.11,0,0,0,153,81.13c1.41,1,1.82,2.49,2.32,3.92A54.09,54.09,0,0,0,157.91,91.65Z"/><path class="cls-2" d="M94.75,203.32c-.22,0-.28.12-.32.3a3.68,3.68,0,0,0-.2,1.09c.13.7-.08.94-.41,1h.72c-.23-.06-.17-.24.06-.6a4.3,4.3,0,0,0,.4-1.41.32.32,0,0,0-.23-.38Z"/><path class="cls-2" d="M105.46,176.19a4.92,4.92,0,0,0-.27,1.7,71.19,71.19,0,0,1-1.1,8.35c-.65,3.49-1.6,6.95-1.35,10.56a11.84,11.84,0,0,1-.65,3.38,34.57,34.57,0,0,1-1.18,5c-.11.28-.22.45-.44.52h2c-.41-.11-.35-.43-.22-1,.72-3.29,1.79-6.52,1.79-10a30.52,30.52,0,0,1,1-6.44,54.85,54.85,0,0,0,1.39-9,1.46,1.46,0,0,1,0-.51,1.88,1.88,0,0,0-.89-2.52Z"/><path class="cls-2" d="M41.63,70a.92.92,0,0,0-.83.15A.79.79,0,0,0,41.63,70Z"/><polygon class="cls-2" points="66.62 110.6 66.62 110.6 66.61 110.61 66.62 110.6"/><path class="cls-6" d="M61.78,88.87H41.32a1.27,1.27,0,0,1-1.27-1.27l.09-7.41a5.26,5.26,0,0,0,1.68,0c.86-.24,1.83-1.5,1.28-2.31A11.84,11.84,0,0,0,40.59,76s-1.07-1.26.37-1c3.9.78,3.29-3,3.29-3l-.2-.27-.25-.35-1.68-1.73L40,67.48l0-17.48a1.27,1.27,0,0,1,1.27-1.27H61.78A1.27,1.27,0,0,1,63.05,50V87.6a1.27,1.27,0,0,1-1.27,1.27Z"/><path class="cls-1" d="M44.73,67.11,52,60.86l7.27,6.25a.78.78,0,1,0,1-1.18h0l-7.77-6.69a.78.78,0,0,0-1,0l-7.77,6.69a.78.78,0,0,0-.09,1.1h0a.79.79,0,0,0,1.1.08Z"/><path class="cls-1" d="M51.66,61.85,45.8,66.9a.55.55,0,0,0-.18.4v7.31a.53.53,0,0,0,.52.51H57.86a.51.51,0,0,0,.52-.5h0V67.3a.55.55,0,0,0-.18-.4l-5.86-5.05A.52.52,0,0,0,51.66,61.85Zm-.18,11a.52.52,0,0,1-.52.52H49.15a.52.52,0,0,1-.52-.52V71a.52.52,0,0,1,.52-.52H51a.52.52,0,0,1,.52.52Zm0-3.89a.52.52,0,0,1-.52.52H49.15a.52.52,0,0,1-.52-.52V67.13a.52.52,0,0,1,.52-.52H51a.52.52,0,0,1,.52.52Zm1-1.81a.52.52,0,0,1,.52-.52h1.81a.52.52,0,0,1,.52.52V69a.52.52,0,0,1-.52.52H53a.52.52,0,0,1-.52-.52Zm0,3.89a.52.52,0,0,1,.5-.54h1.83a.52.52,0,0,1,.52.52v1.81a.52.52,0,0,1-.52.52H53a.52.52,0,0,1-.52-.52Z"/><path class="cls-11" d="M108.17,52.28c-.12-3.06-.68-2.26,0-4s.68-1.53,1.74-1.86a1.9,1.9,0,0,1,1.63.08"/><path class="cls-12" d="M111.57,52.28c.74-.52.93-6.18.92-6.81,0-2.57,1.06-5,2.15-7.45a7.33,7.33,0,0,1,3.21-3.83,15.89,15.89,0,0,1,11.49-1.07,13,13,0,0,0,4.57.21c.23,0,6.61.33,6.74-.08a4.75,4.75,0,0,0,1.59-.18,22.55,22.55,0,0,1,2.53.81,6.62,6.62,0,0,1,3.79,4.29,14.28,14.28,0,0,1,.46,5.74,27.17,27.17,0,0,1-.41,2.83c3,2.19,1.85,7.35,2.39,6.52l1.06.86a10.15,10.15,0,0,0,.38-1.82,6,6,0,0,1,1-2.57,20.39,20.39,0,0,0,1.22-3.12,5.12,5.12,0,0,0,.11-1.87,3.33,3.33,0,0,1,.58-1.83c.94-2.07,1.85-4.16,2.76-6.24a.62.62,0,0,0-.08-.51c-.08-.08-.32,0-.46,0s-.54.41-.82.58c-.6.33-1,.09-.92-.65.27-3.28,2.58-7.16,5.41-8a4,4,0,0,0,.5-.1c.21-.12.41-.24.61-.38-.17-.2-.32-.58-.49-.58a18.73,18.73,0,0,0-2.7,0c-.61.06-1.22.27-1.87.28l5.94-4.92c-.75-.67-1.58-.27-2.41-.36.82-1.3,1.6-2.56,2.43-3.78a6.26,6.26,0,0,1,.93-.85,1.29,1.29,0,0,0,.14-.5c-.15,0-.35-.11-.44,0-2.26,1.8-4.9,1.62-7.39,2.19-.5.11-1,.27-1.6.44.85-1.34,1.63-2.57,2.38-3.81a2.2,2.2,0,0,0,.15-.72c-.21.07-.48.08-.63.24A9.32,9.32,0,0,1,151,18.06c-1.62.26-3.22.76-5.07,1.21a12.4,12.4,0,0,0,4.31-10.81L150,8.32c-.58.8-1.12,1.62-1.73,2.38a10.19,10.19,0,0,1-5.4,3.87l-3.73.87c.41-.66,1-1.55,1.52-2.46A17.36,17.36,0,0,0,143,4.79c.05-1.24.15-2.48.2-3.71a3.7,3.7,0,0,0-.2-.86,3.86,3.86,0,0,0-.71.63c-.89,1.42-1.69,2.91-2.62,4.29a13.48,13.48,0,0,1-7.87,5.56,17.17,17.17,0,0,0-9.08,6.3c-.62.8-1.15,1.68-1.86,2.73.09-.4.12-.59.17-.78.33-1.2.68-2.39,1-3.6a5.57,5.57,0,0,0,0-1c-.29.24-.48.32-.54.46-.88,1.9-2.39,3.14-3.73,4.56a53.57,53.57,0,0,0-4,4.65,10,10,0,0,0-1,2.81,6.74,6.74,0,0,0-.17,1A23.48,23.48,0,0,0,110,26.26a13.08,13.08,0,0,0-2.6-.89c-.31-.08-.7.13-1.05.21a6.91,6.91,0,0,0,.27,1.11c.41.85.86,1.68,1.32,2.49a17.29,17.29,0,0,1,1.86,7.22c-.3-.72-.6-1.44-.89-2.16l-.4.12a2.31,2.31,0,0,0-.21.81c.26,2.29.51,4.58.87,6.84.16,1,.61,2,.82,3a12.13,12.13,0,0,1,.08,2,12.6,12.6,0,0,0,.09,1.84c.09.61.79.79.66,1.25-.23.76.67,1.4.72,2.22"/></svg>