<svg id="Layer_1" data-name="Layer 1" xmlns="http://www.w3.org/2000/svg" viewBox="0 0 100 100"><defs><style>.cls-1{fill:#e8418b;}.cls-2{fill:none;stroke:#e8418b;stroke-linecap:round;stroke-linejoin:round;stroke-width:3px;}</style></defs><title>icon3</title><path class="cls-1" d="M25.11,53.23a6.32,6.32,0,1,1-6.32,6.32,6.32,6.32,0,0,1,6.32-6.32m0-3a9.32,9.32,0,1,0,9.32,9.32,9.32,9.32,0,0,0-9.32-9.32Z"/><path class="cls-1" d="M33.2,74.75a6.7,6.7,0,0,1,6.69,6.69V90H10.34V81.44A6.69,6.69,0,0,1,17,74.75H33.2m0-3H17a9.68,9.68,0,0,0-9.68,9.69V93H42.89V81.44a9.69,9.69,0,0,0-9.69-9.69Z"/><path class="cls-1" d="M73,53.23a6.32,6.32,0,1,1-6.32,6.32A6.32,6.32,0,0,1,73,53.23m0-3a9.32,9.32,0,1,0,9.32,9.32A9.32,9.32,0,0,0,73,50.23Z"/><path class="cls-1" d="M81.06,74.75a6.7,6.7,0,0,1,6.69,6.69V90H58.2V81.44a6.69,6.69,0,0,1,6.68-6.69H81.06m0-3H64.88a9.68,9.68,0,0,0-9.68,9.69V93H90.75V81.44a9.69,9.69,0,0,0-9.69-9.69Z"/><path class="cls-2" d="M54.11,6.05H86.47a5.68,5.68,0,0,1,5.68,5.68V31.61a5.68,5.68,0,0,1-5.68,5.68H79.14v9.84L68.87,37.29H54.11a5.68,5.68,0,0,1-5.68-5.68V11.73A5.68,5.68,0,0,1,54.11,6.05Z"/><path class="cls-2" d="M38.4,20.72H16.81A3.79,3.79,0,0,0,13,24.51V37.77a3.79,3.79,0,0,0,3.79,3.79H21.7v6.57l6.85-6.57H38.4a3.79,3.79,0,0,0,3.79-3.79V24.51A3.79,3.79,0,0,0,38.4,20.72Z"/></svg>