<svg fill="#E8418B" xmlns:dc="http://purl.org/dc/elements/1.1/" xmlns:cc="http://creativecommons.org/ns#" xmlns:rdf="http://www.w3.org/1999/02/22-rdf-syntax-ns#" xmlns:svg="http://www.w3.org/2000/svg" xmlns="http://www.w3.org/2000/svg" xmlns:sodipodi="http://sodipodi.sourceforge.net/DTD/sodipodi-0.dtd" xmlns:inkscape="http://www.inkscape.org/namespaces/inkscape" viewBox="0 0 40 40" version="1.1" x="0px" y="0px"><g transform="translate(0,-1012.3622)"><g transform="translate(628,-140.49998)"><path style="" d="M 11.15625 0 C 9.96375 0 9 0.96255 9 2.15625 L 9 37.8125 C 9 39.0062 9.96375 40 11.15625 40 L 27.84375 40 C 29.03625 40 30 39.0062 30 37.8125 L 30 15.96875 C 30.34176 16.01875 30.66069 15.8105 30.65625 15.5 L 30.65625 14.5 C 30.66125 14.2179 30.38541 14 30.09375 14 C 30.38664 13.965 30.66022 13.7779 30.65625 13.5 L 30.65625 12.5 C 30.66125 12.2179 30.40827 11.9956 30.09375 12 C 30.06605 12.0007 30.0272 11.99 30 12 L 30 10.59375 A 0.50004996 0.50004996 0 0 0 30.5 10.09375 L 30.5 9.40625 A 0.50004996 0.50004996 0 0 0 30 8.90625 L 30 2.15625 C 30 0.96255 29.03625 0 27.84375 0 L 11.15625 0 z M 11.15625 1 L 27.84375 1 C 28.49791 1 29 1.49765 29 2.15625 L 29 6 L 10 6 L 10 2.15625 C 10 1.49765 10.50209 1 11.15625 1 z M 17.3125 2.9375 C 17.0048 2.9375 16.75 3.1923 16.75 3.5 C 16.75 3.8077 17.0048 4.03125 17.3125 4.03125 C 17.62019 4.03125 17.84375 3.8077 17.84375 3.5 C 17.84375 3.1923 17.62019 2.9375 17.3125 2.9375 z M 19.25 3 A 0.5118231 0.5118231 0 0 0 19.53125 4 L 21.78125 4 A 0.50004996 0.50004996 0 1 0 21.78125 3 L 19.53125 3 A 0.50004996 0.50004996 0 0 0 19.375 3 A 0.5060667 0.5060667 0 0 0 19.3125 3 A 0.5118231 0.5118231 0 0 0 19.25 3 z M 10 7 L 29 7 L 29 12 L 29 12.5 L 29 13.5 L 29 14 L 29 14.5 L 29 15.5 L 29 15.96875 L 29 32 L 10 32 L 10 7 z M 15.5 17.5 C 15.22386 17.5 15 17.7238 15 18 C 15 18.2761 15.22386 18.5 15.5 18.5 C 15.77614 18.5 16 18.2761 16 18 C 16 17.7238 15.77614 17.5 15.5 17.5 z M 17.3125 17.5 A 0.50389111 0.50389111 0 0 0 17.5 18.5 L 24.5 18.5 A 0.50005 0.50005 0 1 0 24.5 17.5 L 17.5 17.5 A 0.50005 0.50005 0 0 0 17.375 17.5 A 0.50389111 0.50389111 0 0 0 17.3125 17.5 z M 15.5 19.5 C 15.22386 19.5 15 19.7238 15 20 C 15 20.2761 15.22386 20.5 15.5 20.5 C 15.77614 20.5 16 20.2761 16 20 C 16 19.7238 15.77614 19.5 15.5 19.5 z M 17.3125 19.5 A 0.50389111 0.50389111 0 0 0 17.5 20.5 L 24.5 20.5 A 0.50005 0.50005 0 1 0 24.5 19.5 L 17.5 19.5 A 0.50005 0.50005 0 0 0 17.375 19.5 A 0.50389111 0.50389111 0 0 0 17.3125 19.5 z M 15.5 21.5 C 15.22386 21.5 15 21.7238 15 22 C 15 22.2761 15.22386 22.5 15.5 22.5 C 15.77614 22.5 16 22.2761 16 22 C 16 21.7238 15.77614 21.5 15.5 21.5 z M 17.3125 21.5 A 0.50389111 0.50389111 0 0 0 17.5 22.5 L 24.5 22.5 A 0.50005 0.50005 0 1 0 24.5 21.5 L 17.5 21.5 A 0.50005 0.50005 0 0 0 17.375 21.5 A 0.50389111 0.50389111 0 0 0 17.3125 21.5 z M 10 33 L 29 33 L 29 37.8125 C 29 38.4711 28.49792 39 27.84375 39 L 11.15625 39 C 10.50208 39 10 38.4711 10 37.8125 L 10 33 z M 19.53125 35 C 18.98581 35 18.53125 35.4536 18.53125 36 C 18.53125 36.5463 18.98583 36.96875 19.53125 36.96875 C 20.07667 36.96875 20.53125 36.5463 20.53125 36 C 20.53125 35.4536 20.07669 35 19.53125 35 z " transform="translate(-628,1152.8622)" fill="#E8418B" fill-rule="evenodd" stroke="none"></path></g></g></svg>