<svg id="Слой_1" data-name="Слой 1" xmlns="http://www.w3.org/2000/svg" viewBox="0 0 79 61"><defs><style>.cls-1{fill:#fff;}</style></defs><title>1</title><g id="Responsive"><g id="Longread-Mockup_02" data-name="Longread-Mockup 02"><g id="Group-7"><path id="review-copy-2" class="cls-1" d="M20.4,41.19A15.88,15.88,0,0,1,4.79,25.1,15.88,15.88,0,0,1,20.4,9,15.87,15.87,0,0,1,36,25.1V26a1.41,1.41,0,0,1,0,.29C36,45.45,20.93,61,2.4,61a2.47,2.47,0,1,1,0-4.94C14,56.06,23.37,41.19,20.4,41.19Zm43,0a15.87,15.87,0,0,1-15.6-16.1,15.6,15.6,0,0,1,31.2,0h0V26a1.41,1.41,0,0,1,0,.29C79,45.45,63.93,61,45.4,61a2.47,2.47,0,0,1,0-4.94C57,56.06,66.38,41.19,63.4,41.19Z"/></g></g></g></svg>