<svg id="Layer_1" data-name="Layer 1" xmlns="http://www.w3.org/2000/svg" viewBox="0 0 180 204"><defs><style>.cls-1{fill:#fff;}.cls-2{fill:#231f20;}.cls-3{fill:#2d2b2e;}.cls-4{fill:#6b8dbf;}.cls-5{fill:#ebc3b8;}.cls-6{fill:#007367;}.cls-7{fill:#354da0;}.cls-12,.cls-8{fill:#e4b226;}.cls-9{fill:#ed2724;}.cls-10{fill:#00bff2;}.cls-11{fill:none;stroke-width:0.5px;}.cls-11,.cls-12{stroke:#231f20;stroke-miterlimit:10;}</style></defs><title>man</title><path class="cls-1" d="M78.34,55.6h0v0Z"/><path class="cls-1" d="M94.21,92.44s0,0,0,0h0Z"/><path class="cls-1" d="M107.45,52h0v0Z"/><path class="cls-1" d="M107.05,52.24h0l0,0Z"/><path class="cls-1" d="M78.8,49.33c-.11-.33.18-1.19-.79-.74m-.38,1.47c1,.55.56,1.43.54,2.22-.09.63.31,1.18.29,1.8,0,.18,0,.36,0,.54v0c0,.34-.07.67-.11,1s0,.61,0,.92h0l0,0c0,1.16,1.19,1.84,1.13,3.19-.07,1.69.68,2.67,3.12,3a32.47,32.47,0,0,1-.83-6.26c-.43.53-.08,1.18-.36,1.73-.15-.67-.83-1.26-.19-2,.14-.17,0-.29-.3-.29-.71,0-1-.39-1-1.09a10.19,10.19,0,0,0,.12-2.2.23.23,0,0,1,.18-.31c.17,0,.34,0,.42.17s0,.45.39.35c-.15-1,.63-1.32,1.49-1.74a2.41,2.41,0,0,0-.25,1.41c.06,2,.14,3.94.12,5.9s.67,3.85,1,5.76.42,3.59.68,5.37A17.38,17.38,0,0,0,86.58,77c.21.32.45.58.11,1.07l-1.25-1.9a6.14,6.14,0,0,0-.19,2c.08,1.72-.14,3.46.58,5.1a17.24,17.24,0,0,0,6.3,7.41c.73.5,1.71.81,2,1.8.49-.2.86.16,1.14.39,2.06,1.67,4.35,3,6.44,4.64.63.49,1,.54,1.64,0A7.89,7.89,0,0,1,106,96.06a14.53,14.53,0,0,0,5.3-2.79c.15-.13.33-.36.5-.2s0,.41-.19.56a16.44,16.44,0,0,1-5.54,3.09c-.48.15-.94.38-1.41.57-.18.07-.42.06-.36.37s.18.24.35.31a5,5,0,0,1,2.18,1.55,73.66,73.66,0,0,0,6.22,7.33c.57.55.71.57,1.23,0a46.72,46.72,0,0,1,4.09-4.69,1.19,1.19,0,0,0,.47-.86c.06-2.64.57-5.26.39-7.93-.12-1.73.06-3.46.11-5.19a21.92,21.92,0,0,0-.6-6.34c-.44,1.39-.28,2.91-1.17,4.17s-1.53,2.42-2.4,3.56c-2.16,2.88-2.19,2.87-2.91,2.8.83-1,1.69-2,2.43-3.1,1.49-2.17,3.19-4.26,3.13-7.13,0-.53.08-1.07.11-1.61a62,62,0,0,0,.07-6.44c-.27.51-.42.79-.58,1.07a69.31,69.31,0,0,1-4.3,7c-.77,1-2,1.58-2.51,2.79l-3.22,2.45c-2.48,1.88-5.28,1.72-8.09,1.11-.53-.12-1.31-.15-1.64-.83-.15-.08-.44-.1-.19-.35s.36-.13.4.16c.57.07,1.15.12,1.72.2a11.79,11.79,0,0,0,4.95-.24,12.82,12.82,0,0,0,5.53-3.89,40.52,40.52,0,0,0,6-7.29c1.2-2.1,2.57-4.13,2.69-6.66a22.55,22.55,0,0,1,.35-2.83c.23-1.35.27-2.73.39-4.1-.59.93-.77,2-1.31,2.7a1.59,1.59,0,0,0-.06-1.52c0-.11,0-.2-.18-.21h0a9,9,0,0,1,.59-1.35,12.89,12.89,0,0,0,1.92-8,15.1,15.1,0,0,0-.3-2.42c-.23-.95-.35-1.93-.52-2.9a20,20,0,0,0,2.08-2s.93-10,.78-11.54.2-4.95-3.4-6.95-7.84-4-13.71-3.81-14,.91-16.53,3.28a15.34,15.34,0,0,0-3.51,5l-.61.46c-2.29,5.19-2.85,7.66-2.8,10a4.2,4.2,0,0,1-.3-.38c-.16-.22-.06-.85-.6-.54a.8.8,0,0,0-.4,1,2.83,2.83,0,0,1-.33,2.79c0,.3,0,.61-.07.91s.27.54.41.8a2.71,2.71,0,0,1,1.1,1.71A1,1,0,0,1,81,50.87a.33.33,0,0,1-.58-.27c.81-2.32,1-2.82.61-3.74-.15-.4-2,.17-1.9-.28-.76.27-1.05.71-.55,1.47m1.21,11.22a.19.19,0,0,1-.15.07.43.43,0,0,1-.17-.09c.05-.19.13-.23.21-.17S79.9,59.15,79.81,59.27Zm.14-8.5c0-.05,0-.1,0-.14l.11,0ZM110.67,85c.19-.1.38-.37.58-.16s-.1.4-.21.48c-1,.69-.72,2.06-1.54,2.84-.46.43-.88.92-1.31,1.38h0c-.31-.34,0-.54.22-.72a1.54,1.54,0,0,0,.59-.87c-.51-.06-.7.55-1.22.46A26.61,26.61,0,0,0,110.67,85Zm-2.5,4.55c-.53.22-.79.76-1.3,1C107.2,90.06,107.34,89.36,108.17,89.52Zm.25,2.37a44.77,44.77,0,0,1-3,3.37.52.52,0,0,1-.7.13C106.16,94.36,107.17,92.88,108.42,91.89Zm-3.68,3.5v.07l0,0ZM95.79,63.62a.45.45,0,0,1,.33-.37A1.87,1.87,0,0,0,95.79,63.62Zm.12,3c.52.36.38-.27.57-.4.6-.41,2.22.36,2.87,1.49a5.91,5.91,0,0,0-2.65-.48A1.82,1.82,0,0,1,94.9,66a1.26,1.26,0,0,1,.58-1.63c-.09.41-.08.84-.13,1.24A1.05,1.05,0,0,0,95.91,66.58Zm8.38.09c.31.08.55.23.59.46s-.33.4-.5.37a2.54,2.54,0,0,0-2.3,1c-.1.1-.31.06-.47.09C102.3,67.62,102.7,66.25,104.29,66.67ZM81.57,47.21a6,6,0,0,1-.49-.64c-.45-.85-.33-1,.63-1a.72.72,0,0,0,.42-.21c.05.87,0,1.77,0,2.52Zm2,17c-.06,0-.14-.11-.17-.19a.22.22,0,0,1,.12-.31c.16,0,.19.11.21.23S83.76,64.21,83.61,64.21ZM84.9,50.67a.88.88,0,0,0-.47-.37c-.49-.19-.47-.45-.09-.71a11.37,11.37,0,0,1,2.89-1.66,3.26,3.26,0,0,1,2,.15c1.52.45,3.09.1,4.62.51a8.1,8.1,0,0,0,1.93.59c.84,0,1.14.44,1.67,1l.25-.87h.15l.09.8c.38,0,.22-.38.48-.45.38.55-.53,1-.07,1.61l.26-.19a.6.6,0,0,1-.08.08c-.38.47-.69,1-1.27.15a1.05,1.05,0,0,0-1.38-.22,1.39,1.39,0,0,1-1.61-.06A2.57,2.57,0,0,0,93,50.79a18.12,18.12,0,0,1-2.5-.48c-1.52-.27-3.22-.5-4.63.48C85.34,51.13,85.16,51.31,84.9,50.67Zm.87,18.7,1.08,3.32A4.12,4.12,0,0,1,85.77,69.37ZM87,53.56l-.45-.22h0c.88-.25,1.15-1.25,2-1.59a5.23,5.23,0,0,1,3.2-.1,6.84,6.84,0,0,0-2.38.31,4.38,4.38,0,0,0-2.11,1.48c-.1.1,0,.24.21.22.94-.21,1.36-1.22,2.33-1.45a4.55,4.55,0,0,1,3.8.31.94.94,0,0,0,.84,0,1.65,1.65,0,0,0-1.19-.68c.91,0,2.06.23,2.23.94s1,1.08,1.22,1.89a8.49,8.49,0,0,0-3.08.29s-.09-.13-.14-.2c-1,0-2.09.28-2.93-.58-.74-.39-.21-1-.22-1.71-.72.53-1.53.61-2,1.29l.61.55-1.6-.18L87,53.9C87,53.79,87.1,53.68,87,53.56ZM88.6,67.82c-.19.52-.38,1.05-.58,1.62C87.69,68.53,87.88,68.05,88.6,67.82ZM95.21,87a50.41,50.41,0,0,1-7-7,7.3,7.3,0,0,1-.64-.9c-.13-.21-.45-.5-.24-.67s.57,0,.82.3A74.67,74.67,0,0,0,95.41,86c.51.45,1.19.75,1.52,1.52A2,2,0,0,1,95.21,87Zm0-13.78a5,5,0,0,0-1.31-.88,0,0,0,0,0,0,0,2.44,2.44,0,0,0-1.26-1c-1.11-.37-2-1.38-3.31-1.15.34-.56.39-.64.94-.34,1.44.79,3.15.85,4.56,1.72-.12.32-.6-.13-.66.24s.3.4.49.58a14.32,14.32,0,0,0,3.87,2.35A11.08,11.08,0,0,1,95.21,73.18ZM100,77.5c.64-.06,1.29,0,1.93-.06s1.3-.15,2-.23c-.77.81-4.19.71-5.67-.06C98.9,77,99.38,77.57,100,77.5Zm-.58,2.81c1.68-.25,3.18-.87,4.82.06C102.63,80.57,101.13,80.23,99.44,80.31ZM107.72,73c-2.28,1.63-4.55,2.67-7.51,2.1-.31-.06-.6-.14-.9-.21h0c1.41-.25,2.85,0,4.26-.18s2.82-.61,3.45-2.15c-.08,0-.12,0-.14-.08l-.57,0-.22,0-1.47.08a7.78,7.78,0,0,1-4,0l-1-.13h0l-1.09-.09c-.19,0-.39,0-.54-.13-.77-.14-1.62.08-2.41-.51,1-.34,1.8.12,2.64.2,4,.38,8,.73,11.75-1.14a1.48,1.48,0,0,1,1.68.12C109.85,70.87,108.88,72.15,107.72,73Zm-1-7.78a1.64,1.64,0,0,1-.88,1.73c.9-1.17.63-2.42-.34-3.58-.1-.11-.35-.13-.13-.33s.24-.21.43-.07A2.86,2.86,0,0,1,106.75,65.2Zm-.1-9.9c.79.12,1.63.13,2.12.9Zm-1.26,11.83s0,.05,0,.08l-.17.05s0-.05,0-.08Zm7.29,4.2c.15-.77.16-1.56.3-2.33C113.23,69.81,113.44,70.61,112.68,71.33Zm2-17.63c-.81-.11-1.23.77-2,.74a.45.45,0,0,1,.34-.51c1.2-.27.71-.73.15-1.2-.77-.36-1.16-.19-1.1.74,0,.47,0,1-.72,1s-1.58.39-2.22-.36c0,.48-.37.4-.66.41s-.87,0-1.31,0c-.21,0-.59.16-.57-.15s-.33-.76.14-1A10.44,10.44,0,0,1,108.87,52c.24-.06.27-.14.1-.32a1.61,1.61,0,0,0-1.21.25l-.29.1c-.1.14-.18.31-.41.22a1.46,1.46,0,0,1-1.31,1c-.76.83-2.09,1.13-2.22,2.53a1.9,1.9,0,0,1,.68-2c.44-.33.37-1.14,1-1.38,1.57-.63,3.11-1.53,4.92-1a5.75,5.75,0,0,1,3.16,1.18c.64,0,.88.68,1.46.8C114.86,53.37,114.83,53.72,114.64,53.7Zm-.82-1.53c.52-.24.69.25,1,.45C114.3,52.87,114.22,52.18,113.82,52.17Zm1.15.72c-.15,0-.33-.08-.13-.26.14,0,.32-.09.35.15A.31.31,0,0,1,115,52.89Zm1,18.52-.3-.09.91-3.16C116.9,69.37,116.25,70.34,115.94,71.41Zm.82-21.54c.08.44.28.88-.09,1.15s-.6-.25-.91-.37a4.84,4.84,0,0,0-1.64-.45c-1.46-.05-3.08-.38-4.36.11-1.7.66-3.56.06-5.13,1-.17.1-.35.13-.46-.17s-.35-.65,0-.89a2.81,2.81,0,0,0,.7-.8c.25-.34.37-.69,1-.42.28.12,1.24-.56,1.5-.52,1,.16,1.78-.37,2.71-.21,1.15.2,2.27-.27,3.42-.38,1.7-.16,2.8.89,4,1.71.15.1.32.34.09.51S117.18,49.91,116.76,49.87Z"/><path class="cls-1" d="M16.68,48.64h-6l0,0,0,0c-.62.54-.52,1.28-.53,2,0,3.57-.06,7.14-.08,10.7a1.48,1.48,0,0,0,0,.86c0,1.2,0,2.41,0,3.61,0,.35,0,.7,0,1,0,1,.85,1.3,1.28,1.94a8.32,8.32,0,0,0,.89.94c-.54.15-.83.82-1.58.26-.22-.17-1,.48-.86,1.11a5.28,5.28,0,0,0,.57,1.79.93.93,0,0,0,1.34.4,4.64,4.64,0,0,0,1.82-1.12l0,0c.33,0,.63-.11.66.44a2.21,2.21,0,0,1-2.81,2.17,1.66,1.66,0,0,1-1.11-.63c-.71,2.22,1.2,2.29,2.2,3.12-.49.42-1.15.71-1.43,1.46.5-.08.56-.51.82-.72s.65-.54,1-.37a1,1,0,0,1,.32,1.2,1.9,1.9,0,0,1-2.24,1.22c-.83-.29-.79.07-.78.67.05,2.18.05,4.36.06,6.53,0,1.38.13,1.51,1.49,1.52q9.69,0,19.39.06c2.21,0,2.21,0,2.22-2.17,0-1.65,0-3.3,0-5.05A1.17,1.17,0,0,1,33.9,83c0,2,0,4.08,0,6.12a14.77,14.77,0,0,1-.45,3.11,2.68,2.68,0,0,1-2.4,2c-.83.14-1.68.16-2.52.23a.51.51,0,0,0-.61,0l-6.15,0a.38.38,0,0,0-.45,0l-.4,0a1.4,1.4,0,0,0-.86,0l-2.23,0h-.24l-2,0a4.19,4.19,0,0,0-1.5,0c-.8,0-1.6-.08-2.4,0a2.25,2.25,0,0,1-1.95-.69A8.67,8.67,0,0,1,9,89.38c0-2.85,0-5.71,0-8.56a1.87,1.87,0,0,1,.22-1.2,4,4,0,0,1-3.43-2c-.31,1.14-.56,1.48-.94,1.5.09.36.42.41.8.4.22,0,.54-.07.59.24a.61.61,0,0,1-.44.62c-.45.18-.92.32-1.61.55a2.43,2.43,0,0,0,2.49-.49c.24-.23.39-.71.87-.3s-.05.56-.2.79c-.41.63-.33.87.4.9.09,0,.17-.14.24,0a7.32,7.32,0,0,1,0,3.45,2,2,0,0,1-1.62,2,.86.86,0,0,0-.56.67c0,.07-.13.16-.11.2s.19.11.29,0c.74-.42,1.68-.4,2.35-1.29,0,1.17,0,2.11,0,3a5.67,5.67,0,0,0,1,3.71,2.59,2.59,0,0,0,2.8,1.73c2.48-.07,5-.13,7.42-.28.67,0,.68.16.62.68a12.25,12.25,0,0,0,1,6.31,1,1,0,0,0,.23.31,1.87,1.87,0,0,0,.32.16,3.88,3.88,0,0,0-.24-1.68,5.92,5.92,0,0,1,.08-4.4c0-.07.09-.13.09-.19,0-1.65,1.08-1.21,2-1.06a18.63,18.63,0,0,0,3.95-.2A6.86,6.86,0,0,0,30.51,95a7,7,0,0,0,1.76-.47c.22-.15.45-.47.67-.19s-.1.48-.23.72A30,30,0,0,0,31,98.49a33.67,33.67,0,0,1-2.12,4.56,2.24,2.24,0,0,1-.42.54c-.3.32-1,.72.08.94.22,0,.12.29.13.44a20.18,20.18,0,0,1-.74,6,11.09,11.09,0,0,0-.46,2.6c-.15,4.28-1,8.49-1.18,12.75-.19,3.94-.49,7.88.42,11.85C27.86,143.39,29,148.62,28.9,154c0,1.46.34,3-.16,4.4A12.17,12.17,0,0,1,26.07,163a37.71,37.71,0,0,1-8.73,6.27,3.23,3.23,0,0,0-1.59,1.87c-.1.34-.31.58-.61.15-1.63-2.3-3.94-3.94-5.79-6a11.85,11.85,0,0,1-2.69-5.77c-.87-4.4-.25-8.81.2-13.2a70.43,70.43,0,0,1,1-8.18c1-4.53,1.41-9.16,2.28-13.72a70.11,70.11,0,0,0,.73-9.3c.13-2.43-.72-4.78-.24-7.18.08-.39.13-.78.19-1.22.72.35,1,1.21,2.15,1-2.08-.77-1.79-2.7-2.47-4.09-.58-1.2-1.49-2.14-2.14-3.28A30.81,30.81,0,0,1,6,94.2c-.43-1.36-.69-2.75-1-4.13a7.61,7.61,0,0,0-.77-2.19C4,87.51,4.09,87,4,86.61s1.13-1.31-.38-1.2A2.36,2.36,0,0,1,3.52,85c-.67-2.62-.6-5.32-.92-8,0-.3.22-.62.22-.86,0-.73,1.49-.35.94-1.44a19.54,19.54,0,0,1-.59-2A4,4,0,0,1,3,69.8a7.11,7.11,0,0,1,3.19-2.43l1-.08.12.12c.07.13-.14.52.21.39a8.57,8.57,0,0,1,1.78-.55c.39-.06,0-.27-.16-.39-.17-4.79,0-9.58-.05-14.37,0-2.28,0-4.56,0-6.83A2.7,2.7,0,0,1,12,42.73q9.33.06,18.66.06c2,0,3.21,1.12,3.17,3.05-.2,8.3-.16,16.59,0,24.88a8,8,0,0,1-.32,3.52c-.4-.34-.24-.76-.24-1.12q0-11.67.06-23.35c0-.87-.34-1.15-1.15-1.1-.57,0-1.15,0-1.73,0l0,0,0,0H16.68Zm-.59,59.58.38-.12.27-.1a7.86,7.86,0,0,1-1.53,0c-.61-.13-.45.25-.48.54-.42.18-.84-.11-1.51,0a3.89,3.89,0,0,0,3.38.34ZM9,75.18c.43-1.25-.18-1.86-1.08-2.34-.23-.12-.43-.3-.66-.44s-.69-.51-1-.29.37.47.28.85c-.55.35-1.22.19-1.84.37.63,0,1.09.5,1.69.63-.57,0-.83.65-1.4.66C6.32,74.8,7.73,74.06,9,75.18ZM20.68,107c-1.64-.14-3.31,2.24-3.13,4.21A5,5,0,0,1,20.68,107Zm6.7-2.68c-1.67.05-4.93,1-5.37,1.58C23.75,105.4,25.53,105.3,27.38,104.35Zm-5.21-1.09a8.26,8.26,0,0,0,3.46.27A10.86,10.86,0,0,0,22.17,103.26ZM9.62,78.3a1.25,1.25,0,0,1,0-1.52c.18-.3.35-.39.63-.34a.24.24,0,0,1,.18.37.46.46,0,0,1-.69.19c-.61-.37-.71,0-.72.49A.79.79,0,0,0,9.62,78.3ZM6.35,74.92c-1.44.47-1.46.51-1.15,1.61ZM8,85c.17-.08.27-.2.22-.38s-.12-.18-.18-.18-.22.19-.25.35S7.88,85,8,85Z"/><path class="cls-1" d="M37.8,73.69c0,.92,0,1.84.07,2.75,0,.7-.33,1.07-.93,1s-.26-.63-.35-1a5.69,5.69,0,0,0-.11-.8c-.07.65-.36,1.36.12,1.93s.93,0,1.42-.14a5.26,5.26,0,0,0,.6,1.79,1.82,1.82,0,0,1-.11,1.74c-1.72,2.8-2.56,6-3.73,9a4.74,4.74,0,0,1-.57,1.12c.44-2.35,0-4.73.42-7.07a2.9,2.9,0,0,0-.45-2.26,7.65,7.65,0,0,1-1-4.18,6.5,6.5,0,0,1,1-4.16,2.91,2.91,0,0,1,3.68-1.18.68.68,0,0,1,.15.76,2.14,2.14,0,0,0-.13.19l-.11.21c-.26.1-.58.16-.44.61l.55-.36Z"/><path class="cls-1" d="M5.39,64.67c0-.2.12-.45,0-.59-1.23-2,0-4.32-.61-6.43-.17-.63.33-1.13.87-1.47s1.13,0,1.56.29A2.69,2.69,0,0,1,8.68,59c-.07,1.38-.17,2.77-.26,4.15,0,.1,0,.25,0,.3-1.2.94-.46,2-.14,3a2.07,2.07,0,0,1-2,.47A8.64,8.64,0,0,0,5.39,64.67Z"/><path class="cls-2" d="M6.21,66.86a2.07,2.07,0,0,0,2-.47.7.7,0,0,0,.89.47c.14.12.55.33.16.39a8.57,8.57,0,0,0-1.78.55c-.35.13-.14-.26-.21-.39.08-.07.13-.15,0-.22s-.08.07-.13.1l-1,.08A.55.55,0,0,0,6.21,66.86Z"/><path class="cls-2" d="M77.87,51.87c.17.17.41.08.58.26-.08.63,0,1.51,0,2.12-.23.08-.12-.2-.3-.26l-.3-.71"/><path class="cls-3" d="M37.84,73.71l-.55.36c-.14-.45.18-.51.44-.61A2.72,2.72,0,0,1,37.84,73.71Z"/><path class="cls-3" d="M37.84,73.25a2.14,2.14,0,0,1,.13-.19C38.07,73.23,37.84,73.16,37.84,73.25Z"/><path class="cls-1" d="M95,154.81c-.13-.35-.25-.7-.38-1-1.31-3.16-2.65-6.3-3.92-9.48-.7-1.74-1.26-3.55-1.94-5.3-1-2.7-2.14-5.38-3.25-8.05-1.33-3.18-2.2-6.54-3.64-9.64-1.3-2.79-.5-5.46-.41-8.17.09-2.43.24-4.89.56-7.31.41-3.17.14-6.35.48-9.77a31.83,31.83,0,0,1,3.14,5.33,25.45,25.45,0,0,0,3.88,5.8c.39.49.84.62,1.22-.13a7,7,0,0,1,2.66-2.52c1.42-.92,3.23-1.23,4.13-2.73.36.08.33.26.3.36a3.91,3.91,0,0,0,1.09,3.65,4.65,4.65,0,0,1,1.09,4.81,31.71,31.71,0,0,0-.91,7.95c-.07,4.35.15,8.71.09,13.06-.09,6-.15,12-.11,18.05a3,3,0,0,0,.18,1.3l0,.48a2.09,2.09,0,0,0-.09,1.66,4,4,0,0,0-.08,1.46,1.69,1.69,0,0,0-.29,1.36c.27,1.57-.28,3.11,0,4.79a4.12,4.12,0,0,1-1.63-1.39,1.06,1.06,0,0,0-.6-.72c.19-.67-.33-1.07-.58-1.56a1.17,1.17,0,0,0-.49-.89C95.48,155.67,95.6,155.1,95,154.81Zm2.09-37.13c-1.06-1-2.47-1.25-3.68-1.93-2.19-1.24-4.44-2.33-7.09-1.76a.37.37,0,0,1-.44-.43c0-.3.26-.35.53-.31a4.08,4.08,0,0,1,1.71.6c1.37.88,3.09,1,4.51,1.88A15.21,15.21,0,0,0,97.1,117.68Z"/><path class="cls-1" d="M110.15,146.32l-.39-1.25v-1.9c-.59-3.85-.52-7.77-1.4-11.59a65.75,65.75,0,0,1-1.08-9.69c-.28-3.55-.83-7.06-1.17-10.6a13.7,13.7,0,0,0-.89-3.48,1.54,1.54,0,0,1,.06-1.19,17,17,0,0,0,1.58-6.24,8.11,8.11,0,0,1,1.47,2.07c1.47,2.16,3.6,3.72,5.18,5.78.32.44.73.48,1.09-.25,1-2,2.78-3.43,4.21-5.16.14,2.73.56,5.37.53,8.05s.66,5,1,7.57c.27,2.15.55,4.31.82,6.46.08.67.1,1.36.24,2,.68,3.21-.23,6.32-.62,9.45-.13,1-.18,2-.25,3a33,33,0,0,1-1,6.08,49.65,49.65,0,0,1-2,6.56,61.08,61.08,0,0,1-3.35,6.48,7.45,7.45,0,0,1-1.68,2.21c-.3.25-.66.51-1,.38s-.07-.54-.12-.83c-.66-3.73-.52-7.52-.66-11.28l-.39-1.54,0-.62C110.42,146.64,110.47,146.44,110.15,146.32Zm2-22.59c.88,1.71,1.48,3.61,3.1,4.81A19.49,19.49,0,0,0,112.11,123.73Zm4.91,5.43a10.71,10.71,0,0,0-2.23-5.07C115.56,125.77,116,127.6,117,129.16ZM109.53,123a6.9,6.9,0,0,0,3,4C111.51,125.69,110.51,124.39,109.53,123Z"/><path class="cls-1" d="M157.26,191.69c.41.38.82,0,1.1-.13a13.4,13.4,0,0,1,4.78-1.26c2.09-.22,4.2-.28,6.3-.42a5.4,5.4,0,0,1,2,.34,2,2,0,0,1,1.41,2.45c-.32,1.87-.46,3.78-.93,5.61-.59,2.33-.93,4.71-1.58,7-.11.38-.32.45-.66.45-4,0-8-.15-12,0-1.51,0-2-.26-2.41-1.8-.4-1.69-.82-3.39-1.22-5.09-.34-1.46-1.06-2.46-2.67-2.56-.23,0-.4,0-.43-.3a.86.86,0,0,1,.4-1,22.91,22.91,0,0,1,4.42-2.16,2.67,2.67,0,0,0,1.64-.92c.08-.13.09-.24-.1-.28Zm0,11.6a1.6,1.6,0,0,0-.49,1.56,4.63,4.63,0,0,0,.51-1.54c.33-.18.37-.52.44-.86C157.37,202.64,157.35,203,157.27,203.29Zm-2-3.49,1.43-2.45A3.88,3.88,0,0,0,155.24,199.8Zm.83,3.6c.7-.49.61-1.14.79-1.68A3.3,3.3,0,0,0,156.07,203.4Z"/><path class="cls-1" d="M157.28,191.67c-1.57.65-3.38.48-4.85,1.56-1,.75-1.68.39-1.78-.87-.24-3-.08-6.05-.11-9.07,0-.75-.34-1.48,0-2.25.18-.41.43-.79.85-.74,2.09.29,3.85-.86,5.78-1.27,4.7-1,9.34-1.46,13.88.78,1.65.81,3.45,1.31,5.16,2,1.16.49,1.2.77.45,1.75l-.92,1.19c-1,1.3-.46,2.71-.24,4.09.24,1.55.79,3.09.1,4.68-.49-.14-.46-.56-.54-.91a5.37,5.37,0,0,0-5.72-4.38,24,24,0,0,0-7.21,1,17,17,0,0,0-4.87,2.4ZM155,182.24a.83.83,0,0,1-.22.2c-.21.09-.62,0-.51.42s.39.19.6.2a6.25,6.25,0,0,0,1.62-.06,34.64,34.64,0,0,1,5.91-.85c.34,0,.76.09,1.05-.49a33.14,33.14,0,0,0-5.78.51c-.09,0-.22,0-.27-.1s.05-.15.13-.18c.3-.12.61-.22.91-.33l.55-.2,0,0,0,0a10.6,10.6,0,0,0,1.88-.69c.28-.07.74,0,.66-.44s-.51-.22-.78-.19a43.75,43.75,0,0,0-8,1.79c-.18.06-.43,0-.38.34s.32.3.55.26c.49-.09,1-.21,1.48-.33Zm1.73,6.74-.49-.71c.32-.44.08-.73-.3-.86-.55-.19-1.13-.47-1.68.07a2.77,2.77,0,0,0-.51,2.54,2.9,2.9,0,0,0,2.42,1,1.69,1.69,0,0,0,1.18-1.27C157.41,189.23,157,189.1,156.68,189Z"/><path class="cls-1" d="M94.19,92.42c.44,1,1.48,1.23,2.21,1.85,1.53,1.28,3.39,2.13,4.94,3.56a5,5,0,0,0-3.11,2.37c-.62,1-1.83,1.34-2.72,2-1.84,1.43-4.22,2.16-5.52,4.44a25.89,25.89,0,0,1-3.6-5.54,22.61,22.61,0,0,0-3.47-5.4,1.81,1.81,0,0,1-.43-1.28A100.92,100.92,0,0,1,83.65,84c.19-1.47.55-2.91.85-4.45.71.51.32,1.19.39,1.71A13.17,13.17,0,0,0,89,88.59c1.41,1.45,3.15,2.49,4.69,3.79a.45.45,0,0,0,.56.06Z"/><path class="cls-1" d="M124.24,53.09a10.38,10.38,0,0,1,0,3.85c-.13.69-.57,1.2-.74,1.85a16.5,16.5,0,0,0-.59,1.93c-.21,1.5-1.54,1.77-2.56,2.38-.08-.1-.16-.15-.15-.19a32.78,32.78,0,0,0,.72-8.08c0-.24.15-.35.21-.53h0a16.56,16.56,0,0,1,.26,5.22c.26-.06.35,0,.37-.08A18.14,18.14,0,0,0,123,54.8a1.08,1.08,0,0,0-.17-.68,2.78,2.78,0,0,1,.26-3.25l.71,1.86c.08.21.09.49.44.37Z"/><path class="cls-1" d="M22.48,176.37a16.94,16.94,0,0,0-4.57,2.31c-.33.22-.58.68-1,.48s-.2-.72-.23-1.1a17.94,17.94,0,0,0-.28-3.22c-.68-2.53.39-4,2.61-5a21.08,21.08,0,0,0,6.91-5.18,17.46,17.46,0,0,0,4.18-6.52c.21-.6.12-1.28.57-1.91a6.62,6.62,0,0,1,.46,1.92,60.48,60.48,0,0,0,.86,9.69,1.45,1.45,0,0,1-.36,1.11,21.72,21.72,0,0,1-6.29,5.55,12.29,12.29,0,0,0-2.83,1.84Zm3.16-9.69c.33-.47,1-.69,1.12-1.33a6,6,0,0,0-1.21,1c-.13.13-.28.33.09.38-.24-.17-.24-.17-.67.15Zm-6.24,7.18c0-.23.28-.46-.2-.6a1.37,1.37,0,0,0-1.57.25c-1.08,1.18-.61,2.54,1,3,.68.19,1.07,0,1-.75C20.41,174.48,20.39,174.31,19.4,173.86ZM31,161.66c-.1.2-.15.39.05.56C31,162,31.12,161.84,31,161.66Z"/><path class="cls-1" d="M12.22,178c-2.12-3.46-4.85-6.47-4.36-10.94a9.5,9.5,0,0,0,1.66,2.27c.13.12.23.41.47.18s0-.32-.07-.45a31.31,31.31,0,0,1-3.62-6.2,10.69,10.69,0,0,1-1.55-5.79,4.62,4.62,0,0,1,.57-1.73c.22,1.46.42,2.73.6,4A12.58,12.58,0,0,0,9.18,166c1.21,1.37,2.54,2.61,3.83,3.9,1,.95.93,1.18.05,2.26a1.69,1.69,0,0,0-.33,1.12C12.68,174.79,12.91,176.33,12.22,178Z"/><path class="cls-1" d="M13.24,173.6c-.18-.35-.29-.66.18-.92.7-.38,1.36-.88,2.23-.55.07,0,.09.24.09.36a37.46,37.46,0,0,0,.29,5c.11.93-.43.84-1,.59a8.79,8.79,0,0,1-1.35-.86c-.66-.45-.83-.95-.1-1.49a5.08,5.08,0,0,1,.72-.81c.87-.62.23-.9-.24-1.26C13.8,173.4,13.52,173.6,13.24,173.6Z"/><path class="cls-1" d="M121.74,52.05c.23-.91.38-1.84.69-2.72a8.31,8.31,0,0,0,.59-2.55c0-.34.23-.78.5-.8.45,0,.68.48,1,.78a.54.54,0,0,1,.11.79A42.3,42.3,0,0,0,121.74,52.05Z"/><path class="cls-1" d="M13.41,72.15,12,72.82a1.1,1.1,0,0,1-1.6-.71,1.46,1.46,0,0,1,.23-1.82c.68-.61,1.16-.38,1.7.1l1,.94c.28.26.19.56.06.85Z"/><path class="cls-4" d="M106.58,151.87c-.33.42-.64.86-1,1.28a.72.72,0,0,1-1.15,0c-.38-.37-.11-.66.25-.89.6-.39.72-.85.21-1.42-.32-.36-.54-.75,0-1.11s.81,0,1.09.37.36.49.54.74C106,151.22,105.86,151.58,106.58,151.87Z"/><path class="cls-4" d="M99.13,154.58a4,4,0,0,1,.08-1.46c.34.36.68.72,1,1.1s.78.7,1.31.44.74-.15,1,.31-.15.63-.45.83a2.28,2.28,0,0,0-.33.36c-.17.25-.4-.07-.59.06A2.55,2.55,0,0,1,99.13,154.58Z"/><path class="cls-5" d="M102.79,173.14a12.32,12.32,0,0,1,.91,5.05c0,1.12,0,2.24,0,3.36a1.88,1.88,0,0,1-.39,1.07,63.44,63.44,0,0,0-.21-7.2,2,2,0,0,0-.27-1.08Z"/><path class="cls-4" d="M109.76,143.17v1.9c-.78-.83-1.58-1.65-2.32-2.52-.28-.33-1.09-.69-.27-1.24s.85.25,1.12.66c-.27.05-.54.11-.56.45a.43.43,0,0,0,.36.42c.36.11.55-.11.67-.41C109.09,142.68,109.18,143.26,109.76,143.17Z"/><path class="cls-6" d="M148.76,161.31c-.21,2.23.11,4.49-.45,6.69A15,15,0,0,1,148.76,161.31Z"/><path class="cls-4" d="M101.68,150.46c.22.34.43.69.66,1a.37.37,0,0,1-.11.6c-.21.14-.38.42-.71.28a2,2,0,0,1-.42-3l0,0A.8.8,0,0,0,101.68,150.46Z"/><path class="cls-7" d="M28.41,173.26A14.34,14.34,0,0,1,23,176.58c-.2.08-.38-.09-.54-.21h0c.17,0,.38,0,.49,0,1.71-1.23,3.73-1.9,5.47-3.06Z"/><path class="cls-1" d="M124.23,53.1c.15-1.47-.47-2.94.15-4.4.28,1.47.81,2.94-.14,4.39Z"/><path class="cls-4" d="M13.24,173.6c.28,0,.56-.2.86,0,.47.36,1.11.64.24,1.26a5.08,5.08,0,0,0-.72.81c-.5-.83-.47-.93.36-1.32a.48.48,0,0,0,.24-.27c0-.17-.14-.18-.26-.23S13.41,173.87,13.24,173.6Z"/><path class="cls-7" d="M159.31,176.36c0,.21.7-.11.33.32-.61.73-1.07,1.78-2.34,1.54l-.05-.05c.19-.65,1.08-.56,1.26-1.2h0a.73.73,0,0,0,.83-.63Z"/><path class="cls-4" d="M101.1,149.38c.11-.37.47-.46.72-.68.41-.37.6,0,.79.27.4.56-.07.66-.44.81-.22-.47-.6-.49-1-.36Z"/><path class="cls-4" d="M30.51,95a6.86,6.86,0,0,1-2.78.12Z"/><path class="cls-8" d="M99.3,151.46l0-.48a.8.8,0,0,1,1,.3c.1.12,0,.24-.15.33C99.75,151.9,99.53,151.63,99.3,151.46Z"/><path class="cls-8" d="M101.1,156.22c.19-.13.42.19.59-.06a.31.31,0,0,1,0,.1c-.07.34.43.67,0,1a.29.29,0,0,1-.36,0C100.85,157,101.17,156.58,101.1,156.22Z"/><path class="cls-8" d="M103.06,104a.45.45,0,0,1-.41.49.44.44,0,0,1-.46-.42c0-.26.17-.35.36-.4S103,103.81,103.06,104Z"/><path class="cls-8" d="M104.76,132a.42.42,0,0,1-.43-.35.41.41,0,0,1,.39-.48.43.43,0,0,1,.45.44C105.16,131.84,105,131.91,104.76,132Z"/><path class="cls-8" d="M104.88,120.66a.42.42,0,0,1-.33.43.41.41,0,0,1-.43-.33c-.06-.23.14-.36.33-.41S104.81,120.45,104.88,120.66Z"/><path class="cls-8" d="M103.69,158.66c0,.22-.18.42-.39.37a.62.62,0,0,1-.41-.39c0-.23.18-.33.39-.34A.38.38,0,0,1,103.69,158.66Z"/><path class="cls-8" d="M102.85,114.81c.2.06.39.18.34.41a.36.36,0,0,1-.43.32.38.38,0,0,1-.3-.36A.36.36,0,0,1,102.85,114.81Z"/><path class="cls-8" d="M105.14,128a.45.45,0,0,1-.43.48.43.43,0,0,1-.42-.37.4.4,0,0,1,.33-.45C104.89,127.56,105.05,127.73,105.14,128Z"/><path class="cls-8" d="M103.67,162.12c0,.26-.15.43-.37.43s-.42-.17-.4-.36a.56.56,0,0,1,.37-.39C103.47,161.75,103.58,162,103.67,162.12Z"/><path class="cls-8" d="M103.21,111.6c-.11.25-.18.44-.44.41a.38.38,0,0,1-.34-.42.34.34,0,0,1,.41-.32A.44.44,0,0,1,103.21,111.6Z"/><path class="cls-8" d="M106.11,100.41c-.09.21-.24.35-.47.25s-.31-.21-.25-.38.19-.39.43-.32A.37.37,0,0,1,106.11,100.41Z"/><path class="cls-8" d="M104.75,135.51c-.19-.06-.4-.14-.39-.38a.38.38,0,0,1,.38-.39.39.39,0,0,1,.4.38C105.17,135.37,104.92,135.41,104.75,135.51Z"/><path class="cls-8" d="M106.87,144.51c-.07-.18-.21-.1-.33-.1a.38.38,0,0,1-.43-.44.33.33,0,0,1,.43-.32.35.35,0,0,1,.22.56c-.06.12-.1.25.09.31Z"/><path class="cls-8" d="M101.25,102.44c-.13.21-.25.44-.53.34s-.46-.23-.33-.51.22-.46.51-.35A.47.47,0,0,1,101.25,102.44Z"/><path class="cls-8" d="M101.76,135.17c-.07.19-.21.37-.42.33s-.4-.14-.36-.4a.4.4,0,0,1,.42-.36C101.66,134.75,101.7,135,101.76,135.17Z"/><path class="cls-8" d="M106.25,137.1a.43.43,0,0,1-.36-.42.38.38,0,0,1,.41-.34.34.34,0,0,1,.34.39C106.61,136.93,106.5,137.11,106.25,137.1Z"/><path class="cls-8" d="M103.14,118.66a.35.35,0,0,1-.34.4.33.33,0,0,1-.37-.27.37.37,0,0,1,.28-.45C103,118.28,103.05,118.48,103.14,118.66Z"/><path class="cls-8" d="M106.58,151.87c-.72-.29-.57-.65-.08-1C107,151.14,107.15,151.47,106.58,151.87Z"/><path class="cls-8" d="M104.16,101.91c.21,0,.39.11.42.36a.41.41,0,0,1-.36.5c-.31,0-.39-.24-.4-.45A.36.36,0,0,1,104.16,101.91Z"/><path class="cls-8" d="M103,136.32c.21.06.41.14.39.39a.38.38,0,0,1-.37.39c-.25,0-.34-.22-.36-.39S102.74,136.36,103,136.32Z"/><path class="cls-8" d="M101,131.55a.42.42,0,0,1,.43-.34.36.36,0,0,1,.32.43c0,.18-.16.33-.35.3S101,131.82,101,131.55Z"/><path class="cls-8" d="M108.46,161a.34.34,0,0,1-.41-.33.33.33,0,0,1,.34-.39.36.36,0,0,1,.42.31A.37.37,0,0,1,108.46,161Z"/><path class="cls-8" d="M106.62,158.29c.25,0,.42.1.42.37a.38.38,0,0,1-.39.38c-.22,0-.29-.17-.31-.32S106.39,158.32,106.62,158.29Z"/><path class="cls-5" d="M101.14,149.42c.43-.13.81-.11,1,.36l-.49.68A.8.8,0,0,1,101.14,149.42Z"/><path class="cls-8" d="M103.18,151a.36.36,0,0,1,.33.39c0,.16-.1.41-.35.38a.4.4,0,0,1-.38-.39C102.77,151.11,102.94,151,103.18,151Z"/><path class="cls-8" d="M106.6,162.56a.36.36,0,0,1-.3-.42c0-.16.12-.4.39-.33s.36.17.34.41S106.81,162.52,106.6,162.56Z"/><path class="cls-8" d="M106.69,129.62a.36.36,0,0,1-.4.34c-.16,0-.41-.11-.38-.37a.4.4,0,0,1,.4-.38C106.56,129.2,106.65,129.39,106.69,129.62Z"/><path class="cls-8" d="M106.89,140.4c0,.24-.13.42-.38.43s-.35-.16-.37-.39.15-.29.31-.31S106.85,140.18,106.89,140.4Z"/><path class="cls-5" d="M108.6,149.39c.21.41.14.78-.33.82s-.59-.46-.6-.89Z"/><path class="cls-8" d="M105.22,156.87c0,.17,0,.38-.3.42s-.36-.15-.39-.34a.33.33,0,0,1,.3-.43C105.06,156.5,105.22,156.59,105.22,156.87Z"/><path class="cls-8" d="M103.5,154.93a.42.42,0,0,1-.43.34c-.35,0-.32-.25-.31-.48a.3.3,0,0,1,.41-.29A.4.4,0,0,1,103.5,154.93Z"/><path class="cls-8" d="M104.52,117.53a.33.33,0,0,1-.33-.4.33.33,0,0,1,.42-.29c.16,0,.31.12.29.33S104.77,117.54,104.52,117.53Z"/><path class="cls-8" d="M108.23,153c.21.05.39.12.34.39a.31.31,0,0,1-.31.3.33.33,0,0,1-.39-.34C107.84,153.07,108.05,153.05,108.23,153Z"/><path class="cls-8" d="M103.47,144c-.1.22-.14.41-.37.37a.37.37,0,0,1-.33-.43.33.33,0,0,1,.42-.33C103.45,143.68,103.4,143.93,103.47,144Z"/><path class="cls-8" d="M104.67,109.69c0,.17-.1.33-.32.31a.34.34,0,0,1-.36-.39c0-.22.14-.29.33-.31S104.65,109.47,104.67,109.69Z"/><path class="cls-8" d="M105.45,160.53c0,.28-.1.48-.36.49a.37.37,0,0,1-.43-.32c-.06-.29.18-.33.35-.39S105.32,160.47,105.45,160.53Z"/><path class="cls-8" d="M101.1,105.73c.14.12.41.14.34.4a.4.4,0,0,1-.41.36.37.37,0,0,1-.34-.41C100.71,105.87,100.88,105.76,101.1,105.73Z"/><path class="cls-8" d="M102.1,100.3c.05-.2.11-.39.39-.35s.3.24.29.45a.31.31,0,0,1-.33.3C102.16,100.71,102.13,100.51,102.1,100.3Z"/><path class="cls-8" d="M101.22,120.31a.34.34,0,0,1,.32.42c0,.22-.12.4-.36.4s-.37-.24-.36-.47A.35.35,0,0,1,101.22,120.31Z"/><path class="cls-8" d="M106.69,133.18c0,.22-.15.33-.37.32s-.39-.06-.41-.33.2-.33.39-.34S106.7,132.86,106.69,133.18Z"/><path class="cls-8" d="M104.73,139c-.23,0-.4-.08-.4-.35a.29.29,0,0,1,.31-.32c.21,0,.42,0,.46.29S104.93,139,104.73,139Z"/><path class="cls-2" d="M170.82,142.61c.26-.26.27-.84.84-.61.2.08.4.22.26.43C171.66,142.86,171.21,142.57,170.82,142.61Z"/><path class="cls-8" d="M101.93,153.19c0,.39-.14.51-.39.5s-.32-.17-.33-.39.16-.27.33-.27S101.93,153.07,101.93,153.19Z"/><path class="cls-8" d="M110,151.33c0,.19-.06.35-.25.38s-.29-.21-.29-.38,0-.34.27-.31S110.06,151.14,110,151.33Z"/><path class="cls-5" d="M108.76,142.43c-.12.3-.31.52-.67.41a.43.43,0,0,1-.36-.42c0-.34.29-.4.56-.45Z"/><path class="cls-8" d="M99.84,158.27c.5.08.52.27.48.48a.27.27,0,0,1-.34.27c-.26,0-.26-.25-.25-.45S99.86,158.28,99.84,158.27Z"/><path class="cls-8" d="M106.25,126.39c-.23,0-.4-.16-.39-.4a.4.4,0,0,1,.39-.39c.25,0,.35.23.36.4A.35.35,0,0,1,106.25,126.39Z"/><path class="cls-7" d="M29.29,172.7a1.73,1.73,0,0,1,1.05-1,2.52,2.52,0,0,1-1.07,1Z"/><path class="cls-2" d="M121.24,53.16c.48,0,.52.33.53.7,0,.52-.48.23-.66.43h0c.24-.35-.08-.68,0-1Z"/><path class="cls-7" d="M29.27,172.68c-.17.37-.39.65-.86.58l0,0c.29-.19.39-.66.86-.58Z"/><path class="cls-4" d="M14.07,94.36a4.19,4.19,0,0,1,1.5,0A3.05,3.05,0,0,1,14.07,94.36Z"/><path class="cls-4" d="M102.5,196.36c.44.4.33.86.12,1.33Z"/><path class="cls-4" d="M10,66.83c0-.35,0-.7,0-1C10,66.13,10,66.48,10,66.83Z"/><path class="cls-4" d="M10,62.17a1.48,1.48,0,0,1,0-.86Z"/><path class="cls-4" d="M27.94,94.45a.51.51,0,0,1,.61,0Z"/><path class="cls-5" d="M119.75,62.56c-.2-.22-.1-.42,0-.63A.46.46,0,0,1,119.75,62.56Z"/><path class="cls-4" d="M20.08,94.41a1.4,1.4,0,0,1,.86,0A1.33,1.33,0,0,1,20.08,94.41Z"/><path class="cls-4" d="M21.34,94.43a.38.38,0,0,1,.45,0A.45.45,0,0,1,21.34,94.43Z"/><polygon class="cls-4" points="78.36 56.52 78.4 56.53 78.37 56.55 78.36 56.52"/><path class="cls-7" d="M75.21,170.23c-.07.26-.27.27-.49.25Z"/><path class="cls-8" d="M121.1,53.28c-.14-.07-.2-.21-.08-.3s.19.06.22.18Z"/><path class="cls-9" d="M170.54,126.43a.3.3,0,0,1,.22.33C170.58,126.72,170.54,126.58,170.54,126.43Z"/><polygon class="cls-4" points="16.68 48.64 16.72 48.64 16.7 48.68 16.68 48.64"/><polygon class="cls-4" points="30.34 48.63 30.37 48.6 30.4 48.63 30.37 48.67 30.34 48.63"/><path class="cls-4" d="M17.61,94.43h0Z"/><path class="cls-4" d="M78.34,55.6v0Z"/><path class="cls-4" d="M78.45,54.62v0Z"/><polygon class="cls-4" points="10.58 48.65 10.61 48.62 10.64 48.65 10.61 48.69 10.58 48.65"/><path class="cls-3" d="M97.41,50.2l.25-.87h.15l.09.8c.38,0,.22-.38.48-.45.38.55-.53,1-.07,1.61l.84-.6-.06-.08a8.08,8.08,0,0,0-.6.57c-.38.47-.69,1-1.27.15a1.05,1.05,0,0,0-1.38-.22,1.39,1.39,0,0,1-1.61-.06A2.57,2.57,0,0,0,93,50.79a18.12,18.12,0,0,1-2.5-.48c-1.52-.27-3.22-.5-4.63.48-.49.34-.67.52-.93-.12a.88.88,0,0,0-.47-.37c-.49-.19-.47-.45-.09-.71a11.37,11.37,0,0,1,2.89-1.66,3.26,3.26,0,0,1,2,.15c1.52.45,3.09.1,4.62.51a8.1,8.1,0,0,0,1.93.59C96.58,49.15,96.88,49.62,97.41,50.2Z"/><path class="cls-3" d="M116.76,49.87c.08.44.28.88-.09,1.15s-.6-.25-.91-.37a4.84,4.84,0,0,0-1.64-.45c-1.46-.05-3.08-.38-4.36.11-1.7.66-3.56.06-5.13,1-.17.1-.35.13-.46-.17s-.35-.65,0-.89a2.81,2.81,0,0,0,.7-.8c.25-.34.37-.69,1-.42.28.12,1.24-.56,1.5-.52,1,.16,1.78-.37,2.71-.21,1.15.2,2.27-.27,3.42-.38,1.7-.16,2.8.89,4,1.71.15.1.32.34.09.51S117.18,49.91,116.76,49.87Z"/><path class="cls-3" d="M99.64,72.5l-1.09-.09c-.14-.22-.34-.17-.54-.13-.77-.14-1.62.08-2.41-.51,1-.34,1.8.12,2.64.2,4,.38,8,.73,11.75-1.14a1.48,1.48,0,0,1,1.68.12c-1.82-.08-2.79,1.2-4,2-2.28,1.63-4.55,2.67-7.51,2.1a12.93,12.93,0,0,1-5-1.9c-.46-.3-.8-.78-1.37-.9,0,.08.11,0,.07,0a2.44,2.44,0,0,0-1.26-1c-1.11-.37-2-1.38-3.31-1.15.34-.56.39-.64.94-.34,1.44.79,3.15.85,4.56,1.72-.12.32-.6-.13-.66.24s.3.4.49.58a15.48,15.48,0,0,0,4.17,2.49.85.85,0,0,0,.5.05c1.41-.25,2.85,0,4.26-.18s2.82-.61,3.45-2.15l.33-.19c-.21-.18-.35-.06-.47.11l-.57,0-.22,0-1.46.08a18.08,18.08,0,0,1-4,0l-1-.13Zm-5.59-.21-.06.06.07.07.06-.1Z"/><path class="cls-3" d="M90.54,54.22c-.74-.39-.21-1-.22-1.71-.72.53-1.53.61-2,1.29-.24.34-.64.3-1,.37l-.37-.27h0c.19,0,.45.06.51-.25v0c.94-.21,1.36-1.22,2.33-1.45a4.55,4.55,0,0,1,3.8.31.94.94,0,0,0,.84,0,1.65,1.65,0,0,0-1.19-.68c.91,0,2.06.23,2.23.94s1,1.08,1.22,1.89a8.49,8.49,0,0,0-3.08.29s-.09-.13-.15-.2c.19-.06.17-.18.1-.32.53-.06,1.31.35,1.53-.33s-.61-.74-1-1c0,0-.12,0-.23,0a3,3,0,0,1-.29,1.34c-.18-.09-.88.27-.38-.43a.33.33,0,0,0,0-.46c-.18-.14-.31,0-.44.12-.38.31-.8.59-1.22.1-.21-.24-.15-.8-.7-.57S90.6,53.89,90.54,54.22Z"/><path class="cls-3" d="M96.94,87.5A2,2,0,0,1,95.21,87a50.41,50.41,0,0,1-7-7,7.3,7.3,0,0,1-.64-.9c-.13-.21-.45-.5-.24-.67s.57,0,.82.3A74.67,74.67,0,0,0,95.41,86C95.92,86.43,96.6,86.73,96.94,87.5Z"/><path class="cls-3" d="M110.09,51.36a5.75,5.75,0,0,1,3.16,1.18l-.17.19c-.77-.36-1.16-.19-1.1.74,0,.47,0,1-.72,1,0-.59.61-1.1.24-1.74-.39.57-.8,1.19-1.61.83s.4-.57.14-.93c-1.26.07-1.31.15-1,1.48,0,.48-.37.4-.66.41s-.87,0-1.31,0c-.21,0-.59.16-.57-.15s-.33-.76.14-1A10.44,10.44,0,0,1,108.87,52c.24-.06.27-.14.1-.31ZM108.23,53c-.42.37-1.36.22-1.17,1,.13.57.8.31,1.12.2C108.93,54,108.07,53.47,108.23,53Z"/><path class="cls-2" d="M110.09,51.36l-1.12.33a1.57,1.57,0,0,0-1.21.24c-.13-.06-.29-.18-.31.1l0,0c-.21,0-.43-.11-.43.23l0,0c-.58.16-1.12.35-1.33,1-.76.83-2.09,1.13-2.22,2.53a1.9,1.9,0,0,1,.68-2c.44-.33.37-1.14,1-1.38C106.74,51.71,108.28,50.81,110.09,51.36Z"/><path class="cls-3" d="M99.35,67.67a5.91,5.91,0,0,0-2.65-.48A1.82,1.82,0,0,1,94.9,66a1.29,1.29,0,0,1,.79-1.76c.34-.13-.23-.67.43-1-.82.71-.67,1.55-.77,2.32a1.05,1.05,0,0,0,.56,1c.52.36.38-.27.57-.4C97.08,65.77,98.7,66.54,99.35,67.67Z"/><path class="cls-3" d="M108.2,89.53c-.34-.36,0-.56.21-.74a1.54,1.54,0,0,0,.59-.87c-.51-.06-.7.55-1.22.46a26.36,26.36,0,0,0,2.91-3.44l0,0c.19-.08.39-.37.59-.16s-.1.4-.21.48c-1,.69-.72,2.06-1.54,2.84-.46.43-.88.92-1.31,1.38Z"/><path class="cls-10" d="M109,54.06c-.32-1.33-.27-1.41,1-1.48.26.36-.94.57-.14.93s1.22-.26,1.61-.83c.37.64-.22,1.15-.24,1.74C110.48,54.52,109.68,54.81,109,54.06Z"/><path class="cls-3" d="M104,77.21c-.77.81-4.19.71-5.67-.06.59-.2,1.07.42,1.71.35s1.29,0,1.93-.06S103.25,77.29,104,77.21Z"/><path class="cls-10" d="M90.54,54.22c.06-.33-.21-.78.26-1s.49.33.7.57c.42.49.84.21,1.22-.1.13-.1.26-.26.44-.12a.33.33,0,0,1,0,.46c-.5.7.2.34.38.43h0c.07.14.09.26-.1.32C92.46,54.78,91.38,55.08,90.54,54.22Z"/><path class="cls-3" d="M105.87,66.93c.9-1.17.63-2.42-.34-3.58-.1-.11-.35-.13-.13-.33s.24-.21.43-.07a2.86,2.86,0,0,1,.92,2.25A1.64,1.64,0,0,1,105.87,66.93Z"/><path class="cls-3" d="M101.61,68.56c.69-.94,1.09-2.31,2.68-1.89.31.08.55.23.59.46s-.33.4-.5.37a2.54,2.54,0,0,0-2.3,1C102,68.57,101.77,68.53,101.61,68.56Z"/><path class="cls-3" d="M87,53.56l-.45-.22h0c.88-.25,1.15-1.25,2-1.59a5.23,5.23,0,0,1,3.2-.1,6.84,6.84,0,0,0-2.38.31,4.38,4.38,0,0,0-2.11,1.48c-.1.1,0,.24.21.22v0c-.13-.43-.32-.17-.49,0Z"/><path class="cls-3" d="M104.72,95.41c1.43-1,2.45-2.52,3.7-3.52a44.77,44.77,0,0,1-3,3.37.52.52,0,0,1-.7.13Z"/><path class="cls-3" d="M116.55,68.16c.35,1.21-.3,2.18-.61,3.25l-.3-.09Z"/><path class="cls-1" d="M81.05,50.87A7.76,7.76,0,0,1,80.7,48a2.75,2.75,0,0,1,1.1,1.71A1,1,0,0,1,81.05,50.87Z"/><path class="cls-2" d="M80.28,47.23c-.39-.16-.57-.53-.83-.81.11-.22.23-.43.34-.64.38,0,.66,0,.57.53C80.33,46.62,80.31,46.93,80.28,47.23Z"/><path class="cls-3" d="M113.25,52.54c.64,0,.88.68,1.46.8.15,0,.12.38-.07.36-.81-.11-1.23.77-2,.74a.45.45,0,0,1,.34-.51c1.2-.27.71-.73.15-1.2Z"/><path class="cls-3" d="M108.77,56.2l-2.12-.9C107.44,55.42,108.28,55.43,108.77,56.2Z"/><path class="cls-3" d="M81.57,47.21a.93.93,0,0,1,.15-.26c.31-.3.17-1.12.66-1s-.22.69,0,.94a1.57,1.57,0,0,1,.12,1.38C82.16,47.93,81.87,47.57,81.57,47.21Z"/><path class="cls-4" d="M100.7,72.63a18.08,18.08,0,0,0,4,0A7.82,7.82,0,0,1,100.7,72.63Z"/><path class="cls-3" d="M88.6,67.82,88,69.44C87.69,68.53,87.88,68.05,88.6,67.82Z"/><path class="cls-3" d="M113,69c.25.81.46,1.61-.3,2.33C112.83,70.56,112.84,69.77,113,69Z"/><path class="cls-3" d="M108.19,89.51c-.55.21-.81.77-1.32,1,.34-.46.47-1.18,1.32-1C108.2,89.53,108.19,89.51,108.19,89.51Z"/><path class="cls-2" d="M87.31,54.17c.35-.07.75,0,1-.37l.61.55Z"/><path class="cls-3" d="M105.75,53.21c.21-.64.75-.83,1.33-1A1.47,1.47,0,0,1,105.75,53.21Z"/><path class="cls-3" d="M114.85,52.61c-.55.3-.63-.43-1-.44.53-.25.69.26,1,.46Z"/><path class="cls-1" d="M85.11,39.44c-.3-.57.15-1,.27-1.51C86,38.55,85.4,39,85.11,39.44Z"/><path class="cls-4" d="M106.91,72.46c.12-.17.26-.29.47-.11l-.33.19C107,72.55,106.93,72.53,106.91,72.46Z"/><path class="cls-3" d="M97.72,87.68c-.15-.08-.45-.1-.2-.35s.37-.13.41.16Z"/><path class="cls-4" d="M98,72.28c.2,0,.4-.09.54.13C98.36,72.43,98.16,72.46,98,72.28Z"/><path class="cls-3" d="M118,63.64c-.35,0-.31.17-.19.35a.2.2,0,0,0,.34,0c.1-.16.08-.32-.18-.31Z"/><path class="cls-3" d="M114.82,52.63c.15,0,.34-.1.37.15a.31.31,0,0,1-.22.11c-.15,0-.35-.08-.12-.28Z"/><path class="cls-3" d="M83.56,63.71c.16,0,.19.11.21.23s0,.27-.16.27-.14-.11-.17-.19A.22.22,0,0,1,83.56,63.71Z"/><path class="cls-4" d="M106.12,72.51l.22,0Z"/><path class="cls-3" d="M105.22,67.18l.17-.05s0,.05,0,.08l-.17.05S105.24,67.21,105.22,67.18Z"/><path class="cls-4" d="M87,53.56l0,0,0,.29h0C87,53.79,87.1,53.68,87,53.56Z"/><path class="cls-3" d="M107.05,52.24c0-.34.22-.27.43-.23C107.38,52.16,107.29,52.36,107.05,52.24Z"/><path class="cls-3" d="M79.87,50.61l.15.06-.07.1-.06-.18Z"/><path class="cls-3" d="M79.49,59.26c.05-.2.13-.24.21-.17s.2.06.11.18a.19.19,0,0,1-.15.07A.68.68,0,0,1,79.49,59.26Z"/><path class="cls-4" d="M86.51,53.35h0Z"/><path class="cls-3" d="M107.45,52c0-.28.18-.16.31-.1Z"/><path class="cls-4" d="M99.64,72.5h0Z"/><polygon class="cls-3" points="104.74 95.39 104.75 95.46 104.72 95.41 104.74 95.39"/><path class="cls-3" d="M5.91,88.08a.86.86,0,0,1,.56-.67,2,2,0,0,0,1.62-2,7.32,7.32,0,0,0,0-3.45c-.07-.19-.15,0-.24,0-.73,0-.81-.27-.4-.9.15-.23.67-.38.2-.79s-.63.07-.87.3A2.43,2.43,0,0,1,4.25,81c.69-.23,1.16-.37,1.61-.55a.61.61,0,0,0,.44-.62c0-.31-.37-.24-.59-.24-.38,0-.71,0-.8-.4.38,0,.63-.36.94-1.5a4,4,0,0,0,3.43,2,1.87,1.87,0,0,0-.22,1.2c0,2.85,0,5.71,0,8.56a8.67,8.67,0,0,0,.68,4.24l-.3.16a5.67,5.67,0,0,1-1-3.71c0-.94,0-1.88,0-3-.67.89-1.61.87-2.35,1.29Z"/><path class="cls-3" d="M9,75.18c-1.23-1.12-2.64-.38-4-.56.57,0,.83-.64,1.4-.66-.6-.13-1.06-.59-1.69-.63.62-.18,1.29,0,1.84-.37.09-.38-.66-.54-.28-.85s.66.09,1,.29.43.32.66.44C8.78,73.32,9.39,73.93,9,75.18Z"/><path class="cls-3" d="M20.68,107a5,5,0,0,0-3.13,4.21C17.37,109.27,19,106.89,20.68,107Z"/><path class="cls-3" d="M27.38,104.35c-1.85,1-3.63,1.05-5.37,1.58C22.45,105.37,25.71,104.4,27.38,104.35Z"/><path class="cls-3" d="M22.17,103.26a10.86,10.86,0,0,1,3.46.27A8.26,8.26,0,0,1,22.17,103.26Z"/><path class="cls-3" d="M16.09,108.22a1.7,1.7,0,0,1-1.36.3c0-.29-.13-.67.48-.54a7.86,7.86,0,0,0,1.53,0l-.27.1Z"/><path class="cls-3" d="M9.62,78.3a.79.79,0,0,1-.57-.81c0-.52.11-.86.72-.49a.46.46,0,0,0,.69-.19.24.24,0,0,0-.18-.37c-.28,0-.45,0-.63.34A1.25,1.25,0,0,0,9.62,78.3Z"/><path class="cls-3" d="M6.35,74.92,5.2,76.53C4.89,75.43,4.91,75.39,6.35,74.92Z"/><path class="cls-3" d="M8,85c-.13,0-.24,0-.21-.21s.06-.33.25-.35.16.11.18.18S8.18,85,8,85Z"/><path class="cls-3" d="M6.09,88.31c-.1.08-.22.11-.29,0s.07-.13.11-.2Z"/><path class="cls-5" d="M7.18,67.29c.05,0,.12-.11.13-.1s.07.15,0,.22Z"/><path class="cls-3" d="M68.08,198.2a4.11,4.11,0,0,1,.43-1.84c.26-.61.62-1.21,1.46-1.14a1.49,1.49,0,0,1,1.44,1.41,3.9,3.9,0,0,1-1.26,3.47,1.35,1.35,0,0,1-2.06-1A6.56,6.56,0,0,1,68.08,198.2ZM70.27,196c-.21.1-.28.11-.32.16-.78.95-.35,2.22-.82,3.26,0,0,.07.19.13.2a.39.39,0,0,0,.42-.18A3.52,3.52,0,0,0,70.27,196Z"/><path class="cls-3" d="M52.5,202.59c-.86-1.76-.76-6.8.22-11C52.77,195.23,52.32,198.91,52.5,202.59Z"/><path class="cls-3" d="M73.94,178.92c.24-.28.28-.79.84-.65a36.24,36.24,0,0,1-1.39,8.12C73.1,183.87,74,181.43,73.94,178.92Z"/><path class="cls-3" d="M27.41,130.41c.61-1.64,2-2.59,3.31-3.58a12.89,12.89,0,0,1,3.4-2c0,.66-.49.69-.78.85a14.87,14.87,0,0,0-5.5,4.48.37.37,0,0,1-.42.2Z"/><path class="cls-3" d="M60.79,198.5c0-.68,0-1.36,0-2,0-.19,0-.45.24-.48s.31.22.33.42a27.85,27.85,0,0,1,0,4.38c0,.19,0,.45-.32.43s-.28-.29-.28-.47c0-.74,0-1.49,0-2.24Z"/><path class="cls-3" d="M59.26,199c-.45-.2-.57-.45-.58-.72,0-1.21-.07-2.42-.08-3.64,0-.2,0-.52.31-.54s.34.25.35.49Z"/><path class="cls-3" d="M63.6,204.1V199C64.3,200.09,64.33,203.4,63.6,204.1Z"/><path class="cls-3" d="M31.84,148.64a7.21,7.21,0,0,1,2.51,2.52,8.62,8.62,0,0,1-2.67-2.32Z"/><path class="cls-3" d="M31.68,148.84a17.72,17.72,0,0,1-2.42-2.08h0c1.19.17,1.8,1.13,2.59,1.87A1.56,1.56,0,0,0,31.68,148.84Z"/><path class="cls-3" d="M32,153.78a5.65,5.65,0,0,1,1.55,1.73A2.46,2.46,0,0,1,32,153.78Z"/><path class="cls-3" d="M74.8,176.67l-.66-.93a2.15,2.15,0,0,1,.1-1.15c.44.17.53.61.74,1C74.92,175.93,75,176.33,74.8,176.67Z"/><path class="cls-3" d="M32.36,153.05a2.71,2.71,0,0,1,1.69,1.45,5.26,5.26,0,0,1-1.87-1.3Z"/><path class="cls-3" d="M36.56,157.29l.25,2C36.1,158.51,36.09,157.92,36.56,157.29Z"/><path class="cls-3" d="M36.6,124.48,38,123l.18.16-1.34,1.52Z"/><path class="cls-3" d="M35.1,156.29a2.79,2.79,0,0,1,.59,1.88C35.14,157.78,35.14,157.78,35.1,156.29Z"/><path class="cls-3" d="M30.61,151.74a4.2,4.2,0,0,1,1.75,1.31l-.18.15a4.44,4.44,0,0,1-1.71-1.32Z"/><path class="cls-3" d="M41.53,120.61l.21.16c-.05,0-.12.08-.15.07a.14.14,0,0,1-.05-.24Z"/><path class="cls-3" d="M56.81,194.13h0Z"/><polygon class="cls-3" points="27.42 130.41 27.39 130.45 27.41 130.41 27.42 130.41"/><path class="cls-3" d="M140.51,140.05c-.55-.12-1,.21-1.6.19-.31,0-.41.18-.37.47,0,.1.06.19.07.29.27,1.69.27,1.66,2,1.69a12,12,0,0,0,3.94-.86c1.18-.4,2.33-.88,3.51-1.3.3-.1.75-.31.92.05s-.28.6-.53.71c-3,1.26-6,2.68-9.48,2-.76-.15-1.3-.53-1.29-1.42,0-.44-.12-.87-.15-1.31,0-.27-.07-.74,0-.77,1.08-.37.69-1.35.85-2a22.34,22.34,0,0,1,1.8-4.71,11.18,11.18,0,0,0,1.21-4c.13-1.46,1.13-2.66,1.67-4,.21-.54,1-.31,1.29.09a12.29,12.29,0,0,0,2,2.16c.2.17.37.63.82.37.2-.11.39,0,.34.21-.18.65.39.75.73,1.15.3-.95.06-1.91.54-2.92a8.41,8.41,0,0,1,.26,3.48,2.51,2.51,0,0,0,1.5,2.63,1.16,1.16,0,0,1,.73,1.46,1.1,1.1,0,0,0,.06,1.07.24.24,0,0,1,0,.35c-.86.33-.92,1.5-1.85,1.75a25.09,25.09,0,0,1-3.92,1.58C143.88,139,142.19,139.5,140.51,140.05Zm1.06-8.41c-.33.17-.19.47-.22.73v0a2.78,2.78,0,0,0-.42.69c-.36,1.29-1.91,2.25-1.11,3.89.1.2-.15.35-.34.43a1.09,1.09,0,0,0-.53,1.55c.2.41,1.09.21,1.27,0,.51-.57.81-.55,1.61-.44,1.15.16,2.41-.45,3.62-.76.27-.08.6-.23.25-.65a.32.32,0,0,1,.19-.49c.2-.06.47-.09.54.13.24.74.65.39,1.1.25,1.49-.46,2.06-1.66,2.63-2.94.37-.84.19-1.38-.59-1.73-.18-.08-.3-.47-.58-.21a.79.79,0,0,0-.22.53c0,.42.35.17.54.22s.38.16.33.41a.38.38,0,0,1-.55.27,1.31,1.31,0,0,1-.81-1.18c0-.43.35-.93-.17-1.29l0,0a1.73,1.73,0,0,0-.2-.77,9.43,9.43,0,0,0-4.19-4.05c-.29-.11-.41-.06-.59.26a7.09,7.09,0,0,0-1.23,4.08,1.65,1.65,0,0,0-.37,1.06Z"/><path class="cls-3" d="M150.17,126.92v4.18A4.19,4.19,0,0,1,150.17,126.92Z"/><path class="cls-5" d="M85,161.58l.72-.1,0,0c0,.29.25.61-.07.85-.78.59-.4,1.07.12,1.56.73.7,1.25,1.77,2.59,1.34a.61.61,0,0,1,.67.38c.15.34-.19.46-.4.61a1.76,1.76,0,0,1-2.46-.36c-.49-.51-.95-1.06-1.41-1.6s-.72-.52-1.1-.06-1.2.71-.67,1.46a11.17,11.17,0,0,0,1.62,1.68.85.85,0,0,0,1,0c.46-.26.73.06.91.38s-.21.5-.43.67a1.6,1.6,0,0,1-2.22-.13c-.45-.42-.86-.88-1.28-1.32-.13-.15-.26-.44-.4-.45-1.48,0-1.36-1.41-1.91-2.23-.21-.32-.3-.68,0-.93s.62.13.78.33c.74.9,1.22.17,1.78-.22s.51-.85,0-1.3a.71.71,0,0,1-.08-1.09c.47-.42.6.21.82.42.48.45.9.94,1.37,0Z"/><path class="cls-5" d="M90.51,158.8c0,.84.88,1.23,1.15,1.94a4.53,4.53,0,0,0-1.77,1.32c-.27.27-.91.5-.33,1s1.15.46,1.47-.16.87-1.23.79-2c.91,1.25.07,2.38-.07,3.61a27.42,27.42,0,0,0,.06,7,3.39,3.39,0,0,1,0,.71,30.19,30.19,0,0,1-.26-4.94c0-.78,0-1.56,0-2.35,0-.53-.2-.68-.76-.57-1.45.29-3.9-1.65-4.09-3.14-.11-.82.34-.47.69-.37.6,1.28.94,1.34,1.91.35.34-.35.92-.64.21-1.18a.9.9,0,0,0-1.46.24c-.17.26-.3.52-.64.57-.3-1.63.72-2.53,2.38-2.1.22.06.43.2.67.08Z"/><path class="cls-3" d="M87.68,187.94a5.24,5.24,0,0,1,2.57,1.29c1.86,1.18,4,2,5.55,3.61A13,13,0,0,1,98.48,196c.12.23.59.48.17.76s-.63-.1-.84-.36c-.49-.6-1-1.19-1.42-1.83-1.32-1.93-3.33-3-5.23-4.2A20.24,20.24,0,0,1,87.68,187.94Z"/><path class="cls-5" d="M90.72,158.19a2.87,2.87,0,0,1,1.06-2.31c.29-.21.55-.39.88,0s.16.57-.13.84a1.11,1.11,0,0,0-.08,1.7c.62.77,1.21,1.55,1.82,2.32.24.3.36.56,0,.87s-.58.1-.81-.19a16,16,0,0,1-2.12-2.59c-.13-.26-.26-.57-.63-.6Z"/><path class="cls-5" d="M86.63,139.92c.91,1.58,1.93,3.11,2,5.06.05,1.28,1,2.28,1.44,3.44a12.11,12.11,0,0,1,.66,2,25.62,25.62,0,0,1-2.42-5.07A33.82,33.82,0,0,0,86.63,139.92Z"/><path class="cls-3" d="M75.8,171.57a1.31,1.31,0,0,1,1.25,1.35,13.79,13.79,0,0,1-.07,2.13c0,.22,0,.52-.31.57s-.35-.19-.47-.34-.41-.61-.62-.92A18.63,18.63,0,0,0,75.8,171.57Z"/><path class="cls-3" d="M85,161.58h0c-.26.16-.45.17-.65-.14-.77-1.18-1.57-2.33-2.35-3.5-.11-.17-.18-.44,0-.54s.39.14.52.34Z"/><path class="cls-3" d="M85.76,161.51l0,0c-.86-1.52-2-2.86-2.43-4.65l2.31,3.58a4.48,4.48,0,0,1,.56.83C86.33,161.68,86.07,161.67,85.76,161.51Z"/><path class="cls-3" d="M80.6,173.53a23.93,23.93,0,0,1,.43,4.3c0,.2,0,.45-.22.51a.26.26,0,0,1-.32-.29C80.56,176.54,80.22,175,80.6,173.53Z"/><path class="cls-7" d="M75.8,171.57a18.63,18.63,0,0,1-.22,2.79l-.77-1a2,2,0,0,0,0-1.45A.92.92,0,0,1,75.8,171.57Z"/><path class="cls-3" d="M78.93,174.82a10.07,10.07,0,0,1,.23,3.09c0,.14,0,.28-.21.28s-.24-.08-.24-.13A9.06,9.06,0,0,1,78.93,174.82Z"/><path class="cls-3" d="M83,176a5.19,5.19,0,0,1,.19,2.79A4,4,0,0,1,83,176Z"/><path class="cls-3" d="M85.68,157.65a7.24,7.24,0,0,1,1.19,2.28A2.85,2.85,0,0,1,85.68,157.65Z"/><path class="cls-3" d="M74.79,172a2,2,0,0,1,0,1.45C74.35,172.92,74,172.45,74.79,172Z"/><path class="cls-5" d="M90.72,158.19l-.21.61h0l.2-.61Z"/><path class="cls-3" d="M108.9,180.57a2.27,2.27,0,0,1-1.32,2,2.46,2.46,0,0,1-2.67-.69,1.81,1.81,0,0,1-.46-1.2,2.24,2.24,0,0,0-.33-1.13c-.46-.55.27-.7.48-1,.43-.64.9-1.26,1.87-.93C108.3,178.23,108.92,178.85,108.9,180.57Zm-1.23-.55c-.08-.27.23-.76-.23-1s-.87.14-1.28.36c-.57.31-.43.86-.43,1.33s-.09,1.17.74,1.17,1-.49,1.19-1.13A3.21,3.21,0,0,0,107.67,180Z"/><path class="cls-3" d="M103.64,168.34a2.83,2.83,0,0,1,2.12-2.41,2.27,2.27,0,0,1,2.27,1.88,2.31,2.31,0,0,1-2.28,2.43A1.83,1.83,0,0,1,103.64,168.34Zm3.46-.34c0-.49.13-1.09-.69-1.07a2.13,2.13,0,0,0-1.79,1.92c0,.65.46.76,1,.77A1.46,1.46,0,0,0,107.1,168Z"/><path class="cls-3" d="M107.06,196a2.42,2.42,0,0,1-2.28-2.43c0-1.56.9-2.69,2-2.7a2.42,2.42,0,0,1,2.32,2.41C109.08,194.81,108.16,196,107.06,196Zm1.27-2.62c0-1-.32-1.63-.86-1.63s-2.07,2.17-1.88,2.57a2,2,0,0,0,1.23,1.24c.7.16.85-.51,1.2-.87S108.24,193.78,108.33,193.37Z"/><path class="cls-3" d="M134.18,196.94c-.72,2.27-2.19,3.83-3.08,5.85C130.78,201.6,132.9,197.49,134.18,196.94Z"/><path class="cls-3" d="M135.25,198.21a29.7,29.7,0,0,1-2,4.35c-.1.18-.31.65-.68.45s0-.51.12-.72c.52-1.3,1.51-2.35,1.94-3.7C134.71,198.33,134.94,198.42,135.25,198.21Z"/><path class="cls-3" d="M118.65,162.35a26,26,0,0,1,2.35-3.84C121.07,159.35,119.41,162.09,118.65,162.35Z"/><path class="cls-3" d="M121.57,161.15a7.22,7.22,0,0,1,2.08-2.8A5.92,5.92,0,0,1,121.57,161.15Z"/><path class="cls-3" d="M134.11,203.9a4.89,4.89,0,0,1,1.2-3A4.91,4.91,0,0,1,134.11,203.9Z"/><path class="cls-7" d="M120,158.59a8.39,8.39,0,0,1-2.47,2.92A10.81,10.81,0,0,1,120,158.59Z"/><path class="cls-5" d="M103,164.48c1.43.45,2.87,0,4.29.07C105.84,164.86,104.4,165.19,103,164.48Z"/><path class="cls-3" d="M151.14,157.39a7.63,7.63,0,0,0,1.44-2.16,4.79,4.79,0,0,1,2.34-2.21c-.75,1.73-2.27,3-2.88,5.15,1-.74,1.66-1.31,2.39-1.86.27-.2.63-.48.91-.23s0,.58-.24.86a28,28,0,0,0-2.84,4.53c-.13.29-.57.68.19.77a.25.25,0,0,1,.22.37c-.38.61-.32,1.45-1,1.92-.34-.32-.12-.61,0-.89s.16-.42-.06-.54c-1-.57-.45-1.28-.17-1.92a35.62,35.62,0,0,1,2.45-3.68,10.19,10.19,0,0,0-2.15,1.94c-.31.31-.65.63-1.05.36s-.16-.7-.09-1.05.59-.83.58-1.38Zm.77.78.06-.06s0,0-.06-.06l-.06.09Z"/><path class="cls-3" d="M167.2,131.51l-4.51,9.09c.15-2.46,1.46-4.47,2.53-6.6a12.91,12.91,0,0,0-2.94,2.27c-.19.23-.4.44-.62.66a.23.23,0,0,1-.35,0c-.1-.1-.19-.22-.1-.36,1.51-2.19,2.75-4.6,5-6.14-.65,1.4-1.89,2.41-2.52,3.86a23.66,23.66,0,0,0,3.3-2.87Z"/><path class="cls-3" d="M158.51,177c-.18.64-1.07.55-1.26,1.2-.79.07-1.61.17-1.05-1.12-.28.34-.55.7-.85,1a.51.51,0,0,1-.64.15c-.25-.12-.18-.31-.1-.51a13.84,13.84,0,0,1,3.86-5.55l-2.49,4c1.43-1,2.61-2.28,4.26-2.9a25.08,25.08,0,0,1-2.84,3.84C157.85,177.39,158.08,176.61,158.51,177Z"/><path class="cls-3" d="M163.75,150.77c1.46-2.3,3.63-3.89,5.41-5.59Z"/><path class="cls-3" d="M165.27,152.12c1.48-2,3.51-3.5,5.38-5.32C170.49,147.73,166.55,151.64,165.27,152.12Z"/><path class="cls-3" d="M151.16,157.37c-.36,0-.74-.07-.48-.6a20.67,20.67,0,0,1,4.16-6c-.49.79-1,1.57-1.46,2.37-.74,1.25-1.46,2.5-2.17,3.77a1.32,1.32,0,0,0-.07.5Z"/><path class="cls-4" d="M158.8,159.16a1.61,1.61,0,0,1,2-1.57c.33.07.48.23.48.54a.46.46,0,0,1-.49.52c-.45,0-.91,0-.91.67,0,.42.11,1-.62.88C158.86,160.16,158.76,159.93,158.8,159.16Z"/><path class="cls-4" d="M162.94,160.91c-.06,1.33-.86,2-2,1.66-.25-.07-.55-.08-.56-.47s.24-.44.53-.47c.53-.06.91-.25.89-.88,0-.47.12-.82.69-.75S162.89,160.59,162.94,160.91Z"/><path class="cls-3" d="M170.24,165.44a3.89,3.89,0,0,1-1.7.84.68.68,0,0,1-.46-.13c-.14-.1,0-.25.07-.34a11.65,11.65,0,0,1,3.19-2.25c-.5.47-1.05.9-1.51,1.4s.2.24.3.36Z"/><path class="cls-3" d="M154.25,174.56c-.31.91-.62,1.83-.94,2.75l-.32-.12a8.33,8.33,0,0,1,1.11-2.8Z"/><path class="cls-3" d="M154.1,174.39a3.38,3.38,0,0,1,1.23-1.64,5.48,5.48,0,0,1-1.08,1.81Z"/><path class="cls-3" d="M159.33,176.35a.73.73,0,0,1-.83.63C158.48,176.38,158.86,176.31,159.33,176.35Z"/><path class="cls-3" d="M166.36,130.18c0,.06.08.13.06.15s-.1.06-.16.09,0-.12,0-.16S166.31,130.21,166.36,130.18Z"/><path class="cls-3" d="M167,131.41l.15-.32c.16.14.09.28,0,.42Z"/><path class="cls-3" d="M127.93,134.69l-1.32-2.84A2.9,2.9,0,0,1,127.93,134.69Z"/><path class="cls-3" d="M126.45,135.74c-.94-.64-1-1.82-1.57-2.67a5.78,5.78,0,0,1,1.57,2.66Z"/><path class="cls-3" d="M123.66,86.94c.39.4,1,.6,1.34,1.3A3.43,3.43,0,0,1,123.66,86.94Z"/><path class="cls-3" d="M124.92,135.85a1.35,1.35,0,0,1,.61,1.31c-.45-.4-.73-.72-.72-1.22Z"/><path class="cls-3" d="M124.81,135.94c-.28-.05-.26-.25-.22-.45,0,0,.09-.06.14-.08l.19.44Z"/><polygon class="cls-3" points="126.45 135.73 126.48 135.76 126.45 135.74 126.45 135.73"/><path class="cls-3" d="M97.1,117.68a15.21,15.21,0,0,1-4.46-2c-1.42-.87-3.14-1-4.51-1.88a4.08,4.08,0,0,0-1.71-.6c-.27,0-.49,0-.53.31a.37.37,0,0,0,.44.43c2.65-.57,4.9.52,7.09,1.76C94.63,116.43,96,116.72,97.1,117.68Z"/><path class="cls-3" d="M73.31,133.27a21,21,0,0,1,1.21,5.56A13.67,13.67,0,0,1,73.31,133.27Z"/><path class="cls-3" d="M75.12,136.31a12,12,0,0,1-1.05-4.2A9.56,9.56,0,0,1,75.12,136.31Z"/><path class="cls-3" d="M76.41,135.44c-.8-1.16-.5-2.51-.66-3.79A8.31,8.31,0,0,1,76.41,135.44Z"/><path class="cls-4" d="M74.18,155.56a7.58,7.58,0,0,1-.35-3.77A10.46,10.46,0,0,1,74.18,155.56Z"/><path class="cls-3" d="M112.11,123.73a19.49,19.49,0,0,1,3.1,4.81C113.59,127.34,113,125.44,112.11,123.73Z"/><path class="cls-3" d="M117,129.16c-1.06-1.56-1.46-3.39-2.23-5.07A10.71,10.71,0,0,1,117,129.16Z"/><path class="cls-3" d="M109.53,123c1,1.35,2,2.65,3,4A6.9,6.9,0,0,1,109.53,123Z"/><path class="cls-3" d="M155.24,199.8a3.88,3.88,0,0,1,1.43-2.45Z"/><path class="cls-4" d="M156.07,203.4a3.3,3.3,0,0,1,.79-1.68C156.68,202.26,156.77,202.91,156.07,203.4Z"/><path class="cls-4" d="M157.29,203.31a4.63,4.63,0,0,1-.51,1.54,1.6,1.6,0,0,1,.49-1.56Z"/><path class="cls-4" d="M157.27,203.29c.08-.31.1-.65.46-.84-.07.34-.11.68-.44.86Z"/><path class="cls-3" d="M158.94,181.36l-.55.2a2.38,2.38,0,0,0-2.41.21,2.61,2.61,0,0,1-1.56.31c-.49.12-1,.24-1.48.33-.23,0-.5.09-.55-.26s.2-.28.38-.34a43.75,43.75,0,0,1,8-1.79c.27,0,.71-.15.78.19s-.38.37-.66.44a10.6,10.6,0,0,1-1.88.69l0,0Z"/><path class="cls-3" d="M156.68,189c.36.12.73.25.62.75a1.69,1.69,0,0,1-1.18,1.27,2.9,2.9,0,0,1-2.42-1,2.77,2.77,0,0,1,.51-2.54c.55-.54,1.13-.26,1.68-.07.38.13.62.42.3.86-.48-.36-.95-.46-1.21.22-.2.53-.4,1.16.23,1.53s.86-.14,1.12-.55C156.44,189.3,156.56,189.14,156.68,189Z"/><path class="cls-3" d="M157.62,182.17a33.14,33.14,0,0,1,5.78-.51c-.29.58-.71.47-1.05.49a34.64,34.64,0,0,0-5.91.85,6.25,6.25,0,0,1-1.62.06c-.21,0-.51.14-.6-.2s.3-.33.51-.42a.83.83,0,0,0,.22-.2C155.84,182.26,156.74,182.7,157.62,182.17Z"/><path class="cls-8" d="M156.68,189c-.12.16-.24.32-.35.49-.26.41-.58.87-1.12.55s-.43-1-.23-1.53c.26-.68.73-.58,1.21-.22Z"/><path class="cls-2" d="M157.62,182.17c-.88.53-1.78.09-2.67.07l-.53-.16a2.61,2.61,0,0,0,1.56-.31,2.38,2.38,0,0,1,2.41-.21c-.3.11-.61.21-.91.33-.08,0-.31,0-.13.18S157.53,182.14,157.62,182.17Z"/><polygon class="cls-4" points="158.94 181.36 158.96 181.32 159 181.34 158.98 181.38 158.94 181.36"/><path class="cls-3" d="M19.65,175.73c.06.77-.33.94-1,.75-1.62-.43-2.09-1.79-1-3a1.37,1.37,0,0,1,1.57-.25c.48.14.22.37.2.6-.76-.07-1.19.26-1.14,1S19,175.82,19.65,175.73Z"/><path class="cls-8" d="M19.65,175.73c-.68.09-1.34.09-1.39-.83s.38-1.11,1.14-1C20.39,174.31,20.41,174.48,19.65,175.73Z"/><path class="cls-3" d="M25.64,166.7c-.37-.06-.22-.26-.09-.39a6,6,0,0,1,1.21-1c-.15.64-.79.86-1.12,1.33Z"/><path class="cls-3" d="M25.64,166.68l-.67.16c.43-.32.43-.32.67-.15Z"/><path class="cls-3" d="M31,161.66c.16.18.07.37.05.56C30.81,162.05,30.86,161.86,31,161.66Z"/><path class="cls-3" d="M76.36,88.87a4.75,4.75,0,0,1-2.12,1.69A5.65,5.65,0,0,1,76.36,88.87Z"/><path class="cls-3" d="M74.57,88.17c.22.32.4-.07.61,0l.17.15a5.76,5.76,0,0,1-1.46,1.27c-.28-.8,1.06-.62.7-1.4Z"/><path class="cls-3" d="M75.18,88.13a5.24,5.24,0,0,1,1.32-1.29,2,2,0,0,1-1.15,1.44Z"/><path class="cls-3" d="M74.59,88.15l-.64,0a1.31,1.31,0,0,1,.89-.65l-.27.63Z"/><path class="cls-3" d="M75.1,87.24c.08-.13.11-.33.33-.28,0,0,.08,0,.08.06,0,.19-.15.26-.3.33A.57.57,0,0,0,75.1,87.24Z"/><path class="cls-3" d="M75.21,87.35c-.06.05-.16.16-.18.15-.18-.13,0-.19.07-.26A.57.57,0,0,1,75.21,87.35Z"/><path class="cls-3" d="M83.24,42.77l.34-1C84,42.31,83.68,42.52,83.24,42.77Z"/><path class="cls-3" d="M85.11,35.65c-.08.09-.16.25-.28.08s0-.22.15-.27Z"/><path class="cls-5" d="M94.05,72.29l.07,0-.06.1L94,72.35Z"/><path class="cls-1" d="M93.56,54.49a3,3,0,0,0,.29-1.34c.11,0,.19-.07.23,0,.4.3,1.21.41,1,1s-1,.27-1.53.33Z"/><path class="cls-2" d="M87,53.9l0-.29c.17-.13.36-.39.49,0C87.41,54,87.15,53.85,87,53.9Z"/><path class="cls-1" d="M108.23,53c-.16.44.7.94,0,1.22-.32.11-1,.37-1.12-.2C106.87,53.25,107.81,53.4,108.23,53Z"/><path class="cls-6" d="M70.27,196a3.52,3.52,0,0,1-.59,3.44.39.39,0,0,1-.42.18c-.06,0-.15-.16-.13-.2.47-1,0-2.31.82-3.26C70,196.06,70.06,196.05,70.27,196Z"/><path class="cls-7" d="M64.75,123.15c.11.09.32.18.15.34s-.28,0-.38-.15Z"/><path class="cls-4" d="M91.82,160.88c.08.81-.47,1.4-.79,2s-1,.61-1.47.16.06-.75.33-1a4.53,4.53,0,0,1,1.77-1.32Z"/><path class="cls-4" d="M87.47,160.82c.34,0,.47-.31.64-.57a.9.9,0,0,1,1.46-.24c.71.54.13.83-.21,1.18-1,1-1.31.93-1.91-.35Z"/><path class="cls-10" d="M107.67,180a3.21,3.21,0,0,1,0,.71c-.14.64-.45,1.12-1.19,1.13s-.75-.65-.74-1.17-.14-1,.43-1.33c.41-.22.78-.64,1.28-.36S107.59,179.75,107.67,180Z"/><path class="cls-10" d="M107.1,168a1.46,1.46,0,0,1-1.51,1.62c-.51,0-1-.12-1-.77a2.13,2.13,0,0,1,1.79-1.92C107.23,166.91,107.07,167.51,107.1,168Z"/><path class="cls-10" d="M108.33,193.37c-.09.41,0,.92-.31,1.31s-.5,1-1.2.87a2,2,0,0,1-1.23-1.24c-.19-.4,1.43-2.58,1.88-2.57S108.36,192.38,108.33,193.37Z"/><path class="cls-7" d="M151.91,158.17l-.06,0,.06-.09s.06,0,.06.06Z"/><path class="cls-3" d="M144.45,136.88c-.54.33-.89,1.36-1.78.49-.47-.47-.41-.75.27-.85.46,0,.43-.42.45-.64a15.57,15.57,0,0,0,.41-3.73c.13-.14.28,0,.42,0a8.63,8.63,0,0,1,.24,2.27c.16.27.31.55.46.83a5,5,0,0,0,1.59-2.12l.18-.22h0c.43,0,.62.09.35.59a10.68,10.68,0,0,0-1.44,2.41l0,0C144.92,135.88,144.81,136.51,144.45,136.88Z"/><path class="cls-3" d="M148.12,131.05l-.28.4c-.18.24-.41.26-.59.06a.48.48,0,0,1-.08-.45c.09-.21.27-.4.55-.2.13.1.22.25.42.21Z"/><path class="cls-3" d="M142.38,130.1c-.18-.34-.4-.7.16-.91a.45.45,0,0,1,.49.48A.54.54,0,0,1,142.38,130.1Z"/><path class="cls-10" d="M149.58,132.3c-.18-.08-.3-.47-.58-.21a.79.79,0,0,0-.22.53c0,.42.35.17.54.22s.38.16.33.41a.38.38,0,0,1-.55.27,1.31,1.31,0,0,1-.81-1.18c0-.42.34-.91-.15-1.27h0a1.73,1.73,0,0,0-.2-.77,9.43,9.43,0,0,0-4.19-4.05h0c-.29-.11-.41-.06-.59.26a7.09,7.09,0,0,0-1.23,4.08,1.65,1.65,0,0,0-.37,1.06c-.31.16-.19.46-.21.71a3,3,0,0,0-.41.68c-.36,1.29-1.91,2.25-1.11,3.89.1.2-.15.35-.34.43a1.09,1.09,0,0,0-.53,1.55c.2.41,1.09.21,1.27,0,.51-.57.81-.55,1.61-.44,1.15.16,2.41-.45,3.62-.76.27-.08.6-.23.25-.65a.32.32,0,0,1,.19-.49c.2-.06.47-.09.54.13.24.74.65.39,1.1.25,1.49-.46,2.06-1.66,2.63-2.94C150.54,133.19,150.36,132.65,149.58,132.3Zm-7-3.11a.45.45,0,0,1,.49.48.54.54,0,0,1-.65.43C142.2,129.76,142,129.4,142.54,129.19Zm3.05,6.7h0Zm1.43-2.41a11,11,0,0,0-1.43,2.39c-.67,0-.78.65-1.14,1-.54.33-.89,1.36-1.78.49-.47-.47-.41-.75.27-.85h0c.46,0,.43-.42.45-.64a15.57,15.57,0,0,0,.41-3.73c.13-.14.28,0,.43,0a9.12,9.12,0,0,1,.23,2.27c.16.27.31.55.46.83a5,5,0,0,0,1.59-2.12l-.16-.16.32-.05a.64.64,0,0,1,.08-.14.64.64,0,0,0-.08.14h0C147.1,132.9,147.29,133,147,133.48Zm.82-2c-.18.24-.41.26-.59.06a.48.48,0,0,1-.08-.45c.09-.21.27-.4.55-.2.12.09.21.23.39.21Z"/><path class="cls-5" d="M146.69,132.88l-.18.22c-.06,0-.11-.11-.16-.16Z"/><path class="cls-6" d="M152.75,198.25a3.78,3.78,0,0,0-.34-.74.82.82,0,0,0-.95-.56c-.63.09.07.45-.14.68a4.58,4.58,0,0,0-.43.79,11.64,11.64,0,0,1-3.07,2.91,4,4,0,0,1-2.08,1c-.25,0-.42,0-.5-.23s.13-.32.3-.41.56-.38.86-.52a1.73,1.73,0,0,0,1.08-2,16.75,16.75,0,0,1,0-2.65,6,6,0,0,1,.64-2.58,1.92,1.92,0,0,1,.07,1.28,20.44,20.44,0,0,0,0,3.67c0,.31.17.69.4.38.58-.78,1.49-1.34,1.41-2.58-.14-2.06-.19-4.14-.22-6.21-.05-3.16-.47-6.28-.72-9.42-.23-2.74-1-5.41-1-8.18a11.24,11.24,0,0,0-.54-2.28c-1,3-.85,6-2.38,8.67a3.37,3.37,0,0,1,0-1.74c.36-2.1.77-4.19,1.06-6.31.32-2.34.41-4.73.84-7.06.4-2.17.69-4.37.87-6.55a32.44,32.44,0,0,1,1.36-8.3,12.43,12.43,0,0,0,.63-2.34,64.11,64.11,0,0,1,1.15-6.48c.73-2.84.93-5.82,2.06-8.57a3.34,3.34,0,0,0,.09-1,.91.91,0,0,0,0-.39c-1.1-.12-.39-.77-.34-1.2a21.24,21.24,0,0,0,.37-2.71,67.68,67.68,0,0,1,.7-9.85,91,91,0,0,0,.59-9.35,6.49,6.49,0,0,1-.56.45l.18-1.78.44-6.47-.1-.26c0-.39,0-.78-.09-1.18a8,8,0,0,1,.35-2.87,5.73,5.73,0,0,1,.18,1.73c0,.21.08.32.29.34s.19-.14.24-.26c.3-.7.61-1.4.93-2.13-.33-.16-.67-.06-1-.3a13.3,13.3,0,0,0-4.92-2.26c-2.4-.68-4.82-1.29-7.2-2-1.92-.6-3.67-1.69-5.63-2.18-3.93-1-7.45-2.91-11-4.77-.22-.11-.39-.27-.69-.13.08.32.15.64.24,1A58.12,58.12,0,0,0,128.42,90a32.87,32.87,0,0,0,5.6,9c.66.83.6,1.08-.43,1.35a16.14,16.14,0,0,0-3.38,1c-.86.45-.92.6-.13,1.25,1.56,1.29,3.16,2.53,4.72,3.83.78.64,1.6.93,1.19,2.54-.9,3.53-1.59,7.13-2.18,10.73a80.13,80.13,0,0,0-1,10.23,85.94,85.94,0,0,0,.17,9.08c.2,2.84.22,5.7.68,8.53.53,3.24,1.24,6.47,1.51,9.74s1.07,6.54,1.38,9.85c.37,3.92,1,7.82,1.38,11.74a120.74,120.74,0,0,1,.45,14.36c0,1.79.07,3.59-.1,5.39v-3.67a.69.69,0,0,0-.24.48,12.69,12.69,0,0,0-.32,2.51c0,.6-.81,0-.6.66.66,2.07.92,4.24,1.39,6.36a.76.76,0,0,0,.88.71c4.73,0,9.46,0,14.19,0,.69,0,.82-.22.66-.83A66.8,66.8,0,0,1,152.75,198.25Zm-2.58-71.33v4.18A4.19,4.19,0,0,1,150.17,126.92ZM139,143.29c-.76-.15-1.3-.53-1.29-1.42,0-.44-.12-.87-.15-1.31,0-.27-.07-.74,0-.77,1.08-.37.69-1.35.85-2a22.34,22.34,0,0,1,1.8-4.71,11.18,11.18,0,0,0,1.21-4c.13-1.46,1.13-2.66,1.67-4,.21-.54,1-.31,1.29.09a12.29,12.29,0,0,0,2,2.16c.2.17.37.63.82.37.2-.11.39,0,.34.21-.18.65.39.75.73,1.15.3-.95.06-1.91.54-2.92a8.41,8.41,0,0,1,.26,3.48,2.51,2.51,0,0,0,1.5,2.63,1.16,1.16,0,0,1,.73,1.46,1.1,1.1,0,0,0,.06,1.07.24.24,0,0,1,0,.35c-.86.33-.92,1.5-1.85,1.75h0a25.09,25.09,0,0,1-3.92,1.58c-1.68.58-3.37,1.1-5.05,1.65-.55-.12-1,.21-1.6.19-.31,0-.41.18-.37.47,0,.1.06.19.07.29.27,1.69.27,1.66,2,1.69a12,12,0,0,0,3.94-.86c1.18-.4,2.33-.88,3.51-1.3.3-.1.75-.31.92.05s-.28.6-.53.71C145.4,142.55,142.39,144,139,143.29Z"/><path class="cls-6" d="M172.72,176.71c-.27-1.22-1.07-2.36-.67-3.72.34-1.14.18-2.35.48-3.52a11,11,0,0,0,.06-2.23c0-.69-.65-.81-1-1.15s-.43.29-.66.44c-.63.41-1.09,1.09-2.07,1.32.71-1.08,1.69-1.6,2.35-2.49a1.6,1.6,0,0,0-1,.08,3.89,3.89,0,0,1-1.7.84.68.68,0,0,1-.46-.13c-.14-.1,0-.25.07-.34a11.65,11.65,0,0,1,3.19-2.25c-.5.47-1.05.9-1.51,1.4s.2.24.3.36c.25-.17.48-.46.74-.48,1.18-.1,1.11-.89,1.11-1.74,0-2.08,0-4.15,0-6.23a6.31,6.31,0,0,0-.17-2.12,6.45,6.45,0,0,1-.18-2.73c.33-2.72.63-5.45,1-8.18.09-.75-.11-.87-.83-.67a3.08,3.08,0,0,0-1.94,1c-.23.31-.48.16-.72,0s-.19-.22-.07-.4a41.2,41.2,0,0,1,2.2-3.6c.57-.68.88-1.31.14-2-.08-.09-.07-.26-.13-.39-.58-1.19-.58-1.19-1.69-.49-.57.36-1.19.91-1.8.24s-.72-.24-1,.12-.44.59-.64.89-.46.74-.86.46-.06-.65.12-.95c.93-1.56,1.86-3.12,2.81-4.67a5,5,0,0,0,.71-3.08,40.9,40.9,0,0,0-.83-4.39c-.24-1.39-.74-2.74-1-4.13a50.69,50.69,0,0,0-1.73-5.36,43.6,43.6,0,0,1-.86,6.3,22.07,22.07,0,0,1-.31-7.39,33.13,33.13,0,0,0-.41-8,46.16,46.16,0,0,0-1.48-5.35c.18-.38,1.28-.46,1-1.22a26.8,26.8,0,0,0-3.74-4.64.73.73,0,0,0-.71-.16l-.88-.78a3.39,3.39,0,0,0-.82,2,2.13,2.13,0,0,0-.28.44,15,15,0,0,0-.54,3.93c0,1.5-.5,2.73,0,4.2.11.33.22.63.34.92a17.59,17.59,0,0,1-.3,4.52,5.28,5.28,0,0,1-.43,1.17c-1-.23-.51.54-.58.84-.46,1.9,0,3.89-.5,5.77a26.72,26.72,0,0,0-.68,7.45c0,1.5,0,3,0,4.49a4.82,4.82,0,0,1-.13,1.32c-.66,2.07-.78,4.26-1.4,6.33-.72,2.38-.91,4.87-1.44,7.29a20.91,20.91,0,0,0-.66,6,27.37,27.37,0,0,1,3-4.6c1.12-1.32,1.92-2.94,3.62-3.77.14.4-.09.5-.21.64a48.83,48.83,0,0,0-5,7,13,13,0,0,0-1.87,8.79c.29,2.05-.25,4.12-.32,6.18a17.6,17.6,0,0,1-.27,2,27.4,27.4,0,0,0-.21,6.89c0,.21.06.42.27.51s.3-.18.43-.31a15.74,15.74,0,0,0,2.32-3.66c.41-.77.73-1.73,1.51-2.1,1.15-.55,2.11-1.46,3.39-1.75.52-.12,1.17-.84,1.46-.11.2.5-.71.67-1.22.9-1.4.63-3.05.91-3.42,2.89a7.22,7.22,0,0,1-.88,1.79c-.77,1.41-1.41,2.9-2.17,4.32a15.58,15.58,0,0,0-.62,1.9c-.11.26-1-.09-.73.59.22.51.72-.24,1.15-.05.15.07.39-.07.59-.06,2.12,0,4-.93,5.88-1.6l-.05-.05c-.79.07-1.61.17-1.05-1.12-.28.34-.55.7-.85,1a.51.51,0,0,1-.64.15c-.25-.12-.18-.31-.1-.51a13.84,13.84,0,0,1,3.86-5.55l-2.49,4c1.43-1,2.61-2.28,4.26-2.9a25.08,25.08,0,0,1-2.84,3.84c.45.26.68-.5,1.1-.17,0-.58.36-.65.82-.61,0-.43.4-.5.69-.58s.69-.34.93,0-.16.54-.24.82c-.14.45-.84.33-.86.93a21.9,21.9,0,0,0,3.14,0,14.21,14.21,0,0,1,7.73,1.05c.7.29,1.67,1.11,2.07.66S172.92,177.59,172.72,176.71Zm-22-19.94a20.67,20.67,0,0,1,4.16-6c-.49.79-1,1.57-1.46,2.37-.74,1.25-1.46,2.5-2.17,3.77a1.21,1.21,0,0,0-.07.48C150.79,157.33,150.43,157.3,150.68,156.77Zm4.42.17a28,28,0,0,0-2.84,4.53c-.13.29-.57.68.19.77a.25.25,0,0,1,.22.37c-.38.61-.32,1.45-1,1.92-.34-.32-.12-.61,0-.89s.16-.42-.06-.54c-1-.57-.45-1.28-.17-1.92a35.62,35.62,0,0,1,2.45-3.68,10.19,10.19,0,0,0-2.15,1.94c-.31.31-.65.63-1.05.36s-.16-.7-.09-1.05.59-.83.58-1.38a7.68,7.68,0,0,0,1.42-2.14,4.79,4.79,0,0,1,2.34-2.21c-.75,1.73-2.27,3-2.88,5.15,1-.74,1.66-1.31,2.39-1.86.27-.2.63-.48.91-.23S155.3,156.66,155.1,156.94Zm-.85,17.62c-.31.91-.62,1.83-.94,2.75l-.32-.12a8.33,8.33,0,0,1,1.11-2.8,3.38,3.38,0,0,1,1.23-1.64A5.48,5.48,0,0,1,154.25,174.56Zm12.17-44.23s-.1.06-.16.09C166.39,130.24,166.44,130.31,166.42,130.33Zm-.06-.15a2.26,2.26,0,0,1-.11.22c0-.05,0-.1,0-.14S166.31,130.21,166.36,130.18Zm-3.67,10.42c.15-2.46,1.46-4.47,2.53-6.6a12.91,12.91,0,0,0-2.94,2.27c-.19.23-.4.44-.62.66a.23.23,0,0,1-.35,0c-.1-.1-.19-.22-.1-.36,1.5-2.18,2.74-4.58,5-6.11-.77,1.48-1.9,2.46-2.49,3.83a23.66,23.66,0,0,0,3.3-2.87l.15-.32c.16.14.09.28,0,.42Zm1.06,10.17c1.46-2.3,3.63-3.89,5.41-5.59Zm6.9-4c-.16.93-4.1,4.84-5.38,5.32C166.75,150.09,168.78,148.62,170.65,146.8Z"/><path class="cls-6" d="M158.51,177h0v0Z"/><polygon class="cls-6" points="159.33 176.35 159.31 176.35 159.31 176.36 159.33 176.35"/><path class="cls-6" d="M137.17,193.32c.8-5.24.16-10.44-.33-15.64-.23-2.5-.64-5-1-7.46s-.36-5.07-1.1-7.54a10.21,10.21,0,0,1-.48-2.46,73.84,73.84,0,0,0-1-8.27,65.86,65.86,0,0,1-1-6.94c-.21-4.85-.54-9.7-.45-14.57a66.69,66.69,0,0,1,1.13-11.83,79.49,79.49,0,0,1,2.27-10.09.85.85,0,0,0-.28-1c-1.91-1.56-3.75-3.22-5.75-4.65a21.7,21.7,0,0,1-4.33-3.6,22.7,22.7,0,0,1-1.66-2c-.77-1.17-1.46-2.4-2.18-3.61-.11-.17-.22-.4,0-.54s.37,0,.48.22.22.34.33.51a31,31,0,0,0,5.73,7,1.11,1.11,0,0,0,1.51.21,11.58,11.58,0,0,1,3.1-1.22c1.11-.3,1.11-.33.35-1.26a38.32,38.32,0,0,1-4.55-6.95A54.18,54.18,0,0,1,125.37,85c-.5-1.43-.91-2.94-2.32-3.92a37.09,37.09,0,0,1-3.16-2.85c.16,2.33,0,4.45.24,6.5.3,3.36,0,6.72.32,10.06.24,2.69-.52,5.35-.24,8,.4,3.89.26,7.81.91,11.68.46,2.67.55,5.43,1.26,8A30.82,30.82,0,0,1,123,129c.28,4.17.66,8.33,1.08,12.48.32,3.07.63,6.15,1,9.22.39,3.46,1.25,6.85,1.39,10.35a57.54,57.54,0,0,0,1.56,9.21,41.35,41.35,0,0,0,2.31,6.57c1.1,2.86,2.36,5.65,3.54,8.48a28.87,28.87,0,0,1,2.37,7.5c.18,1.46.45,2.92.68,4.38h.23A25.75,25.75,0,0,1,137.17,193.32ZM125,88.24a3.43,3.43,0,0,1-1.34-1.3C124.05,87.34,124.66,87.54,125,88.24Zm-.19,47.7c-.28-.05-.26-.25-.22-.45,0,0,.09-.06.14-.08l.19.44a1.35,1.35,0,0,1,.61,1.31C125.08,136.76,124.8,136.44,124.81,135.94Zm1.64-.2c-.94-.64-1-1.82-1.57-2.67a5.78,5.78,0,0,1,1.57,2.66l0,0Zm1.48-1.05-1.32-2.84A2.9,2.9,0,0,1,127.93,134.69Z"/><path class="cls-6" d="M81.55,92.28c-.42-.22-1,.26-1.56.52-2.07,1.07-3.86,2.61-5.91,3.71-3,1.62-5.35,4.14-8.23,5.94-.67.41-.7,1-.25,1.63a11.7,11.7,0,0,1,1.61,4.34c.54,2.79.92,5.61,1.4,8.42.33,1.9.83,3.78,1,5.7.42,3.77.66,7.57,1,11.35a64.77,64.77,0,0,0,1.15,7.43,43.26,43.26,0,0,1,.89,4.89c.43,4.62.57,9.26,1,13.89.14,1.61.32,3.22.54,4.82a11.83,11.83,0,0,0-1.22-.84,83.1,83.1,0,0,1-.8-10.19,93.78,93.78,0,0,0-2.09-15.69,123.09,123.09,0,0,1-1.6-12.5c-.28-3.07-1.07-6-1.54-9-.3-2-.58-4-1-5.9s-.61-4.2-1.74-6.1-1-2,.67-3.32c.18-.15.4-.26.59-.39,1.46-1,3-1.74,4.4-2.85.15-.13.54-.17.35-.49a.65.65,0,0,0-.52-.24,14.23,14.23,0,0,1-2.67-.64c-.62-.12-.66-.47-.33-.86a20.73,20.73,0,0,0,2-3,34.11,34.11,0,0,0,3-6c-.73-.07-1.19.42-1.76.59-2.84.87-5.61,1.92-8.36,3-2.33,1-4.73,1.73-7.11,2.58a37.86,37.86,0,0,1-6.59,1.93,2.32,2.32,0,0,0-2,1.85,24.74,24.74,0,0,0-.93,8.94,2.82,2.82,0,0,1-.3,2.29c-2-4.19-.74-8.12.36-12.06-.55,0-.84.44-1.16.71a5.68,5.68,0,0,0-1.85,2.78c-.61,1.93-.19,4.15-1.72,5.83-.61.67-.85,1.74-1.54,2.29a6.76,6.76,0,0,0-2.17,2.89,2.57,2.57,0,0,0-.33.33c-.94.86-1.88,1-1.39,2a1.39,1.39,0,0,0,0,1.1,8.63,8.63,0,0,0,3,4.21c1.12,1,2.53,1.47,3.67,2.4-1.13.08-1.93-.65-2.77-1.2-2.15-1.41-4.26-2.89-4.39-5.85a1.68,1.68,0,0,0-1.43,1.18,4.55,4.55,0,0,0,.24,3.91c.07.12.36.22.14.38-.85.61-.81,1.67-1.27,2.48-1.12,2-2.73,3.56-3.72,5.6-.37.77-.59,1.68-1.44,2.14-.08,0-.07.25-.08.38a26.52,26.52,0,0,0,.41,7.8c.09.39.24.66.74.66,3,0,5,1.95,6.8,4,0,0,0,.18,0,.39-.85-.8-1.69-1.49-2.39-2.29-1.12-1.29-2.63-1.56-4.16-1.8-.57-.09-.82.09-.64.73s.3,1.61.56,2.38c.56,1.72.32,3.62,1.18,5.26h0c-.46.65.09,1.3.05,2-.07,1.18.07,2.35,1.31,3a4.2,4.2,0,0,1,1.75,1.31,2.71,2.71,0,0,1,1.69,1.45,5.26,5.26,0,0,1-1.87-1.3,4.44,4.44,0,0,1-1.71-1.32c-.35.14-.55-.54-.84-.24s.06.66.2,1c.51,1.16,1.27,2.19,1.7,3.41.48,1.4,1.35,2.66,1.55,4.22-.82-.49-.68-1.5-1.35-2.12-.09,3,.62,5.87.75,8.77.05,1.13.56,2.22-.35,3.22-.05.06,0,.19,0,.42.61-.68,1.3-1.34,1.31-2a1.76,1.76,0,0,1,.66-1.43c.45-.44.84-.94,1.3-1.39,1.87-1.85,2.84-4.3,4.29-6.43,2.81-4.15,5.24-8.56,8.47-12.43a2.92,2.92,0,0,0,.75-3,34.75,34.75,0,0,1-1.25-5A95.4,95.4,0,0,1,46,128.9c0-.77-.4-1-1.19-.84-1.13.25-2.28.37-3.43.54,1-.81,2.25-.75,3.39-.93.77-.11,1.09-.26,1.07-1.13-.07-3-.07-6.06,0-9.09a17.87,17.87,0,0,0-.56-4.43,27.05,27.05,0,0,1-.66-4c.31.34.49.44.53.58.45,1.56,1,3.1,1.29,4.69.76,3.65.62,7.37.66,11.07a38.15,38.15,0,0,0,1.07,8.36c.47,2,.7,4,1.16,6,.58,2.47,1.49,4.87,1.58,7.45,0,.76,0,1.58.84,2.05.18.11.17.34.23.54a34.4,34.4,0,0,1,1.11,8.66,174.85,174.85,0,0,0,1.27,18.29c.59,4.64,1.41,9.24,2.18,13.85a11.28,11.28,0,0,1,.31,3.52c-.32-.14-.36-.48-.44-.75a80.5,80.5,0,0,1-2-8.8,26.07,26.07,0,0,1-.63-3.51c-.08-2-.78-3.84-.72-5.83a4,4,0,0,0-.22,1.22,84.31,84.31,0,0,1-.63,12,55.74,55.74,0,0,1-2.47,10.83c-.67,1.9-1.53,3.72-2.18,5.64-.37,1.11.15.87.71.87H62.93c.73,0,1.53.16,1.3-1.06a3.65,3.65,0,0,1,.2-1.09c0-.18.1-.33.32-.3a.31.31,0,0,1,.26.38,4.23,4.23,0,0,1-.41,1.43c-.31.49-.31.63.29.63,1.77,0,3.54,0,5.3,0,.42,0,.58-.19.72-.56a34.66,34.66,0,0,0,1.18-5,11.84,11.84,0,0,0,.65-3.38c-.25-3.61.7-7.07,1.35-10.56.1-.54.19-1.07.28-1.61.62-1.41,1.09-2.76,1.38-3.42,1-2.35.45-5.93,1.07-9s.36-2.47-.16-4.21a3.43,3.43,0,0,0-.39-.86c.3-2.39.5-4.78.74-7.17.48-4.83.94-9.66,1.07-14.52.13-5.12.82-10.22.79-15.35a14.09,14.09,0,0,1,.14-1.83q.58-4.84,1.07-9.72c.3-3,.53-6,.79-8.93.21-2.46.63-4.9.63-7.38,0-2.82.08-5.64.11-8.47C81.62,93.25,82,92.5,81.55,92.28ZM33.34,125.73a14.87,14.87,0,0,0-5.5,4.48.37.37,0,0,1-.42.2l0,0,0,0c.61-1.64,2-2.59,3.31-3.58a12.89,12.89,0,0,1,3.4-2C34.15,125.54,33.63,125.57,33.34,125.73ZM32,153.78a5.65,5.65,0,0,1,1.55,1.73A2.46,2.46,0,0,1,32,153.78Zm-.32-4.94a16.76,16.76,0,0,1-2.39-2.06c1.16.18,1.77,1.13,2.55,1.86a7.21,7.21,0,0,1,2.51,2.52A8.62,8.62,0,0,1,31.68,148.84Zm4,9.33c-.55-.39-.55-.39-.59-1.88A2.79,2.79,0,0,1,35.69,158.17Zm.87-.88.25,2C36.1,158.51,36.09,157.92,36.56,157.29Zm.24-32.62-.2-.19L38,123l.18.16C37.7,123.66,37.25,124.17,36.8,124.67Zm4.79-3.83a.14.14,0,0,1-.06-.22l.21.15C41.69,120.79,41.62,120.85,41.59,120.84ZM52.5,202.59c-.86-1.76-.76-6.8.22-11C52.77,195.23,52.32,198.91,52.5,202.59ZM59.26,199c-.45-.2-.57-.45-.58-.72,0-1.21-.07-2.42-.08-3.64,0-.2,0-.52.31-.54s.34.25.35.49Zm2.15,1.74c0,.19,0,.45-.32.43s-.28-.29-.28-.47c0-.74,0-1.49,0-2.24h0c0-.68,0-1.36,0-2,0-.19,0-.45.24-.48s.31.22.33.42A27.85,27.85,0,0,1,61.41,200.78Zm2.19,3.32V199C64.3,200.09,64.33,203.4,63.6,204.1Zm6.55-4a1.35,1.35,0,0,1-2.06-1,6.56,6.56,0,0,1,0-.93,4.11,4.11,0,0,1,.43-1.84c.26-.61.62-1.21,1.46-1.14a1.49,1.49,0,0,1,1.44,1.41A3.9,3.9,0,0,1,70.15,200.1Zm4-44.54a7.58,7.58,0,0,1-.35-3.77A10.46,10.46,0,0,1,74.18,155.56Zm-.87-22.29a21,21,0,0,1,1.21,5.56A13.67,13.67,0,0,1,73.31,133.27Zm.76-1.16a9.56,9.56,0,0,1,1.05,4.2A12,12,0,0,1,74.07,132.11Zm2.34,3.33c-.8-1.16-.5-2.51-.66-3.79A8.31,8.31,0,0,1,76.41,135.44Z"/><path class="cls-6" d="M83,79a2.07,2.07,0,0,1-.72,1.07c-2.5,2-4.84,4.17-7.49,6-.19.13-.38.43-.6.29-.88-.55-1.15.17-1.4.7a96.86,96.86,0,0,1-4.51,8.63c-.13.21-.4.58,0,.63,1.31.18,2.52,1.3,3.93.41l2.55-1.62c2.2-1.37,4.26-3,6.76-3.84.36-.12.35-.31.4-.58.65-3.4.81-6.86,1.19-10.3.08-.74.69-1.32.6-2.09C83.2,78.25,83.1,78.67,83,79Zm-7.9,8.25c.08-.13.11-.33.33-.28,0,0,.08,0,.08.06,0,.19-.15.26-.3.33s-.16.16-.18.15C74.86,87.37,75,87.31,75.1,87.24Zm-.26.3-.26.61-.63,0A1.31,1.31,0,0,1,74.84,87.54Zm-.6,3a5.65,5.65,0,0,1,2.12-1.69A4.75,4.75,0,0,1,74.24,90.56Zm1.11-2.28a5.76,5.76,0,0,1-1.46,1.27c-.27-.77,1-.64.73-1.33.2.2.37-.11.56-.09a5.24,5.24,0,0,1,1.32-1.29A2,2,0,0,1,75.35,88.28Z"/><path class="cls-10" d="M137.58,205.15a25.07,25.07,0,0,1-1-4.35c-.27-1.39-.69-2.74-.84-4.17a31.93,31.93,0,0,0-1.94-8.89c-1.63-4-3.5-7.92-5-12a53.8,53.8,0,0,1-2.56-8.93c-.48-2.57-.75-5.16-1.05-7.75-.5-4.2-1.57-8.33-2-12.55-.31-3.44-.93-6.85-.92-10.5a2.38,2.38,0,0,0-.52,1.53,33.12,33.12,0,0,1-.43,5.88,73.78,73.78,0,0,1-2,7.73c-.09.28-.12.57-.24.86-.86,2.19-2.17,4.16-3.1,6.32-.84.78-1,2-2,2.76a14.78,14.78,0,0,1-4.94,2.62,12.22,12.22,0,0,1-5.91.22c-1.45-.23-1.42-.4-1.32,1.12,0,.17,0,.34,0,.51.22,2.53.79,5,.86,7.57a12.32,12.32,0,0,1,.91,5.05c0,1.12,0,2.24,0,3.36a1.88,1.88,0,0,1-.39,1.07,63.44,63.44,0,0,0-.21-7.2,2,2,0,0,0-.27-1.08c0,2.75-.06,5.51.11,8.26a32.37,32.37,0,0,1,0,6.6,18.32,18.32,0,0,0-.35,5.58v1.58c.44.4.33.86.12,1.33A44.35,44.35,0,0,1,103,205c0,.26-.27.62.22.75.16,0,.33,0,.5,0h28.46c1.63,0,3.26,0,4.9,0C137.47,205.77,137.79,205.7,137.58,205.15Zm-30.31-40.6c-1.43.31-2.87.64-4.29-.07C104.41,164.93,105.85,164.45,107.27,164.55Zm-3.63,3.79a2.83,2.83,0,0,1,2.12-2.41,2.27,2.27,0,0,1,2.27,1.88,2.31,2.31,0,0,1-2.28,2.43A1.83,1.83,0,0,1,103.64,168.34Zm.48,11.2c-.46-.55.27-.7.48-1,.43-.64.9-1.26,1.87-.93,1.83.63,2.45,1.25,2.43,3a2.27,2.27,0,0,1-1.32,2,2.46,2.46,0,0,1-2.67-.69,1.81,1.81,0,0,1-.46-1.2A2.24,2.24,0,0,0,104.12,179.54ZM107.06,196a2.42,2.42,0,0,1-2.28-2.43c0-1.56.9-2.69,2-2.7a2.42,2.42,0,0,1,2.32,2.41C109.08,194.81,108.16,196,107.06,196Zm10.46-34.48a10.81,10.81,0,0,1,2.47-2.92A8.39,8.39,0,0,1,117.52,161.51Zm1.13.84a26,26,0,0,1,2.35-3.84C121.07,159.35,119.41,162.09,118.65,162.35Zm2.92-1.2a7.22,7.22,0,0,1,2.08-2.8A5.92,5.92,0,0,1,121.57,161.15Zm9.53,41.64c-.32-1.19,1.8-5.3,3.08-5.85C133.46,199.21,132,200.77,131.1,202.79Zm1.47.22c-.44-.24,0-.51.12-.72.52-1.3,1.51-2.35,1.94-3.7.08-.26.31-.17.62-.38a29.7,29.7,0,0,1-2,4.35C133.15,202.74,132.94,203.21,132.57,203Zm1.54.89a4.89,4.89,0,0,1,1.2-3A4.91,4.91,0,0,1,134.11,203.9Z"/><path class="cls-10" d="M101.46,194c0-2.22.58-4.38.62-6.56.06-4.52-.1-9-.17-13.56,0-1.23-.09-2.44-.22-3.66a44.37,44.37,0,0,1-.48-6.09.81.81,0,0,0-.58-.92A12.16,12.16,0,0,1,97,160.75c-.86-.81-.85-.88.25-1.41a1.06,1.06,0,0,0-.6-.72c-.42-.15-1,.66-1.33-.37s-.47-1.07.75-1.19a1.17,1.17,0,0,0-.49-.89c-.38,0-.76,0-.92-.44a.71.71,0,0,1,.39-.92c-.13-.35-.25-.7-.38-1-.34.21-.5.64-1.12.81-4.44-11.22-8.63-22.54-12.75-33.91-.09.66,0,1.32-.1,2-.85,5.48-.87,11-1.15,16.53-.15,2.82-.24,5.64-.43,8.45-.45,6.6-.94,13.2-1.41,19.8,0,.37,0,.75-.29,1a.87.87,0,0,0-.2,1.3.7.7,0,0,1-.11.94l-.08.06c.24,2.73.28,6.15-.54,8.57a54.93,54.93,0,0,1-1.39,9,30.73,30.73,0,0,0-1,6.44c0,3.44-1.07,6.67-1.79,10-.17.74-.23,1.06.74,1.05,4.62,0,9.25,0,13.87,0s9.39,0,14.09,0c.7,0,1-.15,1.07-.91a16.86,16.86,0,0,0,0-2.75C101.89,199.42,101.42,196.75,101.46,194Zm-22.3-16.1c0,.14,0,.28-.21.28s-.24-.08-.24-.13a9.06,9.06,0,0,1,.22-3.24A10.07,10.07,0,0,1,79.16,177.91Zm12.55-7.3c0,.29.05.59.1.89a3.39,3.39,0,0,1,0,.71,11.42,11.42,0,0,1-.19-1.53ZM81,177.83c0,.2,0,.45-.22.51a.26.26,0,0,1-.32-.29c.07-1.51-.27-3,.11-4.52A23.93,23.93,0,0,1,81,177.83Zm2.2.91A4,4,0,0,1,83,176,5.19,5.19,0,0,1,83.23,178.74Zm3.4-38.82c.91,1.58,1.93,3.11,2,5.06.05,1.28,1,2.28,1.44,3.44a12.11,12.11,0,0,1,.66,2,25.62,25.62,0,0,1-2.42-5.07A33.82,33.82,0,0,0,86.63,139.92Zm12,56.87c-.35.23-.63-.1-.84-.36-.48-.6-1-1.19-1.42-1.83-1.32-1.93-3.33-3-5.23-4.2a20.24,20.24,0,0,1-3.48-2.46,5.24,5.24,0,0,1,2.57,1.29c1.86,1.18,4,2,5.55,3.61A13,13,0,0,1,98.48,196C98.6,196.26,99.07,196.51,98.65,196.79Z"/><path class="cls-2" d="M176.5,187.21c-.34-1.53.47-2.32,1.56-3v-2.9c-1.1-.41-2.18-.9-3.31-1.21-.67-.18-.89-.47-.87-1.11a7.54,7.54,0,0,0-.66-3.65,2.15,2.15,0,0,1-.33-1.45c.36-1.77.26-3.59.66-5.35a2.76,2.76,0,0,0,0-1.31,18.71,18.71,0,0,1-.3-3.41c-.19-2.28.27-4.54.32-6.82,0-1.15-.47-2.23-.25-3.43.5-2.66.91-5.34,1.25-8,.2-1.62,0-3.21-1.62-4.17-.54-.31-.49-.63-.09-1a1.68,1.68,0,0,0,.77-1.65,11,11,0,0,0-1.78-3.82c-.38-.56-1.55-.21-1.65-.88s.58-1.27.64-2.06c.11-1.74-.11-3.46-.07-5.19-.17,0-.21-.17-.21-.32l-.11-.33a.77.77,0,0,1-.28-.52,66.3,66.3,0,0,0-2.3-7.42,24.82,24.82,0,0,1-1.45-6.72,21.83,21.83,0,0,0-1-5.68c-.45-1.31-.94-2.6-1.43-3.89-.72-1.91-1-4-2.5-5.58l-.26,0a1.38,1.38,0,0,0,.08,2c.44.5.68,1.18,1.13,1.67.66.71.67,1.23-.22,1.7a53.84,53.84,0,0,1,1.57,5.65,33.13,33.13,0,0,1,.41,8,22.07,22.07,0,0,0,.31,7.39,43.6,43.6,0,0,0,.86-6.3,50.69,50.69,0,0,1,1.73,5.36c.27,1.39.77,2.74,1,4.13a40.9,40.9,0,0,1,.83,4.39,5,5,0,0,1-.71,3.08c-.95,1.55-1.88,3.11-2.81,4.67-.18.3-.48.7-.12.95s.65-.14.86-.46.41-.6.64-.89.49-.68,1-.12,1.23.12,1.8-.24c1.11-.7,1.11-.7,1.69.49.06.13.05.3.13.39.74.74.43,1.37-.14,2a41.2,41.2,0,0,0-2.2,3.6c-.12.18-.13.3.07.4s.49.27.72,0a3.08,3.08,0,0,1,1.94-1c.72-.2.92-.08.83.67-.34,2.73-.64,5.46-1,8.18a6.45,6.45,0,0,0,.18,2.73,6.31,6.31,0,0,1,.17,2.12c0,2.08,0,4.15,0,6.23,0,.85.07,1.64-1.11,1.74-.26,0-.49.31-.74.48l.11.12a1.6,1.6,0,0,1,1-.08c-.66.89-1.64,1.41-2.35,2.49,1-.23,1.44-.91,2.07-1.32.23-.15.43-.66.66-.44s1,.46,1,1.15a11,11,0,0,1-.06,2.23c-.3,1.17-.14,2.38-.48,3.52-.4,1.36.4,2.5.67,3.72.2.88.57,2,.06,2.53s-1.37-.37-2.07-.66a14.21,14.21,0,0,0-7.73-1.05,21.9,21.9,0,0,1-3.14,0c0-.6.72-.48.86-.93.08-.28.44-.52.24-.82s-.63-.12-.93,0-.67.15-.7.59c0,.21.7-.11.33.32-.61.73-1.07,1.78-2.34,1.54-1.92.67-3.76,1.64-5.88,1.6-.2,0-.44.13-.59.06-.43-.19-.93.56-1.15.05-.31-.68.62-.33.73-.59a15.58,15.58,0,0,1,.62-1.9c.76-1.42,1.4-2.91,2.17-4.32a7.22,7.22,0,0,0,.88-1.79c.37-2,2-2.26,3.42-2.89.51-.23,1.42-.4,1.22-.9-.29-.73-.94,0-1.46.11-1.28.29-2.24,1.2-3.39,1.75-.78.37-1.1,1.33-1.51,2.1a15.74,15.74,0,0,1-2.32,3.66c-.13.13-.14.43-.43.31s-.25-.3-.27-.51a27.4,27.4,0,0,1,.21-6.89,17.6,17.6,0,0,0,.27-2c.07-2.06.61-4.13.32-6.18a13,13,0,0,1,1.87-8.79,48.83,48.83,0,0,1,5-7c.12-.14.35-.24.21-.64-1.7.83-2.5,2.45-3.62,3.77a27.37,27.37,0,0,0-3,4.6,20.91,20.91,0,0,1,.66-6c.53-2.42.72-4.91,1.44-7.29.62-2.07.74-4.26,1.4-6.33a4.82,4.82,0,0,0,.13-1.32c0-1.5,0-3,0-4.49a26.72,26.72,0,0,1,.68-7.45c.48-1.88,0-3.87.5-5.77.07-.3-.38-1.07.58-.84a5.28,5.28,0,0,0,.43-1.17,21.25,21.25,0,0,0,.29-5.28,2.91,2.91,0,0,1-2.17,0l-.1,1.34a1.19,1.19,0,0,0,.08.2,90.94,90.94,0,0,1-.59,9.34,67.68,67.68,0,0,0-.7,9.85,21.24,21.24,0,0,1-.37,2.71c-.05.43-.76,1.08.34,1.2a.91.91,0,0,1,0,.39,3.34,3.34,0,0,1-.09,1c-1.13,2.75-1.33,5.73-2.06,8.57a64.11,64.11,0,0,0-1.15,6.48,12.43,12.43,0,0,1-.63,2.34,32.44,32.44,0,0,0-1.36,8.3c-.18,2.18-.47,4.38-.87,6.55-.43,2.33-.52,4.72-.84,7.06-.29,2.12-.7,4.21-1.06,6.31a3.37,3.37,0,0,0,0,1.74c1.53-2.68,1.37-5.68,2.38-8.67a11.24,11.24,0,0,1,.54,2.28c0,2.77.75,5.44,1,8.18.25,3.14.67,6.26.72,9.42,0,2.07.08,4.15.22,6.21.08,1.24-.83,1.8-1.41,2.58-.23.31-.38-.07-.4-.38a20.44,20.44,0,0,1,0-3.67,1.92,1.92,0,0,0-.07-1.28,6,6,0,0,0-.64,2.58,16.75,16.75,0,0,0,0,2.65,1.73,1.73,0,0,1-1.08,2c-.3.14-.57.35-.86.52s-.43.13-.3.41.25.25.5.23a4,4,0,0,0,2.08-1,11.64,11.64,0,0,0,3.07-2.91,4.58,4.58,0,0,1,.43-.79c.21-.23-.49-.59.14-.68a.82.82,0,0,1,.95.56,3.78,3.78,0,0,1,.34.74,66.8,66.8,0,0,0,1.5,6.7c.12.45.08.68-.22.78h3c-1-.07-1.47-.49-1.78-1.79-.4-1.69-.82-3.39-1.22-5.09-.34-1.46-1.06-2.46-2.67-2.56-.23,0-.4,0-.43-.3a.86.86,0,0,1,.4-1,22.91,22.91,0,0,1,4.42-2.16,2.67,2.67,0,0,0,1.64-.92.3.3,0,0,0,.05-.14c.35.16.69-.13.93-.25a13.4,13.4,0,0,1,4.78-1.26c2.09-.22,4.2-.28,6.3-.42a5.4,5.4,0,0,1,2,.34,2,2,0,0,1,1.41,2.45c-.32,1.87-.46,3.78-.93,5.61-.59,2.33-.93,4.71-1.58,7a.53.53,0,0,1-.39.42h2.1c-.47-.12-.57-.5-.39-.95a19.47,19.47,0,0,0,.88-3.94,21.6,21.6,0,0,0,.77-4.08c0-.59.29-1,1-.8a1.85,1.85,0,0,0,2.07-1.06,6,6,0,0,0,.69-4.31C176.9,189.47,176.75,188.32,176.5,187.21Zm-4.58-44.78c-.26.43-.71.14-1.1.18.26-.26.27-.84.84-.61C171.86,142.08,172.06,142.22,171.92,142.43ZM148.31,168a15,15,0,0,1,.45-6.69C148.55,163.54,148.87,165.8,148.31,168Zm27.43,16.77c-1,1.3-.46,2.71-.24,4.09.24,1.55.79,3.09.1,4.68-.49-.14-.46-.56-.54-.91a5.37,5.37,0,0,0-5.72-4.38,24,24,0,0,0-7.21,1,17,17,0,0,0-4.84,2.38h0c-1.57.65-3.38.48-4.85,1.56-1,.75-1.68.39-1.78-.87-.24-3-.08-6.05-.11-9.07,0-.75-.34-1.48,0-2.25.18-.41.43-.79.85-.74,2.09.29,3.85-.86,5.78-1.27,4.7-1,9.34-1.46,13.88.78,1.65.81,3.45,1.31,5.16,2,1.16.49,1.2.77.45,1.75Z"/><path class="cls-2" d="M126.65,83.47c3.54,1.86,7.06,3.78,11,4.77,2,.49,3.71,1.58,5.63,2.18,2.38.74,4.8,1.35,7.2,2a13.3,13.3,0,0,1,4.92,2.26c.3.24.64.14,1,.3-.32.73-.63,1.43-.93,2.13-.05.12-.05.27-.24.26s-.29-.13-.29-.34a5.73,5.73,0,0,0-.18-1.73,8,8,0,0,0-.35,2.87,7.11,7.11,0,0,1-.12,2.94.84.84,0,0,1-.17.93c-.37.56.13,3.84.4,4.42.56,1.19.92.51,2.15.18,0-.37.2-2.54.25-2.91-.35-.54-.25-.32-.25-1v-2.48a6.4,6.4,0,0,1,.44-1.94c.13-1.12,0-2.3.93-3.27.58.51,2.55,2.4,3.12,2.91.29-.36.07-1.38.36-1.73a24.83,24.83,0,0,0-2.4-2,25.36,25.36,0,0,0-6.21-2.4c-2.44-.78-4.92-1.38-7.34-2.26-2.24-.82-4.57-1.41-6.85-2.11-1.23-.38-2.53-.45-3.73-1-2.08-.87-4.08-1.9-6.08-2.91a17.28,17.28,0,0,1-4.47-2.88,12.75,12.75,0,0,0-4-2.84c-.23-.1-.51-.14-.53-.52-.11-1.95-.93-3.78-.3-5.88a37.9,37.9,0,0,0,.91-6.53,1.52,1.52,0,0,1,1-1.41,3.22,3.22,0,0,0,2.1-2.74,6.64,6.64,0,0,1,1-3,4.51,4.51,0,0,0,.74-2.5c0-2.3,0-4.6,0-6.9a3.14,3.14,0,0,0-.54-2.11,1.86,1.86,0,0,1-.38-1.42c.27-1.67.52-3.35.67-5,.34-3.69,1.31-7.32.31-11.09a9.78,9.78,0,0,0-2.46-5,.9.9,0,0,1-.35-.79,13.18,13.18,0,0,0-.38-3.43,3.07,3.07,0,0,0-1.16-2.49V19a4.72,4.72,0,0,1-.46,2,2.1,2.1,0,0,0-.12,1,5.6,5.6,0,0,0,.75-1.71,5,5,0,0,1-.42,3.31,15,15,0,0,1-2,3.28.91.91,0,0,0-.24.64c.37.38.5-.06.63-.22a14.88,14.88,0,0,0,1.86-3.18c.23-.52.29-.84,1-.19,1.69,1.64,2,3.82,2.67,5.88a.67.67,0,0,1-.17.83c-.31.22-.17.53-.1.83a5,5,0,0,1,.16,2.61,2.53,2.53,0,0,0,0,1.31,3.09,3.09,0,0,1-.37,2.3l-.14-.86a29,29,0,0,0-.51,3.3c-.28,1.49-.33,3-.51,4.54a2.14,2.14,0,0,1-.75,1.5,4.39,4.39,0,0,0-1.18,2.75c-.64-.92-1.26-1.86-1.93-2.76-.23-.32-.37-.82-.93-.76,1.42,1.92,1.33,4.29,1.86,6.47a15.1,15.1,0,0,1,.3,2.42,12.89,12.89,0,0,1-1.92,8,9.82,9.82,0,0,0-.6,1.36h0c.47.35.54,1,.26,1.74.54-.71.72-1.77,1.31-2.7-.12,1.37-.16,2.75-.39,4.1a24.6,24.6,0,0,0-.36,2.83c-.11,2.53-1.48,4.56-2.68,6.66a40.52,40.52,0,0,1-6,7.29,12.82,12.82,0,0,1-5.53,3.89,11.83,11.83,0,0,1-5,.24c-.57-.08-1.14-.13-1.71-.2l-.21.19c.33.68,1.11.71,1.64.83,2.81.61,5.61.77,8.09-1.11L110.67,85c.51-1.22,1.74-1.8,2.51-2.8a69.31,69.31,0,0,0,4.3-7c.16-.28.3-.56.58-1.07.09,2.33,0,4.39-.07,6.44,0,.54-.12,1.08-.11,1.61.05,2.87-1.64,5-3.13,7.13-.74,1.07-1.6,2-2.43,3.1.72.07.74.08,2.91-2.8.86-1.14,1.58-2.39,2.4-3.56s.73-2.78,1.17-4.17a22.27,22.27,0,0,1,.6,6.34c-.05,1.73-.23,3.46-.11,5.19.17,2.67-.33,5.29-.39,7.93a1.19,1.19,0,0,1-.47.86,46.72,46.72,0,0,0-4.09,4.69c-.52.61-.66.59-1.24,0a73.56,73.56,0,0,1-6.21-7.33A5,5,0,0,0,104.71,98c-.17-.07-.31-.11-.35-.31s.18-.3.36-.37c.47-.19.92-.42,1.41-.57a16.44,16.44,0,0,0,5.54-3.09c.19-.15.43-.33.19-.56s-.35.07-.5.2a14.53,14.53,0,0,1-5.3,2.79,7.8,7.8,0,0,0-2.64,1.44c-.61.49-1,.44-1.65,0-2.09-1.62-4.37-3-6.43-4.64-.28-.23-.65-.59-1.14-.39-.33-1-1.32-1.3-2-1.8a17.24,17.24,0,0,1-6.3-7.41c-.72-1.64-.5-3.38-.58-5.1a6.14,6.14,0,0,1,.19-2L86.72,78c.34-.49.1-.75-.11-1.07a17.38,17.38,0,0,1-2.53-7.49c-.26-1.78-.42-3.59-.68-5.37s-1-3.75-1-5.76-.06-3.93-.12-5.9A2.41,2.41,0,0,1,82.57,51c-.86.42-1.64.7-1.49,1.74-.4.1-.33-.18-.39-.35a.34.34,0,0,0-.42-.17.23.23,0,0,0-.18.31,10.19,10.19,0,0,1-.12,2.2c0,.7.26,1.1,1,1.09.29,0,.45.12.31.29-.64.77,0,1.36.19,2,.28-.55-.07-1.2.36-1.73a31.7,31.7,0,0,0,.83,6.26c-2.44-.29-3.19-1.27-3.12-3,.06-1.35-1.08-2-1.13-3.19v0c0-.31,0-.61,0-.92s.07-.67.11-1v0l0-.54c-.23.07-.46-1.09-.64-1.15a10.68,10.68,0,0,0,0,2.26c-.1,1.67.72,3.14,1,4.73a4.91,4.91,0,0,0,2.84,4,1.11,1.11,0,0,1,.72.89,37.07,37.07,0,0,1,.75,4.27A61,61,0,0,0,84,75.81c.09.5.18,1-.3,1.41A51.78,51.78,0,0,1,79.11,81a7.69,7.69,0,0,1-2.46,1.68,18.73,18.73,0,0,1-7.22,4.17c-3.7,1.26-7.32,2.73-11,4.11-3.15,1.19-6.32,2.34-9.57,3.22a4.51,4.51,0,0,1-3.28.18c-.48-.22-1,.11-1.38.44a9.84,9.84,0,0,0-3.66,6.32,12.75,12.75,0,0,1-1.08,4.2,25.9,25.9,0,0,1-6.25,7.58,3.47,3.47,0,0,0-1.49,2.76,15.18,15.18,0,0,1-1.86,7.19,26.18,26.18,0,0,1-2.37,3.74,14.23,14.23,0,0,0,.2-2.24c.17-3.25.12-6.53.6-9.76.33-2.2.87-4.37,1.15-6.58.23-1.78.05-3.55,1-5.32a77.19,77.19,0,0,0,3.08-7.78c.79-2,1.69-4,2.35-6a37.56,37.56,0,0,1,3.07-7.42A2.2,2.2,0,0,0,39,79c-.93-1.3-.87-2.73-.89-4.18,0-.38.13-.83-.28-1.13,0,.92,0,1.84.07,2.75,0,.7-.33,1.07-.93,1s-.26-.63-.35-1a5.69,5.69,0,0,0-.11-.8c-.07.65-.36,1.36.12,1.93s.93,0,1.42-.14a5.26,5.26,0,0,0,.6,1.79,1.82,1.82,0,0,1-.11,1.74c-1.72,2.8-2.56,6-3.73,9a4.74,4.74,0,0,1-.57,1.12c.44-2.35,0-4.73.42-7.07a2.9,2.9,0,0,0-.45-2.26,7.65,7.65,0,0,1-1-4.18,6.5,6.5,0,0,1,1-4.16,2.91,2.91,0,0,1,3.68-1.18c0-.41-.26-.54-.57-.71a2.68,2.68,0,0,0-2.41.24c-.65.27-.68.08-.67-.45,0-2,0-4.06,0-6.09,0-.19,0-.42.22-.51h0c-.33-.26-.19-.63-.18-1,0-1.32.05-2.65.06-4,.06-4.79.16-9.58,0-14.37a2.75,2.75,0,0,0-1.52-2.55,6.05,6.05,0,0,0-2.73-.71q-9.22,0-18.45,0a3.57,3.57,0,0,0-3.14,3.29c0,3.56,0,7.13,0,10.7,0,.21.12.47-.18.65a3.16,3.16,0,0,0-.43-.39c-1.71-1-3-1.16-3.5,1.3a11.06,11.06,0,0,0,1,6.9c0-.2.12-.45,0-.59-1.23-2,0-4.32-.61-6.43-.17-.63.33-1.13.87-1.47s1.13,0,1.56.29A2.69,2.69,0,0,1,8.68,59c-.07,1.38-.17,2.77-.26,4.15,0,.1,0,.25,0,.3-1.2.94-.46,2-.14,3a.7.7,0,0,0,.89.47c-.17-4.79,0-9.58-.05-14.37,0-2.28,0-4.56,0-6.83A2.7,2.7,0,0,1,12,42.73q9.33.06,18.66.06c2,0,3.21,1.12,3.17,3.05-.2,8.3-.16,16.59,0,24.88a8,8,0,0,1-.32,3.52c-.4-.34-.24-.76-.24-1.12q0-11.67.06-23.35c0-.87-.34-1.15-1.15-1.1-.57,0-1.15,0-1.73,0l0,0,0,0H16.72l0,0,0,0h-6l0,0,0,0c-.62.54-.52,1.28-.53,2,0,3.57-.06,7.14-.08,10.71v.85c0,1.2,0,2.41,0,3.61v1c0,1,.85,1.3,1.28,1.94a8.32,8.32,0,0,0,.89.94,1.77,1.77,0,0,0-.49.26,1.84,1.84,0,0,1,.65.42l1,.94c.28.26.19.54.07.83L12,72.82a1.1,1.1,0,0,1-1.6-.71,1.46,1.46,0,0,1,.23-1.82,1.63,1.63,0,0,1,.22-.17,1,1,0,0,1-.26-.15c-.22-.17-1,.48-.86,1.11a5.28,5.28,0,0,0,.57,1.79.93.93,0,0,0,1.34.4,4.77,4.77,0,0,0,1.79-1.09c.32,0,.62-.11.65.44a2.21,2.21,0,0,1-2.81,2.17,1.66,1.66,0,0,1-1.11-.63c-.71,2.22,1.2,2.29,2.2,3.12-.49.42-1.15.71-1.43,1.46.5-.08.56-.51.82-.72s.65-.54,1-.37a1,1,0,0,1,.32,1.2,1.9,1.9,0,0,1-2.24,1.22c-.83-.29-.79.07-.78.67.05,2.18.05,4.36.06,6.53,0,1.38.13,1.51,1.49,1.52q9.69,0,19.39.06c2.21,0,2.21,0,2.22-2.17,0-1.65,0-3.3,0-5.05A1.17,1.17,0,0,1,33.9,83c0,2,0,4.08,0,6.12a14.77,14.77,0,0,1-.45,3.11,2.68,2.68,0,0,1-2.4,2c-.83.14-1.68.16-2.52.23h-.61l-6.15,0a.45.45,0,0,1-.45,0h-.41a1.37,1.37,0,0,1-.85,0l-2.23,0h-.24l-2,0a3.05,3.05,0,0,1-1.5,0c-.8,0-1.6-.08-2.4,0a2.25,2.25,0,0,1-1.95-.69l-.3.16a2.59,2.59,0,0,0,2.8,1.73c2.48-.07,5-.13,7.42-.28.67,0,.68.16.62.68a12.25,12.25,0,0,0,1,6.31,1,1,0,0,0,.23.31,1.87,1.87,0,0,0,.32.16,3.88,3.88,0,0,0-.24-1.68,5.92,5.92,0,0,1,.08-4.4c0-.07.09-.13.09-.19,0-1.65,1.08-1.21,2-1.06a18.63,18.63,0,0,0,3.95-.2L30.51,95a7,7,0,0,0,1.76-.47c.22-.15.45-.47.67-.19s-.1.48-.23.72A30,30,0,0,0,31,98.49a33.67,33.67,0,0,1-2.12,4.56,2.24,2.24,0,0,1-.42.54c-.3.32-1,.72.08.94.22,0,.12.29.13.44a20.18,20.18,0,0,1-.74,6,11.09,11.09,0,0,0-.46,2.6c-.15,4.28-1,8.49-1.18,12.75-.19,3.94-.49,7.88.42,11.85C27.86,143.39,29,148.62,28.9,154c0,1.46.34,3-.16,4.4A12.17,12.17,0,0,1,26.07,163a37.71,37.71,0,0,1-8.73,6.27,3.23,3.23,0,0,0-1.59,1.87c-.1.34-.31.58-.61.15-1.63-2.3-3.94-3.94-5.79-6a11.85,11.85,0,0,1-2.69-5.77c-.87-4.4-.25-8.81.2-13.2a70.43,70.43,0,0,1,1-8.18c1-4.53,1.41-9.16,2.28-13.72a70.11,70.11,0,0,0,.73-9.3c.13-2.43-.72-4.78-.24-7.18.08-.39.13-.78.19-1.22.72.35,1,1.21,2.15,1-2.08-.77-1.79-2.7-2.47-4.09-.58-1.2-1.49-2.14-2.14-3.28A30.81,30.81,0,0,1,6,94.2c-.43-1.36-.69-2.75-1-4.13a7.61,7.61,0,0,0-.77-2.19C4,87.51,4.09,87,4,86.61s1.13-1.31-.38-1.2A2.36,2.36,0,0,1,3.52,85c-.67-2.62-.6-5.32-.92-8,0-.3.22-.62.22-.86,0-.73,1.49-.35.94-1.44a19.54,19.54,0,0,1-.59-2A4,4,0,0,1,3,69.8c-.75,0-.54.72-.78,1.11L2,71.19c.41,1.18.21,2.51.87,3.63.19.52-.23.75-.51,1A4.6,4.6,0,0,0,2,77.31,29,29,0,0,0,3,86.15a8.2,8.2,0,0,1,.54,1.72A36.55,36.55,0,0,0,5.78,97a30.5,30.5,0,0,0,3,5.34c.72,1.21,1.56,2.59,1.24,3.86a18,18,0,0,0-.29,6.37,47.36,47.36,0,0,1-2,18.48,71.75,71.75,0,0,0-2.28,11c-.53,3.85-1.18,7.73-.85,11.65a2.14,2.14,0,0,1-.25.87,7.54,7.54,0,0,0,0,5.93,23.9,23.9,0,0,1,2.22,9,27.46,27.46,0,0,0,1,4,6.81,6.81,0,0,0,1.5,2.32,36.57,36.57,0,0,0,2.43,2.83c.29.29.87,1,1.32,0,.11-.25.1-.86.56-.67s1.41.2,1.75.87c.82,1.61,1.81,1.9,3.21.71a9.53,9.53,0,0,1,4.49-2.11,11.18,11.18,0,0,0,4.51-1.7c1.56-1.15,2.8-2.69,4.78-3.32.91-.3,1.4-1.41,1.92-2.27.72-1.21,1.32-2.47,2.67-3.18a3.39,3.39,0,0,0,1.1-1.31c1.19-1.95,2.3-4,3.52-5.9a58.52,58.52,0,0,0,4-7c1-2.13,2.69-3.81,4.12-6,.47,3.41,1.09,6.52,1.47,9.69a85.35,85.35,0,0,1,.91,12c-.19,7.07-.44,14.18-1.79,21.16a34.71,34.71,0,0,1-1,4.45c-.65,1.91-1.52,3.74-2.15,5.65a29.37,29.37,0,0,0-1.27,5.11c-.08.52-.27.76-.65.85h2.54c-.14-.09-.17-.3,0-.84.65-1.92,1.51-3.74,2.18-5.64a55.74,55.74,0,0,0,2.47-10.83,84.31,84.31,0,0,0,.63-12,4,4,0,0,1,.22-1.22c-.06,2,.64,3.87.72,5.83a26.07,26.07,0,0,0,.63,3.51,80.5,80.5,0,0,0,2,8.8c.08.27.12.61.44.75a11.28,11.28,0,0,0-.31-3.52c-.77-4.61-1.59-9.21-2.18-13.85a174.85,174.85,0,0,1-1.27-18.29,34.4,34.4,0,0,0-1.11-8.66c-.06-.2,0-.43-.23-.54-.82-.47-.81-1.29-.84-2.05-.09-2.58-1-5-1.58-7.45-.46-2-.69-4-1.16-6a38.15,38.15,0,0,1-1.07-8.36c0-3.7.1-7.42-.66-11.07-.32-1.59-.84-3.13-1.29-4.69,0-.14-.22-.24-.53-.58a27.05,27.05,0,0,0,.66,4,17.87,17.87,0,0,1,.56,4.43c0,3,0,6.06,0,9.09,0,.87-.3,1-1.07,1.13-1.14.18-2.36.12-3.39.93,1.15-.17,2.3-.29,3.43-.54.79-.17,1.14.07,1.19.84a95.4,95.4,0,0,0,1.66,9.94,34.75,34.75,0,0,0,1.25,5,2.92,2.92,0,0,1-.75,3c-3.23,3.87-5.66,8.28-8.47,12.43-1.45,2.13-2.42,4.58-4.29,6.43-.46.45-.85,1-1.3,1.39a1.76,1.76,0,0,0-.66,1.43c0,.7-.7,1.36-1.31,2,0-.23-.05-.36,0-.42.91-1,.4-2.09.35-3.22-.13-2.9-.84-5.75-.75-8.77.67.62.53,1.63,1.35,2.12-.2-1.56-1.07-2.82-1.55-4.22-.43-1.22-1.19-2.25-1.7-3.41-.14-.34-.52-.67-.2-1s.49.38.84.24l.14-.14c-1.24-.65-1.38-1.82-1.31-3,0-.67-.53-1.32,0-2h0c-.86-1.64-.62-3.54-1.18-5.26-.26-.77-.33-1.6-.56-2.38s.07-.82.64-.73c1.53.24,3,.51,4.16,1.8.7.8,1.54,1.49,2.39,2.29,0-.21.08-.35,0-.39-1.83-2.07-3.76-4-6.8-4-.5,0-.65-.27-.74-.66a26.52,26.52,0,0,1-.41-7.8c0-.13,0-.34.08-.38.85-.46,1.07-1.37,1.44-2.14,1-2,2.6-3.65,3.72-5.6.46-.81.42-1.87,1.27-2.48.22-.16-.07-.26-.14-.38a4.55,4.55,0,0,1-.24-3.91,1.68,1.68,0,0,1,1.43-1.18c.13,3,2.24,4.44,4.39,5.85.84.55,1.64,1.28,2.77,1.2-1.14-.93-2.55-1.44-3.67-2.4a8.63,8.63,0,0,1-3-4.21,1.32,1.32,0,0,1,.31-1.47c.56-.56.8-1.4,1.45-1.92a6.76,6.76,0,0,1,2.17-2.89c.69-.55.93-1.62,1.54-2.29,1.53-1.68,1.11-3.9,1.72-5.83a5.68,5.68,0,0,1,1.85-2.78c.32-.27.61-.75,1.16-.71C44,100,42.75,104,44.7,108.16a2.82,2.82,0,0,0,.3-2.29,24.74,24.74,0,0,1,.93-8.94,2.32,2.32,0,0,1,2-1.85,37.86,37.86,0,0,0,6.59-1.93c2.38-.85,4.78-1.63,7.11-2.58,2.75-1.12,5.52-2.17,8.36-3,.57-.17,1-.66,1.76-.59a34.11,34.11,0,0,1-3,6,20.73,20.73,0,0,1-2,3c-.33.39-.29.74.33.86a14.23,14.23,0,0,0,2.67.64.65.65,0,0,1,.52.24c.19.32-.2.36-.35.49C68.53,99.23,67,100,65.5,101c-.19.13-.41.24-.59.39-1.67,1.34-1.76,1.51-.67,3.32s1.28,4,1.74,6.1.71,3.93,1,5.9c.47,3,1.26,5.95,1.54,9a123.09,123.09,0,0,0,1.6,12.5,93.78,93.78,0,0,1,2.09,15.69,74.71,74.71,0,0,0,1.21,12.55,11.82,11.82,0,0,0,1,3c.29.59-.21,1-.05,1.45l.37-.39.49-.25A73.67,73.67,0,0,1,73.7,160.1c-.42-4.63-.56-9.27-1-13.89a43.26,43.26,0,0,0-.89-4.89,64.77,64.77,0,0,1-1.15-7.43c-.36-3.78-.6-7.58-1-11.35-.21-1.92-.71-3.8-1-5.7-.48-2.81-.86-5.63-1.4-8.42a11.7,11.7,0,0,0-1.61-4.34c-.45-.67-.42-1.22.25-1.63,2.88-1.8,5.22-4.32,8.23-5.94,2-1.1,3.84-2.64,5.91-3.71.51-.26,1.14-.74,1.56-.52s.07,1,.06,1.49c0,2.83-.12,5.65-.11,8.47,0,2.48-.42,4.92-.63,7.38-.26,3-.49,6-.79,8.93q-.48,4.88-1.07,9.72a14.09,14.09,0,0,0-.14,1.83c0,5.13-.66,10.23-.79,15.35C78,150.31,77.49,155.14,77,160c-.35,3.44-.59,6.9-1.21,10.31a4.44,4.44,0,0,0,.53.28c.24.08.47.36.74.12a.7.7,0,0,0,.11-.94.87.87,0,0,1,.2-1.3c.33-.29.27-.67.29-1,.47-6.6,1-13.2,1.41-19.8.19-2.81.28-5.63.43-8.45.28-5.52.3-11.05,1.15-16.53.1-.63,0-1.29.1-2,4.12,11.37,8.31,22.69,12.75,33.91.62-.17.78-.6,1.12-.81-1.31-3.16-2.65-6.3-3.92-9.48-.7-1.74-1.26-3.55-1.94-5.3-1-2.7-2.14-5.38-3.25-8.05-1.33-3.18-2.2-6.54-3.64-9.64-1.3-2.79-.5-5.46-.41-8.17.09-2.43.24-4.89.56-7.31.41-3.17.14-6.35.48-9.77a31.83,31.83,0,0,1,3.14,5.33,25.45,25.45,0,0,0,3.88,5.8c.39.49.84.62,1.22-.13a7,7,0,0,1,2.66-2.52c1.42-.92,3.23-1.23,4.13-2.73.36.08.33.26.3.36a3.91,3.91,0,0,0,1.09,3.65,4.65,4.65,0,0,1,1.09,4.81,31.71,31.71,0,0,0-.91,7.95c-.07,4.35.15,8.71.09,13.06-.07,4.71-.12,9.42-.12,14.13-.07,3.47-.13,6.69-.18,9.25a2,2,0,0,0-.06.93c0,.13,0,.26,0,.38,0,.64,0,1.23,0,1.75a10.75,10.75,0,0,0,0,2.66c-.81-.33-4.16-6.79-4.59-7.29-1.09.53-1.6.33-.74,1.14,1.09,1,2.64,6.47,4,7,.45.19,3.08,2,3.06,2.52-.07,2.05.88,4.07,1.09,6.1.13,1.22.2,2.43.22,3.66.07,4.52.23,9,.17,13.56,0,2.18-.58,4.34-.62,6.56,0,2.74.43,5.41.62,8.11a16.86,16.86,0,0,1,0,2.75c0,.54-.22.77-.56.86h1.7c-.49-.13-.24-.49-.22-.75a44.35,44.35,0,0,0-.33-7.29l-.12-1.33v-1.58a18.32,18.32,0,0,1,.35-5.58,32.37,32.37,0,0,0,0-6.6c-.17-2.75-.08-5.51-.11-8.26v-1.2c-.07-2.55-.64-5-.86-7.57,0-.17,0-.34,0-.51-.1-1.52-.13-1.35,1.32-1.12a12.22,12.22,0,0,0,5.91-.22,14.78,14.78,0,0,0,4.94-2.62c.92-.76,1.12-2,2-2.77.93-2.15,2.24-4.12,3.1-6.31.12-.29.15-.58.24-.86a73.78,73.78,0,0,0,2-7.73,33.12,33.12,0,0,0,.43-5.88,2.38,2.38,0,0,1,.52-1.53c0,3.65.61,7.06.92,10.5.39,4.22,1.46,8.35,2,12.55.3,2.59.57,5.18,1.05,7.75a53.8,53.8,0,0,0,2.56,8.93c1.51,4.07,3.38,8,5,12a31.93,31.93,0,0,1,1.94,8.89c.15,1.43.57,2.78.84,4.17a25.07,25.07,0,0,0,1,4.35c.14.37,0,.52-.17.58H139c-.29-.08-.42-.29-.51-.66-.47-2.12-.73-4.29-1.39-6.36-.21-.64.64-.06.6-.66a12.69,12.69,0,0,1,.32-2.51.69.69,0,0,1,.24-.48v3.67c.17-1.8.08-3.6.1-5.39a120.74,120.74,0,0,0-.45-14.36c-.41-3.92-1-7.82-1.38-11.74-.31-3.31-1.11-6.53-1.38-9.85s-1-6.5-1.51-9.74c-.46-2.83-.48-5.69-.68-8.53a85.94,85.94,0,0,1-.17-9.08,80.13,80.13,0,0,1,1-10.23c.59-3.6,1.28-7.2,2.18-10.73.41-1.61-.41-1.9-1.19-2.54-1.56-1.3-3.16-2.54-4.72-3.83-.79-.65-.73-.8.13-1.25a16.14,16.14,0,0,1,3.38-1c1-.27,1.09-.52.43-1.35a32.87,32.87,0,0,1-5.6-9,58.12,58.12,0,0,1-2.22-5.71c-.09-.32-.16-.64-.24-1C126.26,83.2,126.43,83.36,126.65,83.47Zm-4.22-34.14a8.31,8.31,0,0,0,.59-2.55c0-.34.23-.78.5-.8.45,0,.68.48,1,.78a.54.54,0,0,1,.11.79,42.3,42.3,0,0,0-2.87,4.5C122,51.14,122.12,50.21,122.43,49.33ZM121,53c.15-.1.19.06.22.18.48,0,.52.33.53.7s-.45.25-.64.42c.22-.34-.09-.66,0-1C121,53.21,120.9,53.07,121,53Zm-.11,1.85c0-.24.15-.35.2-.53a16.51,16.51,0,0,1,.26,5.21c.26-.06.35,0,.37-.08A18.14,18.14,0,0,0,123,54.8a1.08,1.08,0,0,0-.17-.68,2.78,2.78,0,0,1,.26-3.25l.71,1.86c.08.21.09.49.44.37.15-1.47-.47-2.94.15-4.4.28,1.47.81,2.94-.14,4.39a10.38,10.38,0,0,1,0,3.85c-.13.69-.57,1.2-.74,1.85a16.5,16.5,0,0,0-.59,1.93c-.21,1.5-1.54,1.77-2.56,2.38-.08-.1-.16-.15-.15-.19A32.78,32.78,0,0,0,120.91,54.83Zm-1.14,7.1a.46.46,0,0,1,0,.63C119.55,62.34,119.65,62.14,119.77,61.93ZM13.06,172.16a1.69,1.69,0,0,0-.33,1.12c-.05,1.51.18,3.05-.51,4.72-2.12-3.46-4.85-6.47-4.36-10.94a9.5,9.5,0,0,0,1.66,2.27c.13.12.23.41.47.18s0-.32-.07-.45a31.31,31.31,0,0,1-3.62-6.2,10.69,10.69,0,0,1-1.55-5.79,4.62,4.62,0,0,1,.57-1.73c.22,1.46.42,2.73.6,4A12.58,12.58,0,0,0,9.18,166c1.21,1.37,2.54,2.61,3.83,3.9C14,170.85,13.94,171.08,13.06,172.16Zm2,5.89a8.79,8.79,0,0,1-1.35-.86c-.66-.45-.83-.95-.1-1.49-.5-.83-.47-.93.36-1.32a.48.48,0,0,0,.24-.27c0-.17-.14-.18-.26-.23s-.55,0-.72-.28-.29-.66.18-.92c.7-.38,1.36-.88,2.23-.55.07,0,.09.24.09.36a37.46,37.46,0,0,0,.29,5C16.14,178.39,15.6,178.3,15.07,178.05Zm8-1.47c-.2.08-.37-.08-.52-.2.16,0,.35,0,.46,0,1.68-1.21,3.66-1.88,5.38-3A14.45,14.45,0,0,1,23,176.58Zm5.43-3.32c.26-.19.38-.61.81-.56C29.1,173.05,28.88,173.31,28.45,173.26Zm.86-.6a1.78,1.78,0,0,1,1-.93A2.57,2.57,0,0,1,29.31,172.66Zm.75-14.48c.21-.6.12-1.28.57-1.91a6.62,6.62,0,0,1,.46,1.92,60.48,60.48,0,0,0,.86,9.69,1.45,1.45,0,0,1-.36,1.11,21.72,21.72,0,0,1-6.29,5.55,12.75,12.75,0,0,0-2.82,1.83h0a16.94,16.94,0,0,0-4.57,2.31c-.33.22-.58.68-1,.48s-.2-.72-.23-1.1a17.94,17.94,0,0,0-.28-3.22c-.68-2.53.39-4,2.61-5a21.08,21.08,0,0,0,6.91-5.18A17.46,17.46,0,0,0,30.06,158.18ZM81.94,90.64c0,.27,0,.46-.4.58-2.5.84-4.56,2.47-6.76,3.84l-2.55,1.62c-1.41.89-2.62-.23-3.93-.41-.42,0-.15-.42,0-.63A96.86,96.86,0,0,0,72.79,87c.25-.53.52-1.25,1.4-.7.22.14.41-.16.6-.29,2.65-1.79,5-4,7.49-6A2.07,2.07,0,0,0,83,79c.1-.32.2-.74.73-.74.09.77-.52,1.35-.6,2.09C82.75,83.78,82.59,87.24,81.94,90.64Zm13.57,11.59c-1.84,1.43-4.22,2.16-5.52,4.44a25.89,25.89,0,0,1-3.6-5.54,22.61,22.61,0,0,0-3.47-5.4,1.81,1.81,0,0,1-.43-1.28A100.92,100.92,0,0,1,83.65,84c.19-1.47.55-2.91.85-4.45.71.51.32,1.19.39,1.71A13.17,13.17,0,0,0,89,88.59c1.41,1.45,3.15,2.49,4.69,3.79a.45.45,0,0,0,.55.06c.45,1,1.48,1.21,2.2,1.83,1.53,1.28,3.39,2.13,4.94,3.56a5,5,0,0,0-3.11,2.37C97.61,101.17,96.4,101.54,95.51,102.23Zm25.25,34.14c-.13,1-.18,2-.25,3a33,33,0,0,1-1,6.08,49.65,49.65,0,0,1-2,6.56,61.08,61.08,0,0,1-3.35,6.48,7.57,7.57,0,0,1-1.68,2.21c-.3.25-.66.51-1,.38,0-.19-.27-2.65-.64-6.27-.07-2-.07-3.9-.14-5.85-.19,0-1.45-12.73-2.06-16.13-.75-7.42-1.38-13.47-1.48-13.76,0-.12-.13-.56-.27-1.2-.26-2.21-.55-4.42-.76-6.63a13.7,13.7,0,0,0-.89-3.48,1.54,1.54,0,0,1,.06-1.19,17,17,0,0,0,1.58-6.24,8.11,8.11,0,0,1,1.47,2.07c1.47,2.16,3.6,3.72,5.18,5.78.32.44.73.48,1.09-.25,1-2,2.78-3.43,4.21-5.16.14,2.73.56,5.37.53,8.05s.66,5,1,7.57c.27,2.15.55,4.31.82,6.46.08.67.1,1.36.24,2C122.06,130.13,121.15,133.24,120.76,136.37Zm7.15-44.72a38.32,38.32,0,0,0,4.55,6.95c.76.93.76,1-.35,1.26a11.58,11.58,0,0,0-3.1,1.22,1.11,1.11,0,0,1-1.51-.21,31,31,0,0,1-5.73-7c-.11-.17-.23-.33-.33-.51s-.28-.35-.48-.22-.1.37,0,.54c.72,1.21,1.41,2.44,2.18,3.61a22.7,22.7,0,0,0,1.66,2,21.7,21.7,0,0,0,4.33,3.6c2,1.43,3.84,3.09,5.75,4.65a.85.85,0,0,1,.28,1,79.49,79.49,0,0,0-2.27,10.09,66.69,66.69,0,0,0-1.13,11.83c-.09,4.87.24,9.72.45,14.57a65.86,65.86,0,0,0,1,6.94,73.84,73.84,0,0,1,1,8.27,10.21,10.21,0,0,0,.48,2.46c.74,2.47.72,5,1.1,7.54s.79,5,1,7.46c.49,5.2,1.13,10.4.33,15.64a25.75,25.75,0,0,0,0,3.83h-.23c-.23-1.46-.5-2.92-.68-4.38a28.87,28.87,0,0,0-2.37-7.5c-1.18-2.83-2.44-5.62-3.54-8.48a41.35,41.35,0,0,1-2.31-6.57,57.54,57.54,0,0,1-1.56-9.21c-.14-3.5-1-6.89-1.39-10.35-.35-3.07-.66-6.15-1-9.22-.42-4.15-.8-8.31-1.08-12.48a30.82,30.82,0,0,0-.63-6.46c-.71-2.59-.8-5.35-1.26-8-.65-3.87-.51-7.79-.91-11.68-.28-2.69.48-5.35.24-8-.3-3.34,0-6.7-.32-10.06-.19-2-.08-4.17-.24-6.5a37.09,37.09,0,0,0,3.16,2.85c1.41,1,1.82,2.49,2.32,3.92A54.18,54.18,0,0,0,127.91,91.65Z"/><path class="cls-2" d="M64.75,203.32c-.22,0-.28.12-.32.3a3.65,3.65,0,0,0-.2,1.09c.13.7-.08.94-.41,1h.72c-.23-.06-.17-.24.06-.6A4.23,4.23,0,0,0,65,203.7.31.31,0,0,0,64.75,203.32Z"/><polygon class="cls-2" points="170.75 126.75 170.75 126.75 170.76 126.75 170.75 126.75"/><path class="cls-2" d="M75.46,176.19a4.88,4.88,0,0,0-.27,1.7,71.47,71.47,0,0,1-1.1,8.35c-.65,3.49-1.6,6.95-1.35,10.56a11.84,11.84,0,0,1-.65,3.38,34.66,34.66,0,0,1-1.18,5c-.11.28-.22.45-.44.52h2c-.41-.11-.35-.43-.22-1,.72-3.29,1.79-6.52,1.79-10a30.73,30.73,0,0,1,1-6.44,54.93,54.93,0,0,0,1.39-9,1.73,1.73,0,0,1,0-.51A1.89,1.89,0,0,0,75.46,176.19Z"/><path class="cls-2" d="M41.54,120.6h0Z"/><path class="cls-2" d="M56.82,194.12h0v0Z"/><path class="cls-2" d="M11.63,70a.9.9,0,0,0-.83.15A.79.79,0,0,0,11.63,70Z"/><polygon class="cls-2" points="75.21 170.23 75.21 170.23 75.21 170.24 75.21 170.23"/><polygon class="cls-2" points="36.62 110.6 36.62 110.6 36.61 110.61 36.62 110.6"/><path class="cls-2" d="M120.56,22v0l0,0Z"/><path class="cls-2" d="M110.69,84.94l0,0h0Z"/><path class="cls-6" d="M31.78,88.87H11.32a1.27,1.27,0,0,1-1.27-1.27l.09-7.41a5.18,5.18,0,0,0,1.68,0c.86-.24,1.83-1.5,1.28-2.31A12,12,0,0,0,10.59,76s-1.07-1.26.37-1c3.9.78,3.29-3,3.29-3l-.2-.27-.25-.35-1.68-1.73L10,67.48,10.05,50a1.27,1.27,0,0,1,1.27-1.27H31.78A1.27,1.27,0,0,1,33.05,50V87.6A1.27,1.27,0,0,1,31.78,88.87Z"/><path class="cls-1" d="M14.73,67.11,22,60.86l7.27,6.25a.83.83,0,0,0,.51.19.81.81,0,0,0,.59-.27.78.78,0,0,0-.09-1.1l-7.77-6.69a.79.79,0,0,0-1,0l-7.77,6.69a.78.78,0,0,0-.09,1.1.79.79,0,0,0,1.1.08Zm0,0"/><path class="cls-1" d="M21.66,61.85,15.8,66.9a.55.55,0,0,0-.18.4v7.31a.52.52,0,0,0,.52.51H27.86a.51.51,0,0,0,.52-.51V67.3a.55.55,0,0,0-.18-.4l-5.86-5.05a.52.52,0,0,0-.68,0Zm-.18,11a.52.52,0,0,1-.52.52H19.15a.52.52,0,0,1-.52-.52V71a.52.52,0,0,1,.52-.52H21a.52.52,0,0,1,.52.52Zm0-3.89a.52.52,0,0,1-.52.52H19.15a.52.52,0,0,1-.52-.52V67.13a.52.52,0,0,1,.52-.52H21a.52.52,0,0,1,.52.52Zm1-1.81a.52.52,0,0,1,.52-.52h1.81a.52.52,0,0,1,.52.52v1.81a.52.52,0,0,1-.52.52H23a.52.52,0,0,1-.52-.52Zm0,3.89A.52.52,0,0,1,23,70.5h1.81a.52.52,0,0,1,.52.52v1.81a.52.52,0,0,1-.52.52H23a.52.52,0,0,1-.52-.52Zm0,0"/><path class="cls-11" d="M78.17,52.28c-.12-3.06-.68-2.26,0-4s.68-1.53,1.74-1.86a1.89,1.89,0,0,1,1.63.08"/><path class="cls-12" d="M81.57,52.28c.74-.52.93-6.18.92-6.81,0-2.57,1.06-5,2.15-7.45a7.33,7.33,0,0,1,3.21-3.83,15.88,15.88,0,0,1,11.49-1.07,13,13,0,0,0,4.57.21c.23,0,6.61.33,6.74-.08a4.81,4.81,0,0,0,1.59-.18,21.92,21.92,0,0,1,2.53.81,6.61,6.61,0,0,1,3.79,4.29,14.2,14.2,0,0,1,.46,5.74,26.78,26.78,0,0,1-.41,2.83c3,2.19,1.85,7.35,2.39,6.52l1.06.86a10.42,10.42,0,0,0,.38-1.82,5.94,5.94,0,0,1,1-2.57,20,20,0,0,0,1.22-3.12,5.12,5.12,0,0,0,.11-1.87,3.29,3.29,0,0,1,.58-1.83c.94-2.07,1.85-4.16,2.76-6.24a.6.6,0,0,0-.08-.51c-.08-.08-.32,0-.46,0s-.54.41-.82.58c-.6.33-1,.09-.92-.65.27-3.28,2.58-7.16,5.41-8a4.42,4.42,0,0,0,.5-.1,6.76,6.76,0,0,0,.61-.38c-.17-.2-.32-.58-.49-.58a18.73,18.73,0,0,0-2.7.05c-.61.06-1.22.27-1.87.28l5.94-4.92c-.75-.67-1.58-.27-2.41-.36.82-1.3,1.6-2.56,2.43-3.78a6.85,6.85,0,0,1,.93-.85,1.35,1.35,0,0,0,.14-.5c-.15,0-.35-.11-.44,0-2.26,1.8-4.9,1.62-7.39,2.19-.5.11-1,.27-1.6.44.85-1.34,1.63-2.57,2.38-3.81a2.3,2.3,0,0,0,.15-.72c-.21.07-.48.08-.63.24A9.29,9.29,0,0,1,121,18.06c-1.62.26-3.22.76-5.07,1.21a12.4,12.4,0,0,0,4.31-10.81L120,8.32c-.58.8-1.12,1.62-1.73,2.38a10.17,10.17,0,0,1-5.4,3.87l-3.73.87c.41-.66,1-1.55,1.52-2.46A17.37,17.37,0,0,0,113,4.79c.05-1.24.15-2.48.2-3.71A3.68,3.68,0,0,0,113,.22a3.6,3.6,0,0,0-.71.63c-.89,1.42-1.69,2.91-2.62,4.29a13.47,13.47,0,0,1-7.87,5.56A17.15,17.15,0,0,0,92.72,17c-.62.8-1.15,1.68-1.86,2.73.09-.4.12-.59.17-.78.33-1.2.68-2.39,1-3.6a5.23,5.23,0,0,0,0-1c-.29.24-.48.32-.54.46-.88,1.9-2.39,3.14-3.73,4.56a54,54,0,0,0-4,4.65,10.22,10.22,0,0,0-1,2.81,6.46,6.46,0,0,0-.17,1A24.08,24.08,0,0,0,80,26.26a13.3,13.3,0,0,0-2.6-.89c-.31-.08-.7.13-1.05.21a6.21,6.21,0,0,0,.27,1.11c.41.85.86,1.68,1.32,2.49a17.34,17.34,0,0,1,1.86,7.22c-.3-.72-.6-1.44-.89-2.16l-.4.12a2.32,2.32,0,0,0-.21.81c.26,2.29.51,4.58.87,6.84.16,1,.61,2,.82,3a12.65,12.65,0,0,1,.08,2c0,.61,0,1.23.09,1.84s.79.79.66,1.25c-.23.76.67,1.4.72,2.22"/></svg>