<svg id="Layer_1" data-name="Layer 1" xmlns="http://www.w3.org/2000/svg" viewBox="0 0 52 55"><defs><style>.cls-1{fill:#fff;}</style></defs><title>logo-ed-white</title><path class="cls-1" d="M35.78,14h-1a2.1,2.1,0,0,0-2.09,2.19v1.74l5.22,5.21V16.09A2.09,2.09,0,0,0,35.78,14Z"/><path class="cls-1" d="M25.8,47.85a2.56,2.56,0,1,0,2.56,2.56A2.56,2.56,0,0,0,25.8,47.85Z"/><path class="cls-1" d="M45.17,4.94A4.93,4.93,0,0,0,40.26,0H11.74A4.93,4.93,0,0,0,6.83,4.94v23.3l5.5-5.5V10.93A4.93,4.93,0,0,1,17.25,6h17.5a4.93,4.93,0,0,1,4.92,4.92V22.74l5.5,5.5Z"/><rect class="cls-1" x="20.79" y="29.41" width="4.59" height="4.59"/><rect class="cls-1" x="26.62" y="29.41" width="4.59" height="4.59"/><rect class="cls-1" x="20.79" y="35.23" width="4.59" height="4.59"/><rect class="cls-1" x="26.62" y="35.23" width="4.59" height="4.59"/><path class="cls-1" d="M51,36.3l-25-25L1,36.3a2.09,2.09,0,0,0,0,3l.74.74a2.09,2.09,0,0,0,3,0l2.16-2.16V50.06A4.93,4.93,0,0,0,11.74,55H40.26a4.93,4.93,0,0,0,4.91-4.91V37.83L47.33,40a2.09,2.09,0,0,0,3,0l.74-.74A2.09,2.09,0,0,0,51,36.3ZM25.8,54.15a3.75,3.75,0,1,1,3.75-3.74A3.75,3.75,0,0,1,25.8,54.15ZM39.67,40.67a4.93,4.93,0,0,1-4.92,4.91H17.25a4.93,4.93,0,0,1-4.92-4.91V32.33L26,18.66,39.67,32.33Z"/></svg>