<svg id="Слой_1" data-name="Слой 1" xmlns="http://www.w3.org/2000/svg" viewBox="0 0 640 1030"><defs><style>.cls-1,.cls-7,.cls-8,.cls-9{fill:none;}.cls-1{stroke:#e8418b;}.cls-1,.cls-10,.cls-7,.cls-8,.cls-9{stroke-linecap:round;stroke-linejoin:round;}.cls-1,.cls-10,.cls-5,.cls-8,.cls-9{stroke-width:2px;}.cls-2{fill:#44ad9e;}.cls-10,.cls-3,.cls-5{fill:#fff;}.cls-4{fill:#e8418b;}.cls-10,.cls-5,.cls-8{stroke:#44ad9e;}.cls-5{stroke-miterlimit:10;}.cls-6{fill:#fcc200;}.cls-7{stroke:#fff;stroke-width:3px;}.cls-9{stroke:#fcc200;}</style></defs><title>diagram mob_1</title><line class="cls-1" x1="320.04" y1="370.76" x2="320.04" y2="393.26"/><polyline class="cls-1" points="325.78 388.26 320 395.76 314.22 388.26"/><circle class="cls-2" cx="320" cy="216.28" r="75.94"/><path class="cls-3" d="M288.68,193.24a6.44,6.44,0,0,1,6.41-6.79,6.15,6.15,0,0,1,4.43,1.78l-1.24,1.24a4.73,4.73,0,0,0-3.21-1.28c-2.64,0-4.39,2.19-4.39,5s1.74,5,4.39,5a4.64,4.64,0,0,0,3.21-1.28l1.24,1.24a6.07,6.07,0,0,1-4.43,1.78A6.44,6.44,0,0,1,288.68,193.24Z"/><path class="cls-3" d="M300.08,195.19a4.57,4.57,0,0,1,4.46-4.88c2.4,0,4.46,1.63,4.46,5.19v.26h-7a2.86,2.86,0,0,0,2.94,2.61,3.63,3.63,0,0,0,2.36-.9l1.16,1.16a5.27,5.27,0,0,1-3.69,1.39A4.62,4.62,0,0,1,300.08,195.19Zm7-.81a2.54,2.54,0,0,0-2.44-2.44,2.63,2.63,0,0,0-2.59,2.44Z"/><path class="cls-3" d="M312.77,203.27h-1.84V190.54h1.84v1.41h0a3.56,3.56,0,0,1,3-1.63c2.48,0,4.33,2,4.33,4.86s-1.86,4.86-4.33,4.86a3.57,3.57,0,0,1-3-1.63h0Zm2.74-4.88c1.65,0,2.79-1.39,2.79-3.24a2.82,2.82,0,1,0-5.59,0C312.72,197,313.86,198.39,315.51,198.39Z"/><path class="cls-3" d="M322.24,199.8v-9.26h4.5a2.52,2.52,0,0,1,2.81,2.36,2.17,2.17,0,0,1-1.26,2v0a2.34,2.34,0,0,1,1.71,2.18,2.74,2.74,0,0,1-3,2.72Zm4.24-5.53a1.13,1.13,0,0,0,1.22-1.14,1.12,1.12,0,0,0-1.22-1.13h-2.4v2.27Zm.09,4.07c.84,0,1.52-.45,1.52-1.29s-.67-1.29-1.52-1.29h-2.49v2.59Z"/><path class="cls-3" d="M331.39,195.19a4.57,4.57,0,0,1,4.46-4.88c2.4,0,4.46,1.63,4.46,5.19v.26h-7a2.86,2.86,0,0,0,2.94,2.61,3.63,3.63,0,0,0,2.36-.9l1.16,1.16a5.27,5.27,0,0,1-3.69,1.39A4.62,4.62,0,0,1,331.39,195.19Zm7-.81a2.54,2.54,0,0,0-2.44-2.44,2.63,2.63,0,0,0-2.59,2.44Z"/><path class="cls-3" d="M344.08,203.27h-1.84V190.54h1.84v1.41h0a3.56,3.56,0,0,1,3-1.63c2.48,0,4.33,2,4.33,4.86s-1.86,4.86-4.33,4.86a3.57,3.57,0,0,1-3-1.63h0Zm2.74-4.88c1.65,0,2.79-1.39,2.79-3.24a2.82,2.82,0,1,0-5.59,0C344,197,345.17,198.39,346.82,198.39Z"/><path class="cls-3" d="M271.86,218.59l1.84-3.69h1.93l-1.76,3.69,1.76,3.71H273.7Zm3.85,0,1.84-3.69h1.93l-1.74,3.69,1.74,3.71h-1.93Z"/><path class="cls-3" d="M280.56,222.3l5.16-13.13h1.71l5.14,13.13h-2.21l-1.22-3.3h-5.21l-1.22,3.3Zm8-4.93-2-5.31h0l-2,5.31Z"/><path class="cls-3" d="M294.06,213h1.84v3.77H297l2.89-3.77H302l-3.34,4.28,3.92,5h-2.27l-3.13-4H295.9v4h-1.84Z"/><path class="cls-3" d="M305.55,214.55h-2.83V213h7.73l-.54,1.52h-2.51v7.75h-1.84Z"/><path class="cls-3" d="M311.82,213h1.84v6.34h0L318,213h1.67v9.26h-1.84V216h0l-4.31,6.32h-1.67Z"/><path class="cls-3" d="M322.37,222.3V213h4.5a2.52,2.52,0,0,1,2.81,2.36,2.17,2.17,0,0,1-1.26,2v0a2.34,2.34,0,0,1,1.71,2.18,2.74,2.74,0,0,1-3,2.72Zm4.24-5.53a1.13,1.13,0,0,0,1.22-1.14,1.12,1.12,0,0,0-1.22-1.13h-2.4v2.27Zm.09,4.07c.84,0,1.52-.45,1.52-1.29s-.67-1.29-1.52-1.29h-2.49v2.59Z"/><path class="cls-3" d="M332.2,213H334v3.69h4V213h1.84v9.26H338v-4.05h-4v4.05H332.2Z"/><path class="cls-3" d="M351.12,217.67a4.62,4.62,0,1,1-4.61-4.86A4.64,4.64,0,0,1,351.12,217.67Zm-1.86,0c0-1.86-1.13-3.23-2.76-3.23s-2.76,1.37-2.76,3.23,1.13,3.23,2.76,3.23S349.26,219.54,349.26,217.67Z"/><path class="cls-3" d="M353.14,213h6.06l-.54,1.52H355v7.75h-1.84Z"/><path class="cls-3" d="M368.4,217.67a4.62,4.62,0,1,1-4.61-4.86A4.64,4.64,0,0,1,368.4,217.67Zm-1.86,0c0-1.86-1.13-3.23-2.76-3.23s-2.76,1.37-2.76,3.23,1.13,3.23,2.76,3.23S366.55,219.54,366.55,217.67Z"/><path class="cls-3" d="M265,231.67h8.16l-.62,1.73H267v11.4H265Z"/><path class="cls-3" d="M274.59,248.27h-1.84V235.54h1.84v1.41h0a3.56,3.56,0,0,1,3-1.63c2.48,0,4.33,2,4.33,4.86s-1.86,4.86-4.33,4.86a3.57,3.57,0,0,1-3-1.63h0Zm2.74-4.88c1.65,0,2.79-1.39,2.79-3.24a2.82,2.82,0,1,0-5.59,0C274.53,242,275.68,243.39,277.33,243.39Z"/><path class="cls-3" d="M283.29,242c0-1.54,1.14-3,4.07-3a14.34,14.34,0,0,1,1.89.17v-.49a1.76,1.76,0,0,0-2-1.76,4.27,4.27,0,0,0-2.44.81l-1.16-1.16a5.76,5.76,0,0,1,3.64-1.26c2.33,0,3.79,1.33,3.79,3.49v6h-1.8v-1h0a3.33,3.33,0,0,1-2.72,1.24A3,3,0,0,1,283.29,242Zm6-1v-.47a13.55,13.55,0,0,0-1.63-.13c-1.61,0-2.48.6-2.48,1.56a1.57,1.57,0,0,0,1.76,1.46A2.29,2.29,0,0,0,289.25,241.07Z"/><path class="cls-3" d="M297.52,240.82l-3,4h-2.18l3.71-4.93-3.15-4.33h2l2.7,3.77h1v-3.77h1.84v3.77h1l2.7-3.77h2l-3.15,4.33,3.71,4.93h-2.18l-3-4h-1v4h-1.84v-4Z"/><path class="cls-3" d="M306.76,243.28h.68c.64-.43.94-1.52,1.13-3,.38-2.83.47-4.74.47-4.74h6.15v7.75h1.22v3.66h-1.67V244.8h-6.3v2.14h-1.67Zm2.7,0h3.88v-6.23h-2.74c-.08.84-.17,2.12-.34,3.45a6.75,6.75,0,0,1-.81,2.74Z"/><path class="cls-3" d="M317.47,242c0-1.54,1.14-3,4.07-3a14.34,14.34,0,0,1,1.89.17v-.49a1.76,1.76,0,0,0-2-1.76,4.27,4.27,0,0,0-2.44.81l-1.16-1.16a5.76,5.76,0,0,1,3.64-1.26c2.33,0,3.79,1.33,3.79,3.49v6h-1.8v-1h0a3.33,3.33,0,0,1-2.72,1.24A3,3,0,0,1,317.47,242Zm6-1v-.47a13.55,13.55,0,0,0-1.63-.13c-1.61,0-2.48.6-2.48,1.56a1.57,1.57,0,0,0,1.76,1.46A2.29,2.29,0,0,0,323.43,241.07Z"/><path class="cls-3" d="M327.8,235.54h1.84v3.69h4v-3.69h1.84v9.26h-1.84v-4.05h-4v4.05H327.8Z"/><path class="cls-3" d="M338.17,235.54H340v6.34h0l4.31-6.34H346v9.26h-1.84v-6.32h0l-4.31,6.32h-1.67Z"/><path class="cls-3" d="M348.72,235.54h1.84v3.69h4v-3.69h1.84v9.26h-1.84v-4.05h-4v4.05h-1.84Z"/><path class="cls-3" d="M358.32,242c0-1.54,1.14-3,4.07-3a14.34,14.34,0,0,1,1.89.17v-.49a1.76,1.76,0,0,0-2-1.76,4.27,4.27,0,0,0-2.44.81l-1.16-1.16a5.76,5.76,0,0,1,3.64-1.26c2.33,0,3.79,1.33,3.79,3.49v6h-1.8v-1h0a3.33,3.33,0,0,1-2.72,1.24A3,3,0,0,1,358.32,242Zm6-1v-.47a13.55,13.55,0,0,0-1.63-.13c-1.61,0-2.48.6-2.48,1.56a1.57,1.57,0,0,0,1.76,1.46A2.29,2.29,0,0,0,364.29,241.07Z"/><path class="cls-3" d="M370,241.09l-1.74-3.69h1.93l1.84,3.69-1.84,3.71h-1.93Zm3.85,0-1.74-3.69H374l1.84,3.69L374,244.8h-1.93Z"/><rect class="cls-4" x="20" y="329.51" width="600" height="43.12" rx="10" ry="10"/><path class="cls-3" d="M108.81,357.09,113,344h1.71l3.26,10h0l3.24-10h1.71l4.18,13.13H125l-3-9.62h0l-3.15,9.62h-1.78l-3.15-9.62h0l-3,9.62Z"/><path class="cls-3" d="M137.29,352.46a4.62,4.62,0,1,1-4.61-4.86A4.64,4.64,0,0,1,137.29,352.46Zm-1.86,0c0-1.86-1.13-3.23-2.76-3.23s-2.76,1.37-2.76,3.23,1.13,3.23,2.76,3.23S135.44,354.34,135.44,352.46Z"/><path class="cls-3" d="M138.13,355.58h.68c.64-.43.94-1.52,1.13-3,.38-2.83.47-4.74.47-4.74h6.15v7.75h1.22v3.66H146.1v-2.14h-6.3v2.14h-1.67Zm2.7,0h3.88v-6.23H142c-.08.84-.17,2.12-.34,3.45a6.75,6.75,0,0,1-.81,2.74Z"/><path class="cls-3" d="M148,360l1.22-1.22a1.83,1.83,0,0,0,1,.34c.73,0,1.33-.36,1.82-1.74l-3.71-9.53h2l2.64,7.16h0l2.33-7.16h2l-3.51,10c-.58,1.65-1.63,2.93-3.6,2.93A3.62,3.62,0,0,1,148,360Z"/><path class="cls-3" d="M157.71,357.11v-1.59a1.39,1.39,0,0,0,.47.09c.84,0,1.14-.92,1.29-2.79.21-2.57.34-5,.34-5h6.83v9.26H164.8v-7.75h-3.36c0,.9-.11,2.27-.21,3.53-.21,2.85-.92,4.41-2.64,4.41A2.73,2.73,0,0,1,157.71,357.11Z"/><path class="cls-3" d="M173.61,350.87c2,0,3.51,1.13,3.49,3.11s-1.46,3.11-3.49,3.11h-4.28v-9.26h1.84v3Zm-.37,1.46h-2.06v3.3h2.06c1,0,2-.45,2-1.65S174.25,352.33,173.23,352.33Z"/><path class="cls-3" d="M183.58,347.83h1.84v6.34h0l4.31-6.34h1.67v9.26H189.6v-6.32h0l-4.31,6.32h-1.67Z"/><path class="cls-3" d="M194.14,347.83H196v3.69h4v-3.69h1.84v9.26H200V353h-4v4.05h-1.84Z"/><path class="cls-3" d="M206.12,349.35h-2.83v-1.52H211l-.54,1.52H208v7.75h-1.84Z"/><path class="cls-3" d="M211.2,352.48a4.57,4.57,0,0,1,4.46-4.88c2.4,0,4.46,1.63,4.46,5.19v.26h-7a2.86,2.86,0,0,0,2.94,2.61,3.63,3.63,0,0,0,2.36-.9l1.16,1.16a5.27,5.27,0,0,1-3.69,1.39A4.62,4.62,0,0,1,211.2,352.48Zm7-.81a2.54,2.54,0,0,0-2.44-2.44,2.63,2.63,0,0,0-2.59,2.44Z"/><path class="cls-3" d="M222.06,347.83h6.06l-.54,1.52H223.9v7.75h-1.84Z"/><path class="cls-3" d="M231.32,360.56h-1.84V347.83h1.84v1.41h0a3.56,3.56,0,0,1,3-1.63c2.48,0,4.33,2,4.33,4.86s-1.86,4.86-4.33,4.86a3.57,3.57,0,0,1-3-1.63h0Zm2.74-4.88c1.65,0,2.79-1.39,2.79-3.24a2.82,2.82,0,1,0-5.59,0C231.26,354.3,232.41,355.69,234.06,355.69Z"/><path class="cls-3" d="M240,354.32c0-1.54,1.14-3,4.07-3a14.34,14.34,0,0,1,1.89.17V351a1.76,1.76,0,0,0-2-1.76,4.27,4.27,0,0,0-2.44.81l-1.16-1.16A5.76,5.76,0,0,1,244,347.6c2.33,0,3.79,1.33,3.79,3.49v6H246v-1h0a3.33,3.33,0,0,1-2.72,1.24A3,3,0,0,1,240,354.32Zm6-1v-.47a13.73,13.73,0,0,0-1.63-.13c-1.61,0-2.48.6-2.48,1.56a1.57,1.57,0,0,0,1.76,1.46A2.29,2.29,0,0,0,246,353.36Z"/><path class="cls-3" d="M257.38,357.09h-7v-9.26h1.84v7.75H256v-7.75h1.84v7.75h1.22v3.66h-1.67Z"/><path class="cls-3" d="M260.89,347.83h1.84v6.34h0l4.31-6.34h1.67v9.26h-1.84v-6.32h0l-4.31,6.32h-1.67Z"/><path class="cls-3" d="M271.45,347.83h1.84v6.34h0l4.31-6.34h1.67v9.26h-1.84v-6.32h0l-4.31,6.32h-1.67Z"/><path class="cls-3" d="M290.59,347.6a4.55,4.55,0,0,1,3.26,1.29L292.71,350a3,3,0,0,0-2.08-.82c-1.65,0-2.78,1.41-2.78,3.24s1.13,3.26,2.78,3.26a2.94,2.94,0,0,0,2.08-.84l1.14,1.14a4.55,4.55,0,0,1-3.26,1.29,4.87,4.87,0,0,1,0-9.71Z"/><path class="cls-3" d="M299.76,353.38l1.84-3.69h1.93l-1.76,3.69,1.76,3.71H301.6Zm3.85,0,1.84-3.69h1.93l-1.74,3.69,1.74,3.71h-1.93Z"/><path class="cls-3" d="M308.46,357.09,313.61,344h1.71l5.14,13.13h-2.21l-1.22-3.3h-5.21l-1.22,3.3Zm8-4.93-2-5.31h0l-2,5.31Z"/><path class="cls-3" d="M322,347.83h1.84v3.77h1.13l2.89-3.77h2.06l-3.34,4.28,3.92,5h-2.27l-3.13-4H323.8v4H322Z"/><path class="cls-3" d="M333.45,349.35h-2.83v-1.52h7.73l-.54,1.52h-2.51v7.75h-1.84Z"/><path class="cls-3" d="M339.71,347.83h1.84v6.34h0l4.31-6.34h1.67v9.26h-1.84v-6.32h0l-4.31,6.32h-1.67Z"/><path class="cls-3" d="M350.27,357.09v-9.26h4.5a2.52,2.52,0,0,1,2.81,2.36,2.17,2.17,0,0,1-1.26,2v0a2.34,2.34,0,0,1,1.71,2.18,2.74,2.74,0,0,1-3,2.72Zm4.24-5.53a1.13,1.13,0,0,0,1.22-1.14,1.12,1.12,0,0,0-1.22-1.13h-2.4v2.27Zm.09,4.07c.84,0,1.52-.45,1.52-1.29s-.67-1.29-1.52-1.29h-2.49v2.59Z"/><path class="cls-3" d="M360.09,347.83h1.84v3.69h4v-3.69h1.84v9.26h-1.84V353h-4v4.05h-1.84Z"/><path class="cls-3" d="M374.36,350.87c2,0,3.51,1.13,3.49,3.11s-1.46,3.11-3.49,3.11h-3.9v-9.26h1.84v3Zm-.38,1.46H372.3v3.3H374c1,0,2-.45,2-1.65S375,352.33,374,352.33Zm5-4.5h1.84v9.26H379Z"/><path class="cls-3" d="M384.81,347.83h2l2.34,6.9h0l2.46-6.9h1.93l2.23,9.26H393.9l-1.56-6.7h0l-2.33,6.7h-1.73L386,350.44h0l-1.5,6.66h-1.87Z"/><path class="cls-3" d="M402.68,344h8.16l-.62,1.72h-5.61v11.4h-1.93Z"/><path class="cls-3" d="M412.24,360.56H410.4V347.83h1.84v1.41h0a3.56,3.56,0,0,1,3-1.63c2.48,0,4.33,2,4.33,4.86s-1.86,4.86-4.33,4.86a3.57,3.57,0,0,1-3-1.63h0Zm2.74-4.88c1.65,0,2.79-1.39,2.79-3.24a2.82,2.82,0,1,0-5.59,0C412.18,354.3,413.33,355.69,415,355.69Z"/><path class="cls-3" d="M420.94,354.32c0-1.54,1.14-3,4.07-3a14.34,14.34,0,0,1,1.89.17V351a1.76,1.76,0,0,0-2-1.76,4.27,4.27,0,0,0-2.44.81l-1.16-1.16A5.76,5.76,0,0,1,425,347.6c2.33,0,3.79,1.33,3.79,3.49v6h-1.8v-1h0a3.33,3.33,0,0,1-2.72,1.24A3,3,0,0,1,420.94,354.32Zm6-1v-.47a13.73,13.73,0,0,0-1.63-.13c-1.61,0-2.48.6-2.48,1.56a1.57,1.57,0,0,0,1.76,1.46A2.29,2.29,0,0,0,426.9,353.36Z"/><path class="cls-3" d="M435.17,353.12l-3,4H430l3.71-4.93-3.15-4.33h2l2.7,3.77h1v-3.77H438v3.77h1l2.7-3.77h2l-3.15,4.33,3.71,4.93H442l-3-4h-1v4h-1.84v-4Z"/><path class="cls-3" d="M444.41,355.58h.68c.64-.43.94-1.52,1.13-3,.38-2.83.47-4.74.47-4.74h6.15v7.75h1.22v3.66h-1.67v-2.14h-6.3v2.14h-1.67Zm2.7,0H451v-6.23h-2.74c-.08.84-.17,2.12-.34,3.45a6.75,6.75,0,0,1-.81,2.74Z"/><path class="cls-3" d="M455.12,354.32c0-1.54,1.14-3,4.07-3a14.34,14.34,0,0,1,1.89.17V351a1.76,1.76,0,0,0-2-1.76,4.27,4.27,0,0,0-2.44.81l-1.16-1.16a5.76,5.76,0,0,1,3.64-1.26c2.33,0,3.79,1.33,3.79,3.49v6h-1.8v-1h0a3.33,3.33,0,0,1-2.72,1.24A3,3,0,0,1,455.12,354.32Zm6-1v-.47a13.73,13.73,0,0,0-1.63-.13c-1.61,0-2.48.6-2.48,1.56a1.57,1.57,0,0,0,1.76,1.46A2.29,2.29,0,0,0,461.08,353.36Z"/><path class="cls-3" d="M465.45,347.83h1.84v3.69h4v-3.69h1.84v9.26h-1.84V353h-4v4.05h-1.84Z"/><path class="cls-3" d="M475.82,347.83h1.84v6.34h0l4.31-6.34h1.67v9.26h-1.84v-6.32h0l-4.31,6.32h-1.67Z"/><path class="cls-3" d="M486.37,347.83h1.84v3.69h4v-3.69H494v9.26h-1.84V353h-4v4.05h-1.84Z"/><path class="cls-3" d="M505.29,352.46a4.62,4.62,0,1,1-4.61-4.86A4.64,4.64,0,0,1,505.29,352.46Zm-1.86,0c0-1.86-1.13-3.23-2.76-3.23s-2.76,1.37-2.76,3.23,1.13,3.23,2.76,3.23S503.44,354.34,503.44,352.46Z"/><path class="cls-3" d="M508.57,347.83h2l2.34,6.9h0l2.46-6.9h1.93l2.23,9.26h-1.89l-1.56-6.7h0l-2.33,6.7H512l-2.27-6.66h0l-1.5,6.66h-1.87Z"/><path class="cls-3" d="M522.62,353.38l-1.74-3.69h1.93l1.84,3.69-1.84,3.71h-1.93Zm3.85,0-1.74-3.69h1.93l1.84,3.69-1.84,3.71h-1.93Z"/><rect class="cls-5" x="188.75" y="399.82" width="262.5" height="262.5"/><path class="cls-2" d="M255.29,421.71h4.46c2.49,0,3.83,1.69,3.83,3.28a3,3,0,0,1-1.39,2.55v0a3.52,3.52,0,0,1,2.68,3.47c0,2-1.69,3.79-4.33,3.79h-5.25Zm4.16,5.49a1.92,1.92,0,1,0,0-3.83h-2.23v3.83Zm.84,6a2.22,2.22,0,1,0,0-4.41h-3.08v4.41Z"/><path class="cls-2" d="M266.93,420.92h1.84v13.92h-1.84Z"/><path class="cls-2" d="M280,430.21a4.62,4.62,0,1,1-4.61-4.86A4.64,4.64,0,0,1,280,430.21Zm-1.86,0c0-1.86-1.13-3.23-2.76-3.23s-2.76,1.37-2.76,3.23,1.13,3.23,2.76,3.23S278.16,432.08,278.16,430.21Z"/><path class="cls-2" d="M285.94,425.35a4.55,4.55,0,0,1,3.26,1.29l-1.14,1.14A3,3,0,0,0,286,427c-1.65,0-2.78,1.41-2.78,3.24s1.13,3.26,2.78,3.26a2.94,2.94,0,0,0,2.08-.84l1.14,1.14a4.55,4.55,0,0,1-3.26,1.29,4.87,4.87,0,0,1,0-9.71Z"/><path class="cls-2" d="M290.7,420.92h1.86v8.19H294l2.76-3.54h2.14l-3.26,4.11,3.7,5.16H297l-3-4.2h-1.52v4.2H290.7Z"/><path class="cls-2" d="M304.47,425.35a4.55,4.55,0,0,1,3.26,1.29l-1.14,1.14a3,3,0,0,0-2.08-.82c-1.65,0-2.78,1.41-2.78,3.24s1.13,3.26,2.78,3.26a2.94,2.94,0,0,0,2.08-.84l1.14,1.14a4.55,4.55,0,0,1-3.26,1.29,4.87,4.87,0,0,1,0-9.71Z"/><path class="cls-2" d="M309.23,420.92h1.84v5.83h0a3.52,3.52,0,0,1,2.81-1.41,3.09,3.09,0,0,1,3.24,3.41v6.08h-1.84v-5.78a1.78,1.78,0,0,0-1.86-2,3.14,3.14,0,0,0-2.4,1.35v6.41h-1.84Z"/><path class="cls-2" d="M318.94,432.06c0-1.54,1.14-3,4.07-3a14.34,14.34,0,0,1,1.89.17v-.49a1.76,1.76,0,0,0-2-1.76,4.27,4.27,0,0,0-2.44.81l-1.16-1.16a5.76,5.76,0,0,1,3.64-1.26c2.33,0,3.79,1.33,3.79,3.49v6h-1.8v-1h0a3.33,3.33,0,0,1-2.72,1.24A3,3,0,0,1,318.94,432.06Zm6-1v-.47a13.55,13.55,0,0,0-1.63-.13c-1.61,0-2.48.6-2.48,1.56a1.57,1.57,0,0,0,1.76,1.46A2.29,2.29,0,0,0,324.9,431.11Z"/><path class="cls-2" d="M329.74,427.09h-1.67l.54-1.52h3v9.26h-1.86Zm0-5.38h1.84v2.19h-1.84Z"/><path class="cls-2" d="M334.3,425.57h1.8v1.22h0a3.55,3.55,0,0,1,2.85-1.44,3.09,3.09,0,0,1,3.24,3.41v6.08h-1.84v-5.78a1.78,1.78,0,0,0-1.86-2,3.08,3.08,0,0,0-2.4,1.35v6.41H334.3Z"/><path class="cls-2" d="M344.59,428.84h4.82v1.82h-4.82Z"/><path class="cls-2" d="M355.82,425.35a4.55,4.55,0,0,1,3.26,1.29l-1.14,1.14a3,3,0,0,0-2.08-.82c-1.65,0-2.78,1.41-2.78,3.24s1.13,3.26,2.78,3.26a2.94,2.94,0,0,0,2.08-.84l1.14,1.14a4.55,4.55,0,0,1-3.26,1.29,4.87,4.87,0,0,1,0-9.71Z"/><path class="cls-2" d="M359.87,430.23a4.57,4.57,0,0,1,4.46-4.88c2.4,0,4.46,1.63,4.46,5.19v.26h-7a2.86,2.86,0,0,0,2.94,2.61,3.63,3.63,0,0,0,2.36-.9l1.16,1.16a5.27,5.27,0,0,1-3.69,1.39A4.62,4.62,0,0,1,359.87,430.23Zm7-.81a2.54,2.54,0,0,0-2.44-2.44,2.63,2.63,0,0,0-2.59,2.44Z"/><path class="cls-2" d="M372.06,427.09h-2.83v-1.52H377l-.54,1.52H373.9v7.75h-1.84Z"/><path class="cls-2" d="M382.6,428.61c2,0,3.51,1.13,3.49,3.11s-1.46,3.11-3.49,3.11h-4.28v-9.26h1.84v3Zm-.37,1.46h-2.06v3.3h2.06c1,0,2-.45,2-1.65S383.24,430.08,382.22,430.08Z"/><path class="cls-2" d="M271.16,450.66a15.59,15.59,0,0,1,2.46-7.93h1.57V443a16.77,16.77,0,0,0-2.16,7.67,17.81,17.81,0,0,0,2.16,7.91v.24h-1.57A16.41,16.41,0,0,1,271.16,450.66Z"/><path class="cls-2" d="M288.39,457.34H278V444.21h1.93v11.42h6.85V444.21h1.93v11.42h1.5v4.43h-1.8Z"/><path class="cls-2" d="M291.76,450.77a6.46,6.46,0,1,1,6.45,6.79A6.5,6.5,0,0,1,291.76,450.77Zm10.9,0c0-2.87-1.8-5-4.44-5s-4.44,2.18-4.44,5,1.82,5,4.44,5S302.66,453.66,302.66,450.77Z"/><path class="cls-2" d="M305.69,455.63h.9c.75-.38,1.11-1.41,1.37-3.09.3-1.91.69-8.33.69-8.33h8.53v11.42h1.5v4.43h-1.8v-2.72h-9.4v2.72h-1.8Zm3.11,0h6.45v-9.71h-4.9c-.07,1.52-.3,5.25-.54,6.83a6.26,6.26,0,0,1-1,2.85Z"/><path class="cls-2" d="M324.22,455.63h.9c.75-.38,1.11-1.41,1.37-3.09.3-1.91.69-8.33.69-8.33h8.53v11.42h1.5v4.43h-1.8v-2.72H326v2.72h-1.8Zm3.11,0h6.45v-9.71h-4.9c-.07,1.52-.3,5.25-.54,6.83a6.26,6.26,0,0,1-1,2.85Z"/><path class="cls-2" d="M339.73,444.21h1.93v10.28h0l7.37-10.28h1.82v13.13H349V447.06h0l-7.37,10.28h-1.82Z"/><path class="cls-2" d="M357.22,445.94h-4.39v-1.73h11l-.62,1.73h-4.09v11.4h-2Z"/><path class="cls-2" d="M364.81,458.58a17.8,17.8,0,0,0,2.16-7.91,16.76,16.76,0,0,0-2.16-7.67v-.26h1.58a15.59,15.59,0,0,1,2.46,7.93,16.41,16.41,0,0,1-2.46,8.16h-1.58Z"/><path class="cls-4" d="M374.14,444.69l.81-1.4,2,1.7-.33.57Zm0,1.89,2.46-.87.33.57-2,1.7Zm2.43-4.26h1.64l-.48,2.58h-.68Zm.48,4.05h.68l.48,2.58h-1.64Zm.8-1.38,2-1.7.81,1.4-2.46.87Zm0,1.29.33-.57,2.46.87-.81,1.4Z"/><path class="cls-4" d="M381.74,444.69l.81-1.4,2,1.7-.33.57Zm0,1.89,2.46-.87.33.57-2,1.7Zm2.43-4.26h1.64l-.48,2.58h-.68Zm.48,4.05h.68l.48,2.58h-1.64Zm.8-1.38,2-1.7.81,1.4-2.46.87Zm0,1.29.33-.57,2.46.87-.81,1.4Z"/><circle class="cls-6" cx="320" cy="508.15" r="32.57"/><polyline class="cls-7" points="307.32 503.69 303.93 505.64 303.93 519.24 315.7 526.04 327.48 519.24 327.48 505.64 318.19 500.28"/><polyline class="cls-7" points="332.56 512.68 336.07 510.65 336.07 497.06 324.3 490.26 312.52 497.06 312.52 510.65 321.36 515.75"/><circle class="cls-6" cx="265.71" cy="589.46" r="32.57"/><polyline class="cls-7" points="253.03 585 249.64 586.96 249.64 600.55 261.41 607.35 273.19 600.55 273.19 586.96 263.9 581.59"/><polyline class="cls-7" points="278.27 593.99 281.78 591.97 281.78 578.37 270 571.57 258.23 578.37 258.23 591.97 267.07 597.07"/><circle class="cls-6" cx="374.29" cy="589.46" r="32.57"/><polyline class="cls-7" points="361.61 585 358.22 586.96 358.22 600.55 370 607.35 381.77 600.55 381.77 586.96 372.48 581.59"/><polyline class="cls-7" points="386.85 593.99 390.36 591.97 390.36 578.37 378.59 571.57 366.81 578.37 366.81 591.97 375.65 597.07"/><path class="cls-8" d="M344.36,616.7a62.8,62.8,0,0,1-48.47.11"/><path class="cls-8" d="M361.75,512.38a62.54,62.54,0,0,1,19.39,33.15"/><path class="cls-8" d="M258.24,548.75a62.5,62.5,0,0,1,20.07-36.42"/><rect class="cls-5" x="37.52" y="694.57" width="262.5" height="262.5"/><path class="cls-2" d="M104.05,716.47h4.46c2.49,0,3.83,1.69,3.83,3.28A3,3,0,0,1,111,722.3v0a3.52,3.52,0,0,1,2.68,3.47c0,2-1.69,3.79-4.33,3.79h-5.25Zm4.16,5.49a1.92,1.92,0,1,0,0-3.83H106V722Zm.84,6a2.22,2.22,0,1,0,0-4.41H106v4.41Z"/><path class="cls-2" d="M115.7,715.68h1.84V729.6H115.7Z"/><path class="cls-2" d="M128.78,725a4.62,4.62,0,1,1-4.61-4.86A4.64,4.64,0,0,1,128.78,725Zm-1.86,0c0-1.86-1.13-3.23-2.76-3.23s-2.76,1.37-2.76,3.23,1.13,3.23,2.76,3.23S126.93,726.84,126.93,725Z"/><path class="cls-2" d="M134.71,720.11A4.55,4.55,0,0,1,138,721.4l-1.14,1.14a3,3,0,0,0-2.08-.82c-1.65,0-2.78,1.41-2.78,3.24s1.13,3.26,2.78,3.26a2.94,2.94,0,0,0,2.08-.84l1.14,1.14a4.55,4.55,0,0,1-3.26,1.29,4.87,4.87,0,0,1,0-9.71Z"/><path class="cls-2" d="M139.47,715.68h1.86v8.19h1.41l2.76-3.54h2.14l-3.26,4.11,3.7,5.16h-2.25l-3-4.2h-1.52v4.2h-1.86Z"/><path class="cls-2" d="M153.23,720.11a4.55,4.55,0,0,1,3.26,1.29l-1.14,1.14a3,3,0,0,0-2.08-.82c-1.65,0-2.78,1.41-2.78,3.24s1.13,3.26,2.78,3.26a2.94,2.94,0,0,0,2.08-.84l1.14,1.14a4.55,4.55,0,0,1-3.26,1.29,4.87,4.87,0,0,1,0-9.71Z"/><path class="cls-2" d="M158,715.68h1.84v5.83h0a3.52,3.52,0,0,1,2.81-1.41,3.09,3.09,0,0,1,3.24,3.41v6.08h-1.84v-5.78a1.78,1.78,0,0,0-1.86-2,3.14,3.14,0,0,0-2.4,1.35v6.41H158Z"/><path class="cls-2" d="M167.71,726.82c0-1.54,1.14-3,4.07-3a14.34,14.34,0,0,1,1.89.17v-.49a1.76,1.76,0,0,0-2-1.76,4.27,4.27,0,0,0-2.44.81l-1.16-1.16a5.76,5.76,0,0,1,3.64-1.26c2.33,0,3.79,1.33,3.79,3.49v6h-1.8v-1h0a3.33,3.33,0,0,1-2.72,1.24A3,3,0,0,1,167.71,726.82Zm6-1v-.47a13.73,13.73,0,0,0-1.63-.13c-1.61,0-2.48.6-2.48,1.56a1.57,1.57,0,0,0,1.76,1.46A2.29,2.29,0,0,0,173.67,725.86Z"/><path class="cls-2" d="M178.51,721.85h-1.67l.54-1.52h3v9.26h-1.86Zm0-5.38h1.84v2.19h-1.84Z"/><path class="cls-2" d="M183.06,720.33h1.8v1.22h0a3.55,3.55,0,0,1,2.85-1.44,3.09,3.09,0,0,1,3.24,3.41v6.08h-1.84v-5.78a1.78,1.78,0,0,0-1.86-2,3.08,3.08,0,0,0-2.4,1.35v6.41h-1.84Z"/><path class="cls-2" d="M193.36,723.59h4.82v1.82h-4.82Z"/><path class="cls-2" d="M204.59,720.11a4.55,4.55,0,0,1,3.26,1.29l-1.14,1.14a3,3,0,0,0-2.08-.82c-1.65,0-2.78,1.41-2.78,3.24s1.13,3.26,2.78,3.26a2.94,2.94,0,0,0,2.08-.84l1.14,1.14a4.55,4.55,0,0,1-3.26,1.29,4.87,4.87,0,0,1,0-9.71Z"/><path class="cls-2" d="M208.64,725a4.57,4.57,0,0,1,4.46-4.88c2.4,0,4.46,1.63,4.46,5.19v.26h-7a2.86,2.86,0,0,0,2.94,2.61,3.63,3.63,0,0,0,2.36-.9l1.16,1.16a5.27,5.27,0,0,1-3.69,1.39A4.62,4.62,0,0,1,208.64,725Zm7-.81a2.54,2.54,0,0,0-2.44-2.44,2.63,2.63,0,0,0-2.59,2.44Z"/><path class="cls-2" d="M220.83,721.85H218v-1.52h7.73l-.54,1.52h-2.51v7.75h-1.84Z"/><path class="cls-2" d="M231.36,723.37c2,0,3.51,1.13,3.49,3.11s-1.46,3.11-3.49,3.11h-4.28v-9.26h1.84v3Zm-.37,1.46h-2.06v3.3H231c1,0,2-.45,2-1.65S232,724.83,231,724.83Z"/><path class="cls-2" d="M142.37,745.42a15.59,15.59,0,0,1,2.46-7.93h1.57v.26a16.77,16.77,0,0,0-2.16,7.67,17.81,17.81,0,0,0,2.16,7.91v.24h-1.57A16.41,16.41,0,0,1,142.37,745.42Z"/><path class="cls-2" d="M149.19,739h4.46c2.49,0,3.83,1.69,3.83,3.28a3,3,0,0,1-1.39,2.55v0a3.52,3.52,0,0,1,2.68,3.47c0,2-1.69,3.79-4.33,3.79h-5.25Zm4.16,5.49a1.92,1.92,0,1,0,0-3.83h-2.23v3.83Zm.84,6a2.22,2.22,0,1,0,0-4.41h-3.08v4.41Z"/><path class="cls-2" d="M161.31,739h1.93v11.42h4.6V739h1.93v11.42h4.6V739h1.93V752.1h-15Z"/><path class="cls-2" d="M178.42,750.54l1.24-1.24a4.64,4.64,0,0,0,3.21,1.28c2.42,0,4.09-1.84,4.35-4.35h-5.83v-1.71h5.79c-.34-2.42-1.93-4-4.22-4a4.72,4.72,0,0,0-3.21,1.28l-1.24-1.24a6.14,6.14,0,0,1,4.43-1.78c3.56,0,6.32,2.79,6.32,6.79a6.44,6.44,0,0,1-6.41,6.79A6.07,6.07,0,0,1,178.42,750.54Z"/><path class="cls-2" d="M191.14,753.33a17.8,17.8,0,0,0,2.16-7.91,16.76,16.76,0,0,0-2.16-7.67v-.26h1.58a15.59,15.59,0,0,1,2.46,7.93,16.41,16.41,0,0,1-2.46,8.16h-1.58Z"/><circle class="cls-6" cx="168.77" cy="802.9" r="32.57"/><polyline class="cls-7" points="156.08 798.45 152.7 800.4 152.7 814 164.47 820.8 176.25 814 176.25 800.4 166.95 795.03"/><polyline class="cls-7" points="181.33 807.43 184.84 805.41 184.84 791.81 173.06 785.01 161.28 791.81 161.28 805.41 170.12 810.51"/><circle class="cls-6" cx="114.47" cy="884.22" r="32.57"/><polyline class="cls-7" points="101.79 879.76 98.4 881.71 98.4 895.31 110.18 902.11 121.95 895.31 121.95 881.71 112.66 876.35"/><polyline class="cls-7" points="127.03 888.75 130.54 886.72 130.54 873.12 118.77 866.33 106.99 873.12 106.99 886.72 115.83 891.82"/><circle class="cls-6" cx="223.06" cy="884.22" r="32.57"/><polyline class="cls-7" points="210.37 879.76 206.99 881.71 206.99 895.31 218.76 902.11 230.54 895.31 230.54 881.71 221.24 876.35"/><polyline class="cls-7" points="235.62 888.75 239.13 886.72 239.13 873.12 227.35 866.33 215.58 873.12 215.58 886.72 224.41 891.82"/><path class="cls-8" d="M193.13,911.46a62.8,62.8,0,0,1-48.47.11"/><path class="cls-8" d="M210.51,807.14a62.54,62.54,0,0,1,19.39,33.15"/><path class="cls-8" d="M107,843.51a62.5,62.5,0,0,1,20.07-36.42"/><path class="cls-4" d="M201.06,737.57l.81-1.4,2,1.7-.33.57Zm0,1.89,2.46-.87.33.57-2,1.7Zm2.43-4.26h1.64l-.48,2.58H204Zm.48,4.05h.68l.48,2.58h-1.64Zm.8-1.38,2-1.7.81,1.4-2.46.87Zm0,1.29.33-.57,2.46.87-.81,1.4Z"/><rect class="cls-5" x="339.98" y="694.57" width="262.5" height="262.5"/><path class="cls-2" d="M406.52,716.47H411c2.49,0,3.83,1.69,3.83,3.28a3,3,0,0,1-1.39,2.55v0a3.52,3.52,0,0,1,2.68,3.47c0,2-1.69,3.79-4.33,3.79h-5.25Zm4.16,5.49a1.92,1.92,0,1,0,0-3.83h-2.23V722Zm.84,6a2.22,2.22,0,1,0,0-4.41h-3.08v4.41Z"/><path class="cls-2" d="M418.16,715.68H420V729.6h-1.84Z"/><path class="cls-2" d="M431.25,725a4.62,4.62,0,1,1-4.61-4.86A4.64,4.64,0,0,1,431.25,725Zm-1.86,0c0-1.86-1.13-3.23-2.76-3.23s-2.76,1.37-2.76,3.23,1.13,3.23,2.76,3.23S429.4,726.84,429.4,725Z"/><path class="cls-2" d="M437.18,720.11a4.55,4.55,0,0,1,3.26,1.29l-1.14,1.14a3,3,0,0,0-2.08-.82c-1.65,0-2.78,1.41-2.78,3.24s1.13,3.26,2.78,3.26a2.94,2.94,0,0,0,2.08-.84l1.14,1.14a4.55,4.55,0,0,1-3.26,1.29,4.87,4.87,0,0,1,0-9.71Z"/><path class="cls-2" d="M441.94,715.68h1.86v8.19h1.41l2.76-3.54h2.14l-3.26,4.11,3.7,5.16h-2.25l-3-4.2H443.8v4.2h-1.86Z"/><path class="cls-2" d="M455.7,720.11A4.55,4.55,0,0,1,459,721.4l-1.14,1.14a3,3,0,0,0-2.08-.82c-1.65,0-2.78,1.41-2.78,3.24s1.13,3.26,2.78,3.26a2.94,2.94,0,0,0,2.08-.84l1.14,1.14a4.55,4.55,0,0,1-3.26,1.29,4.87,4.87,0,0,1,0-9.71Z"/><path class="cls-2" d="M460.46,715.68h1.84v5.83h0a3.52,3.52,0,0,1,2.81-1.41,3.09,3.09,0,0,1,3.24,3.41v6.08h-1.84v-5.78a1.78,1.78,0,0,0-1.86-2,3.14,3.14,0,0,0-2.4,1.35v6.41h-1.84Z"/><path class="cls-2" d="M470.18,726.82c0-1.54,1.14-3,4.07-3a14.34,14.34,0,0,1,1.89.17v-.49a1.76,1.76,0,0,0-2-1.76,4.27,4.27,0,0,0-2.44.81l-1.16-1.16a5.76,5.76,0,0,1,3.64-1.26c2.33,0,3.79,1.33,3.79,3.49v6h-1.8v-1h0a3.33,3.33,0,0,1-2.72,1.24A3,3,0,0,1,470.18,726.82Zm6-1v-.47a13.73,13.73,0,0,0-1.63-.13c-1.61,0-2.48.6-2.48,1.56a1.57,1.57,0,0,0,1.76,1.46A2.29,2.29,0,0,0,476.14,725.86Z"/><path class="cls-2" d="M481,721.85h-1.67l.54-1.52h3v9.26H481Zm0-5.38h1.84v2.19H481Z"/><path class="cls-2" d="M485.53,720.33h1.8v1.22h0a3.55,3.55,0,0,1,2.85-1.44,3.09,3.09,0,0,1,3.24,3.41v6.08h-1.84v-5.78a1.78,1.78,0,0,0-1.86-2,3.08,3.08,0,0,0-2.4,1.35v6.41h-1.84Z"/><path class="cls-2" d="M495.83,723.59h4.82v1.82h-4.82Z"/><path class="cls-2" d="M507.06,720.11a4.55,4.55,0,0,1,3.26,1.29l-1.14,1.14a3,3,0,0,0-2.08-.82c-1.65,0-2.78,1.41-2.78,3.24s1.13,3.26,2.78,3.26a2.94,2.94,0,0,0,2.08-.84l1.14,1.14a4.55,4.55,0,0,1-3.26,1.29,4.87,4.87,0,0,1,0-9.71Z"/><path class="cls-2" d="M511.11,725a4.57,4.57,0,0,1,4.46-4.88c2.4,0,4.46,1.63,4.46,5.19v.26h-7a2.86,2.86,0,0,0,2.94,2.61,3.63,3.63,0,0,0,2.36-.9l1.16,1.16a5.27,5.27,0,0,1-3.69,1.39A4.62,4.62,0,0,1,511.11,725Zm7-.81a2.54,2.54,0,0,0-2.44-2.44,2.63,2.63,0,0,0-2.59,2.44Z"/><path class="cls-2" d="M523.29,721.85h-2.83v-1.52h7.73l-.54,1.52h-2.51v7.75h-1.84Z"/><path class="cls-2" d="M533.83,723.37c2,0,3.51,1.13,3.49,3.11s-1.46,3.11-3.49,3.11h-4.28v-9.26h1.84v3Zm-.37,1.46h-2.06v3.3h2.06c1,0,2-.45,2-1.65S534.47,724.83,533.46,724.83Z"/><path class="cls-2" d="M347.19,745.42a15.59,15.59,0,0,1,2.46-7.93h1.57v.26a16.77,16.77,0,0,0-2.16,7.67,17.81,17.81,0,0,0,2.16,7.91v.24h-1.57A16.41,16.41,0,0,1,347.19,745.42Z"/><path class="cls-2" d="M354,739h1.93v5.53h7.11V739H365V752.1h-1.93v-5.87h-7.11v5.87H354Z"/><path class="cls-2" d="M367.47,747.48a4.57,4.57,0,0,1,4.46-4.88c2.4,0,4.46,1.63,4.46,5.19v.26h-7a2.86,2.86,0,0,0,2.94,2.61,3.63,3.63,0,0,0,2.36-.9l1.16,1.16a5.27,5.27,0,0,1-3.69,1.39A4.62,4.62,0,0,1,367.47,747.48Zm7-.81a2.54,2.54,0,0,0-2.44-2.44,2.63,2.63,0,0,0-2.59,2.44Z"/><path class="cls-2" d="M377.21,751l1.14-1.14a3.4,3.4,0,0,0,2.49.86c1.26,0,2-.64,2-1.35s-.49-1.33-1.84-1.33h-1.41V746.6H381c.94,0,1.61-.41,1.61-1.24s-.77-1.2-1.69-1.2a3.4,3.4,0,0,0-2.33.86l-1.14-1.14a5.45,5.45,0,0,1,3.7-1.28c1.89,0,3.3,1,3.3,2.51a2.19,2.19,0,0,1-1.41,2v0a2.29,2.29,0,0,1,1.67,2.14c0,1.84-1.58,3-3.77,3A5,5,0,0,1,377.21,751Z"/><path class="cls-2" d="M386,749.32c0-1.54,1.14-3,4.07-3a14.34,14.34,0,0,1,1.89.17V746a1.76,1.76,0,0,0-2-1.76,4.27,4.27,0,0,0-2.44.81l-1.16-1.16a5.76,5.76,0,0,1,3.64-1.26c2.33,0,3.79,1.33,3.79,3.49v6H392v-1h0a3.33,3.33,0,0,1-2.72,1.24A3,3,0,0,1,386,749.32Zm6-1v-.47a13.73,13.73,0,0,0-1.63-.13c-1.61,0-2.48.6-2.48,1.56a1.57,1.57,0,0,0,1.76,1.46A2.29,2.29,0,0,0,392,748.36Z"/><path class="cls-2" d="M396.37,752.1v-9.26h4.5a2.52,2.52,0,0,1,2.81,2.36,2.17,2.17,0,0,1-1.26,2v0a2.34,2.34,0,0,1,1.71,2.18,2.74,2.74,0,0,1-3,2.72Zm4.24-5.53a1.13,1.13,0,0,0,1.22-1.14,1.12,1.12,0,0,0-1.22-1.13h-2.4v2.27Zm.09,4.07c.84,0,1.52-.45,1.52-1.29s-.67-1.29-1.52-1.29h-2.49v2.59Z"/><path class="cls-2" d="M406.19,742.83H408v6.34h0l4.31-6.34h1.67v9.26h-1.84v-6.32h0l-4.31,6.32h-1.67Z"/><path class="cls-2" d="M420.65,742.61a4.55,4.55,0,0,1,3.26,1.29L422.77,745a3,3,0,0,0-2.08-.82c-1.65,0-2.78,1.41-2.78,3.24s1.13,3.26,2.78,3.26a2.94,2.94,0,0,0,2.08-.84l1.14,1.14a4.55,4.55,0,0,1-3.26,1.29,4.87,4.87,0,0,1,0-9.71Z"/><path class="cls-2" d="M425.54,742.83h1.84v6.34h0l4.31-6.34h1.67v9.26h-1.84v-6.32h0l-4.31,6.32h-1.67Z"/><path class="cls-2" d="M437.35,742.83h2l2.34,6.9h0l2.46-6.9h1.93l2.23,9.26h-1.89l-1.56-6.7h0l-2.33,6.7H440.8l-2.27-6.66h0L437,752.1h-1.87Z"/><path class="cls-2" d="M454,745.87c2,0,3.51,1.13,3.49,3.11S456,752.1,454,752.1h-3.9v-9.26h1.84v3Zm-.38,1.46H451.9v3.3h1.69c1,0,2-.45,2-1.65S454.6,747.33,453.59,747.33Zm5-4.5h1.84v9.26h-1.84Z"/><path class="cls-2" d="M462.48,747.48a4.57,4.57,0,0,1,4.46-4.88c2.4,0,4.46,1.63,4.46,5.19v.26h-7a2.86,2.86,0,0,0,2.94,2.61,3.63,3.63,0,0,0,2.36-.9l1.16,1.16a5.27,5.27,0,0,1-3.69,1.39A4.62,4.62,0,0,1,462.48,747.48Zm7-.81a2.54,2.54,0,0,0-2.44-2.44,2.63,2.63,0,0,0-2.59,2.44Z"/><path class="cls-2" d="M478,742.83h1.84v3.69h4v-3.69h1.84v9.26h-1.84V748h-4v4.05H478Z"/><path class="cls-2" d="M487.62,749.32c0-1.54,1.14-3,4.07-3a14.34,14.34,0,0,1,1.89.17V746a1.76,1.76,0,0,0-2-1.76,4.27,4.27,0,0,0-2.44.81L488,743.86a5.76,5.76,0,0,1,3.64-1.26c2.33,0,3.79,1.33,3.79,3.49v6h-1.8v-1h0a3.33,3.33,0,0,1-2.72,1.24A3,3,0,0,1,487.62,749.32Zm6-1v-.47a13.73,13.73,0,0,0-1.63-.13c-1.61,0-2.48.6-2.48,1.56a1.57,1.57,0,0,0,1.76,1.46A2.29,2.29,0,0,0,493.59,748.36Z"/><path class="cls-2" d="M497.54,746.68v-.3c0-4.11,1-7.6,5.95-7.75a6.1,6.1,0,0,0,2.53-.45v1.65a6.08,6.08,0,0,1-2.53.45c-3.17.11-4,1.69-4.33,4.24h0a4.13,4.13,0,0,1,3.3-1.57,4.37,4.37,0,0,1,4.35,4.63,4.53,4.53,0,0,1-4.61,4.75C499.47,752.32,497.54,750.2,497.54,746.68Zm7.43,1a2.78,2.78,0,1,0-2.76,3.11A2.83,2.83,0,0,0,505,747.63Z"/><path class="cls-2" d="M507.67,752.11v-1.59a1.39,1.39,0,0,0,.47.09c.84,0,1.14-.92,1.29-2.79.21-2.57.34-5,.34-5h6.83v9.26h-1.84v-7.75H511.4c0,.9-.11,2.27-.21,3.53-.21,2.85-.92,4.41-2.64,4.41A2.73,2.73,0,0,1,507.67,752.11Z"/><path class="cls-2" d="M522.59,748h-1.46v4.05h-1.84v-9.26h1.84v3.69h1.52a4.36,4.36,0,0,1,4.35-3.92c2.57,0,4.46,2,4.46,4.86s-1.89,4.86-4.46,4.86A4.42,4.42,0,0,1,522.59,748Zm1.84-.58c0,1.88.94,3.28,2.57,3.28s2.59-1.41,2.59-3.28-1-3.26-2.59-3.26S524.43,745.61,524.43,747.46Z"/><path class="cls-2" d="M532.32,750.58H533c.64-.43.94-1.52,1.13-3,.38-2.83.47-4.74.47-4.74h6.15v7.75H542v3.66h-1.67V752.1H534v2.14h-1.67Zm2.7,0h3.88v-6.23h-2.74c-.08.84-.17,2.12-.34,3.45a6.75,6.75,0,0,1-.81,2.74Z"/><path class="cls-2" d="M543,749.32c0-1.54,1.14-3,4.07-3a14.34,14.34,0,0,1,1.89.17V746a1.76,1.76,0,0,0-2-1.76,4.27,4.27,0,0,0-2.44.81l-1.16-1.16a5.76,5.76,0,0,1,3.64-1.26c2.33,0,3.79,1.33,3.79,3.49v6H549v-1h0a3.33,3.33,0,0,1-2.72,1.24A3,3,0,0,1,543,749.32Zm6-1v-.47a13.73,13.73,0,0,0-1.63-.13c-1.61,0-2.48.6-2.48,1.56a1.57,1.57,0,0,0,1.76,1.46A2.29,2.29,0,0,0,549,748.36Z"/><path class="cls-2" d="M554.69,744.35h-2.83v-1.52h7.73l-.54,1.52h-2.51v7.75h-1.84Z"/><path class="cls-2" d="M559.77,747.48a4.57,4.57,0,0,1,4.46-4.88c2.4,0,4.46,1.63,4.46,5.19v.26h-7a2.86,2.86,0,0,0,2.94,2.61,3.63,3.63,0,0,0,2.36-.9l1.16,1.16a5.27,5.27,0,0,1-3.69,1.39A4.62,4.62,0,0,1,559.77,747.48Zm7-.81a2.54,2.54,0,0,0-2.44-2.44,2.63,2.63,0,0,0-2.59,2.44Z"/><path class="cls-2" d="M569.45,752.11v-1.59a1.39,1.39,0,0,0,.47.09c.84,0,1.14-.92,1.29-2.79.21-2.57.34-5,.34-5h6.83v9.26h-1.84v-7.75h-3.36c0,.9-.11,2.27-.21,3.53-.21,2.85-.92,4.41-2.64,4.41A2.73,2.73,0,0,1,569.45,752.11Z"/><path class="cls-2" d="M581.07,742.83h1.84v6.34h0l4.31-6.34h1.67v9.26h-1.84v-6.32h0l-4.31,6.32h-1.67Z"/><path class="cls-2" d="M591.25,753.33a17.8,17.8,0,0,0,2.16-7.91,16.76,16.76,0,0,0-2.16-7.67v-.26h1.58a15.59,15.59,0,0,1,2.46,7.93,16.41,16.41,0,0,1-2.46,8.16h-1.58Z"/><circle class="cls-6" cx="471.23" cy="802.9" r="32.57"/><polyline class="cls-7" points="458.55 798.45 455.16 800.4 455.16 814 466.94 820.8 478.71 814 478.71 800.4 469.42 795.03"/><polyline class="cls-7" points="483.79 807.43 487.3 805.41 487.3 791.81 475.53 785.01 463.75 791.81 463.75 805.41 472.59 810.51"/><circle class="cls-6" cx="416.94" cy="884.22" r="32.57"/><polyline class="cls-7" points="404.26 879.76 400.87 881.71 400.87 895.31 412.65 902.11 424.42 895.31 424.42 881.71 415.13 876.35"/><polyline class="cls-7" points="429.5 888.75 433.01 886.72 433.01 873.12 421.24 866.33 409.46 873.12 409.46 886.72 418.3 891.82"/><circle class="cls-6" cx="525.53" cy="884.22" r="32.57"/><polyline class="cls-7" points="512.84 879.76 509.45 881.71 509.45 895.31 521.23 902.11 533.01 895.31 533.01 881.71 523.71 876.35"/><polyline class="cls-7" points="538.09 888.75 541.6 886.72 541.6 873.12 529.82 866.33 518.04 873.12 518.04 886.72 526.88 891.82"/><path class="cls-8" d="M495.6,911.46a62.8,62.8,0,0,1-48.47.11"/><path class="cls-8" d="M513,807.14a62.54,62.54,0,0,1,19.39,33.15"/><path class="cls-8" d="M409.48,843.51a62.5,62.5,0,0,1,20.07-36.42"/><line class="cls-8" x1="200.52" y1="216.25" x2="233.33" y2="216.25"/><polyline class="cls-8" points="205.84 210.5 198.34 216.28 205.84 222.06"/><polyline class="cls-8" points="228.34 210.5 235.84 216.28 228.34 222.06"/><line class="cls-8" x1="320.04" y1="277.96" x2="320.04" y2="313.59"/><polyline class="cls-8" points="325.78 308.58 320 316.08 314.22 308.58"/><rect class="cls-5" x="45.39" y="167.75" width="142.17" height="97.06" rx="10" ry="10"/><path class="cls-2" d="M61.5,186.67h8.16L69,188.4H63.44v3.49H66c3,0,4.58,2,4.58,4s-1.56,4-4.58,4H61.5Zm4.35,11.42c1.54,0,2.7-.86,2.7-2.25s-1.16-2.25-2.7-2.25H63.44v4.5Z"/><path class="cls-2" d="M71.78,197c0-1.54,1.14-3,4.07-3a14.34,14.34,0,0,1,1.89.17v-.49a1.76,1.76,0,0,0-2-1.76,4.27,4.27,0,0,0-2.44.81l-1.16-1.16a5.76,5.76,0,0,1,3.64-1.26c2.33,0,3.79,1.33,3.79,3.49v6h-1.8v-1h0A3.33,3.33,0,0,1,75,200,3,3,0,0,1,71.78,197Zm6-1v-.47a13.73,13.73,0,0,0-1.63-.13c-1.61,0-2.48.6-2.48,1.56a1.57,1.57,0,0,0,1.76,1.46A2.29,2.29,0,0,0,77.74,196.07Z"/><path class="cls-2" d="M81,198.73l1.14-1.14a3.4,3.4,0,0,0,2.49.86c1.26,0,2-.64,2-1.35s-.49-1.33-1.84-1.33H83.33v-1.46h1.41c.94,0,1.61-.41,1.61-1.24s-.77-1.2-1.69-1.2a3.4,3.4,0,0,0-2.33.86l-1.14-1.14a5.45,5.45,0,0,1,3.7-1.28c1.89,0,3.3,1,3.3,2.51a2.19,2.19,0,0,1-1.41,2v0A2.29,2.29,0,0,1,88.45,197c0,1.84-1.58,3-3.77,3A5,5,0,0,1,81,198.73Z"/><path class="cls-2" d="M89.82,197c0-1.54,1.14-3,4.07-3a14.34,14.34,0,0,1,1.89.17v-.49a1.76,1.76,0,0,0-2-1.76,4.27,4.27,0,0,0-2.44.81l-1.16-1.16a5.76,5.76,0,0,1,3.64-1.26c2.33,0,3.79,1.33,3.79,3.49v6h-1.8v-1h0A3.33,3.33,0,0,1,93.06,200,3,3,0,0,1,89.82,197Zm6-1v-.47a13.73,13.73,0,0,0-1.63-.13c-1.61,0-2.48.6-2.48,1.56a1.57,1.57,0,0,0,1.76,1.46A2.29,2.29,0,0,0,95.78,196.07Z"/><path class="cls-2" d="M103.65,198.28h.68c.64-.43.94-1.52,1.13-3,.38-2.83.47-4.74.47-4.74h6.15v7.75h1.22v3.66h-1.67V199.8h-6.3v2.14h-1.67Zm2.7,0h3.88v-6.23H107.5c-.08.84-.17,2.12-.34,3.45a6.75,6.75,0,0,1-.81,2.74Z"/><path class="cls-2" d="M114.36,197c0-1.54,1.14-3,4.07-3a14.34,14.34,0,0,1,1.89.17v-.49a1.76,1.76,0,0,0-2-1.76,4.27,4.27,0,0,0-2.44.81l-1.16-1.16a5.76,5.76,0,0,1,3.64-1.26c2.33,0,3.79,1.33,3.79,3.49v6h-1.8v-1h0A3.33,3.33,0,0,1,117.6,200,3,3,0,0,1,114.36,197Zm6-1v-.47a13.73,13.73,0,0,0-1.63-.13c-1.61,0-2.48.6-2.48,1.56a1.57,1.57,0,0,0,1.76,1.46A2.29,2.29,0,0,0,120.32,196.07Z"/><path class="cls-2" d="M124.69,190.54h1.84v3.69h4v-3.69h1.84v9.26h-1.84v-4.05h-4v4.05h-1.84Z"/><path class="cls-2" d="M135.06,190.54h1.84v3.69h4v-3.69h1.84v9.26h-1.84v-4.05h-4v4.05h-1.84Z"/><path class="cls-2" d="M149.33,193.57c2,0,3.51,1.13,3.49,3.11s-1.46,3.11-3.49,3.11h-3.9v-9.26h1.84v3ZM149,195h-1.69v3.3H149c1,0,2-.45,2-1.65S150,195,149,195Zm5-4.5h1.84v9.26H154Z"/><path class="cls-2" d="M160.78,195l-3.19-4.44h2.16l2.12,3.09h0l2.06-3.09H166l-3.11,4.41,3.47,4.86h-2.16l-2.44-3.53h0l-2.42,3.53h-2.08Z"/><path class="cls-2" d="M60.62,218.59l1.84-3.69h1.93l-1.76,3.69,1.76,3.71H62.46Zm3.85,0,1.84-3.69h1.93l-1.74,3.69,1.74,3.71H66.3Z"/><path class="cls-2" d="M69.32,222.3l5.16-13.13h1.71l5.14,13.13H79.11L77.89,219H72.68l-1.22,3.3Zm8-4.93-2-5.31h0l-2,5.31Z"/><path class="cls-2" d="M82.82,213h1.84v3.77h1.13L88.67,213h2.06l-3.34,4.28,3.92,5H89l-3.13-4H84.66v4H82.82Z"/><path class="cls-2" d="M94.32,214.55H91.48V213h7.73l-.54,1.52H96.15v7.75H94.32Z"/><path class="cls-2" d="M100.58,213h1.84v6.34h0l4.31-6.34h1.67v9.26H106.6V216h0l-4.31,6.32h-1.67Z"/><path class="cls-2" d="M111.13,222.3V213h4.5a2.52,2.52,0,0,1,2.81,2.36,2.17,2.17,0,0,1-1.26,2v0a2.34,2.34,0,0,1,1.71,2.18,2.74,2.74,0,0,1-3,2.72Zm4.24-5.53a1.13,1.13,0,0,0,1.22-1.14,1.12,1.12,0,0,0-1.22-1.13H113v2.27Zm.09,4.07c.84,0,1.52-.45,1.52-1.29s-.67-1.29-1.52-1.29H113v2.59Z"/><path class="cls-2" d="M121,213h1.84v3.69h4V213h1.84v9.26h-1.84v-4.05h-4v4.05H121Z"/><path class="cls-2" d="M139.88,217.67a4.62,4.62,0,1,1-4.61-4.86A4.64,4.64,0,0,1,139.88,217.67Zm-1.86,0c0-1.86-1.13-3.23-2.76-3.23s-2.76,1.37-2.76,3.23,1.13,3.23,2.76,3.23S138,219.54,138,217.67Z"/><path class="cls-2" d="M141.9,213H148l-.54,1.52h-3.68v7.75H141.9Z"/><path class="cls-2" d="M157.17,217.67a4.62,4.62,0,1,1-4.61-4.86A4.64,4.64,0,0,1,157.17,217.67Zm-1.86,0c0-1.86-1.13-3.23-2.76-3.23s-2.76,1.37-2.76,3.23,1.13,3.23,2.76,3.23S155.31,219.54,155.31,217.67Z"/><path class="cls-2" d="M61.5,231.67h8.16L69,233.4H63.44v11.4H61.5Z"/><path class="cls-2" d="M71.07,248.27H69.23V235.54h1.84v1.41h0a3.56,3.56,0,0,1,3-1.63c2.48,0,4.33,2,4.33,4.86S76.62,245,74.14,245a3.57,3.57,0,0,1-3-1.63h0Zm2.74-4.88c1.65,0,2.79-1.39,2.79-3.24a2.82,2.82,0,1,0-5.59,0C71,242,72.15,243.39,73.8,243.39Z"/><path class="cls-2" d="M79.77,242c0-1.54,1.14-3,4.07-3a14.34,14.34,0,0,1,1.89.17v-.49a1.76,1.76,0,0,0-2-1.76,4.27,4.27,0,0,0-2.44.81l-1.16-1.16a5.76,5.76,0,0,1,3.64-1.26c2.33,0,3.79,1.33,3.79,3.49v6h-1.8v-1h0A3.33,3.33,0,0,1,83,245,3,3,0,0,1,79.77,242Zm6-1v-.47a13.73,13.73,0,0,0-1.63-.13c-1.61,0-2.48.6-2.48,1.56a1.57,1.57,0,0,0,1.76,1.46A2.29,2.29,0,0,0,85.73,241.07Z"/><path class="cls-2" d="M94,240.82l-3,4H88.8l3.71-4.93-3.15-4.33h2l2.7,3.77h1v-3.77h1.84v3.77h1l2.7-3.77h2l-3.15,4.33L103,244.8h-2.18l-3-4h-1v4H95v-4Z"/><path class="cls-2" d="M103.24,243.28h.68c.64-.43.94-1.52,1.13-3,.38-2.83.47-4.74.47-4.74h6.15v7.75h1.22v3.66h-1.67V244.8h-6.3v2.14h-1.67Zm2.7,0h3.88v-6.23h-2.74c-.08.84-.17,2.12-.34,3.45a6.75,6.75,0,0,1-.81,2.74Z"/><path class="cls-2" d="M113.95,242c0-1.54,1.14-3,4.07-3a14.34,14.34,0,0,1,1.89.17v-.49a1.76,1.76,0,0,0-2-1.76,4.27,4.27,0,0,0-2.44.81l-1.16-1.16a5.76,5.76,0,0,1,3.64-1.26c2.33,0,3.79,1.33,3.79,3.49v6h-1.8v-1h0a3.33,3.33,0,0,1-2.72,1.24A3,3,0,0,1,113.95,242Zm6-1v-.47a13.73,13.73,0,0,0-1.63-.13c-1.61,0-2.48.6-2.48,1.56a1.57,1.57,0,0,0,1.76,1.46A2.29,2.29,0,0,0,119.91,241.07Z"/><path class="cls-2" d="M124.28,235.54h1.84v3.69h4v-3.69h1.84v9.26h-1.84v-4.05h-4v4.05h-1.84Z"/><path class="cls-2" d="M134.65,235.54h1.84v6.34h0l4.31-6.34h1.67v9.26h-1.84v-6.32h0l-4.31,6.32h-1.67Z"/><path class="cls-2" d="M145.2,235.54H147v3.69h4v-3.69h1.84v9.26H151v-4.05h-4v4.05H145.2Z"/><path class="cls-2" d="M154.8,242c0-1.54,1.14-3,4.07-3a14.34,14.34,0,0,1,1.89.17v-.49a1.76,1.76,0,0,0-2-1.76,4.27,4.27,0,0,0-2.44.81l-1.16-1.16a5.76,5.76,0,0,1,3.64-1.26c2.33,0,3.79,1.33,3.79,3.49v6h-1.8v-1h0A3.33,3.33,0,0,1,158,245,3,3,0,0,1,154.8,242Zm6-1v-.47a13.73,13.73,0,0,0-1.63-.13c-1.61,0-2.48.6-2.48,1.56a1.57,1.57,0,0,0,1.76,1.46A2.29,2.29,0,0,0,160.77,241.07Z"/><path class="cls-2" d="M166.47,241.09l-1.74-3.69h1.93l1.84,3.69-1.84,3.71h-1.93Zm3.85,0-1.74-3.69h1.93l1.84,3.69-1.84,3.71h-1.93Z"/><path class="cls-9" d="M230.13,164.89a94.3,94.3,0,0,1-54.67-73.76"/><polyline class="cls-9" points="214.27 166.16 230.13 164.89 222.34 151.62"/><path class="cls-9" d="M409.87,164.89a94.3,94.3,0,0,0,54.67-73.76"/><polyline class="cls-9" points="425.73 166.16 409.87 164.89 417.66 151.62"/><rect class="cls-6" x="376.67" y="42.26" width="243.33" height="73.89" rx="10" ry="10"/><rect class="cls-2" x="337.97" y="0.76" width="59.24" height="107.01"/><rect class="cls-3" x="343.71" y="6.5" width="47.77" height="81.22"/><rect class="cls-3" x="360.43" y="95.24" width="14.33" height="5.02" rx="1.48" ry="1.48"/><path class="cls-3" d="M410,59.68h10.71V72.8h-1.93V61.38h-6.85V72.8H410Z"/><path class="cls-3" d="M425.73,76.27h-1.84V63.54h1.84v1.41h0a3.56,3.56,0,0,1,3-1.63c2.48,0,4.33,2,4.33,4.86S431.28,73,428.81,73a3.57,3.57,0,0,1-3-1.63h0Zm2.74-4.88c1.65,0,2.79-1.39,2.79-3.24a2.82,2.82,0,1,0-5.59,0C425.67,70,426.82,71.4,428.47,71.4Z"/><path class="cls-3" d="M435.2,63.54H437v6.34h0l4.31-6.34h1.67V72.8h-1.84V66.48h0l-4.31,6.32H435.2Z"/><path class="cls-3" d="M444.57,72.82V71.23a1.39,1.39,0,0,0,.47.09c.84,0,1.14-.92,1.29-2.79.21-2.57.34-5,.34-5h6.83V72.8h-1.84V65.06h-3.36c0,.9-.11,2.27-.21,3.53-.21,2.85-.92,4.41-2.64,4.41A2.73,2.73,0,0,1,444.57,72.82Z"/><path class="cls-3" d="M464.75,68.17a4.62,4.62,0,1,1-4.61-4.86A4.64,4.64,0,0,1,464.75,68.17Zm-1.86,0c0-1.86-1.13-3.23-2.76-3.23s-2.76,1.37-2.76,3.23,1.13,3.23,2.76,3.23S462.89,70,462.89,68.17Z"/><path class="cls-3" d="M470.49,68.83l-3,4h-2.18L469,67.87l-3.15-4.33h2l2.7,3.77h1V63.54h1.84v3.77h1l2.7-3.77h2l-3.15,4.33,3.71,4.93h-2.18l-3-4h-1v4h-1.84v-4Z"/><path class="cls-3" d="M480,68.19a4.57,4.57,0,0,1,4.46-4.88c2.4,0,4.46,1.63,4.46,5.19v.26h-7a2.86,2.86,0,0,0,2.94,2.61,3.63,3.63,0,0,0,2.36-.9l1.16,1.16A5.27,5.27,0,0,1,484.74,73,4.62,4.62,0,0,1,480,68.19Zm7-.81a2.54,2.54,0,0,0-2.44-2.44A2.63,2.63,0,0,0,482,67.38Z"/><path class="cls-3" d="M490.9,63.54h1.84v3.69h4V63.54h1.84V72.8h-1.84V68.75h-4V72.8H490.9Z"/><path class="cls-3" d="M501.27,63.54h1.84v6.34h0l4.31-6.34h1.67V72.8h-1.84V66.48h0l-4.31,6.32h-1.67Z"/><path class="cls-3" d="M511.15,68.19a4.57,4.57,0,0,1,4.46-4.88c2.4,0,4.46,1.63,4.46,5.19v.26h-7A2.86,2.86,0,0,0,516,71.38a3.63,3.63,0,0,0,2.36-.9l1.16,1.16A5.27,5.27,0,0,1,515.84,73,4.62,4.62,0,0,1,511.15,68.19Zm7-.81a2.54,2.54,0,0,0-2.44-2.44,2.63,2.63,0,0,0-2.59,2.44Z"/><path class="cls-3" d="M409.14,91.59,411,87.9h1.93l-1.76,3.69,1.76,3.71H411Zm3.85,0,1.84-3.69h1.93L415,91.59l1.74,3.71h-1.93Z"/><path class="cls-3" d="M417.84,95.3,423,82.18h1.71l5.14,13.13h-2.21L426.41,92h-5.21L420,95.3Zm8-4.93-2-5.31h0l-2,5.31Z"/><path class="cls-3" d="M431.34,86h1.84v3.77h1.13L437.19,86h2.06l-3.34,4.28,3.92,5h-2.27l-3.13-4h-1.26v4h-1.84Z"/><path class="cls-3" d="M442.83,87.56H440V86h7.73l-.54,1.52h-2.51V95.3h-1.84Z"/><path class="cls-3" d="M449.09,86h1.84v6.34h0L455.28,86H457V95.3h-1.84V89h0l-4.31,6.32h-1.67Z"/><path class="cls-3" d="M459.65,95.3V86h4.5A2.52,2.52,0,0,1,467,88.4a2.17,2.17,0,0,1-1.26,2v0a2.34,2.34,0,0,1,1.71,2.18,2.74,2.74,0,0,1-3,2.72Zm4.24-5.53a1.13,1.13,0,0,0,1.22-1.14,1.12,1.12,0,0,0-1.22-1.13h-2.4v2.27Zm.09,4.07c.84,0,1.52-.45,1.52-1.29s-.67-1.29-1.52-1.29h-2.49v2.59Z"/><path class="cls-3" d="M469.47,86h1.84v3.69h4V86h1.84V95.3h-1.84V91.25h-4V95.3h-1.84Z"/><path class="cls-3" d="M483.74,89.08c2,0,3.51,1.13,3.49,3.11s-1.46,3.11-3.49,3.11h-3.9V86h1.84v3Zm-.38,1.46h-1.69v3.3h1.69c1,0,2-.45,2-1.65S484.38,90.54,483.37,90.54Zm5-4.5h1.84V95.3h-1.84Z"/><path class="cls-3" d="M492.93,86h1.84v6.34h0L499.12,86h1.67V95.3h-1.84V89h0L494.6,95.3h-1.67Zm.94-2.66,1.05-1a2.58,2.58,0,0,0,4,0l1.05,1a3.89,3.89,0,0,1-6.08,0Z"/><path class="cls-3" d="M508.64,82.18h8.16l-.62,1.72h-5.61V95.3h-1.93Z"/><path class="cls-3" d="M518.2,98.77h-1.84V86h1.84v1.41h0a3.56,3.56,0,0,1,3-1.63c2.48,0,4.33,2,4.33,4.86s-1.86,4.86-4.33,4.86a3.57,3.57,0,0,1-3-1.63h0Zm2.74-4.88c1.65,0,2.79-1.39,2.79-3.24a2.82,2.82,0,1,0-5.59,0C518.15,92.51,519.29,93.9,520.94,93.9Z"/><path class="cls-3" d="M526.9,92.53c0-1.54,1.14-3,4.07-3a14.34,14.34,0,0,1,1.89.17v-.49a1.76,1.76,0,0,0-2-1.76,4.27,4.27,0,0,0-2.44.81l-1.16-1.16a5.76,5.76,0,0,1,3.64-1.26c2.33,0,3.79,1.33,3.79,3.49v6h-1.8v-1h0a3.33,3.33,0,0,1-2.72,1.24A3,3,0,0,1,526.9,92.53Zm6-1V91.1a13.73,13.73,0,0,0-1.63-.13c-1.61,0-2.48.6-2.48,1.56A1.57,1.57,0,0,0,530.52,94,2.29,2.29,0,0,0,532.87,91.57Z"/><path class="cls-3" d="M541.14,91.33l-3,4h-2.18l3.71-4.93L536.5,86h2l2.7,3.77h1V86H544v3.77h1l2.7-3.77h2l-3.15,4.33,3.71,4.93H548l-3-4h-1v4h-1.84v-4Z"/><path class="cls-3" d="M550.38,93.79h.68c.64-.43.94-1.52,1.13-3,.38-2.83.47-4.74.47-4.74h6.15v7.75H560v3.66h-1.67V95.3H552v2.14h-1.67Zm2.7,0H557V87.56h-2.74c-.08.84-.17,2.12-.34,3.45a6.75,6.75,0,0,1-.81,2.74Z"/><path class="cls-3" d="M561.09,92.53c0-1.54,1.14-3,4.07-3a14.34,14.34,0,0,1,1.89.17v-.49a1.76,1.76,0,0,0-2-1.76,4.27,4.27,0,0,0-2.44.81l-1.16-1.16a5.76,5.76,0,0,1,3.64-1.26c2.33,0,3.79,1.33,3.79,3.49v6h-1.8v-1h0a3.33,3.33,0,0,1-2.72,1.24A3,3,0,0,1,561.09,92.53Zm6-1V91.1a13.73,13.73,0,0,0-1.63-.13c-1.61,0-2.48.6-2.48,1.56A1.57,1.57,0,0,0,564.7,94,2.29,2.29,0,0,0,567,91.57Z"/><path class="cls-3" d="M571.42,86h1.84v3.69h4V86h1.84V95.3h-1.84V91.25h-4V95.3h-1.84Z"/><path class="cls-3" d="M581.79,86h1.84v6.34h0L588,86h1.67V95.3H587.8V89h0l-4.31,6.32h-1.67Z"/><path class="cls-3" d="M592.34,86h1.84v3.69h4V86H600V95.3h-1.84V91.25h-4V95.3h-1.84Z"/><path class="cls-3" d="M604,91.59,602.3,87.9h1.93l1.84,3.69-1.84,3.71H602.3Zm3.85,0-1.74-3.69h1.93l1.84,3.69-1.84,3.71h-1.93Z"/><rect class="cls-6" x="57.84" y="42.26" width="243.33" height="73.89" rx="10" ry="10"/><path class="cls-3" d="M194.68,66.24a6.44,6.44,0,0,1,6.41-6.79,6.15,6.15,0,0,1,4.43,1.78l-1.24,1.24a4.73,4.73,0,0,0-3.21-1.28c-2.64,0-4.39,2.19-4.39,5s1.74,5,4.39,5A4.64,4.64,0,0,0,204.29,70l1.24,1.24A6.07,6.07,0,0,1,201.1,73,6.44,6.44,0,0,1,194.68,66.24Z"/><path class="cls-3" d="M206.57,70c0-1.54,1.14-3,4.07-3a14.34,14.34,0,0,1,1.89.17v-.49a1.76,1.76,0,0,0-2-1.76,4.27,4.27,0,0,0-2.44.81l-1.16-1.16a5.76,5.76,0,0,1,3.64-1.26c2.33,0,3.79,1.33,3.79,3.49v6h-1.8v-1h0A3.33,3.33,0,0,1,209.82,73,3,3,0,0,1,206.57,70Zm6-1V68.6a13.73,13.73,0,0,0-1.63-.13c-1.61,0-2.48.6-2.48,1.56a1.57,1.57,0,0,0,1.76,1.46A2.29,2.29,0,0,0,212.53,69.07Z"/><path class="cls-3" d="M216.9,63.54h1.84v6.34h0l4.31-6.34h1.67V72.8h-1.84V66.48h0l-4.31,6.32H216.9Zm.94-2.66,1.05-1a2.58,2.58,0,0,0,4,0l1.05,1a3.89,3.89,0,0,1-6.08,0Z"/><path class="cls-3" d="M229.07,65.06h-2.83V63.54H234l-.54,1.52h-2.51V72.8h-1.84Z"/><path class="cls-3" d="M194.38,92.53c0-1.54,1.14-3,4.07-3a14.34,14.34,0,0,1,1.89.17v-.49a1.76,1.76,0,0,0-2-1.76,4.27,4.27,0,0,0-2.44.81l-1.16-1.16a5.76,5.76,0,0,1,3.64-1.26c2.33,0,3.79,1.33,3.79,3.49v6h-1.8v-1h0a3.33,3.33,0,0,1-2.72,1.24A3,3,0,0,1,194.38,92.53Zm6-1V91.1a13.73,13.73,0,0,0-1.63-.13c-1.61,0-2.48.6-2.48,1.56A1.57,1.57,0,0,0,198,94,2.29,2.29,0,0,0,200.35,91.57Z"/><path class="cls-3" d="M203.63,98.14l1.26-1.26a7.31,7.31,0,0,0,3.28.75c1.71,0,2.64-.51,2.64-1.22,0-.47-.28-.88-1.31-.88h-2.66a2.08,2.08,0,0,1-2.29-2.08,2.8,2.8,0,0,1,.81-2,3,3,0,0,1-1.16-2.42c0-1.74,1.43-3.26,3.94-3.26a4.74,4.74,0,0,1,2.29.54,3.51,3.51,0,0,1,2.53-1.05,4.72,4.72,0,0,1,1.26.17l-.58,1.61a3.43,3.43,0,0,0-.86-.13,2.16,2.16,0,0,0-1.24.39,3,3,0,0,1,.54,1.72c0,1.76-1.46,3.28-3.94,3.28a4.79,4.79,0,0,1-1.71-.28,2.1,2.1,0,0,0-.24.92c0,.54.41.86,1.11.86h2.85a2.31,2.31,0,0,1,2.57,2.36c0,1.56-1.39,3-4.65,3A8.41,8.41,0,0,1,203.63,98.14Zm6.62-9.06a2.16,2.16,0,1,0-2.12,1.8A1.9,1.9,0,0,0,210.25,89.08Z"/><path class="cls-3" d="M215.53,92.68h2.33V95.3h-2.33Z"/><path class="cls-3" d="M222.58,95.3h-1.84V86h1.8v1.24h0a3.42,3.42,0,0,1,2.76-1.46,3,3,0,0,1,2.83,1.71h0a3.73,3.73,0,0,1,3.09-1.71c2,0,3.21,1.29,3.21,3.41V95.3h-1.84V89.47a1.74,1.74,0,0,0-1.78-1.93,3,3,0,0,0-2.34,1.35V95.3h-1.84V89.47a1.74,1.74,0,0,0-1.78-1.93,3,3,0,0,0-2.34,1.35Z"/><path class="cls-3" d="M245.61,90.67A4.62,4.62,0,1,1,241,85.81,4.64,4.64,0,0,1,245.61,90.67Zm-1.86,0c0-1.86-1.13-3.23-2.76-3.23s-2.76,1.37-2.76,3.23,1.13,3.23,2.76,3.23S243.75,92.55,243.75,90.67Z"/><path class="cls-3" d="M246.73,94.23l1.2-1.2a3.9,3.9,0,0,0,2.46.94c.88,0,1.5-.47,1.5-1.09s-.43-.86-1.33-1.22l-1.44-.56a2.71,2.71,0,0,1-2-2.59c0-1.44,1.29-2.7,3.34-2.7A4.94,4.94,0,0,1,253.63,87l-1.14,1.14a3.5,3.5,0,0,0-2-.77c-1,0-1.48.54-1.48,1s.23.82,1.09,1.18l1.43.58c1.39.56,2.31,1.29,2.31,2.59,0,1.48-1.26,2.81-3.43,2.81A5.54,5.54,0,0,1,246.73,94.23Z"/><path class="cls-3" d="M255.88,92.68h2.33V95.3h-2.33Z"/><path class="cls-3" d="M261.1,86h1.8v1.44h0a3.79,3.79,0,0,1,2.78-1.56,3.89,3.89,0,0,1,1.26.21l-.64,1.8a2.3,2.3,0,0,0-.79-.13A3.86,3.86,0,0,0,262.93,89V95.3H261.1Z"/><path class="cls-3" d="M268.22,92.15V86h1.84v5.74c0,1.35.75,2,1.78,2a3,3,0,0,0,2.36-1.35V86H276V95.3h-1.8V94.1h0a3.31,3.31,0,0,1-2.76,1.43A3.07,3.07,0,0,1,268.22,92.15Z"/><rect class="cls-2" x="41.39" y="0.76" width="124.31" height="85.01"/><rect class="cls-3" x="48.07" y="7.45" width="110.95" height="70.31"/><polygon class="cls-2" points="91.86 97.08 115.22 97.08 119.23 101.36 187.08 101.36 165.7 88.72 41.38 88.72 20 101.36 87.86 101.36 91.86 97.08"/><path class="cls-2" d="M20,103.5H187.08a0,0,0,0,1,0,0v1.89a2.39,2.39,0,0,1-2.39,2.39H22.39A2.39,2.39,0,0,1,20,105.38V103.5A0,0,0,0,1,20,103.5Z"/><line class="cls-8" x1="168.8" y1="995.15" x2="168.8" y2="960.45"/><circle class="cls-10" cx="168.8" cy="960.45" r="4.69"/><line class="cls-8" x1="471.23" y1="995.15" x2="471.23" y2="960.45"/><circle class="cls-10" cx="471.23" cy="960.45" r="4.69"/><rect class="cls-3" x="21" y="986.51" width="598" height="41.13" rx="9" ry="9"/><path class="cls-2" d="M610,987.51a8,8,0,0,1,8,8v23.12a8,8,0,0,1-8,8H30a8,8,0,0,1-8-8V995.51a8,8,0,0,1,8-8H610m0-2H30a10,10,0,0,0-10,10v23.12a10,10,0,0,0,10,10H610a10,10,0,0,0,10-10V995.51a10,10,0,0,0-10-10Z"/><path class="cls-2" d="M145.5,1011.29l4.18-13.13h1.71l3.26,10h0l3.24-10h1.71l4.18,13.13h-2.12l-3-9.62h0l-3.15,9.62h-1.78l-3.15-9.62h0l-3,9.62Z"/><path class="cls-2" d="M174,1006.66a4.62,4.62,0,1,1-4.61-4.86A4.64,4.64,0,0,1,174,1006.66Zm-1.86,0c0-1.86-1.13-3.23-2.76-3.23s-2.76,1.37-2.76,3.23,1.13,3.23,2.76,3.23S172.13,1008.53,172.13,1006.66Z"/><path class="cls-2" d="M174.83,1009.77h.68c.64-.43.94-1.52,1.13-3,.38-2.83.47-4.74.47-4.74h6.15v7.75h1.22v3.66H182.8v-2.14h-6.3v2.14h-1.67Zm2.7,0h3.88v-6.23h-2.74c-.08.84-.17,2.12-.34,3.45a6.75,6.75,0,0,1-.81,2.74Z"/><path class="cls-2" d="M184.73,1014.18l1.22-1.22a1.83,1.83,0,0,0,1,.34c.73,0,1.33-.36,1.82-1.74l-3.71-9.53h2l2.64,7.16h0l2.33-7.16h2l-3.51,10c-.58,1.65-1.63,2.93-3.6,2.93A3.62,3.62,0,0,1,184.73,1014.18Z"/><path class="cls-2" d="M194.4,1011.31v-1.59a1.39,1.39,0,0,0,.47.09c.84,0,1.14-.92,1.29-2.79.21-2.57.34-5,.34-5h6.83v9.26h-1.84v-7.75h-3.36c0,.9-.11,2.27-.21,3.53-.21,2.85-.92,4.41-2.64,4.41A2.73,2.73,0,0,1,194.4,1011.31Z"/><path class="cls-2" d="M210.3,1005.06c2,0,3.51,1.13,3.49,3.11s-1.46,3.11-3.49,3.11H206V1002h1.84v3Zm-.37,1.46h-2.06v3.3h2.06c1,0,2-.45,2-1.65S210.94,1006.53,209.93,1006.53Z"/><path class="cls-2" d="M220.28,1002h1.84v3.69h4V1002h1.84v9.26h-1.84v-4.05h-4v4.05h-1.84Z"/><path class="cls-2" d="M230,1006.68a4.57,4.57,0,0,1,4.46-4.88c2.4,0,4.46,1.63,4.46,5.19v.26h-7a2.86,2.86,0,0,0,2.94,2.61,3.63,3.63,0,0,0,2.36-.9l1.16,1.16a5.27,5.27,0,0,1-3.69,1.39A4.62,4.62,0,0,1,230,1006.68Zm7-.81a2.54,2.54,0,0,0-2.44-2.44,2.63,2.63,0,0,0-2.59,2.44Z"/><path class="cls-2" d="M239.7,1010.22l1.14-1.14a3.4,3.4,0,0,0,2.49.86c1.26,0,2-.64,2-1.35s-.49-1.33-1.84-1.33H242v-1.46h1.41c.94,0,1.61-.41,1.61-1.24s-.77-1.2-1.69-1.2a3.4,3.4,0,0,0-2.33.86l-1.14-1.14a5.45,5.45,0,0,1,3.7-1.28c1.89,0,3.3,1,3.3,2.51a2.19,2.19,0,0,1-1.41,2v0a2.29,2.29,0,0,1,1.67,2.14c0,1.84-1.58,3-3.77,3A5,5,0,0,1,239.7,1010.22Z"/><path class="cls-2" d="M248.53,1008.51c0-1.54,1.14-3,4.07-3a14.34,14.34,0,0,1,1.89.17v-.49a1.76,1.76,0,0,0-2-1.76,4.27,4.27,0,0,0-2.44.81l-1.16-1.16a5.76,5.76,0,0,1,3.64-1.26c2.33,0,3.79,1.33,3.79,3.49v6h-1.8v-1h0a3.33,3.33,0,0,1-2.72,1.24A3,3,0,0,1,248.53,1008.51Zm6-1v-.47a13.73,13.73,0,0,0-1.63-.13c-1.61,0-2.48.6-2.48,1.56a1.57,1.57,0,0,0,1.76,1.46A2.29,2.29,0,0,0,254.5,1007.56Z"/><path class="cls-2" d="M258.86,1011.29V1002h4.5a2.52,2.52,0,0,1,2.81,2.36,2.17,2.17,0,0,1-1.26,2v0a2.34,2.34,0,0,1,1.71,2.18,2.74,2.74,0,0,1-3,2.72Zm4.24-5.53a1.13,1.13,0,0,0,1.22-1.14,1.12,1.12,0,0,0-1.22-1.13h-2.4v2.27Zm.09,4.07c.84,0,1.52-.45,1.52-1.29s-.67-1.29-1.52-1.29H260.7v2.59Z"/><path class="cls-2" d="M268.69,1002h1.84v6.34h0l4.31-6.34h1.67v9.26h-1.84V1005h0l-4.31,6.32h-1.67Z"/><path class="cls-2" d="M283.15,1001.8a4.55,4.55,0,0,1,3.26,1.29l-1.14,1.14a3,3,0,0,0-2.08-.82c-1.65,0-2.78,1.41-2.78,3.24s1.13,3.26,2.78,3.26a2.94,2.94,0,0,0,2.08-.84l1.14,1.14a4.55,4.55,0,0,1-3.26,1.29,4.87,4.87,0,0,1,0-9.71Z"/><path class="cls-2" d="M288,1002h1.84v6.34h0l4.31-6.34h1.67v9.26h-1.84V1005h0l-4.31,6.32H288Z"/><path class="cls-2" d="M299.85,1002h2l2.34,6.9h0l2.46-6.9h1.93l2.23,9.26h-1.89l-1.56-6.7h0l-2.33,6.7H303.3l-2.27-6.66h0l-1.5,6.66h-1.87Z"/><path class="cls-2" d="M321.12,1006.66a4.62,4.62,0,1,1-4.61-4.86A4.64,4.64,0,0,1,321.12,1006.66Zm-1.86,0c0-1.86-1.13-3.23-2.76-3.23s-2.76,1.37-2.76,3.23,1.13,3.23,2.76,3.23S319.26,1008.53,319.26,1006.66Z"/><path class="cls-2" d="M323.14,1002h6.06l-.54,1.52H325v7.75h-1.84Z"/><path class="cls-2" d="M338.4,1006.66a4.62,4.62,0,1,1-4.61-4.86A4.64,4.64,0,0,1,338.4,1006.66Zm-1.86,0c0-1.86-1.13-3.23-2.76-3.23s-2.76,1.37-2.76,3.23,1.13,3.23,2.76,3.23S336.55,1008.53,336.55,1006.66Z"/><path class="cls-2" d="M345.11,1002h7.67v9.26h-1.84v-7.75h-4v7.75h-1.84Z"/><path class="cls-2" d="M364,1006.66a4.62,4.62,0,1,1-4.61-4.86A4.64,4.64,0,0,1,364,1006.66Zm-1.86,0c0-1.86-1.13-3.23-2.76-3.23s-2.76,1.37-2.76,3.23,1.13,3.23,2.76,3.23S362.18,1008.53,362.18,1006.66Z"/><path class="cls-2" d="M364.87,1009.77h.68c.64-.43.94-1.52,1.13-3,.38-2.83.47-4.74.47-4.74h6.15v7.75h1.22v3.66h-1.67v-2.14h-6.3v2.14h-1.67Zm2.7,0h3.88v-6.23h-2.74c-.08.84-.17,2.12-.34,3.45a6.75,6.75,0,0,1-.81,2.74Z"/><path class="cls-2" d="M380.25,1001.8a4.55,4.55,0,0,1,3.26,1.29l-1.14,1.14a3,3,0,0,0-2.08-.82c-1.65,0-2.78,1.41-2.78,3.24s1.13,3.26,2.78,3.26a2.94,2.94,0,0,0,2.08-.84l1.14,1.14a4.55,4.55,0,0,1-3.26,1.29,4.87,4.87,0,0,1,0-9.71Z"/><path class="cls-2" d="M390.19,1007.05h0a3.42,3.42,0,0,1-2.55,1.11,3.13,3.13,0,0,1-3.21-3.38V1002h1.84v2.4c0,1.46.73,2.08,1.82,2.08a2.8,2.8,0,0,0,2.14-1.07V1002H392v9.26h-1.84Z"/><path class="cls-2" d="M394,1006.68a4.57,4.57,0,0,1,4.46-4.88c2.4,0,4.46,1.63,4.46,5.19v.26h-7a2.86,2.86,0,0,0,2.94,2.61,3.63,3.63,0,0,0,2.36-.9l1.16,1.16a5.27,5.27,0,0,1-3.69,1.39A4.62,4.62,0,0,1,394,1006.68Zm7-.81a2.54,2.54,0,0,0-2.44-2.44,2.63,2.63,0,0,0-2.59,2.44Z"/><path class="cls-2" d="M406.24,1003.54h-2.83V1002h7.73l-.54,1.52h-2.51v7.75h-1.84Z"/><path class="cls-2" d="M411.73,1008.51c0-1.54,1.14-3,4.07-3a14.34,14.34,0,0,1,1.89.17v-.49a1.76,1.76,0,0,0-2-1.76,4.27,4.27,0,0,0-2.44.81l-1.16-1.16a5.76,5.76,0,0,1,3.64-1.26c2.33,0,3.79,1.33,3.79,3.49v6h-1.8v-1h0a3.33,3.33,0,0,1-2.72,1.24A3,3,0,0,1,411.73,1008.51Zm6-1v-.47a13.73,13.73,0,0,0-1.63-.13c-1.61,0-2.48.6-2.48,1.56a1.57,1.57,0,0,0,1.76,1.46A2.29,2.29,0,0,0,417.69,1007.56Z"/><path class="cls-2" d="M426.75,1002h6.06l-.54,1.52h-3.68v7.75h-1.84Z"/><path class="cls-2" d="M442,1006.66a4.62,4.62,0,1,1-4.61-4.86A4.64,4.64,0,0,1,442,1006.66Zm-1.86,0c0-1.86-1.13-3.23-2.76-3.23s-2.76,1.37-2.76,3.23,1.13,3.23,2.76,3.23S440.16,1008.53,440.16,1006.66Z"/><path class="cls-2" d="M442.86,1011.31v-1.59a1.39,1.39,0,0,0,.47.09c.84,0,1.14-.92,1.29-2.79.21-2.57.34-5,.34-5h6.83v9.26h-1.84v-7.75h-3.36c0,.9-.11,2.27-.21,3.53-.21,2.85-.92,4.41-2.64,4.41A2.73,2.73,0,0,1,442.86,1011.31Z"/><path class="cls-2" d="M463,1006.66a4.62,4.62,0,1,1-4.61-4.86A4.64,4.64,0,0,1,463,1006.66Zm-1.86,0c0-1.86-1.13-3.23-2.76-3.23s-2.76,1.37-2.76,3.23,1.13,3.23,2.76,3.23S461.18,1008.53,461.18,1006.66Z"/><path class="cls-2" d="M469,1001.8a4.55,4.55,0,0,1,3.26,1.29l-1.14,1.14a3,3,0,0,0-2.08-.82c-1.65,0-2.78,1.41-2.78,3.24s1.13,3.26,2.78,3.26a2.94,2.94,0,0,0,2.08-.84l1.14,1.14a4.55,4.55,0,0,1-3.26,1.29,4.87,4.87,0,0,1,0-9.71Z"/><path class="cls-2" d="M482.23,1006.66a4.62,4.62,0,1,1-4.61-4.86A4.64,4.64,0,0,1,482.23,1006.66Zm-1.86,0c0-1.86-1.13-3.23-2.76-3.23s-2.76,1.37-2.76,3.23,1.13,3.23,2.76,3.23S480.38,1008.53,480.38,1006.66Z"/><path class="cls-2" d="M484.26,1011.29V1002h4.5a2.52,2.52,0,0,1,2.81,2.36,2.17,2.17,0,0,1-1.26,2v0a2.34,2.34,0,0,1,1.71,2.18,2.74,2.74,0,0,1-3,2.72Zm4.24-5.53a1.13,1.13,0,0,0,1.22-1.14,1.12,1.12,0,0,0-1.22-1.13h-2.4v2.27Zm.09,4.07c.84,0,1.52-.45,1.52-1.29s-.67-1.29-1.52-1.29h-2.49v2.59Z"/><path class="cls-8" d="M466.25,565.43a216.08,216.08,0,0,1,67,114.52"/><path class="cls-8" d="M173.75,565.43a216.08,216.08,0,0,0-67,114.52"/></svg>