<svg id="Слой_1" data-name="Слой 1" xmlns="http://www.w3.org/2000/svg" viewBox="0 0 660 625"><defs><style>.cls-1,.cls-10,.cls-7,.cls-8,.cls-9{fill:none;}.cls-1{stroke:#e8418b;}.cls-1,.cls-10,.cls-11,.cls-7,.cls-8,.cls-9{stroke-linecap:round;stroke-linejoin:round;}.cls-1,.cls-10,.cls-11,.cls-7,.cls-9{stroke-width:2px;}.cls-2{fill:#44ad9e;}.cls-11,.cls-3,.cls-5{fill:#fff;}.cls-4{fill:#e8418b;}.cls-10,.cls-11,.cls-5,.cls-8{stroke:#44ad9e;}.cls-5{stroke-miterlimit:10;}.cls-6{fill:#fcc200;}.cls-7{stroke:#fff;}.cls-9{stroke:#fcc200;}</style></defs><title>diagram4 копия</title><line class="cls-1" x1="330.04" y1="299.09" x2="330.04" y2="323.09"/><polyline class="cls-1" points="336.17 317.76 330 325.76 323.83 317.76"/><circle class="cls-2" cx="330" cy="171.76" r="63"/><path class="cls-3" d="M306.61,154.55a4.81,4.81,0,0,1,4.79-5.07,4.59,4.59,0,0,1,3.31,1.33l-.92.92a3.53,3.53,0,0,0-2.4-1c-2,0-3.28,1.64-3.28,3.77s1.3,3.77,3.28,3.77a3.46,3.46,0,0,0,2.4-1l.92.92a4.53,4.53,0,0,1-3.31,1.33A4.81,4.81,0,0,1,306.61,154.55Z"/><path class="cls-3" d="M315.12,156a3.41,3.41,0,0,1,3.33-3.64c1.79,0,3.33,1.22,3.33,3.88v.2h-5.24a2.14,2.14,0,0,0,2.2,1.95,2.71,2.71,0,0,0,1.77-.67l.87.87a3.94,3.94,0,0,1-2.76,1A3.45,3.45,0,0,1,315.12,156Zm5.2-.6a1.89,1.89,0,0,0-1.82-1.82,2,2,0,0,0-1.93,1.82Z"/><path class="cls-3" d="M324.6,162h-1.37v-9.51h1.37v1.05h0a2.66,2.66,0,0,1,2.27-1.22,3.65,3.65,0,0,1,0,7.26,2.66,2.66,0,0,1-2.27-1.22h0Zm2-3.64a2.19,2.19,0,0,0,2.09-2.42,2.11,2.11,0,1,0-4.17,0A2.19,2.19,0,0,0,326.65,158.4Z"/><path class="cls-3" d="M331.67,159.45v-6.92H335a1.88,1.88,0,0,1,2.1,1.76,1.62,1.62,0,0,1-.94,1.47v0a1.75,1.75,0,0,1,1.27,1.63,2,2,0,0,1-2.23,2Zm3.17-4.13a.85.85,0,0,0,.91-.85.84.84,0,0,0-.91-.84H333v1.7Zm.07,3c.63,0,1.13-.34,1.13-1s-.5-1-1.13-1H333v1.93Z"/><path class="cls-3" d="M338.5,156a3.41,3.41,0,0,1,3.33-3.64c1.79,0,3.33,1.22,3.33,3.88v.2h-5.24a2.14,2.14,0,0,0,2.2,1.95,2.71,2.71,0,0,0,1.77-.67l.87.87a3.94,3.94,0,0,1-2.76,1A3.45,3.45,0,0,1,338.5,156Zm5.2-.6a1.89,1.89,0,0,0-1.82-1.82,2,2,0,0,0-1.93,1.82Z"/><path class="cls-3" d="M348,162h-1.37v-9.51H348v1.05h0a2.66,2.66,0,0,1,2.27-1.22,3.65,3.65,0,0,1,0,7.26A2.66,2.66,0,0,1,348,158.4h0Zm2-3.64a2.19,2.19,0,0,0,2.09-2.42,2.11,2.11,0,1,0-4.17,0A2.19,2.19,0,0,0,350,158.4Z"/><path class="cls-3" d="M294.05,173.48l1.37-2.76h1.44l-1.32,2.76,1.32,2.77h-1.44Zm2.87,0,1.37-2.76h1.44l-1.3,2.76,1.3,2.77H298.3Z"/><path class="cls-3" d="M300.55,176.25l3.85-9.81h1.28l3.84,9.81h-1.65l-.91-2.46h-3.89l-.91,2.46Zm6-3.68-1.49-4h0l-1.49,4Z"/><path class="cls-3" d="M310.63,169.33H312v2.82h.84l2.16-2.82h1.54L314,172.53l2.93,3.73h-1.69l-2.34-3H312v3h-1.37Z"/><path class="cls-3" d="M319.21,170.47H317.1v-1.13h5.77l-.41,1.13h-1.88v5.79h-1.37Z"/><path class="cls-3" d="M323.89,169.33h1.37v4.73h0l3.22-4.73h1.25v6.92h-1.37v-4.72h0l-3.22,4.72h-1.25Z"/><path class="cls-3" d="M331.77,176.25v-6.92h3.36a1.88,1.88,0,0,1,2.1,1.77,1.62,1.62,0,0,1-.94,1.47v0a1.75,1.75,0,0,1,1.27,1.63,2,2,0,0,1-2.23,2Zm3.17-4.13a.85.85,0,0,0,.91-.85.84.84,0,0,0-.91-.84h-1.79v1.7Zm.07,3c.63,0,1.13-.34,1.13-1s-.5-1-1.13-1h-1.86v1.93Z"/><path class="cls-3" d="M339.11,169.33h1.37v2.76h3v-2.76h1.37v6.92h-1.37v-3h-3v3h-1.37Z"/><path class="cls-3" d="M353.24,172.79a3.45,3.45,0,1,1-3.45-3.63A3.46,3.46,0,0,1,353.24,172.79Zm-1.39,0a2.08,2.08,0,1,0-2.06,2.41A2.17,2.17,0,0,0,351.85,172.79Z"/><path class="cls-3" d="M354.74,169.33h4.52l-.41,1.13h-2.75v5.79h-1.37Z"/><path class="cls-3" d="M366.14,172.79a3.45,3.45,0,1,1-3.45-3.63A3.46,3.46,0,0,1,366.14,172.79Zm-1.39,0a2.08,2.08,0,1,0-2.06,2.41A2.17,2.17,0,0,0,364.76,172.79Z"/><path class="cls-3" d="M289,183.25H295l-.46,1.29H290.4v8.52H289Z"/><path class="cls-3" d="M296.09,195.64h-1.37v-9.51h1.37v1.05h0a2.66,2.66,0,0,1,2.27-1.22,3.65,3.65,0,0,1,0,7.26,2.66,2.66,0,0,1-2.27-1.22h0Zm2-3.64a2.19,2.19,0,0,0,2.09-2.42,2.11,2.11,0,1,0-4.17,0A2.19,2.19,0,0,0,298.14,192Z"/><path class="cls-3" d="M302.59,191c0-1.15.85-2.25,3-2.25a10.74,10.74,0,0,1,1.42.13v-.36a1.31,1.31,0,0,0-1.48-1.32,3.19,3.19,0,0,0-1.82.6l-.87-.87a4.3,4.3,0,0,1,2.72-.94,2.53,2.53,0,0,1,2.83,2.61v4.48h-1.34v-.76h0a2.49,2.49,0,0,1-2,.92A2.28,2.28,0,0,1,302.59,191Zm4.45-.71v-.35a10.19,10.19,0,0,0-1.22-.1c-1.2,0-1.85.45-1.85,1.16a1.17,1.17,0,0,0,1.32,1.09A1.71,1.71,0,0,0,307,190.26Z"/><path class="cls-3" d="M313.22,190.08l-2.25,3h-1.62l2.77-3.68-2.35-3.24h1.47l2,2.82H314v-2.82h1.37v2.82H316l2-2.82h1.47l-2.35,3.24,2.77,3.68h-1.62l-2.26-3h-.74v3H314v-3Z"/><path class="cls-3" d="M320.12,191.92h.5c.48-.32.7-1.13.84-2.24.28-2.12.35-3.54.35-3.54h4.59v5.79h.91v2.73h-1.25v-1.6h-4.71v1.6h-1.25Zm2,0H325v-4.65h-2c-.06.63-.13,1.58-.25,2.58a5.05,5.05,0,0,1-.6,2Z"/><path class="cls-3" d="M328.11,191c0-1.15.85-2.25,3-2.25a10.74,10.74,0,0,1,1.42.13v-.36a1.31,1.31,0,0,0-1.48-1.32,3.19,3.19,0,0,0-1.82.6l-.87-.87a4.3,4.3,0,0,1,2.72-.94,2.53,2.53,0,0,1,2.83,2.61v4.48h-1.34v-.76h0a2.49,2.49,0,0,1-2,.92A2.28,2.28,0,0,1,328.11,191Zm4.45-.71v-.35a10.19,10.19,0,0,0-1.22-.1c-1.2,0-1.85.45-1.85,1.16a1.17,1.17,0,0,0,1.32,1.09A1.71,1.71,0,0,0,332.56,190.26Z"/><path class="cls-3" d="M335.82,186.13h1.37v2.76h3v-2.76h1.37v6.92h-1.37v-3h-3v3h-1.37Z"/><path class="cls-3" d="M343.57,186.13h1.37v4.73h0l3.22-4.73h1.25v6.92h-1.37v-4.72h0l-3.22,4.72h-1.25Z"/><path class="cls-3" d="M351.45,186.13h1.37v2.76h3v-2.76h1.37v6.92H355.8v-3h-3v3h-1.37Z"/><path class="cls-3" d="M358.62,191c0-1.15.85-2.25,3-2.25a10.74,10.74,0,0,1,1.42.13v-.36a1.31,1.31,0,0,0-1.48-1.32,3.19,3.19,0,0,0-1.82.6l-.87-.87a4.3,4.3,0,0,1,2.72-.94,2.53,2.53,0,0,1,2.83,2.61v4.48H363.1v-.76h0a2.49,2.49,0,0,1-2,.92A2.28,2.28,0,0,1,358.62,191Zm4.45-.71v-.35a10.19,10.19,0,0,0-1.22-.1c-1.2,0-1.85.45-1.85,1.16a1.17,1.17,0,0,0,1.32,1.09A1.71,1.71,0,0,0,363.07,190.26Z"/><path class="cls-3" d="M367.32,190.28l-1.3-2.76h1.44l1.37,2.76-1.37,2.77H366Zm2.87,0-1.3-2.76h1.44l1.37,2.76-1.37,2.77h-1.44Z"/><rect class="cls-4" x="0.41" y="264.4" width="659.19" height="38" rx="10" ry="10"/><path class="cls-3" d="M172,287.89l3.12-9.81h1.28l2.44,7.44h0l2.42-7.44h1.27l3.12,9.81h-1.58l-2.21-7.19h0l-2.35,7.19h-1.33l-2.35-7.19h0l-2.21,7.19Z"/><path class="cls-3" d="M193.26,284.43a3.45,3.45,0,1,1-3.45-3.63A3.46,3.46,0,0,1,193.26,284.43Zm-1.39,0a2.08,2.08,0,1,0-2.06,2.41A2.17,2.17,0,0,0,191.87,284.43Z"/><path class="cls-3" d="M193.88,286.76h.5c.48-.32.7-1.13.84-2.24.28-2.12.35-3.54.35-3.54h4.59v5.79h.91v2.73h-1.25v-1.6h-4.71v1.6h-1.25Zm2,0h2.9v-4.65h-2c-.06.63-.13,1.58-.25,2.58a5.05,5.05,0,0,1-.6,2Z"/><path class="cls-3" d="M201.27,290.05l.91-.91a1.37,1.37,0,0,0,.77.25c.55,0,1-.27,1.36-1.3L201.54,281h1.53l2,5.35h0l1.74-5.35h1.46l-2.62,7.48a2.79,2.79,0,0,1-2.69,2.18A2.7,2.7,0,0,1,201.27,290.05Z"/><path class="cls-3" d="M208.5,287.91v-1.19a1.05,1.05,0,0,0,.35.07c.63,0,.85-.69,1-2.09.15-1.92.25-3.73.25-3.73h5.1v6.92h-1.37v-5.79h-2.51c0,.67-.08,1.7-.15,2.63-.15,2.13-.69,3.29-2,3.29A2,2,0,0,1,208.5,287.91Z"/><path class="cls-3" d="M220.37,283.24a2.34,2.34,0,1,1,0,4.65h-3.19V281h1.37v2.27Zm-.28,1.09h-1.54v2.46h1.54c.76,0,1.46-.34,1.46-1.23S220.85,284.34,220.09,284.34Z"/><path class="cls-3" d="M227.82,281h1.37v4.73h0l3.22-4.73h1.25v6.92h-1.37v-4.72h0l-3.22,4.72h-1.25Z"/><path class="cls-3" d="M235.7,281h1.37v2.76h3V281h1.37v6.92h-1.37v-3h-3v3H235.7Z"/><path class="cls-3" d="M244.65,282.11h-2.12V281h5.77l-.41,1.13H246v5.79h-1.37Z"/><path class="cls-3" d="M248.44,284.45a3.41,3.41,0,0,1,3.33-3.64c1.79,0,3.33,1.22,3.33,3.88v.2h-5.24a2.14,2.14,0,0,0,2.2,1.95,2.71,2.71,0,0,0,1.77-.67l.87.87a3.94,3.94,0,0,1-2.76,1A3.45,3.45,0,0,1,248.44,284.45Zm5.2-.6a1.89,1.89,0,0,0-1.82-1.82,2,2,0,0,0-1.93,1.82Z"/><path class="cls-3" d="M256.55,281h4.52l-.41,1.13h-2.75v5.79h-1.37Z"/><path class="cls-3" d="M263.46,290.49h-1.37V281h1.37V282h0a2.66,2.66,0,0,1,2.27-1.22,3.65,3.65,0,0,1,0,7.26,2.66,2.66,0,0,1-2.27-1.22h0Zm2-3.64a2.19,2.19,0,0,0,2.09-2.42,2.11,2.11,0,1,0-4.17,0A2.19,2.19,0,0,0,265.51,286.84Z"/><path class="cls-3" d="M270,285.82c0-1.15.85-2.25,3-2.25a10.74,10.74,0,0,1,1.42.13v-.36a1.31,1.31,0,0,0-1.48-1.32,3.19,3.19,0,0,0-1.82.6l-.87-.87a4.3,4.3,0,0,1,2.72-.94,2.53,2.53,0,0,1,2.83,2.61v4.48h-1.34v-.76h0a2.49,2.49,0,0,1-2,.92A2.28,2.28,0,0,1,270,285.82Zm4.45-.71v-.35a10.19,10.19,0,0,0-1.22-.1c-1.21,0-1.85.45-1.85,1.16a1.17,1.17,0,0,0,1.32,1.09A1.71,1.71,0,0,0,274.41,285.11Z"/><path class="cls-3" d="M282.92,287.89h-5.25V281H279v5.79h2.84V281h1.37v5.79h.91v2.73h-1.25Z"/><path class="cls-3" d="M285.54,281h1.37v4.73h0l3.22-4.73h1.25v6.92H290v-4.72h0l-3.22,4.72h-1.25Z"/><path class="cls-3" d="M293.42,281h1.37v4.73h0L298,281h1.25v6.92h-1.37v-4.72h0l-3.22,4.72h-1.25Z"/><path class="cls-3" d="M307.72,280.81a3.4,3.4,0,0,1,2.44,1l-.85.85a2.25,2.25,0,0,0-1.55-.62,2.43,2.43,0,1,0,1.55,4.23l.85.85a3.4,3.4,0,0,1-2.44,1,3.63,3.63,0,0,1,0-7.26Z"/><path class="cls-3" d="M314.56,285.12l1.37-2.76h1.44l-1.32,2.76,1.32,2.77h-1.44Zm2.87,0,1.37-2.76h1.44l-1.3,2.76,1.3,2.77H318.8Z"/><path class="cls-3" d="M321.06,287.89l3.85-9.81h1.28l3.84,9.81h-1.65l-.91-2.47h-3.89l-.91,2.47Zm6-3.68-1.49-4h0l-1.49,4Z"/><path class="cls-3" d="M331.14,281h1.37v2.82h.84l2.16-2.82H337l-2.49,3.19,2.93,3.73h-1.69l-2.34-3h-.94v3h-1.37Z"/><path class="cls-3" d="M339.72,282.11H337.6V281h5.77l-.41,1.13h-1.88v5.79h-1.37Z"/><path class="cls-3" d="M344.39,281h1.37v4.73h0L349,281h1.25v6.92h-1.37v-4.72h0l-3.22,4.72h-1.25Z"/><path class="cls-3" d="M352.28,287.89V281h3.36a1.88,1.88,0,0,1,2.1,1.76,1.62,1.62,0,0,1-.94,1.47v0a1.75,1.75,0,0,1,1.27,1.63,2,2,0,0,1-2.23,2Zm3.17-4.13a.85.85,0,0,0,.91-.85.84.84,0,0,0-.91-.84h-1.79v1.7Zm.07,3c.63,0,1.13-.34,1.13-1s-.5-1-1.13-1h-1.86v1.93Z"/><path class="cls-3" d="M359.61,281H361v2.76h3V281h1.37v6.92H364v-3h-3v3h-1.37Z"/><path class="cls-3" d="M370.27,283.24a2.34,2.34,0,1,1,0,4.65h-2.91V281h1.37v2.27Zm-.28,1.09h-1.26v2.46H370c.76,0,1.46-.34,1.46-1.23S370.74,284.34,370,284.34Zm3.75-3.36h1.37v6.92h-1.37Z"/><path class="cls-3" d="M378.06,281h1.48l1.75,5.16h0l1.83-5.16h1.44l1.67,6.92h-1.41l-1.16-5h0l-1.74,5h-1.29l-1.7-5h0l-1.12,5h-1.4Z"/><path class="cls-3" d="M391.41,278.09h6.09l-.46,1.29h-4.19v8.52h-1.44Z"/><path class="cls-3" d="M398.55,290.49h-1.37V281h1.37V282h0a2.66,2.66,0,0,1,2.27-1.22,3.65,3.65,0,0,1,0,7.26,2.66,2.66,0,0,1-2.27-1.22h0Zm2-3.64a2.19,2.19,0,0,0,2.09-2.42,2.11,2.11,0,1,0-4.17,0A2.19,2.19,0,0,0,400.59,286.84Z"/><path class="cls-3" d="M405,285.82c0-1.15.85-2.25,3-2.25a10.74,10.74,0,0,1,1.42.13v-.36A1.31,1.31,0,0,0,408,282a3.19,3.19,0,0,0-1.82.6l-.87-.87a4.3,4.3,0,0,1,2.72-.94,2.53,2.53,0,0,1,2.83,2.61v4.48h-1.34v-.76h0a2.49,2.49,0,0,1-2,.92A2.28,2.28,0,0,1,405,285.82Zm4.45-.71v-.35a10.19,10.19,0,0,0-1.22-.1c-1.2,0-1.85.45-1.85,1.16a1.17,1.17,0,0,0,1.32,1.09A1.71,1.71,0,0,0,409.5,285.11Z"/><path class="cls-3" d="M415.67,284.92l-2.25,3h-1.62l2.77-3.68L412.21,281h1.47l2,2.82h.71V281h1.37v2.82h.71l2-2.82H422l-2.35,3.24,2.77,3.68h-1.62l-2.26-3h-.74v3h-1.37v-3Z"/><path class="cls-3" d="M422.57,286.76h.5c.48-.32.7-1.13.84-2.24.28-2.12.35-3.54.35-3.54h4.59v5.79h.91v2.73h-1.25v-1.6h-4.71v1.6h-1.25Zm2,0h2.9v-4.65h-2c-.06.63-.13,1.58-.25,2.58a5.05,5.05,0,0,1-.6,2Z"/><path class="cls-3" d="M430.56,285.82c0-1.15.85-2.25,3-2.25a10.74,10.74,0,0,1,1.42.13v-.36a1.31,1.31,0,0,0-1.48-1.32,3.19,3.19,0,0,0-1.82.6l-.87-.87a4.3,4.3,0,0,1,2.72-.94,2.53,2.53,0,0,1,2.83,2.61v4.48H435v-.76h0a2.49,2.49,0,0,1-2,.92A2.28,2.28,0,0,1,430.56,285.82Zm4.45-.71v-.35a10.19,10.19,0,0,0-1.22-.1c-1.2,0-1.85.45-1.85,1.16a1.17,1.17,0,0,0,1.32,1.09A1.71,1.71,0,0,0,435,285.11Z"/><path class="cls-3" d="M438.28,281h1.37v2.76h3V281H444v6.92h-1.37v-3h-3v3h-1.37Z"/><path class="cls-3" d="M446,281h1.37v4.73h0l3.22-4.73h1.25v6.92h-1.37v-4.72h0l-3.22,4.72H446Z"/><path class="cls-3" d="M453.9,281h1.37v2.76h3V281h1.37v6.92h-1.37v-3h-3v3H453.9Z"/><path class="cls-3" d="M468,284.43a3.45,3.45,0,1,1-3.45-3.63A3.46,3.46,0,0,1,468,284.43Zm-1.39,0a2.08,2.08,0,1,0-2.06,2.41A2.17,2.17,0,0,0,466.64,284.43Z"/><path class="cls-3" d="M470.48,281H472l1.75,5.16h0l1.83-5.16H477l1.67,6.92h-1.42l-1.16-5h0l-1.74,5h-1.29l-1.7-5h0l-1.12,5h-1.4Z"/><path class="cls-3" d="M481,285.12l-1.3-2.76h1.44l1.37,2.76-1.37,2.77h-1.44Zm2.87,0-1.3-2.76H484l1.37,2.76L484,287.89h-1.44Z"/><rect class="cls-5" x="0.41" y="353.98" width="200" height="200"/><path class="cls-2" d="M59,370.26h2.85a2.23,2.23,0,0,1,2.45,2.1A1.89,1.89,0,0,1,63.4,374v0a2.25,2.25,0,0,1,1.71,2.22,2.54,2.54,0,0,1-2.77,2.42H59Zm2.66,3.51a1.23,1.23,0,1,0,0-2.45H60.22v2.45Zm.54,3.83a1.42,1.42,0,1,0,0-2.82h-2v2.82Z"/><path class="cls-2" d="M66.44,369.75h1.18v8.9H66.44Z"/><path class="cls-2" d="M74.81,375.69a3,3,0,1,1-2.95-3.11A3,3,0,0,1,74.81,375.69Zm-1.19,0a1.79,1.79,0,1,0-1.76,2.06A1.86,1.86,0,0,0,73.63,375.69Z"/><path class="cls-2" d="M78.61,372.58a2.91,2.91,0,0,1,2.09.83l-.73.73a1.93,1.93,0,0,0-1.33-.53A2.08,2.08,0,1,0,80,377.24l.73.73a2.91,2.91,0,0,1-2.09.83,3.11,3.11,0,0,1,0-6.21Z"/><path class="cls-2" d="M81.66,369.75h1.19V375h.9l1.76-2.27h1.37l-2.09,2.63,2.36,3.3H85.71L83.81,376h-1v2.69H81.66Z"/><path class="cls-2" d="M90.46,372.58a2.91,2.91,0,0,1,2.09.83l-.73.73a1.93,1.93,0,0,0-1.33-.53,2.08,2.08,0,1,0,1.33,3.62l.73.73a3.05,3.05,0,1,1-2.09-5.38Z"/><path class="cls-2" d="M93.51,369.75h1.18v3.73h0a2.25,2.25,0,0,1,1.8-.9,2,2,0,0,1,2.07,2.18v3.89H97.41V375a1.14,1.14,0,0,0-1.19-1.27,2,2,0,0,0-1.54.86v4.1H93.51Z"/><path class="cls-2" d="M99.73,376.88c0-1,.73-1.93,2.6-1.93a9.14,9.14,0,0,1,1.21.11v-.31a1.13,1.13,0,0,0-1.27-1.13,2.72,2.72,0,0,0-1.56.52l-.74-.74a3.68,3.68,0,0,1,2.33-.8,2.17,2.17,0,0,1,2.42,2.23v3.84h-1.15V378h0a2.13,2.13,0,0,1-1.74.79A2,2,0,0,1,99.73,376.88Zm3.81-.61V376a8.69,8.69,0,0,0-1-.08c-1,0-1.58.38-1.58,1a1,1,0,0,0,1.13.94A1.47,1.47,0,0,0,103.54,376.27Z"/><path class="cls-2" d="M106.64,373.7h-1.07l.35-1h1.91v5.92h-1.19Zm0-3.44h1.17v1.4h-1.17Z"/><path class="cls-2" d="M109.55,372.73h1.15v.78h0a2.27,2.27,0,0,1,1.82-.92,2,2,0,0,1,2.07,2.18v3.89h-1.18V375a1.14,1.14,0,0,0-1.19-1.27,2,2,0,0,0-1.54.86v4.1h-1.18Z"/><path class="cls-2" d="M116.14,374.82h3.08V376h-3.08Z"/><path class="cls-2" d="M123.33,372.58a2.91,2.91,0,0,1,2.09.83l-.73.73a1.93,1.93,0,0,0-1.33-.53,2.08,2.08,0,1,0,1.33,3.62l.73.73a3.05,3.05,0,1,1-2.09-5.38Z"/><path class="cls-2" d="M125.92,375.7a2.92,2.92,0,0,1,2.86-3.12c1.54,0,2.85,1,2.85,3.32v.17h-4.48a1.83,1.83,0,0,0,1.88,1.67,2.32,2.32,0,0,0,1.51-.58l.74.74a3.37,3.37,0,0,1-2.36.89A3,3,0,0,1,125.92,375.7Zm4.45-.52a1.62,1.62,0,0,0-1.56-1.56,1.68,1.68,0,0,0-1.65,1.56Z"/><path class="cls-2" d="M133.72,373.7h-1.81v-1h4.94l-.35,1H134.9v5h-1.18Z"/><path class="cls-2" d="M140.47,374.67a2,2,0,1,1,0,4h-2.73v-5.92h1.18v1.94Zm-.24.94h-1.32v2.11h1.32c.65,0,1.25-.29,1.25-1.06S140.88,375.61,140.23,375.61Z"/><path class="cls-2" d="M83.51,388.78a10,10,0,0,1,1.57-5.07h1v.17a10.7,10.7,0,0,0-1.38,4.91,11.37,11.37,0,0,0,1.38,5.06V394h-1A10.5,10.5,0,0,1,83.51,388.78Z"/><path class="cls-2" d="M87.88,384.66h2.85a2.23,2.23,0,0,1,2.45,2.1,1.89,1.89,0,0,1-.89,1.63v0A2.25,2.25,0,0,1,94,390.63a2.54,2.54,0,0,1-2.77,2.42H87.88Zm2.66,3.51a1.23,1.23,0,1,0,0-2.45H89.11v2.45Zm.54,3.83a1.42,1.42,0,1,0,0-2.82h-2V392Z"/><path class="cls-2" d="M95.63,384.66h1.23V392H99.8v-7.3H101V392H104v-7.3h1.23v8.4H95.63Z"/><path class="cls-2" d="M106.59,392.06l.79-.79a3,3,0,0,0,2.05.82,2.84,2.84,0,0,0,2.78-2.78h-3.73v-1.09h3.71a2.71,2.71,0,0,0-2.7-2.58,3,3,0,0,0-2.05.82l-.79-.79a3.93,3.93,0,0,1,2.83-1.14,4.35,4.35,0,0,1-.06,8.68A3.88,3.88,0,0,1,106.59,392.06Z"/><path class="cls-2" d="M114.72,393.85a11.4,11.4,0,0,0,1.38-5.06,10.73,10.73,0,0,0-1.38-4.91v-.17h1a10,10,0,0,1,1.57,5.07,10.5,10.5,0,0,1-1.57,5.22h-1Z"/><circle class="cls-6" cx="100.41" cy="436.04" r="25.5"/><polyline class="cls-7" points="90.48 432.55 87.83 434.08 87.83 444.73 97.04 450.05 106.26 444.73 106.26 434.08 98.99 429.88"/><polyline class="cls-7" points="110.24 439.59 112.99 438 112.99 427.36 103.77 422.04 94.55 427.36 94.55 438 101.47 442"/><circle class="cls-6" cx="57.91" cy="499.69" r="25.5"/><polyline class="cls-7" points="47.98 496.2 45.33 497.73 45.33 508.38 54.54 513.7 63.76 508.38 63.76 497.73 56.49 493.53"/><polyline class="cls-7" points="67.74 503.24 70.49 501.65 70.49 491.01 61.27 485.69 52.05 491.01 52.05 501.65 58.97 505.65"/><circle class="cls-6" cx="142.91" cy="499.69" r="25.5"/><polyline class="cls-7" points="132.98 496.2 130.33 497.73 130.33 508.38 139.54 513.7 148.76 508.38 148.76 497.73 141.49 493.53"/><polyline class="cls-7" points="152.74 503.24 155.49 501.65 155.49 491.01 146.27 485.69 137.05 491.01 137.05 501.65 143.97 505.65"/><path class="cls-8" d="M119.48,521a49.16,49.16,0,0,1-37.94.09"/><path class="cls-8" d="M133.09,439.36a49,49,0,0,1,15.18,25.95"/><path class="cls-8" d="M52.06,467.82a48.92,48.92,0,0,1,15.71-28.51"/><path class="cls-4" d="M120.19,385.84l.54-.93,1.32,1.13-.22.38Zm0,1.26,1.64-.58.22.38L120.73,388Zm1.62-2.84h1.09l-.32,1.72h-.45Zm.32,2.7h.45l.32,1.72h-1.09Zm.53-.92,1.32-1.13.54.93-1.64.58Zm0,.86.22-.38,1.64.58L124,388Z"/><rect class="cls-5" x="230" y="334.06" width="200" height="200"/><path class="cls-2" d="M288.58,350.34h2.85a2.23,2.23,0,0,1,2.45,2.1,1.89,1.89,0,0,1-.89,1.63v0a2.25,2.25,0,0,1,1.71,2.22,2.54,2.54,0,0,1-2.77,2.42h-3.36Zm2.66,3.51a1.23,1.23,0,1,0,0-2.45h-1.43v2.45Zm.54,3.83a1.42,1.42,0,1,0,0-2.82h-2v2.82Z"/><path class="cls-2" d="M296,349.83h1.18v8.9H296Z"/><path class="cls-2" d="M304.41,355.77a3,3,0,1,1-3-3.11A3,3,0,0,1,304.41,355.77Zm-1.19,0a1.78,1.78,0,1,0-1.76,2.06A1.86,1.86,0,0,0,303.22,355.77Z"/><path class="cls-2" d="M308.2,352.66a2.91,2.91,0,0,1,2.09.83l-.73.73a1.93,1.93,0,0,0-1.33-.53,2.08,2.08,0,1,0,1.33,3.62l.73.73a3.05,3.05,0,1,1-2.09-5.38Z"/><path class="cls-2" d="M311.25,349.83h1.19v5.24h.9l1.76-2.27h1.37l-2.09,2.63,2.36,3.3H315.3L313.41,356h-1v2.69h-1.19Z"/><path class="cls-2" d="M320.06,352.66a2.91,2.91,0,0,1,2.09.83l-.73.73a1.93,1.93,0,0,0-1.33-.53,2.08,2.08,0,1,0,1.33,3.62l.73.73a3.05,3.05,0,1,1-2.09-5.38Z"/><path class="cls-2" d="M323.11,349.83h1.18v3.73h0a2.25,2.25,0,0,1,1.8-.9,2,2,0,0,1,2.07,2.18v3.89H327V355a1.14,1.14,0,0,0-1.19-1.27,2,2,0,0,0-1.54.86v4.1h-1.18Z"/><path class="cls-2" d="M329.32,357c0-1,.73-1.93,2.6-1.93a9.12,9.12,0,0,1,1.21.11v-.31a1.13,1.13,0,0,0-1.27-1.13,2.72,2.72,0,0,0-1.56.52l-.74-.74a3.68,3.68,0,0,1,2.33-.8,2.17,2.17,0,0,1,2.42,2.23v3.84h-1.15v-.65h0a2.13,2.13,0,0,1-1.74.79A2,2,0,0,1,329.32,357Zm3.81-.61V356a8.69,8.69,0,0,0-1-.08c-1,0-1.58.38-1.58,1a1,1,0,0,0,1.13.94A1.47,1.47,0,0,0,333.14,356.35Z"/><path class="cls-2" d="M336.23,353.78h-1.07l.35-1h1.91v5.92h-1.19Zm0-3.44h1.17v1.4h-1.17Z"/><path class="cls-2" d="M339.15,352.81h1.15v.78h0a2.27,2.27,0,0,1,1.82-.92,2,2,0,0,1,2.07,2.18v3.89H343V355a1.14,1.14,0,0,0-1.19-1.27,2,2,0,0,0-1.54.86v4.1h-1.18Z"/><path class="cls-2" d="M345.74,354.89h3.08v1.16h-3.08Z"/><path class="cls-2" d="M352.92,352.66a2.91,2.91,0,0,1,2.09.83l-.73.73a1.93,1.93,0,0,0-1.33-.53,2.08,2.08,0,1,0,1.33,3.62l.73.73a3.05,3.05,0,1,1-2.09-5.38Z"/><path class="cls-2" d="M355.52,355.78a2.92,2.92,0,0,1,2.85-3.12c1.54,0,2.85,1,2.85,3.32v.17h-4.49a1.83,1.83,0,0,0,1.88,1.67,2.32,2.32,0,0,0,1.51-.58l.74.74a3.37,3.37,0,0,1-2.36.89A3,3,0,0,1,355.52,355.78Zm4.45-.52a1.62,1.62,0,0,0-1.56-1.56,1.68,1.68,0,0,0-1.66,1.56Z"/><path class="cls-2" d="M363.32,353.78h-1.81v-1h4.94l-.35,1h-1.61v5h-1.18Z"/><path class="cls-2" d="M370.06,354.75a2,2,0,1,1,0,4h-2.73v-5.92h1.18v1.94Zm-.24.94H368.5v2.11h1.32c.65,0,1.25-.29,1.25-1.06S370.47,355.69,369.82,355.69Z"/><path class="cls-2" d="M298.74,368.86a10,10,0,0,1,1.57-5.07h1V364a10.73,10.73,0,0,0-1.38,4.91,11.4,11.4,0,0,0,1.38,5.06v.16h-1A10.5,10.5,0,0,1,298.74,368.86Z"/><path class="cls-2" d="M309.76,373.13h-6.66v-8.4h1.24V372h4.38v-7.3H310V372h1v2.83h-1.15Z"/><path class="cls-2" d="M311.93,368.94a4.13,4.13,0,1,1,4.13,4.34A4.16,4.16,0,0,1,311.93,368.94Zm7,0a2.87,2.87,0,1,0-2.84,3.23A2.95,2.95,0,0,0,318.9,368.94Z"/><path class="cls-2" d="M320.84,372h.58c.48-.24.71-.9.88-2s.44-5.33.44-5.33h5.46V372h1v2.83H328v-1.74h-6v1.74h-1.15Zm2,0H327v-6.21h-3.13c0,1-.19,3.36-.35,4.37a4,4,0,0,1-.65,1.82Z"/><path class="cls-2" d="M332.7,372h.58c.48-.24.71-.9.88-2s.44-5.33.44-5.33h5.46V372h1v2.83h-1.15v-1.74h-6v1.74H332.7Zm2,0h4.13v-6.21h-3.13c0,1-.19,3.36-.35,4.37a4,4,0,0,1-.65,1.82Z"/><path class="cls-2" d="M342.62,364.74h1.24v6.57h0l4.71-6.57h1.16v8.4h-1.24v-6.57h0l-4.71,6.57h-1.16Z"/><path class="cls-2" d="M353.82,365.84H351v-1.1h7.06l-.4,1.1h-2.62v7.29h-1.25Z"/><path class="cls-2" d="M358.68,373.92a11.4,11.4,0,0,0,1.38-5.06,10.73,10.73,0,0,0-1.38-4.91v-.17h1a10,10,0,0,1,1.57,5.07,10.49,10.49,0,0,1-1.57,5.22h-1Z"/><path class="cls-4" d="M363.66,365.92l.54-.93,1.32,1.13-.22.38Zm0,1.26,1.64-.58.22.38-1.32,1.13Zm1.62-2.84h1.09l-.32,1.72h-.45Zm.32,2.7H366l.32,1.72h-1.09Zm.53-.92,1.32-1.13.54.93-1.64.58Zm0,.86.22-.38,1.64.58-.54.93Z"/><path class="cls-4" d="M368.73,365.92l.54-.93,1.32,1.13-.22.38Zm0,1.26,1.64-.58.22.38-1.32,1.13Zm1.62-2.84h1.09l-.32,1.72h-.45Zm.32,2.7h.45l.32,1.72h-1.09Zm.53-.92,1.32-1.13.54.93-1.64.58Zm0,.86.22-.38,1.64.58-.54.93Z"/><circle class="cls-6" cx="330" cy="416.12" r="25.5"/><polyline class="cls-7" points="320.07 412.63 317.42 414.16 317.42 424.8 326.64 430.13 335.86 424.8 335.86 414.16 328.58 409.96"/><polyline class="cls-7" points="339.83 419.67 342.58 418.08 342.58 407.44 333.36 402.11 324.14 407.44 324.14 418.08 331.06 422.07"/><circle class="cls-6" cx="287.5" cy="479.77" r="25.5"/><polyline class="cls-7" points="277.57 476.28 274.92 477.81 274.92 488.46 284.14 493.78 293.36 488.46 293.36 477.81 286.08 473.61"/><polyline class="cls-7" points="297.33 483.32 300.08 481.73 300.08 471.09 290.86 465.77 281.64 471.09 281.64 481.73 288.56 485.73"/><circle class="cls-6" cx="372.5" cy="479.77" r="25.5"/><polyline class="cls-7" points="362.57 476.28 359.92 477.81 359.92 488.46 369.14 493.78 378.36 488.46 378.36 477.81 371.08 473.61"/><polyline class="cls-7" points="382.33 483.32 385.08 481.73 385.08 471.09 375.86 465.77 366.64 471.09 366.64 481.73 373.56 485.73"/><path class="cls-8" d="M349.07,501.1a49.16,49.16,0,0,1-37.94.09"/><path class="cls-8" d="M362.68,419.44a49,49,0,0,1,15.18,25.95"/><path class="cls-8" d="M281.66,447.9a48.92,48.92,0,0,1,15.71-28.51"/><rect class="cls-5" x="459.59" y="353.98" width="200" height="200"/><path class="cls-2" d="M518.17,370.26H521a2.23,2.23,0,0,1,2.45,2.1,1.89,1.89,0,0,1-.89,1.63v0a2.25,2.25,0,0,1,1.71,2.22,2.54,2.54,0,0,1-2.77,2.42h-3.36Zm2.66,3.51a1.23,1.23,0,1,0,0-2.45h-1.43v2.45Zm.54,3.83a1.42,1.42,0,1,0,0-2.82h-2v2.82Z"/><path class="cls-2" d="M525.63,369.75h1.18v8.9h-1.18Z"/><path class="cls-2" d="M534,375.69a3,3,0,1,1-3-3.11A3,3,0,0,1,534,375.69Zm-1.19,0a1.78,1.78,0,1,0-1.76,2.06A1.86,1.86,0,0,0,532.81,375.69Z"/><path class="cls-2" d="M537.79,372.58a2.91,2.91,0,0,1,2.09.83l-.73.73a1.93,1.93,0,0,0-1.33-.53,2.08,2.08,0,1,0,1.33,3.62l.73.73a3.05,3.05,0,1,1-2.09-5.38Z"/><path class="cls-2" d="M540.84,369.75H542V375h.9l1.76-2.27h1.37L544,375.36l2.36,3.3H544.9L543,376h-1v2.69h-1.19Z"/><path class="cls-2" d="M549.65,372.58a2.91,2.91,0,0,1,2.09.83l-.73.73a1.93,1.93,0,0,0-1.33-.53,2.08,2.08,0,1,0,1.33,3.62l.73.73a3.05,3.05,0,1,1-2.09-5.38Z"/><path class="cls-2" d="M552.7,369.75h1.18v3.73h0a2.25,2.25,0,0,1,1.8-.9,2,2,0,0,1,2.07,2.18v3.89H556.6V375a1.14,1.14,0,0,0-1.19-1.27,2,2,0,0,0-1.54.86v4.1H552.7Z"/><path class="cls-2" d="M558.92,376.88c0-1,.73-1.93,2.6-1.93a9.12,9.12,0,0,1,1.21.11v-.31a1.13,1.13,0,0,0-1.27-1.13,2.72,2.72,0,0,0-1.56.52l-.74-.74a3.68,3.68,0,0,1,2.33-.8,2.17,2.17,0,0,1,2.42,2.23v3.84h-1.15V378h0a2.13,2.13,0,0,1-1.74.79A2,2,0,0,1,558.92,376.88Zm3.81-.61V376a8.69,8.69,0,0,0-1-.08c-1,0-1.58.38-1.58,1a1,1,0,0,0,1.13.94A1.47,1.47,0,0,0,562.73,376.27Z"/><path class="cls-2" d="M565.83,373.7h-1.07l.35-1H567v5.92h-1.19Zm0-3.44H567v1.4h-1.17Z"/><path class="cls-2" d="M568.74,372.73h1.15v.78h0a2.27,2.27,0,0,1,1.82-.92,2,2,0,0,1,2.07,2.18v3.89h-1.17V375a1.14,1.14,0,0,0-1.19-1.27,2,2,0,0,0-1.54.86v4.1h-1.18Z"/><path class="cls-2" d="M575.33,374.82h3.08V376h-3.08Z"/><path class="cls-2" d="M582.52,372.58a2.91,2.91,0,0,1,2.09.83l-.73.73a1.93,1.93,0,0,0-1.33-.53,2.08,2.08,0,1,0,1.33,3.62l.73.73a3.05,3.05,0,1,1-2.09-5.38Z"/><path class="cls-2" d="M585.11,375.7a2.92,2.92,0,0,1,2.85-3.12c1.54,0,2.85,1,2.85,3.32v.17h-4.49a1.83,1.83,0,0,0,1.88,1.67,2.32,2.32,0,0,0,1.51-.58l.74.74a3.37,3.37,0,0,1-2.36.89A3,3,0,0,1,585.11,375.7Zm4.45-.52a1.62,1.62,0,0,0-1.56-1.56,1.68,1.68,0,0,0-1.66,1.56Z"/><path class="cls-2" d="M592.91,373.7H591.1v-1H596l-.35,1h-1.61v5h-1.18Z"/><path class="cls-2" d="M599.65,374.67a2,2,0,1,1,0,4h-2.73v-5.92h1.18v1.94Zm-.24.94h-1.32v2.11h1.32c.65,0,1.25-.29,1.25-1.06S600.06,375.61,599.41,375.61Z"/><path class="cls-2" d="M480.2,388.78a10,10,0,0,1,1.57-5.07h1v.17a10.73,10.73,0,0,0-1.38,4.91,11.4,11.4,0,0,0,1.38,5.06V394h-1A10.5,10.5,0,0,1,480.2,388.78Z"/><path class="cls-2" d="M484.57,384.66h1.24v3.54h4.55v-3.54h1.24v8.4h-1.24V389.3h-4.55v3.75h-1.24Z"/><path class="cls-2" d="M493.19,390.1A2.92,2.92,0,0,1,496,387c1.54,0,2.85,1,2.85,3.32v.17h-4.49a1.83,1.83,0,0,0,1.88,1.67,2.32,2.32,0,0,0,1.51-.58l.74.74a3.37,3.37,0,0,1-2.36.89A3,3,0,0,1,493.19,390.1Zm4.45-.52a1.62,1.62,0,0,0-1.56-1.56,1.68,1.68,0,0,0-1.66,1.56Z"/><path class="cls-2" d="M499.41,392.37l.73-.73a2.17,2.17,0,0,0,1.59.55c.8,0,1.25-.41,1.25-.86s-.31-.85-1.17-.85h-.9v-.94h.9c.6,0,1-.26,1-.79s-.49-.77-1.08-.77a2.17,2.17,0,0,0-1.49.55l-.73-.73a3.48,3.48,0,0,1,2.36-.82c1.21,0,2.11.65,2.11,1.61a1.4,1.4,0,0,1-.9,1.31v0a1.46,1.46,0,0,1,1.07,1.37c0,1.17-1,1.91-2.41,1.91A3.18,3.18,0,0,1,499.41,392.37Z"/><path class="cls-2" d="M505.07,391.28c0-1,.73-1.93,2.6-1.93a9.12,9.12,0,0,1,1.21.11v-.31a1.13,1.13,0,0,0-1.27-1.13,2.72,2.72,0,0,0-1.56.52l-.74-.74a3.68,3.68,0,0,1,2.33-.8,2.17,2.17,0,0,1,2.42,2.23v3.84H508.9v-.65h0a2.13,2.13,0,0,1-1.74.79A2,2,0,0,1,505.07,391.28Zm3.81-.61v-.3a8.69,8.69,0,0,0-1-.08c-1,0-1.58.38-1.58,1a1,1,0,0,0,1.13.94A1.47,1.47,0,0,0,508.88,390.67Z"/><path class="cls-2" d="M511.68,393.05v-5.92h2.88a1.61,1.61,0,0,1,1.8,1.51,1.39,1.39,0,0,1-.8,1.26v0a1.5,1.5,0,0,1,1.09,1.39,1.75,1.75,0,0,1-1.91,1.74Zm2.71-3.54a.72.72,0,0,0,.78-.73.72.72,0,0,0-.78-.72h-1.54v1.45Zm.06,2.6c.54,0,1-.29,1-.83s-.43-.83-1-.83h-1.59v1.66Z"/><path class="cls-2" d="M518,387.13h1.18v4.05h0l2.76-4.05H523v5.92h-1.17v-4h0l-2.76,4H518Z"/><path class="cls-2" d="M527.22,387a2.91,2.91,0,0,1,2.09.83l-.73.73a1.93,1.93,0,0,0-1.33-.53,2.08,2.08,0,1,0,1.33,3.62l.73.73a3.05,3.05,0,1,1-2.09-5.38Z"/><path class="cls-2" d="M530.35,387.13h1.18v4.05h0l2.76-4.05h1.07v5.92H534.2v-4h0l-2.76,4h-1.07Z"/><path class="cls-2" d="M537.91,387.13h1.27l1.5,4.41h0l1.57-4.41h1.24l1.43,5.92h-1.21l-1-4.28h0l-1.49,4.28h-1.1l-1.45-4.26h0l-1,4.26h-1.2Z"/><path class="cls-2" d="M548.54,389.07a2,2,0,1,1,0,4H546v-5.92h1.18v1.94Zm-.24.94h-1.08v2.11h1.08c.65,0,1.25-.29,1.25-1.06S548.95,390,548.3,390Zm3.21-2.88h1.18v5.92h-1.18Z"/><path class="cls-2" d="M554,390.1a2.92,2.92,0,0,1,2.85-3.12c1.54,0,2.85,1,2.85,3.32v.17h-4.49a1.83,1.83,0,0,0,1.88,1.67,2.32,2.32,0,0,0,1.51-.58l.74.74a3.37,3.37,0,0,1-2.36.89A3,3,0,0,1,554,390.1Zm4.45-.52a1.62,1.62,0,0,0-1.56-1.56,1.68,1.68,0,0,0-1.66,1.56Z"/><path class="cls-2" d="M563.94,387.13h1.18v2.36h2.55v-2.36h1.17v5.92h-1.17v-2.59h-2.55v2.59h-1.18Z"/><path class="cls-2" d="M570.08,391.28c0-1,.73-1.93,2.6-1.93a9.12,9.12,0,0,1,1.21.11v-.31a1.13,1.13,0,0,0-1.27-1.13,2.72,2.72,0,0,0-1.56.52l-.74-.74a3.68,3.68,0,0,1,2.33-.8,2.17,2.17,0,0,1,2.42,2.23v3.84h-1.15v-.65h0a2.13,2.13,0,0,1-1.74.79A2,2,0,0,1,570.08,391.28Zm3.81-.61v-.3a8.69,8.69,0,0,0-1-.08c-1,0-1.58.38-1.58,1a1,1,0,0,0,1.13.94A1.47,1.47,0,0,0,573.9,390.67Z"/><path class="cls-2" d="M576.43,389.59v-.19c0-2.63.66-4.86,3.8-5a3.89,3.89,0,0,0,1.62-.29v1.06a3.89,3.89,0,0,1-1.62.29c-2,.07-2.58,1.08-2.77,2.71h0a2.64,2.64,0,0,1,2.11-1,2.79,2.79,0,0,1,2.78,3,2.9,2.9,0,0,1-3,3C577.67,393.2,576.43,391.84,576.43,389.59Zm4.75.61a1.78,1.78,0,1,0-1.76,2A1.81,1.81,0,0,0,581.18,390.2Z"/><path class="cls-2" d="M582.91,393.07v-1a.86.86,0,0,0,.3.06c.54,0,.73-.59.83-1.79.13-1.64.22-3.19.22-3.19h4.37v5.92h-1.17v-5H585.3c0,.58-.07,1.45-.13,2.25-.13,1.82-.59,2.82-1.69,2.82A1.73,1.73,0,0,1,582.91,393.07Z"/><path class="cls-2" d="M592.46,390.46h-.94v2.59h-1.18v-5.92h1.18v2.36h1a2.79,2.79,0,0,1,2.78-2.51,3.12,3.12,0,0,1,0,6.21A2.83,2.83,0,0,1,592.46,390.46Zm1.17-.37c0,1.2.6,2.1,1.64,2.1s1.66-.9,1.66-2.1-.61-2.09-1.66-2.09S593.63,388.9,593.63,390.09Z"/><path class="cls-2" d="M598.69,392.08h.43c.41-.28.6-1,.72-1.92.24-1.81.3-3,.3-3h3.93v5h.78v2.34h-1.07v-1.37h-4v1.37h-1.07Zm1.73,0h2.48v-4h-1.75c0,.54-.11,1.36-.22,2.21a4.33,4.33,0,0,1-.52,1.75Z"/><path class="cls-2" d="M605.54,391.28c0-1,.73-1.93,2.6-1.93a9.12,9.12,0,0,1,1.21.11v-.31a1.12,1.12,0,0,0-1.27-1.13,2.72,2.72,0,0,0-1.56.52l-.74-.74a3.68,3.68,0,0,1,2.33-.8,2.17,2.17,0,0,1,2.42,2.23v3.84h-1.15v-.65h0a2.13,2.13,0,0,1-1.74.79A2,2,0,0,1,605.54,391.28Zm3.81-.61v-.3a8.69,8.69,0,0,0-1-.08c-1,0-1.58.38-1.58,1a1,1,0,0,0,1.13.94A1.47,1.47,0,0,0,609.36,390.67Z"/><path class="cls-2" d="M613,388.1h-1.81v-1h4.94l-.35,1h-1.61v5H613Z"/><path class="cls-2" d="M616.26,390.1a2.92,2.92,0,0,1,2.85-3.12c1.54,0,2.85,1,2.85,3.32v.17h-4.49a1.83,1.83,0,0,0,1.88,1.67,2.32,2.32,0,0,0,1.51-.58l.74.74a3.37,3.37,0,0,1-2.36.89A3,3,0,0,1,616.26,390.1Zm4.45-.52a1.62,1.62,0,0,0-1.56-1.56,1.68,1.68,0,0,0-1.66,1.56Z"/><path class="cls-2" d="M622.45,393.07v-1a.86.86,0,0,0,.3.06c.54,0,.73-.59.83-1.79.13-1.64.22-3.19.22-3.19h4.37v5.92H627v-5h-2.15c0,.58-.07,1.45-.13,2.25-.13,1.82-.59,2.82-1.69,2.82A1.73,1.73,0,0,1,622.45,393.07Z"/><path class="cls-2" d="M629.89,387.13h1.18v4.05h0l2.76-4.05h1.07v5.92h-1.17v-4h0l-2.76,4h-1.07Z"/><path class="cls-2" d="M636.41,393.85a11.4,11.4,0,0,0,1.38-5.06,10.73,10.73,0,0,0-1.38-4.91v-.17h1a10,10,0,0,1,1.57,5.07,10.5,10.5,0,0,1-1.57,5.22h-1Z"/><circle class="cls-6" cx="559.59" cy="436.04" r="25.5"/><polyline class="cls-7" points="549.66 432.55 547.01 434.08 547.01 444.73 556.23 450.05 565.45 444.73 565.45 434.08 558.17 429.88"/><polyline class="cls-7" points="569.43 439.59 572.17 438 572.17 427.36 562.96 422.04 553.74 427.36 553.74 438 560.66 442"/><circle class="cls-6" cx="517.09" cy="499.69" r="25.5"/><polyline class="cls-7" points="507.17 496.2 504.51 497.73 504.51 508.38 513.73 513.7 522.95 508.38 522.95 497.73 515.67 493.53"/><polyline class="cls-7" points="526.93 503.24 529.67 501.65 529.67 491.01 520.46 485.69 511.24 491.01 511.24 501.65 518.16 505.65"/><circle class="cls-6" cx="602.09" cy="499.69" r="25.5"/><polyline class="cls-7" points="592.16 496.2 589.51 497.73 589.51 508.38 598.73 513.7 607.95 508.38 607.95 497.73 600.67 493.53"/><polyline class="cls-7" points="611.93 503.24 614.67 501.65 614.67 491.01 605.46 485.69 596.24 491.01 596.24 501.65 603.16 505.65"/><path class="cls-8" d="M578.67,521a49.16,49.16,0,0,1-37.94.09"/><path class="cls-8" d="M592.27,439.36a49,49,0,0,1,15.18,25.95"/><path class="cls-8" d="M511.25,467.82A48.92,48.92,0,0,1,527,439.31"/><path class="cls-9" d="M259.46,130.51a74,74,0,0,1-42.91-57.9"/><polyline class="cls-9" points="247.01 131.51 259.46 130.51 253.34 120.09"/><path class="cls-9" d="M400.54,130.51a74,74,0,0,0,42.91-57.9"/><polyline class="cls-9" points="412.99 131.51 400.54 130.51 406.66 120.09"/><line class="cls-10" x1="224.19" y1="171.72" x2="259.19" y2="171.72"/><polyline class="cls-10" points="229.86 165.59 221.86 171.76 229.86 177.93"/><polyline class="cls-10" points="253.86 165.59 261.86 171.76 253.86 177.93"/><line class="cls-10" x1="330.04" y1="215.78" x2="330.04" y2="253.78"/><polyline class="cls-10" points="336.17 248.45 330 256.45 323.83 248.45"/><path class="cls-8" d="M167.54,472.52a110.56,110.56,0,0,1,85.32-.2"/><path class="cls-8" d="M407.14,472.52a110.56,110.56,0,0,1,85.32-.2"/><rect class="cls-5" x="107.22" y="134.85" width="108.12" height="73.82" rx="10" ry="10"/><path class="cls-2" d="M122.42,148.76h6.09l-.46,1.29h-4.19v2.61h1.89c2.25,0,3.42,1.46,3.42,3s-1.16,3-3.42,3h-3.33Zm3.25,8.53c1.15,0,2-.64,2-1.68s-.87-1.68-2-1.68h-1.81v3.36Z"/><path class="cls-2" d="M130.1,156.49c0-1.15.85-2.25,3-2.25a10.74,10.74,0,0,1,1.42.13V154a1.31,1.31,0,0,0-1.48-1.32,3.19,3.19,0,0,0-1.82.6l-.87-.87a4.3,4.3,0,0,1,2.72-.94,2.53,2.53,0,0,1,2.83,2.61v4.48h-1.34v-.76h0a2.49,2.49,0,0,1-2,.92A2.28,2.28,0,0,1,130.1,156.49Zm4.45-.71v-.35a10.19,10.19,0,0,0-1.22-.1c-1.21,0-1.85.45-1.85,1.16a1.17,1.17,0,0,0,1.32,1.09A1.71,1.71,0,0,0,134.55,155.78Z"/><path class="cls-2" d="M137,157.77l.85-.85a2.53,2.53,0,0,0,1.86.64c.94,0,1.46-.48,1.46-1s-.36-1-1.37-1h-1.05v-1.09h1.05c.7,0,1.2-.31,1.2-.92s-.57-.9-1.26-.9a2.54,2.54,0,0,0-1.74.64l-.85-.85a4.07,4.07,0,0,1,2.76-1c1.41,0,2.46.76,2.46,1.88a1.63,1.63,0,0,1-1.05,1.53v0a1.71,1.71,0,0,1,1.25,1.6c0,1.37-1.18,2.23-2.82,2.23A3.71,3.71,0,0,1,137,157.77Z"/><path class="cls-2" d="M143.56,156.49c0-1.15.85-2.25,3-2.25a10.74,10.74,0,0,1,1.42.13V154a1.31,1.31,0,0,0-1.48-1.32,3.19,3.19,0,0,0-1.82.6l-.87-.87a4.3,4.3,0,0,1,2.72-.94,2.53,2.53,0,0,1,2.83,2.61v4.48H148v-.76h0a2.49,2.49,0,0,1-2,.92A2.28,2.28,0,0,1,143.56,156.49Zm4.45-.71v-.35a10.19,10.19,0,0,0-1.22-.1c-1.2,0-1.85.45-1.85,1.16a1.17,1.17,0,0,0,1.32,1.09A1.71,1.71,0,0,0,148,155.78Z"/><path class="cls-2" d="M153.9,157.43h.5c.48-.32.7-1.13.84-2.24.28-2.12.35-3.54.35-3.54h4.59v5.79h.91v2.73h-1.25v-1.6h-4.71v1.6H153.9Zm2,0h2.9v-4.65h-2c-.06.63-.13,1.58-.25,2.58a5.05,5.05,0,0,1-.6,2Z"/><path class="cls-2" d="M161.89,156.49c0-1.15.85-2.25,3-2.25a10.74,10.74,0,0,1,1.42.13V154a1.31,1.31,0,0,0-1.48-1.32,3.19,3.19,0,0,0-1.82.6l-.87-.87a4.3,4.3,0,0,1,2.72-.94,2.53,2.53,0,0,1,2.83,2.61v4.48h-1.34v-.76h0a2.49,2.49,0,0,1-2,.92A2.28,2.28,0,0,1,161.89,156.49Zm4.45-.71v-.35a10.19,10.19,0,0,0-1.22-.1c-1.2,0-1.85.45-1.85,1.16a1.17,1.17,0,0,0,1.32,1.09A1.71,1.71,0,0,0,166.34,155.78Z"/><path class="cls-2" d="M169.6,151.64H171v2.76h3v-2.76h1.37v6.92H174v-3h-3v3H169.6Z"/><path class="cls-2" d="M177.35,151.64h1.37v2.76h3v-2.76h1.37v6.92H181.7v-3h-3v3h-1.37Z"/><path class="cls-2" d="M188,153.91a2.34,2.34,0,1,1,0,4.65h-2.91v-6.92h1.37v2.27Zm-.28,1.09h-1.26v2.46h1.26c.76,0,1.46-.34,1.46-1.23S188.48,155,187.72,155Zm3.75-3.36h1.37v6.92h-1.37Z"/><path class="cls-2" d="M196.55,155l-2.38-3.32h1.61l1.58,2.31h0l1.54-2.31h1.54l-2.33,3.29,2.59,3.63h-1.61l-1.82-2.63h0l-1.81,2.63h-1.55Z"/><path class="cls-2" d="M125,172.59l1.37-2.76h1.44l-1.32,2.76,1.32,2.77h-1.44Zm2.87,0,1.37-2.76h1.44l-1.3,2.76,1.3,2.77h-1.44Z"/><path class="cls-2" d="M131.5,175.36l3.85-9.81h1.28l3.84,9.81h-1.65l-.91-2.46H134l-.91,2.46Zm6-3.68-1.49-4h0l-1.49,4Z"/><path class="cls-2" d="M141.58,168.44h1.37v2.82h.84l2.16-2.82h1.54L145,171.64l2.93,3.73h-1.69l-2.34-3h-.94v3h-1.37Z"/><path class="cls-2" d="M150.16,169.58H148v-1.13h5.77l-.41,1.13h-1.88v5.79h-1.37Z"/><path class="cls-2" d="M154.83,168.44h1.37v4.73h0l3.22-4.73h1.25v6.92h-1.37v-4.72h0l-3.22,4.72h-1.25Z"/><path class="cls-2" d="M162.72,175.36v-6.92h3.36a1.88,1.88,0,0,1,2.1,1.77,1.62,1.62,0,0,1-.94,1.47v0a1.75,1.75,0,0,1,1.27,1.63,2,2,0,0,1-2.23,2Zm3.17-4.13a.85.85,0,0,0,.91-.85.84.84,0,0,0-.91-.84h-1.79v1.7Zm.07,3c.63,0,1.13-.34,1.13-1s-.5-1-1.13-1h-1.86v1.93Z"/><path class="cls-2" d="M170.05,168.44h1.37v2.76h3v-2.76h1.37v6.92h-1.37v-3h-3v3h-1.37Z"/><path class="cls-2" d="M184.18,171.9a3.45,3.45,0,1,1-3.45-3.63A3.46,3.46,0,0,1,184.18,171.9Zm-1.39,0a2.08,2.08,0,1,0-2.06,2.41A2.17,2.17,0,0,0,182.79,171.9Z"/><path class="cls-2" d="M185.69,168.44h4.52l-.41,1.13h-2.75v5.79h-1.37Z"/><path class="cls-2" d="M197.09,171.9a3.45,3.45,0,1,1-3.45-3.63A3.46,3.46,0,0,1,197.09,171.9Zm-1.39,0a2.08,2.08,0,1,0-2.06,2.41A2.17,2.17,0,0,0,195.7,171.9Z"/><path class="cls-2" d="M119.9,182.36H126l-.46,1.29h-4.19v8.52H119.9Z"/><path class="cls-2" d="M127,194.76h-1.37v-9.51H127v1.05h0a2.66,2.66,0,0,1,2.27-1.22,3.65,3.65,0,0,1,0,7.26,2.66,2.66,0,0,1-2.27-1.22h0Zm2-3.64a2.19,2.19,0,0,0,2.09-2.42,2.11,2.11,0,1,0-4.17,0A2.19,2.19,0,0,0,129.08,191.11Z"/><path class="cls-2" d="M133.53,190.09c0-1.15.85-2.25,3-2.25A10.74,10.74,0,0,1,138,188v-.36a1.31,1.31,0,0,0-1.48-1.32,3.19,3.19,0,0,0-1.82.6l-.87-.87a4.3,4.3,0,0,1,2.72-.94,2.53,2.53,0,0,1,2.83,2.61v4.48H138v-.76h0a2.49,2.49,0,0,1-2,.92A2.28,2.28,0,0,1,133.53,190.09Zm4.45-.71V189a10.19,10.19,0,0,0-1.22-.1c-1.2,0-1.85.45-1.85,1.16a1.17,1.17,0,0,0,1.32,1.09A1.71,1.71,0,0,0,138,189.38Z"/><path class="cls-2" d="M144.16,189.19l-2.25,3h-1.62l2.77-3.68-2.35-3.24h1.47l2,2.82h.71v-2.82h1.37v2.82H147l2-2.82h1.47l-2.35,3.24,2.77,3.68h-1.62l-2.26-3h-.74v3H144.9v-3Z"/><path class="cls-2" d="M151.06,191h.5c.48-.32.7-1.13.84-2.24.28-2.12.35-3.54.35-3.54h4.59V191h.91v2.73H157v-1.6h-4.71v1.6h-1.25Zm2,0H156v-4.65h-2c-.06.63-.13,1.58-.25,2.58a5.05,5.05,0,0,1-.6,2Z"/><path class="cls-2" d="M159.06,190.09c0-1.15.85-2.25,3-2.25a10.74,10.74,0,0,1,1.42.13v-.36a1.31,1.31,0,0,0-1.48-1.32,3.19,3.19,0,0,0-1.82.6l-.87-.87a4.3,4.3,0,0,1,2.72-.94,2.53,2.53,0,0,1,2.83,2.61v4.48h-1.34v-.76h0a2.49,2.49,0,0,1-2,.92A2.28,2.28,0,0,1,159.06,190.09Zm4.45-.71V189a10.19,10.19,0,0,0-1.22-.1c-1.2,0-1.85.45-1.85,1.16a1.17,1.17,0,0,0,1.32,1.09A1.71,1.71,0,0,0,163.51,189.38Z"/><path class="cls-2" d="M166.77,185.24h1.37V188h3v-2.76h1.37v6.92h-1.37v-3h-3v3h-1.37Z"/><path class="cls-2" d="M174.51,185.24h1.37V190h0l3.22-4.73h1.25v6.92H179v-4.72h0l-3.22,4.72h-1.25Z"/><path class="cls-2" d="M182.39,185.24h1.37V188h3v-2.76h1.37v6.92h-1.37v-3h-3v3h-1.37Z"/><path class="cls-2" d="M189.56,190.09c0-1.15.85-2.25,3-2.25A10.74,10.74,0,0,1,194,188v-.36a1.31,1.31,0,0,0-1.48-1.32,3.19,3.19,0,0,0-1.82.6l-.87-.87a4.3,4.3,0,0,1,2.72-.94,2.53,2.53,0,0,1,2.83,2.61v4.48H194v-.76h0a2.49,2.49,0,0,1-2,.92A2.28,2.28,0,0,1,189.56,190.09Zm4.45-.71V189a10.19,10.19,0,0,0-1.22-.1c-1.2,0-1.85.45-1.85,1.16a1.17,1.17,0,0,0,1.32,1.09A1.71,1.71,0,0,0,194,189.38Z"/><path class="cls-2" d="M198.27,189.39l-1.3-2.76h1.44l1.37,2.76-1.37,2.77H197Zm2.87,0-1.3-2.76h1.44l1.37,2.76-1.37,2.77h-1.44Z"/><rect class="cls-6" x="357.48" y="34.25" width="191" height="58" rx="10" ry="10"/><path class="cls-3" d="M385.83,48.78h8v9.81h-1.44V50.06h-5.11v8.53h-1.44Z"/><path class="cls-3" d="M397.56,61.18h-1.37V51.67h1.37v1.05h0a2.66,2.66,0,0,1,2.27-1.22,3.34,3.34,0,0,1,3.24,3.63,3.34,3.34,0,0,1-3.24,3.63,2.66,2.66,0,0,1-2.27-1.22h0Zm2-3.64a2.19,2.19,0,0,0,2.09-2.42,2.11,2.11,0,1,0-4.17,0A2.19,2.19,0,0,0,399.61,57.54Z"/><path class="cls-3" d="M404.63,51.67H406V56.4h0l3.22-4.73h1.25v6.92h-1.37V53.87h0l-3.22,4.72h-1.25Z"/><path class="cls-3" d="M411.63,58.6V57.41a1.05,1.05,0,0,0,.35.07c.63,0,.85-.69,1-2.09.15-1.92.25-3.73.25-3.73h5.1v6.92h-1.37V52.8h-2.51c0,.67-.08,1.7-.15,2.63-.15,2.13-.69,3.29-2,3.29A2,2,0,0,1,411.63,58.6Z"/><path class="cls-3" d="M426.7,55.13a3.45,3.45,0,1,1-3.45-3.63A3.46,3.46,0,0,1,426.7,55.13Zm-1.39,0a2.08,2.08,0,1,0-2.06,2.41A2.17,2.17,0,0,0,425.31,55.13Z"/><path class="cls-3" d="M431,55.62l-2.25,3H427.1l2.77-3.68-2.35-3.24H429l2,2.82h.71V51.67h1.37v2.82h.71l2-2.82h1.47l-2.35,3.24,2.77,3.68H436.1l-2.26-3h-.74v3h-1.37v-3Z"/><path class="cls-3" d="M438.12,55.14a3.41,3.41,0,0,1,3.33-3.64c1.79,0,3.33,1.22,3.33,3.88v.2h-5.24a2.14,2.14,0,0,0,2.2,1.95,2.71,2.71,0,0,0,1.77-.67l.87.87a3.94,3.94,0,0,1-2.76,1A3.45,3.45,0,0,1,438.12,55.14Zm5.2-.6a1.89,1.89,0,0,0-1.82-1.82,2,2,0,0,0-1.93,1.82Z"/><path class="cls-3" d="M446.23,51.67h1.37v2.76h3V51.67H452v6.92h-1.37v-3h-3v3h-1.37Z"/><path class="cls-3" d="M454,51.67h1.37V56.4h0l3.22-4.73h1.25v6.92h-1.37V53.87h0l-3.22,4.72H454Z"/><path class="cls-3" d="M461.35,55.14a3.41,3.41,0,0,1,3.33-3.64c1.79,0,3.33,1.22,3.33,3.88v.2h-5.24a2.14,2.14,0,0,0,2.2,1.95,2.71,2.71,0,0,0,1.77-.67l.87.87a3.94,3.94,0,0,1-2.76,1A3.45,3.45,0,0,1,461.35,55.14Zm5.2-.6a1.89,1.89,0,0,0-1.82-1.82,2,2,0,0,0-1.93,1.82Z"/><path class="cls-3" d="M385.17,72.61l1.37-2.76H388l-1.32,2.76L388,75.39h-1.44Zm2.87,0,1.37-2.76h1.44l-1.3,2.76,1.3,2.77h-1.44Z"/><path class="cls-3" d="M391.67,75.39l3.85-9.81h1.28l3.84,9.81H399l-.91-2.46h-3.89l-.91,2.46Zm6-3.68-1.49-4h0l-1.49,4Z"/><path class="cls-3" d="M401.75,68.47h1.37v2.82H404l2.16-2.82h1.54l-2.49,3.19,2.93,3.73H406.4l-2.34-3h-.94v3h-1.37Z"/><path class="cls-3" d="M410.33,69.6h-2.12V68.47H414l-.41,1.13H411.7v5.79h-1.37Z"/><path class="cls-3" d="M415,68.47h1.37V73.2h0l3.22-4.73h1.25v6.92H419.5V70.67h0l-3.22,4.72H415Z"/><path class="cls-3" d="M422.89,75.39V68.47h3.36a1.88,1.88,0,0,1,2.1,1.77,1.62,1.62,0,0,1-.94,1.47v0a1.75,1.75,0,0,1,1.27,1.63,2,2,0,0,1-2.23,2Zm3.17-4.13a.85.85,0,0,0,.91-.85.84.84,0,0,0-.91-.84h-1.79v1.7Zm.07,3c.63,0,1.13-.34,1.13-1s-.5-1-1.13-1h-1.86v1.93Z"/><path class="cls-3" d="M430.23,68.47h1.37v2.76h3V68.47H436v6.92h-1.37v-3h-3v3h-1.37Z"/><path class="cls-3" d="M440.88,70.74a2.34,2.34,0,1,1,0,4.65H438V68.47h1.37v2.27Zm-.28,1.09h-1.26v2.46h1.26c.76,0,1.46-.34,1.46-1.23S441.36,71.83,440.6,71.83Zm3.75-3.36h1.37v6.92h-1.37Z"/><path class="cls-3" d="M447.74,68.47h1.37V73.2h0l3.22-4.73h1.25v6.92h-1.37V70.67h0L449,75.39h-1.25Zm.7-2,.78-.77a1.92,1.92,0,0,0,3,0l.78.77a2.9,2.9,0,0,1-4.54,0Z"/><path class="cls-3" d="M459.47,65.58h6.09l-.46,1.29h-4.19v8.52h-1.44Z"/><path class="cls-3" d="M466.61,78h-1.37V68.47h1.37v1.05h0a2.66,2.66,0,0,1,2.27-1.22,3.65,3.65,0,0,1,0,7.26,2.66,2.66,0,0,1-2.27-1.22h0Zm2-3.64a2.19,2.19,0,0,0,2.09-2.42,2.11,2.11,0,1,0-4.17,0A2.19,2.19,0,0,0,468.66,74.34Z"/><path class="cls-3" d="M473.11,73.31c0-1.15.85-2.25,3-2.25a10.74,10.74,0,0,1,1.42.13v-.36a1.31,1.31,0,0,0-1.48-1.32,3.19,3.19,0,0,0-1.82.6l-.87-.87a4.3,4.3,0,0,1,2.72-.94,2.53,2.53,0,0,1,2.83,2.61v4.48h-1.34v-.76h0a2.49,2.49,0,0,1-2,.92A2.28,2.28,0,0,1,473.11,73.31Zm4.45-.71v-.35a10.19,10.19,0,0,0-1.22-.1c-1.21,0-1.85.45-1.85,1.16a1.17,1.17,0,0,0,1.32,1.09A1.71,1.71,0,0,0,477.56,72.6Z"/><path class="cls-3" d="M483.73,72.42l-2.25,3h-1.62l2.77-3.68-2.35-3.24h1.47l2,2.82h.71V68.47h1.37v2.82h.71l2-2.82h1.47L487.7,71.7l2.77,3.68h-1.62l-2.26-3h-.74v3h-1.37v-3Z"/><path class="cls-3" d="M490.63,74.25h.5c.48-.32.7-1.13.84-2.24.28-2.12.35-3.54.35-3.54h4.59v5.79h.91V77h-1.25v-1.6h-4.71V77h-1.25Zm2,0h2.9V69.6h-2c-.06.63-.13,1.58-.25,2.58a5.05,5.05,0,0,1-.6,2Z"/><path class="cls-3" d="M498.63,73.31c0-1.15.85-2.25,3-2.25a10.74,10.74,0,0,1,1.42.13v-.36a1.31,1.31,0,0,0-1.48-1.32,3.19,3.19,0,0,0-1.82.6l-.87-.87a4.3,4.3,0,0,1,2.72-.94,2.53,2.53,0,0,1,2.83,2.61v4.48h-1.34v-.76h0a2.49,2.49,0,0,1-2,.92A2.28,2.28,0,0,1,498.63,73.31Zm4.45-.71v-.35a10.19,10.19,0,0,0-1.22-.1c-1.21,0-1.85.45-1.85,1.16a1.17,1.17,0,0,0,1.32,1.09A1.71,1.71,0,0,0,503.08,72.6Z"/><path class="cls-3" d="M506.34,68.47h1.37v2.76h3V68.47h1.37v6.92H510.7v-3h-3v3h-1.37Z"/><path class="cls-3" d="M514.08,68.47h1.37V73.2h0l3.22-4.73H520v6.92h-1.37V70.67h0l-3.22,4.72h-1.25Z"/><path class="cls-3" d="M522,68.47h1.37v2.76h3V68.47h1.37v6.92h-1.37v-3h-3v3H522Z"/><path class="cls-3" d="M530.7,72.61l-1.3-2.76h1.44l1.37,2.76-1.37,2.77H529.4Zm2.87,0-1.3-2.76h1.44l1.37,2.76-1.37,2.77h-1.44Z"/><rect class="cls-2" x="327.11" y="1.68" width="46.5" height="84"/><rect class="cls-3" x="331.61" y="6.18" width="37.5" height="63.75"/><rect class="cls-3" x="344.73" y="75.84" width="11.25" height="3.94" rx="1.48" ry="1.48"/><rect class="cls-6" x="107.22" y="34.25" width="191" height="58" rx="10" ry="10"/><path class="cls-3" d="M214.86,53.68a4.81,4.81,0,0,1,4.79-5.07A4.59,4.59,0,0,1,223,49.94l-.92.92a3.53,3.53,0,0,0-2.4-1c-2,0-3.28,1.64-3.28,3.77s1.3,3.77,3.28,3.77a3.46,3.46,0,0,0,2.4-1l.92.92a4.53,4.53,0,0,1-3.31,1.33A4.81,4.81,0,0,1,214.86,53.68Z"/><path class="cls-3" d="M223.74,56.51c0-1.15.85-2.25,3-2.25a10.74,10.74,0,0,1,1.42.13V54a1.31,1.31,0,0,0-1.48-1.32,3.19,3.19,0,0,0-1.82.6l-.87-.87a4.3,4.3,0,0,1,2.72-.94,2.53,2.53,0,0,1,2.83,2.61v4.48h-1.34v-.76h0a2.49,2.49,0,0,1-2,.92A2.28,2.28,0,0,1,223.74,56.51Zm4.45-.71v-.35a10.19,10.19,0,0,0-1.22-.1c-1.21,0-1.85.45-1.85,1.16a1.17,1.17,0,0,0,1.32,1.09A1.71,1.71,0,0,0,228.19,55.8Z"/><path class="cls-3" d="M231.46,51.67h1.37V56.4h0l3.22-4.73h1.25v6.92H236V53.87h0l-3.22,4.72h-1.25Zm.7-2,.78-.77a1.92,1.92,0,0,0,3,0l.78.77a2.9,2.9,0,0,1-4.54,0Z"/><path class="cls-3" d="M240.54,52.8h-2.12V51.67h5.77l-.41,1.13h-1.88v5.79h-1.37Z"/><path class="cls-3" d="M214.64,73.31c0-1.15.85-2.25,3-2.25a10.74,10.74,0,0,1,1.42.13v-.36a1.31,1.31,0,0,0-1.48-1.32,3.19,3.19,0,0,0-1.82.6l-.87-.87a4.3,4.3,0,0,1,2.72-.94,2.53,2.53,0,0,1,2.83,2.61v4.48h-1.34v-.76h0a2.49,2.49,0,0,1-2,.92A2.28,2.28,0,0,1,214.64,73.31Zm4.45-.71v-.35a10.19,10.19,0,0,0-1.22-.1c-1.21,0-1.85.45-1.85,1.16a1.17,1.17,0,0,0,1.32,1.09A1.71,1.71,0,0,0,219.09,72.6Z"/><path class="cls-3" d="M221.54,77.5l.94-.94a5.46,5.46,0,0,0,2.45.56c1.27,0,2-.38,2-.91,0-.35-.21-.66-1-.66h-2A1.55,1.55,0,0,1,222.23,74a2.09,2.09,0,0,1,.6-1.46,2.27,2.27,0,0,1-.87-1.81c0-1.3,1.06-2.44,2.94-2.44a3.54,3.54,0,0,1,1.71.41,2.62,2.62,0,0,1,1.89-.78,3.53,3.53,0,0,1,.94.13l-.43,1.2a2.58,2.58,0,0,0-.64-.1,1.61,1.61,0,0,0-.92.29,2.24,2.24,0,0,1,.41,1.29c0,1.32-1.09,2.45-2.94,2.45a3.59,3.59,0,0,1-1.27-.21,1.57,1.57,0,0,0-.18.69c0,.41.31.64.83.64h2.13a1.73,1.73,0,0,1,1.92,1.76c0,1.16-1,2.23-3.47,2.23A6.28,6.28,0,0,1,221.54,77.5Zm4.94-6.77a1.61,1.61,0,1,0-1.58,1.34A1.42,1.42,0,0,0,226.49,70.74Z"/><path class="cls-3" d="M230.43,73.43h1.74v2h-1.74Z"/><path class="cls-3" d="M235.7,75.39h-1.37V68.47h1.34v.92h0a2.55,2.55,0,0,1,2.06-1.09,2.27,2.27,0,0,1,2.12,1.27h0a2.79,2.79,0,0,1,2.31-1.27,2.28,2.28,0,0,1,2.4,2.55v4.54h-1.37V71a1.3,1.3,0,0,0-1.33-1.44,2.27,2.27,0,0,0-1.75,1v4.79h-1.37V71a1.3,1.3,0,0,0-1.33-1.44,2.27,2.27,0,0,0-1.75,1Z"/><path class="cls-3" d="M252.89,71.93a3.45,3.45,0,1,1-3.45-3.63A3.46,3.46,0,0,1,252.89,71.93Zm-1.39,0a2.08,2.08,0,1,0-2.06,2.41A2.17,2.17,0,0,0,251.5,71.93Z"/><path class="cls-3" d="M253.73,74.59l.9-.9a2.92,2.92,0,0,0,1.83.7c.66,0,1.12-.35,1.12-.81s-.32-.64-1-.91l-1.08-.42a2,2,0,0,1-1.5-1.93,2.22,2.22,0,0,1,2.49-2,3.68,3.68,0,0,1,2.38.85L258,70a2.61,2.61,0,0,0-1.53-.57c-.74,0-1.11.41-1.11.77s.17.62.81.88l1.06.43c1,.42,1.72,1,1.72,1.93s-.94,2.1-2.56,2.1A4.14,4.14,0,0,1,253.73,74.59Z"/><path class="cls-3" d="M260.56,73.43h1.74v2h-1.74Z"/><path class="cls-3" d="M264.45,68.47h1.34v1.08h0a2.84,2.84,0,0,1,2.07-1.16,2.91,2.91,0,0,1,.94.15l-.48,1.34a1.73,1.73,0,0,0-.59-.1,2.89,2.89,0,0,0-1.95.92v4.68h-1.37Z"/><path class="cls-3" d="M269.77,73V68.47h1.37v4.29c0,1,.56,1.51,1.33,1.51a2.25,2.25,0,0,0,1.77-1V68.47h1.37v6.92h-1.34v-.9h0a2.47,2.47,0,0,1-2.06,1.06A2.3,2.3,0,0,1,269.77,73Z"/><rect class="cls-2" x="94.3" y="1.68" width="97.58" height="66.73"/><rect class="cls-3" x="99.55" y="6.93" width="87.09" height="55.19"/><polygon class="cls-2" points="133.93 77.29 152.26 77.29 155.41 80.65 208.67 80.65 191.88 70.72 94.3 70.72 77.52 80.65 130.78 80.65 133.93 77.29"/><path class="cls-2" d="M77.52,82.32H208.67a0,0,0,0,1,0,0v1a2.39,2.39,0,0,1-2.39,2.39H79.91a2.39,2.39,0,0,1-2.39-2.39v-1A0,0,0,0,1,77.52,82.32Z"/><line class="cls-10" x1="99.55" y1="592" x2="99.55" y2="554.98"/><circle class="cls-11" cx="99.55" cy="554.98" r="5"/><line class="cls-10" x1="559.7" y1="592" x2="559.7" y2="554.98"/><circle class="cls-11" cx="559.7" cy="554.98" r="5"/><rect class="cls-5" x="0.41" y="585.72" width="659.19" height="38" rx="10" ry="10"/><path class="cls-2" d="M199.38,609.21l3.12-9.81h1.28l2.44,7.44h0l2.42-7.44h1.27l3.12,9.81h-1.58L209.27,602h0l-2.35,7.19h-1.33L203.21,602h0L201,609.21Z"/><path class="cls-2" d="M220.65,605.75a3.45,3.45,0,1,1-3.45-3.63A3.46,3.46,0,0,1,220.65,605.75Zm-1.39,0a2.08,2.08,0,1,0-2.06,2.41A2.17,2.17,0,0,0,219.27,605.75Z"/><path class="cls-2" d="M221.28,608.08h.5c.48-.32.7-1.13.84-2.24.28-2.12.35-3.54.35-3.54h4.59v5.79h.91v2.73h-1.25v-1.6h-4.71v1.6h-1.25Zm2,0h2.9v-4.65h-2c-.06.63-.13,1.58-.25,2.58a5.05,5.05,0,0,1-.6,2Z"/><path class="cls-2" d="M228.67,611.37l.91-.91a1.37,1.37,0,0,0,.77.25c.55,0,1-.27,1.36-1.3l-2.77-7.12h1.53l2,5.35h0l1.74-5.35h1.46L233,609.77a2.79,2.79,0,0,1-2.69,2.18A2.7,2.7,0,0,1,228.67,611.37Z"/><path class="cls-2" d="M235.9,609.23V608a1.05,1.05,0,0,0,.35.07c.63,0,.85-.69,1-2.09.15-1.92.25-3.73.25-3.73h5.1v6.92h-1.37v-5.79h-2.51c0,.67-.08,1.7-.15,2.63-.15,2.13-.69,3.29-2,3.29A2,2,0,0,1,235.9,609.23Z"/><path class="cls-2" d="M247.77,604.56a2.34,2.34,0,1,1,0,4.65h-3.19v-6.92h1.37v2.27Zm-.28,1.09h-1.54v2.46h1.54c.76,0,1.46-.34,1.46-1.23S248.25,605.66,247.49,605.66Z"/><path class="cls-2" d="M255.22,602.29h1.37v2.76h3v-2.76h1.37v6.92h-1.37v-3h-3v3h-1.37Z"/><path class="cls-2" d="M262.45,605.77a3.41,3.41,0,0,1,3.33-3.64c1.79,0,3.33,1.22,3.33,3.88v.2h-5.24a2.14,2.14,0,0,0,2.2,1.95,2.71,2.71,0,0,0,1.77-.67l.87.87a3.94,3.94,0,0,1-2.76,1A3.45,3.45,0,0,1,262.45,605.77Zm5.2-.6a1.89,1.89,0,0,0-1.82-1.82,2,2,0,0,0-1.93,1.82Z"/><path class="cls-2" d="M269.72,608.42l.85-.85a2.53,2.53,0,0,0,1.86.64c.94,0,1.46-.48,1.46-1s-.36-1-1.37-1h-1.05v-1.09h1.05c.7,0,1.2-.31,1.2-.92s-.57-.9-1.26-.9a2.54,2.54,0,0,0-1.74.64l-.85-.85a4.07,4.07,0,0,1,2.76-1c1.41,0,2.46.76,2.46,1.88a1.63,1.63,0,0,1-1.05,1.53v0a1.71,1.71,0,0,1,1.25,1.6c0,1.37-1.18,2.23-2.82,2.23A3.71,3.71,0,0,1,269.72,608.42Z"/><path class="cls-2" d="M276.31,607.14c0-1.15.85-2.25,3-2.25a10.74,10.74,0,0,1,1.42.13v-.36a1.31,1.31,0,0,0-1.48-1.32,3.19,3.19,0,0,0-1.82.6l-.87-.87a4.3,4.3,0,0,1,2.72-.94,2.53,2.53,0,0,1,2.83,2.61v4.48H280.8v-.76h0a2.49,2.49,0,0,1-2,.92A2.28,2.28,0,0,1,276.31,607.14Zm4.45-.71v-.35a10.19,10.19,0,0,0-1.22-.1c-1.2,0-1.85.45-1.85,1.16a1.17,1.17,0,0,0,1.32,1.09A1.71,1.71,0,0,0,280.77,606.43Z"/><path class="cls-2" d="M284,609.21v-6.92h3.36a1.88,1.88,0,0,1,2.1,1.76,1.62,1.62,0,0,1-.94,1.47v0a1.75,1.75,0,0,1,1.27,1.63,2,2,0,0,1-2.23,2Zm3.17-4.13a.85.85,0,0,0,.91-.85.84.84,0,0,0-.91-.84H285.4v1.7Zm.07,3c.63,0,1.13-.34,1.13-1s-.5-1-1.13-1H285.4v1.93Z"/><path class="cls-2" d="M291.36,602.29h1.37V607h0l3.22-4.73h1.25v6.92h-1.37v-4.72h0l-3.22,4.72h-1.25Z"/><path class="cls-2" d="M302.16,602.13a3.4,3.4,0,0,1,2.44,1l-.85.85a2.25,2.25,0,0,0-1.55-.62,2.43,2.43,0,1,0,1.55,4.23l.85.85a3.4,3.4,0,0,1-2.44,1,3.63,3.63,0,0,1,0-7.26Z"/><path class="cls-2" d="M305.81,602.29h1.37V607h0l3.22-4.73h1.25v6.92h-1.37v-4.72h0l-3.22,4.72h-1.25Z"/><path class="cls-2" d="M314.63,602.29h1.48l1.75,5.16h0l1.83-5.16h1.44l1.67,6.92h-1.42l-1.16-5h0l-1.74,5h-1.29l-1.7-5h0l-1.12,5H313Z"/><path class="cls-2" d="M330.51,605.75a3.45,3.45,0,1,1-3.45-3.63A3.46,3.46,0,0,1,330.51,605.75Zm-1.39,0a2.08,2.08,0,1,0-2.06,2.41A2.17,2.17,0,0,0,329.12,605.75Z"/><path class="cls-2" d="M332,602.29h4.52l-.41,1.13h-2.75v5.79H332Z"/><path class="cls-2" d="M343.42,605.75a3.45,3.45,0,1,1-3.45-3.63A3.46,3.46,0,0,1,343.42,605.75Zm-1.39,0a2.08,2.08,0,1,0-2.06,2.41A2.17,2.17,0,0,0,342,605.75Z"/><path class="cls-2" d="M348.43,602.29h5.73v6.92h-1.37v-5.79h-3v5.79h-1.37Z"/><path class="cls-2" d="M362.56,605.75a3.45,3.45,0,1,1-3.45-3.63A3.46,3.46,0,0,1,362.56,605.75Zm-1.39,0a2.08,2.08,0,1,0-2.06,2.41A2.17,2.17,0,0,0,361.17,605.75Z"/><path class="cls-2" d="M363.18,608.08h.5c.48-.32.7-1.13.84-2.24.28-2.12.35-3.54.35-3.54h4.59v5.79h.91v2.73h-1.25v-1.6h-4.71v1.6h-1.25Zm2,0h2.9v-4.65h-2c-.06.63-.13,1.58-.25,2.58a5.05,5.05,0,0,1-.6,2Z"/><path class="cls-2" d="M374.66,602.13a3.4,3.4,0,0,1,2.44,1l-.85.85a2.25,2.25,0,0,0-1.55-.62,2.43,2.43,0,1,0,1.55,4.23l.85.85a3.4,3.4,0,0,1-2.44,1,3.63,3.63,0,0,1,0-7.26Z"/><path class="cls-2" d="M382.08,606h0a2.56,2.56,0,0,1-1.91.83,2.34,2.34,0,0,1-2.4-2.52v-2.06h1.37v1.79c0,1.09.55,1.55,1.36,1.55a2.09,2.09,0,0,0,1.6-.8v-2.55h1.37v6.92h-1.37Z"/><path class="cls-2" d="M385,605.77a3.41,3.41,0,0,1,3.33-3.64c1.79,0,3.33,1.22,3.33,3.88v.2h-5.24a2.14,2.14,0,0,0,2.2,1.95,2.71,2.71,0,0,0,1.77-.67l.87.87a3.94,3.94,0,0,1-2.76,1A3.45,3.45,0,0,1,385,605.77Zm5.2-.6a1.89,1.89,0,0,0-1.82-1.82,2,2,0,0,0-1.93,1.82Z"/><path class="cls-2" d="M394.07,603.43H392v-1.13h5.77l-.41,1.13h-1.88v5.79h-1.37Z"/><path class="cls-2" d="M398.17,607.14c0-1.15.85-2.25,3-2.25a10.74,10.74,0,0,1,1.42.13v-.36a1.31,1.31,0,0,0-1.48-1.32,3.19,3.19,0,0,0-1.82.6l-.87-.87a4.3,4.3,0,0,1,2.72-.94,2.53,2.53,0,0,1,2.83,2.61v4.48h-1.34v-.76h0a2.49,2.49,0,0,1-2,.92A2.28,2.28,0,0,1,398.17,607.14Zm4.45-.71v-.35a10.19,10.19,0,0,0-1.22-.1c-1.21,0-1.85.45-1.85,1.16a1.17,1.17,0,0,0,1.32,1.09A1.71,1.71,0,0,0,402.62,606.43Z"/><path class="cls-2" d="M409.38,602.29h4.52l-.41,1.13h-2.75v5.79h-1.37Z"/><path class="cls-2" d="M420.78,605.75a3.45,3.45,0,1,1-3.45-3.63A3.46,3.46,0,0,1,420.78,605.75Zm-1.39,0a2.08,2.08,0,1,0-2.06,2.41A2.17,2.17,0,0,0,419.39,605.75Z"/><path class="cls-2" d="M421.41,609.23V608a1.05,1.05,0,0,0,.35.07c.63,0,.85-.69,1-2.09.15-1.92.25-3.73.25-3.73h5.1v6.92H426.7v-5.79h-2.51c0,.67-.08,1.7-.15,2.63-.15,2.13-.69,3.29-2,3.29A2,2,0,0,1,421.41,609.23Z"/><path class="cls-2" d="M436.48,605.75a3.45,3.45,0,1,1-3.45-3.63A3.46,3.46,0,0,1,436.48,605.75Zm-1.39,0a2.08,2.08,0,1,0-2.06,2.41A2.17,2.17,0,0,0,435.09,605.75Z"/><path class="cls-2" d="M440.9,602.13a3.4,3.4,0,0,1,2.44,1l-.85.85a2.25,2.25,0,0,0-1.55-.62,2.43,2.43,0,1,0,1.55,4.23l.85.85a3.4,3.4,0,0,1-2.44,1,3.63,3.63,0,0,1,0-7.26Z"/><path class="cls-2" d="M450.81,605.75a3.45,3.45,0,1,1-3.45-3.63A3.46,3.46,0,0,1,450.81,605.75Zm-1.39,0a2.08,2.08,0,1,0-2.06,2.41A2.17,2.17,0,0,0,449.42,605.75Z"/><path class="cls-2" d="M452.32,609.21v-6.92h3.36a1.88,1.88,0,0,1,2.1,1.76,1.62,1.62,0,0,1-.94,1.47v0a1.75,1.75,0,0,1,1.27,1.63,2,2,0,0,1-2.23,2Zm3.17-4.13a.85.85,0,0,0,.91-.85.84.84,0,0,0-.91-.84h-1.79v1.7Zm.07,3c.63,0,1.13-.34,1.13-1s-.5-1-1.13-1h-1.86v1.93Z"/></svg>