<svg id="Слой_1" data-name="Слой 1" xmlns="http://www.w3.org/2000/svg" viewBox="0 0 120 120"><defs><style>.cls-1,.cls-3{fill:#e8418b;}.cls-1,.cls-2{stroke:#e8418b;}.cls-1,.cls-2,.cls-5{stroke-linecap:round;stroke-linejoin:round;stroke-width:2px;}.cls-2,.cls-4{fill:#c7efd9;}.cls-5{fill:none;stroke:#c7efd9;}</style></defs><title>icon3</title><path class="cls-1" d="M84.59,57.95h5.64a19.18,19.18,0,0,1,19.13,19.13v7.21H48.28V77.07A19.18,19.18,0,0,1,67.41,57.95h5.65"/><path class="cls-2" d="M84.58,52.23v5.72h0a7.06,7.06,0,0,1-11.53,0h0V52.23"/><path class="cls-1" d="M62.12,38.07A19.82,19.82,0,0,1,58.9,27.21c0-11,8-23.73,23.64-17.93,10.66-2,16.19,6.93,16.19,17.93A19.82,19.82,0,0,1,95.6,37.94"/><path class="cls-2" d="M62,27.53s18.67,1.57,24.63-6.59c0,0,2,6.59,8.92,7.84h0v7.68A16.78,16.78,0,0,1,78.82,53.24h0A16.78,16.78,0,0,1,62,36.47Z"/><path class="cls-3" d="M38.63,114.74A33.87,33.87,0,1,1,72.5,80.87,33.91,33.91,0,0,1,38.63,114.74Z"/><path class="cls-4" d="M38.63,48.49A32.37,32.37,0,1,1,6.26,80.87,32.37,32.37,0,0,1,38.63,48.49m0-3A35.37,35.37,0,1,0,74,80.87,35.41,35.41,0,0,0,38.63,45.49Z"/><polyline class="cls-5" points="26.02 76.43 22.66 78.38 22.66 91.89 34.36 98.65 46.06 91.89 46.06 78.38 36.83 73.05"/><polyline class="cls-5" points="51.11 85.37 54.6 83.35 54.6 69.84 42.9 63.09 31.19 69.84 31.19 83.35 39.98 88.42"/></svg>