<svg id="Слой_1" data-name="Слой 1" xmlns="http://www.w3.org/2000/svg" viewBox="0 0 120 120"><defs><style>.cls-1{fill:#e8418b;}.cls-2{fill:#c7efd9;}.cls-3{fill:#fff;}</style></defs><title>icon1</title><rect class="cls-1" x="14.93" y="14.46" width="86.76" height="59.33"/><rect class="cls-2" x="19.59" y="19.13" width="77.43" height="49.07"/><polygon class="cls-1" points="50.16 81.69 66.46 81.69 69.25 84.67 116.61 84.67 101.69 75.85 14.93 75.85 0 84.67 47.36 84.67 50.16 81.69"/><path class="cls-1" d="M0,86.17H116.61a0,0,0,0,1,0,0v.71a2.28,2.28,0,0,1-2.28,2.28H2.28A2.28,2.28,0,0,1,0,86.87v-.71a0,0,0,0,1,0,0Z"/><rect class="cls-1" x="79.02" y="30.94" width="40.98" height="74.03"/><rect class="cls-2" x="82.98" y="34.91" width="33.05" height="56.19"/><rect class="cls-3" x="94.55" y="96.3" width="9.92" height="3.47" rx="1.32" ry="1.32"/></svg>