<svg id="Слой_1" data-name="Слой 1" xmlns="http://www.w3.org/2000/svg" viewBox="0 0 120 120"><defs><style>.cls-1{fill:#e8418b;}.cls-2,.cls-3{fill:none;stroke-linecap:round;stroke-linejoin:round;stroke-width:2px;}.cls-2{stroke:#c7efd9;}.cls-3{stroke:#e8418b;}</style></defs><title>icon2</title><circle class="cls-1" cx="60" cy="33.21" r="23.09"/><polyline class="cls-2" points="51.01 30.05 48.61 31.44 48.61 41.07 56.96 45.89 65.3 41.07 65.3 31.44 58.72 27.63"/><polyline class="cls-2" points="68.9 36.42 71.39 34.99 71.39 25.35 63.04 20.53 54.7 25.35 54.7 34.99 60.96 38.6"/><circle class="cls-1" cx="24.23" cy="86.79" r="23.09"/><polyline class="cls-2" points="15.24 83.63 12.84 85.01 12.84 94.65 21.18 99.47 29.53 94.65 29.53 85.01 22.94 81.21"/><polyline class="cls-2" points="33.13 90 35.62 88.56 35.62 78.93 27.27 74.11 18.93 78.93 18.93 88.56 25.19 92.18"/><circle class="cls-1" cx="95.77" cy="86.79" r="23.09"/><polyline class="cls-2" points="86.78 83.63 84.38 85.01 84.38 94.65 92.73 99.47 101.07 94.65 101.07 85.01 94.49 81.21"/><polyline class="cls-2" points="104.67 90 107.16 88.56 107.16 78.93 98.82 74.11 90.47 78.93 90.47 88.56 96.73 92.18"/><path class="cls-3" d="M76.05,104.74a41.38,41.38,0,0,1-31.93.07"/><path class="cls-3" d="M87.51,36a41.21,41.21,0,0,1,12.78,21.84"/><path class="cls-3" d="M19.31,60A41.18,41.18,0,0,1,32.53,36"/></svg>