<svg id="Слой_1" data-name="Слой 1" xmlns="http://www.w3.org/2000/svg" viewBox="0 0 300 300"><defs><style>.cls-1{fill:#fdc300;}.cls-2{fill:#007367;}.cls-3{fill:#e9428c;}.cls-4{fill:#0bbbef;}</style></defs><title>ag logo</title><polygon class="cls-1" points="131.07 96.12 123.68 123.68 25.46 150 123.68 176.32 131.07 203.88 0 168.75 0 150 0 131.25 131.07 96.12"/><polygon class="cls-2" points="282.26 227.58 282.26 223.59 279.72 223.59 279.72 231.41 281.8 231.41 284.79 227.45 284.79 231.41 287.33 231.41 287.33 223.59 285.25 223.59 282.26 227.58"/><polygon class="cls-2" points="294.8 226.36 292.44 226.36 292.44 223.59 289.86 223.59 289.86 231.41 292.44 231.41 292.44 228.62 294.8 228.62 294.8 231.41 297.37 231.41 297.37 223.59 294.8 223.59 294.8 226.36"/><polygon class="cls-2" points="274.56 226.36 272.23 226.36 272.23 223.59 269.64 223.59 269.64 231.41 272.23 231.41 272.23 228.62 274.56 228.62 274.56 231.41 277.14 231.41 277.14 223.59 274.56 223.59 274.56 226.36"/><path class="cls-2" d="M227,223.59l.75,1.69L225,231.4h2.76l.42-1.12h3.19l.42,1.12h2.76L231,223.59Zm1.8,5,.94-2.47.94,2.47Z"/><polygon class="cls-2" points="209.53 231.41 212.11 231.41 212.11 225.88 215.5 225.88 215.5 223.59 209.53 223.59 209.53 231.41"/><path class="cls-2" d="M256.87,223.59h-6.75l.67,1.84a10,10,0,0,1-1.05,4h-1V233H251v-1.6h4.54V233h2.3V229.4h-1Zm-2.52,5.81h-2a11.49,11.49,0,0,0,.8-3.84h1.22Z"/><polygon class="cls-2" points="247.33 223.59 244.48 223.59 243.42 226.51 242.64 226.51 242.64 223.59 240.15 223.59 240.15 226.51 239.32 226.51 238.28 223.59 235.44 223.59 237.11 227.33 235.06 231.41 238.01 231.41 239.23 228.58 240.15 228.58 240.15 231.41 242.64 231.41 242.64 228.58 243.51 228.58 244.74 231.41 247.7 231.41 245.63 227.33 247.33 223.59"/><path class="cls-2" d="M260.86,223.59l.75,1.69-2.79,6.13h2.76l.42-1.12h3.19l.42,1.12h2.76l-3.47-7.81Zm1.8,5,.94-2.47.94,2.47Z"/><path class="cls-2" d="M220.9,223.59h-4.24l.73,1.84v6H220v-2.2h.94c2.07,0,4-.7,4-2.79S223,223.59,220.9,223.59Zm.1,3.66h-1v-1.69h.92c.74,0,1.05.35,1.05.85A.84.84,0,0,1,221,227.25Z"/><polygon class="cls-2" points="220.18 209.65 220.18 217.46 222.74 217.46 222.74 214.68 223.49 214.68 225.11 217.46 228.23 217.46 225.78 213.4 227.84 209.65 224.86 209.65 223.48 212.6 222.74 212.6 222.74 209.65 220.18 209.65"/><polygon class="cls-2" points="233.86 217.46 233.86 211.85 236.21 211.85 236.21 209.65 228.93 209.65 228.93 211.85 231.31 211.85 231.31 217.46 233.86 217.46"/><path class="cls-2" d="M251.82,217.46c1.71,0,3.4-.63,3.4-2.3a1.83,1.83,0,0,0-.57-1.37,2.28,2.28,0,0,0-.83-.47,1.72,1.72,0,0,0,1.12-1.67c0-1.25-.92-2-3-2h-4.75l.73,1.87v5.95Zm-1.3-5.95h1c.68,0,.83.3.83.55,0,.42-.25.62-.78.62h-1.06Zm0,2.75h1.4c.52,0,.77.28.77.67a.71.71,0,0,1-.77.68h-1.4Z"/><polygon class="cls-2" points="237.78 209.65 237.78 217.46 239.86 217.46 242.85 213.5 242.85 217.46 245.39 217.46 245.39 209.65 243.3 209.65 240.31 213.64 240.31 209.65 237.78 209.65"/><polygon class="cls-2" points="257.23 209.65 257.23 217.46 259.81 217.46 259.81 214.67 262.15 214.67 262.15 217.46 264.72 217.46 264.72 209.65 262.15 209.65 262.15 212.42 259.81 212.42 259.81 209.65 257.23 209.65"/><path class="cls-2" d="M215.6,209.65h-4l.75,1.69-2.79,6.13h2.75l.43-1.12h3.19l.42,1.12h2.76Zm-2.24,5,.94-2.47.94,2.47Z"/><path class="cls-2" d="M267.14,209.65v7.82h3.09c2.07,0,3.65-.63,3.65-2.75S272.3,212,270.23,212h-.52v-2.32Zm3.19,4.25c.65,0,.93.32.93.82s-.32.82-.93.82h-.62V213.9Z"/><rect class="cls-2" x="274.66" y="209.65" width="2.57" height="7.82"/><polygon class="cls-2" points="279.69 217.46 281.77 217.46 284.76 213.5 284.76 217.46 287.3 217.46 287.3 209.65 285.21 209.65 282.23 213.64 282.23 209.65 279.69 209.65 279.69 217.46"/><path class="cls-2" d="M285.72,208l-.41-1.55a3.84,3.84,0,0,1-3.62,0l-.42,1.55a3.66,3.66,0,0,0,4.45,0Z"/><path class="cls-2" d="M168.93,96.12l7.38,27.56,34.12,9.14-9.91,37-24.2,6.49-7.38,27.56L300,168.75V131.25ZM229.83,162l6-22.36L274.54,150Z"/><polygon class="cls-3" points="168.75 0 150 0 131.25 0 103.51 103.51 131.07 96.12 150 25.46 168.93 96.12 168.93 96.12 196.49 103.51 168.75 0"/><polygon class="cls-4" points="168.93 203.88 150 274.54 131.07 203.88 103.51 196.49 131.25 300 150 300 168.75 300 196.49 196.5 168.93 203.88"/></svg>