<svg id="Слой_1" data-name="Слой 1" xmlns="http://www.w3.org/2000/svg" viewBox="0 0 300 186.08"><defs><style>.cls-1{fill:#fdc300;}.cls-2{fill:#007367;}.cls-3{fill:#e9428c;}.cls-4{fill:#0bbbef;}</style></defs><title>ag logo mob</title><polygon class="cls-1" points="138.26 59.62 133.68 76.72 72.75 93.04 133.68 109.36 138.26 126.46 56.96 104.67 56.96 93.04 56.96 81.41 138.26 59.62"/><polygon class="cls-2" points="232.03 141.16 232.03 138.68 230.46 138.68 230.46 143.53 231.75 143.53 233.61 141.08 233.61 143.53 235.18 143.53 235.18 138.68 233.89 138.68 232.03 141.16"/><polygon class="cls-2" points="239.81 140.4 238.35 140.4 238.35 138.68 236.75 138.68 236.75 143.53 238.35 143.53 238.35 141.8 239.81 141.8 239.81 143.53 241.41 143.53 241.41 138.68 239.81 138.68 239.81 140.4"/><polygon class="cls-2" points="227.26 140.4 225.81 140.4 225.81 138.68 224.21 138.68 224.21 143.53 225.81 143.53 225.81 141.8 227.26 141.8 227.26 143.53 228.86 143.53 228.86 138.68 227.26 138.68 227.26 140.4"/><path class="cls-2" d="M197.76,138.68l.47,1-1.73,3.8h1.71l.26-.69h2l.26.69h1.71l-2.15-4.85Zm1.12,3.08.58-1.53.58,1.53Z"/><polygon class="cls-2" points="186.92 143.53 188.53 143.53 188.53 140.1 190.63 140.1 190.63 138.68 186.92 138.68 186.92 143.53"/><path class="cls-2" d="M216.29,138.68H212.1l.41,1.14a6.2,6.2,0,0,1-.65,2.47h-.64v2.24h1.43v-1h2.82v1h1.43v-2.24h-.61Zm-1.56,3.61h-1.25a7.13,7.13,0,0,0,.5-2.38h.76Z"/><polygon class="cls-2" points="210.37 138.68 208.6 138.68 207.95 140.5 207.46 140.5 207.46 138.68 205.92 138.68 205.92 140.5 205.4 140.5 204.76 138.68 203 138.68 204.03 141 202.76 143.53 204.59 143.53 205.35 141.78 205.92 141.78 205.92 143.53 207.46 143.53 207.46 141.78 208 141.78 208.77 143.53 210.6 143.53 209.31 141 210.37 138.68"/><path class="cls-2" d="M218.76,138.68l.47,1-1.73,3.8h1.71l.26-.69h2l.26.69h1.71l-2.16-4.85Zm1.12,3.08.58-1.53.58,1.53Z"/><path class="cls-2" d="M194,138.68h-2.63l.45,1.14v3.71h1.59v-1.37H194c1.28,0,2.47-.43,2.47-1.73S195.26,138.68,194,138.68ZM194,141h-.64v-1H194c.46,0,.65.22.65.53A.52.52,0,0,1,194,141Z"/><polygon class="cls-2" points="193.53 130.03 193.53 134.88 195.12 134.88 195.12 133.16 195.58 133.16 196.59 134.88 198.52 134.88 197 132.36 198.28 130.03 196.43 130.03 195.57 131.87 195.12 131.87 195.12 130.03 193.53 130.03"/><polygon class="cls-2" points="202.01 134.88 202.01 131.4 203.47 131.4 203.47 130.03 198.96 130.03 198.96 131.4 200.43 131.4 200.43 134.88 202.01 134.88"/><path class="cls-2" d="M213.15,134.88c1.06,0,2.11-.39,2.11-1.43a1.13,1.13,0,0,0-.35-.85,1.42,1.42,0,0,0-.52-.29,1.07,1.07,0,0,0,.69-1c0-.78-.57-1.25-1.84-1.25H210.3l.46,1.16v3.69Zm-.81-3.69H213c.42,0,.52.18.52.34s-.15.38-.49.38h-.66Zm0,1.7h.87c.32,0,.48.18.48.41a.44.44,0,0,1-.48.42h-.87Z"/><polygon class="cls-2" points="204.44 130.03 204.44 134.88 205.74 134.88 207.59 132.43 207.59 134.88 209.17 134.88 209.17 130.03 207.87 130.03 206.02 132.51 206.02 130.03 204.44 130.03"/><polygon class="cls-2" points="216.51 130.03 216.51 134.88 218.11 134.88 218.11 133.15 219.56 133.15 219.56 134.88 221.16 134.88 221.16 130.03 219.56 130.03 219.56 131.75 218.11 131.75 218.11 130.03 216.51 130.03"/><path class="cls-2" d="M190.69,130h-2.51l.47,1-1.73,3.8h1.71l.26-.69h2l.26.69h1.71Zm-1.39,3.08.58-1.53.58,1.53Z"/><path class="cls-2" d="M222.66,130v4.85h1.92c1.28,0,2.26-.39,2.26-1.71s-1-1.71-2.26-1.71h-.32V130Zm2,2.64c.4,0,.58.2.58.51s-.2.51-.58.51h-.38v-1Z"/><rect class="cls-2" x="227.32" y="130.03" width="1.6" height="4.85"/><polygon class="cls-2" points="230.44 134.88 231.73 134.88 233.59 132.43 233.59 134.88 235.16 134.88 235.16 130.03 233.87 130.03 232.01 132.51 232.01 130.03 230.44 130.03 230.44 134.88"/><path class="cls-2" d="M234.18,129l-.26-1a2.38,2.38,0,0,1-2.24,0l-.26,1a2.27,2.27,0,0,0,2.76,0Z"/><path class="cls-2" d="M161.74,59.62l4.58,17.1,21.16,5.67-6.15,23-15,4-4.58,17.1L243,104.67V81.41Zm37.77,40.85,3.71-13.87,24,6.43Z"/><polygon class="cls-3" points="161.63 0 150 0 138.37 0 121.16 64.2 138.26 59.62 150 15.79 161.74 59.62 161.74 59.62 178.84 64.2 161.63 0"/><polygon class="cls-4" points="161.74 126.46 150 170.28 138.26 126.46 121.16 121.88 138.37 186.08 150 186.08 161.63 186.08 178.84 121.88 161.74 126.46"/></svg>