<svg xmlns="http://www.w3.org/2000/svg" viewBox="0 0 24.32324 32"><defs><style>.cls-1{fill:#fff;opacity:0;}.cls-2{fill:#da2129;}</style></defs><title>line-14</title><g id="Layer_2" data-name="Layer 2"><g id="Layer_1-2" data-name="Layer 1"><rect class="cls-1" width="24.32324" height="32"/><path class="cls-2" d="M0,17.60447A12.16162,12.16162,0,1,1,12.1377,29.76561,12.19665,12.19665,0,0,1,0,17.60447Zm23.31543,0A11.15381,11.15381,0,1,0,12.1377,28.75877,11.17958,11.17958,0,0,0,23.31543,17.60447ZM12.1377,7.88963a9.72657,9.72657,0,1,1-9.71485,9.73926A9.70672,9.70672,0,0,1,12.1377,7.88963Zm8.75488,9.73926a8.731,8.731,0,1,0-8.75488,8.707A8.79806,8.79806,0,0,0,20.89258,17.62889Z"/><path d="M7.65234,14.17478H5.85352l.57519-1.65527H9.499v9.93067H7.65234Zm3.54981,4.65333,2.66308-6.3086H15.832L13.2168,18.63572h2.63867V15.99705h1.82324v2.63867h1.51074l-.52734,1.55957h-.9834v2.25489H15.85547V20.19529H11.20215Z"/></g></g></svg>