<svg xmlns="http://www.w3.org/2000/svg" viewBox="0 0 23.218 32"><defs><style>.cls-1{fill:#fff;opacity:0;}.cls-2{fill:#adacac;}</style></defs><title>line-9</title><g id="Layer_2" data-name="Layer 2"><g id="Layer_1-2" data-name="Layer 1"><rect class="cls-1" width="23.218" height="32"/><path class="cls-2" d="M.03527,17.60447a11.58545,11.58545,0,1,1,11.585,11.58594A11.59363,11.59363,0,0,1,.03527,17.60447Zm11.80078,6.06836,1.751-2.20605c1.87109-2.30274,2.59082-3.74219,2.59082-5.49317a4.34192,4.34192,0,0,0-4.38965-4.5332,4.21429,4.21429,0,0,0-4.4375,4.31738,3.74387,3.74387,0,0,0,3.8623,3.88574,4.47454,4.47454,0,0,0,1.79883-.43164v.07129L9.36535,23.457Zm-2.27832-8.083a2.1029,2.1029,0,0,1,2.1582-2.207,2.07889,2.07889,0,0,1,2.11133,2.207,2.11954,2.11954,0,0,1-2.11133,2.207A2.14389,2.14389,0,0,1,9.55773,15.58982Z"/></g></g></svg>