<svg xmlns="http://www.w3.org/2000/svg" viewBox="0 0 23.21875 32"><defs><style>.cls-1{fill:#fff;opacity:0;}.cls-2{fill:#ef7e25;}</style></defs><title>line-6</title><g id="Layer_2" data-name="Layer 2"><g id="Layer_1-2" data-name="Layer 1"><rect class="cls-1" x="0.00037" width="23.218" height="32"/><path class="cls-2" d="M0,17.60447A11.6094,11.6094,0,1,1,11.585,29.19041,11.58239,11.58239,0,0,1,0,17.60447Zm10.50586-1.82324,3.5498-4.125L11.56152,11.416l-1.751,2.15918C7.915,15.90135,7.19531,17.36424,7.19531,19.06736a4.44854,4.44854,0,0,0,4.4375,4.62989,4.31582,4.31582,0,0,0,4.55762-4.31739,3.95692,3.95692,0,0,0-3.93359-3.98242,4.79744,4.79744,0,0,0-1.751.4082ZM9.61816,19.499a2.12921,2.12921,0,0,1,2.13477-2.1582,2.07954,2.07954,0,0,1,2.11133,2.1582,2.04663,2.04663,0,0,1-2.11133,2.1836A2.09272,2.09272,0,0,1,9.61816,19.499Z"/></g></g></svg>