<svg xmlns="http://www.w3.org/2000/svg" viewBox="0 0 23.24414 32"><defs><style>.cls-1{fill:#fff;opacity:0;}.cls-2{fill:#925233;}</style></defs><title>line-5</title><g id="Layer_2" data-name="Layer 2"><g id="Layer_1-2" data-name="Layer 1"><rect class="cls-1" x="0.01307" width="23.218" height="32"/><path class="cls-2" d="M11.61035,5.9951A11.59766,11.59766,0,1,1,0,17.60447,11.60908,11.60908,0,0,1,11.61035,5.9951Zm-4.75,16.3584a6.02658,6.02658,0,0,0,4.53418,1.77539,4.48642,4.48642,0,0,0,4.79688-4.31739A4.0984,4.0984,0,0,0,11.874,15.78123a4.98336,4.98336,0,0,0-2.18261.48047H9.667l.168-2.92676h5.34961l.69531-2.01465h-7.916l-.33594,6.97949,1.77539.21583a3.72458,3.72458,0,0,1,2.03906-.69532,2.10062,2.10062,0,0,1,2.32617,2.01465c0,1.3916-1.05468,2.15918-2.51855,2.15918a4.28958,4.28958,0,0,1-2.87793-1.15137Z"/></g></g></svg>