<svg xmlns="http://www.w3.org/2000/svg" viewBox="0 0 23.25451 32"><defs><style>.cls-1{fill:#fff;opacity:0;}.cls-2{fill:#0473ba;}</style></defs><title>line-3</title><g id="Layer_2" data-name="Layer 2"><g id="Layer_1-2" data-name="Layer 1"><rect class="cls-1" width="23.218" height="32"/><path class="cls-2" d="M11.64513,5.9951A11.59766,11.59766,0,1,1,.03576,17.60447,11.60383,11.60383,0,0,1,11.64513,5.9951ZM7.20763,21.96971a6.03459,6.03459,0,0,0,4.26953,1.72754c2.39844,0,4.53321-1.72754,4.53321-3.98145a3.79674,3.79674,0,0,0-3.31055-3.66992l2.999-2.999v-1.415H7.99865v1.94336h4.86914l-2.83008,2.85351v1.51172a2.97918,2.97918,0,0,1,1.10352-.12012c1.22363,0,2.49414.57617,2.49414,1.89551a2.06089,2.06089,0,0,1-2.30274,1.87012,3.77419,3.77419,0,0,1-2.63769-1.127Z"/></g></g></svg>