<svg xmlns="http://www.w3.org/2000/svg" viewBox="0 0 23.21973 32"><defs><style>.cls-1{fill:#fff;opacity:0;}.cls-2{fill:#4fb04f;}</style></defs><title>line-2</title><g id="Layer_2" data-name="Layer 2"><g id="Layer_1-2" data-name="Layer 1"><rect class="cls-1" x="0.00086" width="23.218" height="32"/><path class="cls-2" d="M11.61035,5.9951A11.59766,11.59766,0,1,1,0,17.60447,11.61884,11.61884,0,0,1,11.61035,5.9951ZM15.44824,23.457l.64746-1.99023H10.6748v-.04785l2.0625-1.94336c2.03907-1.8711,2.87891-2.99805,2.87891-4.62989,0-1.84668-1.4873-3.40527-4.07812-3.40527A6.15873,6.15873,0,0,0,7.293,13.23924l1.415,1.43847a4.1807,4.1807,0,0,1,2.71-1.22265,1.74984,1.74984,0,0,1,1.9668,1.67871c0,.81543-.38379,1.43945-2.66211,3.64648L7.74805,21.80174V23.457Z"/></g></g></svg>