<svg xmlns="http://www.w3.org/2000/svg" viewBox="0 0 23.24316 32"><defs><style>.cls-1{fill:#fff;opacity:0;}.cls-2{fill:#ffcd1e;}</style></defs><title>line-8</title><g id="Layer_2" data-name="Layer 2"><g id="Layer_1-2" data-name="Layer 1"><rect class="cls-1" x="0.00037" width="23.218" height="32"/><path class="cls-2" d="M11.65723,6.01853A11.58616,11.58616,0,1,1,0,17.62889,11.5537,11.5537,0,0,1,11.65723,6.01853Z"/><path d="M9.09082,17.26853A2.74312,2.74312,0,0,1,7.33984,14.75c0-1.77441,1.6543-3.334,4.26954-3.334,2.63867,0,4.24511,1.55957,4.24511,3.334a2.7565,2.7565,0,0,1-1.72656,2.51855v.07227a3.085,3.085,0,0,1,1.919,2.75879c0,2.13477-1.79883,3.57324-4.4375,3.57324-2.71094,0-4.55762-1.43847-4.55762-3.57324A3.088,3.088,0,0,1,9.09082,17.3408Zm2.51856,4.46192c1.39062,0,2.25488-.81543,2.25488-1.65527,0-.93555-.86426-1.70313-2.25488-1.70313-1.46387,0-2.25489.76758-2.25489,1.70313C9.35449,20.915,10.14551,21.73045,11.60938,21.73045Zm0-5.30176c1.29492,0,2.01464-.6709,2.01464-1.583,0-.791-.71972-1.55859-2.01464-1.55859-1.34376,0-2.08692.76758-2.08692,1.55859C9.52246,15.75779,10.26562,16.42869,11.60938,16.42869Z"/></g></g></svg>