<?xml version="1.0" encoding="utf-8"?>
<!-- Generator: Adobe Illustrator 18.0.0, SVG Export Plug-In . SVG Version: 6.00 Build 0)  -->
<!DOCTYPE svg PUBLIC "-//W3C//DTD SVG 1.1//EN" "http://www.w3.org/Graphics/SVG/1.1/DTD/svg11.dtd">
<svg version="1.1" id="Слой_1" xmlns="http://www.w3.org/2000/svg" xmlns:xlink="http://www.w3.org/1999/xlink" x="0px" y="0px"
	 viewBox="0 0 156.1 76" enable-background="new 0 0 156.1 76" xml:space="preserve">
<g>
	<g>
		<path fill="#007B6D" d="M37,42.9h-5.7l1.1,2.4l-4,8.7h3.9l0.6-1.6h4.5L38,54h3.9L37,42.9z M33.8,49.9l1.3-3.5l1.3,3.5H33.8z"/>
		<polygon fill="#007B6D" points="152.5,62.7 152.5,66.6 149.1,66.6 149.1,62.7 145.5,62.7 145.5,73.7 149.1,73.7 149.1,69.8 
			152.5,69.8 152.5,73.7 156.1,73.7 156.1,62.7 		"/>
		<polygon fill="#007B6D" points="134.4,68.3 134.4,62.7 130.9,62.7 130.9,73.7 133.8,73.7 138,68.1 138,73.7 141.6,73.7 
			141.6,62.7 138.7,62.7 		"/>
		<polygon fill="#007B6D" points="123.3,66.6 120,66.6 120,62.7 116.3,62.7 116.3,73.7 120,73.7 120,69.8 123.3,69.8 123.3,73.7 
			126.9,73.7 126.9,62.7 123.3,62.7 		"/>
		<path fill="#007B6D" d="M53.4,62.7l1.1,2.4l-3.9,8.7h3.9l0.6-1.6h4.5l0.6,1.6H64l-4.9-11.1H53.4z M55.9,69.7l1.3-3.5l1.3,3.5H55.9
			z"/>
		<path fill="#007B6D" d="M44.4,62.7h-6l1,2.6v8.5h3.6v-3.1h1.3c2.9,0,5.6-1,5.6-3.9C50.1,63.7,47.4,62.7,44.4,62.7z M44.6,67.8
			h-1.5v-2.4h1.3c1,0,1.5,0.5,1.5,1.2C45.9,67.3,45.4,67.8,44.6,67.8z"/>
		<polygon fill="#007B6D" points="28,73.7 31.6,73.7 31.6,65.9 36.4,65.9 36.4,62.7 28,62.7 		"/>
		<path fill="#007B6D" d="M97,62.7h-9.6l0.9,2.6c-0.3,2.7-0.7,4.3-1.5,5.6h-1.5V76h3.3v-2.3h6.4V76h3.3v-5.1H97V62.7z M93.4,70.9
			h-2.9c0.7-1.5,1-3.7,1.1-5.4h1.7V70.9z"/>
		<polygon fill="#007B6D" points="83,62.7 78.9,62.7 77.5,66.8 76.3,66.8 76.3,62.7 72.8,62.7 72.8,66.8 71.6,66.8 70.2,62.7 
			66.2,62.7 68.5,68 65.6,73.7 69.8,73.7 71.5,69.7 72.8,69.7 72.8,73.7 76.3,73.7 76.3,69.7 77.6,69.7 79.3,73.7 83.5,73.7 
			80.6,68 		"/>
		<path fill="#007B6D" d="M103.3,62.7l1.1,2.4l-3.9,8.7h3.9l0.6-1.6h4.5l0.6,1.6h3.9L109,62.7H103.3z M105.8,69.7l1.3-3.5l1.3,3.5
			H105.8z"/>
		<polygon fill="#007B6D" points="44,42.9 44,54 47.6,54 47.6,50 48.7,50 51,54 55.4,54 51.9,48.2 54.8,42.9 50.6,42.9 48.7,47.1 
			47.6,47.1 47.6,42.9 		"/>
		<polygon fill="#007B6D" points="60.2,54 63.9,54 63.9,46 67.2,46 67.2,42.9 56.9,42.9 56.9,46 60.2,46 		"/>
		<path fill="#007B6D" d="M90.3,54c2.4,0,4.8-0.9,4.8-3.3c0-0.7-0.3-1.4-0.8-1.9c-0.3-0.3-0.7-0.5-1.2-0.7c1.1-0.4,1.6-1.4,1.6-2.4
			c0-1.8-1.3-2.9-4.2-2.9h-6.7l1,2.6V54H90.3z M88.5,45.6h1.4c1,0,1.2,0.4,1.2,0.8c0,0.6-0.4,0.9-1.1,0.9h-1.5V45.6z M88.4,49.4h2
			c0.7,0,1.1,0.4,1.1,0.9c0,0.5-0.4,1-1.1,1h-2V49.4z"/>
		<polygon fill="#007B6D" points="77.2,48.4 77.2,54 80.8,54 80.8,42.9 77.9,42.9 73.6,48.6 73.6,42.9 70,42.9 70,54 73,54 		"/>
		<polygon fill="#007B6D" points="102.1,50 105.4,50 105.4,54 109.1,54 109.1,42.9 105.4,42.9 105.4,46.8 102.1,46.8 102.1,42.9 
			98.5,42.9 98.5,54 102.1,54 		"/>
		<path fill="#007B6D" d="M122.5,50.1c0-3-2.2-3.9-5.2-3.9h-0.7v-3.3H113V54h4.4C120.3,54,122.5,53.1,122.5,50.1z M116.6,48.9h0.9
			c0.9,0,1.3,0.4,1.3,1.2c0,0.7-0.4,1.2-1.3,1.2h-0.9V48.9z"/>
		<rect x="123.6" y="42.9" fill="#007B6D" width="3.6" height="11.1"/>
		<polygon fill="#007B6D" points="134.4,48.6 134.4,42.9 130.9,42.9 130.9,54 133.8,54 138,48.4 138,54 141.6,54 141.6,42.9 
			138.7,42.9 		"/>
		<path fill="#007B6D" d="M139.4,40.6l-0.6-2.2c-0.8,0.4-1.5,0.6-2.6,0.6c-1.1,0-1.8-0.3-2.6-0.6l-0.6,2.2c0.8,0.6,1.9,1.1,3.2,1.1
			C137.5,41.7,138.6,41.3,139.4,40.6z"/>
		<path fill="#007B6D" d="M2.6,28.6L0,38.4l46.7-12.5V12.5L0,0l2.6,9.8l12.2,3.3l-3.5,13.2L2.6,28.6z M23.8,15.5l13.8,3.7l-15.9,4.3
			L23.8,15.5z"/>
	</g>
</g>
</svg>
