<?xml version="1.0" standalone="no"?>
<!DOCTYPE svg PUBLIC "-//W3C//DTD SVG 1.1//EN" "http://www.w3.org/Graphics/SVG/1.1/DTD/svg11.dtd" >
<svg xmlns="http://www.w3.org/2000/svg">
<metadata>
Copyright   : Copyright (c) 2012 by Art. Lebedev Studio. All rights reserved.
Designer    : Vera Evstafieva
</metadata>
<defs>
<font id="ALSDirect-Bold" horiz-adv-x="589" >
<font-face units-per-em="1000" ascent="975" descent="225" />
<missing-glyph horiz-adv-x="848" />
<glyph unicode="&#13;" horiz-adv-x="230" />
<glyph unicode="&#32;" horiz-adv-x="230" />
<glyph unicode="&#33;" horiz-adv-x="333" d="M230 193h-124l-19 542h161zM81 78q0 35 21 59.5q21 24.5 65 24.5q45 0 66.5 -24.5q21.5 -24.5 21.5 -59.5q0 -35 -21.5 -59.5q-21.5 -24.5 -66.5 -24.5q-44 0 -65 24.5t-21 59.5z" />
<glyph unicode="&#34;" horiz-adv-x="394" d="M69 750h169l-130 -290h-89zM274 750h168l-129 -290l-90 0z" />
<glyph unicode="&#35;" horiz-adv-x="615" d="M29 309h109l15 84h-106v121h125l29 157h124l-25 -157h54l27 157h126l-26 -157h105v-121h-123l-15 -84h115v-120h-134l-29 -164h-125l26 164h-53l-29 -164h-127l29 164h-92zM267 309h51l15 84l-51 0z" />
<glyph unicode="&#36;" horiz-adv-x="580" d="M488 516q-35 27 -63 38.5q-28 11.5 -63 16.5l0 -172q37 -13 71.5 -29.5q34.5 -16.5 61.5 -39.5q27 -23 43 -55.5q16 -32.5 16 -78.5q0 -45 -15 -80q-15 -35 -41 -60q-26 -25 -61 -39.5q-35 -14.5 -76 -16.5l0 -68h-133v66q-57 5 -97 14.5q-40 9.5 -80 31.5l21 150q23 -16 42 -26.5q19 -10.5 37 -17.5q18 -7 36.5 -11.5q18.5 -4.5 40.5 -8.5l0 157q-41 15 -75.5 34q-34.5 19 -59.5 45.5q-25 26.5 -39 62q-14 35.5 -14 83.5q0 78 48 130.5q48 52.5 140 62.5l0 51h134v-50q32 -2 59.5 -7.5q27.5 -5.5 47.5 -11.5q24 -7 44 -15zM178 511q0 -18 4 -30q4 -12 10.5 -20q6.5 -8 15.5 -13q9 -5 20 -10l0 135q-23 -7 -36.5 -23.5q-13.5 -16.5 -13.5 -38.5zt0 0zM412 189q0 26 -14 39.5q-14 13.5 -37 23.5l0 -124q22 3 36.5 17.5t14.5 43.5z" />
<glyph unicode="&#37;" horiz-adv-x="885" d="M313 0h-153l403 736h153zM465 184q0 42 14.5 77q14.5 35 39.5 59.5q25 24.5 59.5 38q34.5 13.5 73.5 13.5q40 0 74.5 -13.5q34.5 -13.5 60 -38q25.5 -24.5 40 -59.5q14.5 -35 14.5 -77q0 -43 -15 -77.5q-15 -34.5 -40.5 -59q-25.5 -24.5 -60 -38q-34.5 -13.5 -74.5 -13.5q-39 0 -73 13.5q-34 13.5 -59 38q-25 24.5 -39.5 59q-14.5 34.5 -14.5 77.5zt0 0zM599 183q0 -27 15 -45.5q15 -18.5 39 -18.5q25 0 40 18.5q15 18.5 15 45.5q0 26 -15 45q-15 19 -40 19q-24 0 -39 -19q-15 -19 -15 -45zt0 0zM44 559q0 43 14.5 78q14.5 35 39.5 59.5q25 24.5 59.5 38q34.5 13.5 73.5 13.5q40 0 74.5 -13.5q34.5 -13.5 60 -38q25.5 -24.5 40 -59.5q14.5 -35 14.5 -78q0 -43 -15 -77.5q-15 -34.5 -40.5 -59q-25.5 -24.5 -60 -37.5q-34.5 -13 -74.5 -13q-39 0 -73 13q-34 13 -59 37.5q-25 24.5 -39.5 59q-14.5 34.5 -14.5 77.5zt0 0zM178 558q0 -26 15 -45q15 -19 39 -19q25 0 40 19q15 19 15 45q0 26 -15 45.5q-15 19.5 -40 19.5q-24 0 -39 -19.5t-15 -45.5z" />
<glyph unicode="&#38;" horiz-adv-x="659" d="M481 0l-57 57q-75 -63 -167 -63q-45 0 -84.5 11.5q-39.5 11.5 -68 34.5q-28.5 23 -45 57q-16.5 34 -16.5 80q0 34 8.5 62q8.5 28 22.5 52q14 24 33.5 44.5q19.5 20.5 40.5 38.5q-29 42 -40 80q-11 38 -11 72q0 35 12.5 67q12.5 32 36.5 56.5q24 24.5 59.5 39q35.5 14.5 81.5 14.5q42 0 73.5 -13q31.5 -13 52.5 -34.5q21 -21.5 31.5 -49.5q10.5 -28 10.5 -59q0 -31 -10 -58.5q-10 -27.5 -26.5 -51.5q-16.5 -24 -38 -45.5q-21.5 -21.5 -44.5 -39.5q8 -10 15 -18q7 -8 15.5 -17.5q8.5 -9.5 19 -20.5q10.5 -11 25.5 -27q8 25 14 56.5q6 31.5 11 70.5l138 0q-8 -74 -24 -132.5q-16 -58.5 -38 -100.5q16 -17 37 -37.5q21 -20.5 43.5 -42.5q22.5 -22 45 -43.5q22.5 -21.5 40.5 -39.5zM262 120q19 0 38 5.5q19 5.5 34 22.5q-18 18 -32 33q-14 15 -26.5 28.5q-12.5 13.5 -24 27q-11.5 13.5 -24.5 29.5q-17 -17 -28.5 -36q-11.5 -19 -11.5 -45q0 -24 18.5 -44.5q18.5 -20.5 56.5 -20.5zt0 0zM234 524q0 -16 5.5 -32q5.5 -16 20.5 -33q24 20 39 38.5q15 18.5 15 39.5q0 14 -9 24.5q-9 10.5 -25 10.5q-18 0 -32 -12.5t-14 -35.5z" />
<glyph unicode="&#39;" horiz-adv-x="224" d="M79 750h169l-130 -290l-89 0z" />
<glyph unicode="&#40;" horiz-adv-x="349" d="M368 710q-53 -54 -94 -119q-18 -28 -34.5 -60.5q-16.5 -32.5 -30 -69.5q-13.5 -37 -21.5 -77q-8 -40 -8 -83q0 -51 7.5 -96q7.5 -45 20.5 -84q13 -39 29.5 -72q16.5 -33 33.5 -60q40 -63 91 -110l-89 -94q-66 55 -118 132q-22 33 -43 73q-21 40 -37.5 88q-16.5 48 -26.5 103q-10 55 -10 117q0 56 10 107q10 51 26 97q16 46 36.5 85.5q20.5 39.5 42.5 72.5q51 77 116 139z" />
<glyph unicode="&#41;" horiz-adv-x="348" d="M81 798q64 -61 114 -138q21 -33 42 -72.5q21 -39.5 37 -85.5q16 -46 26 -97q10 -51 10 -107q0 -62 -10 -117q-10 -55 -26.5 -103q-16.5 -48 -38 -88q-21.5 -40 -43.5 -73q-52 -77 -117 -132l-85 92q49 48 89 111q17 27 33 60.5q16 33.5 29 72.5q13 39 20.5 84q7.5 45 7.5 96q0 43 -8 83q-8 40 -21.5 76.5q-13.5 36.5 -30 69q-16.5 32.5 -34.5 60.5q-41 64 -94 119z" />
<glyph unicode="&#42;" horiz-adv-x="534" d="M286 389l-92 -142l-109 81l101 137l-157 45l44 124l152 -55l-2 159h135l-7 -159q38 12 79 27.5q41 15.5 76 26.5l38 -128l-158 -42l103 -140l-109 -76z" />
<glyph unicode="&#43;" horiz-adv-x="672" d="M57 415h204v207h150v-207h204v-142h-204v-207h-150v207l-204 0z" />
<glyph unicode="&#44;" horiz-adv-x="219" d="M40 149h173l-129 -307l-94 0z" />
<glyph unicode="&#45;" horiz-adv-x="526" d="M86 408h354v-145l-354 0z" />
<glyph unicode="&#46;" horiz-adv-x="270" d="M48 79q0 35 25 59q25 24 62 24q36 0 61.5 -24q25.5 -24 25.5 -59q0 -17 -7 -32.5q-7 -15.5 -18.5 -27q-11.5 -11.5 -27.5 -18.5q-16 -7 -34 -7q-37 0 -62 25t-25 60z" />
<glyph unicode="&#47;" horiz-adv-x="457" d="M151 -50h-151l344 786l151 0z" />
<glyph unicode="&#48;" horiz-adv-x="580" d="M22 345q0 85 19.5 152.5q19.5 67.5 55 114q35.5 46.5 86 71q50.5 24.5 112.5 24.5q131 0 197.5 -91q66.5 -91 66.5 -271q0 -86 -19 -153q-19 -67 -55 -113q-36 -46 -87 -69.5q-51 -23.5 -114 -23.5q-124 0 -193 93.5q-69 93.5 -69 265.5zt0 0zM169 342q0 -48 7 -89q7 -41 21.5 -71q14.5 -30 36.5 -47.5q22 -17.5 53 -17.5q31 0 55 17.5q24 17.5 39.5 47.5q15.5 30 23.5 71q8 41 8 89q0 48 -7 89.5q-7 41.5 -22 72q-15 30.5 -38 48q-23 17.5 -54 17.5q-32 0 -55 -17.5q-23 -17.5 -38 -48q-15 -30.5 -22.5 -72t-7.5 -89.5z" />
<glyph unicode="&#49;" horiz-adv-x="580" d="M88 558q42 12 79.5 26.5q37.5 14.5 75 35q37.5 20.5 77 48q39.5 27.5 86.5 66.5l0 -604h119v-130h-437v130h162v338l-162 -43z" />
<glyph unicode="&#50;" horiz-adv-x="580" d="M525 0h-481v119q71 62 128 115q57 53 96.5 98.5q39.5 45.5 60.5 85q21 39.5 21 74.5q0 34 -17 56.5q-17 22.5 -62 22.5q-26 0 -48 -5q-22 -5 -44 -17q-22 -12 -44.5 -33q-22.5 -21 -48.5 -54l-14 185q19 14 45.5 25.5q26.5 11.5 55.5 20q29 8.5 60.5 13.5q31.5 5 61.5 5q110 0 165.5 -52.5q55.5 -52.5 55.5 -151.5q0 -50 -23 -101q-23 -51 -60 -98.5q-37 -47.5 -84.5 -90.5q-47.5 -43 -96.5 -77l273 0z" />
<glyph unicode="&#51;" horiz-adv-x="580" d="M545 701l-197 -273q80 -10 124 -61q44 -51 44 -139q0 -47 -14.5 -90q-14.5 -43 -47.5 -75.5q-33 -32.5 -85.5 -52q-52.5 -19.5 -128.5 -19.5q-36 0 -67.5 4.5q-31.5 4.5 -56 11q-24.5 6.5 -41 13.5q-16.5 7 -22.5 11l0 168q11 -11 29.5 -24q18.5 -13 42.5 -24.5q24 -11.5 53 -19.5q29 -8 61 -8q57 0 89 25q32 25 32 80q0 21 -7 38.5q-7 17.5 -24 30.5q-17 13 -45 20q-28 7 -71 7q-21 0 -41 -1.5q-20 -1.5 -42 -3.5l172 255q-43 0 -76.5 -2.5q-33.5 -2.5 -60.5 -7.5q-27 -5 -49.5 -14.5q-22.5 -9.5 -42.5 -24.5l0 176z" />
<glyph unicode="&#52;" horiz-adv-x="580" d="M324 0v128h-313v121l287 442h176v-435h83v-129h-83v-127zM324 256v252h-4l-159 -252z" />
<glyph unicode="&#53;" horiz-adv-x="580" d="M512 563h-273v-104q19 5 39.5 7q20.5 2 44.5 2q40 0 78 -13q38 -13 68 -41q30 -28 48 -70.5q18 -42.5 18 -102.5q0 -46 -14.5 -91q-14.5 -45 -47 -80q-32.5 -35 -84 -57q-51.5 -22 -125.5 -22q-74 0 -117 11.5q-43 11.5 -73 25.5l0 160q22 -20 49 -36q23 -14 54.5 -25q31.5 -11 68.5 -11q66 0 98.5 30q32.5 30 32.5 80q0 25 -5 44.5q-5 19.5 -18 33q-13 13.5 -36 21q-23 7.5 -58 7.5q-24 0 -43 -1.5q-19 -1.5 -37 -5q-18 -3.5 -37.5 -9.5q-19.5 -6 -44.5 -14l0 399l414 0z" />
<glyph unicode="&#54;" horiz-adv-x="580" d="M324 462q48 0 89 -13q41 -13 71 -40q30 -27 47 -67.5q17 -40.5 17 -95.5q0 -62 -19 -109.5q-19 -47.5 -53 -80q-34 -32.5 -79.5 -49q-45.5 -16.5 -98.5 -16.5q-56 0 -103 15q-47 15 -81.5 52q-34.5 37 -54 99q-19.5 62 -19.5 157q0 78 18 149q18 71 57 125q39 54 100.5 86q61.5 32 148.5 32q44 0 79 -1.5q35 -1.5 67 -10.5l0 -156q-37 23 -75.5 28.5q-38.5 5.5 -77.5 5.5q-32 0 -60 -11.5q-28 -11.5 -50 -31q-22 -19.5 -35.5 -46q-13.5 -26.5 -16.5 -57.5q23 11 57 23.5q34 12.5 72 12.5zt0 0zM302 116q51 0 76 33.5q25 33.5 25 84.5q0 49 -26 73q-26 24 -73 24q-40 0 -71.5 -13q-31.5 -13 -45.5 -27l0 -17q0 -77 25 -117.5t90 -40.5z" />
<glyph unicode="&#55;" horiz-adv-x="580" d="M560 690l-276 -690h-160l228 556q-67 0 -113 -2.5q-46 -2.5 -78 -6q-32 -3.5 -55 -8.5q-23 -5 -43 -10l0 161z" />
<glyph unicode="&#56;" horiz-adv-x="580" d="M282 -13q-66 0 -112 13q-46 13 -75 38q-29 25 -42 60q-13 35 -13 80q0 32 7.5 57q7.5 25 22 46.5q14.5 21.5 35.5 41q21 19.5 48 40.5q-52 37 -71.5 76q-19.5 39 -19.5 90q0 39 14 72.5q14 33.5 43.5 57.5q29.5 24 74 38q44.5 14 105.5 14q66 0 110.5 -15q44.5 -15 70.5 -40.5q26 -25.5 37 -59q11 -33.5 11 -71.5q0 -51 -27 -89.5q-27 -38.5 -78 -76.5q56 -33 86.5 -74.5q30.5 -41.5 30.5 -104.5q0 -40 -15 -75q-15 -35 -46.5 -61.5q-31.5 -26.5 -80 -41.5q-48.5 -15 -116.5 -15zt0 0zM391 190q0 31 -33.5 59q-33.5 28 -82.5 54q-39 -29 -63 -56q-24 -27 -24 -55q0 -40 27 -61.5q27 -21.5 70 -21.5q48 0 77 21.5q29 21.5 29 59.5zt0 0zM209 518q0 -33 21 -56.5q21 -23.5 68 -44.5q39 23 59 47q20 24 20 47q0 12 -3 26q-3 14 -11.5 25.5q-8.5 11.5 -24.5 19.5q-16 8 -42 8q-41 0 -64 -21.5t-23 -50.5z" />
<glyph unicode="&#57;" horiz-adv-x="580" d="M253 229q-48 0 -88 13.5q-40 13.5 -68.5 41.5q-28.5 28 -44.5 71q-16 43 -16 102q0 60 21.5 105.5q21.5 45.5 56.5 76q35 30.5 80 45.5q45 15 93 15q60 0 107 -17q47 -17 79.5 -54q32.5 -37 49.5 -95q17 -58 17 -140q0 -92 -17 -166q-17 -74 -54 -126.5q-37 -52.5 -96 -81q-59 -28.5 -142 -28.5q-95 0 -162 23l0 156q39 -26 78.5 -38.5q39.5 -12.5 77.5 -12.5q66 0 108.5 35.5q42.5 35.5 50.5 112.5q-23 -16 -56 -27q-33 -11 -75 -11zt0 0zM287 569q-56 0 -81 -28q-25 -28 -25 -75q0 -57 25 -81q25 -24 67 -24q43 0 69.5 12q26.5 12 46.5 29l0 20q0 33 -4.5 60.5q-4.5 27.5 -15.5 46.5q-11 19 -31 29.5t-51 10.5z" />
<glyph unicode="&#58;" horiz-adv-x="235" d="M26 143q0 35 25 59.5q25 24.5 62 24.5q18 0 34 -6.5q16 -6.5 27.5 -18q11.5 -11.5 18.5 -27q7 -15.5 7 -32.5q0 -35 -25.5 -59.5q-25.5 -24.5 -61.5 -24.5q-37 0 -62 24.5q-25 24.5 -25 59.5zt0 0zM26 463q0 35 25 59.5q25 24.5 62 24.5q18 0 34 -6.5q16 -6.5 27.5 -18q11.5 -11.5 18.5 -27q7 -15.5 7 -32.5q0 -35 -25.5 -59.5q-25.5 -24.5 -61.5 -24.5q-37 0 -62 24.5t-25 59.5z" />
<glyph unicode="&#59;" horiz-adv-x="236" d="M27 463q0 35 25 59.5q25 24.5 61 24.5q18 0 34 -6.5q16 -6.5 27.5 -18q11.5 -11.5 18.5 -27q7 -15.5 7 -32.5q0 -35 -25.5 -59.5q-25.5 -24.5 -61.5 -24.5q-36 0 -61 24.5q-25 24.5 -25 59.5zt0 0zM37 198h178l-126 -281l-101 0z" />
<glyph unicode="&#60;" horiz-adv-x="580" d="M250 329l315 -197l-73 -120l-467 319l467 300l72 -115z" />
<glyph unicode="&#61;" horiz-adv-x="580" d="M8 304h564v-138h-564zM8 496h564v-138l-564 0z" />
<glyph unicode="&#62;" horiz-adv-x="580" d="M26 516l72 115l467 -300l-467 -319l-73 120l315 197z" />
<glyph unicode="&#63;" horiz-adv-x="445" d="M80 204q-5 23 -5 41q0 24 9 47q9 23 23 45.5q14 22.5 32.5 43.5q18.5 21 36.5 41q14 16 28 31q14 15 25 29.5q11 14.5 18 28.5q7 14 7 28q0 30 -19 49q-19 19 -57 19q-24 0 -43.5 -4q-19.5 -4 -38 -14.5q-18.5 -10.5 -38.5 -28.5q-20 -18 -44 -45l0 175q41 23 89 37q48 14 111 14q90 0 140.5 -46q50.5 -46 50.5 -131q0 -33 -9 -62q-9 -29 -24 -54.5q-15 -25.5 -35 -49q-20 -23.5 -42 -46.5q-36 -38 -59 -71.5q-23 -33.5 -23 -48.5l5 -28zM61 78q0 35 25 59.5q25 24.5 61 24.5q18 0 34 -6.5q16 -6.5 27.5 -18q11.5 -11.5 18.5 -27q7 -15.5 7 -32.5q0 -17 -7 -32.5q-7 -15.5 -18.5 -27q-11.5 -11.5 -27.5 -18q-16 -6.5 -34 -6.5q-36 0 -61 24.5t-25 59.5z" />
<glyph unicode="&#64;" horiz-adv-x="1061" d="M766 524q-4 -50 -9.5 -114.5q-5.5 -64.5 -5.5 -128.5q0 -47 3.5 -77.5q3.5 -30.5 11 -47.5q7.5 -17 17.5 -23.5q10 -6.5 24 -6.5q16 0 28 16.5q12 16.5 20.5 42q8.5 25.5 13 55.5q4.5 30 4.5 58q0 75 -19.5 136.5q-19.5 61.5 -60 105.5q-40.5 44 -103 68q-62.5 24 -147.5 24q-83 0 -151.5 -26q-68.5 -26 -118 -74.5q-49.5 -48.5 -77 -117q-27.5 -68.5 -27.5 -153.5q0 -89 26 -153.5q26 -64.5 69.5 -106q43.5 -41.5 100.5 -61.5q57 -20 120 -20q60 0 129.5 7q69.5 7 134.5 36l0 -131q-60 -19 -122.5 -29q-62.5 -10 -144.5 -10q-108 0 -192.5 33.5q-84.5 33.5 -143 93.5q-58.5 60 -89 144.5q-30.5 84.5 -30.5 186.5q0 112 37 205.5q37 93.5 105.5 161q68.5 67.5 164 105q95.5 37.5 212.5 37.5q97 0 168.5 -22q71.5 -22 123 -58q51.5 -36 85 -82.5q33.5 -46.5 53 -95.5q19.5 -49 27 -97.5q7.5 -48.5 7.5 -87.5q0 -71 -16.5 -129.5q-16.5 -58.5 -45.5 -100.5q-29 -42 -68 -65q-39 -23 -84 -23q-61 0 -96.5 26.5q-35.5 26.5 -52.5 70.5q-12 -17 -28.5 -34q-16.5 -17 -37.5 -31q-21 -14 -47 -23q-26 -9 -57 -9q-57 0 -99.5 19.5q-42.5 19.5 -70.5 53q-28 33.5 -42 80q-14 46.5 -14 100.5q0 67 22 120.5q22 53.5 59.5 90.5q37.5 37 87.5 56.5q50 19.5 106 19.5q49 0 84.5 -14.5q35.5 -14.5 50.5 -23.5q10 5 21.5 9.5q11.5 4.5 20.5 7.5l21 7zM529 409q-66 0 -102.5 -43.5q-36.5 -43.5 -36.5 -111.5q0 -35 8 -59q8 -24 20.5 -39.5q12.5 -15.5 28 -22.5q15.5 -7 30.5 -7q26 0 50 17.5q24 17.5 43 50.5q19 33 31.5 79.5q12.5 46.5 17.5 104.5q-14 10 -36 20.5t-54 10.5z" />
<glyph unicode="&#65;" horiz-adv-x="636" d="M425 134h-231l-50 -134h-154l277 700h103l276 -700h-173zM384 266l-68 209h-4l-74 -209z" />
<glyph unicode="&#66;" horiz-adv-x="649" d="M76 700q46 1 80.5 2q34.5 1 61.5 2q27 1 50 1q23 0 47 0q74 0 125 -12.5q51 -12.5 83 -36.5q32 -24 46 -58.5q14 -34.5 14 -77.5q0 -46 -23 -84.5q-23 -38.5 -59 -61.5q21 -8 40.5 -21.5q19.5 -13.5 34.5 -33q15 -19.5 24 -44.5q9 -25 9 -57q0 -42 -13 -82.5q-13 -40.5 -45 -72q-32 -31.5 -86 -51q-54 -19.5 -137 -19.5q-64 0 -123 1.5q-59 1.5 -129 5.5zM232 129q20 -2 40.5 -3q20.5 -1 41.5 -1q73 0 101 24q28 24 28 65q0 17 -6 30.5q-6 13.5 -21 23.5q-15 10 -39.5 15q-24.5 5 -60.5 5h-84zM292 418q73 0 100.5 22q27.5 22 27.5 64q0 14 -5 26.5q-5 12.5 -17 22q-12 9.5 -33 15q-21 5.5 -52 5.5q-10 0 -21.5 0q-11.5 0 -23 -0.5q-11.5 -0.5 -21 -1.5q-9.5 -1 -15.5 -2l0 -151z" />
<glyph unicode="&#67;" horiz-adv-x="628" d="M598 45q-45 -22 -98.5 -38q-53.5 -16 -119.5 -16q-168 0 -251.5 88.5q-83.5 88.5 -83.5 261.5q0 83 24.5 151.5q24.5 68.5 69.5 117q45 48.5 109.5 75.5q64.5 27 145.5 27q31 0 56.5 -2q25.5 -2 49 -7q23.5 -5 46 -13q22.5 -8 47.5 -20l-20 -179q-36 48 -80.5 65.5q-44.5 17.5 -93.5 17.5q-89 0 -143 -58.5q-54 -58.5 -54 -170.5q0 -108 52 -164q52 -56 143 -56q45 0 82.5 12.5q37.5 12.5 63.5 27.5q31 18 55 40z" />
<glyph unicode="&#68;" horiz-adv-x="686" d="M76 700h228q177 0 259.5 -88q82.5 -88 82.5 -254q0 -84 -21 -150q-21 -66 -63.5 -112.5q-42.5 -46.5 -108 -71q-65.5 -24.5 -155.5 -24.5h-222zM232 136h66q92 0 140 54q48 54 48 160q0 109 -49 158q-49 49 -146 49l-59 0z" />
<glyph unicode="&#69;" horiz-adv-x="565" d="M76 0v700h463v-139h-306v-137h260v-138h-260v-147h318l0 -139z" />
<glyph unicode="&#70;" horiz-adv-x="528" d="M76 0v700h444v-140h-288v-136h260v-138h-260l0 -286z" />
<glyph unicode="&#71;" horiz-adv-x="707" d="M637 48q-45 -22 -109 -39.5q-64 -17.5 -147 -17.5q-80 0 -143 22.5q-63 22.5 -107 66.5q-44 44 -67.5 109.5q-23.5 65.5 -23.5 151.5q0 82 23.5 150q23.5 68 70 117q46.5 49 115 76.5q68.5 27.5 158.5 27.5q63 0 115 -12q52 -12 99 -31l-20 -177q-22 24 -47 39.5q-25 15.5 -51 24.5q-26 9 -51.5 12.5q-25.5 3.5 -47.5 3.5q-98 0 -151.5 -58q-53.5 -58 -53.5 -170q0 -114 49.5 -168q49.5 -54 150.5 -54q25 0 47 4q22 4 42 10l0 122q-39 -2 -78.5 -6.5q-39.5 -4.5 -61.5 -7.5l0 147l289 0z" />
<glyph unicode="&#72;" horiz-adv-x="725" d="M493 0v283h-261v-283h-156v700h156v-279h261v279h156l0 -700z" />
<glyph unicode="&#73;" horiz-adv-x="309" d="M233 0h-157v700l157 0z" />
<glyph unicode="&#74;" horiz-adv-x="397" d="M321 280q0 -83 -14 -138.5q-14 -55.5 -41 -89q-27 -33.5 -68 -47.5q-41 -14 -95 -14q-12 0 -27 1q-15 1 -29.5 3q-14.5 2 -26.5 4q-12 2 -18 4l-10 152q23 -14 44.5 -19q21.5 -5 48.5 -5q38 0 59 30.5q21 30.5 21 103.5v435l156 0z" />
<glyph unicode="&#75;" horiz-adv-x="624" d="M284 254q-14 20 -23 30.5q-9 10.5 -15 10.5h-14v-295h-156v700h156v-280h16q8 0 22.5 20q14.5 20 34.5 49l144 211h177l-249 -337l273 -363l-190 0z" />
<glyph unicode="&#76;" horiz-adv-x="509" d="M76 0v700h156v-570h66q20 0 51 1q31 1 64 4q33 3 63.5 7q30.5 4 49.5 10l0 -152z" />
<glyph unicode="&#77;" horiz-adv-x="910" d="M406 -8l-167 487h-6v-171l-24 -308h-159l82 700h161l164 -474l168 474h161l74 -700h-159l-23 308v170h-4l-170 -486z" />
<glyph unicode="&#78;" horiz-adv-x="725" d="M510 0l-288 435h-4l12 -133v-302h-154v699h151l272 -436h4l-8 114v322h154l0 -699z" />
<glyph unicode="&#79;" horiz-adv-x="702" d="M40 358q0 81 22 147q22 66 63.5 112.5q41.5 46.5 100 72q58.5 25.5 131.5 25.5q86 0 144.5 -25.5q58.5 -25.5 94 -72q35.5 -46.5 51 -112.5q15.5 -66 15.5 -147q0 -79 -18 -146.5q-18 -67.5 -56 -116.5q-38 -49 -97 -77q-59 -28 -142 -28q-83 0 -141.5 27q-58.5 27 -96 76q-37.5 49 -54.5 116.5q-17 67.5 -17 148.5zt0 0zM197 361q0 -52 8 -95.5q8 -43.5 26.5 -75q18.5 -31.5 48 -49.5q29.5 -18 72.5 -18q42 0 71 17.5q29 17.5 47.5 48.5q18.5 31 26.5 73.5q8 42.5 8 92.5q0 51 -8.5 93q-8.5 42 -26.5 71q-18 29 -47.5 45q-29.5 16 -71.5 16q-38 0 -66.5 -16q-28.5 -16 -48 -45.5q-19.5 -29.5 -29.5 -69.5t-10 -88z" />
<glyph unicode="&#80;" horiz-adv-x="583" d="M232 0h-156v699q55 2 107.5 4.5q52.5 2.5 117.5 2.5q65 0 116 -13q51 -13 85.5 -42q34.5 -29 52.5 -75q18 -46 18 -112q0 -71 -23.5 -119.5q-23.5 -48.5 -61.5 -78.5q-38 -30 -86.5 -43q-48.5 -13 -98.5 -13q-14 0 -24 0q-10 0 -17.5 0q-7.5 0 -14.5 0.5q-7 0.5 -15 1.5zM290 572q-16 0 -30.5 0q-14.5 0 -27.5 -1l0 -219q14 -2 26 -2.5q12 -0.5 32 -0.5q62 0 94 29q32 29 32 85q0 50 -29 79.5t-97 29.5z" />
<glyph unicode="&#81;" horiz-adv-x="734" d="M45 358q0 79 21.5 145q21.5 66 62 113q40.5 47 99.5 73q59 26 135 26q86 0 144 -25.5q58 -25.5 93.5 -72q35.5 -46.5 51 -112.5q15.5 -66 15.5 -147q0 -104 -30.5 -178.5q-30.5 -74.5 -90.5 -124.5q11 -23 28.5 -35.5q17.5 -12.5 48.5 -12.5q21 0 35.5 1.5q14.5 1.5 37.5 6.5l-7 -134q-51 -9 -82 -9q-68 0 -118 29q-50 29 -76 93q-14 -2 -29.5 -3q-15.5 -1 -30.5 -1q-83 0 -141.5 27q-58.5 27 -95.5 76q-37 49 -54 116.5q-17 67.5 -17 148.5zt0 0zM202 361q0 -116 35.5 -177q35.5 -61 118.5 -61q40 0 69.5 18q29.5 18 48 49.5q18.5 31.5 27.5 74q9 42.5 9 90.5q0 49 -8 90.5q-8 41.5 -25.5 71.5q-17.5 30 -45.5 46.5q-28 16.5 -67 16.5q-41 0 -71.5 -18q-30.5 -18 -50.5 -48.5q-20 -30.5 -30 -70t-10 -82.5z" />
<glyph unicode="&#82;" horiz-adv-x="640" d="M447 0l-143 236q-11 -1 -24.5 -1.5q-13.5 -0.5 -27.5 -0.5q-6 0 -10.5 0q-4.5 0 -9.5 1l0 -235h-156v699q51 3 106 4q55 1 124 1q67 0 119 -12.5q52 -12.5 87.5 -39q35.5 -26.5 54 -69q18.5 -42.5 18.5 -102.5q0 -41 -11 -74q-11 -33 -29 -58.5q-18 -25.5 -40.5 -43q-22.5 -17.5 -46.5 -28.5l177 -277zM232 372q15 -1 28 -1q13 0 28 0q65 0 100.5 26q35.5 26 35.5 83q0 92 -124 92q-25 0 -39 0q-14 0 -29 -1z" />
<glyph unicode="&#83;" horiz-adv-x="545" d="M463 510q-45 32 -91.5 46q-46.5 14 -88.5 14q-40 0 -66.5 -15.5q-26.5 -15.5 -26.5 -48.5q0 -35 35 -54.5q35 -19.5 95 -40.5q37 -13 72.5 -29.5q35.5 -16.5 62.5 -41.5q27 -25 43.5 -60q16.5 -35 16.5 -85q0 -93 -63 -148.5q-63 -55.5 -185 -55.5q-78 0 -134 11q-56 11 -94 25l0 186q49 -40 100.5 -64.5q51.5 -24.5 120.5 -24.5q42 0 67.5 17q25.5 17 25.5 43q0 36 -39 60.5q-39 24.5 -104 46.5q-86 29 -133 80q-47 51 -47 138q0 91 65.5 146q65.5 55 190.5 55q38 0 74 -5q36 -5 64 -11q33 -7 60 -15z" />
<glyph unicode="&#84;" horiz-adv-x="587" d="M-10 700h607v-158q-14 7 -36 12q-22 5 -47 8q-25 3 -50 4.5q-25 1.5 -44 1.5h-48v-568h-157v568h-48q-20 0 -44.5 -1.5q-24.5 -1.5 -49.5 -4.5q-25 -3 -47 -8q-22 -5 -36 -12z" />
<glyph unicode="&#85;" horiz-adv-x="705" d="M635 700v-374q0 -175 -70 -257q-70 -82 -217 -82q-141 0 -209.5 82q-68.5 82 -68.5 257v374h156v-386q0 -102 32.5 -147q32.5 -45 92.5 -45q28 0 51.5 10q23.5 10 40.5 32q17 22 26.5 57.5q9.5 35.5 9.5 87.5l0 391z" />
<glyph unicode="&#86;" horiz-adv-x="626" d="M170 700l149 -511h4l135 511h178l-252 -699h-135l-259 699z" />
<glyph unicode="&#87;" horiz-adv-x="868" d="M489 702l142 -450h4l87 448h161l-181 -700h-111l-159 424h-4l-151 -424h-107l-185 700h161l96 -448h4l142 450z" />
<glyph unicode="&#88;" horiz-adv-x="613" d="M216 354l-215 345h180l133 -242l132 242h163l-206 -347l220 -352h-176l-140 246l-143 -246l-174 0z" />
<glyph unicode="&#89;" horiz-adv-x="599" d="M228 0v250l-238 450h169l146 -308l138 308h166l-225 -450l0 -250z" />
<glyph unicode="&#90;" horiz-adv-x="559" d="M540 2h-530v62l328 506q-67 0 -112.5 -1.5q-45.5 -1.5 -79 -3.5q-33.5 -2 -59.5 -5.5q-26 -3.5 -53 -9.5l0 150h515v-63l-328 -507h138q29 0 57.5 2.5q28.5 2.5 52.5 6q24 3.5 42.5 7.5q18.5 4 28.5 7z" />
<glyph unicode="&#91;" horiz-adv-x="371" d="M70 788h282v-130h-137v-735h137v-130l-282 0z" />
<glyph unicode="&#92;" horiz-adv-x="423" d="M-62 736h151l345 -786l-151 0z" />
<glyph unicode="&#93;" horiz-adv-x="370" d="M287 -207h-281v130h137v735h-137v130l281 0z" />
<glyph unicode="&#94;" horiz-adv-x="499" d="M103 405l-86 58l224 307l223 -308l-85 -58l-138 198z" />
<glyph unicode="&#95;" horiz-adv-x="493" d="M64 0h345v-145l-345 0z" />
<glyph unicode="&#96;" horiz-adv-x="490" d="M387 584h-114l-163 196l185 0z" />
<glyph unicode="&#97;" horiz-adv-x="585" d="M391 -7q-2 9 -5 20.5q-3 11.5 -5 22.5q-2 11 -4 21q-2 10 -3 16q-11 -15 -28.5 -30.5q-17.5 -15.5 -39.5 -27.5q-22 -12 -46.5 -20q-24.5 -8 -49.5 -8q-92 0 -136 46.5q-44 46.5 -44 124.5q0 91 66.5 140q66.5 49 187.5 49q26 0 48 0q22 0 27 -1q-2 18 -7.5 33q-5.5 15 -17.5 26.5q-12 11.5 -30.5 18q-18.5 6.5 -46.5 6.5q-46 0 -89 -11q-43 -11 -72 -36l-11 150q24 7 54 13q26 5 61 9q35 4 79 4q67 0 111 -15.5q44 -15.5 69.5 -47q25.5 -31.5 35.5 -79.5q10 -48 10 -114v-126q0 -35 4 -64q4 -29 9 -52q6 -26 14 -48zM360 230h-65q-63 0 -94.5 -15.5q-31.5 -15.5 -31.5 -51.5q0 -53 58 -53q21 0 41.5 7q20.5 7 38 18q17.5 11 31.5 25q14 14 23 29z" />
<glyph unicode="&#98;" horiz-adv-x="652" d="M226 755v-254q32 26 74.5 42.5q42.5 16.5 90.5 16.5q41 0 81 -14q40 -14 71.5 -46.5q31.5 -32.5 51 -85.5q19.5 -53 19.5 -131q0 -72 -19.5 -127.5q-19.5 -55.5 -55 -93.5q-35.5 -38 -85.5 -57.5q-50 -19.5 -111 -19.5q-30 0 -56 4.5q-26 4.5 -46.5 11.5q-20.5 7 -36.5 14q-16 7 -26 13l-70 -28h-32v749zM357 424q-29 0 -61 -12q-32 -12 -70 -48l0 -217q17 -13 43.5 -25q26.5 -12 53.5 -12q73 0 105 41q32 41 32 122q0 43 -7 72q-7 29 -20 46.5q-13 17.5 -32 25t-44 7.5z" />
<glyph unicode="&#99;" horiz-adv-x="522" d="M487 29q-47 -21 -88 -29.5q-41 -8.5 -83 -8.5q-59 0 -109.5 15.5q-50.5 15.5 -88 49.5q-37.5 34 -59 87.5q-21.5 53.5 -21.5 130.5q0 68 22.5 121.5q22.5 53.5 61.5 90.5q39 37 92 56.5q53 19.5 115 19.5q47 0 82.5 -7.5q35.5 -7.5 75.5 -21.5l-18 -164q-18 18 -34.5 30.5q-16.5 12.5 -32.5 19.5q-16 7 -33.5 10q-17.5 3 -38.5 3q-73 0 -107.5 -44q-34.5 -44 -34.5 -116q0 -30 7.5 -58q7.5 -28 24 -49.5q16.5 -21.5 41.5 -34.5q25 -13 61 -13q35 0 64.5 7q29.5 7 49.5 16q24 10 43 23z" />
<glyph unicode="&#100;" horiz-adv-x="660" d="M457 -7q-2 10 -4 22.5q-2 12.5 -4 25q-2 12.5 -3 22.5q-1 10 -2 15q-32 -45 -79 -66.5q-47 -21.5 -104 -21.5q-44 0 -84.5 15q-40.5 15 -71.5 48.5q-31 33.5 -49 86q-18 52.5 -18 127.5q0 72 23.5 126.5q23.5 54.5 62.5 91.5q39 37 90 55.5q51 18.5 105 18.5q26 0 55.5 -3q29.5 -3 55.5 -8l0 201l150 6v-495q0 -24 1.5 -55.5q1.5 -31.5 4 -65.5q2.5 -34 6 -66.5q3.5 -32.5 8.5 -59.5zM430 406q-25 11 -51 15q-26 4 -52 4q-28 0 -53 -9q-25 -9 -44 -28q-19 -19 -30 -48.5q-11 -29.5 -11 -71.5q0 -41 8 -69.5q8 -28.5 22 -45.5q14 -17 33 -24.5q19 -7.5 41 -7.5q38 0 74 23.5q36 23.5 63 70.5z" />
<glyph unicode="&#101;" horiz-adv-x="578" d="M501 24q-42 -17 -93 -25q-51 -8 -98 -8q-144 0 -208 68q-64 68 -64 210q0 64 16.5 118q16.5 54 49.5 93q33 39 83 61q50 22 116 22q69 0 113.5 -23.5q44.5 -23.5 70 -59.5q25.5 -36 35 -80.5q9.5 -44.5 9.5 -86.5q0 -14 -1.5 -29.5q-1.5 -15.5 -3 -29.5q-1.5 -14 -3 -24.5q-1.5 -10.5 -1.5 -13.5l-335 0q8 -101 135 -101q39 0 72 5.5q33 5.5 57 13.5q28 9 50 20zM296 444q-50 0 -76 -27.5q-26 -27.5 -31 -81.5l197 0q0 21 -4.5 41q-4.5 20 -15 35q-10.5 15 -27.5 24t-43 9z" />
<glyph unicode="&#102;" horiz-adv-x="431" d="M94 380h-79v133h79v35q0 59 17.5 99.5q17.5 40.5 48 66q30.5 25.5 71.5 36.5q41 11 88 11q28 0 53 -2.5q25 -2.5 45 -4.5q23 -3 43 -6l-12 -146q-25 13 -54.5 19.5q-29.5 6.5 -67.5 6.5q-38 0 -60 -19.5q-22 -19.5 -22 -68.5v-27h172v-133h-171v-380l-151 0z" />
<glyph unicode="&#103;" horiz-adv-x="632" d="M560 550v-456q0 -162 -72.5 -237.5q-72.5 -75.5 -226.5 -75.5q-38 0 -71 4.5q-33 4.5 -58 10.5q-29 6 -54 15l-13 159q27 -17 58 -30q26 -11 59 -20q33 -9 68 -9q49 0 80.5 10q31.5 10 49 28.5q17.5 18.5 24 44.5q6.5 26 6.5 59q-12 -10 -28.5 -18.5q-16.5 -8.5 -33.5 -15q-17 -6.5 -34 -10q-17 -3.5 -32 -3.5q-51 0 -95.5 16.5q-44.5 16.5 -77.5 49.5q-33 33 -52 83q-19 50 -19 118q0 64 18 116.5q18 52.5 52 90q34 37.5 83 58.5q49 21 110 21q47 0 83.5 -10q36.5 -10 56.5 -21l84 22zM410 407q-23 12 -48.5 19q-25.5 7 -52.5 7q-24 0 -46 -8.5q-22 -8.5 -39.5 -27q-17.5 -18.5 -27.5 -47.5q-10 -29 -10 -71q0 -79 34.5 -112q34.5 -33 87.5 -33q26 0 52 6.5q26 6.5 50 26.5z" />
<glyph unicode="&#104;" horiz-adv-x="634" d="M417 0v79q0 36 0.5 82.5q0.5 46.5 0.5 96.5q0 47 -3.5 78.5q-3.5 31.5 -12 51q-8.5 19.5 -23.5 28q-15 8.5 -38 8.5q-34 0 -67 -23q-33 -23 -56 -60l0 -341h-151v749l147 6v-275q32 36 76 58q44 22 98 22q55 0 90 -16q35 -16 55 -52q20 -36 27 -95.5q7 -59.5 7 -146.5l0 -250z" />
<glyph unicode="&#105;" horiz-adv-x="302" d="M76 531h151v-531h-151zM62 671q0 36 25.5 61.5q25.5 25.5 63.5 25.5q38 0 63.5 -25.5q25.5 -25.5 25.5 -61.5q0 -18 -7 -34q-7 -16 -19 -28.5q-12 -12.5 -28 -19.5q-16 -7 -35 -7q-19 0 -35 7q-16 7 -28 19.5q-12 12.5 -19 28.5t-7 34z" />
<glyph unicode="&#106;" horiz-adv-x="323" d="M98 531h150v-426q0 -87 -13 -147q-13 -60 -39 -97q-26 -37 -65.5 -53.5q-39.5 -16.5 -92.5 -16.5q-26 0 -50 4q-24 4 -49 9l-9 143q29 -14 50.5 -17q21.5 -3 47.5 -3q18 0 31 7.5q13 7.5 22 26.5q9 19 13 50.5q4 31.5 4 78.5zM82 671q0 36 25.5 61.5q25.5 25.5 63.5 25.5q19 0 35.5 -7q16.5 -7 28.5 -18.5q12 -11.5 19 -27.5q7 -16 7 -34q0 -18 -7 -34q-7 -16 -19 -28.5q-12 -12.5 -28.5 -19.5q-16.5 -7 -35.5 -7q-19 0 -35 7q-16 7 -28 19.5q-12 12.5 -19 28.5t-7 34z" />
<glyph unicode="&#107;" horiz-adv-x="562" d="M581 0h-188l-122 181q-20 29 -27.5 36.5q-7.5 7.5 -10.5 7.5h-16v-225h-150v749l150 6v-420h16q4 0 15 14.5q11 14.5 26 37.5l110 163h171l-194 -260z" />
<glyph unicode="&#108;" horiz-adv-x="338" d="M216 177q0 -18 8 -29q8 -11 21.5 -16.5q13.5 -5.5 30 -7.5q16.5 -2 33.5 -2l-16 -123q-21 -1 -44 -1.5q-23 -0.5 -51 -0.5q-65 0 -98 39q-33 39 -33 127v586l149 6z" />
<glyph unicode="&#109;" horiz-adv-x="928" d="M391 0v79q0 36 0.5 82.5q0.5 46.5 0.5 96.5q0 89 -11 127.5q-11 38.5 -48 38.5q-32 0 -62 -21.5q-30 -21.5 -54 -58.5l0 -344h-150v550h129l9 -77q35 39 74 63q39 24 93 24q26 0 47.5 -3q21.5 -3 38.5 -12q17 -9 31.5 -25.5q14.5 -16.5 26.5 -43.5q35 35 77.5 59.5q42.5 24.5 95.5 24.5q54 0 88 -15q34 -15 53.5 -50.5q19.5 -35.5 26.5 -95q7 -59.5 7 -149.5v-250h-150v79q0 36 0.5 82.5q0.5 46.5 0.5 96.5q0 45 -2 76.5q-2 31.5 -8.5 51.5q-6.5 20 -18.5 29q-12 9 -32 9q-40 0 -66.5 -22q-26.5 -22 -46.5 -51l0 -351z" />
<glyph unicode="&#110;" horiz-adv-x="631" d="M417 0v79q0 36 0.5 82.5q0.5 46.5 0.5 96.5q0 89 -15.5 127.5q-15.5 38.5 -59.5 38.5q-35 0 -68.5 -21.5q-33.5 -21.5 -56.5 -58.5l0 -344h-151v550h129l9 -77q31 38 77.5 62.5q46.5 24.5 96.5 24.5q57 0 93.5 -14.5q36.5 -14.5 57.5 -50q21 -35.5 29 -95q8 -59.5 8 -150.5l0 -250z" />
<glyph unicode="&#111;" horiz-adv-x="610" d="M38 275q0 65 19.5 118q19.5 53 55.5 91q36 38 86 59q50 21 112 21q72 0 122 -21.5q50 -21.5 81 -60q31 -38.5 44.5 -91.5q13.5 -53 13.5 -116q0 -62 -16.5 -115.5q-16.5 -53.5 -50 -92.5q-33.5 -39 -83.5 -61.5q-50 -22.5 -117 -22.5q-69 0 -119.5 21q-50.5 21 -83.5 59.5q-33 38.5 -48.5 92q-15.5 53.5 -15.5 119.5zt0 0zM188 276q0 -81 31.5 -123q31.5 -42 85.5 -42q59 0 87.5 46q28.5 46 28.5 118q0 81 -27 121.5q-27 40.5 -86 40.5q-57 0 -88.5 -42t-31.5 -119z" />
<glyph unicode="&#112;" horiz-adv-x="648" d="M196 550l9 -77q28 37 75 62q47 25 102 25q48 0 89.5 -15q41.5 -15 72 -48.5q30.5 -33.5 48.5 -86q18 -52.5 18 -127.5q0 -72 -20 -127q-20 -55 -56.5 -92q-36.5 -37 -87 -56q-50.5 -19 -111.5 -19q-31 0 -65 6.5q-34 6.5 -53 16.5l0 -210l-150 -7v755zM217 146q22 -14 46 -22.5q24 -8.5 60 -8.5q60 0 96.5 40q36.5 40 36.5 121q0 46 -9 75.5q-9 29.5 -24 46.5q-15 17 -35 23.5q-20 6.5 -42 6.5q-31 0 -67.5 -22q-36.5 -22 -61.5 -59z" />
<glyph unicode="&#113;" horiz-adv-x="646" d="M430 -205v255q-26 -26 -68 -43q-42 -17 -93 -17q-46 0 -87.5 14q-41.5 14 -73.5 46q-32 32 -51 84q-19 52 -19 128q0 75 22 131q22 56 60 92.5q38 36.5 88.5 55q50.5 18.5 107.5 18.5q41 0 78.5 -7q37.5 -7 68.5 -23l71 21h45v-748zM429 403q-23 13 -48 19q-25 6 -55 6q-63 0 -100 -41q-37 -41 -37 -116q0 -41 8.5 -69q8.5 -28 23 -45.5q14.5 -17.5 33.5 -25.5q19 -8 40 -8q42 0 75.5 15q33.5 15 59.5 47z" />
<glyph unicode="&#114;" horiz-adv-x="444" d="M67 0v549h129l9 -81q33 38 69.5 63q36.5 25 93.5 25q19 0 35 -3.5q16 -3.5 27 -7.5q13 -5 24 -11l-32 -150q-10 9 -22 17q-11 6 -25 11.5q-14 5.5 -31 5.5q-45 0 -74.5 -21q-29.5 -21 -52.5 -59l0 -338z" />
<glyph unicode="&#115;" horiz-adv-x="501" d="M424 389q-29 23 -70 36q-41 13 -105 13q-26 0 -42.5 -11q-16.5 -11 -16.5 -29q0 -12 5 -21q5 -9 21 -18q16 -9 46 -19.5q30 -10.5 80 -24.5q21 -6 43.5 -17q22.5 -11 41.5 -28.5q19 -17.5 31.5 -43q12.5 -25.5 12.5 -59.5q0 -81 -56.5 -128.5q-56.5 -47.5 -177.5 -47.5q-60 0 -110.5 9q-50.5 9 -81.5 20l6 152q25 -17 54 -29q25 -11 58 -20q33 -9 71 -9q85 0 85 47q0 15 -12 24.5q-12 9.5 -32 17q-20 7.5 -45 14.5q-25 7 -52 16q-69 23 -102 60.5q-33 37.5 -33 103.5q0 74 57.5 119.5q57.5 45.5 173.5 45.5q31 0 59.5 -3.5q28.5 -3.5 51.5 -8.5q26 -5 49 -11z" />
<glyph unicode="&#116;" horiz-adv-x="496" d="M250 424v-208q0 -97 68 -97q29 0 54.5 7.5q25.5 7.5 45.5 16.5q23 11 43 25l-6 -146q-35 -15 -80.5 -24.5q-45.5 -9.5 -90.5 -9.5q-94 0 -139.5 49q-45.5 49 -45.5 155v137q0 45 1 95l-90 0v49q35 26 66.5 62.5q31.5 36.5 54.5 71.5q27 40 51 84l68 0v-146h212l0 -122z" />
<glyph unicode="&#117;" horiz-adv-x="646" d="M561 260q0 -24 1.5 -55.5q1.5 -31.5 4 -65.5q2.5 -34 6 -66.5q3.5 -32.5 8.5 -59.5l-141 -20q-2 10 -4.5 23.5q-2.5 13.5 -5 26.5q-2.5 13 -4 23.5q-1.5 10.5 -1.5 15.5q-33 -38 -77.5 -64q-44.5 -26 -109.5 -26q-50 0 -84 18q-34 18 -55 55q-21 37 -30 93.5q-9 56.5 -9 133.5v40q0 18 0.5 41q0.5 23 0.5 48v129h150q-1 -42 -1 -89v-192q0 -81 16.5 -114.5q16.5 -33.5 54.5 -33.5q18 0 36.5 7.5q18.5 7.5 35.5 20.5q17 13 32 30q15 17 26 35l0 336l150 0z" />
<glyph unicode="&#118;" horiz-adv-x="533" d="M165 550l104 -353h4l95 353h160l-205 -550h-109l-209 550z" />
<glyph unicode="&#119;" horiz-adv-x="811" d="M442 557l126 -353h4l82 346h152l-172 -550h-112l-116 283l-116 -283h-109l-176 550h152l89 -346h4l128 353z" />
<glyph unicode="&#120;" horiz-adv-x="546" d="M184 285l-170 265h172l94 -167h4l98 167h167l-182 -267l189 -283h-173l-109 186h-4l-112 -186l-168 0z" />
<glyph unicode="&#121;" horiz-adv-x="561" d="M-3 550h159l125 -404l114 404h156q-50 -157 -91 -279.5q-41 -122.5 -78 -219.5q-26 -67 -51.5 -115.5q-25.5 -48.5 -56 -80.5q-30.5 -32 -68.5 -47.5q-38 -15.5 -87 -15.5q-26 0 -50 2q-24 2 -47 10l-10 150q27 -19 52 -25.5q25 -6.5 41 -6.5q39 0 62.5 18.5q23.5 18.5 40.5 53.5z" />
<glyph unicode="&#122;" horiz-adv-x="491" d="M490 550v-37q-5 -6 -19 -25.5q-14 -19.5 -33.5 -48q-19.5 -28.5 -43 -63q-23.5 -34.5 -47.5 -69.5q-56 -83 -124 -183l111 0q18 0 38.5 2.5q20.5 2.5 39.5 6.5q19 4 33.5 8q14.5 4 21.5 7l0 -148h-462v36l270 394q-51 0 -84.5 -1q-33.5 -1 -57 -3q-23.5 -2 -41 -5q-17.5 -3 -36.5 -7l0 136z" />
<glyph unicode="&#123;" horiz-adv-x="426" d="M426 686q-40 -19 -73 -52q-29 -28 -54 -72q-25 -44 -30 -108q-2 -20 -9.5 -41q-7.5 -21 -19.5 -41.5q-12 -20.5 -28 -38.5q-16 -18 -33 -32q34 -30 59.5 -77q25.5 -47 30.5 -96q6 -63 32.5 -105q26.5 -42 56.5 -68q34 -31 77 -50l-64 -105q-68 31 -122 80q-23 21 -45 48q-22 27 -39.5 60.5q-17.5 33.5 -28.5 74q-11 40.5 -11 87.5q-2 17 -25 40.5q-23 23.5 -61 58.5l-54 49q60 49 100.5 85.5q40.5 36.5 40.5 56.5q0 47 10.5 87.5q10.5 40.5 28 74.5q17.5 34 40 61.5q22.5 27.5 45.5 48.5q55 50 124 83z" />
<glyph unicode="&#124;" horiz-adv-x="289" d="M212 -207h-145v995l145 0z" />
<glyph unicode="&#125;" horiz-adv-x="427" d="M-18 -91q40 19 73 52q29 28 54 72q25 44 30 108q2 20 9.5 41q7.5 21 19.5 41.5q12 20.5 30.5 38.5q18.5 18 35.5 32q-39 30 -64.5 77q-25.5 47 -30.5 96q-6 63 -32.5 105q-26.5 42 -56.5 68q-34 31 -77 50l64 105q68 -31 122 -80q23 -21 45 -48q22 -27 39.5 -60.5q17.5 -33.5 28.5 -74q11 -40.5 11 -87.5q2 -17 25 -40.5q23 -23.5 61 -58.5l54 -49q-60 -49 -100.5 -85.5q-40.5 -36.5 -40.5 -56.5q0 -47 -10.5 -87.5q-10.5 -40.5 -28 -74.5q-17.5 -34 -40 -61.5q-22.5 -27.5 -45.5 -48.5q-55 -50 -124 -83z" />
<glyph unicode="&#126;" horiz-adv-x="596" d="M38 356q42 33 88 57.5q46 24.5 87 24.5q25 0 45 -8.5q20 -8.5 38 -18.5q18 -10 35 -18.5q17 -8.5 36 -8.5q32 0 62.5 17.5q30.5 17.5 58.5 34.5l51 -113q-51 -32 -92 -54q-41 -22 -85 -22q-24 0 -46 8q-22 8 -45 22q-17 11 -33 17.5q-16 6.5 -29 6.5q-12 0 -23 -2.5q-11 -2.5 -23.5 -8.5q-12.5 -6 -29.5 -16q-17 -10 -41 -25z" />
<glyph unicode="&#160;" horiz-adv-x="230" />
<glyph unicode="&#164;" horiz-adv-x="580" d="M6 391h90v308q27 1 52 2.5q25 1.5 50.5 2.5q25.5 1 52.5 1.5q27 0.5 60 0.5q131 0 201.5 -52q70.5 -52 70.5 -168q0 -68 -25 -109.5q-25 -41.5 -65 -64.5q-40 -23 -90.5 -31q-50.5 -8 -100.5 -8h-50v-65h276v-108h-276v-100h-156v100h-90v108h90v70h-90zM300 572q-16 0 -25.5 0q-9.5 0 -22.5 -1l0 -181q7 0 12 -0.5q5 -0.5 9.5 -0.5q4.5 0 10.5 0q6 0 16 0q62 0 94 21q32 21 32 76q0 42 -28.5 64t-97.5 22z" />
<glyph unicode="&#168;" horiz-adv-x="495" d="M42 661q0 35 25 59.5q25 24.5 61 24.5q18 0 34 -6.5q16 -6.5 27.5 -18q11.5 -11.5 18.5 -27q7 -15.5 7 -32.5q0 -17 -7 -32.5q-7 -15.5 -18.5 -27q-11.5 -11.5 -27.5 -18q-16 -6.5 -34 -6.5q-36 0 -61 24.5q-25 24.5 -25 59.5zt0 0zM247 661q0 35 25 59.5q25 24.5 62 24.5q18 0 34 -6.5q16 -6.5 27.5 -18q11.5 -11.5 18.5 -27q7 -15.5 7 -32.5q0 -17 -7 -32.5q-7 -15.5 -18.5 -27q-11.5 -11.5 -27.5 -18q-16 -6.5 -34 -6.5q-37 0 -62 24.5t-25 59.5z" />
<glyph unicode="&#169;" horiz-adv-x="666" d="M138 283q0 -92 51 -147q51 -55 141 -55q89 0 134.5 55q45.5 55 45.5 147q0 46 -12 83.5q-12 37.5 -35 64.5q-23 27 -58 41.5q-35 14.5 -81 14.5q-42 0 -76.5 -15q-34.5 -15 -59 -42q-24.5 -27 -37.5 -64.5q-13 -37.5 -13 -82.5zt0 0zM45 282q0 66 20 120.5q20 54.5 57 92.5q37 38 89.5 59q52.5 21 117.5 21q64 0 116.5 -21q52.5 -21 90 -59q37.5 -38 58 -92.5q20.5 -54.5 20.5 -120.5q0 -66 -20.5 -119.5q-20.5 -53.5 -58 -91q-37.5 -37.5 -90 -58q-52.5 -20.5 -116.5 -20.5q-65 0 -117.5 20.5q-52.5 20.5 -89.5 58q-37 37.5 -57 91q-20 53.5 -20 119.5zt0 0zM436 152q-17 -11 -43 -20q-26 -9 -57 -9q-32 0 -59.5 10q-27.5 10 -48 30q-20.5 20 -32.5 50q-12 30 -12 70q0 35 11.5 65q11.5 30 32 51.5q20.5 21.5 48 33.5q27.5 12 60.5 12q22 0 37 -2q15 -2 26 -5q11 -3 19.5 -7q8.5 -4 17.5 -7l-4 -97q-31 35 -89 35q-27 0 -48.5 -19.5q-21.5 -19.5 -21.5 -61.5q0 -36 18.5 -58q18.5 -22 47.5 -22q22 0 39 5.5q17 5.5 30 12.5q14 8 26 18z" />
<glyph unicode="&#171;" horiz-adv-x="622" d="M594 458l-156 -184l165 -168l-95 -77l-224 245l209 258zM349 458l-156 -184l165 -168l-95 -77l-224 245l209 258z" />
<glyph unicode="&#174;" horiz-adv-x="364" d="M7 537q0 40 12.5 72.5q12.5 32.5 35 54.5q22.5 22 53 34q30.5 12 66.5 12q36 0 67 -11.5q31 -11.5 54 -33.5q23 -22 36 -54.5q13 -32.5 13 -73.5q0 -37 -13 -68.5q-13 -31.5 -35.5 -54q-22.5 -22.5 -54 -35q-31.5 -12.5 -67.5 -12.5q-37 0 -68 12.5q-31 12.5 -53 35q-22 22.5 -34 53.5q-12 31 -12 69zt0 0zM71 537q0 -52 27.5 -82q27.5 -30 76.5 -30q49 0 76.5 30q27.5 30 27.5 82q0 54 -27.5 84.5q-27.5 30.5 -76.5 30.5q-49 0 -76.5 -30.5q-27.5 -30.5 -27.5 -84.5zt0 0zM192 458l-22 54h-9v-54h-48v162q19 3 56 3q30 0 51 -11.5q21 -11.5 21 -40.5q0 -20 -9.5 -32.5q-9.5 -12.5 -18.5 -17.5l29 -63zM161 550h6q12 0 18 3q6 3 6 14q0 8 -6 10.5q-6 2.5 -16 2.5l-8 0z" />
<glyph unicode="&#176;" horiz-adv-x="378" d="M32 565q0 35 13 66q13 31 35.5 54q22.5 23 53 36q30.5 13 65.5 13q36 0 67 -13q31 -13 54.5 -36q23.5 -23 36.5 -54q13 -31 13 -66q0 -34 -13.5 -64.5q-13.5 -30.5 -36.5 -53q-23 -22.5 -54.5 -36q-31.5 -13.5 -67.5 -13.5q-35 0 -65.5 13.5q-30.5 13.5 -53 36q-22.5 22.5 -35 53q-12.5 30.5 -12.5 64.5zt0 0zM148 564q0 -25 14.5 -42q14.5 -17 37.5 -17q23 0 38 17q15 17 15 42q0 26 -15 44.5q-15 18.5 -38 18.5q-23 0 -37.5 -18.5t-14.5 -44.5z" />
<glyph unicode="&#180;" horiz-adv-x="489" d="M206 780h185l-163 -196l-114 0z" />
<glyph unicode="&#182;" horiz-adv-x="665" d="M651 592h-80v-800h-141v800h-33v-800h-140v422q-69 3 -118 21.5q-49 18.5 -80 50q-31 31.5 -45 75.5q-14 44 -14 99q0 63 19.5 108q19.5 45 56 74.5q36.5 29.5 88 43.5q51.5 14 116.5 14l371 0z" />
<glyph unicode="&#187;" horiz-adv-x="622" d="M129 532l209 -258l-224 -245l-95 77l165 168l-156 184zM374 532l209 -258l-224 -245l-95 77l165 168l-156 184z" />
<glyph unicode="&#1025;" horiz-adv-x="565" d="M76 0v700h463v-139h-306v-137h260v-138h-260v-147h318v-139zM121 813q0 18 7 33.5q7 15.5 19 27q12 11.5 28 18.5q16 7 34 7q18 0 34 -7q16 -7 28 -18.5q12 -11.5 19 -27q7 -15.5 7 -33.5q0 -18 -7 -33.5q-7 -15.5 -19 -27q-12 -11.5 -28 -18q-16 -6.5 -34 -6.5q-18 0 -34 6.5q-16 6.5 -28 18q-12 11.5 -19 27q-7 15.5 -7 33.5zt0 0zM330 813q0 18 7 33.5q7 15.5 19 27q12 11.5 28 18.5q16 7 34 7q18 0 34 -7q16 -7 28 -18.5q12 -11.5 19 -27q7 -15.5 7 -33.5q0 -18 -7 -33.5q-7 -15.5 -19 -27q-12 -11.5 -28 -18q-16 -6.5 -34 -6.5q-18 0 -34 6.5q-16 6.5 -28 18q-12 11.5 -19 27t-7 33.5z" />
<glyph unicode="&#1026;" horiz-adv-x="766" d="M725 128q1 -89 -14.5 -151.5q-15.5 -62.5 -43.5 -102.5q-28 -40 -66 -59.5q-38 -19.5 -82 -21.5q-32 -2 -56 0q-24 2 -32 4l-20 136q20 -6 36 -7q16 -1 36 0q21 1 36 9.5q15 8.5 25 28q10 19.5 16 52q6 32.5 8 80.5l0 49q0 41 -3 76q-3 35 -12.5 60.5q-9.5 25.5 -27 40q-17.5 14.5 -47.5 13.5q-35 -1 -66.5 -15.5q-31.5 -14.5 -59.5 -38.5l0 -281h-159v577h-41q-35 0 -65 -3q-30 -3 -75 -13l0 139h589v-138q-33 8 -75.5 11.5q-42.5 3.5 -84.5 3.5h-89v-158q34 22 74 34.5q40 12.5 85 12.5q69 0 110.5 -21.5q41.5 -21.5 64.5 -60q23 -38.5 30.5 -90.5q7.5 -52 8.5 -113z" />
<glyph unicode="&#1027;" horiz-adv-x="513" d="M526 700v-154q-11 6 -40.5 10q-29.5 4 -64.5 6.5q-35 2.5 -69 4q-34 1.5 -54 1.5h-65v-568h-157v700zM307 927h185l-163 -196l-114 0z" />
<glyph unicode="&#1028;" horiz-adv-x="617" d="M199 291q6 -77 51 -121q45 -44 136 -44q46 0 81.5 8q35.5 8 61.5 19q29 11 52 27l0 -146q-45 -22 -95.5 -32.5q-50.5 -10.5 -116.5 -10.5q-87 0 -149 24.5q-62 24.5 -102 70q-40 45.5 -59 111.5q-19 66 -19 150q0 81 22 148q22 67 65 115q43 48 107 74.5q64 26.5 149 26.5q57 0 103 -8.5q46 -8.5 96 -30.5l-19 -167q-20 22 -42.5 35.5q-22.5 13.5 -46 20.5q-23.5 7 -46 9.5q-22.5 2.5 -40.5 2.5q-32 0 -62.5 -8q-30.5 -8 -55.5 -25.5q-25 -17.5 -43 -46q-18 -28.5 -24 -68.5l298 0l0 -134z" />
<glyph unicode="&#1029;" horiz-adv-x="545" d="M463 510q-45 32 -91.5 46q-46.5 14 -88.5 14q-40 0 -66.5 -15.5q-26.5 -15.5 -26.5 -48.5q0 -35 35 -54.5q35 -19.5 95 -40.5q37 -13 72.5 -29.5q35.5 -16.5 62.5 -41.5q27 -25 43.5 -60q16.5 -35 16.5 -85q0 -93 -63 -148.5q-63 -55.5 -185 -55.5q-78 0 -134 11q-56 11 -94 25l0 186q49 -40 100.5 -64.5q51.5 -24.5 120.5 -24.5q42 0 67.5 17q25.5 17 25.5 43q0 36 -39 60.5q-39 24.5 -104 46.5q-86 29 -133 80q-47 51 -47 138q0 91 65.5 146q65.5 55 190.5 55q38 0 74 -5q36 -5 64 -11q33 -7 60 -15z" />
<glyph unicode="&#1030;" horiz-adv-x="309" d="M233 0h-157v700l157 0z" />
<glyph unicode="&#1031;" horiz-adv-x="309" d="M233 0h-157v700h157zM-36 813q0 18 7 33.5q7 15.5 19 27q12 11.5 28 18.5q16 7 34 7q18 0 34 -7q16 -7 28 -18.5q12 -11.5 19 -27q7 -15.5 7 -33.5q0 -18 -7 -33.5q-7 -15.5 -19 -27q-12 -11.5 -28 -18q-16 -6.5 -34 -6.5q-18 0 -34 6.5q-16 6.5 -28 18q-12 11.5 -19 27q-7 15.5 -7 33.5zt0 0zM173 813q0 18 7 33.5q7 15.5 19 27q12 11.5 28 18.5q16 7 34 7q18 0 34 -7q16 -7 28 -18.5q12 -11.5 19 -27q7 -15.5 7 -33.5q0 -18 -7 -33.5q-7 -15.5 -19 -27q-12 -11.5 -28 -18q-16 -6.5 -34 -6.5q-18 0 -34 6.5q-16 6.5 -28 18q-12 11.5 -19 27t-7 33.5z" />
<glyph unicode="&#1032;" horiz-adv-x="397" d="M321 280q0 -83 -14 -138.5q-14 -55.5 -41 -89q-27 -33.5 -68 -47.5q-41 -14 -95 -14q-12 0 -27 1q-15 1 -29.5 3q-14.5 2 -26.5 4q-12 2 -18 4l-10 152q23 -14 44.5 -19q21.5 -5 48.5 -5q38 0 59 30.5q21 30.5 21 103.5v435l156 0z" />
<glyph unicode="&#1033;" horiz-adv-x="959" d="M302 560q-1 -20 -2 -61.5q-1 -41.5 -3.5 -88.5q-2.5 -47 -5.5 -91.5q-3 -44.5 -8 -70.5q-10 -54 -28 -99.5q-18 -45.5 -47 -80q-29 -34.5 -71 -56q-42 -21.5 -100 -25.5l-47 150q23 0 35.5 2.5q12.5 2.5 26.5 8.5q29 12 54.5 49.5q25.5 37.5 35.5 111.5q4 28 6.5 56.5q2.5 28.5 4 70.5q1.5 42 2.5 105q1 63 2 159l450 0v-268h58q61 0 111.5 -12q50.5 -12 86.5 -37.5q36 -25.5 56 -67q20 -41.5 20 -99.5q0 -63 -21 -105q-21 -42 -57 -67.5q-36 -25.5 -83.5 -36.5q-47.5 -11 -101.5 -11q-56 0 -111 1q-55 1 -114 3l0 560zM607 129q13 -1 27.5 -1q14.5 0 31.5 0q24 0 45.5 4q21.5 4 37 13q15.5 9 25 24.5q9.5 15.5 9.5 39.5q0 24 -9.5 40.5q-9.5 16.5 -25 26.5q-15.5 10 -37 14.5q-21.5 4.5 -45.5 4.5q-16 0 -31 0q-15 0 -28 -1z" />
<glyph unicode="&#1034;" horiz-adv-x="1001" d="M649 432h58q61 0 111.5 -12q50.5 -12 86.5 -37.5q36 -25.5 56 -67q20 -41.5 20 -99.5q0 -63 -21 -105q-21 -42 -57 -67.5q-36 -25.5 -83.5 -36.5q-47.5 -11 -101.5 -11q-56 0 -111 1q-55 1 -114 3l0 293h-261v-293h-156v700h156v-270h261v270h156zM649 129q13 -1 27.5 -1q14.5 0 31.5 0q24 0 45 4q21 4 37 13q16 9 25 24.5q9 15.5 9 39.5q0 48 -34 67q-34 19 -82 19q-16 0 -30.5 0q-14.5 0 -28.5 -1z" />
<glyph unicode="&#1035;" horiz-adv-x="773" d="M568 0v166q0 51 -5 83q-5 32 -15.5 50q-10.5 18 -27.5 24.5q-17 6.5 -42 6.5q-31 0 -65.5 -12q-34.5 -12 -60.5 -37l0 -281h-159v577h-41q-35 0 -65 -3q-30 -3 -75 -13l0 139h589v-138q-33 8 -75.5 11.5q-42.5 3.5 -84.5 3.5h-89v-158q34 22 74 34.5q40 12.5 85 12.5q57 0 98 -13.5q41 -13.5 66.5 -46q25.5 -32.5 37.5 -87.5q12 -55 12 -138l0 -181z" />
<glyph unicode="&#1036;" horiz-adv-x="624" d="M284 254q-14 20 -23 30.5q-9 10.5 -15 10.5h-14v-295h-156v700h156v-280h16q8 0 22.5 20q14.5 20 34.5 49l144 211h177l-249 -337l273 -363h-190zM347 927h185l-163 -196l-114 0z" />
<glyph unicode="&#1038;" horiz-adv-x="586" d="M-10 700h180l162 -372l117 372h161q-25 -76 -46 -139.5q-21 -63.5 -41 -121q-20 -57.5 -39.5 -110.5q-19.5 -53 -40.5 -108q-26 -66 -53.5 -110q-27.5 -44 -60.5 -70.5q-33 -26.5 -73 -38q-40 -11.5 -89 -11.5q-23 0 -42.5 2q-19.5 2 -33.5 5q-17 3 -31 7l-8 166q27 -20 58 -29.5q31 -9.5 51 -9.5q23 0 45.5 6q22.5 6 42.5 32zM173 953q2 -6 12 -20.5q10 -14.5 26 -30.5q16 -16 38.5 -28q22.5 -12 50.5 -12q30 0 54.5 14q24.5 14 41.5 31q20 19 36 45l90 -79q-20 -39 -52 -69q-27 -26 -69 -47.5q-42 -21.5 -101 -21.5q-59 0 -100 21.5q-41 21.5 -67 47.5q-31 30 -49 69z" />
<glyph unicode="&#1039;" horiz-adv-x="725" d="M440 0l-20 -190h-120l-14 190h-210v700h156v-563h261v563h156l0 -700z" />
<glyph unicode="&#1040;" horiz-adv-x="636" d="M425 134h-231l-50 -134h-154l277 700h103l276 -700h-173zM384 266l-68 209h-4l-74 -209z" />
<glyph unicode="&#1041;" horiz-adv-x="629" d="M232 439q20 2 42.5 2q22.5 0 41.5 0q59 0 109 -12q50 -12 86.5 -37.5q36.5 -25.5 57 -66q20.5 -40.5 20.5 -97.5q0 -44 -12.5 -85.5q-12.5 -41.5 -42 -74.5q-29.5 -33 -79 -53q-49.5 -20 -122.5 -20q-44 0 -88.5 0.5q-44.5 0.5 -89.5 2.5q-7 0 -17.5 0.5q-10.5 0.5 -22 1q-11.5 0.5 -22 0.5q-10.5 0 -17.5 0l0 700h471v-152q-34 10 -95.5 15q-61.5 5 -144.5 5h-75zM232 128q26 -3 44.5 -3q18.5 0 36.5 0q60 0 88.5 25.5q28.5 25.5 28.5 70.5q0 81 -121 81q-25 0 -42 -0.5q-17 -0.5 -35 -2.5z" />
<glyph unicode="&#1042;" horiz-adv-x="649" d="M76 700q46 1 80.5 2q34.5 1 61.5 2q27 1 50 1q23 0 47 0q74 0 125 -12.5q51 -12.5 83 -36.5q32 -24 46 -58.5q14 -34.5 14 -77.5q0 -46 -23 -84.5q-23 -38.5 -59 -61.5q21 -8 40.5 -21.5q19.5 -13.5 34.5 -33q15 -19.5 24 -44.5q9 -25 9 -57q0 -42 -13 -82.5q-13 -40.5 -45 -72q-32 -31.5 -86 -51q-54 -19.5 -137 -19.5q-64 0 -123 1.5q-59 1.5 -129 5.5zM232 129q20 -2 40.5 -3q20.5 -1 41.5 -1q73 0 101 24q28 24 28 65q0 17 -6 30.5q-6 13.5 -21 23.5q-15 10 -39.5 15q-24.5 5 -60.5 5h-84zM292 418q73 0 100.5 22q27.5 22 27.5 64q0 14 -5 26.5q-5 12.5 -17 22q-12 9.5 -33 15q-21 5.5 -52 5.5q-10 0 -21.5 0q-11.5 0 -23 -0.5q-11.5 -0.5 -21 -1.5q-9.5 -1 -15.5 -2l0 -151z" />
<glyph unicode="&#1043;" horiz-adv-x="513" d="M526 700v-154q-11 6 -40.5 10q-29.5 4 -64.5 6.5q-35 2.5 -69 4q-34 1.5 -54 1.5h-65v-568h-157l0 700z" />
<glyph unicode="&#1044;" horiz-adv-x="737" d="M562 -167l-11 167h-392l-11 -167h-121l-34 305h109q9 17 22.5 46.5q13.5 29.5 26 79q12.5 49.5 22.5 120q10 70.5 12 171.5l3 145h426v-562h100l-30 -305zM458 565h-133q-4 -56 -8 -109q-2 -23 -4.5 -47q-2.5 -24 -5 -45.5q-2.5 -21.5 -6 -42.5q-3.5 -21 -6.5 -37q-6 -27 -11.5 -47.5q-5.5 -20.5 -11.5 -37.5q-6 -17 -12.5 -31.5q-6.5 -14.5 -13.5 -29.5l212 0z" />
<glyph unicode="&#1045;" horiz-adv-x="565" d="M76 0v700h463v-139h-306v-137h260v-138h-260v-147h318l0 -139z" />
<glyph unicode="&#1046;" horiz-adv-x="945" d="M394 296h-8q-9 0 -21 -18.5q-12 -18.5 -29 -43.5l-163 -234h-193l269 362l-251 338h189l131 -196q24 -35 39.5 -60q15.5 -25 26.5 -25h10v281h157v-281h13q11 0 28.5 26.5q17.5 26.5 40.5 60.5l125 194h189l-250 -339l268 -361h-193l-154 225q-22 32 -34.5 51.5q-12.5 19.5 -20.5 19.5h-12v-296l-157 0z" />
<glyph unicode="&#1047;" horiz-adv-x="553" d="M27 680q28 9 62 16q29 6 68 11q39 5 85 5q67 0 115.5 -14q48.5 -14 79 -39.5q30.5 -25.5 45 -60q14.5 -34.5 14.5 -74.5q0 -58 -23.5 -94q-23.5 -36 -58.5 -59q18 -8 36 -21q18 -13 32.5 -32q14.5 -19 23.5 -45q9 -26 9 -61q0 -50 -17.5 -91q-17.5 -41 -53.5 -70q-36 -29 -91.5 -45q-55.5 -16 -130.5 -16q-26 0 -54 3q-28 3 -55.5 8q-27.5 5 -52 11q-24.5 6 -43.5 12l0 170q24 -20 56 -35q27 -14 64.5 -24.5q37.5 -10.5 85.5 -10.5q67 0 98.5 24.5q31.5 24.5 31.5 58.5q0 42 -34.5 62q-34.5 20 -109.5 20q-13 0 -48.5 -1q-35.5 -1 -74.5 -4l0 144h120q59 0 92.5 19q33.5 19 33.5 61q0 29 -23 47.5q-23 18.5 -84 18.5q-58 0 -102 -14.5q-44 -14.5 -84 -38.5z" />
<glyph unicode="&#1048;" horiz-adv-x="739" d="M76 0v699h156v-320l-15 -140h4l299 460h143v-699h-156v305l13 138h-4l-299 -443z" />
<glyph unicode="&#1049;" horiz-adv-x="739" d="M76 0v699h156v-320l-15 -140h4l299 460h143v-699h-156v305l13 138h-4l-299 -443zM250 953q2 -6 12 -20.5q10 -14.5 26 -30.5q16 -16 38.5 -28q22.5 -12 50.5 -12q30 0 54.5 14q24.5 14 41.5 31q20 19 36 45l90 -79q-20 -39 -52 -69q-27 -26 -69 -47.5q-42 -21.5 -101 -21.5q-59 0 -100 21.5q-41 21.5 -67 47.5q-31 30 -49 69z" />
<glyph unicode="&#1050;" horiz-adv-x="624" d="M284 254q-14 20 -23 30.5q-9 10.5 -15 10.5h-14v-295h-156v700h156v-280h16q8 0 22.5 20q14.5 20 34.5 49l144 211h177l-249 -337l273 -363l-190 0z" />
<glyph unicode="&#1051;" horiz-adv-x="700" d="M468 1v559h-166q-1 -20 -2 -61.5q-1 -41.5 -3.5 -88.5q-2.5 -47 -5.5 -91.5q-3 -44.5 -8 -70.5q-10 -54 -28 -99.5q-18 -45.5 -47 -80q-29 -34.5 -71 -56q-42 -21.5 -100 -25.5l-47 145q23 0 35.5 4q12.5 4 26.5 10q29 12 54.5 50.5q25.5 38.5 35.5 112.5q4 28 6.5 56.5q2.5 28.5 4 70.5q1.5 42 2.5 105q1 63 2 159l467 0l0 -699z" />
<glyph unicode="&#1052;" horiz-adv-x="910" d="M406 -8l-167 487h-6v-171l-24 -308h-159l82 700h161l164 -474l168 474h161l74 -700h-159l-23 308v170h-4l-170 -486z" />
<glyph unicode="&#1053;" horiz-adv-x="725" d="M493 0v283h-261v-283h-156v700h156v-279h261v279h156l0 -700z" />
<glyph unicode="&#1054;" horiz-adv-x="702" d="M40 358q0 81 22 147q22 66 63.5 112.5q41.5 46.5 100 72q58.5 25.5 131.5 25.5q86 0 144.5 -25.5q58.5 -25.5 94 -72q35.5 -46.5 51 -112.5q15.5 -66 15.5 -147q0 -79 -18 -146.5q-18 -67.5 -56 -116.5q-38 -49 -97 -77q-59 -28 -142 -28q-83 0 -141.5 27q-58.5 27 -96 76q-37.5 49 -54.5 116.5q-17 67.5 -17 148.5zt0 0zM197 361q0 -52 8 -95.5q8 -43.5 26.5 -75q18.5 -31.5 48 -49.5q29.5 -18 72.5 -18q42 0 71 17.5q29 17.5 47.5 48.5q18.5 31 26.5 73.5q8 42.5 8 92.5q0 51 -8.5 93q-8.5 42 -26.5 71q-18 29 -47.5 45q-29.5 16 -71.5 16q-38 0 -66.5 -16q-28.5 -16 -48 -45.5q-19.5 -29.5 -29.5 -69.5t-10 -88z" />
<glyph unicode="&#1055;" horiz-adv-x="725" d="M493 0v563h-261v-563h-156v700h573l0 -700z" />
<glyph unicode="&#1056;" horiz-adv-x="583" d="M232 0h-156v699q55 2 107.5 4.5q52.5 2.5 117.5 2.5q65 0 116 -13q51 -13 85.5 -42q34.5 -29 52.5 -75q18 -46 18 -112q0 -71 -23.5 -119.5q-23.5 -48.5 -61.5 -78.5q-38 -30 -86.5 -43q-48.5 -13 -98.5 -13q-14 0 -24 0q-10 0 -17.5 0q-7.5 0 -14.5 0.5q-7 0.5 -15 1.5zM290 572q-16 0 -30.5 0q-14.5 0 -27.5 -1l0 -219q14 -2 26 -2.5q12 -0.5 32 -0.5q62 0 94 29q32 29 32 85q0 50 -29 79.5t-97 29.5z" />
<glyph unicode="&#1057;" horiz-adv-x="628" d="M598 45q-45 -22 -98.5 -38q-53.5 -16 -119.5 -16q-168 0 -251.5 88.5q-83.5 88.5 -83.5 261.5q0 83 24.5 151.5q24.5 68.5 69.5 117q45 48.5 109.5 75.5q64.5 27 145.5 27q31 0 56.5 -2q25.5 -2 49 -7q23.5 -5 46 -13q22.5 -8 47.5 -20l-20 -179q-36 48 -80.5 65.5q-44.5 17.5 -93.5 17.5q-89 0 -143 -58.5q-54 -58.5 -54 -170.5q0 -108 52 -164q52 -56 143 -56q45 0 82.5 12.5q37.5 12.5 63.5 27.5q31 18 55 40z" />
<glyph unicode="&#1058;" horiz-adv-x="587" d="M-10 700h607v-158q-14 7 -36 12q-22 5 -47 8q-25 3 -50 4.5q-25 1.5 -44 1.5h-48v-568h-157v568h-48q-20 0 -44.5 -1.5q-24.5 -1.5 -49.5 -4.5q-25 -3 -47 -8q-22 -5 -36 -12z" />
<glyph unicode="&#1059;" horiz-adv-x="586" d="M-10 700h180l162 -372l117 372h161q-25 -76 -46 -139.5q-21 -63.5 -41 -121q-20 -57.5 -39.5 -110.5q-19.5 -53 -40.5 -108q-26 -66 -53.5 -110q-27.5 -44 -60.5 -70.5q-33 -26.5 -73 -38q-40 -11.5 -89 -11.5q-23 0 -42.5 2q-19.5 2 -33.5 5q-17 3 -31 7l-8 166q27 -20 58 -29.5q31 -9.5 51 -9.5q23 0 45.5 6q22.5 6 42.5 32z" />
<glyph unicode="&#1060;" horiz-adv-x="813" d="M485 739v-65q4 0 7.5 -0.5q3.5 -0.5 8.5 -0.5q54 -4 104.5 -22.5q50.5 -18.5 90 -54.5q39.5 -36 63.5 -91q24 -55 24 -130q0 -66 -19.5 -117.5q-19.5 -51.5 -54 -88.5q-34.5 -37 -83 -58.5q-48.5 -21.5 -106.5 -28.5q-12 -2 -19.5 -2.5q-7.5 -0.5 -15.5 -0.5l0 -84h-156v84q-8 0 -21 1q-13 1 -24 3q-53 6 -99.5 28q-46.5 22 -81 58q-34.5 36 -54 87q-19.5 51 -19.5 116q0 76 25 131q25 55 65 91q40 36 91 55q51 19 102 24q4 1 8 1q4 0 9 0l0 65zM329 537q-63 -6 -103 -47q-40 -41 -40 -116q0 -40 11 -68q11 -28 29 -47q18 -19 39.5 -29q21.5 -10 42.5 -14q5 -1 10.5 -2q5.5 -1 10.5 -1zM485 212q5 0 8 1q3 1 9 2q23 3 45.5 13.5q22.5 10.5 40 29.5q17.5 19 28.5 47.5q11 28.5 11 68.5q0 79 -40.5 118q-40.5 39 -101.5 45z" />
<glyph unicode="&#1061;" horiz-adv-x="613" d="M216 354l-215 345h180l133 -242l132 242h163l-206 -347l220 -352h-176l-140 246l-143 -246l-174 0z" />
<glyph unicode="&#1062;" horiz-adv-x="779" d="M76 700h156v-562h260v562h157v-562h105l-31 -305h-120l-13 167l-514 0z" />
<glyph unicode="&#1063;" horiz-adv-x="656" d="M424 0v246q-35 -18 -72.5 -29.5q-37.5 -11.5 -81.5 -11.5q-54 0 -98.5 14q-44.5 14 -76 46.5q-31.5 32.5 -48.5 85.5q-17 53 -17 130v219h157v-206q0 -47 8.5 -75.5q8.5 -28.5 23.5 -44.5q15 -16 36 -21.5q21 -5.5 46 -5.5q21 0 41 5q20 5 36.5 11.5q16.5 6.5 28.5 13q12 6.5 17 9.5l0 314h156l0 -700z" />
<glyph unicode="&#1064;" horiz-adv-x="1003" d="M76 0v700h156v-562h192v562h156v-562h191v562h156l0 -700z" />
<glyph unicode="&#1065;" horiz-adv-x="1057" d="M76 0v700h156v-562h191v562h156v-562h192v562h156v-562h106l-30 -305h-120l-13 167z" />
<glyph unicode="&#1066;" horiz-adv-x="676" d="M306 128q13 -1 27 -1q14 0 31 0q62 0 94 27.5q32 27.5 32 81.5q0 46 -32 70.5q-32 24.5 -94 24.5q-21 0 -34 0q-13 0 -24 -1zM149 569h-62q-18 0 -37.5 -2q-19.5 -2 -38 -5q-18.5 -3 -35 -7q-16.5 -4 -26.5 -8l0 153h356v-232q12 1 26.5 1q14.5 0 30.5 0q55 0 106 -9q51 -9 90.5 -34.5q39.5 -25.5 63 -70.5q23.5 -45 23.5 -117q0 -62 -20 -108q-20 -46 -56 -76q-36 -30 -86 -44.5q-50 -14.5 -110 -14.5q-52 0 -106 1.5q-54 1.5 -119 3.5z" />
<glyph unicode="&#1067;" horiz-adv-x="864" d="M232 469q12 1 27 1q15 0 31 0q55 0 106 -9q51 -9 90.5 -34.5q39.5 -25.5 63 -70.5q23.5 -45 23.5 -117q0 -62 -20 -108q-20 -46 -56 -76q-36 -30 -86 -44.5q-50 -14.5 -110 -14.5q-53 0 -106.5 1.5q-53.5 1.5 -118.5 3.5l0 699h156zM232 129q13 -1 27.5 -1q14.5 0 31.5 0q61 0 93.5 27.5q32.5 27.5 32.5 81.5q0 46 -32.5 70.5q-32.5 24.5 -93.5 24.5q-23 0 -36 0q-13 0 -23 -1zM788 0h-156v700l156 0z" />
<glyph unicode="&#1068;" horiz-adv-x="603" d="M232 469q12 1 27 1q15 0 30 0q55 0 106.5 -9q51.5 -9 91 -34.5q39.5 -25.5 63 -70.5q23.5 -45 23.5 -117q0 -62 -20 -108q-20 -46 -56 -76q-36 -30 -86 -44.5q-50 -14.5 -110 -14.5q-53 0 -106.5 1.5q-53.5 1.5 -118.5 3.5l0 699h156zM232 129q13 -1 27.5 -1q14.5 0 30.5 0q62 0 94 27.5q32 27.5 32 81.5q0 46 -32 70.5q-32 24.5 -94 24.5q-15 0 -31 0q-16 0 -27 -1z" />
<glyph unicode="&#1069;" horiz-adv-x="614" d="M108 426h303q-6 41 -22 68.5q-16 27.5 -39 44q-23 16.5 -52.5 23.5q-29.5 7 -62.5 7q-22 0 -43.5 -2q-21.5 -2 -44 -9q-22.5 -7 -47 -21q-24.5 -14 -51.5 -37l-13 167q47 19 99.5 32q52.5 13 100.5 13q174 0 256 -90.5q82 -90.5 82 -254.5q0 -84 -19.5 -153q-19.5 -69 -60 -118.5q-40.5 -49.5 -101.5 -77q-61 -27.5 -145 -27.5q-67 0 -121.5 11.5q-54.5 11.5 -96.5 28.5l0 167q23 -20 54 -36q26 -14 63 -24.5q37 -10.5 84 -10.5q45 0 77 11.5q32 11.5 53.5 32q21.5 20.5 33 49q11.5 28.5 15.5 63.5l-302 0z" />
<glyph unicode="&#1070;" horiz-adv-x="980" d="M233 421h106q8 67 32 121q24 54 62.5 92.5q38.5 38.5 91.5 59.5q53 21 118 21q86 0 143.5 -26.5q57.5 -26.5 91.5 -74q34 -47.5 48 -113q14 -65.5 14 -143.5q0 -77 -18 -144.5q-18 -67.5 -55.5 -117q-37.5 -49.5 -94.5 -78q-57 -28.5 -136 -28.5q-73 0 -126 21q-53 21 -89 59.5q-36 38.5 -55.5 92.5q-19.5 54 -26.5 120l-106 0v-283h-157v700h157zM492 359q0 -233 144 -233q40 0 68 18q28 18 45.5 49.5q17.5 31.5 25.5 74q8 42.5 8 90.5q0 114 -33 166.5q-33 52.5 -111 52.5q-37 0 -64.5 -17q-27.5 -17 -46 -46.5q-18.5 -29.5 -27.5 -69t-9 -85.5z" />
<glyph unicode="&#1071;" horiz-adv-x="653" d="M0 0l161 275q-48 27 -77 78q-29 51 -29 113q0 63 20.5 108q20.5 45 57.5 74q37 29 89 42.5q52 13.5 115 13.5q52 0 104 -1.5q52 -1.5 120 -3.5l0 -699h-156v227q-10 -1 -26 -2.5q-16 -1.5 -31 -1.5q-14 0 -28.5 0.5q-14.5 0.5 -23.5 1.5l-116 -225zM405 573q-15 1 -33 1q-18 0 -35 0q-58 0 -91 -24.5q-33 -24.5 -33 -78.5q0 -59 35 -83q35 -24 92 -24q21 0 35 1q14 1 30 3z" />
<glyph unicode="&#1072;" horiz-adv-x="585" d="M391 -7q-2 9 -5 20.5q-3 11.5 -5 22.5q-2 11 -4 21q-2 10 -3 16q-11 -15 -28.5 -30.5q-17.5 -15.5 -39.5 -27.5q-22 -12 -46.5 -20q-24.5 -8 -49.5 -8q-92 0 -136 46.5q-44 46.5 -44 124.5q0 91 66.5 140q66.5 49 187.5 49q26 0 48 0q22 0 27 -1q-2 18 -7.5 33q-5.5 15 -17.5 26.5q-12 11.5 -30.5 18q-18.5 6.5 -46.5 6.5q-46 0 -89 -11q-43 -11 -72 -36l-11 150q24 7 54 13q26 5 61 9q35 4 79 4q67 0 111 -15.5q44 -15.5 69.5 -47q25.5 -31.5 35.5 -79.5q10 -48 10 -114v-126q0 -35 4 -64q4 -29 9 -52q6 -26 14 -48zM360 230h-65q-63 0 -94.5 -15.5q-31.5 -15.5 -31.5 -51.5q0 -53 58 -53q21 0 41.5 7q20.5 7 38 18q17.5 11 31.5 25q14 14 23 29z" />
<glyph unicode="&#1073;" horiz-adv-x="615" d="M553 649q-32 -7 -64 -11.5q-32 -4.5 -60.5 -8q-28.5 -3.5 -53 -6.5q-24.5 -3 -40.5 -8q-33 -10 -58.5 -23q-25.5 -13 -43.5 -31.5q-18 -18.5 -30 -43.5q-12 -25 -18 -60q32 26 75.5 46q43.5 20 87.5 20q49 0 90 -16q41 -16 71 -48q30 -32 46.5 -79.5q16.5 -47.5 16.5 -111.5q0 -57 -16.5 -108q-16.5 -51 -51 -89.5q-34.5 -38.5 -86.5 -61q-52 -22.5 -122 -22.5q-68 0 -117 23q-49 23 -81 67q-32 44 -47 107.5q-15 63.5 -15 144.5q0 121 27.5 199.5q27.5 78.5 74.5 126q47 47.5 109 71q62 23.5 132 34.5q51 8 90 16.5q39 8.5 56 25.5zM316 396q-38 0 -75.5 -16.5q-37.5 -16.5 -60.5 -45.5q0 -3 -0.5 -16.5q-0.5 -13.5 -0.5 -28.5q0 -94 33.5 -137q33.5 -43 91.5 -43q57 0 89.5 40.5q32.5 40.5 32.5 106.5q0 72 -28 106t-82 34z" />
<glyph unicode="&#1074;" horiz-adv-x="582" d="M67 549q29 1 64 3q30 2 71.5 3q41.5 1 92.5 1q58 0 99 -10.5q41 -10.5 66.5 -29q25.5 -18.5 37 -45q11.5 -26.5 11.5 -58.5q0 -42 -20 -72q-20 -30 -55 -48q18 -4 35.5 -14q17.5 -10 30.5 -26.5q13 -16.5 21 -39.5q8 -23 8 -52q0 -32 -12 -62q-12 -30 -40 -53.5q-28 -23.5 -74.5 -37.5q-46.5 -14 -114.5 -14q-33 0 -67.5 1q-34.5 1 -65 2.5q-30.5 1.5 -54 2.5q-23.5 1 -34.5 2zM209 116q17 -2 34.5 -3q17.5 -1 34.5 -1q52 0 76.5 16.5q24.5 16.5 24.5 45.5q0 24 -21 38.5q-21 14.5 -77 14.5q-22 0 -38 0q-16 0 -34 -2zM275 331q45 0 64 15q19 15 19 42q0 23 -16.5 37.5q-16.5 14.5 -63.5 14.5q-11 0 -19.5 -0.5q-8.5 -0.5 -16 -1q-7.5 -0.5 -15.5 -1q-8 -0.5 -18 -1.5l0 -105z" />
<glyph unicode="&#1075;" horiz-adv-x="450" d="M444 550v-150q-9 4 -29 8q-20 4 -43 6q-23 2 -46 3.5q-23 1.5 -38 1.5h-71v-419h-150l0 550z" />
<glyph unicode="&#1076;" horiz-adv-x="648" d="M487 -147l-9 143h-327l-7 -143h-116l-28 271h91q16 33 34 104q18 71 23 193q1 22 1.5 55.5q0.5 33.5 0.5 73.5l395 0v-426h83l-25 -271zM395 421h-113q-1 -17 -3 -43q-2 -26 -5 -55.5q-3 -29.5 -6.5 -57.5q-3.5 -28 -7.5 -47q-5 -20 -13 -47q-8 -27 -20 -47l168 0z" />
<glyph unicode="&#1077;" horiz-adv-x="578" d="M501 24q-42 -17 -93 -25q-51 -8 -98 -8q-144 0 -208 68q-64 68 -64 210q0 64 16.5 118q16.5 54 49.5 93q33 39 83 61q50 22 116 22q69 0 113.5 -23.5q44.5 -23.5 70 -59.5q25.5 -36 35 -80.5q9.5 -44.5 9.5 -86.5q0 -14 -1.5 -29.5q-1.5 -15.5 -3 -29.5q-1.5 -14 -3 -24.5q-1.5 -10.5 -1.5 -13.5l-335 0q8 -101 135 -101q39 0 72 5.5q33 5.5 57 13.5q28 9 50 20zM296 444q-50 0 -76 -27.5q-26 -27.5 -31 -81.5l197 0q0 21 -4.5 41q-4.5 20 -15 35q-10.5 15 -27.5 24t-43 9z" />
<glyph unicode="&#1078;" horiz-adv-x="839" d="M345 222l-8 1q-5 0 -12 -7q-7 -7 -15 -17.5q-8 -10.5 -15.5 -22q-7.5 -11.5 -12.5 -18.5l-104 -158h-173l209 285l-194 265h168l80 -121q7 -11 17 -26.5q10 -15.5 20 -29.5q10 -14 18.5 -24q8.5 -10 13.5 -10h8v211h150v-211h8q4 0 11 6.5q7 6.5 14.5 16q7.5 9.5 15.5 21q8 11.5 15 22.5l93 145h169l-189 -265l202 -285h-172l-107 155q-7 10 -13.5 22q-6.5 12 -13.5 22q-7 10 -13 16.5q-6 6.5 -12 6.5h-8v-222l-150 0z" />
<glyph unicode="&#1079;" horiz-adv-x="518" d="M45 543q28 4 60 8q27 3 62 6q35 3 73 3q64 0 105.5 -11.5q41.5 -11.5 66.5 -31.5q25 -20 35 -47.5q10 -27.5 10 -59.5q0 -44 -17.5 -72.5q-17.5 -28.5 -45.5 -44.5q34 -16 57 -44q23 -28 23 -82q0 -41 -14 -73.5q-14 -32.5 -45 -56q-31 -23.5 -80.5 -36q-49.5 -12.5 -119.5 -12.5q-21 0 -46 2q-25 2 -49.5 5q-24.5 3 -47.5 7.5q-23 4.5 -40 9.5l0 145q26 -12 55 -21q25 -8 56.5 -14.5q31.5 -6.5 66.5 -6.5q50 0 81 13q31 13 31 42q0 23 -25.5 35.5q-25.5 12.5 -91.5 12.5q-22 0 -45.5 -1.5q-23.5 -1.5 -55.5 -1.5l0 120h98q57 0 79.5 12.5q22.5 12.5 22.5 41.5q0 20 -24 31.5q-24 11.5 -66 11.5q-37 0 -79.5 -8q-42.5 -8 -79.5 -27z" />
<glyph unicode="&#1080;" horiz-adv-x="637" d="M67 0v550h150v-252l-8 -76h4l217 328h140v-550h-149v241l9 77h-4l-220 -318z" />
<glyph unicode="&#1081;" horiz-adv-x="637" d="M67 0v550h150v-252l-8 -76h4l217 328h140v-550h-149v241l9 77h-4l-220 -318zM214 800q3 -3 10 -16.5q7 -13.5 20.5 -28.5q13.5 -15 34.5 -26.5q21 -11.5 53 -11.5q32 0 54.5 13q22.5 13 37.5 29q18 18 30 42l80 -76q-18 -37 -46 -66q-24 -25 -62.5 -45.5q-38.5 -20.5 -93.5 -20.5q-55 0 -92.5 20.5q-37.5 20.5 -60.5 45.5q-27 29 -44 66z" />
<glyph unicode="&#1082;" horiz-adv-x="577" d="M262 186q-15 20 -23 29q-8 9 -16 9h-6v-224h-150v550h150v-213h6q8 0 17.5 10.5q9.5 10.5 22.5 28.5l119 174h177l-206 -264l230 -286l-186 0z" />
<glyph unicode="&#1083;" horiz-adv-x="601" d="M384 0v420h-107q0 -17 -1.5 -43q-1.5 -26 -3.5 -55.5q-2 -29.5 -5.5 -59.5q-3.5 -30 -7.5 -54q-17 -94 -58.5 -145.5q-41.5 -51.5 -107.5 -67.5q-5 -2 -13.5 -2.5q-8.5 -0.5 -16.5 -2.5q-10 -2 -21 -3l-37 132q14 0 28 3.5q14 3.5 25 8.5q25 12 41 39.5q16 27.5 27 87.5q4 21 6 41q2 20 3 50.5q1 30.5 1.5 78q0.5 47.5 1.5 122.5l396 0l0 -550z" />
<glyph unicode="&#1084;" horiz-adv-x="808" d="M360 -6l-139 365h-4l6 -90l-13 -269h-145l46 550h152l141 -338l142 338h152l45 -550h-145l-13 266l6 93h-4l-141 -365z" />
<glyph unicode="&#1085;" horiz-adv-x="631" d="M414 0v213h-196v-213h-151v550h151v-205h196v205h150l0 -550z" />
<glyph unicode="&#1086;" horiz-adv-x="610" d="M38 275q0 65 19.5 118q19.5 53 55.5 91q36 38 86 59q50 21 112 21q72 0 122 -21.5q50 -21.5 81 -60q31 -38.5 44.5 -91.5q13.5 -53 13.5 -116q0 -62 -16.5 -115.5q-16.5 -53.5 -50 -92.5q-33.5 -39 -83.5 -61.5q-50 -22.5 -117 -22.5q-69 0 -119.5 21q-50.5 21 -83.5 59.5q-33 38.5 -48.5 92q-15.5 53.5 -15.5 119.5zt0 0zM188 276q0 -81 31.5 -123q31.5 -42 85.5 -42q59 0 87.5 46q28.5 46 28.5 118q0 81 -27 121.5q-27 40.5 -86 40.5q-57 0 -88.5 -42t-31.5 -119z" />
<glyph unicode="&#1087;" horiz-adv-x="622" d="M405 0v418h-188v-418h-150v550h488l0 -550z" />
<glyph unicode="&#1088;" horiz-adv-x="648" d="M196 550l9 -77q28 37 75 62q47 25 102 25q48 0 89.5 -15q41.5 -15 72 -48.5q30.5 -33.5 48.5 -86q18 -52.5 18 -127.5q0 -72 -20 -127q-20 -55 -56.5 -92q-36.5 -37 -87 -56q-50.5 -19 -111.5 -19q-31 0 -65 6.5q-34 6.5 -53 16.5l0 -210l-150 -7v755zM217 146q22 -14 46 -22.5q24 -8.5 60 -8.5q60 0 96.5 40q36.5 40 36.5 121q0 46 -9 75.5q-9 29.5 -24 46.5q-15 17 -35 23.5q-20 6.5 -42 6.5q-31 0 -67.5 -22q-36.5 -22 -61.5 -59z" />
<glyph unicode="&#1089;" horiz-adv-x="522" d="M487 29q-47 -21 -88 -29.5q-41 -8.5 -83 -8.5q-59 0 -109.5 15.5q-50.5 15.5 -88 49.5q-37.5 34 -59 87.5q-21.5 53.5 -21.5 130.5q0 68 22.5 121.5q22.5 53.5 61.5 90.5q39 37 92 56.5q53 19.5 115 19.5q47 0 82.5 -7.5q35.5 -7.5 75.5 -21.5l-18 -164q-18 18 -34.5 30.5q-16.5 12.5 -32.5 19.5q-16 7 -33.5 10q-17.5 3 -38.5 3q-73 0 -107.5 -44q-34.5 -44 -34.5 -116q0 -30 7.5 -58q7.5 -28 24 -49.5q16.5 -21.5 41.5 -34.5q25 -13 61 -13q35 0 64.5 7q29.5 7 49.5 16q24 10 43 23z" />
<glyph unicode="&#1090;" horiz-adv-x="499" d="M324 425v-425h-150v425h-77q-12 0 -27 -1.5q-15 -1.5 -30 -3.5q-15 -2 -27 -5.5q-12 -3.5 -18 -6.5l0 142h509v-140q-9 4 -23.5 7q-14.5 3 -30.5 5q-16 2 -31 2.5q-15 0.5 -25 0.5z" />
<glyph unicode="&#1091;" horiz-adv-x="561" d="M-3 550h159l125 -404l114 404h156q-50 -157 -91 -279.5q-41 -122.5 -78 -219.5q-26 -67 -51.5 -115.5q-25.5 -48.5 -56 -80.5q-30.5 -32 -68.5 -47.5q-38 -15.5 -87 -15.5q-26 0 -50 2q-24 2 -47 10l-10 150q27 -19 52 -25.5q25 -6.5 41 -6.5q39 0 62.5 18.5q23.5 18.5 40.5 53.5z" />
<glyph unicode="&#1092;" horiz-adv-x="873" d="M509 690v-153q23 13 50 17.5q27 4.5 52 4.5q47 0 88.5 -15.5q41.5 -15.5 72 -49.5q30.5 -34 48.5 -86.5q18 -52.5 18 -126.5q0 -63 -15.5 -116q-15.5 -53 -46 -91.5q-30.5 -38.5 -74.5 -60q-44 -21.5 -101 -21.5q-26 0 -49.5 4.5q-23.5 4.5 -40.5 9.5l0 -204l-150 -7v211q-17 -5 -46 -9.5q-29 -4.5 -53 -4.5q-106 0 -166.5 73.5q-60.5 73.5 -60.5 207.5q0 77 20 131q20 54 53 88.5q33 34.5 75.5 50.5q42.5 16 86.5 16q20 0 45 -4q25 -4 48 -18l0 146zM361 412q-22 14 -38 16.5q-16 2.5 -29 2.5q-25 0 -46 -8q-21 -8 -36 -27q-15 -19 -23 -49q-8 -30 -8 -73q0 -47 8.5 -78q8.5 -31 23.5 -49q15 -18 35.5 -25q20.5 -7 44.5 -7q26 0 41.5 3q15.5 3 26.5 8zM511 127q28 -12 66 -12q25 0 46 7q21 7 36 25q15 18 23.5 49q8.5 31 8.5 78q0 88 -26 122.5q-26 34.5 -79 34.5q-15 0 -33.5 -3q-18.5 -3 -41.5 -15z" />
<glyph unicode="&#1093;" horiz-adv-x="546" d="M184 285l-170 265h172l94 -167h4l98 167h167l-182 -267l189 -283h-173l-109 186h-4l-112 -186l-168 0z" />
<glyph unicode="&#1094;" horiz-adv-x="679" d="M67 550h150v-423h180v423h150v-423h90l-25 -274h-116l-9 147l-420 0z" />
<glyph unicode="&#1095;" horiz-adv-x="567" d="M350 0v180q-26 -16 -58 -23.5q-32 -7.5 -80 -7.5q-41 0 -76 12.5q-35 12.5 -61 40q-26 27.5 -41 70.5q-15 43 -15 104v174h150v-155q0 -35 6.5 -56.5q6.5 -21.5 17.5 -33.5q11 -12 27 -16.5q16 -4.5 35 -4.5q16 0 31 3.5q15 3.5 27.5 8q12.5 4.5 22 9q9.5 4.5 14.5 7.5l0 238h150l0 -550z" />
<glyph unicode="&#1096;" horiz-adv-x="868" d="M509 550v-419h142v419h150v-550h-734v550h150v-419h142l0 419z" />
<glyph unicode="&#1097;" horiz-adv-x="948" d="M67 550h150v-419h142v419h150v-419h142v419h150v-420h90l-25 -277h-116l-9 147l-674 0z" />
<glyph unicode="&#1098;" horiz-adv-x="605" d="M287 120h36q33 0 53 6.5q20 6.5 31 16.5q11 10 14.5 22.5q3.5 12.5 3.5 24.5q0 13 -4.5 24.5q-4.5 11.5 -15 20q-10.5 8.5 -29.5 13.5q-19 5 -47 5h-42zM287 379h60q118 0 174 -50q56 -50 56 -138q0 -89 -57.5 -140q-57.5 -51 -169.5 -51h-213v425h-62q-42 0 -69.5 -6.5q-27.5 -6.5 -39.5 -13.5l0 145l321 0z" />
<glyph unicode="&#1099;" horiz-adv-x="768" d="M67 550h150v-171h62q118 0 170.5 -50q52.5 -50 52.5 -138q0 -89 -61.5 -140q-61.5 -51 -173.5 -51h-200zM217 120h50q26 0 42.5 6.5q16.5 6.5 25.5 16.5q9 10 12.5 22.5q3.5 12.5 3.5 24.5q0 25 -17 43.5q-17 18.5 -61 18.5h-56zM551 550h150v-550l-150 0z" />
<glyph unicode="&#1100;" horiz-adv-x="530" d="M67 550h150v-171h61q118 0 174 -50q56 -50 56 -138q0 -89 -58 -140q-58 -51 -170 -51h-213zM217 121h39q33 0 52.5 6.5q19.5 6.5 30 16q10.5 9.5 14 22q3.5 12.5 3.5 24.5q0 13 -4 24.5q-4 11.5 -14 20q-10 8.5 -28.5 13.5q-18.5 5 -46.5 5l-46 0z" />
<glyph unicode="&#1101;" horiz-adv-x="521" d="M90 336h242q-12 45 -43.5 69q-31.5 24 -79.5 24q-42 0 -82.5 -8q-40.5 -8 -79.5 -34l-17 142q38 15 88.5 23q50.5 8 107.5 8q56 0 103.5 -16q47.5 -16 81.5 -50q34 -34 53 -85.5q19 -51.5 19 -122.5q0 -144 -70.5 -219.5q-70.5 -75.5 -204.5 -75.5q-42 0 -87 5q-45 5 -96 22l0 138q21 -11 47 -20q22 -8 50 -14q28 -6 60 -6q37 0 63 7.5q26 7.5 42.5 20.5q16.5 13 26 30q9.5 17 15.5 36l-239 0z" />
<glyph unicode="&#1102;" horiz-adv-x="851" d="M67 550h150v-203h72q19 100 87 158.5q68 58.5 174 58.5q70 0 120 -22q50 -22 82 -61q32 -39 46.5 -92q14.5 -53 14.5 -114q0 -60 -17.5 -113.5q-17.5 -53.5 -52 -93.5q-34.5 -40 -84.5 -63.5q-50 -23.5 -115 -23.5q-60 0 -105 16.5q-45 16.5 -76.5 46.5q-31.5 30 -50 72.5q-18.5 42.5 -25.5 94.5l-70 0v-211h-150zM431 276q0 -84 29.5 -125.5q29.5 -41.5 83.5 -41.5q60 0 87.5 41.5q27.5 41.5 27.5 124.5q0 78 -27 120q-27 42 -85 42q-57 0 -86.5 -44t-29.5 -117z" />
<glyph unicode="&#1103;" horiz-adv-x="566" d="M7 0l134 213q-17 9 -33.5 22.5q-16.5 13.5 -29 33q-12.5 19.5 -20.5 46q-8 26.5 -8 60.5q0 47 17.5 81q17.5 34 48 56q30.5 22 72.5 32.5q42 10.5 91 10.5q59 0 113 -1q54 -1 107 -5l0 -549h-150v176h-41q-11 0 -21 0q-10 0 -18 1l-98 -177zM295 301q12 0 23 0q11 0 31 2l0 126q-11 0 -24 0.5q-13 0.5 -36 0.5q-40 0 -64.5 -13q-24.5 -13 -24.5 -45q0 -40 25 -55.5t70 -15.5z" />
<glyph unicode="&#1105;" horiz-adv-x="578" d="M501 24q-42 -17 -93 -25q-51 -8 -98 -8q-144 0 -208 68q-64 68 -64 210q0 64 16.5 118q16.5 54 49.5 93q33 39 83 61q50 22 116 22q69 0 113.5 -23.5q44.5 -23.5 70 -59.5q25.5 -36 35 -80.5q9.5 -44.5 9.5 -86.5q0 -14 -1.5 -29.5q-1.5 -15.5 -3 -29.5q-1.5 -14 -3 -24.5q-1.5 -10.5 -1.5 -13.5l-335 0q8 -101 135 -101q39 0 72 5.5q33 5.5 57 13.5q28 9 50 20zM296 444q-50 0 -76 -27.5q-26 -27.5 -31 -81.5l197 0q0 21 -4.5 41q-4.5 20 -15 35q-10.5 15 -27.5 24q-17 9 -43 9zt0 0zM107 671q0 35 25 59.5q25 24.5 61 24.5q18 0 34 -6.5q16 -6.5 27.5 -18q11.5 -11.5 18.5 -27q7 -15.5 7 -32.5q0 -17 -7 -32.5q-7 -15.5 -18.5 -27q-11.5 -11.5 -27.5 -18q-16 -6.5 -34 -6.5q-36 0 -61 24.5q-25 24.5 -25 59.5zt0 0zM312 671q0 35 25 59.5q25 24.5 62 24.5q18 0 34 -6.5q16 -6.5 27.5 -18q11.5 -11.5 18.5 -27q7 -15.5 7 -32.5q0 -17 -7 -32.5q-7 -15.5 -18.5 -27q-11.5 -11.5 -27.5 -18q-16 -6.5 -34 -6.5q-37 0 -62 24.5t-25 59.5z" />
<glyph unicode="&#1106;" horiz-adv-x="680" d="M630 169q0 -91 -14 -156q-14 -65 -40 -109q-26 -44 -64 -69q-38 -25 -87 -35q-9 -2 -28.5 -4q-19.5 -2 -42.5 -2l-19 132q29 -4 45 -2.5q16 1.5 27 3.5q22 5 37 19q15 14 24 40q9 26 12.5 64.5q3.5 38.5 3.5 92.5l-1 130q-2 65 -19.5 91.5q-17.5 26.5 -61.5 26.5q-37 0 -72.5 -19q-35.5 -19 -63.5 -51l0 -321h-146v601h-47q-37 0 -83 -9l0 113h130v52l145 7v-59h213v-112q-39 5 -69 6.5q-30 1.5 -56 1.5h-87v-136q77 57 162 57q54 0 92.5 -13.5q38.5 -13.5 63 -43.5q24.5 -30 35.5 -78q11 -48 11 -118z" />
<glyph unicode="&#1107;" horiz-adv-x="443" d="M437 550v-150q-9 4 -29 8q-20 4 -43 6q-23 2 -46 3.5q-23 1.5 -38 1.5h-71v-419h-150v550zM254 780h185l-163 -196l-114 0z" />
<glyph unicode="&#1108;" horiz-adv-x="513" d="M187 223q4 -21 11 -40q7 -19 21.5 -34q14.5 -15 38.5 -24q24 -9 60 -9q28 0 55 5q27 5 48 12q25 7 46 17l0 -129q-43 -15 -80.5 -22.5q-37.5 -7.5 -79.5 -7.5q-59 0 -108.5 15q-49.5 15 -85 48.5q-35.5 33.5 -55.5 86.5q-20 53 -20 129q0 67 20 121q20 54 57.5 92q37.5 38 91 58.5q53.5 20.5 120.5 20.5q34 0 73.5 -5q39.5 -5 77.5 -20l-17 -139q-21 12 -39 19q-18 7 -34.5 10.5q-16.5 3.5 -34 4.5q-17.5 1 -37.5 1q-27 0 -48.5 -8q-21.5 -8 -37.5 -21q-16 -13 -26.5 -29.5q-10.5 -16.5 -14.5 -34.5l226 0l0 -117z" />
<glyph unicode="&#1109;" horiz-adv-x="501" d="M424 389q-29 23 -70 36q-41 13 -105 13q-26 0 -42.5 -11q-16.5 -11 -16.5 -29q0 -12 5 -21q5 -9 21 -18q16 -9 46 -19.5q30 -10.5 80 -24.5q21 -6 43.5 -17q22.5 -11 41.5 -28.5q19 -17.5 31.5 -43q12.5 -25.5 12.5 -59.5q0 -81 -56.5 -128.5q-56.5 -47.5 -177.5 -47.5q-60 0 -110.5 9q-50.5 9 -81.5 20l6 152q25 -17 54 -29q25 -11 58 -20q33 -9 71 -9q85 0 85 47q0 15 -12 24.5q-12 9.5 -32 17q-20 7.5 -45 14.5q-25 7 -52 16q-69 23 -102 60.5q-33 37.5 -33 103.5q0 74 57.5 119.5q57.5 45.5 173.5 45.5q31 0 59.5 -3.5q28.5 -3.5 51.5 -8.5q26 -5 49 -11z" />
<glyph unicode="&#1110;" horiz-adv-x="302" d="M76 531h151v-531h-151zM62 671q0 36 25.5 61.5q25.5 25.5 63.5 25.5q38 0 63.5 -25.5q25.5 -25.5 25.5 -61.5q0 -18 -7 -34q-7 -16 -19 -28.5q-12 -12.5 -28 -19.5q-16 -7 -35 -7q-19 0 -35 7q-16 7 -28 19.5q-12 12.5 -19 28.5t-7 34z" />
<glyph unicode="&#1111;" horiz-adv-x="297" d="M68 531h150v-531h-150zM-45 671q0 35 25 59.5q25 24.5 61 24.5q18 0 34 -6.5q16 -6.5 27.5 -18q11.5 -11.5 18.5 -27q7 -15.5 7 -32.5q0 -17 -7 -32.5q-7 -15.5 -18.5 -27q-11.5 -11.5 -27.5 -18q-16 -6.5 -34 -6.5q-36 0 -61 24.5q-25 24.5 -25 59.5zt0 0zM160 671q0 35 25 59.5q25 24.5 62 24.5q18 0 34 -6.5q16 -6.5 27.5 -18q11.5 -11.5 18.5 -27q7 -15.5 7 -32.5q0 -17 -7 -32.5q-7 -15.5 -18.5 -27q-11.5 -11.5 -27.5 -18q-16 -6.5 -34 -6.5q-37 0 -62 24.5t-25 59.5z" />
<glyph unicode="&#1112;" horiz-adv-x="323" d="M98 531h150v-426q0 -87 -13 -147q-13 -60 -39 -97q-26 -37 -65.5 -53.5q-39.5 -16.5 -92.5 -16.5q-26 0 -50 4q-24 4 -49 9l-9 143q29 -14 50.5 -17q21.5 -3 47.5 -3q18 0 31 7.5q13 7.5 22 26.5q9 19 13 50.5q4 31.5 4 78.5zM82 671q0 36 25.5 61.5q25.5 25.5 63.5 25.5q19 0 35.5 -7q16.5 -7 28.5 -18.5q12 -11.5 19 -27.5q7 -16 7 -34q0 -18 -7 -34q-7 -16 -19 -28.5q-12 -12.5 -28.5 -19.5q-16.5 -7 -35.5 -7q-19 0 -35 7q-16 7 -28 19.5q-12 12.5 -19 28.5t-7 34z" />
<glyph unicode="&#1113;" horiz-adv-x="854" d="M277 420q0 -17 -1.5 -43q-1.5 -26 -3.5 -55.5q-2 -29.5 -5.5 -59.5q-3.5 -30 -7.5 -54q-17 -94 -58.5 -145.5q-41.5 -51.5 -107.5 -67.5q-5 -2 -13.5 -2.5q-8.5 -0.5 -16.5 -2.5q-10 -2 -21 -3l-37 132q14 0 28 3.5q14 3.5 25 8.5q25 12 41 39.5q16 27.5 27 87.5q4 21 6 41q2 20 3 50.5q1 30.5 1.5 78q0.5 47.5 1.5 122.5l386 0v-205h61q115 0 170 -42q55 -42 55 -131q0 -89 -60 -130.5q-60 -41.5 -163 -41.5h-213v420zM524 117h39q56 0 75.5 16q19.5 16 19.5 38q0 23 -23 37q-23 14 -65 14l-46 0z" />
<glyph unicode="&#1114;" horiz-adv-x="899" d="M422 213h-197v-213h-150v550h150v-205h197v205h150v-205h60q120 0 171.5 -42q51.5 -42 51.5 -130q0 -89 -55 -131q-55 -42 -165 -42h-213zM572 117h39q28 0 45.5 4.5q17.5 4.5 28 12q10.5 7.5 14.5 17.5q4 10 4 21q0 45 -86 45l-45 0z" />
<glyph unicode="&#1115;" horiz-adv-x="691" d="M484 0v244q0 41 -3.5 69q-3.5 28 -13 45.5q-9.5 17.5 -25.5 25q-16 7.5 -40 7.5q-37 0 -72.5 -19q-35.5 -19 -63.5 -51l0 -321h-146v601h-47q-37 0 -83 -9l0 113h130v52l145 7v-59h213v-112q-39 5 -69 6.5q-30 1.5 -56 1.5h-87v-136q77 57 162 57q54 0 92.5 -13.5q38.5 -13.5 63 -43.5q24.5 -30 35.5 -78q11 -48 11 -118l0 -269z" />
<glyph unicode="&#1116;" horiz-adv-x="577" d="M262 186q-15 20 -23 29q-8 9 -16 9h-6v-224h-150v550h150v-213h6q8 0 17.5 10.5q9.5 10.5 22.5 28.5l119 174h177l-206 -264l230 -286h-186zM304 780h185l-163 -196l-114 0z" />
<glyph unicode="&#1118;" horiz-adv-x="561" d="M-3 550h159l125 -404l114 404h156q-50 -157 -91 -279.5q-41 -122.5 -78 -219.5q-26 -67 -51.5 -115.5q-25.5 -48.5 -56 -80.5q-30.5 -32 -68.5 -47.5q-38 -15.5 -87 -15.5q-26 0 -50 2q-24 2 -47 10l-10 150q27 -19 52 -25.5q25 -6.5 41 -6.5q39 0 62.5 18.5q23.5 18.5 40.5 53.5zM168 800q3 -3 10 -16.5q7 -13.5 20.5 -28.5q13.5 -15 34.5 -26.5q21 -11.5 53 -11.5q32 0 54.5 13q22.5 13 37.5 29q18 18 30 42l80 -76q-18 -37 -46 -66q-24 -25 -62.5 -45.5q-38.5 -20.5 -93.5 -20.5q-55 0 -92.5 20.5q-37.5 20.5 -60.5 45.5q-27 29 -44 66z" />
<glyph unicode="&#1119;" horiz-adv-x="614" d="M376 0l-14 -147h-116l-8 147h-171v550h150v-423h180v423h150l0 -550z" />
<glyph unicode="&#1168;" horiz-adv-x="513" d="M526 541q-13 7 -43 12q-30 5 -64.5 8.5q-34.5 3.5 -67.5 5q-33 1.5 -53 1.5h-65v-568h-157v700h302l9 101l139 0z" />
<glyph unicode="&#1169;" horiz-adv-x="444" d="M302 550l10 96h132v-245q-11 5 -35 8.5q-24 3.5 -51.5 5.5q-27.5 2 -53.5 3q-26 1 -41 1h-46v-419h-150l0 550z" />
<glyph unicode="&#8211;" horiz-adv-x="695" d="M50 403h595v-140l-595 0z" />
<glyph unicode="&#8212;" horiz-adv-x="962" d="M50 403h862v-140l-862 0z" />
<glyph unicode="&#8216;" horiz-adv-x="248" d="M188 491h-169l130 290l89 0z" />
<glyph unicode="&#8217;" horiz-adv-x="204" d="M69 750h169l-130 -290l-89 0z" />
<glyph unicode="&#8220;" horiz-adv-x="452" d="M373 491h-169l130 290h89zM168 491h-168l129 290l90 0z" />
<glyph unicode="&#8221;" horiz-adv-x="452" d="M69 750h169l-130 -290h-89zM274 750h168l-129 -290l-90 0z" />
<glyph unicode="&#8222;" horiz-adv-x="452" d="M79 83h169l-130 -290h-89zM284 83h168l-129 -290l-90 0z" />
<glyph unicode="&#8224;" horiz-adv-x="580" d="M15 510h187v185h154v-185h188v-139h-188v-485h-154v485l-187 0z" />
<glyph unicode="&#8226;" horiz-adv-x="333" d="M28 313q0 27 10 51q10 24 27.5 41.5q17.5 17.5 41.5 28q24 10.5 53 10.5q29 0 53.5 -10.5q24.5 -10.5 42 -28q17.5 -17.5 27.5 -41.5q10 -24 10 -51q0 -26 -10 -49.5q-10 -23.5 -27.5 -41q-17.5 -17.5 -42 -28q-24.5 -10.5 -53.5 -10.5q-29 0 -53 10.5q-24 10.5 -41.5 28q-17.5 17.5 -27.5 41t-10 49.5z" />
<glyph unicode="&#8230;" horiz-adv-x="827" d="M26 79q0 35 25 59q25 24 62 24q36 0 61.5 -24q25.5 -24 25.5 -59q0 -17 -7 -32.5q-7 -15.5 -18.5 -27q-11.5 -11.5 -27.5 -18.5q-16 -7 -34 -7q-37 0 -62 25q-25 25 -25 60zt0 0zM306 79q0 35 25 59q25 24 62 24q36 0 61.5 -24q25.5 -24 25.5 -59q0 -17 -7 -32.5q-7 -15.5 -18.5 -27q-11.5 -11.5 -27.5 -18.5q-16 -7 -34 -7q-37 0 -62 25q-25 25 -25 60zt0 0zM586 79q0 35 25 59q25 24 62 24q36 0 61.5 -24q25.5 -24 25.5 -59q0 -17 -7 -32.5q-7 -15.5 -18.5 -27q-11.5 -11.5 -27.5 -18.5q-16 -7 -34 -7q-37 0 -62 25t-25 60z" />
<glyph unicode="&#8364;" horiz-adv-x="606" d="M27 476h63q16 54 46.5 98q30.5 44 72.5 74.5q42 30.5 95.5 47q53.5 16.5 116.5 16.5q31 0 56.5 -2q25.5 -2 49 -7q23.5 -5 46 -13q22.5 -8 47.5 -20l-20 -179q-36 47 -80.5 64q-44.5 17 -93.5 17q-118 0 -167 -96l267 0v-113h-294l-2 -18l2 -19h294v-113h-266q49 -88 164 -88q45 0 82.5 12.5q37.5 12.5 63.5 27.5q31 18 55 40l0 -160q-45 -22 -98.5 -38q-53.5 -16 -119.5 -16q-134 0 -213.5 56q-79.5 56 -107.5 166l-59 0v113h45l-2 15l2 22l-45 0z" />
<glyph unicode="&#8470;" horiz-adv-x="1084" d="M688 354q0 39 14.5 73q14.5 34 39.5 59.5q25 25.5 59.5 40.5q34.5 15 73.5 15q40 0 74.5 -15q34.5 -15 60 -40.5q25.5 -25.5 40 -59.5q14.5 -34 14.5 -73q0 -39 -15 -73.5q-15 -34.5 -40.5 -60q-25.5 -25.5 -60 -40q-34.5 -14.5 -74.5 -14.5q-39 0 -73 14.5q-34 14.5 -59 40q-25 25.5 -39.5 60q-14.5 34.5 -14.5 73.5zt0 0zM698 142h364v-142h-364zM822 353q0 -26 15 -45q15 -19 39 -19q25 0 40 19q15 19 15 45q0 26 -15 45q-15 19 -40 19q-24 0 -39 -19q-15 -19 -15 -45zt0 0zM510 0l-288 435h-4l12 -133v-302h-154v699h151l272 -436h4l-8 114v322h154l0 -699z" />
<glyph unicode="&#8482;" horiz-adv-x="602" d="M-12 700h244v-99q-20 9 -38.5 11q-18.5 2 -36.5 2l0 -204h-94v204q-19 -1 -36.5 -1.5q-17.5 -0.5 -38.5 -11.5zM354 408l-35 166l-7 -164h-80l30 290h101l38 -198l36 198h101l29 -290h-80l-10 164l-34 -166z" />
<glyph unicode="&#8592;" horiz-adv-x="828" d="M788 254l-499 2q48 -37 99.5 -78q51.5 -41 96.5 -74l-82 -92l-383 315l382 299l82 -92l-194 -148l498 3z" />
<glyph unicode="&#8593;" horiz-adv-x="699" d="M277 0l3 490l-144 -190l-96 86l310 376l309 -377l-95 -86l-148 191l2 -490z" />
<glyph unicode="&#8594;" horiz-adv-x="828" d="M40 389l498 -3l-194 148l82 92l382 -310q-101 -85 -183 -152q-35 -29 -69 -56q-34 -27 -62 -48.5q-28 -21.5 -46.5 -34.5q-18.5 -13 -22.5 -13l-82 92l195 152l-498 -2z" />
<glyph unicode="&#8595;" horiz-adv-x="699" d="M423 753l-4 -489l145 188l95 -85l-311 -376l-308 377l96 85l148 -191l-2 491z" />
<glyph unicode="&#8776;" horiz-adv-x="729" d="M38 435q54 38 110.5 61q56.5 23 107.5 23q28 0 53.5 -9.5q25.5 -9.5 49.5 -21q24 -11.5 47 -21q23 -9.5 47 -9.5q16 0 31 3.5q15 3.5 33 10.5q18 7 39.5 18q21.5 11 50.5 26l58 -113q-59 -33 -111.5 -58.5q-52.5 -25.5 -106.5 -25.5q-27 0 -51.5 9.5q-24.5 9.5 -48.5 20.5q-24 11 -47.5 20.5q-23.5 9.5 -47.5 9.5q-18 0 -32 -2q-14 -2 -30 -8q-16 -6 -36.5 -16.5q-20.5 -10.5 -50.5 -27.5zM40 246q54 38 110.5 61q56.5 23 107.5 23q27 0 52.5 -9q25.5 -9 49.5 -19.5q24 -10.5 47.5 -19q23.5 -8.5 47.5 -8.5q33 0 60.5 10.5q27.5 10.5 56.5 24.5l37 19l58 -113q-20 -13 -45 -27q-25 -14 -53.5 -26q-28.5 -12 -59 -20q-30.5 -8 -60.5 -8q-26 0 -50.5 8.5q-24.5 8.5 -48 19q-23.5 10.5 -47.5 19.5q-24 9 -49 9q-18 0 -32 -2q-14 -2 -30 -7.5q-16 -5.5 -36.5 -16q-20.5 -10.5 -50.5 -27.5z" />
<glyph unicode="&#64257;" horiz-adv-x="640" d="M420 381h-175v-381h-150v381h-80v133h80v23q0 58 19.5 99.5q19.5 41.5 55 68.5q35.5 27 86.5 40q51 13 114 13q38 0 74 -3q36 -3 64 -6q33 -4 62 -8l0 -143q-37 12 -87 18.5q-50 6.5 -107 6.5q-40 0 -65.5 -8q-25.5 -8 -40 -22.5q-14.5 -14.5 -20.5 -34.5q-6 -20 -6 -44l326 0v-514l-150 0z" />
<glyph unicode="&#65279;" horiz-adv-x="0" />
<glyph unicode="&#728;" horiz-adv-x="577" d="M168 800q3 -3 10 -16.5q7 -13.5 20.5 -28.5q13.5 -15 34.5 -26.5q21 -11.5 53 -11.5q32 0 54.5 13q22.5 13 37.5 29q18 18 30 42l80 -76q-18 -37 -46 -66q-24 -25 -62.5 -45.5q-38.5 -20.5 -93.5 -20.5q-55 0 -92.5 20.5q-37.5 20.5 -60.5 45.5q-27 29 -44 66z" />
</font>
</defs>
</svg>
