<?xml version="1.0" encoding="utf-8"?>
<!-- Generator: Adobe Illustrator 19.2.0, SVG Export Plug-In . SVG Version: 6.00 Build 0)  -->
<svg version="1.1" xmlns="http://www.w3.org/2000/svg" xmlns:xlink="http://www.w3.org/1999/xlink" x="0px" y="0px"
	 viewBox="0 0 25.9 37.4" enable-background="new 0 0 25.9 37.4" xml:space="preserve">
<g>
	<path fill="none" d="M14.2,31.4c0-0.1-0.1-0.2-0.3-0.2h-0.2v0.5h0.2C14.2,31.7,14.2,31.5,14.2,31.4z"/>
	<path fill="none" d="M13.9,32.2h-0.2v0.5h0.2c0.3,0,0.4-0.2,0.4-0.3C14.3,32.2,14,32.2,13.9,32.2z"/>
	<polygon fill="none" points="15.4,34.9 15,35.9 15.8,35.9 15.4,34.9 	"/>
	<path fill="none" d="M20.1,32h-0.2v0.6h0.2c0.1,0,0.4,0,0.4-0.3C20.5,32.1,20.4,32,20.1,32z"/>
	<path fill="none" d="M12.2,35.2c0,0.5,0,0.8-0.3,1.2h0.9v-1.6h-0.6V35.2z"/>
	<path fill="none" d="M3.1,34.8H2.9v0.8h0.2c0.3,0,0.4-0.2,0.4-0.4C3.6,35,3.4,34.8,3.1,34.8z"/>
	<polygon fill="none" points="5.7,34.9 5.4,35.9 6.1,35.9 5.7,34.9 	"/>
	<polygon fill="none" points="1.5,31.3 1.2,32.1 1.7,32.1 1.5,31.3 	"/>
	<path fill="#00B8A5" d="M0,0v6.4l4.6,1.9v10.8L0,21.1v6.4l25.9-11V11L0,0z M9.5,17.1v-6.7l8,3.4L9.5,17.1z"/>
	<path fill="#00B8A5" d="M3.1,34.4H2.4v2.5h0.5V36h0.3c0.6,0,0.9-0.4,0.9-0.8C4.1,35.1,4,34.4,3.1,34.4z M3.1,35.6H2.9v-0.8h0.2
		c0.3,0,0.4,0.2,0.4,0.4C3.6,35.4,3.5,35.6,3.1,35.6z"/>
	<path fill="#00B8A5" d="M5.5,34.4l-1,2.5H5l0.2-0.6h1l0.2,0.6H7l-1-2.5H5.5z M5.4,35.9l0.3-1h0l0.4,1H5.4z"/>
	<polygon fill="#00B8A5" points="10.7,34.4 10.1,34.4 9.3,35.5 9.3,35.5 9.3,34.4 8.8,34.4 8.8,35.5 8.8,35.5 7.9,34.4 7.3,34.4 
		8.3,35.6 7.3,36.9 7.9,36.9 8.8,35.7 8.8,35.7 8.8,36.9 9.3,36.9 9.3,35.7 9.3,35.7 10.1,36.9 10.7,36.9 9.7,35.6 	"/>
	<path fill="#00B8A5" d="M13.3,34.4h-1.6v0.8c0,0.5,0,0.8-0.3,1.2h-0.3v1h0.5v-0.5h1.5v0.5h0.5v-1h-0.3V34.4z M12.8,36.5h-0.9
		c0.2-0.4,0.3-0.8,0.3-1.2v-0.4h0.6V36.5z"/>
	<path fill="#00B8A5" d="M15.1,34.4l-1,2.5h0.5l0.2-0.6h1l0.2,0.6h0.6l-1-2.5H15.1z M15,35.9l0.3-1h0l0.4,1H15z"/>
	<polygon fill="#00B8A5" points="19,35.4 18,35.4 18,34.4 17.5,34.4 17.5,36.9 18,36.9 18,35.8 19,35.8 19,36.9 19.5,36.9 
		19.5,34.4 19,34.4 	"/>
	<polygon fill="#00B8A5" points="21.3,35.9 21.1,36.3 21.1,36.3 21.1,35.7 21.1,34.4 20.6,34.4 20.6,36.9 21.2,36.9 22.1,35.4 
		22.3,35 22.3,35 22.3,35.6 22.3,36.9 22.8,36.9 22.8,34.4 22.2,34.4 	"/>
	<polygon fill="#00B8A5" points="25.4,35.4 24.4,35.4 24.4,34.4 23.9,34.4 23.9,36.9 24.4,36.9 24.4,35.8 25.4,35.8 25.4,36.9 
		25.9,36.9 25.9,34.4 25.4,34.4 	"/>
	<polygon fill="#00B8A5" points="0.1,36.9 0.6,36.9 0.6,34.9 1.6,34.9 1.6,34.4 0.1,34.4 	"/>
	<polygon fill="#00B8A5" points="18.3,33.2 18.3,30.7 17.4,30.7 17.4,31.5 16.7,31.5 16.7,30.7 15.8,30.7 15.8,33.2 16.7,33.2 
		16.7,32.3 17.4,32.3 17.4,33.2 	"/>
	<path fill="#00B8A5" d="M2.1,30.7H0.9L0,33.2h0.9l0.2-0.5h0.7L2,33.2h1L2.1,30.7z M1.2,32.1l0.3-0.8h0l0.3,0.8H1.2z"/>
	<polygon fill="#00B8A5" points="6.2,33.2 5.3,31.9 6.1,30.7 5,30.7 4.4,31.7 4.4,31.7 4.4,30.7 3.5,30.7 3.5,33.2 4.4,33.2 
		4.4,32.1 4.4,32.1 5,33.2 	"/>
	<polygon fill="#00B8A5" points="8.1,33.2 8.1,31.4 8.9,31.4 8.9,30.7 6.3,30.7 6.3,31.4 7.1,31.4 7.1,33.2 	"/>
	<polygon fill="#00B8A5" points="11.2,33.2 12.1,33.2 12.1,30.7 11,30.7 10.4,32.1 10.4,32.1 10.4,30.7 9.4,30.7 9.4,33.2 
		10.5,33.2 11.1,31.8 11.2,31.8 	"/>
	<path fill="#00B8A5" d="M15.2,31.3c0-0.2-0.1-0.6-0.9-0.6h-1.5v2.5h1.4c0.3,0,1,0,1-0.7c0-0.4-0.3-0.6-0.6-0.6v0
		C15,31.8,15.2,31.6,15.2,31.3z M13.7,31.2h0.2c0.3,0,0.3,0.1,0.3,0.2c0,0.1,0,0.2-0.4,0.2h-0.2V31.2z M13.9,32.7h-0.2v-0.5h0.2
		c0.1,0,0.4,0,0.4,0.2C14.3,32.5,14.2,32.7,13.9,32.7z"/>
	<rect x="21.6" y="30.7" fill="#00B8A5" width="0.9" height="2.5"/>
	<path fill="#00B8A5" d="M21.4,32.3c0-0.5-0.3-0.9-1-0.9h-0.5v-0.7H19v2.5h1.5C21.1,33.2,21.4,32.8,21.4,32.3z M20.1,32.6h-0.2V32
		h0.2c0.3,0,0.4,0.2,0.4,0.3C20.5,32.6,20.2,32.6,20.1,32.6z"/>
	<path fill="#00B8A5" d="M25.4,30L25,29.9c0,0.2-0.3,0.2-0.4,0.2c-0.1,0-0.4,0-0.4-0.2L23.8,30c0.1,0.5,0.7,0.5,0.8,0.5
		C24.8,30.5,25.3,30.5,25.4,30z"/>
	<polygon fill="#00B8A5" points="24.2,32.1 24.2,32.1 24.2,30.7 23.3,30.7 23.3,33.2 24.4,33.2 25,31.8 25,31.8 25,33.2 25.9,33.2 
		25.9,30.7 24.8,30.7 	"/>
</g>
</svg>
