<svg xmlns="http://www.w3.org/2000/svg" xmlns:xlink="http://www.w3.org/1999/xlink" width="538" height="211" viewBox="0 0 538 211"><defs><path id="v5xga" d="M696 394c-3.27 2.52-5.91.5-5.91.5l-5.53-5.27s-.12 16.71-.12 21.61c0 4.9.87 7.54-2.14 12.44-3.02 4.9-8.17 4.77-8.17 4.77s-50.88.13-58.17.13c-7.29 0-11.05 1-15.58-2.39-4.52-3.4-4.14-8.42-4.14-8.42l-.13-28.14s-.88 1-4.52 4.15c-3.65 3.14-6.54 1.63-9.3-1.63-2.76-3.27.38-6.54.38-6.54l57.8-57.78 15.2 15.32s0-1.13-.13-4.02c-.13-2.89 2-5.15 6.9-4.9s5.41 4.4 5.41 4.4v16.7s28.52 28.15 30.53 30.4c2.01 2.27.88 6.16-2.39 8.68zM640 426.23a8.59 8.59 0 1 0 0-17.18 8.59 8.59 0 0 0 0 17.18zm31.61-49.93l-31.28-31.53-31.29 31.4v19.23s.5 6.28 3.65 8.42c3.14 2.13 6.15 2.88 11.8 2.88 5.66 0 36.82-.12 36.82-.12s5.02-.63 7.66-3.77c2.64-3.14 2.64-5.9 2.64-10.8v-15.7zm-30.17 6.45h10.72v10.71h-10.72zm0-13.45h10.72v10.72h-10.72zm-13.17 13.45H639v10.71h-10.72zm0-13.45H639v10.72h-10.72zm11.73 42.42a6.04 6.04 0 1 1 0 12.08 6.04 6.04 0 0 1 0-12.08zm31.74-85.29s-.38-5.4-3.52-7.79c-3.14-2.39-5.4-3.14-14.2-3.14h-34.42s-5.66.5-8.3 4.4c-2.64 3.9-2.64 9.17-2.51 16.33.13 7.16 0 17.96 0 17.96l-12.56 12.44v-54.4s-.25-4.14 3.26-7.28c3.52-3.14 3.9-3.14 14.2-3.27 10.3-.12 59.68 0 59.68 0s5.28 0 8.04 3.77c2.76 3.77 3.02 5.4 3.02 11.43 0 6.03.12 50 .12 50l-12.81-12.44zm88.91 171.19l.37-18.73-13.38 18.57v.08h-8v-32.17h8.64l-.38 19.27 13.38-19.08v-.12h8v32.18zm-5.47-35.3c-8.57 0-11.62-7.66-11.62-7.66l4.31-4.09s2.65 4.6 7.6 4.6c4.95 0 7.14-4.65 7.14-4.65l4.66 4.02s-3.51 7.77-12.09 7.77zm-32.4 3.02h8.68v32.24h-8.69zm-16.27 32.26h-12.68l.08-32.22h8.57l.09 9.68s1.37.09 4.54 0c3.17-.08 12.16-.08 12.25 11.48.08 11.57-12.85 11.06-12.85 11.06zm-1.87-15.02c-1.2 0-2.07.02-2.07.02v7.8l4.25.01s4.06-.34 4.01-4.16c-.04-3.82-4.98-3.67-6.19-3.67zm-27.64 2.25h-11.9v12.82h-8.85v-32.3h8.86v11.55h11.9v-11.55h8.7v32.15h-8.7zm-36.7 0h-11.9v12.82h-8.84v-32.3h8.85v11.55h11.9v-11.55h8.7v32.15h-8.7zm-42.7 13.45c-8.5.14-15.22-3.47-16.42-15.15-1.2-11.69 7.15-16.71 7.15-16.71 2.05-1.5 5.1-2.77 11.47-2.62 6.37.14 12.68 5.38 12.89 16.85.21 11.47-6.59 17.5-15.08 17.63zm6.17-20.1c-.71-6.17-4.89-6.88-7.44-6.8 0 0-6.58.91-6.37 9.9.21 9 4.81 9.5 8.7 9.43 3.9-.08 5.81-6.38 5.1-12.54zm-40.37 20.1c-7.22.43-9.77-1.34-9.77-1.34l-.07 11.9s-.07-.08-1.98.06l-6.94.57-.07-44.19 7.5-.14.22 2.06c.2 2.05.5 3.04.85 2.62.35-.43 4.6-5.32 10.2-5.1 5.59.2 11.75 2.26 13.38 13.66 1.63 11.4-6.1 19.48-13.32 19.9zm-2.12-26.2c-1.77-.14-7.3 3.12-7.58 4.68-.28 1.55-.28 2.19-.28 2.19v10.27s3.04 1.56 6.94 1.63c3.9.07 7.15-3.47 7.3-10.06.13-6.58-4.61-8.57-6.38-8.7zm-21.03.36c-.92-.36-3.75-.29-3.75-.29h-5.74l-.14 25.42-8.64.08.07-25.5h-4.6c-4.6 0-5.95.71-5.95.71l-.07-8.28h30.02l-.07 8.35s-.21-.14-1.13-.5zm-28.75 25.06l-10.62.07-11.12-13.38.07 13.38h-8.78v-32.22h8.64l.14 12.75 9.63-12.75 10.41-.07-12.04 15.37zm396.48.06h-8.62l-.57-21.14-8.7 21.14h-4.48l-8.76-21.14-.65 21.14h-8.47l2.9-32.21h8.76l8.4 19.54 8.68-19.54h8.69zm-454.62-12.73c.5 3.96 3.19 6.09 7.58 6.51 4.39.43 11.33-2.69 11.33-2.69l.07 7.44s-1 .78-3.9 1.48c-2.9.71-14.58 2.62-19.47-2.76-4.88-5.38-6.16-17.49-.35-25.07 5.8-7.57 18.48-6.16 22.73-.07 4.25 6.1 1.91 15.16 1.91 15.16zm6.66-13.46c-6.02-.07-6.3 6.66-6.3 6.66h11.9s.42-6.59-5.6-6.66zm387.35 26.91c-8.5.14-15.23-3.47-16.43-15.15-1.2-11.69 7.15-16.71 7.15-16.71 2.06-1.5 5.1-2.77 11.47-2.62 6.38.14 12.68 5.38 12.9 16.85.2 11.47-6.6 17.49-15.1 17.63zm6.16-20.1c-.7-6.17-4.89-6.88-7.44-6.8 0 0-6.58.91-6.37 9.9.21 9 4.82 9.5 8.71 9.42 3.9-.07 5.8-6.37 5.1-12.53zM430 497.56l-.08-24.72h-6.23s.07.28-.07 3.26c-.14 2.97.43 11.54-4.39 17.13-4.81 5.6-9.35 4.96-9.35 4.96l-2.26-7.5s.78.14 2.12-.36c1.35-.5 3.97-2.26 4.96-6.94 1-4.67.7-18.06.7-18.06l23.45-.07-.14 32.3zm-43.13.7c-12.04.5-14.8-2.62-14.8-2.62v-10.12s4.46 4.81 13.03 4.88c8.57.07 9.84-9.91 9.84-9.91l-17.84-.14.07-8.22 18.06-.07s-1.7-8.28-9.7-8.21c-8 .07-12.18 4.18-12.18 4.18l-.57-9.64s4.89-2.9 12.18-2.76c7.3.15 18.41 1.63 19.26 17.35.85 15.72-5.31 24.79-17.35 25.28zm411.61-15.52c1.06-6.04 1-17.37 1-17.37l23.16-.06.06 24.72 4.99.06-2 16.5-5.97-.06-.81-8.9h-19.37l-.81 8.84-6.42.06-1.8-16.44 5.6-.06s1.31-1.25 2.37-7.29zm15.57 7.29l-.06-17.19-7.04-.06s0 2.18-.5 8.16c-.5 5.97-2.61 9.09-2.61 9.09z"/></defs><g><g transform="translate(-371 -300)"><use fill="#fff" xlink:href="#v5xga"/></g></g></svg>