<svg xmlns="http://www.w3.org/2000/svg" xmlns:xlink="http://www.w3.org/1999/xlink" width="88" height="89" viewBox="0 0 88 89"><defs><path id="18j2a" d="M314.6 1496a42.55 42.55 0 1 1 0 85.1 42.55 42.55 0 0 1 0-85.1z"/><path id="18j2b" d="M350.21 1499.3v49.88c0 .63-.5 1.14-1.13 1.14h-25.82l1.81 9.07h2.47c.63 0 1.14.5 1.14 1.13v3.4h2.26v2.27h-34v-2.27h2.26v-3.4c0-.63.51-1.13 1.14-1.13h2.47l1.81-9.07H278.8c-.63 0-1.14-.51-1.14-1.14v-49.87a3.4 3.4 0 0 1 3.4-3.4h65.75a3.4 3.4 0 0 1 3.4 3.4zm-48.74 62.35v2.27h24.94v-2.27zm21.29-2.26l-1.81-9.07h-14.02l-1.81 9.07zm25.19-21.54h-68.02v10.2h68.02zm-5.67-2.27v-31.74H285.6v31.74zm5.67-36.27c0-.63-.51-1.14-1.14-1.14h-65.74c-.63 0-1.14.51-1.14 1.14v36.27h3.4v-32.87c0-.63.51-1.14 1.14-1.14h58.94c.63 0 1.14.51 1.14 1.14v32.87h3.4zm-30.61 43.07a3.4 3.4 0 1 1-6.8 0 3.4 3.4 0 0 1 6.8 0zm-2.27 0a1.13 1.13 0 1 0-2.26 0 1.13 1.13 0 0 0 2.26 0zm-22.67-36.27v2.26h-2.27v2.27h-2.26v-3.4c0-.63.5-1.13 1.13-1.13zm14.74 3.4v6.8c0 .63-.51 1.13-1.14 1.13h-6.8c-.62 0-1.13-.5-1.13-1.13v-6.8c0-.63.5-1.14 1.13-1.14h6.8c.63 0 1.14.51 1.14 1.14zm-6.8 4.06l2.93-2.93h-2.93zm4.53-1.32l-2.93 2.93h2.93zm5.67-2.74h2.27v2.26h-2.27zm4.53 0h2.27v2.26h-2.27zm-4.53 4.53h18.14v2.27h-18.14zm-3.4 7.94v6.8c0 .63-.51 1.13-1.14 1.13h-6.8c-.62 0-1.13-.5-1.13-1.13v-6.8c0-.63.5-1.14 1.13-1.14h6.8c.63 0 1.14.51 1.14 1.14zm-2.27 1.13h-4.53v4.54h4.53zm5.67-1.13h2.27v2.27h-2.27zm4.53 0h2.27v2.27h-2.27zm-4.53 4.53h18.14v2.27h-18.14z"/></defs><g><g opacity=".4" transform="translate(-271 -1494)"><use fill="#e2e2e4" xlink:href="#18j2a"/></g><g transform="translate(-271 -1494)"><use fill="#00907f" xlink:href="#18j2b"/></g></g></svg>