<svg xmlns="http://www.w3.org/2000/svg" xmlns:xlink="http://www.w3.org/1999/xlink" width="89" height="89" viewBox="0 0 89 89"><defs><path id="hkrba" d="M965.55 1496a42.55 42.55 0 1 1 0 85.1 42.55 42.55 0 0 1 0-85.1z"/><path id="hkrbb" d="M996.38 1510.84v54.8c0 1.88-1.54 3.42-3.43 3.42h-54.8a3.42 3.42 0 0 1-3.42-3.43v-66.2c0-1.9 1.54-3.43 3.43-3.43h43.38c.3 0 .59.12.8.33l13.7 13.7c.22.23.34.52.34.81zm-13.7-2.28c0 .63.5 1.14 1.14 1.14h8.66l-9.8-9.8zm11.41 3.42h-10.27a3.42 3.42 0 0 1-3.43-3.42v-10.28h-42.23c-.63 0-1.14.51-1.14 1.14v66.21c0 .63.5 1.14 1.14 1.14h54.8c.62 0 1.13-.5 1.13-1.14zm-43.38-9.13v6.85c0 .63-.5 1.14-1.14 1.14h-6.85c-.63 0-1.14-.51-1.14-1.14v-6.85c0-.63.51-1.14 1.14-1.14h6.85c.63 0 1.14.5 1.14 1.14zm-2.28 1.14h-4.56v4.57h4.56zm22.83 0v2.28h-2.28v-1.14h-13.7v1.14H953V1504c0-.63.5-1.14 1.14-1.14h15.98c.63 0 1.14.51 1.14 1.14zm-18.26 4.57h18.26v2.28H953zm27.4 36.53v17.12h-2.29v-16.86l-.83-1.66-6.88-2.98-3.7 3.7v4.1h-2.29v-4.1l-3.7-3.7-6.88 2.97-.83 1.67v16.86h-2.29v-17.12c0-.18.05-.36.12-.51l1.15-2.29c.12-.24.32-.43.57-.53l7.57-3.28.6-1.9c-1.97-1.6-3.16-4.24-3.16-7.48v-9.13c0-.3.12-.6.34-.8a11.1 11.1 0 0 1 7.65-2.62 11.1 11.1 0 0 1 7.66 2.62c.21.2.33.5.33.8v9.13c0 3.24-1.19 5.89-3.16 7.49l.6 1.89 7.59 3.28c.25.1.45.3.57.53l1.14 2.29c.08.15.12.33.11.5zm-20.55-19.58c.57-.15 1.14-.43 1.14-.97 0-.63.5-1.14 1.14-1.14h6.85c.63 0 1.14.5 1.14 1.14 0 .54.57.82 1.14.97v-5a9.48 9.48 0 0 0-5.7-1.68 9.48 9.48 0 0 0-5.71 1.67zm8.94 13.58l-.43-1.35c-.86.32-1.8.5-2.8.5-1.01 0-1.95-.18-2.8-.5l-.44 1.35 3.23 3.24zm2.47-9.99v-1.24a4.06 4.06 0 0 1-3.22-2.18h-4.98a4.06 4.06 0 0 1-3.21 2.18v1.24c0 3.16 1.5 6.85 5.7 6.85 4.22 0 5.71-3.69 5.71-6.85zm-14.84 26.26h2.28v6.85h-2.28zm15.98 0h2.29v6.85h-2.29zm17.13-34.25v6.85c0 .63-.51 1.14-1.15 1.14h-11.41v-2.28h10.27v-4.57h-10.27v-2.28h11.41c.64 0 1.15.51 1.15 1.14zm-45.66 1.14v4.57h10.27v2.28h-11.42c-.63 0-1.14-.5-1.14-1.14v-6.85c0-.63.51-1.14 1.14-1.14h11.42v2.28zm-2.29 10.28h9.13v2.28h-9.13zm34.25 0h13.7v2.28h-13.7zm6.85 11.41h6.85v2.29h-6.85zm0 5.71h6.85v2.29h-6.85zm-41.1-11.41h9.13v2.28h-9.13zm38.81 0h9.14v2.28h-9.14zm-38.8 5.7h6.84v2.29h-6.85zm0 5.71h6.84v2.29h-6.85z"/></defs><g><g opacity=".4" transform="translate(-921 -1494)"><use fill="#e2e2e4" xlink:href="#hkrba"/></g><g transform="translate(-921 -1494)"><use fill="#00907f" xlink:href="#hkrbb"/></g></g></svg>