<svg xmlns="http://www.w3.org/2000/svg" xmlns:xlink="http://www.w3.org/1999/xlink" width="89" height="89" viewBox="0 0 89 89"><defs><path id="73jma" d="M731.55 1845a42.55 42.55 0 1 1 0 85.1 42.55 42.55 0 0 1 0-85.1z"/><path id="73jmb" d="M724.78 1900.6v17.06h-2.28v-16.78l-.83-1.67-6.84-2.96-3.7 3.7v4.07h-2.27v-4.08l-3.69-3.7-6.84 2.97-.83 1.67v16.78h-2.28v-17.05c0-.18.04-.35.12-.51l1.14-2.27c.12-.24.32-.43.57-.54l7.54-3.26.6-1.89c-1.96-1.59-3.15-4.23-3.15-7.45v-9.1c0-.3.12-.58.34-.8a11.06 11.06 0 0 1 7.62-2.6c2.78-.12 5.5.8 7.62 2.6.22.22.34.5.34.8v9.1c0 3.23-1.19 5.86-3.16 7.45l.61 1.89 7.55 3.26c.25.1.45.3.57.54l1.13 2.27c.08.16.12.33.12.5zm-20.46-19.48c.57-.15 1.13-.44 1.13-.97 0-.63.51-1.14 1.14-1.14h6.82c.63 0 1.14.5 1.14 1.14 0 .53.57.82 1.13.97v-5a9.43 9.43 0 0 0-5.68-1.66 9.43 9.43 0 0 0-5.68 1.67zm8.9 13.52l-.43-1.35a7.9 7.9 0 0 1-2.79.5c-1 0-1.94-.18-2.8-.5l-.42 1.35 3.22 3.22zm2.46-9.95v-1.24a4.04 4.04 0 0 1-3.2-2.17h-4.96a4.04 4.04 0 0 1-3.2 2.17v1.24c0 3.15 1.49 6.82 5.68 6.82 4.2 0 5.68-3.67 5.68-6.82zm-14.77 26.15h2.27v6.82h-2.27zm15.91 0h2.27v6.82h-2.27zm47.25-10.23v17.05h-2.27v-16.78l-.83-1.67-6.84-2.96-3.7 3.7v4.07h-2.27v-4.08l-3.7-3.7-6.84 2.97-.83 1.67v16.78h-2.27v-17.05c0-.18.04-.35.11-.51l1.14-2.27c.12-.24.32-.43.57-.54l7.54-3.26.6-1.9c-1.96-1.58-3.14-4.22-3.14-7.44v-9.1c0-.3.12-.58.33-.8a11.06 11.06 0 0 1 7.63-2.6c2.77-.12 5.5.8 7.62 2.6.21.22.33.5.33.8v9.1c0 1.7-.33 3.24-.93 4.55h8.24c.63 0 1.14-.51 1.14-1.14v-27.28c0-.63-.5-1.14-1.14-1.14h-26.14v15.92a3.41 3.41 0 0 1-3.41 3.4h-7.96v9.1c0 .63.51 1.14 1.14 1.14h7.5v2.27h-7.5a3.41 3.41 0 0 1-3.41-3.4v-9.1h-4.55v-2.27h4.55v-15.92a3.41 3.41 0 0 1 3.4-3.41h7.97v-9.1c0-.62-.51-1.13-1.14-1.13h-36.38c-.62 0-1.13.5-1.13 1.14v27.28c0 .63.5 1.14 1.13 1.14h1.14v2.27h-1.14a3.41 3.41 0 0 1-3.4-3.41v-27.28a3.41 3.41 0 0 1 3.4-3.41h36.38a3.41 3.41 0 0 1 3.4 3.4v9.1h26.15a3.41 3.41 0 0 1 3.41 3.41v27.28a3.41 3.41 0 0 1-3.4 3.41h-9.78c-.22.23-.45.44-.69.63l.6 1.89 7.55 3.26c.25.1.45.3.57.54l1.14 2.27c.08.16.12.33.11.5zm-20.46-19.5c.57-.14 1.14-.43 1.14-.96 0-.63.5-1.14 1.14-1.14h6.82c.62 0 1.13.5 1.13 1.14 0 .53.57.82 1.14.97v-5a9.43 9.43 0 0 0-5.68-1.66 9.43 9.43 0 0 0-5.69 1.67zm8.91 13.53l-.43-1.35a7.9 7.9 0 0 1-2.8.5c-1 0-1.93-.18-2.79-.5l-.43 1.35 3.23 3.22zm2.46-9.95v-1.24a4.04 4.04 0 0 1-3.2-2.17h-4.96a4.04 4.04 0 0 1-3.2 2.17v1.24c0 3.15 1.48 6.82 5.68 6.82 4.2 0 5.68-3.67 5.68-6.82zm-14.83 26.15h2.27v6.82h-2.27zm15.91 0h2.28v6.82h-2.28zm-19.91-51.16h-7.96c-.63 0-1.14.51-1.14 1.14v15.92h7.96c.63 0 1.14-.51 1.14-1.14zm-27.29 2.28a3.41 3.41 0 1 1-6.82 0 3.41 3.41 0 0 1 6.82 0zm-2.27 0a1.14 1.14 0 1 0-2.27 0 1.14 1.14 0 0 0 2.27 0zm13.64 0a3.41 3.41 0 1 1-6.82 0 3.41 3.41 0 0 1 6.82 0zm-2.27 0a1.14 1.14 0 1 0-2.28 0 1.14 1.14 0 0 0 2.28 0zm-12.5-12.5v2.27h-3.42v3.4h-2.27v-4.54c0-.63.5-1.14 1.14-1.14zm57.97 13.63v4.55h-2.28v-3.4h-3.4v-2.28h4.54c.63 0 1.14.5 1.14 1.13z"/></defs><g><g opacity=".4" transform="translate(-687 -1843)"><use fill="#e2e2e4" xlink:href="#73jma"/></g><g transform="translate(-687 -1843)"><use fill="#ee4c95" xlink:href="#73jmb"/></g></g></svg>