<svg xmlns="http://www.w3.org/2000/svg" xmlns:xlink="http://www.w3.org/1999/xlink" width="89" height="88" viewBox="0 0 89 88"><defs><path id="5k50a" d="M238.55 1845a42.55 42.55 0 1 1 0 85.1 42.55 42.55 0 0 1 0-85.1z"/><path id="5k50b" d="M263.68 1849.05v65.55a3.39 3.39 0 0 1-3.39 3.39h-42.94c-.3 0-.59-.12-.8-.34l-13.56-13.56a1.13 1.13 0 0 1-.33-.8v-54.24a3.39 3.39 0 0 1 3.39-3.4h54.24a3.39 3.39 0 0 1 3.4 3.4zm-47.46 56.5c0-.62-.5-1.13-1.13-1.13h-8.58l9.7 9.7zm45.2-56.5c0-.63-.5-1.13-1.13-1.13h-54.24c-.63 0-1.13.5-1.13 1.13v53.11h10.17a3.39 3.39 0 0 1 3.39 3.4v10.17h41.81c.63 0 1.13-.51 1.13-1.13zm-44.07 3.39v6.78c0 .62-.5 1.13-1.13 1.13h-6.78c-.63 0-1.13-.5-1.13-1.13v-6.78c0-.63.5-1.13 1.13-1.13h6.78c.62 0 1.13.5 1.13 1.13zm-2.26 1.13h-4.52v4.52h4.52zm22.6 0v2.26h-2.26v-1.13h-13.56v1.13h-2.26v-2.26c0-.63.5-1.13 1.13-1.13h15.82c.62 0 1.13.5 1.13 1.13zm-18.08 4.52h18.08v2.26h-18.08zm38.42 44.07v4.52c0 .63-.5 1.13-1.13 1.13h-29.38c-.62 0-1.13-.5-1.13-1.13v-4.52c0-.62.5-1.13 1.13-1.13h29.38c.63 0 1.13.51 1.13 1.13zm-2.26 1.13h-27.12v2.26h27.12zm0 6.78h2.26v2.27h-2.26zm-4.52 0h2.26v2.27h-2.26zm-24.86 0h22.6v2.27h-22.6zm31.64-57.63v4.52h-2.26v-3.4h-3.39v-2.25h4.52c.63 0 1.13.5 1.13 1.13zm16.96 1.13v51.98c0 .22-.06.42-.17.59l-3.35 6.7a1.13 1.13 0 0 1-2.02 0l-3.4-6.78h.01a1.12 1.12 0 0 1-.12-.5v-52c0-.62.51-1.12 1.13-1.12h1.14v-2.26h4.52v2.26h1.13c.62 0 1.13.5 1.13 1.13zm-2.97 53.11h-3.12l1.57 3.13zm.7-4.52h-4.51v2.26h4.52zm0-41.81h-1.12v21.47h-2.26v-21.47h-1.13v39.55h4.52zm0-5.65h-4.51v3.39h4.52zm-50.85 10.17v20.34c0 .63-.5 1.13-1.13 1.13h-11.3c-.63 0-1.13-.5-1.13-1.13v-20.34c0-.63.5-1.13 1.13-1.13h11.3c.62 0 1.13.5 1.13 1.13zm-2.26 6.78h-9.04v12.43h9.04zm0-5.65h-9.04v3.39h9.04zm38.42-1.13v20.34c0 .63-.5 1.13-1.13 1.13h-11.3c-.62 0-1.13-.5-1.13-1.13v-20.34c0-.63.5-1.13 1.13-1.13h11.3c.63 0 1.13.5 1.13 1.13zm-2.26 6.78h-9.04v12.43h9.04zm0-5.65h-9.04v3.39h9.04zm-15.82-1.13v20.34c0 .63-.5 1.13-1.13 1.13h-11.3c-.62 0-1.13-.5-1.13-1.13v-20.34c0-.63.5-1.13 1.13-1.13h11.3c.63 0 1.13.5 1.13 1.13zm-2.26 6.78h-9.04v12.43h9.04zm0-5.65h-9.04v3.39h9.04zm-29.38 23.73h2.26v2.26h-2.26zm4.52 0h45.2v2.26h-45.2zm-4.52 5.65h38.42v2.26h-38.42z"/></defs><g><g opacity=".4" transform="translate(-194 -1844)"><use fill="#e2e2e4" xlink:href="#5k50a"/></g><g transform="translate(-194 -1844)"><use fill="#ee4c95" xlink:href="#5k50b"/></g></g></svg>