<svg xmlns="http://www.w3.org/2000/svg" xmlns:xlink="http://www.w3.org/1999/xlink" width="88" height="88" viewBox="0 0 88 88"><defs><path id="bojla" d="M640.05 1496.14a42.55 42.55 0 1 1 0 85.09 42.55 42.55 0 0 1 0-85.1z"/><path id="bojlb" d="M628.06 1558.98a1.36 1.36 0 1 1-2.73 0 1.36 1.36 0 0 1 2.73 0zm27.22 0c0 .76-.6 1.37-1.36 1.37h-21.78a1.36 1.36 0 0 1 0-2.73h21.78c.76 0 1.36.61 1.36 1.36zm19.88-29.4v32.13a4.06 4.06 0 0 1-4.08 4.08h-61.54a4.06 4.06 0 0 1-4.08-4.08v-32.13-.02l.01-.18v-.02l.04-.16.01-.04.07-.16a1.37 1.37 0 0 1 .31-.43l8.54-7.76v-14.51c0-.76.61-1.36 1.36-1.36h14.4l7.2-7.63.02-.03a4.06 4.06 0 0 1 5.8.03l7.2 7.63h14.4c.75 0 1.36.6 1.36 1.36v14.5l8.54 7.77c.08.07.15.15.2.24l.02.03a1.35 1.35 0 0 1 .16.32v.04c.02.05.04.1.04.16v.02c.02.06.02.12.02.18v.02zm-8.98 5.54l5.64-5.5-5.64-5.13zm-32.24-30.18h12.74l-5.42-5.74a1.35 1.35 0 0 0-1.9 0zm-16.78 32.84l7.28 7.1 12.98-12.98a4.09 4.09 0 0 1 5.78 0l12.98 12.98 7.27-7.1v-30.12h-46.29zm-8.36-8.17l5.64 5.51v-10.63zm13.71 17.2l-14.33-14v28.33zm48 16.26l-29.24-29.24a1.36 1.36 0 0 0-1.92 0l-29.25 29.24zm1.93-30.26l-14.33 14 14.33 14.33zm-39.34-17.25l-5.44 5.45a1.36 1.36 0 0 1-1.93 0l-2.72-2.72a1.36 1.36 0 1 1 1.92-1.93l1.76 1.76 4.49-4.48a1.36 1.36 0 0 1 1.92 1.92zm24.9 1.76c0 .76-.6 1.37-1.35 1.37H640.3a1.36 1.36 0 1 1 0-2.73h16.34c.75 0 1.36.61 1.36 1.36zm-24.9 9.14l-5.44 5.44a1.36 1.36 0 0 1-1.93 0l-2.72-2.72a1.36 1.36 0 1 1 1.92-1.93l1.76 1.76 4.49-4.48a1.36 1.36 0 0 1 1.92 1.93zm24.9 1.76c0 .75-.6 1.36-1.35 1.36H640.3a1.36 1.36 0 1 1 0-2.73h16.34c.75 0 1.36.61 1.36 1.37z"/></defs><g><g opacity=".4" transform="translate(-596 -1495)"><use fill="#e2e2e4" xlink:href="#bojla"/></g><g transform="translate(-596 -1495)"><use fill="#00907f" xlink:href="#bojlb"/></g></g></svg>