<svg xmlns="http://www.w3.org/2000/svg" xmlns:xlink="http://www.w3.org/1999/xlink" width="37" height="9" viewBox="0 0 37 9"><defs><path id="uk0ea" d="M504.47 871.98l4.7 4.66-.7.7-4.03-3.97-3.3 3.26h.01l-.7.72-.01-.01h-.01l-.7-.7-3.3-3.27-3.77 3.74-.24.24-.25-.24-3.77-3.74-3.3 3.26-.7.72-.01-.01h-.01l-.7-.7-3.3-3.27-4.02 3.98-.7-.71 4.7-4.66.02-.02.02.02 3.99 3.95 3.99-3.95.02-.02.02.02 4 3.96 3.99-3.96.02-.02.02.02 3.99 3.95 3.98-3.95.02-.02z"/></defs><g><g opacity=".5" transform="translate(-474 -870)"><use fill="#4e515e" xlink:href="#uk0ea"/></g></g></svg>