<svg xmlns="http://www.w3.org/2000/svg" xmlns:xlink="http://www.w3.org/1999/xlink" width="37" height="9" viewBox="0 0 37 9"><defs><path id="lse2a" d="M936.36 539.35l-.7-.71 4.7-4.66.02-.02.03.02 3.98 3.95 3.99-3.95.02-.02.01.02 4 3.96 4-3.96.02-.02.02.02 3.99 3.95 3.98-3.95.02-.02.03.02 4.7 4.66-.7.7-4.03-3.97-3.3 3.26h.01l-.7.72-.01-.01h-.01l-.7-.7-3.3-3.27-3.77 3.73-.24.25-.25-.25-3.77-3.73-3.3 3.26-.7.72-.01-.01h-.01l-.7-.7-3.3-3.27z"/></defs><g><g transform="translate(-934 -532)"><use fill="#fff" xlink:href="#lse2a"/></g></g></svg>