<svg xmlns="http://www.w3.org/2000/svg" xmlns:xlink="http://www.w3.org/1999/xlink" width="128" height="127" viewBox="0 0 128 127"><defs><path id="utz0a" d="M882.95 2160.67a62.15 62.15 0 1 1 0 124.3 62.15 62.15 0 0 1 0-124.3z"/><path id="utz0b" d="M860.34 2259.43v14.29h-3.71v-14.3a6.12 6.12 0 0 0-6.12-6.12h-4.13l2.7 6.74c.27.69.1 1.47-.42 2l-3.7 3.71c-.73.73-1.9.73-2.63 0l-3.71-3.71a1.86 1.86 0 0 1-.42-2l2.7-6.74h-4.13a6.12 6.12 0 0 0-6.12 6.13v14.29h-3.71v-14.3a9.8 9.8 0 0 1 8.6-9.74 12.88 12.88 0 0 1-4.9-9.37c0-12.27 7.07-14.84 13-14.84 5.92 0 12.99 2.57 12.99 14.84-.22 3.68-2 7.09-4.9 9.37a9.8 9.8 0 0 1 8.61 9.75zm-16.6-25.27a1.86 1.86 0 0 1 2.71-1l6.18 3.7c-.83-5.2-3.72-7.68-9-7.68-5.74 0-8.67 2.95-9.17 9.17 3.27-.31 8.34-1.38 9.28-4.2zm1.43 26.12l-1.53-3.84-1.54 3.83 1.54 1.54zm7.66-18.97l-6.63-3.98c-2.67 3.52-8.4 4.48-11.58 4.74a11.7 11.7 0 0 0 9.02 7.52c2.85 0 8.45-3.73 9.2-8.28zm-18.47 24.99h3.71v7.42h-3.71zm14.85 0h3.7v7.42h-3.7zm50.1-6.87v14.29h-3.71v-14.3a6.12 6.12 0 0 0-6.12-6.12h-4.13l2.7 6.74c.27.69.1 1.47-.42 2l-3.71 3.71c-.73.73-1.9.73-2.63 0l-3.7-3.71a1.86 1.86 0 0 1-.42-2l2.7-6.74h-4.13a6.12 6.12 0 0 0-6.12 6.13v14.29h-3.71v-14.3a9.8 9.8 0 0 1 8.6-9.74 12.88 12.88 0 0 1-4.89-9.37c0-12.27 7.06-14.84 12.99-14.84 5.93 0 12.99 2.57 12.99 14.84-.22 3.68-2 7.09-4.9 9.37a9.8 9.8 0 0 1 8.61 9.75zm-16.6-25.27a1.86 1.86 0 0 1 2.71-1l6.18 3.7c-.82-5.2-3.72-7.68-8.99-7.68-5.75 0-8.68 2.95-9.18 9.17 3.27-.31 8.34-1.38 9.28-4.2zm1.43 26.12l-1.53-3.84-1.53 3.83 1.53 1.54zm7.66-18.97l-6.63-3.98c-2.67 3.52-8.4 4.48-11.58 4.74a11.7 11.7 0 0 0 9.02 7.52c2.85 0 8.45-3.73 9.2-8.28zm-18.47 24.99h3.71v7.42h-3.7zm14.85 0h3.7v7.42h-3.7zm50.1-6.87v14.29h-3.7v-14.3a6.12 6.12 0 0 0-6.13-6.12h-4.13l2.7 6.74c.27.69.1 1.47-.42 2l-3.71 3.71c-.73.73-1.9.73-2.63 0l-3.7-3.71a1.86 1.86 0 0 1-.42-2l2.7-6.74h-4.13a6.12 6.12 0 0 0-6.12 6.13v14.29h-3.71v-14.3a9.8 9.8 0 0 1 8.6-9.74 12.88 12.88 0 0 1-4.89-9.37c0-12.27 7.07-14.84 13-14.84 5.92 0 12.98 2.57 12.98 14.84-.21 3.68-2 7.1-4.9 9.37a9.8 9.8 0 0 1 8.61 9.75zm-16.6-25.27a1.86 1.86 0 0 1 2.71-1l6.19 3.7c-.83-5.2-3.73-7.68-9-7.68-5.75 0-8.68 2.95-9.18 9.17 3.27-.31 8.34-1.38 9.28-4.2zm1.44 26.12l-1.54-3.84-1.53 3.84 1.53 1.53zm7.65-18.97l-6.63-3.98c-2.67 3.52-8.4 4.48-11.58 4.74a11.7 11.7 0 0 0 9.02 7.52c2.85 0 8.45-3.73 9.2-8.28zm-18.47 24.99h3.71v7.42h-3.7zm14.85 0h3.7v7.42h-3.7zm11.13-79.8v14.84c0 3.07-2.49 5.57-5.56 5.57h-2.23l-5.62 6.75-.24.24c-.79.66-1.96.55-2.62-.24l-5.63-6.75h-9.65v1.85c0 3.08-2.49 5.57-5.56 5.57h-11.5l-5.63 6.76a1.85 1.85 0 0 1-2.85 0l-5.63-6.76h-11.5a5.57 5.57 0 0 1-5.57-5.57v-7.42h-7.8l-5.62 6.75a1.85 1.85 0 0 1-2.85 0l-5.63-6.75h-4.09a5.57 5.57 0 0 1-5.56-5.57v-22.27c0-3.07 2.49-5.57 5.56-5.57h44.54c3.08 0 5.57 2.5 5.57 5.57v14.85h14.85v-1.86c0-3.07 2.49-5.57 5.56-5.57h29.7c3.07 0 5.56 2.5 5.56 5.57zm-61.24 11.13c1.03 0 1.86-.83 1.86-1.86v-22.27c0-1.02-.83-1.86-1.86-1.86H832.5c-1.02 0-1.85.84-1.85 1.86v22.27c0 1.03.83 1.86 1.85 1.86h4.95c.55 0 1.08.24 1.43.67l4.76 5.7 4.76-5.7c.35-.43.87-.67 1.42-.67zm25.98-3.71c0-1.03-.83-1.86-1.85-1.86H882.6v3.71c0 3.08-2.5 5.57-5.57 5.57H862.2v7.42c0 1.03.83 1.86 1.85 1.86h12.37c.56 0 1.08.24 1.43.67l4.76 5.7 4.76-5.7c.35-.43.87-.67 1.43-.67h12.37c1.02 0 1.85-.83 1.85-1.86zm31.55-7.43c0-1.02-.83-1.85-1.85-1.85h-29.7c-1.02 0-1.85.83-1.85 1.85v1.86c3.07 0 5.56 2.49 5.56 5.57v9.27h10.52c.55 0 1.07.25 1.43.67l4.76 5.72 4.76-5.72c.35-.42.87-.66 1.42-.67h3.1c1.02 0 1.85-.83 1.85-1.85zm-100.21-11.13h3.71v3.7h-3.71zm7.42 0h3.71v3.7h-3.7zm7.43 0h3.7v3.7h-3.7zm37.11 20.41h3.71v3.71h-3.7zm7.42 0h3.72v3.71h-3.72zm18.56-7.42h3.71v3.7h-3.7zm7.42 0h3.72v3.7h-3.72zm7.43 0h3.7v3.7h-3.7zm-20.42-11.14h-3.7c-.01-6.14-5-11.13-11.14-11.13v-3.71c8.2 0 14.84 6.65 14.84 14.84zm-42.68 44.54v3.72c-8.2-.01-14.83-6.66-14.84-14.85h3.7c.02 6.15 5 11.13 11.14 11.13z"/></defs><g><g opacity=".75" transform="translate(-819 -2159)"><use fill="#f3f3f3" xlink:href="#utz0a"/></g><g transform="translate(-819 -2159)"><use fill="#ffc20e" xlink:href="#utz0b"/></g></g></svg>