<svg xmlns="http://www.w3.org/2000/svg" xmlns:xlink="http://www.w3.org/1999/xlink" width="128" height="127" viewBox="0 0 128 127"><defs><path id="ng26a" d="M402.95 2160.67a62.15 62.15 0 1 1 0 124.3 62.15 62.15 0 0 1 0-124.3z"/><path id="ng26b" d="M373.47 2183.28a10.33 10.33 0 0 1 0 20.64 10.33 10.33 0 0 1 0-20.64zm0 3.44a6.89 6.89 0 1 0 0 13.77 6.89 6.89 0 0 0 0-13.77zm24.85 25.62l-12.8 6.4V2271c0 .95-.78 1.72-1.73 1.72h-13.76a8.61 8.61 0 0 1-8.6-8.6v-29.2a1.7 1.7 0 0 1-.96 1.5l-6.88 3.44a1.72 1.72 0 0 1-2.4-1l-5.16-15.48c-.2-.58-.07-1.21.34-1.67l12.04-13.76c.33-.38.8-.6 1.3-.6H380l11.47-4.9 11.85-10.16c.68-.58 1.7-.54 2.33.1l5.16 5.15c.68.67.68 1.76 0 2.43l-12.04 12.04c-.13.14-.28.25-.45.33zm-36.9 10.24l-3.19 4 3.07 7.66c.08.2.12.4.12.6zm35.12-13.2l10.63-10.62-2.82-2.82-10.84 9.28c-.13.12-.28.21-.44.28l-12.04 5.16c-.22.1-.45.14-.68.14h-19.87l-10.88 12.43 4.23 12.66 3.69-1.84-2.86-7.13a1.72 1.72 0 0 1 .26-1.72l6.88-8.6a1.72 1.72 0 0 1 3.06 1.08v46.44a5.17 5.17 0 0 0 5.17 5.16h1.72v-27.52a1.72 1.72 0 1 1 3.44 0v27.52h6.88v-51.6c0-.65.37-1.25.95-1.54zm-26.51 4.86h6.88v3.44h-1.72v13.76h-3.44v-13.76h-1.72zm81.4 43a10.32 10.32 0 0 1 4.62 8.6v6.88h-3.44v-6.88a6.89 6.89 0 0 0-13.76 0v6.88h-3.44v-6.88a6.89 6.89 0 0 0-13.77 0v6.88h-3.44v-6.88a6.89 6.89 0 0 0-13.76 0v6.88H401v-6.88c0-3.59 1.84-6.75 4.62-8.6a10.32 10.32 0 1 1 14.3-14.3 10.32 10.32 0 0 1 17.2 0 10.32 10.32 0 1 1 14.3 14.3zm-29.79-8.6a6.89 6.89 0 1 0 13.78-.02 6.89 6.89 0 0 0-13.78.02zm-10.32 6.88a6.89 6.89 0 1 0-.01-13.78 6.89 6.89 0 0 0 0 13.78zm11.5 1.72a10.4 10.4 0 0 1-2.9-2.9 10.4 10.4 0 0 1-2.9 2.9 10.4 10.4 0 0 1 2.9 2.9 10.4 10.4 0 0 1 2.9-2.9zm17.21 0a10.4 10.4 0 0 1-2.9-2.9 10.4 10.4 0 0 1-2.91 2.9 10.4 10.4 0 0 1 2.9 2.9 10.4 10.4 0 0 1 2.91-2.9zm12.58-8.6a6.89 6.89 0 1 0-13.77.01 6.89 6.89 0 0 0 13.77-.01zm3.44-84.28v48.16c0 4.74-3.86 8.6-8.6 8.6h-53.34v-3.44h53.34a5.17 5.17 0 0 0 5.16-5.16v-46.44H392.4v30.96h-3.44v-32.68c0-.95.77-1.72 1.72-1.72h63.66c.95 0 1.72.77 1.72 1.72zm-36.13 8.6v1.72h5.16v-1.72c0-.95.77-1.72 1.72-1.72H444c.96 0 1.73.77 1.73 1.72v6.88c0 .95-.77 1.72-1.72 1.72h-6.88v5.16H444c.95 0 1.72.77 1.72 1.72v6.88c0 .95-.77 1.72-1.72 1.72h-6.88v5.16H444c.95 0 1.72.77 1.72 1.72v6.88c0 .95-.77 1.72-1.72 1.72h-17.2c-.96 0-1.73-.77-1.73-1.72v-6.88c0-.95.77-1.72 1.72-1.72h6.89v-5.16h-6.89c-.95 0-1.72-.77-1.72-1.72v-6.88c0-.95.77-1.72 1.72-1.72h6.89v-5.16h-6.89c-.95 0-1.72-.77-1.72-1.72v-1.72h-5.16v1.72c0 .95-.77 1.72-1.72 1.72H401c-.95 0-1.72-.77-1.72-1.72v-6.88c0-.95.77-1.72 1.72-1.72h17.2c.95 0 1.72.77 1.72 1.72zm-3.44 1.72h-13.76v3.44h13.76zm25.8 30.96h-13.76v3.44h13.77zm0-15.48h-13.76v3.44h13.77zm-13.76-12.04h13.77v-3.44h-13.77zM401 2185h18.92v3.44H401zm12.04 6.88h6.88v3.44h-6.88zm1.72 6.88h5.16v3.44h-5.16zm-5.16 6.88h10.32v3.44H409.6zm-61.94-30.96v-6.88a5.17 5.17 0 0 1 5.16-5.16h18.93a5.17 5.17 0 0 1 5.16 5.16v6.88a5.17 5.17 0 0 1-5.16 5.16h-10.33v5.16a1.72 1.72 0 0 1-3.1 1.03l-4.64-6.2h-.86a5.17 5.17 0 0 1-5.16-5.15zm3.44 0c0 .95.77 1.72 1.72 1.72h1.72c.54 0 1.05.25 1.38.69l2.06 2.75v-1.72c0-.95.77-1.72 1.72-1.72h12.05c.95 0 1.72-.77 1.72-1.72v-6.88c0-.95-.77-1.72-1.72-1.72h-18.93c-.95 0-1.72.77-1.72 1.72zm3.44-5.16h15.49v3.44h-15.49z"/></defs><g><g opacity=".75" transform="translate(-339 -2159)"><use fill="#f3f3f3" xlink:href="#ng26a"/></g><g transform="translate(-339 -2159)"><use fill="#16c1f3" xlink:href="#ng26b"/></g></g></svg>