<?xml version="1.0" standalone="no"?>
<!DOCTYPE svg PUBLIC "-//W3C//DTD SVG 20010904//EN"
 "http://www.w3.org/TR/2001/REC-SVG-20010904/DTD/svg10.dtd">
<svg version="1.0" xmlns="http://www.w3.org/2000/svg"
 width="260.000000pt" height="260.000000pt" viewBox="0 0 260.000000 260.000000"
 preserveAspectRatio="xMidYMid meet">
<metadata>
Created by potrace 1.11, written by Peter Selinger 2001-2013
</metadata>
<g transform="translate(0.000000,260.000000) scale(0.100000,-0.100000)"
fill="#000000" stroke="none">
<path d="M3 2333 c4 -10 36 -130 73 -268 37 -137 69 -252 70 -254 3 -4 171
-49 493 -135 96 -25 176 -48 178 -50 4 -3 -186 -718 -192 -724 -1 -2 -86 -25
-188 -52 -102 -27 -210 -56 -240 -65 l-54 -16 -17 -67 c-9 -37 -41 -157 -70
-267 -30 -110 -53 -201 -52 -202 2 -2 172 43 541 142 116 30 217 57 225 59 8
2 128 34 265 71 138 37 300 80 360 96 61 15 187 49 280 74 94 25 177 47 185
49 35 9 339 89 400 106 36 11 119 33 185 50 66 17 128 33 138 36 16 5 17 32
17 374 0 342 -1 369 -17 374 -10 3 -103 28 -208 55 -446 119 -868 231 -980
261 -66 17 -145 38 -175 46 -30 9 -86 24 -125 34 -169 44 -418 110 -510 135
-55 14 -201 53 -325 86 -124 33 -233 62 -243 65 -15 5 -18 2 -14 -13z m1585
-909 c136 -36 254 -67 262 -69 35 -7 216 -58 224 -63 5 -3 -63 -24 -150 -47
-563 -149 -671 -178 -692 -186 -20 -8 -23 -6 -18 8 3 10 17 63 31 118 14 55
35 134 46 175 12 41 24 87 26 103 3 15 10 27 15 27 5 0 120 -30 256 -66z"/>
</g>
</svg>
