<?xml version="1.0" encoding="utf-8"?>
<!-- Generator: Adobe Illustrator 21.0.2, SVG Export Plug-In . SVG Version: 6.00 Build 0)  -->
<svg version="1.1" id="Слой_1" xmlns="http://www.w3.org/2000/svg" xmlns:xlink="http://www.w3.org/1999/xlink" x="0px" y="0px"
	 viewBox="0 0 122 45" style="enable-background:new 0 0 122 45;" xml:space="preserve">
<style type="text/css">
	.st0{fill:#FFFFFF;}
</style>
<g>
	<g>
		<path class="st0" d="M118.961,0H3C1.343,0,0,1.343,0,3v39.055c0,1.657,1.343,3,3,3h115.962c1.657,0,3-1.343,3-3V3
			C121.961,1.343,120.618,0,118.961,0z M121.021,40.986c0,2.099-0.681,3-3,3H3.999c-2.172,0-3-0.607-3-3V3.999c0-2.245,0.754-3,3-3
			h114.022c2.172,0,3,0.828,3,3V40.986z"/>
	</g>
</g>
<g>
	<g>
		<path class="st0" d="M35.236,16.82c0.552,0,1.015-0.07,1.392-0.212v-0.553c-0.485,0.136-0.917,0.205-1.295,0.205
			c-0.616,0-1.09-0.194-1.423-0.581c-0.333-0.387-0.499-0.936-0.499-1.646c0-0.69,0.172-1.234,0.518-1.631
			c0.345-0.397,0.816-0.595,1.412-0.595c0.41,0,0.822,0.096,1.232,0.289l0.267-0.542c-0.426-0.208-0.923-0.312-1.492-0.312
			c-0.535,0-0.999,0.114-1.394,0.341c-0.395,0.227-0.697,0.552-0.905,0.972c-0.209,0.421-0.314,0.911-0.314,1.47
			c0,0.893,0.217,1.582,0.651,2.067C33.82,16.577,34.437,16.82,35.236,16.82z M38.335,14.685l1.855,2.06h0.72l-1.9-2.104
			l1.755-1.963H40.09l-1.755,1.978v-1.978h-0.616v4.067h0.616V14.685z M44.013,16.166h0.03l0.122,0.579h0.457v-2.776
			c0-0.475-0.117-0.82-0.351-1.036c-0.234-0.215-0.594-0.323-1.078-0.323c-0.24,0-0.48,0.031-0.718,0.092
			c-0.239,0.062-0.459,0.147-0.659,0.256l0.189,0.471c0.428-0.208,0.811-0.312,1.15-0.312c0.302,0,0.521,0.076,0.659,0.228
			c0.137,0.152,0.206,0.388,0.206,0.707v0.252l-0.69,0.022c-1.314,0.04-1.971,0.47-1.971,1.292c0,0.383,0.115,0.679,0.343,0.887
			c0.229,0.208,0.545,0.312,0.948,0.312c0.302,0,0.554-0.045,0.755-0.136C43.608,16.593,43.81,16.421,44.013,16.166z M42.207,16.137
			c-0.135-0.117-0.202-0.286-0.202-0.509c0-0.284,0.108-0.494,0.325-0.629c0.217-0.135,0.569-0.211,1.06-0.229l0.616-0.026v0.367
			c0,0.378-0.11,0.673-0.328,0.883c-0.219,0.21-0.52,0.315-0.904,0.315C42.531,16.311,42.342,16.253,42.207,16.137z M47.115,15.39
			c0.279,0,0.53-0.036,0.751-0.109c0.221-0.073,0.462-0.199,0.722-0.377v1.841h0.616v-4.067h-0.616v1.741
			c-0.26,0.166-0.492,0.283-0.698,0.352c-0.205,0.069-0.421,0.104-0.645,0.104c-0.542,0-0.813-0.238-0.813-0.713v-1.485h-0.616
			v1.529c0,0.364,0.115,0.652,0.345,0.865C46.392,15.284,46.709,15.39,47.115,15.39z M52.86,16.166h0.03l0.122,0.579h0.457v-2.776
			c0-0.475-0.117-0.82-0.351-1.036s-0.593-0.323-1.078-0.323c-0.24,0-0.48,0.031-0.718,0.092c-0.239,0.062-0.459,0.147-0.659,0.256
			l0.189,0.471c0.428-0.208,0.811-0.312,1.15-0.312c0.302,0,0.521,0.076,0.659,0.228s0.206,0.388,0.206,0.707v0.252l-0.69,0.022
			c-1.314,0.04-1.971,0.47-1.971,1.292c0,0.383,0.115,0.679,0.343,0.887c0.229,0.208,0.545,0.312,0.948,0.312
			c0.302,0,0.554-0.045,0.755-0.136C52.455,16.593,52.657,16.421,52.86,16.166z M51.055,16.137
			c-0.135-0.117-0.202-0.286-0.202-0.509c0-0.284,0.108-0.494,0.325-0.629c0.217-0.135,0.569-0.211,1.06-0.229l0.616-0.026v0.367
			c0,0.378-0.11,0.673-0.328,0.883c-0.219,0.21-0.52,0.315-0.904,0.315C51.378,16.311,51.19,16.253,51.055,16.137z M56.478,12.14
			c0.455,0,0.793-0.092,1.013-0.277c0.22-0.184,0.345-0.472,0.375-0.863h-0.583c-0.027,0.243-0.102,0.418-0.224,0.527
			c-0.122,0.109-0.311,0.163-0.566,0.163c-0.279,0-0.476-0.051-0.588-0.152s-0.18-0.281-0.202-0.538h-0.579
			c0.025,0.406,0.142,0.697,0.353,0.874C55.687,12.051,56.021,12.14,56.478,12.14z M57.703,13.286l-0.018,0.483l-0.011,0.49v2.486
			h0.575v-4.067H57.48l-2.201,3.466l0.011-0.212l0.026-0.675v-2.579h-0.579v4.067h0.768L57.703,13.286z M62.146,14.912h2.279v1.833
			h0.616v-4.067h-0.616v1.703h-2.279v-1.703h-0.616v4.067h0.616V14.912z M69.305,16.745v-2.776c0-0.475-0.117-0.82-0.35-1.036
			c-0.234-0.215-0.594-0.323-1.078-0.323c-0.24,0-0.48,0.031-0.718,0.092c-0.239,0.062-0.459,0.147-0.659,0.256l0.189,0.471
			c0.428-0.208,0.811-0.312,1.15-0.312c0.302,0,0.521,0.076,0.659,0.228c0.137,0.152,0.206,0.388,0.206,0.707v0.252l-0.69,0.022
			c-1.314,0.04-1.971,0.47-1.971,1.292c0,0.383,0.115,0.679,0.343,0.887c0.229,0.208,0.545,0.312,0.948,0.312
			c0.302,0,0.554-0.045,0.755-0.136c0.201-0.09,0.404-0.263,0.607-0.518h0.03l0.122,0.579h0.457V16.745z M68.688,15.112
			c0,0.378-0.11,0.673-0.328,0.883c-0.219,0.21-0.52,0.315-0.904,0.315c-0.243,0-0.431-0.058-0.566-0.174
			c-0.135-0.117-0.202-0.286-0.202-0.509c0-0.284,0.108-0.494,0.325-0.629c0.217-0.135,0.569-0.211,1.06-0.229l0.616-0.026
			L68.688,15.112L68.688,15.112z M37.508,27.658h2.249v2.798c-0.653,0.144-1.267,0.215-1.841,0.215
			c-1.138,0-2.011-0.345-2.616-1.036c-0.606-0.69-0.909-1.698-0.909-3.024c0-1.262,0.336-2.256,1.01-2.984
			c0.673-0.727,1.589-1.091,2.746-1.091c0.881,0,1.762,0.203,2.642,0.609l0.623-1.477c-1.014-0.435-2.088-0.653-3.221-0.653
			c-1.762,0-3.144,0.493-4.149,1.481c-1.005,0.987-1.507,2.354-1.507,4.101c0,1.772,0.445,3.143,1.336,4.116s2.158,1.459,3.8,1.459
			c0.698,0,1.347-0.044,1.949-0.134c0.601-0.089,1.228-0.24,1.881-0.453v-5.448h-3.993L37.508,27.658L37.508,27.658z M46.811,23.665
			c-1.242,0-2.204,0.374-2.887,1.121c-0.683,0.747-1.024,1.786-1.024,3.117c0,0.856,0.158,1.608,0.475,2.256s0.77,1.145,1.358,1.492
			c0.588,0.347,1.267,0.519,2.033,0.519c1.227,0,2.185-0.376,2.873-1.128c0.688-0.752,1.032-1.798,1.032-3.139
			c0-1.296-0.346-2.327-1.039-3.091C48.938,24.047,47.998,23.665,46.811,23.665z M46.796,30.745c-1.401,0-2.101-0.948-2.101-2.843
			c0-0.906,0.165-1.601,0.493-2.085c0.329-0.485,0.86-0.727,1.592-0.727c1.396,0,2.093,0.938,2.093,2.813
			C48.874,29.798,48.181,30.745,46.796,30.745z M55.564,23.665c-1.242,0-2.204,0.374-2.887,1.121
			c-0.683,0.747-1.024,1.786-1.024,3.117c0,0.856,0.158,1.608,0.475,2.256s0.769,1.145,1.358,1.492
			c0.589,0.347,1.267,0.519,2.034,0.519c1.227,0,2.185-0.376,2.873-1.128c0.688-0.752,1.032-1.798,1.032-3.139
			c0-1.296-0.346-2.327-1.039-3.091C57.692,24.047,56.752,23.665,55.564,23.665z M55.55,30.745c-1.401,0-2.101-0.948-2.101-2.843
			c0-0.906,0.165-1.601,0.493-2.085c0.329-0.485,0.86-0.727,1.592-0.727c1.396,0,2.093,0.938,2.093,2.813
			C57.627,29.798,56.935,30.745,55.55,30.745z M64.41,23.713c-0.255-0.032-0.499-0.048-0.731-0.048c-1.039,0-1.84,0.245-2.401,0.735
			c-0.562,0.49-0.842,1.18-0.842,2.071c0,0.554,0.132,1.038,0.397,1.451c0.265,0.413,0.61,0.711,1.035,0.894
			c-0.341,0.208-0.599,0.418-0.772,0.631c-0.173,0.213-0.26,0.473-0.26,0.779c0,0.243,0.075,0.474,0.226,0.694
			c0.151,0.22,0.343,0.38,0.575,0.479c-0.574,0.134-1.02,0.372-1.34,0.716c-0.319,0.344-0.479,0.768-0.479,1.273
			c0,0.732,0.295,1.297,0.883,1.693c0.588,0.396,1.442,0.594,2.56,0.594c1.45,0,2.558-0.252,3.325-0.757s1.15-1.222,1.15-2.152
			c0-0.727-0.235-1.284-0.705-1.67c-0.47-0.386-1.158-0.579-2.063-0.579h-1.432c-0.47,0-0.793-0.047-0.969-0.141
			c-0.175-0.094-0.264-0.235-0.264-0.423c0-0.312,0.188-0.584,0.564-0.817c0.213,0.04,0.45,0.06,0.713,0.06
			c1.024,0,1.828-0.243,2.412-0.727c0.584-0.485,0.875-1.15,0.875-1.997c0-0.282-0.042-0.549-0.126-0.801
			c-0.084-0.252-0.191-0.465-0.319-0.639l1.403-0.26v-0.958h-2.843C64.857,23.779,64.665,23.745,64.41,23.713z M63.011,31.993h1.321
			c0.693,0,1.166,0.075,1.421,0.226c0.255,0.151,0.382,0.405,0.382,0.761c0,0.45-0.232,0.811-0.697,1.084
			c-0.465,0.272-1.173,0.408-2.123,0.408c-0.614,0-1.09-0.101-1.429-0.304c-0.339-0.203-0.509-0.492-0.509-0.868
			c0-0.401,0.147-0.719,0.442-0.954C62.114,32.11,62.511,31.993,63.011,31.993z M63.664,28.074c-0.495,0-0.875-0.139-1.14-0.416
			c-0.265-0.277-0.397-0.673-0.397-1.188c0-0.549,0.13-0.967,0.39-1.254s0.642-0.431,1.147-0.431c0.509,0,0.889,0.144,1.14,0.434
			c0.25,0.289,0.375,0.701,0.375,1.236C65.179,27.534,64.674,28.074,63.664,28.074z M68.818,32.022h1.745V20.473h-1.745V32.022z
			 M75.79,23.665c-1.168,0-2.086,0.383-2.754,1.15c-0.668,0.767-1.002,1.821-1.002,3.162c0,1.306,0.36,2.332,1.08,3.077
			c0.72,0.745,1.719,1.117,2.995,1.117c0.559,0,1.057-0.042,1.492-0.126c0.435-0.084,0.866-0.227,1.292-0.431v-1.418
			c-0.48,0.213-0.929,0.365-1.347,0.457c-0.418,0.092-0.87,0.137-1.354,0.137c-0.737,0-1.309-0.214-1.715-0.642
			c-0.406-0.428-0.621-1.04-0.646-1.837H79.3v-0.943c0-1.153-0.314-2.059-0.943-2.717C77.729,23.993,76.874,23.665,75.79,23.665z
			 M73.86,27.049c0.064-0.673,0.264-1.185,0.597-1.537c0.334-0.351,0.778-0.527,1.332-0.527s0.989,0.174,1.306,0.523
			c0.317,0.349,0.48,0.862,0.49,1.54L73.86,27.049L73.86,27.049z M88.361,23.665c-1.088,0-1.905,0.416-2.45,1.247h-0.089
			c-0.124-0.579-0.205-0.945-0.245-1.098h-1.41v11.861h1.745v-3.362c0-0.148-0.035-0.569-0.104-1.262h0.104
			c0.574,0.747,1.38,1.121,2.42,1.121c1.024,0,1.827-0.376,2.408-1.128c0.582-0.752,0.872-1.798,0.872-3.139
			s-0.286-2.382-0.857-3.125C90.183,24.036,89.385,23.665,88.361,23.665z M89.333,30.003c-0.327,0.495-0.792,0.742-1.396,0.742
			c-0.718,0-1.235-0.224-1.551-0.671c-0.317-0.448-0.475-1.171-0.475-2.171v-0.26c0-0.891,0.16-1.539,0.479-1.945
			c0.319-0.405,0.825-0.609,1.518-0.609c0.628,0,1.105,0.236,1.428,0.709c0.324,0.473,0.486,1.169,0.486,2.089
			C89.823,28.803,89.66,29.508,89.333,30.003z M93.106,32.022h1.745V20.473h-1.745V32.022z M100.033,23.665
			c-0.47,0-0.97,0.061-1.499,0.182c-0.53,0.122-1.017,0.298-1.462,0.531l0.564,1.247c0.356-0.168,0.727-0.314,1.114-0.438
			c0.386-0.124,0.789-0.186,1.21-0.186c0.514,0,0.894,0.13,1.14,0.39s0.367,0.652,0.367,1.176v0.438l-1.418,0.044
			c-1.287,0.04-2.244,0.274-2.872,0.705c-0.628,0.431-0.943,1.069-0.943,1.915c0,0.797,0.226,1.413,0.679,1.848
			c0.453,0.435,1.083,0.653,1.889,0.653c0.628,0,1.143-0.091,1.544-0.271c0.401-0.181,0.799-0.521,1.195-1.02h0.06l0.349,1.143
			h1.247v-5.529c0-0.975-0.266-1.689-0.798-2.145C101.865,23.892,101.077,23.665,100.033,23.665z M101.451,28.816
			c0,0.639-0.192,1.135-0.575,1.488c-0.384,0.353-0.892,0.531-1.525,0.531c-0.435,0-0.762-0.1-0.979-0.3
			c-0.218-0.201-0.327-0.484-0.327-0.85c0-0.505,0.187-0.879,0.561-1.124c0.374-0.245,0.971-0.382,1.793-0.412l1.054-0.044
			L101.451,28.816L101.451,28.816z M110.115,23.813c-1.138,3.301-1.767,5.145-1.885,5.533c-0.119,0.388-0.2,0.719-0.245,0.991h-0.06
			c-0.084-0.584-0.252-1.207-0.505-1.871l-1.67-4.654h-1.9l3.295,8.209l-0.304,0.772c-0.341,0.975-0.933,1.462-1.774,1.462
			c-0.336,0-0.636-0.03-0.898-0.089v1.38c0.366,0.084,0.742,0.126,1.128,0.126c1.489,0,2.553-0.853,3.191-2.561l3.511-9.3h-1.885
			V23.813z"/>
	</g>
</g>
<path class="st0" d="M26.377,23.508v0.003l-0.048,0.027c-0.008,0.004-0.014,0.008-0.022,0.012l-2.931,1.619l-2.962-2.819
	l2.924-2.767l2.975,1.662c0.003,0.002,0.006,0.003,0.009,0.005l0.055,0.031v0.003C26.75,21.514,27,21.926,27,22.397
	C27,22.867,26.75,23.279,26.377,23.508z M19.517,21.496l-9.172-8.728c0.118-0.035,0.244-0.055,0.374-0.055
	c0.282,0,0.543,0.09,0.756,0.242l10.731,5.996L19.517,21.496z M9.46,31.018c-0.031-0.11-0.048-0.227-0.048-0.347
	c0-0.063,0.006-0.125,0.014-0.185v-16.28c-0.009-0.061-0.014-0.122-0.014-0.185c0-0.131,0.02-0.257,0.055-0.376l9.171,8.684
	L9.46,31.018z M19.538,23.18l2.741,2.596l-10.928,6.039c-0.005,0.003-0.011,0.006-0.016,0.009l-0.014,0.008L11.32,31.83
	c-0.18,0.094-0.384,0.147-0.601,0.147c-0.143,0-0.279-0.024-0.408-0.066L19.538,23.18z"/>
</svg>
