<?xml version="1.0" encoding="utf-8"?>
<!-- Generator: Adobe Illustrator 21.0.2, SVG Export Plug-In . SVG Version: 6.00 Build 0)  -->
<svg version="1.1" id="Слой_1" xmlns="http://www.w3.org/2000/svg" xmlns:xlink="http://www.w3.org/1999/xlink" x="0px" y="0px"
	 viewBox="0 0 122 45" style="enable-background:new 0 0 122 45;" xml:space="preserve">
<style type="text/css">
	.st0{fill:#FFFFFF;}
</style>
<g>
	<g>
		<path class="st0" d="M118.961,0H3C1.343,0,0,1.343,0,3v39.055c0,1.657,1.343,3,3,3h115.962c1.657,0,3-1.343,3-3V3
			C121.961,1.343,120.618,0,118.961,0z M121.021,40.986c0,2.099-0.681,3-3,3H3.999c-2.172,0-3-0.607-3-3V3.999c0-2.245,0.754-3,3-3
			h114.022c2.172,0,3,0.828,3,3V40.986z"/>
	</g>
</g>
<path class="st0" d="M19.382,13.192c0.773-0.909,2.08-1.584,3.158-1.63c0.138,1.262-0.368,2.525-1.117,3.436
	c-0.749,0.909-1.976,1.617-3.179,1.523C18.081,15.286,18.687,13.999,19.382,13.192z M25.515,30.405
	c-0.894,1.311-1.819,2.615-3.28,2.642c-1.438,0.028-1.898-0.853-3.539-0.853c-1.642,0-2.156,0.826-3.513,0.881
	c-1.41,0.053-2.483-1.417-3.384-2.722c-1.842-2.67-3.249-7.548-1.357-10.84c0.936-1.635,2.614-2.669,4.433-2.697
	c1.385-0.026,2.693,0.936,3.539,0.936c0.848,0,2.435-1.155,4.105-0.985c0.699,0.029,2.66,0.282,3.92,2.131
	c-0.099,0.065-2.341,1.373-2.314,4.097c0.027,3.254,2.844,4.335,2.877,4.35C26.974,27.421,26.549,28.888,25.515,30.405z"/>
<g>
	<g>
		<path class="st0" d="M35.893,20.857L31.287,33.22h2.122l1.205-3.419h4.708l1.23,3.419h2.139l-4.606-12.363H35.893z M35.203,28.066
			l1.112-3.208c0.292-0.819,0.514-1.575,0.666-2.265c0.056,0.224,0.158,0.579,0.308,1.061c0.149,0.483,0.265,0.837,0.349,1.062
			l1.154,3.352L35.203,28.066L35.203,28.066z M48.862,23.737c-1.236,0-2.162,0.471-2.779,1.415h-0.101
			c-0.14-0.657-0.233-1.072-0.278-1.246h-1.6v13.458h1.979v-3.815c0-0.168-0.04-0.645-0.118-1.432h0.118
			c0.651,0.848,1.566,1.271,2.746,1.271c1.162,0,2.073-0.427,2.733-1.28s0.99-2.04,0.99-3.562S52.227,25.843,51.578,25
			C50.93,24.158,50.024,23.737,48.862,23.737z M49.965,30.929c-0.371,0.561-0.898,0.842-1.583,0.842
			c-0.814,0-1.401-0.254-1.76-0.762c-0.359-0.508-0.539-1.329-0.539-2.463v-0.295c0-1.011,0.181-1.746,0.543-2.207
			c0.362-0.461,0.936-0.691,1.722-0.691c0.713,0,1.253,0.268,1.621,0.804c0.368,0.536,0.551,1.326,0.551,2.37
			C50.522,29.567,50.336,30.367,49.965,30.929z M59.609,23.737c-1.235,0-2.161,0.471-2.779,1.415h-0.101
			c-0.14-0.657-0.233-1.072-0.278-1.246h-1.6v13.458h1.979v-3.815c0-0.168-0.04-0.645-0.118-1.432h0.118
			c0.651,0.848,1.566,1.271,2.746,1.271c1.162,0,2.073-0.427,2.733-1.28c0.66-0.853,0.99-2.04,0.99-3.562S62.973,25.843,62.325,25
			C61.676,24.158,60.771,23.737,59.609,23.737z M60.711,30.929c-0.371,0.561-0.898,0.842-1.583,0.842
			c-0.814,0-1.401-0.254-1.76-0.762c-0.359-0.508-0.539-1.329-0.539-2.463v-0.295c0-1.011,0.181-1.746,0.543-2.207
			c0.362-0.461,0.936-0.691,1.722-0.691c0.713,0,1.253,0.268,1.621,0.804c0.368,0.536,0.552,1.326,0.552,2.37
			C61.268,29.567,61.082,30.367,60.711,30.929z M76.165,27.324c-0.421-0.326-1.084-0.676-1.987-1.053
			c-0.803-0.331-1.359-0.598-1.667-0.8c-0.309-0.202-0.53-0.417-0.666-0.644c-0.134-0.228-0.202-0.501-0.202-0.822
			c0-0.466,0.168-0.841,0.505-1.124c0.337-0.284,0.831-0.425,1.482-0.425c0.859,0,1.836,0.23,2.931,0.691l0.64-1.642
			c-1.168-0.516-2.341-0.775-3.52-0.775c-1.23,0-2.209,0.295-2.939,0.885c-0.73,0.589-1.095,1.398-1.095,2.426
			c0,0.82,0.23,1.522,0.691,2.105c0.46,0.584,1.252,1.103,2.375,1.558c1.089,0.438,1.808,0.817,2.156,1.137
			c0.348,0.32,0.522,0.71,0.522,1.171c0,0.511-0.19,0.918-0.569,1.221s-0.967,0.455-1.764,0.455c-0.545,0-1.133-0.076-1.764-0.227
			c-0.632-0.152-1.228-0.359-1.79-0.623v1.903c0.887,0.432,2.027,0.648,3.419,0.648s2.485-0.312,3.276-0.935
			c0.791-0.623,1.187-1.482,1.187-2.577c0-0.556-0.098-1.039-0.295-1.448C76.895,28.018,76.587,27.65,76.165,27.324z M82.09,31.447
			c-0.239-0.227-0.358-0.58-0.358-1.057v-4.985h2.653v-1.499h-2.653v-2.071h-1.221l-0.673,1.971l-1.364,0.724v0.876h1.271v5.019
			c0,1.977,0.938,2.965,2.813,2.965c0.371,0,0.728-0.032,1.074-0.097c0.345-0.065,0.627-0.144,0.847-0.24v-1.491
			c-0.483,0.152-0.966,0.228-1.448,0.228C82.641,31.788,82.329,31.674,82.09,31.447z M90.221,23.737
			c-1.409,0-2.501,0.424-3.276,1.271c-0.775,0.848-1.162,2.027-1.162,3.537c0,0.972,0.18,1.825,0.539,2.56
			c0.359,0.735,0.873,1.3,1.541,1.693c0.668,0.393,1.437,0.589,2.308,0.589c1.392,0,2.479-0.427,3.259-1.28
			c0.781-0.853,1.171-2.04,1.171-3.562c0-1.471-0.393-2.64-1.179-3.507C92.635,24.17,91.569,23.737,90.221,23.737z M90.204,31.771
			c-1.589,0-2.383-1.075-2.383-3.226c0-1.028,0.187-1.816,0.56-2.367c0.373-0.55,0.975-0.825,1.806-0.825
			c1.583,0,2.375,1.064,2.375,3.192C92.562,30.696,91.776,31.771,90.204,31.771z M99.994,24.226c-0.497,0.326-0.9,0.766-1.209,1.322
			h-0.101l-0.261-1.642h-1.55v9.314h1.979v-4.868c0-0.825,0.246-1.496,0.737-2.012c0.492-0.517,1.133-0.775,1.924-0.775
			c0.303,0,0.595,0.034,0.876,0.101l0.193-1.844c-0.258-0.056-0.586-0.084-0.985-0.084C101.026,23.737,100.491,23.9,99.994,24.226z
			 M111.999,27.939c0-1.308-0.356-2.336-1.069-3.083c-0.713-0.747-1.684-1.12-2.914-1.12c-1.325,0-2.367,0.436-3.124,1.305
			c-0.758,0.87-1.137,2.066-1.137,3.588c0,1.482,0.408,2.646,1.225,3.491c0.816,0.845,1.949,1.268,3.398,1.268
			c0.635,0,1.199-0.048,1.693-0.144c0.494-0.096,0.983-0.258,1.465-0.488v-1.609c-0.545,0.241-1.054,0.414-1.529,0.518
			c-0.474,0.104-0.987,0.156-1.537,0.156c-0.837,0-1.485-0.243-1.946-0.729c-0.461-0.486-0.704-1.18-0.732-2.084H112L111.999,27.939
			L111.999,27.939z M105.826,27.577c0.073-0.764,0.299-1.345,0.678-1.744s0.883-0.598,1.511-0.598s1.123,0.198,1.482,0.594
			c0.359,0.396,0.545,0.978,0.556,1.748H105.826z M35.369,15.97c0.626,0,1.152-0.08,1.579-0.24v-0.627
			c-0.551,0.155-1.04,0.231-1.47,0.231c-0.699,0-1.238-0.22-1.615-0.659c-0.377-0.439-0.566-1.062-0.566-1.867
			c0-0.783,0.195-1.4,0.587-1.851s0.926-0.676,1.602-0.676c0.466,0,0.932,0.109,1.398,0.328l0.303-0.615
			c-0.483-0.236-1.047-0.354-1.693-0.354c-0.607,0-1.133,0.129-1.581,0.387c-0.448,0.258-0.791,0.626-1.028,1.103
			c-0.237,0.477-0.356,1.033-0.356,1.667c0,1.013,0.247,1.795,0.739,2.345C33.763,15.695,34.463,15.97,35.369,15.97z M38.885,13.549
			l2.105,2.337h0.817l-2.156-2.388l1.992-2.227h-0.766l-1.992,2.245v-2.245h-0.699v4.615h0.699
			C38.885,15.886,38.885,13.549,38.885,13.549z M45.328,15.229h0.034l0.139,0.657h0.518v-3.149c0-0.539-0.133-0.931-0.398-1.175
			c-0.265-0.244-0.673-0.367-1.223-0.367c-0.272,0-0.544,0.035-0.815,0.106c-0.271,0.07-0.52,0.167-0.747,0.29l0.215,0.535
			c0.486-0.236,0.921-0.354,1.305-0.354c0.343,0,0.592,0.086,0.747,0.259c0.156,0.172,0.234,0.44,0.234,0.802v0.286l-0.783,0.025
			c-1.491,0.045-2.236,0.533-2.236,1.465c0,0.435,0.13,0.77,0.39,1.006c0.259,0.236,0.618,0.354,1.076,0.354
			c0.342,0,0.628-0.051,0.857-0.154C44.868,15.714,45.098,15.518,45.328,15.229z M43.28,15.195
			c-0.153-0.132-0.229-0.324-0.229-0.577c0-0.323,0.123-0.561,0.369-0.714c0.246-0.153,0.646-0.239,1.202-0.259l0.699-0.029v0.417
			c0,0.429-0.124,0.763-0.372,1.002c-0.249,0.239-0.59,0.358-1.026,0.358C43.646,15.393,43.432,15.327,43.28,15.195z M48.849,14.349
			c0.317,0,0.602-0.042,0.852-0.124c0.252-0.083,0.524-0.225,0.819-0.428v2.089h0.699V11.27H50.52v1.975
			c-0.295,0.188-0.558,0.321-0.792,0.4c-0.233,0.078-0.477,0.118-0.732,0.118c-0.615,0-0.922-0.27-0.922-0.809V11.27h-0.699v1.735
			c0,0.413,0.131,0.74,0.392,0.981C48.027,14.228,48.388,14.349,48.849,14.349z M55.367,15.229H55.4l0.139,0.657h0.518v-3.149
			c0-0.539-0.133-0.931-0.398-1.175c-0.265-0.244-0.673-0.367-1.223-0.367c-0.272,0-0.544,0.035-0.815,0.106
			c-0.271,0.07-0.52,0.167-0.747,0.29l0.215,0.535c0.486-0.236,0.921-0.354,1.305-0.354c0.342,0,0.592,0.086,0.747,0.259
			c0.156,0.172,0.234,0.44,0.234,0.802v0.286l-0.783,0.025c-1.491,0.045-2.236,0.533-2.236,1.465c0,0.435,0.13,0.77,0.39,1.006
			c0.259,0.236,0.618,0.354,1.076,0.354c0.342,0,0.628-0.051,0.857-0.154C54.907,15.714,55.137,15.518,55.367,15.229z M53.96,15.393
			c-0.275,0-0.489-0.066-0.642-0.198c-0.153-0.132-0.229-0.324-0.229-0.577c0-0.323,0.123-0.561,0.369-0.714
			s0.646-0.239,1.202-0.259l0.699-0.029v0.417c0,0.429-0.124,0.763-0.372,1.002C54.737,15.274,54.396,15.393,53.96,15.393z
			 M59.472,10.66c0.517,0,0.9-0.104,1.149-0.313c0.25-0.209,0.392-0.535,0.425-0.979h-0.661c-0.031,0.275-0.116,0.474-0.254,0.598
			c-0.139,0.124-0.353,0.185-0.642,0.185c-0.317,0-0.54-0.057-0.668-0.172c-0.128-0.115-0.204-0.318-0.229-0.611h-0.657
			c0.028,0.461,0.161,0.791,0.4,0.992C58.574,10.56,58.952,10.66,59.472,10.66z M60.861,11.961l-0.021,0.548l-0.013,0.556v2.821
			h0.653V11.27h-0.872l-2.497,3.933l0.013-0.24l0.029-0.766V11.27h-0.657v4.615h0.872L60.861,11.961z M68.488,13.204h-2.585v-1.933
			h-0.699v4.615h0.699v-2.08h2.585v2.08h0.699v-4.615h-0.699V13.204z M71.789,15.97c0.343,0,0.628-0.051,0.857-0.154
			c0.229-0.102,0.459-0.298,0.689-0.587h0.034l0.139,0.657h0.518v-3.149c0-0.539-0.133-0.931-0.398-1.175
			c-0.265-0.244-0.673-0.367-1.223-0.367c-0.272,0-0.544,0.035-0.815,0.106c-0.271,0.07-0.52,0.167-0.747,0.29l0.215,0.535
			c0.486-0.236,0.921-0.354,1.305-0.354c0.342,0,0.592,0.086,0.747,0.259s0.234,0.44,0.234,0.802v0.286l-0.783,0.025
			c-1.491,0.045-2.236,0.533-2.236,1.465c0,0.435,0.13,0.77,0.39,1.006C70.973,15.852,71.331,15.97,71.789,15.97z M71.425,13.905
			c0.246-0.153,0.646-0.239,1.202-0.259l0.699-0.029v0.417c0,0.429-0.124,0.763-0.373,1.002c-0.248,0.239-0.59,0.358-1.025,0.358
			c-0.275,0-0.489-0.066-0.642-0.198c-0.153-0.132-0.229-0.324-0.229-0.577C71.056,14.296,71.179,14.058,71.425,13.905z"/>
	</g>
</g>
</svg>
