<svg xmlns="http://www.w3.org/2000/svg" xmlns:xlink="http://www.w3.org/1999/xlink" width="36" height="33" viewBox="0 0 36 33"><defs><path id="sa2sa" d="M667.76 408.84v6.55a.5.5 0 1 1-.98 0v-6.55l-.01-.17-1.33 1.33c-.2.2-.32.48-.32.77v4.62a.5.5 0 1 1-.98 0v-4.62c0-.56.21-1.08.6-1.47l1.58-1.58a1.61 1.61 0 0 0-.5-.36l-2.83-1.25-2.09 2.1v7.18a.5.5 0 1 1-.99 0v-7.19l-2.1-2.1-2.81 1.26c-.2.09-.37.21-.51.36l1.58 1.58c.39.39.6.91.6 1.47v4.62a.5.5 0 1 1-.98 0v-4.62c0-.3-.12-.57-.32-.77l-1.32-1.33-.01.17v6.55a.5.5 0 1 1-1 0v-6.55c0-1.03.62-1.96 1.56-2.38l2.87-1.28c.2-.09.33-.29.33-.5v-.8a4.18 4.18 0 0 1-1.58-3.28v-.21a1.04 1.04 0 0 1-.53-.92v-.98a4.2 4.2 0 0 1 4.19-4.19h1.05a4.2 4.2 0 0 1 4.2 4.2v.1c0 .38-.22.72-.53.9v1.1c0 1.33-.62 2.51-1.59 3.28v.8c0 .21.13.41.34.5l2.87 1.28a2.6 2.6 0 0 1 1.54 2.38zm-5.52-3.38c-.14-.23-.22-.5-.22-.79v-.2a4.17 4.17 0 0 1-3.23 0v.2c0 .29-.08.56-.22.8l1.84 1.83zm1.37-4.86v-.89c-1.36.17-3.6.14-5.14-1.4a.5.5 0 0 1 .7-.7c.5.5 1.99 1.6 4.94 1.02.02 0 .03-.01.03-.03v-.1a3.2 3.2 0 0 0-3.2-3.21h-1.06a3.2 3.2 0 0 0-3.2 3.2v.98a.1.1 0 0 0 0 .04h.02c.24-.06.48-.2.73-.44a.5.5 0 1 1 .67.73c-.29.27-.59.46-.9.58v.22a3.2 3.2 0 0 0 6.4 0zm-16.97 8.86v5.93a.5.5 0 1 1-.98 0v-5.93l-.02-.25-.79.79c-.2.2-.32.48-.32.77v4.62a.5.5 0 1 1-.99 0v-4.62c0-.56.22-1.08.61-1.47l1-1a1.6 1.6 0 0 0-.54-.35l-1.8-.67-1.97 1.98v6.13a.5.5 0 1 1-1 0v-6.13l-1.97-1.98-1.8.67c-.2.08-.39.2-.54.34l1 1c.4.4.6.92.6 1.48v4.62a.5.5 0 1 1-.98 0v-4.62c0-.3-.11-.57-.32-.77l-.78-.79a1.6 1.6 0 0 0-.02.25v5.93a.5.5 0 1 1-1 0v-5.93c0-1.08.69-2.06 1.7-2.44l2.17-.81c.22-.08.36-.3.36-.53v-.38a4.2 4.2 0 0 1-2.1-3.64v-1.58c0-1.34.62-2.54 1.6-3.3a2.6 2.6 0 1 1 5.15 0 4.19 4.19 0 0 1 1.62 3.3v1.58a4.2 4.2 0 0 1-2.11 3.64v.38c0 .23.15.45.36.53l2.17.81a2.62 2.62 0 0 1 1.7 2.44zm-7.9-13.25a4.17 4.17 0 0 1 3.21 0 1.62 1.62 0 0 0-3.22 0zm-1.6 3.87v.3c.44-.25.95-.6 1.18-1.05a.5.5 0 0 1 .7-.2c.01 0 2.22 1.31 4.52 1.49v-.54a3.2 3.2 0 0 0-6.4 0zm3.2 4.78a3.2 3.2 0 0 0 3.2-3.2v-.05a12.41 12.41 0 0 1-4.62-1.4 4.76 4.76 0 0 1-1.78 1.26v.2a3.2 3.2 0 0 0 3.2 3.2zm1.56 1.93a1.56 1.56 0 0 1-.47-1.08 4.17 4.17 0 0 1-2.18 0c0 .41-.18.8-.47 1.08l1.56 1.57zm8.97-17.28a.5.5 0 0 1-.5.5h-1.05a.5.5 0 0 1 0-1h1.05c.28 0 .5.23.5.5zm-3.17 0a.5.5 0 0 1-.5.5h-4.22a.5.5 0 0 1 0-1h4.23c.27 0 .49.23.49.5zm3.17 2.64a.5.5 0 0 1-.5.5h-4.22a.5.5 0 0 1 0-.99h4.22c.28 0 .5.22.5.5zm-6.34 0a.5.5 0 0 1-.5.5h-1.05a.5.5 0 0 1 0-.99h1.06c.27 0 .5.22.5.5zm9.5-3.7v4.76a2.6 2.6 0 0 1-2.6 2.6h-.78a7.44 7.44 0 0 1-3.32 2.66c-.13.06-.27.09-.4.09a1.02 1.02 0 0 1-.91-1.5c.22-.44.4-.9.52-1.24h-1.97a.5.5 0 0 1 0-1h2.64a.5.5 0 0 1 .47.62 10.73 10.73 0 0 1-.78 2.11 6.38 6.38 0 0 0 3.05-2.48.5.5 0 0 1 .42-.24h1.06c.9 0 1.62-.73 1.62-1.62v-4.75c0-.9-.73-1.62-1.62-1.62h-9.5c-.9 0-1.62.72-1.62 1.62v3.7a.5.5 0 1 1-1 0v-3.7a2.6 2.6 0 0 1 2.62-2.6h9.5a2.6 2.6 0 0 1 2.6 2.6zm-3.7 12.68v2.64a.5.5 0 1 1-.98 0v-2.64a.5.5 0 0 1 .99 0zm.01 4.23a.5.5 0 0 1-.49.5.5.5 0 1 1 0-1c.27 0 .5.22.5.5zm5.98-1.6a.91.91 0 0 1-.64.86l-1.5.48a4.73 4.73 0 0 1-7.85 1.3c-.9-1-1.32-2.35-1.17-3.7a4.63 4.63 0 0 1 4.03-4.13 4.7 4.7 0 0 1 5.3 3.82c.17.08.53.22 1.24.5.37.13.6.48.59.88zm-1.13-.02l-.85-.34c-.52-.2-.76-.3-.8-.62a3.7 3.7 0 0 0-4.22-3.23c-1.71.23-2.99 1.54-3.18 3.27a3.7 3.7 0 0 0 3.7 4.16c1.56 0 2.97-.99 3.5-2.45a.5.5 0 0 1 .32-.3z"/></defs><g><g transform="translate(-633 -384)"><use fill="#007a6c" xlink:href="#sa2sa"/></g></g></svg>