<svg xmlns="http://www.w3.org/2000/svg" xmlns:xlink="http://www.w3.org/1999/xlink" width="32" height="32" viewBox="0 0 32 32"><defs><path id="xy2xa" d="M644.63 319.09a.74.74 0 1 1 1.05-1.05l1.72 1.72 4.94-4.95a.74.74 0 1 1 1.05 1.05l-5.46 5.46a.74.74 0 0 1-1.05 0zm-4.08-12.37a.74.74 0 0 1 .2-1.03.74.74 0 0 1 .83 1.24.74.74 0 0 1-1.03-.21zm-2.05 1.88a.74.74 0 1 1 1.04-1.05.74.74 0 0 1-1.04 1.05zm4.42-3.31a.75.75 0 0 1 .4-.97c.37-.16.81.02.97.4a.75.75 0 0 1-.69 1.02.74.74 0 0 1-.68-.45zm-6.28 4.51a.74.74 0 0 1 1.04-.2.74.74 0 0 1-.42 1.35.74.74 0 0 1-.62-1.15zm-1.37 2.57a.74.74 0 1 1 1.37.57.74.74 0 0 1-1.37-.57zm10.25-8.02a.74.74 0 1 1 .87.58l-.14.01a.75.75 0 0 1-.73-.6zm-11.1 10.8a.74.74 0 1 1 1.45.3.75.75 0 0 1-.73.6l-.14-.02a.74.74 0 0 1-.58-.87zm29.47 2.92c0 3.97-1.55 7.7-4.36 10.51a14.78 14.78 0 0 1-10.52 4.36c-3.97 0-7.7-1.55-10.51-4.36a14.78 14.78 0 0 1-4.36-10.51c0-.41.33-.75.74-.75.4 0 .55.34.55.75 0 7.38 6.2 13.58 13.58 13.58 7.4 0 13.59-6.2 13.59-13.58 0-7.4-6.2-13.59-13.59-13.59-.4 0-.74-.14-.74-.55 0-.4.34-.74.74-.74 3.98 0 7.71 1.55 10.52 4.36 2.81 2.8 4.36 6.54 4.36 10.52z"/></defs><g><g transform="translate(-633 -302)"><use fill="#007a6c" xlink:href="#xy2xa"/></g></g></svg>