<?xml version="1.0" encoding="utf-8"?>
<!-- Generator: Adobe Illustrator 16.0.0, SVG Export Plug-In . SVG Version: 6.00 Build 0)  -->
<!DOCTYPE svg PUBLIC "-//W3C//DTD SVG 1.1//EN" "http://www.w3.org/Graphics/SVG/1.1/DTD/svg11.dtd">
<svg version="1.1" xmlns="http://www.w3.org/2000/svg" xmlns:xlink="http://www.w3.org/1999/xlink" x="0px" y="0px" width="386.5px"
	 height="386.5px" viewBox="0 113.5 386.5 386.5" enable-background="new 0 113.5 386.5 386.5" xml:space="preserve">
<g id="Layer_2" display="none">
	<path display="inline" fill="#FFFFFF" stroke="#EF4D94" stroke-width="3" stroke-linejoin="round" stroke-miterlimit="10" d="
		M178.116,238.088c0,0,63.509,37.764,71.75,45.872c6.242,6.142,11.599,21.603-4.781,34.082
		c-16.145,12.301-26.394,17.939-42.583,33.252c-17.781,16.817-34.782,32.807-34.782,32.807l-14.763-12.755
		c0,0,24.793-33.644,30.715-41.958"/>
	<g display="inline">
		<path fill="#FFFFFF" stroke="#EF4D94" stroke-width="3" stroke-miterlimit="10" d="M154.494,368.397
			c-2.907,2.849-11.838,12.521-13.63,14.54c-1.792,2.018-4.479,4.703,3.75,10.011c6.997,4.512,19.968,16.61,27.484,21.631
			c7.52,5.022,20.646,5.645,20.646,5.645s1.823-3.497,3-6.682c1.179-3.185-3.988-0.715-7.512-7.098
			c-4.734-8.575-9.732-30.486-9.732-30.486"/>
	</g>
	
		<circle display="inline" fill="#FFFFFF" stroke="#EF4D94" stroke-width="3" stroke-linejoin="round" stroke-miterlimit="10" cx="360.498" cy="409.733" r="9.594"/>
	<path display="inline" fill="#FFFFFF" stroke="#EF4D94" stroke-width="3" stroke-linejoin="round" stroke-miterlimit="10" d="
		M122.123,248.138c0,0-11.535,11.93,2.265,17.418c2.673,1.062,13.971,3.443,13.971,3.443"/>
	<path display="inline" fill="#EF4D94" stroke="#EF4D94" stroke-width="2" stroke-miterlimit="10" d="M205.628,430.095
		c0.162,0.447,1.897,0.863,2.277,1.197c0.557,0.492,1.249,0.734,1.938,0.734c0.81,0,1.617-0.334,2.195-0.986l100.526-125.885
		l44.957,103.846c0.469,1.129,1.559,1.809,2.704,1.809c0.376,0,0.756-0.072,1.123-0.223c1.492-0.619,2.202-2.332,1.581-3.826
		l-53.479-125.41c0-0.004,0-0.004-0.002-0.008l-8.66-20.9c-0.069-0.172-0.157-0.33-0.258-0.479
		c4.336-2.492,10.723-7.472,11.498-15.458c0.472-4.835-0.716-8.854-3.523-11.948c-5.135-5.66-13.822-6.271-17.32-6.271
		c-0.809,0-1.463,0.655-1.463,1.464c0,0.808,0.654,1.463,1.463,1.463c2.425,0,5.542,0.093,10.014,5.02
		c2.229,2.457,5.165,5.85,4.779,9.829c-0.985,10.127-12.137,11.221-12.261,11.268c-0.759,0.283-0.601,2.783-0.321,3.541
		c0.106,0.283,0.292,0.514,0.519,0.678c0.018,0.326,0.085,0.652,0.217,0.969l8.614,19.949l-136.607,37.275l-24.786-56.691
		c-0.283-0.758,0.552-4.637-0.206-4.35c-0.755,0.285-8.692,0.309-8.406,1.066 M210.491,422.843l-42.284-98.984l136.795-37.943
		l5.067,13.221L210.491,422.843z"/>
	<path display="inline" fill="#FFFFFF" stroke="#EF4D94" stroke-width="3" stroke-miterlimit="10" d="M244.606,461.013"/>
	<g display="inline">
		<g>
			<path fill="#FFFFFF" d="M215.577,449.024c-5.51,0-10.801-2.643-15.726-7.853c-8.282-8.766-7.892-22.636,0.87-30.919
				c4.079-3.855,9.415-5.979,15.024-5.979c6.079,0,11.726,2.433,15.9,6.849c8.283,8.765,7.892,22.636-0.873,30.921
				c-4.9,4.632-10.013,6.98-15.194,6.98C215.577,449.024,215.578,449.024,215.577,449.024z M219.247,432.698
				c-0.641,0-0.854,0.626-0.923,1l-1.144,6.093c-0.087,0.465-0.012,0.868,0.212,1.139c0.215,0.26,0.56,0.397,0.996,0.397
				c0.05,0,0.102-0.002,0.153-0.006c0.008-0.001,1.584-0.142,3.841-1.213c2.258-1.073,3.348-2.19,3.359-2.202
				c0.333-0.354,0.486-0.747,0.429-1.105c-0.057-0.36-0.326-0.688-0.756-0.924l-5.435-2.963
				C219.722,432.772,219.468,432.698,219.247,432.698z M209.623,430.908c-0.086,0-0.175,0.007-0.266,0.019l-6.144,0.796
				c-0.485,0.063-0.853,0.271-1.036,0.583c-0.183,0.313-0.183,0.735,0.001,1.188c0.002,0.006,0.623,1.458,2.339,3.273
				c1.712,1.812,3.128,2.513,3.142,2.52c0.239,0.113,0.478,0.173,0.702,0.173c0.578,0,0.986-0.406,1.119-1.113l1.14-6.085
				c0.082-0.439,0.022-0.809-0.17-1.039C210.235,430.963,209.881,430.908,209.623,430.908z M205.489,415.123
				c-0.301,0-0.621,0.135-0.924,0.39c-0.005,0.004-1.195,1.044-2.391,3.239c-1.199,2.197-1.423,3.742-1.425,3.757
				c-0.058,0.455,0.036,0.849,0.263,1.106c0.208,0.236,0.528,0.361,0.923,0.361c0.086,0,0.175-0.006,0.266-0.018l6.146-0.797
				c0.466-0.062,0.807-0.247,0.958-0.523c0.15-0.276,0.122-0.663-0.081-1.09l-2.652-5.599
				C206.319,415.417,205.935,415.123,205.489,415.123z"/>
			<path fill="#EF4D94" d="M215.745,405.774c5.407,0,10.803,2.14,14.81,6.379c7.728,8.178,7.364,21.07-0.813,28.801
				c-4.627,4.374-9.419,6.57-14.165,6.57c-5.014,0-9.976-2.453-14.636-7.383c-7.727-8.178-7.365-21.07,0.81-28.799
				C205.69,407.62,210.722,405.774,215.745,405.774 M201.936,425.477c0.149,0,0.303-0.01,0.46-0.03l6.145-0.797
				c1.977-0.258,2.895-1.941,2.039-3.744l-2.652-5.598c-0.522-1.099-1.449-1.685-2.438-1.685c-0.634,0-1.294,0.241-1.889,0.741
				c0,0-1.373,1.154-2.743,3.67c-1.367,2.506-1.595,4.283-1.595,4.283C199.032,424.141,200.208,425.477,201.936,425.477
				 M208.361,440.96c1.265,0,2.319-0.877,2.593-2.336l1.14-6.086c0.338-1.806-0.751-3.13-2.471-3.13c-0.148,0-0.3,0.01-0.457,0.03
				l-6.146,0.797c-1.977,0.256-2.981,1.975-2.232,3.822c0,0,0.673,1.66,2.639,3.74c1.962,2.076,3.583,2.842,3.583,2.842
				C207.47,440.856,207.928,440.96,208.361,440.96 M218.388,442.827c0.085,0,0.173-0.004,0.261-0.01c0,0,1.791-0.127,4.377-1.354
				c2.576-1.225,3.806-2.527,3.806-2.527c1.367-1.451,1.052-3.418-0.697-4.375l-5.437-2.965c-0.495-0.271-0.989-0.398-1.452-0.398
				c-1.17,0-2.136,0.82-2.398,2.225l-1.143,6.092C215.354,441.385,216.548,442.827,218.388,442.827 M215.745,402.774
				c-5.994,0-11.696,2.269-16.054,6.388c-9.363,8.853-9.78,23.674-0.93,33.04c5.22,5.522,10.877,8.322,16.816,8.322
				c5.578,0,11.037-2.486,16.225-7.39c9.366-8.854,9.784-23.676,0.934-33.042C228.339,405.441,222.146,402.774,215.745,402.774
				L215.745,402.774z M202.295,422.435c0.116-0.477,0.436-1.571,1.196-2.964c0.754-1.384,1.493-2.244,1.849-2.617l2.315,4.886
				L202.295,422.435L202.295,422.435z M203.694,433.173l5.359-0.694l-0.995,5.312c-0.42-0.259-1.361-0.901-2.45-2.054
				C204.527,434.595,203.939,433.627,203.694,433.173L203.694,433.173z M218.708,439.78l0.996-5.309l4.743,2.587
				c-0.375,0.318-1.278,1.016-2.71,1.696C220.32,439.427,219.217,439.688,218.708,439.78L218.708,439.78z"/>
		</g>
	</g>
	
		<line display="inline" fill="#FFFFFF" stroke="#EF4D94" stroke-width="3" stroke-miterlimit="10" x1="222.575" y1="459.282" x2="252.218" y2="456.577"/>
	
		<line display="inline" fill="#EF4D94" stroke="#EF4D94" stroke-width="6" stroke-linecap="round" stroke-miterlimit="10" x1="165.512" y1="322.261" x2="102.536" y2="407.868"/>
	
		<line display="inline" fill="#EF4D94" stroke="#EF4D94" stroke-width="6" stroke-linecap="round" stroke-miterlimit="10" x1="197.465" y1="422.61" x2="102.438" y2="408.729"/>
	<g display="inline">
		<defs>
			<polygon id="SVGID_1_" points="137.099,356.821 80.544,363.712 47.334,297.29 98.261,292.124 164.404,323.12 			"/>
		</defs>
		<clipPath id="SVGID_2_">
			<use xlink:href="#SVGID_1_"  overflow="visible"/>
		</clipPath>
		
			<circle clip-path="url(#SVGID_2_)" fill="none" stroke="#EF4D94" stroke-width="5" stroke-miterlimit="10" cx="101.455" cy="409.731" r="92.988"/>
	</g>
	<g display="inline">
		<defs>
			<polygon id="SVGID_3_" points="363.203,359.282 313.732,392.493 247.311,368.138 261.359,312.788 348.814,291.017 
				367.631,300.241 			"/>
		</defs>
		<clipPath id="SVGID_4_">
			<use xlink:href="#SVGID_3_"  overflow="visible"/>
		</clipPath>
		
			<circle clip-path="url(#SVGID_4_)" fill="none" stroke="#EF4D94" stroke-width="5" stroke-miterlimit="10" cx="360.742" cy="409.731" r="92.988"/>
	</g>
	<g display="inline">
		<path fill="#FFFFFF" stroke="#EF4D94" stroke-width="3" stroke-linejoin="round" stroke-miterlimit="10" d="M230.487,154.077
			c0,0,5.752,8.451,11.32,12.905c4.301,4.354-4.755,1.713,15.125,14.07c13.652,8.486,35.3,20.685,35.3,20.685l16.351,3.898
			c1.618,0.387,2.715,1.884,2.6,3.542l-2.395,11.568l-14.582,0.327c0,0-8.696-1.709-10.001-9.717
			c-35.942-19.259-36.514-17.489-62.411-37.865l-13.438-12.853"/>
	</g>
	<path display="inline" fill="#FFFFFF" stroke="#EF4D94" stroke-width="3" stroke-miterlimit="10" d="M184.702,242.247
		c-1.131-1.618,0.31-7.76,1.241-13.656c5.002-31.683-51.888-5.472-51.888-5.472l-10.702-2.952
		c-8.486,19.188-1.363,32.374,10.256,43.479c11.621,11.105,41.252,43.555,41.252,43.555"/>
	<path display="inline" fill="#FFFFFF" stroke="#EF4D94" stroke-width="3" stroke-miterlimit="10" d="M135.161,265.063
		c7.773,7.969,61.993,66.422,61.993,66.422s-5.653,9.936-7.821,20.828c-3.119,15.643,3.992,61.518,2.839,77.754
		c-1.154,16.234,27.444,5.721,27.444,5.721l-4.936-7.133c0,0-0.066-40.342,10.144-81.551c2.837-11.447,9.716-19.064,1.489-34.953
		c-2.073-4.002-39.988-65.736-43.43-72.674"/>
	<path display="inline" fill="#FFFFFF" stroke="#EF4D94" stroke-width="3" stroke-linejoin="round" stroke-miterlimit="10" d="
		M255.388,80.675c0,0,4.853,1.346,4.848,2.461c-0.005,0.598-4.861,0.751-4.864,1.441c-0.003,1.688-0.543,6.333-2.426,7.462
		c-1.884,1.13,2.306,10.425,2.847,12.936c0.545,2.514-5.108,2.983-5.86,2.983c-0.754,0,0,3.171,0,3.171l-1.967,4.12
		c0,0,0.637,7.271-6.079,7.529c-4.771,0.184-12.364-2.828-12.364-2.828l-15.282,12.447c0,0,14.907,4.228-1.346,41.644
		c-5.051,11.625-31.034,64.576-31.034,64.576l-59.738-14.638c6.149-20.909,11.205-30.31,30.915-74.379
		c18.282-40.873,36.171-41.024,42.869-42.868c6.699-1.842,7.852-8.371,7.852-8.371s-1.067-3.926-1.364-9.375
		c-0.353-6.524,0.776-9.716,0.776-9.716L255.388,80.675"/>
	
		<line display="inline" fill="none" stroke="#EF4D94" stroke-width="3" stroke-miterlimit="10" x1="172.8" y1="308.606" x2="215.356" y2="291.632"/>
	<path display="inline" fill="#FFFFFF" stroke="#EF4D94" stroke-width="3" stroke-linejoin="round" stroke-miterlimit="10" d="
		M229.366,149.359c0,0,15.511,18.778,27.075,31.077c17.162,18.259,32.345,29.767,32.345,29.767s18.847,6.459,23.149,8.55
		c5.071,2.462-5.227,21.278-5.227,21.278l-12.661-7.602c0,0-12.521-3.599-13.67-12.157c-18.482-9.945-44.709-26.322-44.709-26.322
		l-30.997-28.325"/>
	<path display="inline" fill="#FFFFFF" stroke="#EF4D94" stroke-width="3" stroke-linejoin="round" stroke-miterlimit="10" d="
		M198.378,106.391l32.464,44.444l-26.17,14.79c0,0-14.258-11.503-21.46-19.874"/>
	
		<line display="inline" fill="none" stroke="#EF4D94" stroke-width="3" stroke-linejoin="round" stroke-miterlimit="10" x1="286.733" y1="210.279" x2="280.378" y2="220.272"/>
	
		<circle display="inline" fill="#FFFFFF" stroke="#EF4D94" stroke-width="3" stroke-linejoin="round" stroke-miterlimit="10" cx="292.476" cy="229.042" r="7.619"/>
	<path display="inline" fill="#FFFFFF" stroke="#EF4D94" stroke-width="3" stroke-linejoin="round" stroke-miterlimit="10" d="
		M261.05,82.981c0,0-0.518-12.365-6.335-20.079c-7.517-9.963-28.646-11.237-62.681-1.568l-0.258,5.391l10.071,15.188L261.05,82.981z
		"/>
	<path display="inline" fill="none" stroke="#EF4D94" stroke-width="3" stroke-linejoin="round" stroke-miterlimit="10" d="
		M244.333,84.263c0,0-0.399-10.65-4.876-16.587c-5.783-7.667-21.639-4.705-48.588-1.704"/>
	<polygon display="inline" fill="#EF4D94" points="205.994,425.993 206.985,429.511 210.412,427.522 210.953,424.46 	"/>
	<g display="inline">
		<path fill="#FFFFFF" stroke="#EF4D94" stroke-width="3" stroke-linejoin="round" stroke-miterlimit="10" d="M192.554,424.036
			c0,0-3.121,19.738-3.47,22.66c-0.82,6.869,5.656,7.299,14.186,6.803c9.298-0.537,52.406-4.107,52.406-4.107
			s3.821-10.145,2.013-10.662c-23.145-6.629-42.412-14.742-42.412-14.742s-2.139,2.455-11.364,2.945
			C194.929,427.413,192.554,424.036,192.554,424.036z"/>
	</g>
	<path display="inline" fill="#FFFFFF" stroke="#EF4D94" stroke-width="3" stroke-linejoin="round" stroke-miterlimit="10" d="
		M204.641,98.856c9.73-0.338,14.509-4.035,14.305-5.63c-0.121-0.936-0.212-2.186-0.19-4.057c0.05-4.253,2.354-6.427,5.659-6.272
		c3.999,0.186,6.195,0.615,6.195,0.615l-1.352,36.654"/>
	
		<line display="inline" fill="#FFFFFF" stroke="#EF4D94" stroke-width="3" stroke-linejoin="round" stroke-miterlimit="10" x1="147.46" y1="230.13" x2="194.447" y2="299.995"/>
</g>
<g id="Layer_3">
	<path fill="#FFFFFF" d="M177.42,331.478c0,6.657-5.979,7-13.355,7c-7.377,0-13.356-5.396-13.356-12.053
		c0-6.657,5.979-12.054,13.356-12.054C176.652,314.371,177.42,332.64,177.42,331.478z"/>
	<path fill="none" stroke="#EF4D94" stroke-width="3" stroke-linejoin="round" stroke-miterlimit="10" d="M175.257,342.841
		c-2.817,0.805-7.115,5.772-7.115,5.772"/>
	<path fill="#FFFFFF" stroke="#EF4D94" stroke-width="3" stroke-linejoin="round" stroke-miterlimit="10" d="M145.025,308.514
		c0,0,41.305,24.561,46.664,29.834c4.06,3.994,7.544,14.05-3.109,22.166c-10.5,8-17.166,11.667-27.695,21.626
		c-11.564,10.938-22.621,21.337-22.621,21.337l-9.602-8.296c0,0,16.125-21.881,19.977-27.288"/>
	<g>
		<path fill="#FFFFFF" stroke="#EF4D94" stroke-width="3" stroke-miterlimit="10" d="M129.662,393.264
			c-1.891,1.853-7.699,8.144-8.864,9.456c-1.166,1.312-2.913,3.059,2.438,6.511c4.551,2.935,12.986,10.803,17.875,14.068
			c4.891,3.267,13.428,3.671,13.428,3.671s1.186-2.274,1.951-4.346c0.767-2.071-2.594-0.465-4.886-4.616
			c-3.079-5.577-6.329-19.827-6.329-19.827"/>
	</g>
	<path fill="none" stroke="#EF4D94" stroke-width="3" stroke-linejoin="round" stroke-miterlimit="10" d="M177.897,328.398
		c-4.206,2.615-10.872,8.282-16.372,11.282"/>
	<path fill="none" stroke="#EF4D94" stroke-width="3" stroke-linejoin="round" stroke-miterlimit="10" d="M144.398,307.244"/>
	
		<circle fill="#FFFFFF" stroke="#EF4D94" stroke-width="3" stroke-linejoin="round" stroke-miterlimit="10" cx="263.689" cy="425.86" r="6.5"/>
	<path fill="#FFFFFF" stroke="#EF4D94" stroke-width="3" stroke-linejoin="round" stroke-miterlimit="10" d="M102.191,316.38
		c0,0-7.814,8.083,1.535,11.801c1.811,0.72,9.465,2.333,9.465,2.333"/>
	<path fill="#EF4D94" stroke="#EF4D94" stroke-width="2" stroke-miterlimit="10" d="M158.767,439.655
		c0.109,0.303,1.285,0.585,1.543,0.812c0.377,0.333,0.847,0.497,1.312,0.497c0.549,0,1.096-0.227,1.487-0.67l68.105-85.285
		l30.457,70.355c0.318,0.765,1.057,1.226,1.834,1.226c0.254,0,0.512-0.05,0.76-0.152c1.012-0.419,1.492-1.579,1.072-2.591
		l-36.232-84.966c-0.001-0.002-0.001-0.003-0.002-0.005l-5.867-14.159c-0.047-0.117-0.106-0.225-0.174-0.326
		c2.938-1.688,7.264-5.061,7.789-10.472c0.319-3.275-0.484-5.998-2.387-8.095c-3.479-3.835-9.365-4.249-11.734-4.249
		c-0.548,0-0.992,0.444-0.992,0.992c0,0.547,0.444,0.991,0.992,0.991c1.642,0,3.754,0.062,6.784,3.4
		c1.511,1.665,3.499,3.963,3.237,6.658c-0.667,6.861-8.222,7.603-8.307,7.635c-0.514,0.19-0.406,1.885-0.217,2.398
		c0.072,0.192,0.197,0.349,0.352,0.459c0.012,0.221,0.058,0.441,0.146,0.656l5.836,13.515l-92.551,25.254l-16.792-38.407
		c-0.192-0.513,0.374-3.141-0.14-2.947c-0.512,0.193-5.889,0.21-5.695,0.723 M162.061,434.743l-28.646-67.062l92.678-25.706
		l3.434,8.956L162.061,434.743z"/>
	<path fill="#FFFFFF" stroke="#EF4D94" stroke-width="3" stroke-miterlimit="10" d="M185.174,461.864"/>
	<g>
		<g>
			<path fill="#FFFFFF" d="M165.507,452.965c-3.871-0.001-7.574-1.841-11.005-5.472c-5.795-6.133-5.522-15.837,0.609-21.632
				c2.854-2.697,6.586-4.183,10.511-4.183c4.252,0,8.203,1.701,11.123,4.791c5.796,6.132,5.522,15.837-0.611,21.633
				C172.721,451.328,169.145,452.965,165.507,452.965L165.507,452.965z M167.994,441.903c-0.097,0-0.149,0.271-0.151,0.283
				l-0.775,4.127c-0.031,0.167-0.016,0.307,0.041,0.375c0.05,0.06,0.16,0.094,0.303,0.094c0.068-0.003,1.064-0.098,2.498-0.778
				c1.43-0.68,2.133-1.39,2.141-1.396c0.108-0.116,0.17-0.244,0.156-0.333c-0.014-0.09-0.114-0.193-0.266-0.277l-3.682-2.007
				C168.116,441.912,168.026,441.903,167.994,441.903z M156.877,441.778c0,0,0.399,0.915,1.488,2.066s1.981,1.6,1.99,1.604
				c0.117,0.055,0.208,0.067,0.263,0.067c0.143,0,0.237-0.12,0.282-0.358l0.772-4.123c0.037-0.197,0-0.292-0.012-0.306
				c-0.005-0.007-0.059-0.038-0.187-0.038c-0.039,0-0.078,0.003-0.119,0.008l-4.164,0.539c-0.171,0.022-0.301,0.082-0.346,0.159
				C156.801,441.476,156.812,441.617,156.877,441.778L156.877,441.778z M158.357,430.147c0,0-0.747,0.662-1.506,2.056
				c-0.758,1.39-0.91,2.379-0.912,2.389c-0.019,0.149,0.004,0.287,0.062,0.354c0.062,0.07,0.192,0.081,0.264,0.081
				c0.038,0,0.077-0.003,0.117-0.008l4.163-0.541c0.204-0.026,0.28-0.094,0.286-0.105c0.007-0.012,0.021-0.112-0.067-0.299
				l-1.797-3.794c-0.031-0.065-0.146-0.283-0.296-0.283C158.586,429.997,158.471,430.052,158.357,430.147L158.357,430.147z"/>
			<path fill="#EF4D94" d="M165.622,423.179c3.663,0,7.318,1.449,10.033,4.321c5.236,5.54,4.989,14.276-0.551,19.513
				c-3.135,2.963-6.382,4.452-9.597,4.452c-3.397,0-6.758-1.662-9.915-5.002c-5.235-5.54-4.99-14.276,0.549-19.512
				C158.81,424.43,162.218,423.179,165.622,423.179 M156.267,436.527c0.101,0,0.205-0.007,0.311-0.021l4.163-0.541
				c1.339-0.174,1.961-1.314,1.381-2.535l-1.797-3.793c-0.354-0.744-0.981-1.141-1.651-1.141c-0.43,0-0.877,0.163-1.28,0.502
				c0,0-0.93,0.781-1.858,2.486c-0.926,1.697-1.08,2.902-1.08,2.902C154.298,435.622,155.095,436.527,156.267,436.527
				 M160.619,447.017c0.856,0,1.57-0.593,1.756-1.581l0.772-4.124c0.229-1.223-0.509-2.12-1.673-2.12
				c-0.101,0-0.204,0.007-0.311,0.021L157,439.751c-1.34,0.173-2.02,1.338-1.513,2.59c0,0,0.456,1.125,1.788,2.534
				c1.329,1.406,2.428,1.925,2.428,1.925C160.015,446.947,160.325,447.017,160.619,447.017 M167.411,448.282
				c0.058,0,0.117-0.003,0.177-0.007c0,0,1.213-0.085,2.965-0.917c1.746-0.829,2.579-1.713,2.579-1.713
				c0.926-0.983,0.713-2.315-0.472-2.964l-3.684-2.009c-0.335-0.183-0.67-0.27-0.983-0.27c-0.793,0-1.448,0.556-1.625,1.508
				l-0.774,4.126C165.355,447.306,166.165,448.282,167.411,448.282 M165.622,420.179c-4.309,0-8.408,1.631-11.542,4.592
				c-6.732,6.363-7.032,17.019-0.669,23.753c3.726,3.942,7.796,5.941,12.096,5.941c4.035,0,7.957-1.774,11.657-5.271
				c6.734-6.365,7.035-17.021,0.67-23.754C174.675,422.097,170.223,420.179,165.622,420.179L165.622,420.179z M157.973,433.3
				c0.059-0.12,0.124-0.247,0.195-0.378c0.072-0.133,0.145-0.258,0.215-0.374l0.312,0.658L157.973,433.3L157.973,433.3z
				 M159.167,442.495l0.724-0.094l-0.134,0.718c-0.098-0.095-0.198-0.195-0.301-0.305
				C159.352,442.705,159.256,442.599,159.167,442.495L159.167,442.495z M168.874,444.823l0.134-0.716l0.64,0.349
				c-0.119,0.063-0.247,0.128-0.382,0.192C169.13,444.713,168.999,444.771,168.874,444.823L168.874,444.823z"/>
		</g>
	</g>
	
		<line fill="#FFFFFF" stroke="#EF4D94" stroke-width="3" stroke-miterlimit="10" x1="170.248" y1="459.431" x2="190.33" y2="457.598"/>
	
		<line fill="#EF4D94" stroke="#EF4D94" stroke-width="6" stroke-linecap="round" stroke-miterlimit="10" x1="131.588" y1="366.598" x2="88.922" y2="424.598"/>
	
		<line fill="#EF4D94" stroke="#EF4D94" stroke-width="6" stroke-linecap="round" stroke-miterlimit="10" x1="153.236" y1="434.585" x2="88.855" y2="425.181"/>
	<g>
		<defs>
			<polygon id="SVGID_5_" points="112.338,390.014 74.022,394.681 51.522,349.681 86.025,346.181 130.838,367.181 			"/>
		</defs>
		<clipPath id="SVGID_6_">
			<use xlink:href="#SVGID_5_"  overflow="visible"/>
		</clipPath>
		
			<circle clip-path="url(#SVGID_6_)" fill="none" stroke="#EF4D94" stroke-width="5" stroke-miterlimit="10" cx="88.189" cy="425.86" r="63"/>
	</g>
	<g>
		<defs>
			<polygon id="SVGID_7_" points="265.521,391.681 232.006,414.181 187.006,397.681 196.524,360.181 255.773,345.431 
				268.521,351.681 			"/>
		</defs>
		<clipPath id="SVGID_8_">
			<use xlink:href="#SVGID_7_"  overflow="visible"/>
		</clipPath>
		
			<circle clip-path="url(#SVGID_8_)" fill="none" stroke="#EF4D94" stroke-width="5" stroke-miterlimit="10" cx="263.855" cy="425.86" r="63"/>
	</g>
	<g>
		<path fill="#FFFFFF" stroke="#EF4D94" stroke-width="3" stroke-linejoin="round" stroke-miterlimit="10" d="M175.608,252.654
			c0,0,3.897,5.727,7.669,8.744c2.914,2.949-3.221,1.16,10.247,9.532c9.25,5.75,23.916,14.014,23.916,14.014l11.077,2.642
			c1.096,0.262,1.84,1.276,1.762,2.399l-1.622,7.838l-9.88,0.222c0,0-5.892-1.158-6.775-6.583
			c-24.352-13.048-24.738-11.85-42.283-25.654l-9.104-8.707"/>
	</g>
	<path fill="#FFFFFF" stroke="#EF4D94" stroke-width="3" stroke-miterlimit="10" d="M144.589,312.39
		c-0.767-1.097,0.21-5.257,0.841-9.252c3.389-21.465-35.154-3.707-35.154-3.707l-7.25-2c-5.75,13-0.924,21.934,6.948,29.456
		c7.873,7.523,27.948,29.508,27.948,29.508"/>
	<path fill="#FFFFFF" stroke="#EF4D94" stroke-width="3" stroke-miterlimit="10" d="M111.025,327.848c5.267,5.398,42,45,42,45
		s-3.83,6.732-5.299,14.111c-2.112,10.599,2.705,41.68,1.924,52.679s18.594,3.876,18.594,3.876l-3.344-4.833
		c0,0-0.045-27.333,6.872-55.25c1.922-7.756,6.583-12.917,1.009-23.682c-1.404-2.711-27.092-44.536-29.424-49.235"/>
	<path fill="#FFFFFF" stroke="#EF4D94" stroke-width="3" stroke-linejoin="round" stroke-miterlimit="10" d="M192.479,202.925
		c0,0,3.287,0.912,3.283,1.667c-0.002,0.405-3.293,0.509-3.295,0.977c-0.002,1.144-0.367,4.291-1.644,5.056
		c-1.276,0.766,1.562,7.062,1.929,8.764c0.368,1.703-3.461,2.021-3.971,2.021c-0.511,0,0,2.148,0,2.148l-1.333,2.791
		c0,0,0.432,4.927-4.117,5.102c-3.231,0.124-8.376-1.916-8.376-1.916l-10.354,8.433c0,0,10.1,2.864-0.912,28.214
		c-3.422,7.876-21.025,43.75-21.025,43.75l-40.473-9.917c4.166-14.166,7.592-20.535,20.945-50.392
		c12.386-27.691,24.506-27.794,29.044-29.043c4.538-1.248,5.319-5.672,5.319-5.672s-0.723-2.66-0.924-6.352
		c-0.239-4.42,0.525-6.582,0.525-6.582L192.479,202.925"/>
	
		<line fill="none" stroke="#EF4D94" stroke-width="3" stroke-miterlimit="10" x1="136.525" y1="357.348" x2="165.357" y2="345.848"/>
	<path fill="#FFFFFF" stroke="#EF4D94" stroke-width="3" stroke-linejoin="round" stroke-miterlimit="10" d="M174.85,249.458
		c0,0,10.508,12.723,18.342,21.056c11.627,12.37,21.914,20.167,21.914,20.167s12.768,4.375,15.684,5.792
		c3.436,1.668-3.541,14.416-3.541,14.416l-8.578-5.15c0,0-8.483-2.438-9.262-8.236c-12.521-6.738-30.289-17.833-30.289-17.833
		l-21-19.19"/>
	<path fill="#FFFFFF" stroke="#EF4D94" stroke-width="3" stroke-linejoin="round" stroke-miterlimit="10" d="M153.855,220.348
		l21.994,30.11l-17.73,10.021c0,0-9.66-7.793-14.539-13.465"/>
	
		<line fill="none" stroke="#EF4D94" stroke-width="3" stroke-linejoin="round" stroke-miterlimit="10" x1="213.714" y1="290.731" x2="209.408" y2="297.502"/>
	
		<circle fill="#FFFFFF" stroke="#EF4D94" stroke-width="3" stroke-linejoin="round" stroke-miterlimit="10" cx="217.605" cy="303.443" r="5.162"/>
	<path fill="#FFFFFF" stroke="#EF4D94" stroke-width="3" stroke-linejoin="round" stroke-miterlimit="10" d="M196.314,204.487
		c0,0-0.353-8.377-4.293-13.604c-5.092-6.75-19.406-7.613-42.465-1.062l-0.175,3.652l6.823,10.29L196.314,204.487z"/>
	<path fill="none" stroke="#EF4D94" stroke-width="3" stroke-linejoin="round" stroke-miterlimit="10" d="M184.988,205.355
		c0,0-0.27-7.216-3.303-11.237c-3.918-5.194-14.66-3.188-32.918-1.154"/>
	<polygon fill="#EF4D94" points="159.015,436.876 159.687,439.259 162.008,437.914 162.374,435.838 	"/>
	<g>
		<path fill="#FFFFFF" stroke="#EF4D94" stroke-width="3" stroke-linejoin="round" stroke-miterlimit="10" d="M149.909,435.552
			c0,0-2.114,13.372-2.351,15.353c-0.556,4.654,3.831,4.943,9.61,4.608c6.3-0.364,35.505-2.782,35.505-2.782
			s2.588-6.874,1.363-7.225c-15.68-4.492-28.732-9.988-28.732-9.988s-1.449,1.663-7.699,1.996
			C151.518,437.839,149.909,435.552,149.909,435.552z"/>
	</g>
	<path fill="#FFFFFF" stroke="#EF4D94" stroke-width="3" stroke-linejoin="round" stroke-miterlimit="10" d="M158.098,215.243
		c6.592-0.229,9.83-2.734,9.691-3.814c-0.082-0.634-0.144-1.48-0.129-2.748c0.034-2.882,1.595-4.354,3.834-4.25
		c2.709,0.126,4.197,0.417,4.197,0.417l-0.916,24.833"/>
	
		<line fill="#FFFFFF" stroke="#EF4D94" stroke-width="3" stroke-linejoin="round" stroke-miterlimit="10" x1="119.357" y1="304.181" x2="151.191" y2="351.514"/>
</g>
<g id="Слой_1" display="none">
</g>
</svg>
