<?xml version="1.0" encoding="utf-8"?>
<!-- Generator: Adobe Illustrator 16.0.0, SVG Export Plug-In . SVG Version: 6.00 Build 0)  -->
<!DOCTYPE svg PUBLIC "-//W3C//DTD SVG 1.1//EN" "http://www.w3.org/Graphics/SVG/1.1/DTD/svg11.dtd">
<svg version="1.1" xmlns="http://www.w3.org/2000/svg" xmlns:xlink="http://www.w3.org/1999/xlink" x="0px" y="0px" width="132px"
	 height="132px" viewBox="186.5 183.833 132 132" enable-background="new 186.5 183.833 132 132" xml:space="preserve">
<g id="Слой_1">
</g>
<g id="Layer_2">
	<g>
		<g>
			<g>
				
					<line fill="none" stroke="#EF4D94" stroke-width="3" stroke-miterlimit="10" x1="252.332" y1="197.611" x2="252.332" y2="302.057"/>
				
					<line fill="none" stroke="#EF4D94" stroke-width="3" stroke-miterlimit="10" x1="289.26" y1="212.906" x2="215.407" y2="286.76"/>
				
					<line fill="none" stroke="#EF4D94" stroke-width="3" stroke-miterlimit="10" x1="304.557" y1="249.834" x2="200.11" y2="249.834"/>
				
					<line fill="none" stroke="#EF4D94" stroke-width="3" stroke-miterlimit="10" x1="289.26" y1="286.76" x2="215.407" y2="212.906"/>
			</g>
			<g>
				
					<line fill="none" stroke="#EF4D94" stroke-width="3" stroke-miterlimit="10" x1="232.349" y1="201.585" x2="272.318" y2="298.08"/>
				
					<line fill="none" stroke="#EF4D94" stroke-width="3" stroke-miterlimit="10" x1="272.318" y1="201.585" x2="232.349" y2="298.08"/>
				
					<line fill="none" stroke="#EF4D94" stroke-width="3" stroke-miterlimit="10" x1="300.58" y1="229.849" x2="204.087" y2="269.818"/>
				
					<line fill="none" stroke="#EF4D94" stroke-width="3" stroke-miterlimit="10" x1="300.58" y1="269.818" x2="204.087" y2="229.849"/>
			</g>
		</g>
		<path fill="#FFFFFF" stroke="#EF4D94" stroke-width="3" stroke-miterlimit="10" d="M252.5,194.833c-30.376,0-55,24.625-55,55
			c0,30.375,24.624,55,55,55c30.375,0,55-24.625,55-55C307.5,219.458,282.875,194.833,252.5,194.833z M252.5,298.334
			c-26.786,0-48.5-21.715-48.5-48.5c0-26.787,21.714-48.5,48.5-48.5c26.785,0,48.5,21.714,48.5,48.5
			C301,276.619,279.285,298.334,252.5,298.334z"/>
	</g>
	
		<circle fill="#FFFFFF" stroke="#EF4D94" stroke-width="3" stroke-linejoin="round" stroke-miterlimit="10" cx="252.333" cy="249.822" r="6.5"/>
</g>
</svg>
