<?xml version="1.0" encoding="utf-8"?>
<!-- Generator: Adobe Illustrator 16.0.0, SVG Export Plug-In . SVG Version: 6.00 Build 0)  -->
<!DOCTYPE svg PUBLIC "-//W3C//DTD SVG 1.1//EN" "http://www.w3.org/Graphics/SVG/1.1/DTD/svg11.dtd">
<svg version="1.1" xmlns="http://www.w3.org/2000/svg" xmlns:xlink="http://www.w3.org/1999/xlink" x="0px" y="0px"
	 width="1022.949px" height="687.236px" viewBox="0 0 1022.949 687.236" enable-background="new 0 0 1022.949 687.236"
	 xml:space="preserve">
<g id="Layer_1">
	<g id="Layer_3">
		<rect y="448.81" fill="#FFFFFF" stroke="transparent" stroke-miterlimit="10" width="1008.954" height="238.427"/>
	</g>
	<g id="Layer_1_1_">
		<g>
			<path fill="none" stroke="#00C0F2" stroke-width="4" stroke-miterlimit="10" d="M494.431,543.013
				c0-7.986-6.474-14.462-14.462-14.462c-7.985,0-14.462,6.476-14.462,14.462v43.479h28.955v-43.479H494.431z"/>
			<path fill="none" stroke="#00C0F2" stroke-width="4" stroke-miterlimit="10" d="M537.909,543.013
				c0-7.986-6.476-14.462-14.462-14.462s-14.462,6.476-14.462,14.462v43.479h28.955v-43.479H537.909z"/>
			<path fill="none" stroke="#00C0F2" stroke-width="4" stroke-miterlimit="10" d="M450.923,543.013
				c0-7.986-6.476-14.462-14.462-14.462c-7.987,0-14.463,6.476-14.463,14.462v43.479h28.954v-43.479H450.923z"/>
			
				<rect x="516.202" y="622.723" fill="none" stroke="#00C0F2" stroke-width="4" stroke-miterlimit="10" width="14.492" height="36.231"/>
			
				<rect x="472.723" y="622.723" fill="none" stroke="#00C0F2" stroke-width="4" stroke-miterlimit="10" width="14.493" height="36.231"/>
			
				<rect x="429.244" y="622.723" fill="none" stroke="#00C0F2" stroke-width="4" stroke-miterlimit="10" width="14.491" height="36.231"/>
			<path fill="none" stroke="#00C0F2" stroke-width="4" stroke-miterlimit="10" d="M363.997,543.013
				c0-7.986-6.478-14.462-14.463-14.462c-7.987,0-14.462,6.476-14.462,14.462v43.479h28.955v-43.479H363.997z"/>
			<path fill="none" stroke="#00C0F2" stroke-width="4" stroke-miterlimit="10" d="M407.475,543.013
				c0-7.986-6.475-14.462-14.462-14.462c-7.986,0-14.463,6.476-14.463,14.462v43.479h28.956v-43.479H407.475z"/>
			<path fill="none" stroke="#00C0F2" stroke-width="4" stroke-miterlimit="10" d="M320.487,543.013
				c0-7.986-6.476-14.462-14.462-14.462s-14.462,6.476-14.462,14.462v43.479h28.955v-43.479H320.487z"/>
			
				<rect x="385.767" y="622.723" fill="none" stroke="#00C0F2" stroke-width="4" stroke-miterlimit="10" width="14.492" height="36.231"/>
			
				<rect x="342.289" y="622.723" fill="none" stroke="#00C0F2" stroke-width="4" stroke-miterlimit="10" width="14.491" height="36.231"/>
			
				<rect x="298.81" y="622.723" fill="none" stroke="#00C0F2" stroke-width="4" stroke-miterlimit="10" width="14.492" height="36.231"/>
			<path fill="none" stroke="#00C0F2" stroke-width="4" stroke-miterlimit="10" d="M624.896,543.013
				c0-7.986-6.476-14.462-14.463-14.462c-7.985,0-14.462,6.476-14.462,14.462l-0.029,43.479h28.954l0.03-43.479H624.896z"/>
			<path fill="none" stroke="#00C0F2" stroke-width="4" stroke-miterlimit="10" d="M668.375,543.013
				c0-7.986-6.476-14.462-14.463-14.462c-7.985,0-14.462,6.476-14.462,14.462l-0.031,43.479h28.956l0.03-43.479H668.375z"/>
			<path fill="none" stroke="#00C0F2" stroke-width="4" stroke-miterlimit="10" d="M581.389,543.013
				c0-7.986-6.477-14.462-14.463-14.462s-14.462,6.476-14.462,14.462l-0.03,43.479h28.955l0.03-43.479H581.389z"/>
			
				<rect x="646.665" y="622.723" fill="none" stroke="#00C0F2" stroke-width="4" stroke-miterlimit="10" width="14.494" height="36.231"/>
			<path fill="none" stroke="#00C0F2" stroke-width="4" stroke-miterlimit="10" d="M711.822,543.013
				c0-7.986-6.476-14.462-14.462-14.462s-14.462,6.476-14.462,14.462l-0.03,43.479h28.954l0.029-43.479H711.822z"/>
			
				<rect x="690.113" y="622.723" fill="none" stroke="#00C0F2" stroke-width="4" stroke-miterlimit="10" width="14.492" height="36.231"/>
			<path fill="none" stroke="#00C0F2" stroke-width="4" stroke-miterlimit="10" d="M277.04,543.013
				c0-7.986-6.476-14.462-14.462-14.462c-7.987,0-14.463,6.476-14.463,14.462v43.479h28.954v-43.479H277.04z"/>
			
				<rect x="255.331" y="622.723" fill="none" stroke="#00C0F2" stroke-width="4" stroke-miterlimit="10" width="14.494" height="36.231"/>
			
				<rect x="603.188" y="622.723" fill="none" stroke="#00C0F2" stroke-width="4" stroke-miterlimit="10" width="14.493" height="36.231"/>
			
				<rect x="559.711" y="622.723" fill="none" stroke="#00C0F2" stroke-width="4" stroke-miterlimit="10" width="14.491" height="36.231"/>
			
				<line fill="none" stroke="#00C0F2" stroke-width="4" stroke-miterlimit="10" x1="240.838" y1="600.179" x2="719.099" y2="600.179"/>
			<path fill="none" stroke="#00C0F2" stroke-width="4" stroke-miterlimit="10" d="M538.842,405.332
				c-10.673-21.47-32.817-36.231-58.421-36.231c-25.604,0-47.752,14.762-58.424,36.231H538.842z"/>
			
				<rect x="175.621" y="492.288" fill="none" stroke="#00C0F2" stroke-width="4" stroke-miterlimit="10" width="57.971" height="14.493"/>
			
				<rect x="175.621" y="600.984" fill="none" stroke="#00C0F2" stroke-width="4" stroke-miterlimit="10" width="57.971" height="72.464"/>
			
				<rect x="16.202" y="492.288" fill="none" stroke="#00C0F2" stroke-width="4" stroke-miterlimit="10" width="57.97" height="14.493"/>
			
				<rect x="16.202" y="600.984" fill="none" stroke="#00C0F2" stroke-width="4" stroke-miterlimit="10" width="57.97" height="72.464"/>
			
				<rect x="233.592" y="658.955" fill="none" stroke="#00C0F2" stroke-width="4" stroke-miterlimit="10" width="492.754" height="14.493"/>
			
				<rect x="233.592" y="492.288" fill="none" stroke="#00C0F2" stroke-width="4" stroke-miterlimit="10" width="492.754" height="14.493"/>
			<polyline fill="none" stroke="#00C0F2" stroke-width="4" stroke-miterlimit="10" points="371.273,439.006 371.273,347.36 
				400.259,347.36 400.259,433.891 			"/>
			<polyline fill="none" stroke="#00C0F2" stroke-width="4" stroke-miterlimit="10" points="559.68,433.891 559.68,347.36 
				588.665,347.36 588.665,439.006 			"/>
			<path fill="none" stroke="#00C0F2" stroke-width="4" stroke-miterlimit="10" d="M168.375,600.984v-36.232
				c0-24.012-19.466-43.479-43.479-43.479c-24.012,0-43.478,19.466-43.478,43.479v36.232"/>
			<polygon fill="none" stroke="#00C0F2" stroke-width="4" stroke-miterlimit="10" points="233.592,448.81 124.896,427.071 
				16.202,448.81 16.202,673.448 233.592,673.448 			"/>
			
				<line fill="none" stroke="#00C0F2" stroke-width="4" stroke-miterlimit="10" x1="277.069" y1="521.273" x2="291.563" y2="521.273"/>
			
				<line fill="none" stroke="#00C0F2" stroke-width="4" stroke-miterlimit="10" x1="320.549" y1="521.273" x2="335.042" y2="521.273"/>
			
				<line fill="none" stroke="#00C0F2" stroke-width="4" stroke-miterlimit="10" x1="364.027" y1="521.273" x2="378.519" y2="521.273"/>
			
				<line fill="none" stroke="#00C0F2" stroke-width="4" stroke-miterlimit="10" x1="407.506" y1="521.273" x2="421.998" y2="521.273"/>
			
				<line fill="none" stroke="#00C0F2" stroke-width="4" stroke-miterlimit="10" x1="450.983" y1="521.273" x2="465.477" y2="521.273"/>
			
				<line fill="none" stroke="#00C0F2" stroke-width="4" stroke-miterlimit="10" x1="494.462" y1="521.273" x2="508.955" y2="521.273"/>
			
				<line fill="none" stroke="#00C0F2" stroke-width="4" stroke-miterlimit="10" x1="537.94" y1="521.273" x2="552.434" y2="521.273"/>
			
				<line fill="none" stroke="#00C0F2" stroke-width="4" stroke-miterlimit="10" x1="581.419" y1="521.273" x2="595.912" y2="521.273"/>
			
				<line fill="none" stroke="#00C0F2" stroke-width="4" stroke-miterlimit="10" x1="624.896" y1="521.273" x2="639.39" y2="521.273"/>
			
				<line fill="none" stroke="#00C0F2" stroke-width="4" stroke-miterlimit="10" x1="668.375" y1="521.273" x2="682.868" y2="521.273"/>
			
				<rect x="81.419" y="629.969" fill="none" stroke="#00C0F2" stroke-width="4" stroke-miterlimit="10" width="21.738" height="43.479"/>
			
				<rect x="146.636" y="629.969" fill="none" stroke="#00C0F2" stroke-width="4" stroke-miterlimit="10" width="21.739" height="43.479"/>
			
				<rect x="110.403" y="629.969" fill="none" stroke="#00C0F2" stroke-width="4" stroke-miterlimit="10" width="28.986" height="43.479"/>
			
				<line fill="none" stroke="#00C0F2" stroke-width="4" stroke-linecap="square" stroke-miterlimit="10" x1="168.375" y1="600.984" x2="81.419" y2="600.984"/>
			<path fill="none" stroke="#00C0F2" stroke-width="4" stroke-miterlimit="10" d="M124.896,412.578
				c-8.004,0-14.493,6.489-14.493,14.493h28.986C139.39,419.067,132.899,412.578,124.896,412.578z"/>
			
				<rect x="110.403" y="456.057" fill="none" stroke="#00C0F2" stroke-width="4" stroke-miterlimit="10" width="28.986" height="36.231"/>
			<polyline fill="none" stroke="#00C0F2" stroke-width="4" stroke-miterlimit="10" points="37.94,444.462 37.94,427.071 
				219.099,427.071 219.099,445.911 			"/>
			<path fill="none" stroke="#00C0F2" stroke-width="4" stroke-miterlimit="10" d="M197.359,398.085
				c-15.956-13.139-42.462-21.738-72.467-21.738c-30.007,0-56.511,8.6-72.468,21.738"/>
			
				<rect x="52.433" y="398.085" fill="none" stroke="#00C0F2" stroke-width="4" stroke-miterlimit="10" width="144.927" height="28.986"/>
			<circle fill="none" stroke="#00C0F2" stroke-width="4" stroke-miterlimit="10" cx="958.23" cy="340.114" r="21.739"/>
			
				<rect x="929.244" y="311.128" fill="none" stroke="#00C0F2" stroke-width="4" stroke-miterlimit="10" width="57.972" height="57.971"/>
			
				<line fill="none" stroke="#00C0F2" stroke-width="4" stroke-miterlimit="10" x1="958.23" y1="383.592" x2="958.23" y2="412.578"/>
			
				<line fill="none" stroke="#00C0F2" stroke-width="4" stroke-miterlimit="10" x1="958.23" y1="434.317" x2="958.23" y2="463.303"/>
			<polygon fill="none" stroke="#00C0F2" stroke-width="4" stroke-miterlimit="10" points="1008.954,673.448 943.737,673.448 
				943.737,448.81 929.244,445.911 929.244,427.071 907.714,427.071 907.83,297.34 1009.279,297.34 			"/>
			
				<rect x="921.998" y="216.926" fill="none" stroke="#00C0F2" stroke-width="4" stroke-miterlimit="10" width="72.465" height="36.231"/>
			<path fill="none" stroke="#00C0F2" stroke-width="4" stroke-miterlimit="10" d="M958.23,166.201
				c-8.005,0-14.493,6.489-14.493,14.493v36.232h28.984v-36.232C972.723,172.69,966.233,166.201,958.23,166.201z"/>
			<polygon fill="none" stroke="#00C0F2" stroke-width="4" stroke-miterlimit="10" points="994.463,238.665 994.463,253.158 
				921.998,253.158 921.998,238.665 907.506,238.665 907.506,282.143 1008.954,282.143 1008.954,238.665 			"/>
			
				<line fill="none" stroke="#00C0F2" stroke-width="4" stroke-miterlimit="10" x1="958.23" y1="253.158" x2="958.23" y2="231.418"/>
			<polygon fill="none" stroke="#00C0F2" stroke-width="4" stroke-miterlimit="10" points="987.216,216.926 929.244,216.926 
				929.244,158.955 958.23,144.462 987.216,158.955 			"/>
			<path fill="none" stroke="#00C0F2" stroke-width="4" stroke-miterlimit="10" d="M936.491,122.723
				c0-12.007,9.732-21.739,21.739-21.739s21.738,9.732,21.738,21.739"/>
			
				<line fill="none" stroke="#00C0F2" stroke-width="4" stroke-miterlimit="10" x1="987.216" y1="122.723" x2="929.244" y2="122.723"/>
			
				<rect x="936.491" y="122.723" fill="none" stroke="#00C0F2" stroke-width="4" stroke-miterlimit="10" width="43.479" height="21.739"/>
			<polyline fill="none" stroke="#00C0F2" stroke-width="4" stroke-miterlimit="10" points="929.244,158.955 921.998,158.955 
				921.998,144.462 994.463,144.462 994.463,158.955 987.216,158.955 			"/>
			<path fill="none" stroke="#00C0F2" stroke-width="4" stroke-miterlimit="10" d="M52.433,427.071h14.493
				c0-8.004-6.489-14.493-14.493-14.493V427.071z"/>
			<path fill="none" stroke="#00C0F2" stroke-width="4" stroke-miterlimit="10" d="M197.359,412.578
				c-8.003,0-14.491,6.489-14.491,14.493h14.491V412.578z"/>
			
				<line fill="none" stroke="#00C0F2" stroke-width="4" stroke-miterlimit="10" x1="197.359" y1="398.085" x2="204.606" y2="398.085"/>
			
				<line fill="none" stroke="#00C0F2" stroke-width="4" stroke-miterlimit="10" x1="52.433" y1="398.085" x2="45.187" y2="398.085"/>
			<path fill="none" stroke="#00C0F2" stroke-width="4" stroke-miterlimit="10" d="M219.099,477.795
				c0-4.002-3.243-7.247-7.246-7.247c0-4.002-3.244-7.246-7.246-7.246c-4.001,0-7.247,3.244-7.247,7.246
				c-4,0-7.245,3.244-7.245,7.247"/>
			
				<line fill="none" stroke="#00C0F2" stroke-width="4" stroke-miterlimit="10" x1="226.346" y1="477.795" x2="182.868" y2="477.795"/>
			<path fill="none" stroke="#00C0F2" stroke-width="4" stroke-miterlimit="10" d="M59.68,477.795c0-4.002-3.245-7.247-7.247-7.247
				c0-4.002-3.243-7.246-7.246-7.246c-4.002,0-7.246,3.244-7.246,7.246c-4.002,0-7.247,3.244-7.247,7.247"/>
			
				<line fill="none" stroke="#00C0F2" stroke-width="4" stroke-miterlimit="10" x1="66.926" y1="477.795" x2="23.447" y2="477.795"/>
			
				<line fill="none" stroke="#00C0F2" stroke-width="4" stroke-miterlimit="10" x1="45.187" y1="463.303" x2="45.187" y2="456.057"/>
			
				<line fill="none" stroke="#00C0F2" stroke-width="4" stroke-miterlimit="10" x1="204.606" y1="463.303" x2="204.606" y2="456.057"/>
			<polygon fill="none" stroke="#00C0F2" stroke-width="4" stroke-miterlimit="10" points="284.317,398.085 226.346,398.085 
				219.099,412.578 291.563,412.578 			"/>
			
				<line fill="none" stroke="#00C0F2" stroke-width="4" stroke-miterlimit="10" x1="226.346" y1="412.578" x2="226.346" y2="448.81"/>
			
				<line fill="none" stroke="#00C0F2" stroke-width="4" stroke-miterlimit="10" x1="284.317" y1="412.578" x2="284.317" y2="456.057"/>
			
				<line fill="none" stroke="#00C0F2" stroke-width="4" stroke-miterlimit="10" x1="291.563" y1="412.578" x2="371.273" y2="369.101"/>
			<polygon fill="none" stroke="#00C0F2" stroke-width="4" stroke-miterlimit="10" points="1009.279,297.34 907.505,297.34 
				900.259,282.143 1016.202,282.143 			"/>
			
				<line fill="none" stroke="#00C0F2" stroke-width="4" stroke-miterlimit="10" x1="124.896" y1="521.273" x2="124.896" y2="600.984"/>
			<line fill="none" stroke="#00C0F2" stroke-width="4" stroke-miterlimit="10" x1="139.39" y1="523.75" x2="139.39" y2="600.984"/>
			
				<line fill="none" stroke="#00C0F2" stroke-width="4" stroke-miterlimit="10" x1="153.882" y1="535.766" x2="153.882" y2="600.984"/>
			
				<line fill="none" stroke="#00C0F2" stroke-width="4" stroke-miterlimit="10" x1="110.403" y1="523.75" x2="110.403" y2="600.984"/>
			
				<line fill="none" stroke="#00C0F2" stroke-width="4" stroke-miterlimit="10" x1="95.911" y1="535.766" x2="95.911" y2="600.984"/>
			
				<line fill="none" stroke="#00C0F2" stroke-width="4" stroke-miterlimit="10" x1="81.419" y1="579.245" x2="168.375" y2="579.245"/>
			
				<line fill="none" stroke="#00C0F2" stroke-width="4" stroke-miterlimit="10" x1="81.419" y1="557.505" x2="168.375" y2="557.505"/>
			
				<line fill="none" stroke="#00C0F2" stroke-width="4" stroke-linecap="square" stroke-miterlimit="10" x1="95.911" y1="535.766" x2="153.882" y2="535.766"/>
			
				<line fill="none" stroke="#00C0F2" stroke-width="4" stroke-miterlimit="10" x1="74.172" y1="673.448" x2="175.621" y2="673.448"/>
			
				<line fill="none" stroke="#00C0F2" stroke-width="4" stroke-miterlimit="10" x1="16.202" y1="506.781" x2="16.202" y2="600.984"/>
			
				<line fill="none" stroke="#00C0F2" stroke-width="4" stroke-miterlimit="10" x1="233.592" y1="506.781" x2="233.592" y2="600.984"/>
			
				<rect x="885.767" y="492.288" fill="none" stroke="#00C0F2" stroke-width="4" stroke-miterlimit="10" width="57.972" height="14.493"/>
			
				<rect x="885.767" y="600.984" fill="none" stroke="#00C0F2" stroke-width="4" stroke-miterlimit="10" width="57.972" height="72.464"/>
			
				<rect x="726.346" y="492.288" fill="none" stroke="#00C0F2" stroke-width="4" stroke-miterlimit="10" width="57.973" height="14.493"/>
			
				<rect x="726.346" y="600.984" fill="none" stroke="#00C0F2" stroke-width="4" stroke-miterlimit="10" width="57.973" height="72.464"/>
			<path fill="none" stroke="#00C0F2" stroke-width="4" stroke-miterlimit="10" d="M791.564,600.984v-36.232
				c0-24.012,19.465-43.479,43.479-43.479c24.011,0,43.479,19.466,43.479,43.479v36.232H791.564z"/>
			<polygon fill="none" stroke="#00C0F2" stroke-width="4" stroke-miterlimit="10" points="943.737,448.81 835.043,427.071 
				726.346,448.81 726.346,673.448 943.737,673.448 			"/>
			
				<rect x="791.564" y="629.969" fill="none" stroke="#00C0F2" stroke-width="4" stroke-miterlimit="10" width="21.736" height="43.479"/>
			
				<rect x="856.781" y="629.969" fill="none" stroke="#00C0F2" stroke-width="4" stroke-miterlimit="10" width="21.738" height="43.479"/>
			
				<rect x="820.55" y="629.969" fill="none" stroke="#00C0F2" stroke-width="4" stroke-miterlimit="10" width="28.984" height="43.479"/>
			<path fill="none" stroke="#00C0F2" stroke-width="4" stroke-miterlimit="10" d="M835.043,412.578
				c-8.005,0-14.493,6.489-14.493,14.493h28.984C849.534,419.067,843.046,412.578,835.043,412.578z"/>
			
				<rect x="820.55" y="456.057" fill="none" stroke="#00C0F2" stroke-width="4" stroke-miterlimit="10" width="28.984" height="36.231"/>
			<polyline fill="none" stroke="#00C0F2" stroke-width="4" stroke-miterlimit="10" points="748.085,441.562 748.085,427.071 
				929.244,427.071 929.244,441.562 			"/>
			<path fill="none" stroke="#00C0F2" stroke-width="4" stroke-miterlimit="10" d="M907.506,398.085
				c-15.957-13.139-42.462-21.738-72.467-21.738c-30.008,0-56.511,8.6-72.47,21.738"/>
			
				<rect x="762.578" y="398.085" fill="none" stroke="#00C0F2" stroke-width="4" stroke-miterlimit="10" width="144.928" height="28.986"/>
			<path fill="none" stroke="#00C0F2" stroke-width="4" stroke-miterlimit="10" d="M762.578,427.071h14.493
				c0-8.004-6.49-14.493-14.493-14.493V427.071z"/>
			<path fill="none" stroke="#00C0F2" stroke-width="4" stroke-miterlimit="10" d="M907.506,412.578
				c-8.005,0-14.492,6.489-14.492,14.493h14.492V412.578z"/>
			
				<line fill="none" stroke="#00C0F2" stroke-width="4" stroke-miterlimit="10" x1="907.506" y1="398.085" x2="914.752" y2="398.085"/>
			
				<line fill="none" stroke="#00C0F2" stroke-width="4" stroke-miterlimit="10" x1="762.578" y1="398.085" x2="755.332" y2="398.085"/>
			<path fill="none" stroke="#00C0F2" stroke-width="4" stroke-miterlimit="10" d="M929.244,477.795
				c0-4.002-3.243-7.247-7.246-7.247c0-4.002-3.245-7.246-7.246-7.246s-7.246,3.244-7.246,7.246c-4.003,0-7.246,3.244-7.246,7.247"
				/>
			
				<line fill="none" stroke="#00C0F2" stroke-width="4" stroke-miterlimit="10" x1="936.491" y1="477.795" x2="893.014" y2="477.795"/>
			<path fill="none" stroke="#00C0F2" stroke-width="4" stroke-miterlimit="10" d="M769.825,477.795
				c0-4.002-3.244-7.247-7.247-7.247c0-4.002-3.245-7.246-7.246-7.246s-7.247,3.244-7.247,7.246c-4,0-7.246,3.244-7.246,7.247"/>
			
				<line fill="none" stroke="#00C0F2" stroke-width="4" stroke-miterlimit="10" x1="777.071" y1="477.795" x2="733.593" y2="477.795"/>
			
				<line fill="none" stroke="#00C0F2" stroke-width="4" stroke-miterlimit="10" x1="755.332" y1="463.303" x2="755.332" y2="456.057"/>
			
				<line fill="none" stroke="#00C0F2" stroke-width="4" stroke-miterlimit="10" x1="914.752" y1="463.303" x2="914.752" y2="456.057"/>
			<polygon fill="none" stroke="#00C0F2" stroke-width="4" stroke-miterlimit="10" points="733.593,398.085 675.62,398.085 
				668.375,412.578 740.839,412.578 			"/>
			
				<line fill="none" stroke="#00C0F2" stroke-width="4" stroke-miterlimit="10" x1="835.043" y1="521.273" x2="835.043" y2="600.984"/>
			
				<line fill="none" stroke="#00C0F2" stroke-width="4" stroke-miterlimit="10" x1="849.534" y1="523.751" x2="849.534" y2="600.984"/>
			
				<line fill="none" stroke="#00C0F2" stroke-width="4" stroke-linecap="square" stroke-miterlimit="10" x1="864.027" y1="535.766" x2="864.027" y2="600.984"/>
			
				<line fill="none" stroke="#00C0F2" stroke-width="4" stroke-miterlimit="10" x1="820.55" y1="523.751" x2="820.55" y2="600.984"/>
			
				<line fill="none" stroke="#00C0F2" stroke-width="4" stroke-linecap="square" stroke-miterlimit="10" x1="806.057" y1="535.766" x2="806.057" y2="600.984"/>
			
				<line fill="none" stroke="#00C0F2" stroke-width="4" stroke-miterlimit="10" x1="791.564" y1="579.245" x2="878.521" y2="579.245"/>
			
				<line fill="none" stroke="#00C0F2" stroke-width="4" stroke-miterlimit="10" x1="791.564" y1="557.505" x2="878.521" y2="557.505"/>
			
				<line fill="none" stroke="#00C0F2" stroke-width="4" stroke-miterlimit="10" x1="806.057" y1="535.766" x2="864.027" y2="535.766"/>
			
				<line fill="none" stroke="#00C0F2" stroke-width="4" stroke-miterlimit="10" x1="784.317" y1="673.448" x2="885.767" y2="673.448"/>
			
				<line fill="none" stroke="#00C0F2" stroke-width="4" stroke-miterlimit="10" x1="726.346" y1="506.781" x2="726.346" y2="600.984"/>
			
				<line fill="none" stroke="#00C0F2" stroke-width="4" stroke-linecap="square" stroke-miterlimit="10" x1="726.346" y1="521.273" x2="740.839" y2="521.273"/>
			
				<line fill="none" stroke="#00C0F2" stroke-width="4" stroke-linecap="square" stroke-miterlimit="10" x1="770.256" y1="521.273" x2="784.749" y2="521.273"/>
			
				<line fill="none" stroke="#00C0F2" stroke-width="4" stroke-linecap="square" stroke-miterlimit="10" x1="885.767" y1="521.273" x2="900.26" y2="521.273"/>
			
				<line fill="none" stroke="#00C0F2" stroke-width="4" stroke-linecap="square" stroke-miterlimit="10" x1="929.244" y1="521.273" x2="943.737" y2="521.273"/>
			
				<line fill="none" stroke="#00C0F2" stroke-width="4" stroke-miterlimit="10" x1="943.737" y1="506.781" x2="943.737" y2="600.984"/>
			
				<line fill="none" stroke="#00C0F2" stroke-width="4" stroke-miterlimit="10" x1="668.375" y1="412.578" x2="588.665" y2="369.101"/>
			
				<line fill="none" stroke="#00C0F2" stroke-width="4" stroke-miterlimit="10" x1="733.593" y1="412.578" x2="733.593" y2="448.81"/>
			
				<line fill="none" stroke="#00C0F2" stroke-width="4" stroke-miterlimit="10" x1="675.62" y1="412.578" x2="675.62" y2="456.057"/>
			
				<rect x="559.68" y="332.868" fill="none" stroke="#00C0F2" stroke-width="4" stroke-miterlimit="10" width="28.985" height="14.492"/>
			
				<rect x="371.273" y="332.868" fill="none" stroke="#00C0F2" stroke-width="4" stroke-miterlimit="10" width="28.984" height="14.492"/>
			
				<rect x="378.519" y="318.375" fill="none" stroke="#00C0F2" stroke-width="4" stroke-miterlimit="10" width="14.494" height="14.492"/>
			
				<rect x="566.926" y="318.375" fill="none" stroke="#00C0F2" stroke-width="4" stroke-miterlimit="10" width="14.493" height="14.492"/>
			<path fill="none" stroke="#00C0F2" stroke-width="4" stroke-miterlimit="10" d="M400.259,347.36h36.231v-14.492
				c0,0,14.392-14.492,43.378-14.492c28.985,0,43.579,14.492,43.579,14.492v14.492h36.231"/>
			<path fill="none" stroke="#00C0F2" stroke-width="4" stroke-miterlimit="10" d="M950.983,100.984v-7.247
				c0-4.001,3.243-7.247,7.247-7.247c4,0,7.245,3.245,7.245,7.247v7.247"/>
			<line fill="none" stroke="#00C0F2" stroke-width="4" stroke-miterlimit="10" x1="958.23" y1="86.491" x2="958.23" y2="64.751"/>
			
				<line fill="none" stroke="#00C0F2" stroke-width="4" stroke-miterlimit="10" x1="726.346" y1="477.795" x2="233.592" y2="477.795"/>
			<path fill="none" stroke="#00C0F2" stroke-width="4" stroke-miterlimit="10" d="M943.775,528.986
				c7.981-7.984,20.927-7.984,28.909,0"/>
			
				<rect x="943.737" y="543.013" fill="none" stroke="#00C0F2" stroke-width="4" stroke-miterlimit="10" width="28.984" height="50.726"/>
			
				<rect x="950.983" y="622.723" fill="none" stroke="#00C0F2" stroke-width="4" stroke-miterlimit="10" width="14.492" height="36.231"/>
			
				<line fill="none" stroke="#00C0F2" stroke-width="4" stroke-miterlimit="10" x1="943.625" y1="658.955" x2="1008.954" y2="658.955"/>
			
				<line fill="none" stroke="#00C0F2" stroke-width="4" stroke-miterlimit="10" x1="110.403" y1="615.477" x2="139.39" y2="615.477"/>
			
				<line fill="none" stroke="#00C0F2" stroke-width="4" stroke-miterlimit="10" x1="146.636" y1="615.477" x2="168.375" y2="615.477"/>
			
				<line fill="none" stroke="#00C0F2" stroke-width="4" stroke-miterlimit="10" x1="103.157" y1="615.477" x2="81.419" y2="615.477"/>
			
				<line fill="none" stroke="#00C0F2" stroke-width="4" stroke-miterlimit="10" x1="110.403" y1="644.462" x2="139.39" y2="644.462"/>
			
				<line fill="none" stroke="#00C0F2" stroke-width="4" stroke-miterlimit="10" x1="146.636" y1="644.462" x2="168.375" y2="644.462"/>
			
				<line fill="none" stroke="#00C0F2" stroke-width="4" stroke-miterlimit="10" x1="103.157" y1="644.462" x2="81.419" y2="644.462"/>
			
				<line fill="none" stroke="#00C0F2" stroke-width="4" stroke-miterlimit="10" x1="820.55" y1="615.477" x2="849.534" y2="615.477"/>
			
				<line fill="none" stroke="#00C0F2" stroke-width="4" stroke-miterlimit="10" x1="856.781" y1="615.477" x2="878.521" y2="615.477"/>
			
				<line fill="none" stroke="#00C0F2" stroke-width="4" stroke-miterlimit="10" x1="813.302" y1="615.477" x2="791.564" y2="615.477"/>
			
				<line fill="none" stroke="#00C0F2" stroke-width="4" stroke-miterlimit="10" x1="820.55" y1="644.462" x2="849.534" y2="644.462"/>
			
				<line fill="none" stroke="#00C0F2" stroke-width="4" stroke-miterlimit="10" x1="856.781" y1="644.462" x2="878.521" y2="644.462"/>
			
				<line fill="none" stroke="#00C0F2" stroke-width="4" stroke-miterlimit="10" x1="813.302" y1="644.462" x2="791.564" y2="644.462"/>
			<polyline fill="none" stroke="#00C0F2" stroke-width="4" stroke-miterlimit="10" points="233.592,463.303 479.969,419.825 
				726.346,463.303 			"/>
			
				<line fill="none" stroke="#00C0F2" stroke-width="4" stroke-miterlimit="10" x1="784.317" y1="492.288" x2="885.767" y2="492.288"/>
			
				<line fill="none" stroke="#00C0F2" stroke-width="4" stroke-miterlimit="10" x1="74.172" y1="492.288" x2="175.621" y2="492.288"/>
			
				<rect x="769.825" y="535.766" fill="none" stroke="#00C0F2" stroke-width="4" stroke-miterlimit="10" width="14.492" height="65.219"/>
			
				<rect x="726.346" y="535.766" fill="none" stroke="#00C0F2" stroke-width="4" stroke-miterlimit="10" width="14.493" height="65.219"/>
			
				<rect x="929.244" y="535.766" fill="none" stroke="#00C0F2" stroke-width="4" stroke-miterlimit="10" width="14.493" height="65.219"/>
			
				<rect x="885.767" y="535.766" fill="none" stroke="#00C0F2" stroke-width="4" stroke-miterlimit="10" width="14.493" height="65.219"/>
			
				<line fill="none" stroke="#00C0F2" stroke-width="4" stroke-linecap="square" stroke-miterlimit="10" x1="16.202" y1="521.273" x2="30.693" y2="521.273"/>
			
				<line fill="none" stroke="#00C0F2" stroke-width="4" stroke-linecap="square" stroke-miterlimit="10" x1="60.111" y1="521.273" x2="74.603" y2="521.273"/>
			
				<line fill="none" stroke="#00C0F2" stroke-width="4" stroke-linecap="square" stroke-miterlimit="10" x1="175.621" y1="521.273" x2="190.114" y2="521.273"/>
			
				<line fill="none" stroke="#00C0F2" stroke-width="4" stroke-linecap="square" stroke-miterlimit="10" x1="219.099" y1="521.273" x2="233.592" y2="521.273"/>
			
				<rect x="59.68" y="535.766" fill="none" stroke="#00C0F2" stroke-width="4" stroke-miterlimit="10" width="14.492" height="65.219"/>
			
				<rect x="16.202" y="535.766" fill="none" stroke="#00C0F2" stroke-width="4" stroke-miterlimit="10" width="14.491" height="65.219"/>
			
				<rect x="219.099" y="535.766" fill="none" stroke="#00C0F2" stroke-width="4" stroke-miterlimit="10" width="14.493" height="65.219"/>
			
				<rect x="175.621" y="535.766" fill="none" stroke="#00C0F2" stroke-width="4" stroke-miterlimit="10" width="14.493" height="65.219"/>
			<path fill="#00C0F2" d="M960.863,133.592c0,1.455-1.179,2.634-2.633,2.634s-2.635-1.18-2.635-2.634
				c0-1.454,1.181-2.634,2.635-2.634C959.686,130.958,960.863,132.138,960.863,133.592"/>
			<path fill="#00C0F2" d="M972.723,133.592c0,1.455-1.178,2.634-2.633,2.634c-1.454,0-2.634-1.18-2.634-2.634
				c0-1.454,1.18-2.634,2.634-2.634C971.545,130.958,972.723,132.138,972.723,133.592"/>
			<path fill="#00C0F2" d="M949.005,133.592c0,1.455-1.178,2.634-2.635,2.634c-1.453,0-2.633-1.18-2.633-2.634
				c0-1.454,1.18-2.634,2.633-2.634C947.827,130.958,949.005,132.138,949.005,133.592"/>
			
				<line fill="none" stroke="#00C0F2" stroke-width="4" stroke-miterlimit="10" x1="955.396" y1="339.915" x2="969.227" y2="339.915"/>
			<line fill="none" stroke="#00C0F2" stroke-width="4" stroke-miterlimit="10" x1="958.333" y1="340.005" x2="968.889" y2="330"/>
			
				<line fill="none" stroke="#00C0F2" stroke-width="4" stroke-miterlimit="10" x1="958.23" y1="543.013" x2="958.496" y2="593.737"/>
			
				<line fill="none" stroke="#00C0F2" stroke-width="4" stroke-miterlimit="10" x1="972.723" y1="557.505" x2="943.775" y2="557.505"/>
			
				<line fill="none" stroke="#00C0F2" stroke-width="4" stroke-miterlimit="10" x1="973.028" y1="571.596" x2="943.966" y2="571.596"/>
		</g>
	</g>
</g>
<g id="Layer_4">
</g>
</svg>
