<?xml version="1.0" encoding="utf-8"?>
<!-- Generator: Adobe Illustrator 18.0.0, SVG Export Plug-In . SVG Version: 6.00 Build 0)  -->
<!DOCTYPE svg PUBLIC "-//W3C//DTD SVG 1.1//EN" "http://www.w3.org/Graphics/SVG/1.1/DTD/svg11.dtd">
<svg version="1.1" id="Слой_1" xmlns="http://www.w3.org/2000/svg" xmlns:xlink="http://www.w3.org/1999/xlink" x="0px" y="0px"
	 viewBox="0 0 1022.9 687.2" enable-background="new 0 0 1022.9 687.2" xml:space="preserve">
<g id="Layer_2">
</g>
<rect y="303.9" fill="#FFFFFF" width="1022.9" height="383.3"/>
<g id="Layer_1">
	<g>
		<path fill="none" stroke="#00C0F2" stroke-width="4" stroke-miterlimit="10" d="M515.5,596.4c-13.3,0-20,12.6-20,20v53.3h40v-53.3
			C535.5,609,528.8,596.4,515.5,596.4z"/>
		<path fill="none" stroke="#00C0F2" stroke-width="4" stroke-miterlimit="10" d="M582.2,603.1c-11,0-20,9-20,20v46.7h40v-46.7
			C602.2,612,593.2,603.1,582.2,603.1z"/>
		<path fill="none" stroke="#00C0F2" stroke-width="4" stroke-miterlimit="10" d="M448.8,603.1c-11,0-20,9-20,20v46.7h40v-46.7
			C468.8,612,459.9,603.1,448.8,603.1z"/>
		<path fill="none" stroke="#00C0F2" stroke-width="4" stroke-miterlimit="10" d="M592.2,513.1c-5.5,0-10,4.5-10,10
			c0-5.5-4.5-10-10-10s-10,4.5-10,10v46.7h40v-46.7C602.2,517.5,597.7,513.1,592.2,513.1z"/>
		<path fill="none" stroke="#00C0F2" stroke-width="4" stroke-miterlimit="10" d="M458.8,513.1c-5.5,0-10,4.5-10,10
			c0-5.5-4.5-10-10-10s-10,4.5-10,10v46.7h40v-46.7C468.8,517.5,464.4,513.1,458.8,513.1z"/>
		<path fill="none" stroke="#00C0F2" stroke-width="4" stroke-miterlimit="10" d="M525.5,513.1c-5.5,0-10,4.5-10,10
			c0-5.5-4.5-10-10-10c-5.5,0-10,4.5-10,10v33.3h40v-33.3C535.5,517.5,531,513.1,525.5,513.1z"/>
		<path fill="none" stroke="#00C0F2" stroke-width="4" stroke-miterlimit="10" d="M428.8,503.1c4.9-5.5,12-9,20-9c8,0,15.1,3.5,20,9
			"/>
		<path fill="none" stroke="#00C0F2" stroke-width="4" stroke-miterlimit="10" d="M495.5,503.1c4.9-5.5,12-9,20-9c8,0,15.1,3.5,20,9
			"/>
		<path fill="none" stroke="#00C0F2" stroke-width="4" stroke-miterlimit="10" d="M562.2,503.1c4.9-5.5,12-9,20-9c8,0,15.1,3.5,20,9
			"/>
		<rect x="468.8" y="556.4" fill="none" stroke="#00C0F2" stroke-width="4" stroke-miterlimit="10" width="93.3" height="26.7"/>
		<line fill="none" stroke="#00C0F2" stroke-width="4" stroke-miterlimit="10" x1="402.2" y1="583.1" x2="628.8" y2="583.1"/>
		<line fill="none" stroke="#00C0F2" stroke-width="4" stroke-miterlimit="10" x1="562.2" y1="483.1" x2="602.2" y2="483.1"/>
		<line fill="none" stroke="#00C0F2" stroke-width="4" stroke-miterlimit="10" x1="535.5" y1="503.1" x2="562.2" y2="503.1"/>
		<line fill="none" stroke="#00C0F2" stroke-width="4" stroke-miterlimit="10" x1="468.8" y1="503.1" x2="495.5" y2="503.1"/>
		<line fill="none" stroke="#00C0F2" stroke-width="4" stroke-miterlimit="10" x1="402.2" y1="503.1" x2="428.8" y2="503.1"/>
		<line fill="none" stroke="#00C0F2" stroke-width="4" stroke-miterlimit="10" x1="495.5" y1="483.1" x2="535.5" y2="483.1"/>
		<line fill="none" stroke="#00C0F2" stroke-width="4" stroke-miterlimit="10" x1="468.8" y1="483.5" x2="428.8" y2="483.5"/>
		<line fill="none" stroke="#00C0F2" stroke-width="4" stroke-miterlimit="10" x1="735.3" y1="636.4" x2="735.3" y2="623.1"/>
		<line fill="none" stroke="#00C0F2" stroke-width="4" stroke-miterlimit="10" x1="735.3" y1="543.1" x2="735.3" y2="529.7"/>
		<path fill="none" stroke="#00C0F2" stroke-width="4" stroke-miterlimit="10" d="M425.5,429.8c0,5.5-4.5,10-10,10
			c-5.5,0-10-4.5-10-10c0-10,10-6.8,10-20.1C415.5,423,425.5,419.8,425.5,429.8z"/>
		<path fill="none" stroke="#00C0F2" stroke-width="4" stroke-miterlimit="10" d="M625.5,426.4c0,5.5-4.5,10-10,10
			c-5.5,0-10-4.5-10-10c0-10,10-6.8,10-20.1C615.5,419.6,625.5,416.4,625.5,426.4z"/>
		<polygon fill="none" stroke="#00C0F2" stroke-width="4" stroke-miterlimit="10" points="722.2,503.1 728.8,489.7 742.2,489.7 
			748.8,503.1 748.8,523.1 722.2,523.1 		"/>
		<path fill="none" stroke="#00C0F2" stroke-width="4" stroke-miterlimit="10" d="M745.5,473.3c0,5.5-4.5,10-10,10
			c-5.5,0-10-4.5-10-10c0-10,10-6.8,10-20.1C735.5,466.5,745.5,463.3,745.5,473.3z"/>
		<line fill="none" stroke="#00C0F2" stroke-width="4" stroke-miterlimit="10" x1="428.8" y1="563.1" x2="428.8" y2="583.1"/>
		<line fill="none" stroke="#00C0F2" stroke-width="4" stroke-miterlimit="10" x1="602.2" y1="563.1" x2="602.2" y2="583.1"/>
		<polyline fill="none" stroke="#00C0F2" stroke-width="4" stroke-miterlimit="10" points="428.8,569.7 415.5,556.4 402.2,569.7 		
			"/>
		<polyline fill="none" stroke="#00C0F2" stroke-width="4" stroke-miterlimit="10" points="628.8,569.7 615.5,556.4 602.2,569.7 		
			"/>
		<line fill="none" stroke="#00C0F2" stroke-width="4" stroke-miterlimit="10" x1="582.2" y1="519.7" x2="582.2" y2="526.4"/>
		<line fill="none" stroke="#00C0F2" stroke-width="4" stroke-miterlimit="10" x1="515.5" y1="519.7" x2="515.5" y2="526.4"/>
		<line fill="none" stroke="#00C0F2" stroke-width="4" stroke-miterlimit="10" x1="448.8" y1="519.7" x2="448.8" y2="526.4"/>
		<line fill="none" stroke="#00C0F2" stroke-width="4" stroke-miterlimit="10" x1="482.2" y1="483.1" x2="482.2" y2="496.4"/>
		<line fill="none" stroke="#00C0F2" stroke-width="4" stroke-miterlimit="10" x1="415.5" y1="529.7" x2="415.5" y2="543.1"/>
		<line fill="none" stroke="#00C0F2" stroke-width="4" stroke-miterlimit="10" x1="482.2" y1="529.7" x2="482.2" y2="543.1"/>
		<line fill="none" stroke="#00C0F2" stroke-width="4" stroke-miterlimit="10" x1="548.8" y1="529.7" x2="548.8" y2="543.1"/>
		<line fill="none" stroke="#00C0F2" stroke-width="4" stroke-miterlimit="10" x1="615.5" y1="529.7" x2="615.5" y2="543.1"/>
		<line fill="none" stroke="#00C0F2" stroke-width="4" stroke-miterlimit="10" x1="548.8" y1="483.1" x2="548.8" y2="496.4"/>
		<path fill="none" stroke="#00C0F2" stroke-width="4" stroke-miterlimit="10" d="M655.5,609.7c-7.4,0-13.3,6-13.3,13.3v26.7h26.7
			v-26.7C668.8,615.7,662.9,609.7,655.5,609.7z"/>
		<path fill="none" stroke="#00C0F2" stroke-width="4" stroke-miterlimit="10" d="M695.5,609.7c-7.4,0-13.3,6-13.3,13.3v26.7h26.7
			v-26.7C708.8,615.7,702.9,609.7,695.5,609.7z"/>
		<line fill="none" stroke="#00C0F2" stroke-width="4" stroke-miterlimit="10" x1="628.8" y1="523.1" x2="722.2" y2="523.1"/>
		<polyline fill="none" stroke="#00C0F2" stroke-width="4" stroke-miterlimit="10" points="415.5,469.7 475.5,363.1 555.5,363.1 
			622.2,469.7 		"/>
		<rect x="722.2" y="523.1" fill="none" stroke="#00C0F2" stroke-width="4" stroke-miterlimit="10" width="26.7" height="146.7"/>
		<line fill="none" stroke="#00C0F2" stroke-width="4" stroke-miterlimit="10" x1="722.2" y1="503.1" x2="628.8" y2="469.7"/>
		<line fill="none" stroke="#00C0F2" stroke-width="4" stroke-miterlimit="10" x1="722.2" y1="503.1" x2="602.2" y2="503.1"/>
		<line fill="none" stroke="#00C0F2" stroke-width="4" stroke-miterlimit="10" x1="722.2" y1="669.7" x2="628.8" y2="669.7"/>
		<line fill="none" stroke="#00C0F2" stroke-width="4" stroke-miterlimit="10" x1="602.2" y1="596.4" x2="628.8" y2="596.4"/>
		<line fill="none" stroke="#00C0F2" stroke-width="4" stroke-miterlimit="10" x1="722.2" y1="609.7" x2="748.8" y2="609.7"/>
		<line fill="none" stroke="#00C0F2" stroke-width="4" stroke-miterlimit="10" x1="722.2" y1="549.7" x2="748.8" y2="549.7"/>
		<line fill="none" stroke="#00C0F2" stroke-width="4" stroke-miterlimit="10" x1="428.8" y1="596.4" x2="402.2" y2="596.4"/>
		<line fill="none" stroke="#00C0F2" stroke-width="4" stroke-miterlimit="10" x1="468.8" y1="596.4" x2="495.5" y2="596.4"/>
		<line fill="none" stroke="#00C0F2" stroke-width="4" stroke-miterlimit="10" x1="535.5" y1="596.4" x2="562.2" y2="596.4"/>
		<polyline fill="none" stroke="#00C0F2" stroke-width="4" stroke-linecap="square" stroke-miterlimit="10" points="682.2,603.1 
			695.5,594.2 708.8,603.1 		"/>
		<polyline fill="none" stroke="#00C0F2" stroke-width="4" stroke-linecap="square" stroke-miterlimit="10" points="642.2,603.1 
			655.5,594.2 668.8,603.1 		"/>
		<polyline fill="none" stroke="#00C0F2" stroke-width="4" stroke-linecap="square" stroke-miterlimit="10" points="808.8,603.1 
			822.2,594.2 835.5,603.1 		"/>
		<polyline fill="none" stroke="#00C0F2" stroke-width="4" stroke-linecap="square" stroke-miterlimit="10" points="855.5,603.1 
			868.8,594.2 882.2,603.1 		"/>
		<polyline fill="none" stroke="#00C0F2" stroke-width="4" stroke-linecap="square" stroke-miterlimit="10" points="902.2,603.1 
			915.5,594.2 928.8,603.1 		"/>
		<polyline fill="none" stroke="#00C0F2" stroke-width="4" stroke-linecap="square" stroke-miterlimit="10" points="949.1,603.1 
			962.5,594.2 975.8,603.1 		"/>
		<polyline fill="none" stroke="#00C0F2" stroke-width="4" stroke-linecap="square" stroke-miterlimit="10" points="762.2,603.1 
			775.5,594.2 788.8,603.1 		"/>
		<line fill="none" stroke="#00C0F2" stroke-width="4" stroke-miterlimit="10" x1="602.2" y1="649.7" x2="628.8" y2="649.7"/>
		<line fill="none" stroke="#00C0F2" stroke-width="4" stroke-miterlimit="10" x1="535.5" y1="649.7" x2="562.2" y2="649.7"/>
		<line fill="none" stroke="#00C0F2" stroke-width="4" stroke-miterlimit="10" x1="468.8" y1="649.7" x2="495.5" y2="649.7"/>
		<line fill="none" stroke="#00C0F2" stroke-width="4" stroke-miterlimit="10" x1="402.2" y1="649.7" x2="428.8" y2="649.7"/>
		<line fill="none" stroke="#00C0F2" stroke-width="4" stroke-miterlimit="10" x1="722.2" y1="649.7" x2="748.8" y2="649.7"/>
		<line fill="none" stroke="#00C0F2" stroke-width="4" stroke-miterlimit="10" x1="615.5" y1="609.7" x2="615.5" y2="623.1"/>
		<line fill="none" stroke="#00C0F2" stroke-width="4" stroke-miterlimit="10" x1="548.8" y1="609.7" x2="548.8" y2="623.1"/>
		<line fill="none" stroke="#00C0F2" stroke-width="4" stroke-miterlimit="10" x1="482.2" y1="609.7" x2="482.2" y2="623.1"/>
		<line fill="none" stroke="#00C0F2" stroke-width="4" stroke-miterlimit="10" x1="415.5" y1="609.7" x2="415.5" y2="623.1"/>
		<path fill="none" stroke="#00C0F2" stroke-width="4" stroke-miterlimit="10" d="M702.2,536.4c-3.7,0-6.7,3-6.7,6.7v26.7h13.3
			v-26.7C708.8,539.4,705.9,536.4,702.2,536.4z"/>
		<path fill="none" stroke="#00C0F2" stroke-width="4" stroke-miterlimit="10" d="M648.8,536.4c-3.7,0-6.7,3-6.7,6.7v26.7h13.3
			v-26.7C655.5,539.4,652.5,536.4,648.8,536.4z"/>
		<path fill="none" stroke="#00C0F2" stroke-width="4" stroke-miterlimit="10" d="M675.5,536.4c-3.7,0-6.7,3-6.7,6.7v26.7h13.3
			v-26.7C682.2,539.4,679.2,536.4,675.5,536.4z"/>
		
			<line fill="none" stroke="#00C0F2" stroke-width="4" stroke-linecap="square" stroke-miterlimit="10" x1="642.2" y1="649.7" x2="642.2" y2="656.4"/>
		
			<line fill="none" stroke="#00C0F2" stroke-width="4" stroke-linecap="square" stroke-miterlimit="10" x1="668.8" y1="649.7" x2="668.8" y2="656.4"/>
		
			<line fill="none" stroke="#00C0F2" stroke-width="4" stroke-linecap="square" stroke-miterlimit="10" x1="682.2" y1="649.7" x2="682.2" y2="656.4"/>
		
			<line fill="none" stroke="#00C0F2" stroke-width="4" stroke-linecap="square" stroke-miterlimit="10" x1="708.8" y1="649.7" x2="708.8" y2="656.4"/>
		
			<line fill="none" stroke="#00C0F2" stroke-width="4" stroke-linecap="square" stroke-miterlimit="10" x1="708.8" y1="583.1" x2="642.2" y2="583.1"/>
		<line fill="none" stroke="#00C0F2" stroke-width="4" stroke-miterlimit="10" x1="295.7" y1="636.4" x2="295.7" y2="623.1"/>
		<line fill="none" stroke="#00C0F2" stroke-width="4" stroke-miterlimit="10" x1="295.7" y1="543.1" x2="295.7" y2="529.7"/>
		<polygon fill="none" stroke="#00C0F2" stroke-width="4" stroke-miterlimit="10" points="308.8,503.1 302.2,489.7 288.8,489.7 
			282.2,503.1 282.2,523.1 308.8,523.1 		"/>
		<path fill="none" stroke="#00C0F2" stroke-width="4" stroke-miterlimit="10" d="M285.5,473.3c0,5.5,4.5,10,10,10
			c5.5,0,10-4.5,10-10c0-10-10-6.8-10-20.1C295.5,466.5,285.5,463.3,285.5,473.3z"/>
		<path fill="none" stroke="#00C0F2" stroke-width="4" stroke-miterlimit="10" d="M375.5,609.7c7.4,0,13.3,6,13.3,13.3v26.7h-26.7
			v-26.7C362.2,615.7,368.1,609.7,375.5,609.7z"/>
		<path fill="none" stroke="#00C0F2" stroke-width="4" stroke-miterlimit="10" d="M335.5,609.7c7.4,0,13.3,6,13.3,13.3v26.7h-26.7
			v-26.7C322.2,615.7,328.1,609.7,335.5,609.7z"/>
		<line fill="none" stroke="#00C0F2" stroke-width="4" stroke-miterlimit="10" x1="402.2" y1="523.1" x2="308.8" y2="523.1"/>
		<rect x="282.2" y="523.1" fill="none" stroke="#00C0F2" stroke-width="4" stroke-miterlimit="10" width="26.7" height="146.7"/>
		<line fill="none" stroke="#00C0F2" stroke-width="4" stroke-miterlimit="10" x1="308.8" y1="503.1" x2="402.2" y2="469.7"/>
		<line fill="none" stroke="#00C0F2" stroke-width="4" stroke-miterlimit="10" x1="308.8" y1="503.1" x2="402.2" y2="503.1"/>
		<line fill="none" stroke="#00C0F2" stroke-width="4" stroke-miterlimit="10" x1="308.8" y1="609.7" x2="282.2" y2="609.7"/>
		<line fill="none" stroke="#00C0F2" stroke-width="4" stroke-miterlimit="10" x1="308.8" y1="549.7" x2="282.2" y2="549.7"/>
		<polyline fill="none" stroke="#00C0F2" stroke-width="4" stroke-linecap="square" stroke-miterlimit="10" points="348.8,603.1 
			335.5,594.2 322.2,603.1 		"/>
		<polyline fill="none" stroke="#00C0F2" stroke-width="4" stroke-linecap="square" stroke-miterlimit="10" points="388.8,603.1 
			375.5,594.2 362.2,603.1 		"/>
		<line fill="none" stroke="#00C0F2" stroke-width="4" stroke-miterlimit="10" x1="308.8" y1="649.7" x2="282.2" y2="649.7"/>
		<path fill="none" stroke="#00C0F2" stroke-width="4" stroke-miterlimit="10" d="M328.8,536.4c3.7,0,6.7,3,6.7,6.7v26.7h-13.3
			v-26.7C322.2,539.4,325.2,536.4,328.8,536.4z"/>
		<path fill="none" stroke="#00C0F2" stroke-width="4" stroke-miterlimit="10" d="M382.2,536.4c3.7,0,6.7,3,6.7,6.7v26.7h-13.3
			v-26.7C375.5,539.4,378.5,536.4,382.2,536.4z"/>
		<path fill="none" stroke="#00C0F2" stroke-width="4" stroke-miterlimit="10" d="M355.5,536.4c3.7,0,6.7,3,6.7,6.7v26.7h-13.3
			v-26.7C348.8,539.4,351.8,536.4,355.5,536.4z"/>
		
			<line fill="none" stroke="#00C0F2" stroke-width="4" stroke-linecap="square" stroke-miterlimit="10" x1="388.8" y1="649.7" x2="388.8" y2="656.4"/>
		
			<line fill="none" stroke="#00C0F2" stroke-width="4" stroke-linecap="square" stroke-miterlimit="10" x1="362.2" y1="649.7" x2="362.2" y2="656.4"/>
		
			<line fill="none" stroke="#00C0F2" stroke-width="4" stroke-linecap="square" stroke-miterlimit="10" x1="348.8" y1="649.7" x2="348.8" y2="656.4"/>
		
			<line fill="none" stroke="#00C0F2" stroke-width="4" stroke-linecap="square" stroke-miterlimit="10" x1="322.2" y1="649.7" x2="322.2" y2="656.4"/>
		
			<line fill="none" stroke="#00C0F2" stroke-width="4" stroke-linecap="square" stroke-miterlimit="10" x1="322.2" y1="583.1" x2="388.8" y2="583.1"/>
		
			<line fill="none" stroke="#00C0F2" stroke-width="4" stroke-linecap="square" stroke-miterlimit="10" x1="482.2" y1="569.7" x2="548.8" y2="569.7"/>
		<path fill="none" stroke="#00C0F2" stroke-width="4" stroke-miterlimit="10" d="M575.5,443.1h-26.7c0-7.5-2.5-14.4-6.7-20
			c-6.1-8.1-26.7-20-26.7-33.3c0,13.3-20.6,25.2-26.7,33.3c-4.2,5.6-6.7,12.5-6.7,20h-26.7"/>
		<line fill="none" stroke="#00C0F2" stroke-width="4" stroke-miterlimit="10" x1="562.2" y1="449.7" x2="562.2" y2="469.7"/>
		<line fill="none" stroke="#00C0F2" stroke-width="4" stroke-miterlimit="10" x1="468.8" y1="449.7" x2="468.8" y2="469.7"/>
		<line fill="none" stroke="#00C0F2" stroke-width="4" stroke-miterlimit="10" x1="482.2" y1="449.7" x2="482.2" y2="469.7"/>
		<line fill="none" stroke="#00C0F2" stroke-width="4" stroke-miterlimit="10" x1="548.8" y1="449.7" x2="548.8" y2="469.7"/>
		<line fill="none" stroke="#00C0F2" stroke-width="4" stroke-miterlimit="10" x1="495.5" y1="443.1" x2="495.5" y2="469.7"/>
		<line fill="none" stroke="#00C0F2" stroke-width="4" stroke-miterlimit="10" x1="535.5" y1="443.1" x2="535.5" y2="469.7"/>
		<line fill="none" stroke="#00C0F2" stroke-width="4" stroke-miterlimit="10" x1="515.5" y1="389.7" x2="515.5" y2="383.1"/>
		<line fill="none" stroke="#00C0F2" stroke-width="4" stroke-miterlimit="10" x1="562.2" y1="623.1" x2="602.2" y2="623.1"/>
		<line fill="none" stroke="#00C0F2" stroke-width="4" stroke-miterlimit="10" x1="562.2" y1="556.4" x2="602.2" y2="556.4"/>
		<line fill="none" stroke="#00C0F2" stroke-width="4" stroke-miterlimit="10" x1="562.2" y1="536.4" x2="602.2" y2="536.4"/>
		<line fill="none" stroke="#00C0F2" stroke-width="4" stroke-miterlimit="10" x1="468.8" y1="623.1" x2="428.8" y2="623.1"/>
		<polyline fill="#FFFFFF" points="602.2,469.7 602.2,456.4 608.8,443.1 622.2,443.1 628.8,456.4 628.8,469.7 		"/>
		<polyline fill="none" stroke="#00C0F2" stroke-width="4" stroke-miterlimit="10" points="602.2,469.7 602.2,456.4 608.8,443.1 
			622.2,443.1 628.8,456.4 628.8,469.7 		"/>
		<polyline fill="#FFFFFF" points="402.2,469.7 402.2,460.1 408.8,446.8 422.2,446.8 428.8,460.1 428.8,469.7 		"/>
		<polyline fill="none" stroke="#00C0F2" stroke-width="4" stroke-miterlimit="10" points="402.2,469.7 402.2,460.1 408.8,446.8 
			422.2,446.8 428.8,460.1 428.8,469.7 		"/>
		<line fill="none" stroke="#00C0F2" stroke-width="4" stroke-miterlimit="10" x1="582.2" y1="623.1" x2="582.2" y2="669.7"/>
		<line fill="none" stroke="#00C0F2" stroke-width="4" stroke-miterlimit="10" x1="448.8" y1="623.1" x2="448.8" y2="669.7"/>
		<line fill="none" stroke="#00C0F2" stroke-width="4" stroke-miterlimit="10" x1="402.2" y1="669.7" x2="308.8" y2="669.7"/>
		<line fill="none" stroke="#00C0F2" stroke-width="4" stroke-miterlimit="10" x1="415.5" y1="483.1" x2="415.5" y2="496.4"/>
		<line fill="none" stroke="#00C0F2" stroke-width="4" stroke-miterlimit="10" x1="615.5" y1="483.1" x2="615.5" y2="496.4"/>
		<line fill="none" stroke="#00C0F2" stroke-width="4" stroke-miterlimit="10" x1="402.2" y1="469.7" x2="402.2" y2="669.7"/>
		<line fill="none" stroke="#00C0F2" stroke-width="4" stroke-miterlimit="10" x1="402.2" y1="669.7" x2="628.8" y2="669.7"/>
		<line fill="none" stroke="#00C0F2" stroke-width="4" stroke-miterlimit="10" x1="628.8" y1="669.7" x2="628.8" y2="469.7"/>
		<line fill="none" stroke="#00C0F2" stroke-width="4" stroke-miterlimit="10" x1="628.8" y1="469.7" x2="402.2" y2="469.7"/>
		<path fill="#FFFFFF" d="M495.5,443.1c0,11,9,20,20,20c11,0,20-9,20-20c0-11-9-20-20-20C504.5,423.1,495.5,432,495.5,443.1"/>
		<circle fill="none" stroke="#00C0F2" stroke-width="4" stroke-miterlimit="10" cx="515.5" cy="443.1" r="20"/>
		<circle fill="none" stroke="#00C0F2" stroke-width="4" stroke-miterlimit="10" cx="515.5" cy="443.1" r="11.7"/>
		<line fill="none" stroke="#00C0F2" stroke-width="4" stroke-miterlimit="10" x1="582.2" y1="526.4" x2="582.2" y2="569.7"/>
		<line fill="none" stroke="#00C0F2" stroke-width="4" stroke-miterlimit="10" x1="428.8" y1="556.4" x2="468.8" y2="556.4"/>
		<line fill="none" stroke="#00C0F2" stroke-width="4" stroke-miterlimit="10" x1="428.8" y1="536.4" x2="468.8" y2="536.4"/>
		<line fill="none" stroke="#00C0F2" stroke-width="4" stroke-miterlimit="10" x1="448.8" y1="526.4" x2="448.8" y2="569.7"/>
		<line fill="none" stroke="#00C0F2" stroke-width="4" stroke-miterlimit="10" x1="495.5" y1="556.4" x2="535.5" y2="556.4"/>
		<line fill="none" stroke="#00C0F2" stroke-width="4" stroke-miterlimit="10" x1="495.5" y1="536.4" x2="535.5" y2="536.4"/>
		<line fill="none" stroke="#00C0F2" stroke-width="4" stroke-miterlimit="10" x1="515.5" y1="526.4" x2="515.5" y2="556.4"/>
		<polyline fill="none" stroke="#00C0F2" stroke-width="4" stroke-miterlimit="10" points="722.2,596.4 735.5,583.1 748.8,596.4 		
			"/>
		<line fill="none" stroke="#00C0F2" stroke-width="4" stroke-miterlimit="10" x1="1001.9" y1="636.4" x2="1001.9" y2="623.1"/>
		<line fill="none" stroke="#00C0F2" stroke-width="4" stroke-miterlimit="10" x1="1001.9" y1="543.1" x2="1001.9" y2="529.7"/>
		<rect x="988.8" y="523.1" fill="none" stroke="#00C0F2" stroke-width="4" stroke-miterlimit="10" width="26.7" height="146.7"/>
		<line fill="none" stroke="#00C0F2" stroke-width="4" stroke-miterlimit="10" x1="988.8" y1="609.7" x2="1015.5" y2="609.7"/>
		<line fill="none" stroke="#00C0F2" stroke-width="4" stroke-miterlimit="10" x1="988.8" y1="549.7" x2="1015.5" y2="549.7"/>
		<line fill="none" stroke="#00C0F2" stroke-width="4" stroke-miterlimit="10" x1="988.8" y1="649.7" x2="1015.5" y2="649.7"/>
		<polyline fill="none" stroke="#00C0F2" stroke-width="4" stroke-miterlimit="10" points="988.8,596.4 1002.2,583.1 1015.5,596.4 
					"/>
		<polyline fill="none" stroke="#00C0F2" stroke-width="4" stroke-miterlimit="10" points="282.2,596.4 295.5,583.1 308.8,596.4 		
			"/>
		<line fill="none" stroke="#00C0F2" stroke-width="4" stroke-miterlimit="10" x1="468.8" y1="469.7" x2="468.8" y2="669.7"/>
		<line fill="none" stroke="#00C0F2" stroke-width="4" stroke-miterlimit="10" x1="495.5" y1="583.1" x2="495.5" y2="669.7"/>
		<line fill="none" stroke="#00C0F2" stroke-width="4" stroke-miterlimit="10" x1="535.5" y1="583.1" x2="535.5" y2="669.7"/>
		<line fill="none" stroke="#00C0F2" stroke-width="4" stroke-miterlimit="10" x1="428.8" y1="469.7" x2="428.8" y2="669.7"/>
		<line fill="none" stroke="#00C0F2" stroke-width="4" stroke-miterlimit="10" x1="602.2" y1="469.7" x2="602.2" y2="669.7"/>
		<line fill="none" stroke="#00C0F2" stroke-width="4" stroke-miterlimit="10" x1="535.5" y1="469.7" x2="535.5" y2="556.4"/>
		<line fill="none" stroke="#00C0F2" stroke-width="4" stroke-miterlimit="10" x1="495.5" y1="469.7" x2="495.5" y2="556.4"/>
		<line fill="none" stroke="#00C0F2" stroke-width="4" stroke-miterlimit="10" x1="562.2" y1="469.7" x2="562.2" y2="669.7"/>
		<line fill="none" stroke="#00C0F2" stroke-width="4" stroke-miterlimit="10" x1="748.8" y1="523.1" x2="988.8" y2="523.1"/>
		<line fill="none" stroke="#00C0F2" stroke-width="4" stroke-miterlimit="10" x1="748.8" y1="583.1" x2="988.8" y2="583.1"/>
		<line fill="none" stroke="#00C0F2" stroke-width="4" stroke-miterlimit="10" x1="748.8" y1="569.7" x2="988.8" y2="569.7"/>
		<line fill="none" stroke="#00C0F2" stroke-width="4" stroke-miterlimit="10" x1="748.8" y1="669.7" x2="988.8" y2="669.7"/>
		<rect x="862.2" y="616.4" fill="none" stroke="#00C0F2" stroke-width="4" stroke-miterlimit="10" width="13.3" height="33.3"/>
		<polygon fill="none" stroke="#00C0F2" stroke-width="4" stroke-miterlimit="10" points="875.5,556.4 862.2,556.4 862.2,543.1 
			868.8,536.4 875.5,543.1 		"/>
		<rect x="815.5" y="616.4" fill="none" stroke="#00C0F2" stroke-width="4" stroke-miterlimit="10" width="13.3" height="33.3"/>
		<rect x="768.8" y="616.4" fill="none" stroke="#00C0F2" stroke-width="4" stroke-miterlimit="10" width="13.3" height="33.3"/>
		<rect x="908.8" y="616.4" fill="none" stroke="#00C0F2" stroke-width="4" stroke-miterlimit="10" width="13.3" height="33.3"/>
		<rect x="955.5" y="616.4" fill="none" stroke="#00C0F2" stroke-width="4" stroke-miterlimit="10" width="13.3" height="33.3"/>
		
			<line fill="none" stroke="#00C0F2" stroke-width="4" stroke-linecap="square" stroke-miterlimit="10" x1="788.8" y1="649.7" x2="762.2" y2="649.7"/>
		
			<line fill="none" stroke="#00C0F2" stroke-width="4" stroke-linecap="square" stroke-miterlimit="10" x1="835.5" y1="649.7" x2="808.8" y2="649.7"/>
		
			<line fill="none" stroke="#00C0F2" stroke-width="4" stroke-linecap="square" stroke-miterlimit="10" x1="882.2" y1="649.7" x2="855.5" y2="649.7"/>
		
			<line fill="none" stroke="#00C0F2" stroke-width="4" stroke-linecap="square" stroke-miterlimit="10" x1="928.8" y1="649.7" x2="902.2" y2="649.7"/>
		
			<line fill="none" stroke="#00C0F2" stroke-width="4" stroke-linecap="square" stroke-miterlimit="10" x1="975.5" y1="649.7" x2="948.8" y2="649.7"/>
		<polygon fill="none" stroke="#00C0F2" stroke-width="4" stroke-linejoin="bevel" stroke-miterlimit="10" points="1002.2,503.1 
			988.8,523.1 1015.5,523.1 		"/>
		
			<line fill="none" stroke="#00C0F2" stroke-width="4" stroke-linejoin="bevel" stroke-miterlimit="10" x1="845.5" y1="603.1" x2="845.5" y2="656.4"/>
		
			<line fill="none" stroke="#00C0F2" stroke-width="4" stroke-linejoin="bevel" stroke-miterlimit="10" x1="892.2" y1="603.1" x2="892.2" y2="656.4"/>
		
			<line fill="none" stroke="#00C0F2" stroke-width="4" stroke-linejoin="bevel" stroke-miterlimit="10" x1="938.8" y1="603.1" x2="938.8" y2="656.4"/>
		
			<line fill="none" stroke="#00C0F2" stroke-width="4" stroke-linejoin="bevel" stroke-miterlimit="10" x1="798.8" y1="603.1" x2="798.8" y2="656.4"/>
		<polyline fill="none" stroke="#00C0F2" stroke-width="4" stroke-linecap="square" stroke-miterlimit="10" points="222.2,603.1 
			208.8,594.2 195.5,603.1 		"/>
		<polyline fill="none" stroke="#00C0F2" stroke-width="4" stroke-linecap="square" stroke-miterlimit="10" points="175.5,603.1 
			162.2,594.2 148.8,603.1 		"/>
		<polyline fill="none" stroke="#00C0F2" stroke-width="4" stroke-linecap="square" stroke-miterlimit="10" points="128.8,603.1 
			115.5,594.2 102.2,603.1 		"/>
		<polyline fill="none" stroke="#00C0F2" stroke-width="4" stroke-linecap="square" stroke-miterlimit="10" points="81.9,603.1 
			68.5,594.2 55.2,603.1 		"/>
		<polyline fill="none" stroke="#00C0F2" stroke-width="4" stroke-linecap="square" stroke-miterlimit="10" points="268.8,603.1 
			255.5,594.2 242.2,603.1 		"/>
		<line fill="none" stroke="#00C0F2" stroke-width="4" stroke-miterlimit="10" x1="29.1" y1="636.4" x2="29.1" y2="623.1"/>
		<line fill="none" stroke="#00C0F2" stroke-width="4" stroke-miterlimit="10" x1="29.1" y1="543.1" x2="29.1" y2="529.7"/>
		<rect x="15.5" y="523.1" fill="none" stroke="#00C0F2" stroke-width="4" stroke-miterlimit="10" width="26.7" height="146.7"/>
		<line fill="none" stroke="#00C0F2" stroke-width="4" stroke-miterlimit="10" x1="42.2" y1="609.7" x2="15.5" y2="609.7"/>
		<line fill="none" stroke="#00C0F2" stroke-width="4" stroke-miterlimit="10" x1="42.2" y1="549.7" x2="15.5" y2="549.7"/>
		<line fill="none" stroke="#00C0F2" stroke-width="4" stroke-miterlimit="10" x1="42.2" y1="649.7" x2="15.5" y2="649.7"/>
		<polyline fill="none" stroke="#00C0F2" stroke-width="4" stroke-miterlimit="10" points="42.2,596.4 28.8,583.1 15.5,596.4 		"/>
		<line fill="none" stroke="#00C0F2" stroke-width="4" stroke-miterlimit="10" x1="282.2" y1="523.1" x2="42.2" y2="523.1"/>
		<line fill="none" stroke="#00C0F2" stroke-width="4" stroke-miterlimit="10" x1="282.2" y1="583.1" x2="42.2" y2="583.1"/>
		<line fill="none" stroke="#00C0F2" stroke-width="4" stroke-miterlimit="10" x1="282.2" y1="569.7" x2="42.2" y2="569.7"/>
		<line fill="none" stroke="#00C0F2" stroke-width="4" stroke-miterlimit="10" x1="282.2" y1="669.7" x2="42.2" y2="669.7"/>
		<rect x="155.5" y="616.4" fill="none" stroke="#00C0F2" stroke-width="4" stroke-miterlimit="10" width="13.3" height="33.3"/>
		<polygon fill="none" stroke="#00C0F2" stroke-width="4" stroke-miterlimit="10" points="155.5,556.4 168.8,556.4 168.8,543.1 
			162.2,536.4 155.5,543.1 		"/>
		<rect x="202.2" y="616.4" fill="none" stroke="#00C0F2" stroke-width="4" stroke-miterlimit="10" width="13.3" height="33.3"/>
		<rect x="248.8" y="616.4" fill="none" stroke="#00C0F2" stroke-width="4" stroke-miterlimit="10" width="13.3" height="33.3"/>
		<rect x="108.8" y="616.4" fill="none" stroke="#00C0F2" stroke-width="4" stroke-miterlimit="10" width="13.3" height="33.3"/>
		<rect x="62.2" y="616.4" fill="none" stroke="#00C0F2" stroke-width="4" stroke-miterlimit="10" width="13.3" height="33.3"/>
		
			<line fill="none" stroke="#00C0F2" stroke-width="4" stroke-linecap="square" stroke-miterlimit="10" x1="242.2" y1="649.7" x2="268.8" y2="649.7"/>
		
			<line fill="none" stroke="#00C0F2" stroke-width="4" stroke-linecap="square" stroke-miterlimit="10" x1="195.5" y1="649.7" x2="222.2" y2="649.7"/>
		
			<line fill="none" stroke="#00C0F2" stroke-width="4" stroke-linecap="square" stroke-miterlimit="10" x1="148.8" y1="649.7" x2="175.5" y2="649.7"/>
		
			<line fill="none" stroke="#00C0F2" stroke-width="4" stroke-linecap="square" stroke-miterlimit="10" x1="102.2" y1="649.7" x2="128.8" y2="649.7"/>
		
			<line fill="none" stroke="#00C0F2" stroke-width="4" stroke-linecap="square" stroke-miterlimit="10" x1="55.5" y1="649.7" x2="82.2" y2="649.7"/>
		<polygon fill="none" stroke="#00C0F2" stroke-width="4" stroke-linejoin="bevel" stroke-miterlimit="10" points="28.8,503.1 
			42.2,523.1 15.5,523.1 		"/>
		
			<line fill="none" stroke="#00C0F2" stroke-width="4" stroke-linejoin="bevel" stroke-miterlimit="10" x1="185.5" y1="603.1" x2="185.5" y2="656.4"/>
		
			<line fill="none" stroke="#00C0F2" stroke-width="4" stroke-linejoin="bevel" stroke-miterlimit="10" x1="138.8" y1="603.1" x2="138.8" y2="656.4"/>
		
			<line fill="none" stroke="#00C0F2" stroke-width="4" stroke-linejoin="bevel" stroke-miterlimit="10" x1="92.2" y1="603.1" x2="92.2" y2="656.4"/>
		
			<line fill="none" stroke="#00C0F2" stroke-width="4" stroke-linejoin="bevel" stroke-miterlimit="10" x1="232.2" y1="603.1" x2="232.2" y2="656.4"/>
	</g>
</g>
</svg>
