<?xml version="1.0" encoding="utf-8"?>
<!-- Generator: Adobe Illustrator 18.0.0, SVG Export Plug-In . SVG Version: 6.00 Build 0)  -->
<!DOCTYPE svg PUBLIC "-//W3C//DTD SVG 1.1//EN" "http://www.w3.org/Graphics/SVG/1.1/DTD/svg11.dtd">
<svg version="1.1" id="Слой_1" xmlns="http://www.w3.org/2000/svg" xmlns:xlink="http://www.w3.org/1999/xlink" x="0px" y="0px"
	 viewBox="0 0 1022.9 687.2" enable-background="new 0 0 1022.9 687.2" xml:space="preserve">
<g id="Layer_2">
</g>
<rect y="272.9" fill="#FFFFFF" width="1022.9" height="414.3"/>
<g id="Layer_1">
	<g>
		<polygon fill="none" stroke="#00C0F2" stroke-width="4" stroke-miterlimit="10" points="573.2,405.9 509,377.3 444.7,405.9 
			416.1,405.9 416.1,427.3 444.7,427.3 509,398.8 573.2,427.3 601.8,427.3 601.8,405.9 		"/>
		<polygon fill="none" stroke="#00C0F2" stroke-width="4" stroke-miterlimit="10" points="573.2,427.3 509,398.8 444.7,427.3 
			416.1,427.3 416.1,670.2 509,670.2 601.8,670.2 601.8,427.3 		"/>
		
			<line fill="none" stroke="#00C0F2" stroke-width="4" stroke-linecap="square" stroke-miterlimit="10" x1="584.2" y1="663" x2="601.2" y2="663"/>
		<line fill="none" stroke="#00C0F2" stroke-width="4" stroke-miterlimit="10" x1="509" y1="670.2" x2="922.3" y2="670.2"/>
		
			<line fill="none" stroke="#00C0F2" stroke-width="4" stroke-linecap="square" stroke-miterlimit="10" x1="584.2" y1="648.8" x2="601.2" y2="648.8"/>
		
			<line fill="none" stroke="#00C0F2" stroke-width="4" stroke-linecap="square" stroke-miterlimit="10" x1="584.2" y1="634.5" x2="601.2" y2="634.5"/>
		
			<line fill="none" stroke="#00C0F2" stroke-width="4" stroke-linecap="square" stroke-miterlimit="10" x1="584.2" y1="620.2" x2="601.2" y2="620.2"/>
		
			<line fill="none" stroke="#00C0F2" stroke-width="4" stroke-linecap="square" stroke-miterlimit="10" x1="584.2" y1="605.9" x2="601.2" y2="605.9"/>
		
			<line fill="none" stroke="#00C0F2" stroke-width="4" stroke-linecap="square" stroke-miterlimit="10" x1="584.2" y1="591.6" x2="601.2" y2="591.6"/>
		<line fill="none" stroke="#00C0F2" stroke-width="4" stroke-miterlimit="10" x1="601.8" y1="591.6" x2="901.8" y2="591.6"/>
		<line fill="none" stroke="#00C0F2" stroke-width="4" stroke-miterlimit="10" x1="601.8" y1="577.3" x2="901.8" y2="577.3"/>
		<line fill="none" stroke="#00C0F2" stroke-width="4" stroke-miterlimit="10" x1="601.8" y1="491.6" x2="901.8" y2="491.6"/>
		<line fill="none" stroke="#00C0F2" stroke-width="4" stroke-miterlimit="10" x1="601.8" y1="477.3" x2="901.8" y2="477.3"/>
		<line fill="none" stroke="#00C0F2" stroke-width="4" stroke-miterlimit="10" x1="601.8" y1="463" x2="901.8" y2="463"/>
		
			<line fill="none" stroke="#00C0F2" stroke-width="4" stroke-linecap="square" stroke-miterlimit="10" x1="584.2" y1="577.3" x2="601.2" y2="577.3"/>
		
			<line fill="none" stroke="#00C0F2" stroke-width="4" stroke-linecap="square" stroke-miterlimit="10" x1="584.2" y1="563" x2="601.2" y2="563"/>
		
			<line fill="none" stroke="#00C0F2" stroke-width="4" stroke-linecap="square" stroke-miterlimit="10" x1="584.2" y1="548.8" x2="601.2" y2="548.8"/>
		
			<line fill="none" stroke="#00C0F2" stroke-width="4" stroke-linecap="square" stroke-miterlimit="10" x1="584.2" y1="534.5" x2="601.2" y2="534.5"/>
		
			<line fill="none" stroke="#00C0F2" stroke-width="4" stroke-linecap="square" stroke-miterlimit="10" x1="584.2" y1="520.2" x2="601.2" y2="520.2"/>
		
			<line fill="none" stroke="#00C0F2" stroke-width="4" stroke-linecap="square" stroke-miterlimit="10" x1="584.2" y1="505.9" x2="601.2" y2="505.9"/>
		<line fill="none" stroke="#00C0F2" stroke-width="4" stroke-miterlimit="10" x1="580.4" y1="491.6" x2="601.2" y2="491.6"/>
		<line fill="none" stroke="#00C0F2" stroke-width="4" stroke-miterlimit="10" x1="580.4" y1="477.3" x2="601.2" y2="477.3"/>
		<line fill="none" stroke="#00C0F2" stroke-width="4" stroke-miterlimit="10" x1="901.8" y1="663" x2="923.2" y2="663"/>
		<line fill="none" stroke="#00C0F2" stroke-width="4" stroke-miterlimit="10" x1="901.8" y1="648.8" x2="923.2" y2="648.8"/>
		<line fill="none" stroke="#00C0F2" stroke-width="4" stroke-miterlimit="10" x1="901.8" y1="634.5" x2="923.2" y2="634.5"/>
		<line fill="none" stroke="#00C0F2" stroke-width="4" stroke-miterlimit="10" x1="901.8" y1="620.2" x2="923.2" y2="620.2"/>
		<line fill="none" stroke="#00C0F2" stroke-width="4" stroke-miterlimit="10" x1="901.8" y1="605.9" x2="923.2" y2="605.9"/>
		<line fill="none" stroke="#00C0F2" stroke-width="4" stroke-miterlimit="10" x1="901.8" y1="591.6" x2="923.2" y2="591.6"/>
		<line fill="none" stroke="#00C0F2" stroke-width="4" stroke-miterlimit="10" x1="901.8" y1="577.3" x2="1001.8" y2="577.3"/>
		<line fill="none" stroke="#00C0F2" stroke-width="4" stroke-miterlimit="10" x1="901.8" y1="548.8" x2="923.2" y2="548.8"/>
		<line fill="none" stroke="#00C0F2" stroke-width="4" stroke-miterlimit="10" x1="901.8" y1="534.5" x2="923.2" y2="534.5"/>
		<line fill="none" stroke="#00C0F2" stroke-width="4" stroke-miterlimit="10" x1="901.8" y1="520.2" x2="923.2" y2="520.2"/>
		<line fill="none" stroke="#00C0F2" stroke-width="4" stroke-miterlimit="10" x1="901.8" y1="505.9" x2="923.2" y2="505.9"/>
		<line fill="none" stroke="#00C0F2" stroke-width="4" stroke-miterlimit="10" x1="980.4" y1="663" x2="1001.8" y2="663"/>
		<line fill="none" stroke="#00C0F2" stroke-width="4" stroke-miterlimit="10" x1="980.4" y1="648.8" x2="1001.8" y2="648.8"/>
		<line fill="none" stroke="#00C0F2" stroke-width="4" stroke-miterlimit="10" x1="980.4" y1="634.5" x2="1001.8" y2="634.5"/>
		<line fill="none" stroke="#00C0F2" stroke-width="4" stroke-miterlimit="10" x1="980.4" y1="620.2" x2="1001.8" y2="620.2"/>
		<line fill="none" stroke="#00C0F2" stroke-width="4" stroke-miterlimit="10" x1="980.4" y1="605.9" x2="1001.8" y2="605.9"/>
		<line fill="none" stroke="#00C0F2" stroke-width="4" stroke-miterlimit="10" x1="980.4" y1="591.6" x2="1001.8" y2="591.6"/>
		<line fill="none" stroke="#00C0F2" stroke-width="4" stroke-miterlimit="10" x1="980.4" y1="548.8" x2="1001.8" y2="548.8"/>
		<line fill="none" stroke="#00C0F2" stroke-width="4" stroke-miterlimit="10" x1="980.4" y1="534.5" x2="1001.8" y2="534.5"/>
		<line fill="none" stroke="#00C0F2" stroke-width="4" stroke-miterlimit="10" x1="980.4" y1="520.2" x2="1001.8" y2="520.2"/>
		<line fill="none" stroke="#00C0F2" stroke-width="4" stroke-miterlimit="10" x1="980.4" y1="505.9" x2="1001.8" y2="505.9"/>
		<line fill="none" stroke="#00C0F2" stroke-width="4" stroke-miterlimit="10" x1="901.8" y1="491.6" x2="922.6" y2="491.6"/>
		<line fill="none" stroke="#00C0F2" stroke-width="4" stroke-miterlimit="10" x1="901.8" y1="477.3" x2="922.6" y2="477.3"/>
		<rect x="866.1" y="605.9" fill="none" stroke="#00C0F2" stroke-width="4" stroke-miterlimit="10" width="21.4" height="50"/>
		<rect x="816.1" y="605.9" fill="none" stroke="#00C0F2" stroke-width="4" stroke-miterlimit="10" width="21.4" height="50"/>
		<rect x="766.1" y="605.9" fill="none" stroke="#00C0F2" stroke-width="4" stroke-miterlimit="10" width="21.4" height="50"/>
		<rect x="716.1" y="605.9" fill="none" stroke="#00C0F2" stroke-width="4" stroke-miterlimit="10" width="21.4" height="50"/>
		<rect x="666.1" y="605.9" fill="none" stroke="#00C0F2" stroke-width="4" stroke-miterlimit="10" width="21.4" height="50"/>
		<rect x="616.1" y="605.9" fill="none" stroke="#00C0F2" stroke-width="4" stroke-miterlimit="10" width="21.4" height="50"/>
		<rect x="616.1" y="520.2" fill="none" stroke="#00C0F2" stroke-width="4" stroke-miterlimit="10" width="21.4" height="42.9"/>
		<circle fill="none" stroke="#00C0F2" stroke-width="4" stroke-miterlimit="10" cx="584.2" cy="448.8" r="7.3"/>
		<rect x="487.5" y="548.8" fill="none" stroke="#00C0F2" stroke-width="4" stroke-miterlimit="10" width="42.9" height="21.4"/>
		<rect x="530.4" y="505.9" fill="none" stroke="#00C0F2" stroke-width="4" stroke-miterlimit="10" width="42.9" height="42.9"/>
		<path fill="none" stroke="#00C0F2" stroke-width="4" stroke-miterlimit="10" d="M509,420.2c-35.5,0-64.3,28.8-64.3,64.3v85.7
			h128.6v-85.7C573.2,449,544.5,420.2,509,420.2z"/>
		
			<line fill="none" stroke="#00C0F2" stroke-width="4" stroke-linecap="square" stroke-miterlimit="10" x1="637.5" y1="505.9" x2="616.1" y2="505.9"/>
		<rect x="666.1" y="520.2" fill="none" stroke="#00C0F2" stroke-width="4" stroke-miterlimit="10" width="21.4" height="42.9"/>
		
			<line fill="none" stroke="#00C0F2" stroke-width="4" stroke-linecap="square" stroke-miterlimit="10" x1="687.5" y1="505.9" x2="666.1" y2="505.9"/>
		<rect x="716.1" y="520.2" fill="none" stroke="#00C0F2" stroke-width="4" stroke-miterlimit="10" width="21.4" height="42.9"/>
		
			<line fill="none" stroke="#00C0F2" stroke-width="4" stroke-linecap="square" stroke-miterlimit="10" x1="737.5" y1="505.9" x2="716.1" y2="505.9"/>
		<rect x="766.1" y="520.2" fill="none" stroke="#00C0F2" stroke-width="4" stroke-miterlimit="10" width="21.4" height="42.9"/>
		
			<line fill="none" stroke="#00C0F2" stroke-width="4" stroke-linecap="square" stroke-miterlimit="10" x1="787.5" y1="505.9" x2="766.1" y2="505.9"/>
		<rect x="816.1" y="520.2" fill="none" stroke="#00C0F2" stroke-width="4" stroke-miterlimit="10" width="21.4" height="42.9"/>
		
			<line fill="none" stroke="#00C0F2" stroke-width="4" stroke-linecap="square" stroke-miterlimit="10" x1="837.5" y1="505.9" x2="816.1" y2="505.9"/>
		<rect x="866.1" y="520.2" fill="none" stroke="#00C0F2" stroke-width="4" stroke-miterlimit="10" width="21.4" height="42.9"/>
		
			<line fill="none" stroke="#00C0F2" stroke-width="4" stroke-linecap="square" stroke-miterlimit="10" x1="887.5" y1="505.9" x2="866.1" y2="505.9"/>
		<line fill="none" stroke="#00C0F2" stroke-width="4" stroke-miterlimit="10" x1="651.8" y1="570.2" x2="651.8" y2="505.9"/>
		<line fill="none" stroke="#00C0F2" stroke-width="4" stroke-miterlimit="10" x1="701.8" y1="570.2" x2="701.8" y2="505.9"/>
		<line fill="none" stroke="#00C0F2" stroke-width="4" stroke-miterlimit="10" x1="751.8" y1="570.2" x2="751.8" y2="505.9"/>
		<line fill="none" stroke="#00C0F2" stroke-width="4" stroke-miterlimit="10" x1="801.8" y1="570.2" x2="801.8" y2="505.9"/>
		<line fill="none" stroke="#00C0F2" stroke-width="4" stroke-miterlimit="10" x1="851.8" y1="570.2" x2="851.8" y2="505.9"/>
		
			<line fill="none" stroke="#00C0F2" stroke-width="4" stroke-linecap="square" stroke-miterlimit="10" x1="651.8" y1="655.9" x2="651.8" y2="605.9"/>
		
			<line fill="none" stroke="#00C0F2" stroke-width="4" stroke-linecap="square" stroke-miterlimit="10" x1="701.8" y1="655.9" x2="701.8" y2="605.9"/>
		
			<line fill="none" stroke="#00C0F2" stroke-width="4" stroke-linecap="square" stroke-miterlimit="10" x1="751.8" y1="655.9" x2="751.8" y2="605.9"/>
		
			<line fill="none" stroke="#00C0F2" stroke-width="4" stroke-linecap="square" stroke-miterlimit="10" x1="801.8" y1="655.9" x2="801.8" y2="605.9"/>
		
			<line fill="none" stroke="#00C0F2" stroke-width="4" stroke-linecap="square" stroke-miterlimit="10" x1="851.8" y1="655.9" x2="851.8" y2="605.9"/>
		<rect x="537.5" y="598.8" fill="none" stroke="#00C0F2" stroke-width="4" stroke-miterlimit="10" width="35.7" height="71.4"/>
		<rect x="937.5" y="598.8" fill="none" stroke="#00C0F2" stroke-width="4" stroke-miterlimit="10" width="28.6" height="71.4"/>
		<rect x="488.5" y="598.8" fill="none" stroke="#00C0F2" stroke-width="4" stroke-miterlimit="10" width="40.8" height="71.4"/>
		<rect x="444.7" y="598.8" fill="none" stroke="#00C0F2" stroke-width="4" stroke-miterlimit="10" width="35.7" height="71.4"/>
		<rect x="922.3" y="477.3" fill="none" stroke="#00C0F2" stroke-width="4" stroke-miterlimit="10" width="79.8" height="192.9"/>
		<line fill="none" stroke="#00C0F2" stroke-width="4" stroke-miterlimit="10" x1="509" y1="463" x2="569.5" y2="463"/>
		<line fill="none" stroke="#00C0F2" stroke-width="4" stroke-miterlimit="10" x1="530.4" y1="505.9" x2="530.4" y2="423.7"/>
		<path fill="#FFFFFF" d="M489.5,484.5c0,10.8,8.7,19.5,19.5,19.5c10.7,0,19.5-8.7,19.5-19.5c0-10.7-8.7-19.5-19.5-19.5
			S489.5,473.7,489.5,484.5"/>
		<circle fill="none" stroke="#00C0F2" stroke-width="4" stroke-miterlimit="10" cx="509" cy="484.5" r="19.5"/>
		<polygon fill="#FFFFFF" points="573.2,477.3 609,477.3 601.8,491.6 573.2,491.6 		"/>
		<polyline fill="none" stroke="#00C0F2" stroke-width="4" stroke-miterlimit="10" points="573.2,477.3 609,477.3 601.8,491.6 
			573.2,491.6 573.2,477.3 		"/>
		<polygon fill="#FFFFFF" points="1001.8,491.6 980.4,491.6 973.2,477.3 1009,477.3 		"/>
		<polygon fill="none" stroke="#00C0F2" stroke-width="4" stroke-miterlimit="10" points="1001.8,491.6 980.4,491.6 973.2,477.3 
			1009,477.3 		"/>
		<polyline fill="#FFFFFF" points="901.8,477.3 930.4,477.3 923.2,491.6 901.8,491.6 		"/>
		<polyline fill="none" stroke="#00C0F2" stroke-width="4" stroke-miterlimit="10" points="901.8,477.3 930.4,477.3 923.2,491.6 
			901.8,491.6 		"/>
		<polygon fill="#FFFFFF" points="1001.8,463 901.8,463 894.7,448.8 1009,448.8 		"/>
		<polygon fill="none" stroke="#00C0F2" stroke-width="4" stroke-miterlimit="10" points="1001.8,463 901.8,463 894.7,448.8 
			1009,448.8 		"/>
		<rect x="901.8" y="427.3" fill="none" stroke="#00C0F2" stroke-width="4" stroke-miterlimit="10" width="100" height="21.4"/>
		<line fill="none" stroke="#00C0F2" stroke-width="4" stroke-miterlimit="10" x1="980.4" y1="438" x2="923.3" y2="438"/>
		<rect x="16.1" y="427.3" fill="none" stroke="#00C0F2" stroke-width="4" stroke-miterlimit="10" width="100" height="21.4"/>
		<line fill="none" stroke="#00C0F2" stroke-width="4" stroke-miterlimit="10" x1="94.7" y1="438" x2="37.5" y2="438"/>
		<circle fill="none" stroke="#00C0F2" stroke-width="4" stroke-miterlimit="10" cx="951.8" cy="563" r="5.9"/>
		<path fill="none" stroke="#00C0F2" stroke-width="4" stroke-miterlimit="10" d="M901.8,563h29.8c2.9-8.3,10.9-14.3,20.2-14.3
			c9.3,0,17.3,6,20.2,14.3h29.8"/>
		<line fill="none" stroke="#00C0F2" stroke-width="4" stroke-miterlimit="10" x1="573.2" y1="620.2" x2="537.5" y2="620.2"/>
		<line fill="none" stroke="#00C0F2" stroke-width="4" stroke-miterlimit="10" x1="523.2" y1="620.2" x2="494.7" y2="620.2"/>
		<line fill="none" stroke="#00C0F2" stroke-width="4" stroke-miterlimit="10" x1="937.5" y1="620.2" x2="966.1" y2="620.2"/>
		
			<line fill="none" stroke="#00C0F2" stroke-width="4" stroke-linecap="square" stroke-miterlimit="10" x1="434.1" y1="663" x2="416.7" y2="663"/>
		<line fill="none" stroke="#00C0F2" stroke-width="4" stroke-miterlimit="10" x1="509" y1="670.2" x2="94.7" y2="670.2"/>
		
			<line fill="none" stroke="#00C0F2" stroke-width="4" stroke-linecap="square" stroke-miterlimit="10" x1="434.1" y1="648.8" x2="416.7" y2="648.8"/>
		
			<line fill="none" stroke="#00C0F2" stroke-width="4" stroke-linecap="square" stroke-miterlimit="10" x1="434.1" y1="634.5" x2="416.7" y2="634.5"/>
		
			<line fill="none" stroke="#00C0F2" stroke-width="4" stroke-linecap="square" stroke-miterlimit="10" x1="434.1" y1="620.2" x2="416.7" y2="620.2"/>
		
			<line fill="none" stroke="#00C0F2" stroke-width="4" stroke-linecap="square" stroke-miterlimit="10" x1="434.1" y1="605.9" x2="416.7" y2="605.9"/>
		
			<line fill="none" stroke="#00C0F2" stroke-width="4" stroke-linecap="square" stroke-miterlimit="10" x1="434.1" y1="591.6" x2="416.7" y2="591.6"/>
		<line fill="none" stroke="#00C0F2" stroke-width="4" stroke-miterlimit="10" x1="416.1" y1="591.6" x2="116.1" y2="591.6"/>
		<line fill="none" stroke="#00C0F2" stroke-width="4" stroke-miterlimit="10" x1="416.1" y1="577.3" x2="116.1" y2="577.3"/>
		<line fill="none" stroke="#00C0F2" stroke-width="4" stroke-miterlimit="10" x1="416.1" y1="491.6" x2="116.1" y2="491.6"/>
		<line fill="none" stroke="#00C0F2" stroke-width="4" stroke-miterlimit="10" x1="416.1" y1="477.3" x2="116.1" y2="477.3"/>
		<line fill="none" stroke="#00C0F2" stroke-width="4" stroke-miterlimit="10" x1="416.1" y1="463" x2="116.1" y2="463"/>
		
			<line fill="none" stroke="#00C0F2" stroke-width="4" stroke-linecap="square" stroke-miterlimit="10" x1="434.1" y1="577.3" x2="416.7" y2="577.3"/>
		
			<line fill="none" stroke="#00C0F2" stroke-width="4" stroke-linecap="square" stroke-miterlimit="10" x1="434.1" y1="563" x2="416.7" y2="563"/>
		
			<line fill="none" stroke="#00C0F2" stroke-width="4" stroke-linecap="square" stroke-miterlimit="10" x1="434.1" y1="548.8" x2="416.7" y2="548.8"/>
		
			<line fill="none" stroke="#00C0F2" stroke-width="4" stroke-linecap="square" stroke-miterlimit="10" x1="434.1" y1="534.5" x2="416.7" y2="534.5"/>
		
			<line fill="none" stroke="#00C0F2" stroke-width="4" stroke-linecap="square" stroke-miterlimit="10" x1="434.1" y1="520.2" x2="416.7" y2="520.2"/>
		
			<line fill="none" stroke="#00C0F2" stroke-width="4" stroke-linecap="square" stroke-miterlimit="10" x1="434.1" y1="505.9" x2="416.7" y2="505.9"/>
		<line fill="none" stroke="#00C0F2" stroke-width="4" stroke-miterlimit="10" x1="437.5" y1="491.6" x2="416.7" y2="491.6"/>
		<line fill="none" stroke="#00C0F2" stroke-width="4" stroke-miterlimit="10" x1="437.5" y1="477.3" x2="416.7" y2="477.3"/>
		<line fill="none" stroke="#00C0F2" stroke-width="4" stroke-miterlimit="10" x1="116.1" y1="663" x2="94.7" y2="663"/>
		<line fill="none" stroke="#00C0F2" stroke-width="4" stroke-miterlimit="10" x1="116.1" y1="648.8" x2="94.7" y2="648.8"/>
		<line fill="none" stroke="#00C0F2" stroke-width="4" stroke-miterlimit="10" x1="116.1" y1="634.5" x2="94.7" y2="634.5"/>
		<line fill="none" stroke="#00C0F2" stroke-width="4" stroke-miterlimit="10" x1="116.1" y1="620.2" x2="94.7" y2="620.2"/>
		<line fill="none" stroke="#00C0F2" stroke-width="4" stroke-miterlimit="10" x1="116.1" y1="605.9" x2="94.7" y2="605.9"/>
		<line fill="none" stroke="#00C0F2" stroke-width="4" stroke-miterlimit="10" x1="116.1" y1="591.6" x2="94.7" y2="591.6"/>
		<line fill="none" stroke="#00C0F2" stroke-width="4" stroke-miterlimit="10" x1="116.1" y1="577.3" x2="16.1" y2="577.3"/>
		<line fill="none" stroke="#00C0F2" stroke-width="4" stroke-miterlimit="10" x1="116.1" y1="548.8" x2="94.7" y2="548.8"/>
		<line fill="none" stroke="#00C0F2" stroke-width="4" stroke-miterlimit="10" x1="116.1" y1="534.5" x2="94.7" y2="534.5"/>
		<line fill="none" stroke="#00C0F2" stroke-width="4" stroke-miterlimit="10" x1="116.1" y1="520.2" x2="94.7" y2="520.2"/>
		<line fill="none" stroke="#00C0F2" stroke-width="4" stroke-miterlimit="10" x1="116.1" y1="505.9" x2="94.7" y2="505.9"/>
		<line fill="none" stroke="#00C0F2" stroke-width="4" stroke-miterlimit="10" x1="37.5" y1="663" x2="16.1" y2="663"/>
		<line fill="none" stroke="#00C0F2" stroke-width="4" stroke-miterlimit="10" x1="37.5" y1="648.8" x2="16.1" y2="648.8"/>
		<line fill="none" stroke="#00C0F2" stroke-width="4" stroke-miterlimit="10" x1="37.5" y1="634.5" x2="16.1" y2="634.5"/>
		<line fill="none" stroke="#00C0F2" stroke-width="4" stroke-miterlimit="10" x1="37.5" y1="620.2" x2="16.1" y2="620.2"/>
		<line fill="none" stroke="#00C0F2" stroke-width="4" stroke-miterlimit="10" x1="37.5" y1="605.9" x2="16.1" y2="605.9"/>
		<line fill="none" stroke="#00C0F2" stroke-width="4" stroke-miterlimit="10" x1="37.5" y1="591.6" x2="16.1" y2="591.6"/>
		<line fill="none" stroke="#00C0F2" stroke-width="4" stroke-miterlimit="10" x1="37.5" y1="548.8" x2="16.1" y2="548.8"/>
		<line fill="none" stroke="#00C0F2" stroke-width="4" stroke-miterlimit="10" x1="37.5" y1="534.5" x2="16.1" y2="534.5"/>
		<line fill="none" stroke="#00C0F2" stroke-width="4" stroke-miterlimit="10" x1="37.5" y1="520.2" x2="16.1" y2="520.2"/>
		<line fill="none" stroke="#00C0F2" stroke-width="4" stroke-miterlimit="10" x1="37.5" y1="505.9" x2="16.1" y2="505.9"/>
		<line fill="none" stroke="#00C0F2" stroke-width="4" stroke-miterlimit="10" x1="116.1" y1="491.6" x2="95.3" y2="491.6"/>
		<line fill="none" stroke="#00C0F2" stroke-width="4" stroke-miterlimit="10" x1="116.1" y1="477.3" x2="95.3" y2="477.3"/>
		<rect x="130.4" y="605.9" fill="none" stroke="#00C0F2" stroke-width="4" stroke-miterlimit="10" width="21.4" height="50"/>
		<rect x="180.4" y="605.9" fill="none" stroke="#00C0F2" stroke-width="4" stroke-miterlimit="10" width="21.4" height="50"/>
		<rect x="230.4" y="605.9" fill="none" stroke="#00C0F2" stroke-width="4" stroke-miterlimit="10" width="21.4" height="50"/>
		<rect x="280.4" y="605.9" fill="none" stroke="#00C0F2" stroke-width="4" stroke-miterlimit="10" width="21.4" height="50"/>
		<rect x="330.4" y="605.9" fill="none" stroke="#00C0F2" stroke-width="4" stroke-miterlimit="10" width="21.4" height="50"/>
		<rect x="380.4" y="605.9" fill="none" stroke="#00C0F2" stroke-width="4" stroke-miterlimit="10" width="21.4" height="50"/>
		<rect x="380.4" y="520.2" fill="none" stroke="#00C0F2" stroke-width="4" stroke-miterlimit="10" width="21.4" height="42.9"/>
		<circle fill="none" stroke="#00C0F2" stroke-width="4" stroke-miterlimit="10" cx="434.1" cy="448.8" r="7.3"/>
		<rect x="444.7" y="505.9" fill="none" stroke="#00C0F2" stroke-width="4" stroke-miterlimit="10" width="42.9" height="42.9"/>
		
			<line fill="none" stroke="#00C0F2" stroke-width="4" stroke-linecap="square" stroke-miterlimit="10" x1="380.4" y1="505.9" x2="401.8" y2="505.9"/>
		<rect x="330.4" y="520.2" fill="none" stroke="#00C0F2" stroke-width="4" stroke-miterlimit="10" width="21.4" height="42.9"/>
		
			<line fill="none" stroke="#00C0F2" stroke-width="4" stroke-linecap="square" stroke-miterlimit="10" x1="330.4" y1="505.9" x2="351.8" y2="505.9"/>
		<rect x="280.4" y="520.2" fill="none" stroke="#00C0F2" stroke-width="4" stroke-miterlimit="10" width="21.4" height="42.9"/>
		
			<line fill="none" stroke="#00C0F2" stroke-width="4" stroke-linecap="square" stroke-miterlimit="10" x1="280.4" y1="505.9" x2="301.8" y2="505.9"/>
		<rect x="230.4" y="520.2" fill="none" stroke="#00C0F2" stroke-width="4" stroke-miterlimit="10" width="21.4" height="42.9"/>
		
			<line fill="none" stroke="#00C0F2" stroke-width="4" stroke-linecap="square" stroke-miterlimit="10" x1="230.4" y1="505.9" x2="251.8" y2="505.9"/>
		<rect x="180.4" y="520.2" fill="none" stroke="#00C0F2" stroke-width="4" stroke-miterlimit="10" width="21.4" height="42.9"/>
		
			<line fill="none" stroke="#00C0F2" stroke-width="4" stroke-linecap="square" stroke-miterlimit="10" x1="180.4" y1="505.9" x2="201.8" y2="505.9"/>
		<rect x="130.4" y="520.2" fill="none" stroke="#00C0F2" stroke-width="4" stroke-miterlimit="10" width="21.4" height="42.9"/>
		
			<line fill="none" stroke="#00C0F2" stroke-width="4" stroke-linecap="square" stroke-miterlimit="10" x1="130.4" y1="505.9" x2="151.8" y2="505.9"/>
		<line fill="none" stroke="#00C0F2" stroke-width="4" stroke-miterlimit="10" x1="366.1" y1="570.2" x2="366.1" y2="505.9"/>
		<line fill="none" stroke="#00C0F2" stroke-width="4" stroke-miterlimit="10" x1="316.1" y1="570.2" x2="316.1" y2="505.9"/>
		<line fill="none" stroke="#00C0F2" stroke-width="4" stroke-miterlimit="10" x1="266.1" y1="570.2" x2="266.1" y2="505.9"/>
		<line fill="none" stroke="#00C0F2" stroke-width="4" stroke-miterlimit="10" x1="216.1" y1="570.2" x2="216.1" y2="505.9"/>
		<line fill="none" stroke="#00C0F2" stroke-width="4" stroke-miterlimit="10" x1="166.1" y1="570.2" x2="166.1" y2="505.9"/>
		
			<line fill="none" stroke="#00C0F2" stroke-width="4" stroke-linecap="square" stroke-miterlimit="10" x1="366.1" y1="655.9" x2="366.1" y2="605.9"/>
		
			<line fill="none" stroke="#00C0F2" stroke-width="4" stroke-linecap="square" stroke-miterlimit="10" x1="316.1" y1="655.9" x2="316.1" y2="605.9"/>
		
			<line fill="none" stroke="#00C0F2" stroke-width="4" stroke-linecap="square" stroke-miterlimit="10" x1="266.1" y1="655.9" x2="266.1" y2="605.9"/>
		
			<line fill="none" stroke="#00C0F2" stroke-width="4" stroke-linecap="square" stroke-miterlimit="10" x1="216.1" y1="655.9" x2="216.1" y2="605.9"/>
		
			<line fill="none" stroke="#00C0F2" stroke-width="4" stroke-linecap="square" stroke-miterlimit="10" x1="166.1" y1="655.9" x2="166.1" y2="605.9"/>
		<rect x="51.8" y="598.8" fill="none" stroke="#00C0F2" stroke-width="4" stroke-miterlimit="10" width="28.6" height="71.4"/>
		<rect x="16.1" y="463" fill="none" stroke="#00C0F2" stroke-width="4" stroke-miterlimit="10" width="78.6" height="14.3"/>
		<line fill="none" stroke="#00C0F2" stroke-width="4" stroke-miterlimit="10" x1="509" y1="463" x2="448.2" y2="463"/>
		<line fill="none" stroke="#00C0F2" stroke-width="4" stroke-miterlimit="10" x1="487.5" y1="505.9" x2="487.5" y2="423.9"/>
		<polygon fill="#FFFFFF" points="444.7,477.3 409,477.3 416.1,491.6 444.7,491.6 		"/>
		<polyline fill="none" stroke="#00C0F2" stroke-width="4" stroke-miterlimit="10" points="444.7,477.3 409,477.3 416.1,491.6 
			444.7,491.6 444.7,477.3 		"/>
		<polygon fill="#FFFFFF" points="16.1,463 116.1,463 123.2,448.8 9,448.8 		"/>
		<polygon fill="none" stroke="#00C0F2" stroke-width="4" stroke-miterlimit="10" points="16.1,463 116.1,463 123.2,448.8 9,448.8 
					"/>
		<circle fill="none" stroke="#00C0F2" stroke-width="4" stroke-miterlimit="10" cx="66.1" cy="563" r="5.9"/>
		<path fill="none" stroke="#00C0F2" stroke-width="4" stroke-miterlimit="10" d="M116.1,563H86.3c-2.9-8.3-10.9-14.3-20.2-14.3
			c-9.3,0-17.3,6-20.2,14.3H16.1"/>
		<line fill="none" stroke="#00C0F2" stroke-width="4" stroke-miterlimit="10" x1="444.7" y1="620.2" x2="480.4" y2="620.2"/>
		<line fill="none" stroke="#00C0F2" stroke-width="4" stroke-miterlimit="10" x1="488.5" y1="620.2" x2="529.4" y2="620.2"/>
		<line fill="none" stroke="#00C0F2" stroke-width="4" stroke-miterlimit="10" x1="80.4" y1="620.2" x2="51.8" y2="620.2"/>
		<rect x="922.6" y="463" fill="none" stroke="#00C0F2" stroke-width="4" stroke-miterlimit="10" width="79.2" height="14.3"/>
		<rect x="16.1" y="477.3" fill="none" stroke="#00C0F2" stroke-width="4" stroke-miterlimit="10" width="78.6" height="192.9"/>
		<polyline fill="#FFFFFF" points="116.1,477.3 87.5,477.3 94.7,491.6 116.1,491.6 		"/>
		<polyline fill="none" stroke="#00C0F2" stroke-width="4" stroke-miterlimit="10" points="116.1,477.3 87.5,477.3 94.7,491.6 
			116.1,491.6 		"/>
		<polygon fill="#FFFFFF" points="16.1,491.6 37.5,491.6 44.7,477.3 9,477.3 		"/>
		<polygon fill="none" stroke="#00C0F2" stroke-width="4" stroke-miterlimit="10" points="16.1,491.6 37.5,491.6 44.7,477.3 
			9,477.3 		"/>
		<line fill="none" stroke="#00C0F2" stroke-width="4" stroke-miterlimit="10" x1="980.4" y1="563" x2="980.4" y2="670.2"/>
		<line fill="none" stroke="#00C0F2" stroke-width="4" stroke-miterlimit="10" x1="37.5" y1="563" x2="37.5" y2="670.2"/>
		<line fill="none" stroke="#00C0F2" stroke-width="4" stroke-miterlimit="10" x1="487.5" y1="505.9" x2="530.4" y2="505.9"/>
		<line fill="none" stroke="#00C0F2" stroke-width="4" stroke-miterlimit="10" x1="466.1" y1="436.6" x2="466.1" y2="570.2"/>
		<line fill="none" stroke="#00C0F2" stroke-width="4" stroke-miterlimit="10" x1="509" y1="570.2" x2="509" y2="505.9"/>
		<line fill="none" stroke="#00C0F2" stroke-width="4" stroke-miterlimit="10" x1="551.8" y1="436.6" x2="551.8" y2="570.2"/>
		<line fill="none" stroke="#00C0F2" stroke-width="4" stroke-miterlimit="10" x1="509" y1="420.2" x2="509" y2="463"/>
		<line fill="none" stroke="#00C0F2" stroke-width="4" stroke-miterlimit="10" x1="506" y1="484.5" x2="519.6" y2="484.5"/>
		<line fill="none" stroke="#00C0F2" stroke-width="4" stroke-miterlimit="10" x1="508.8" y1="484.7" x2="518.6" y2="475.4"/>
		<line fill="none" stroke="#00C0F2" stroke-width="4" stroke-miterlimit="10" x1="462.5" y1="620.2" x2="462.5" y2="670.2"/>
		<line fill="none" stroke="#00C0F2" stroke-width="4" stroke-miterlimit="10" x1="555.4" y1="620.2" x2="555.4" y2="670.1"/>
		<line fill="none" stroke="#00C0F2" stroke-width="4" stroke-miterlimit="10" x1="951.8" y1="620.2" x2="951.8" y2="670.2"/>
		<line fill="none" stroke="#00C0F2" stroke-width="4" stroke-miterlimit="10" x1="66.1" y1="620.2" x2="66.1" y2="670.2"/>
	</g>
</g>
</svg>
