<?xml version="1.0" encoding="utf-8"?>
<!-- Generator: Adobe Illustrator 16.0.0, SVG Export Plug-In . SVG Version: 6.00 Build 0)  -->
<!DOCTYPE svg PUBLIC "-//W3C//DTD SVG 1.1//EN" "http://www.w3.org/Graphics/SVG/1.1/DTD/svg11.dtd">
<svg version="1.1" xmlns="http://www.w3.org/2000/svg" xmlns:xlink="http://www.w3.org/1999/xlink" x="0px" y="0px"
	 width="662.135px" height="186.5px" viewBox="0 0 662.135 186.5" enable-background="new 0 0 662.135 186.5" xml:space="preserve">
<style>
	circe,
	line,
	path,
	rect{
		stroke-width: 2px
	}
</style>
<g id="Layer_2">
	<g>
		<polygon fill="#FFFFFF" points="66.422,155.957 66.422,148.989 136.096,148.989 136.096,155.957 163.965,155.957 163.965,162.924 
			45.52,162.924 45.52,155.957 		"/>
		<polygon fill="none" stroke="#00C0F2" stroke-width="4" stroke-miterlimit="10" points="66.422,155.957 66.422,148.989 
			136.096,148.989 136.096,155.957 163.965,155.957 163.965,162.924 45.52,162.924 45.52,155.957 		"/>
		<path fill="#FFFFFF" d="M129.128,169.892c0,7.696,6.239,13.934,13.935,13.934s13.936-6.238,13.936-13.934
			c0-7.696-6.24-13.935-13.936-13.935S129.128,162.196,129.128,169.892"/>
		<circle fill="none" stroke="#00C0F2" stroke-width="4" stroke-miterlimit="10" cx="143.063" cy="169.892" r="13.936"/>
		<path fill="#FFFFFF" d="M52.486,169.892c0,7.696,6.239,13.934,13.936,13.934c7.695,0,13.934-6.238,13.934-13.934
			c0-7.696-6.238-13.935-13.934-13.935C58.726,155.957,52.486,162.196,52.486,169.892"/>
		<circle fill="none" stroke="#00C0F2" stroke-width="4" stroke-miterlimit="10" cx="66.421" cy="169.892" r="13.935"/>
		<rect x="87.323" y="155.957" fill="#FFFFFF" width="34.837" height="20.902"/>
		
			<rect x="87.323" y="155.957" fill="none" stroke="#00C0F2" stroke-width="4" stroke-miterlimit="10" width="34.837" height="20.902"/>
		<path fill="#FFFFFF" d="M61.643,169.892c0,2.638,2.141,4.778,4.779,4.778s4.778-2.14,4.778-4.778c0-2.64-2.14-4.779-4.778-4.779
			S61.643,167.252,61.643,169.892"/>
		<circle fill="none" stroke="#00C0F2" stroke-width="4" stroke-miterlimit="10" cx="66.421" cy="169.892" r="4.778"/>
		<path fill="#FFFFFF" d="M138.284,169.892c0,2.638,2.14,4.778,4.778,4.778c2.64,0,4.779-2.14,4.779-4.778
			c0-2.64-2.14-4.779-4.779-4.779C140.424,165.112,138.284,167.252,138.284,169.892"/>
		<circle fill="none" stroke="#00C0F2" stroke-width="4" stroke-miterlimit="10" cx="143.063" cy="169.892" r="4.779"/>
		<polygon fill="#FFFFFF" points="512.336,155.957 512.336,148.989 582.01,148.989 582.01,155.957 609.879,155.957 609.879,162.924 
			491.434,162.924 491.434,155.957 		"/>
		<polygon fill="none" stroke="#00C0F2" stroke-width="4" stroke-miterlimit="10" points="512.336,155.957 512.336,148.989 
			582.01,148.989 582.01,155.957 609.879,155.957 609.879,162.924 491.434,162.924 491.434,155.957 		"/>
		<path fill="#FFFFFF" d="M575.042,169.892c0,7.696,6.239,13.934,13.935,13.934s13.936-6.238,13.936-13.934
			c0-7.696-6.24-13.935-13.936-13.935S575.042,162.196,575.042,169.892"/>
		<circle fill="none" stroke="#00C0F2" stroke-width="4" stroke-miterlimit="10" cx="588.978" cy="169.892" r="13.936"/>
		<path fill="#FFFFFF" d="M498.4,169.892c0,7.696,6.239,13.934,13.936,13.934c7.695,0,13.934-6.238,13.934-13.934
			c0-7.696-6.238-13.935-13.934-13.935C504.64,155.957,498.4,162.196,498.4,169.892"/>
		<circle fill="none" stroke="#00C0F2" stroke-width="4" stroke-miterlimit="10" cx="512.335" cy="169.892" r="13.935"/>
		<rect x="533.238" y="155.957" fill="#FFFFFF" width="34.836" height="20.902"/>
		
			<rect x="533.238" y="155.957" fill="none" stroke="#00C0F2" stroke-width="4" stroke-miterlimit="10" width="34.836" height="20.902"/>
		<path fill="#FFFFFF" d="M507.557,169.892c0,2.638,2.141,4.778,4.779,4.778s4.779-2.14,4.779-4.778c0-2.64-2.141-4.779-4.779-4.779
			S507.557,167.252,507.557,169.892"/>
		<circle fill="none" stroke="#00C0F2" stroke-width="4" stroke-miterlimit="10" cx="512.336" cy="169.892" r="4.779"/>
		<path fill="#FFFFFF" d="M584.197,169.892c0,2.638,2.141,4.778,4.779,4.778c2.641,0,4.779-2.14,4.779-4.778
			c0-2.64-2.139-4.779-4.779-4.779C586.338,165.112,584.197,167.252,584.197,169.892"/>
		<circle fill="none" stroke="#00C0F2" stroke-width="4" stroke-miterlimit="10" cx="588.977" cy="169.892" r="4.779"/>
		<path fill="#FFFFFF" d="M31.584,58.413c-6.957,0-9.305,7.008-9.305,7.008S8.389,107.097,6.052,114.108
			c-2.337,7.011-2.322,7.07-0.595,13.977c1.726,6.909,5.225,20.904,5.225,20.904h97.544v13.935H177.9v-13.935H554.14v13.935h97.545
			v-13.935V58.413H31.584z"/>
		<path fill="none" stroke="#00C0F2" stroke-width="4" stroke-miterlimit="10" d="M31.584,58.413c-6.957,0-9.305,7.008-9.305,7.008
			S8.389,107.097,6.052,114.108c-2.337,7.011-2.322,7.07-0.595,13.977c1.726,6.909,5.225,20.904,5.225,20.904h97.544v13.935H177.9
			v-13.935H554.14v13.935h97.545v-13.935V58.413H31.584z"/>
		<rect x="122.379" y="79.439" fill="#FFFFFF" width="41.367" height="69.426"/>
		
			<rect x="122.379" y="79.439" fill="none" stroke="#00C0F2" stroke-width="4" stroke-miterlimit="10" width="41.367" height="69.426"/>
		<line fill="#FFFFFF" x1="143.062" y1="79.314" x2="143.062" y2="148.989"/>
		
			<line fill="none" stroke="#00C0F2" stroke-width="4" stroke-miterlimit="10" x1="143.062" y1="79.314" x2="143.062" y2="148.989"/>
		<rect x="582.443" y="79.665" fill="#FFFFFF" width="41.371" height="69.325"/>
		
			<rect x="582.443" y="79.665" fill="none" stroke="#00C0F2" stroke-width="4" stroke-miterlimit="10" width="41.371" height="69.325"/>
		<line fill="#FFFFFF" x1="603.129" y1="79.314" x2="603.129" y2="148.989"/>
		
			<line fill="none" stroke="#00C0F2" stroke-width="4" stroke-miterlimit="10" x1="603.129" y1="79.314" x2="603.129" y2="148.989"/>
		<rect x="191.834" y="86.282" fill="#FFFFFF" width="13.935" height="27.87"/>
		
			<rect x="191.834" y="86.282" fill="none" stroke="#00C0F2" stroke-width="4" stroke-miterlimit="10" width="13.935" height="27.87"/>
		<rect x="226.672" y="86.282" fill="#FFFFFF" width="34.837" height="27.87"/>
		
			<rect x="226.672" y="86.282" fill="none" stroke="#00C0F2" stroke-width="4" stroke-miterlimit="10" width="34.837" height="27.87"/>
		<rect x="275.443" y="86.282" fill="#FFFFFF" width="34.836" height="27.87"/>
		
			<rect x="275.443" y="86.282" fill="none" stroke="#00C0F2" stroke-width="4" stroke-miterlimit="10" width="34.836" height="27.87"/>
		<rect x="324.215" y="86.282" fill="#FFFFFF" width="34.838" height="27.87"/>
		
			<rect x="324.215" y="86.282" fill="none" stroke="#00C0F2" stroke-width="4" stroke-miterlimit="10" width="34.838" height="27.87"/>
		<rect x="372.988" y="86.282" fill="#FFFFFF" width="34.836" height="27.87"/>
		
			<rect x="372.988" y="86.282" fill="none" stroke="#00C0F2" stroke-width="4" stroke-miterlimit="10" width="34.836" height="27.87"/>
		<rect x="421.76" y="86.282" fill="#FFFFFF" width="34.838" height="27.87"/>
		
			<rect x="421.76" y="86.282" fill="none" stroke="#00C0F2" stroke-width="4" stroke-miterlimit="10" width="34.838" height="27.87"/>
		<rect x="470.531" y="86.282" fill="#FFFFFF" width="34.838" height="27.87"/>
		
			<rect x="470.531" y="86.282" fill="none" stroke="#00C0F2" stroke-width="4" stroke-miterlimit="10" width="34.838" height="27.87"/>
		<rect x="519.303" y="86.282" fill="#FFFFFF" width="34.837" height="27.87"/>
		
			<rect x="519.303" y="86.282" fill="none" stroke="#00C0F2" stroke-width="4" stroke-miterlimit="10" width="34.837" height="27.87"/>
		<rect x="73.389" y="79.314" fill="#FFFFFF" width="20.902" height="55.74"/>
		
			<rect x="73.389" y="79.314" fill="none" stroke="#00C0F2" stroke-width="4" stroke-miterlimit="10" width="20.902" height="55.74"/>
		<polygon fill="#FFFFFF" points="21.133,107.185 52.486,107.185 52.486,79.314 24.617,79.314 16.779,102.83 		"/>
		<polygon fill="none" stroke="#00C0F2" stroke-width="4" stroke-miterlimit="10" points="21.133,107.185 52.486,107.185 
			52.486,79.314 24.617,79.314 16.779,102.83 		"/>
		<line fill="#FFFFFF" x1="38.552" y1="79.314" x2="38.552" y2="107.185"/>
		<line fill="none" stroke="#00C0F2" stroke-width="4" stroke-miterlimit="10" x1="38.552" y1="79.314" x2="38.552" y2="107.185"/>
		<line fill="#FFFFFF" x1="101.258" y1="100.217" x2="101.258" y2="135.054"/>
		
			<line fill="none" stroke="#00C0F2" stroke-width="4" stroke-linecap="square" stroke-miterlimit="10" x1="101.258" y1="100.217" x2="101.258" y2="135.054"/>
		<line fill="#FFFFFF" x1="66.422" y1="100.217" x2="66.422" y2="135.054"/>
		
			<line fill="none" stroke="#00C0F2" stroke-width="4" stroke-linecap="square" stroke-miterlimit="10" x1="66.422" y1="100.217" x2="66.422" y2="135.054"/>
		<line fill="#FFFFFF" x1="226.672" y1="96.733" x2="261.509" y2="96.733"/>
		<line fill="none" stroke="#00C0F2" stroke-width="4" stroke-miterlimit="10" x1="226.672" y1="96.733" x2="261.509" y2="96.733"/>
		<line fill="#FFFFFF" x1="205.77" y1="96.733" x2="191.835" y2="96.733"/>
		<line fill="none" stroke="#00C0F2" stroke-width="4" stroke-miterlimit="10" x1="205.77" y1="96.733" x2="191.835" y2="96.733"/>
		<line fill="#FFFFFF" x1="275.443" y1="96.733" x2="310.279" y2="96.733"/>
		<line fill="none" stroke="#00C0F2" stroke-width="4" stroke-miterlimit="10" x1="275.443" y1="96.733" x2="310.279" y2="96.733"/>
		<line fill="#FFFFFF" x1="324.215" y1="96.733" x2="359.053" y2="96.733"/>
		<line fill="none" stroke="#00C0F2" stroke-width="4" stroke-miterlimit="10" x1="324.215" y1="96.733" x2="359.053" y2="96.733"/>
		<line fill="#FFFFFF" x1="372.988" y1="96.733" x2="407.824" y2="96.733"/>
		<line fill="none" stroke="#00C0F2" stroke-width="4" stroke-miterlimit="10" x1="372.988" y1="96.733" x2="407.824" y2="96.733"/>
		<line fill="#FFFFFF" x1="421.76" y1="96.733" x2="456.598" y2="96.733"/>
		<line fill="none" stroke="#00C0F2" stroke-width="4" stroke-miterlimit="10" x1="421.76" y1="96.733" x2="456.598" y2="96.733"/>
		<line fill="#FFFFFF" x1="470.531" y1="96.733" x2="505.369" y2="96.733"/>
		<line fill="none" stroke="#00C0F2" stroke-width="4" stroke-miterlimit="10" x1="470.531" y1="96.733" x2="505.369" y2="96.733"/>
		<line fill="#FFFFFF" x1="519.303" y1="96.733" x2="554.14" y2="96.733"/>
		<line fill="none" stroke="#00C0F2" stroke-width="4" stroke-miterlimit="10" x1="519.303" y1="96.733" x2="554.14" y2="96.733"/>
		<line fill="#FFFFFF" x1="73.389" y1="58.413" x2="73.389" y2="37.511"/>
		<line fill="none" stroke="#00C0F2" stroke-width="4" stroke-miterlimit="10" x1="73.389" y1="58.413" x2="73.389" y2="37.511"/>
		<line fill="#FFFFFF" x1="66.422" y1="37.511" x2="80.355" y2="37.511"/>
		<line fill="none" stroke="#00C0F2" stroke-width="4" stroke-miterlimit="10" x1="66.422" y1="37.511" x2="80.355" y2="37.511"/>
		<path fill="#FFFFFF" d="M17.649,148.989h-6.968l-6.967,27.87h6.967l13.839-17.419h10.548c0,0,6.854,0.048,10.451-3.549
			c3.596-3.596,6.967-6.902,6.967-6.902H17.649z"/>
		<path fill="none" stroke="#00C0F2" stroke-width="4" stroke-miterlimit="10" d="M17.649,148.989h-6.968l-6.967,27.87h6.967
			l13.839-17.419h10.548c0,0,6.854,0.048,10.451-3.549c3.596-3.596,6.967-6.902,6.967-6.902H17.649z"/>
		<line fill="none" stroke="#00C0F2" stroke-width="4" stroke-miterlimit="10" x1="177.9" y1="128.087" x2="568.074" y2="128.087"/>
		<line fill="none" stroke="#00C0F2" stroke-width="4" stroke-miterlimit="10" x1="17.649" y1="128.087" x2="52.486" y2="128.087"/>
		
			<line fill="none" stroke="#00C0F2" stroke-width="4" stroke-miterlimit="10" x1="651.685" y1="155.957" x2="658.781" y2="155.957"/>
		<line fill="none" stroke="#00C0F2" stroke-width="4" stroke-miterlimit="10" x1="602.912" y1="68.863" x2="623.814" y2="68.863"/>
		<line fill="none" stroke="#00C0F2" stroke-width="4" stroke-miterlimit="10" x1="143.062" y1="68.863" x2="122.16" y2="68.863"/>
		<line fill="none" stroke="#00C0F2" stroke-width="4" stroke-miterlimit="10" x1="449.629" y1="51.446" x2="484.465" y2="51.446"/>
		<line fill="none" stroke="#00C0F2" stroke-width="4" stroke-miterlimit="10" x1="498.4" y1="51.446" x2="533.238" y2="51.446"/>
		<line fill="none" stroke="#00C0F2" stroke-width="4" stroke-miterlimit="10" x1="526.27" y1="51.292" x2="526.27" y2="58.413"/>
		<line fill="none" stroke="#00C0F2" stroke-width="4" stroke-miterlimit="10" x1="505.369" y1="51.292" x2="505.369" y2="58.413"/>
		<line fill="none" stroke="#00C0F2" stroke-width="4" stroke-miterlimit="10" x1="477.498" y1="51.292" x2="477.498" y2="58.413"/>
		<line fill="none" stroke="#00C0F2" stroke-width="4" stroke-miterlimit="10" x1="456.598" y1="51.292" x2="456.598" y2="58.413"/>
		<line fill="none" stroke="#00C0F2" stroke-width="4" stroke-miterlimit="10" x1="547.172" y1="51.446" x2="602.912" y2="51.446"/>
		<line fill="none" stroke="#00C0F2" stroke-width="4" stroke-miterlimit="10" x1="554.14" y1="58.413" x2="554.14" y2="51.446"/>
		<line fill="none" stroke="#00C0F2" stroke-width="4" stroke-miterlimit="10" x1="595.945" y1="58.413" x2="595.945" y2="51.446"/>
		<line fill="none" stroke="#00C0F2" stroke-width="4" stroke-miterlimit="10" x1="575.042" y1="44.479" x2="575.042" y2="51.446"/>
		<path fill="none" stroke="#00C0F2" stroke-width="4" stroke-miterlimit="10" d="M565.189,34.624
			c5.441-5.441,14.264-5.441,19.705,0"/>
		<path fill="none" stroke="#00C0F2" stroke-width="4" stroke-miterlimit="10" d="M555.336,24.771
			c10.883-10.884,28.529-10.884,39.412,0"/>
		<path fill="none" stroke="#00C0F2" stroke-width="4" stroke-miterlimit="10" d="M545.482,14.918
			c16.324-16.325,42.795-16.325,59.119,0"/>
		
			<line fill="none" stroke="#00C0F2" stroke-width="4" stroke-miterlimit="10" x1="309.965" y1="138.538" x2="296.029" y2="138.538"/>
		
			<line fill="none" stroke="#00C0F2" stroke-width="4" stroke-miterlimit="10" x1="275.127" y1="138.538" x2="289.062" y2="138.538"/>
		
			<line fill="none" stroke="#00C0F2" stroke-width="4" stroke-miterlimit="10" x1="658.781" y1="162.924" x2="658.781" y2="148.989"/>
		
			<rect x="651.685" y="72.348" fill="none" stroke="#00C0F2" stroke-width="4" stroke-miterlimit="10" width="20.902" height="69.674"/>
		
			<line fill="none" stroke="#00C0F2" stroke-width="4" stroke-miterlimit="10" x1="662.135" y1="72.348" x2="662.135" y2="142.022"/>
		<line fill="none" stroke="#00C0F2" stroke-width="4" stroke-miterlimit="10" x1="83.84" y1="86.282" x2="83.84" y2="114.152"/>
		
			<line fill="none" stroke="#00C0F2" stroke-width="4" stroke-miterlimit="10" x1="132.611" y1="86.282" x2="132.611" y2="114.152"/>
		
			<line fill="none" stroke="#00C0F2" stroke-width="4" stroke-miterlimit="10" x1="153.514" y1="86.282" x2="153.514" y2="114.152"/>
		
			<line fill="none" stroke="#00C0F2" stroke-width="4" stroke-miterlimit="10" x1="592.242" y1="86.282" x2="592.242" y2="114.152"/>
		
			<line fill="none" stroke="#00C0F2" stroke-width="4" stroke-miterlimit="10" x1="613.145" y1="86.282" x2="613.145" y2="114.152"/>
	</g>
</g>
<g id="Layer_1">
</g>
</svg>
