<?xml version="1.0" encoding="utf-8"?>
<!-- Generator: Adobe Illustrator 16.0.0, SVG Export Plug-In . SVG Version: 6.00 Build 0)  -->
<!DOCTYPE svg PUBLIC "-//W3C//DTD SVG 1.1//EN" "http://www.w3.org/Graphics/SVG/1.1/DTD/svg11.dtd">
<svg version="1.1" xmlns="http://www.w3.org/2000/svg" xmlns:xlink="http://www.w3.org/1999/xlink" x="0px" y="0px"
	 width="675.941px" height="186.5px" viewBox="0 0 675.941 186.5" enable-background="new 0 0 675.941 186.5" xml:space="preserve">

<g id="Layer_2">
	<g>
		
			<rect x="-10.349" y="72.348" fill="none" stroke="#00C0F2" stroke-width="4" stroke-miterlimit="10" width="20.902" height="69.674"/>
		<line fill="none" stroke="#00C0F2" stroke-width="4" stroke-miterlimit="10" x1="0.102" y1="72.348" x2="0.102" y2="142.022"/>
	</g>
	<g>
		<line fill="none" stroke="#00C0F2" stroke-width="4" stroke-miterlimit="10" x1="10.554" y1="155.957" x2="3.715" y2="155.957"/>
		<line fill="none" stroke="#00C0F2" stroke-width="4" stroke-miterlimit="10" x1="3.715" y1="162.924" x2="3.715" y2="148.989"/>
		<g>
			<polygon fill="#FFFFFF" points="526.141,155.957 526.141,148.989 595.814,148.989 595.814,155.957 623.686,155.957 
				623.686,162.924 505.24,162.924 505.24,155.957 			"/>
			<polygon fill="none" stroke="#00C0F2" stroke-width="4" stroke-miterlimit="10" points="526.141,155.957 526.141,148.989 
				595.814,148.989 595.814,155.957 623.686,155.957 623.686,162.924 505.24,162.924 505.24,155.957 			"/>
			<path fill="#FFFFFF" d="M588.848,169.892c0,7.696,6.24,13.934,13.936,13.934c7.697,0,13.934-6.238,13.934-13.934
				c0-7.696-6.236-13.935-13.934-13.935C595.088,155.957,588.848,162.196,588.848,169.892"/>
			<circle fill="none" stroke="#00C0F2" stroke-width="4" stroke-miterlimit="10" cx="602.782" cy="169.892" r="13.935"/>
			<path fill="#FFFFFF" d="M512.207,169.892c0,7.696,6.238,13.934,13.934,13.934c7.697,0,13.936-6.238,13.936-13.934
				c0-7.696-6.238-13.935-13.936-13.935C518.445,155.957,512.207,162.196,512.207,169.892"/>
			<circle fill="none" stroke="#00C0F2" stroke-width="4" stroke-miterlimit="10" cx="526.142" cy="169.892" r="13.935"/>
			<rect x="547.043" y="155.957" fill="#FFFFFF" width="34.838" height="20.902"/>
			
				<rect x="547.043" y="155.957" fill="none" stroke="#00C0F2" stroke-width="4" stroke-miterlimit="10" width="34.838" height="20.902"/>
			<path fill="#FFFFFF" d="M521.363,169.892c0,2.638,2.139,4.778,4.777,4.778c2.641,0,4.779-2.14,4.779-4.778
				c0-2.64-2.139-4.779-4.779-4.779C523.502,165.112,521.363,167.252,521.363,169.892"/>
			<circle fill="none" stroke="#00C0F2" stroke-width="4" stroke-miterlimit="10" cx="526.142" cy="169.892" r="4.778"/>
			<path fill="#FFFFFF" d="M598.004,169.892c0,2.638,2.141,4.778,4.779,4.778s4.777-2.14,4.777-4.778
				c0-2.64-2.139-4.779-4.777-4.779S598.004,167.252,598.004,169.892"/>
			<circle fill="none" stroke="#00C0F2" stroke-width="4" stroke-miterlimit="10" cx="602.782" cy="169.892" r="4.778"/>
			<polygon fill="#FFFFFF" points="73.26,155.957 73.26,148.989 142.934,148.989 142.934,155.957 170.803,155.957 170.803,162.924 
				52.357,162.924 52.357,155.957 			"/>
			<polygon fill="none" stroke="#00C0F2" stroke-width="4" stroke-miterlimit="10" points="73.26,155.957 73.26,148.989 
				142.934,148.989 142.934,155.957 170.803,155.957 170.803,162.924 52.357,162.924 52.357,155.957 			"/>
			<path fill="#FFFFFF" d="M135.967,169.892c0,7.696,6.238,13.934,13.934,13.934s13.936-6.238,13.936-13.934
				c0-7.696-6.24-13.935-13.936-13.935S135.967,162.196,135.967,169.892"/>
			<circle fill="none" stroke="#00C0F2" stroke-width="4" stroke-miterlimit="10" cx="149.901" cy="169.892" r="13.935"/>
			<path fill="#FFFFFF" d="M59.324,169.892c0,7.696,6.239,13.934,13.936,13.934c7.695,0,13.936-6.238,13.936-13.934
				c0-7.696-6.24-13.935-13.936-13.935C65.563,155.957,59.324,162.196,59.324,169.892"/>
			<circle fill="none" stroke="#00C0F2" stroke-width="4" stroke-miterlimit="10" cx="73.26" cy="169.892" r="13.936"/>
			<rect x="94.162" y="155.957" fill="#FFFFFF" width="34.836" height="20.902"/>
			
				<rect x="94.162" y="155.957" fill="none" stroke="#00C0F2" stroke-width="4" stroke-miterlimit="10" width="34.836" height="20.902"/>
			<path fill="#FFFFFF" d="M68.48,169.892c0,2.638,2.141,4.778,4.779,4.778s4.779-2.14,4.779-4.778c0-2.64-2.141-4.779-4.779-4.779
				S68.48,167.252,68.48,169.892"/>
			<circle fill="none" stroke="#00C0F2" stroke-width="4" stroke-miterlimit="10" cx="73.26" cy="169.892" r="4.779"/>
			<path fill="#FFFFFF" d="M145.123,169.892c0,2.638,2.139,4.778,4.777,4.778c2.641,0,4.779-2.14,4.779-4.778
				c0-2.64-2.139-4.779-4.779-4.779C147.262,165.112,145.123,167.252,145.123,169.892"/>
			<circle fill="none" stroke="#00C0F2" stroke-width="4" stroke-miterlimit="10" cx="149.901" cy="169.892" r="4.778"/>
			<polygon fill="#FFFFFF" points="10.554,58.413 10.554,148.989 10.554,162.924 94.162,162.924 94.162,148.989 581.881,148.989 
				581.881,162.924 665.49,162.924 665.49,58.413 			"/>
			<polygon fill="none" stroke="#00C0F2" stroke-width="4" stroke-miterlimit="10" points="10.554,58.413 10.554,148.989 
				10.554,162.924 94.162,162.924 94.162,148.989 581.881,148.989 581.881,162.924 665.49,162.924 665.49,58.413 			"/>
			<polygon fill="#FFFFFF" points="603,79.439 644.371,79.439 644.588,148.989 602.783,148.989 			"/>
			<polygon fill="none" stroke="#00C0F2" stroke-width="4" stroke-miterlimit="10" points="603,79.439 644.371,79.439 
				644.588,148.989 602.783,148.989 			"/>
			<line fill="#FFFFFF" x1="623.686" y1="79.314" x2="623.686" y2="148.989"/>
			
				<line fill="none" stroke="#00C0F2" stroke-width="4" stroke-miterlimit="10" x1="623.686" y1="79.314" x2="623.686" y2="148.989"/>
			<polygon fill="#FFFFFF" points="31.674,79.665 73.26,79.314 73.26,148.989 31.456,148.989 			"/>
			<polygon fill="none" stroke="#00C0F2" stroke-width="4" stroke-miterlimit="10" points="31.674,79.665 73.26,79.314 
				73.26,148.989 31.456,148.989 			"/>
			<line fill="#FFFFFF" x1="52.357" y1="79.314" x2="52.357" y2="148.989"/>
			<line fill="none" stroke="#00C0F2" stroke-width="4" stroke-miterlimit="10" x1="52.357" y1="79.314" x2="52.357" y2="148.989"/>
			<rect x="442.533" y="86.282" fill="#FFFFFF" width="34.838" height="27.87"/>
			
				<rect x="442.533" y="86.282" fill="none" stroke="#00C0F2" stroke-width="4" stroke-miterlimit="10" width="34.838" height="27.87"/>
			<rect x="393.76" y="86.282" fill="#FFFFFF" width="34.838" height="27.87"/>
			
				<rect x="393.76" y="86.282" fill="none" stroke="#00C0F2" stroke-width="4" stroke-miterlimit="10" width="34.838" height="27.87"/>
			<rect x="344.988" y="86.282" fill="#FFFFFF" width="34.838" height="27.87"/>
			
				<rect x="344.988" y="86.282" fill="none" stroke="#00C0F2" stroke-width="4" stroke-miterlimit="10" width="34.838" height="27.87"/>
			<rect x="296.217" y="86.282" fill="#FFFFFF" width="34.838" height="27.87"/>
			
				<rect x="296.217" y="86.282" fill="none" stroke="#00C0F2" stroke-width="4" stroke-miterlimit="10" width="34.838" height="27.87"/>
			<rect x="247.445" y="86.282" fill="#FFFFFF" width="34.836" height="27.87"/>
			
				<rect x="247.445" y="86.282" fill="none" stroke="#00C0F2" stroke-width="4" stroke-miterlimit="10" width="34.836" height="27.87"/>
			<rect x="198.674" y="86.282" fill="#FFFFFF" width="34.836" height="27.87"/>
			
				<rect x="198.674" y="86.282" fill="none" stroke="#00C0F2" stroke-width="4" stroke-miterlimit="10" width="34.836" height="27.87"/>
			<rect x="149.9" y="86.282" fill="#FFFFFF" width="34.838" height="27.87"/>
			
				<rect x="149.9" y="86.282" fill="none" stroke="#00C0F2" stroke-width="4" stroke-miterlimit="10" width="34.838" height="27.87"/>
			<line fill="#FFFFFF" x1="477.371" y1="96.733" x2="442.533" y2="96.733"/>
			
				<line fill="none" stroke="#00C0F2" stroke-width="4" stroke-miterlimit="10" x1="477.371" y1="96.733" x2="442.533" y2="96.733"/>
			<rect x="491.305" y="86.282" fill="#FFFFFF" width="34.836" height="27.87"/>
			
				<rect x="491.305" y="86.282" fill="none" stroke="#00C0F2" stroke-width="4" stroke-miterlimit="10" width="34.836" height="27.87"/>
			<line fill="#FFFFFF" x1="526.141" y1="96.733" x2="491.305" y2="96.733"/>
			
				<line fill="none" stroke="#00C0F2" stroke-width="4" stroke-miterlimit="10" x1="526.141" y1="96.733" x2="491.305" y2="96.733"/>
			<rect x="540.076" y="86.282" fill="#FFFFFF" width="34.836" height="27.87"/>
			
				<rect x="540.076" y="86.282" fill="none" stroke="#00C0F2" stroke-width="4" stroke-miterlimit="10" width="34.836" height="27.87"/>
			<line fill="#FFFFFF" x1="574.912" y1="96.733" x2="540.076" y2="96.733"/>
			
				<line fill="none" stroke="#00C0F2" stroke-width="4" stroke-miterlimit="10" x1="574.912" y1="96.733" x2="540.076" y2="96.733"/>
			<line fill="#FFFFFF" x1="428.598" y1="96.733" x2="393.76" y2="96.733"/>
			<line fill="none" stroke="#00C0F2" stroke-width="4" stroke-miterlimit="10" x1="428.598" y1="96.733" x2="393.76" y2="96.733"/>
			<line fill="#FFFFFF" x1="331.055" y1="96.733" x2="296.217" y2="96.733"/>
			
				<line fill="none" stroke="#00C0F2" stroke-width="4" stroke-miterlimit="10" x1="331.055" y1="96.733" x2="296.217" y2="96.733"/>
			<line fill="#FFFFFF" x1="282.281" y1="96.733" x2="247.445" y2="96.733"/>
			
				<line fill="none" stroke="#00C0F2" stroke-width="4" stroke-miterlimit="10" x1="282.281" y1="96.733" x2="247.445" y2="96.733"/>
			<line fill="#FFFFFF" x1="233.51" y1="96.733" x2="198.674" y2="96.733"/>
			<line fill="none" stroke="#00C0F2" stroke-width="4" stroke-miterlimit="10" x1="233.51" y1="96.733" x2="198.674" y2="96.733"/>
			<line fill="#FFFFFF" x1="184.738" y1="96.733" x2="149.9" y2="96.733"/>
			<line fill="none" stroke="#00C0F2" stroke-width="4" stroke-miterlimit="10" x1="184.738" y1="96.733" x2="149.9" y2="96.733"/>
			<rect x="101.129" y="86.282" fill="#FFFFFF" width="34.838" height="27.87"/>
			
				<rect x="101.129" y="86.282" fill="none" stroke="#00C0F2" stroke-width="4" stroke-miterlimit="10" width="34.838" height="27.87"/>
			<line fill="#FFFFFF" x1="135.967" y1="96.733" x2="101.129" y2="96.733"/>
			
				<line fill="none" stroke="#00C0F2" stroke-width="4" stroke-miterlimit="10" x1="135.967" y1="96.733" x2="101.129" y2="96.733"/>
			
				<line fill="none" stroke="#00C0F2" stroke-width="4" stroke-miterlimit="10" x1="588.848" y1="128.087" x2="87.195" y2="128.087"/>
			
				<line fill="none" stroke="#00C0F2" stroke-width="4" stroke-miterlimit="10" x1="623.686" y1="68.863" x2="644.588" y2="68.863"/>
			<line fill="none" stroke="#00C0F2" stroke-width="4" stroke-miterlimit="10" x1="31.456" y1="68.863" x2="52.357" y2="68.863"/>
			
				<line fill="none" stroke="#00C0F2" stroke-width="4" stroke-miterlimit="10" x1="344.988" y1="51.446" x2="379.826" y2="51.446"/>
			<line fill="none" stroke="#00C0F2" stroke-width="4" stroke-miterlimit="10" x1="393.76" y1="51.446" x2="428.598" y2="51.446"/>
			
				<line fill="none" stroke="#00C0F2" stroke-width="4" stroke-miterlimit="10" x1="442.533" y1="51.446" x2="477.371" y2="51.446"/>
			
				<line fill="none" stroke="#00C0F2" stroke-width="4" stroke-miterlimit="10" x1="470.402" y1="51.292" x2="470.402" y2="58.413"/>
			<line fill="none" stroke="#00C0F2" stroke-width="4" stroke-miterlimit="10" x1="449.5" y1="51.292" x2="449.5" y2="58.413"/>
			
				<line fill="none" stroke="#00C0F2" stroke-width="4" stroke-miterlimit="10" x1="421.631" y1="51.292" x2="421.631" y2="58.413"/>
			
				<line fill="none" stroke="#00C0F2" stroke-width="4" stroke-miterlimit="10" x1="400.729" y1="51.292" x2="400.729" y2="58.413"/>
			
				<line fill="none" stroke="#00C0F2" stroke-width="4" stroke-miterlimit="10" x1="372.857" y1="51.292" x2="372.857" y2="58.413"/>
			
				<line fill="none" stroke="#00C0F2" stroke-width="4" stroke-miterlimit="10" x1="351.955" y1="51.292" x2="351.955" y2="58.413"/>
			<line fill="none" stroke="#00C0F2" stroke-width="4" stroke-miterlimit="10" x1="198.674" y1="51.598" x2="233.51" y2="51.598"/>
			
				<line fill="none" stroke="#00C0F2" stroke-width="4" stroke-miterlimit="10" x1="226.543" y1="51.446" x2="226.543" y2="58.565"/>
			
				<line fill="none" stroke="#00C0F2" stroke-width="4" stroke-miterlimit="10" x1="205.641" y1="51.446" x2="205.641" y2="58.565"/>
			<line fill="none" stroke="#00C0F2" stroke-width="4" stroke-miterlimit="10" x1="149.9" y1="51.598" x2="184.738" y2="51.598"/>
			
				<line fill="none" stroke="#00C0F2" stroke-width="4" stroke-miterlimit="10" x1="177.771" y1="51.446" x2="177.771" y2="58.565"/>
			
				<line fill="none" stroke="#00C0F2" stroke-width="4" stroke-miterlimit="10" x1="156.869" y1="51.446" x2="156.869" y2="58.565"/>
			
				<line fill="none" stroke="#00C0F2" stroke-width="4" stroke-miterlimit="10" x1="491.305" y1="51.598" x2="526.141" y2="51.598"/>
			
				<line fill="none" stroke="#00C0F2" stroke-width="4" stroke-miterlimit="10" x1="519.174" y1="51.446" x2="519.174" y2="58.565"/>
			
				<line fill="none" stroke="#00C0F2" stroke-width="4" stroke-miterlimit="10" x1="498.273" y1="51.446" x2="498.273" y2="58.565"/>
			
				<line fill="none" stroke="#00C0F2" stroke-width="4" stroke-miterlimit="10" x1="247.445" y1="51.598" x2="282.281" y2="51.598"/>
			
				<line fill="none" stroke="#00C0F2" stroke-width="4" stroke-miterlimit="10" x1="275.314" y1="51.446" x2="275.314" y2="58.565"/>
			
				<line fill="none" stroke="#00C0F2" stroke-width="4" stroke-miterlimit="10" x1="254.412" y1="51.446" x2="254.412" y2="58.565"/>
			
				<line fill="none" stroke="#00C0F2" stroke-width="4" stroke-miterlimit="10" x1="296.217" y1="51.598" x2="331.055" y2="51.598"/>
			
				<line fill="none" stroke="#00C0F2" stroke-width="4" stroke-miterlimit="10" x1="324.086" y1="51.446" x2="324.086" y2="58.565"/>
			
				<line fill="none" stroke="#00C0F2" stroke-width="4" stroke-miterlimit="10" x1="303.184" y1="51.446" x2="303.184" y2="58.565"/>
			
				<line fill="none" stroke="#00C0F2" stroke-width="4" stroke-miterlimit="10" x1="560.979" y1="51.446" x2="616.717" y2="51.446"/>
			
				<line fill="none" stroke="#00C0F2" stroke-width="4" stroke-miterlimit="10" x1="567.945" y1="58.413" x2="567.945" y2="51.446"/>
			<line fill="none" stroke="#00C0F2" stroke-width="4" stroke-miterlimit="10" x1="609.75" y1="58.413" x2="609.75" y2="51.446"/>
			
				<line fill="none" stroke="#00C0F2" stroke-width="4" stroke-miterlimit="10" x1="588.848" y1="44.479" x2="588.848" y2="51.446"/>
			<path fill="none" stroke="#00C0F2" stroke-width="4" stroke-miterlimit="10" d="M578.994,34.624
				c5.443-5.441,14.266-5.441,19.707,0"/>
			<path fill="none" stroke="#00C0F2" stroke-width="4" stroke-miterlimit="10" d="M569.141,24.771
				c10.885-10.884,28.529-10.884,39.414,0"/>
			<path fill="none" stroke="#00C0F2" stroke-width="4" stroke-miterlimit="10" d="M559.289,14.918
				c16.324-16.325,42.793-16.325,59.119,0"/>
			<line fill="none" stroke="#00C0F2" stroke-width="4" stroke-miterlimit="10" x1="59.324" y1="51.446" x2="115.063" y2="51.446"/>
			<line fill="none" stroke="#00C0F2" stroke-width="4" stroke-miterlimit="10" x1="66.293" y1="58.413" x2="66.293" y2="51.446"/>
			
				<line fill="none" stroke="#00C0F2" stroke-width="4" stroke-miterlimit="10" x1="108.096" y1="58.413" x2="108.096" y2="51.446"/>
			
				<line fill="none" stroke="#00C0F2" stroke-width="4" stroke-miterlimit="10" x1="379.826" y1="138.538" x2="365.891" y2="138.538"/>
			
				<line fill="none" stroke="#00C0F2" stroke-width="4" stroke-miterlimit="10" x1="344.988" y1="138.538" x2="358.924" y2="138.538"/>
			
				<line fill="none" stroke="#00C0F2" stroke-width="4" stroke-miterlimit="10" x1="665.359" y1="155.957" x2="672.457" y2="155.957"/>
			
				<line fill="none" stroke="#00C0F2" stroke-width="4" stroke-miterlimit="10" x1="672.457" y1="148.989" x2="672.457" y2="162.924"/>
			
				<rect x="665.49" y="72.348" fill="none" stroke="#00C0F2" stroke-width="4" stroke-miterlimit="10" width="20.902" height="69.674"/>
			
				<line fill="none" stroke="#00C0F2" stroke-width="4" stroke-miterlimit="10" x1="675.941" y1="72.348" x2="675.941" y2="142.022"/>
			<line fill="none" stroke="#00C0F2" stroke-width="4" stroke-miterlimit="10" x1="41.471" y1="86.282" x2="41.471" y2="114.152"/>
			<line fill="none" stroke="#00C0F2" stroke-width="4" stroke-miterlimit="10" x1="62.373" y1="86.282" x2="62.373" y2="114.152"/>
			
				<line fill="none" stroke="#00C0F2" stroke-width="4" stroke-miterlimit="10" x1="612.799" y1="86.282" x2="612.799" y2="114.152"/>
			
				<line fill="none" stroke="#00C0F2" stroke-width="4" stroke-miterlimit="10" x1="633.701" y1="86.282" x2="633.701" y2="114.152"/>
		</g>
	</g>
</g>
<g id="Layer_1">
</g>
</svg>
